<?xml version="1.0" encoding="us-ascii" standalone="no"?><svg xmlns="http://www.w3.org/2000/svg" xmlns:xlink="http://www.w3.org/1999/xlink" contentStyleType="text/css" height="561px" preserveAspectRatio="none" style="width:966px;height:561px;background:#FFFFFF;" version="1.1" viewBox="0 0 966 561" width="966px" zoomAndPan="magnify"><defs/><g><!--class Account--><g id="elem_Account"><rect codeLine="12" fill="#F1F1F1" height="126.2031" id="Account" rx="2.5" ry="2.5" style="stroke:#181818;stroke-width:0.5;" width="193" x="666.5" y="428"/><ellipse cx="733.25" cy="444" fill="#ADD1B2" rx="11" ry="11" style="stroke:#181818;stroke-width:1.0;"/><path d="M736.0156,439.875 Q736.1719,439.6563 736.3594,439.5469 Q736.5469,439.4375 736.7656,439.4375 Q737.1406,439.4375 737.375,439.7031 Q737.6094,439.9531 737.6094,440.5625 L737.6094,442.0156 Q737.6094,442.625 737.375,442.8906 Q737.1406,443.1563 736.7656,443.1563 Q736.4219,443.1563 736.2188,442.9531 Q736.0156,442.7656 735.9063,442.25 Q735.8594,441.8906 735.6719,441.7031 Q735.3438,441.3281 734.7344,441.1094 Q734.125,440.8906 733.5,440.8906 Q732.7344,440.8906 732.0938,441.2188 Q731.4688,441.5469 730.9688,442.2969 Q730.4844,443.0469 730.4844,444.0781 L730.4844,445.1719 Q730.4844,446.4063 731.375,447.2344 Q732.2656,448.0469 733.8594,448.0469 Q734.7969,448.0469 735.4531,447.7969 Q735.8438,447.6406 736.2656,447.2031 Q736.5313,446.9375 736.6719,446.8594 Q736.8281,446.7813 737.0313,446.7813 Q737.3594,446.7813 737.6094,447.0469 Q737.875,447.2969 737.875,447.6406 Q737.875,447.9844 737.5313,448.3906 Q737.0313,448.9688 736.2344,449.2969 Q735.1563,449.75 733.8594,449.75 Q732.3438,449.75 731.1406,449.125 Q730.1563,448.625 729.4688,447.5625 Q728.7813,446.4844 728.7813,445.2031 L728.7813,444.0469 Q728.7813,442.7188 729.3906,441.5781 Q730.0156,440.4219 731.1094,439.8125 Q732.2031,439.1875 733.4375,439.1875 Q734.1719,439.1875 734.8125,439.3594 Q735.4688,439.5156 736.0156,439.875 Z " fill="#000000"/><text fill="#000000" font-family="sans-serif" font-size="14" lengthAdjust="spacing" textLength="51" x="753.75" y="448.8535">Account</text><line style="stroke:#181818;stroke-width:0.5;" x1="667.5" x2="858.5" y1="460" y2="460"/><text fill="#000000" font-family="sans-serif" font-size="14" lengthAdjust="spacing" textLength="102" x="672.5" y="476.6738">-person: Person</text><text fill="#000000" font-family="sans-serif" font-size="14" lengthAdjust="spacing" textLength="110" x="672.5" y="492.3145">-password: String</text><line style="stroke:#181818;stroke-width:0.5;" x1="667.5" x2="858.5" y1="499.2813" y2="499.2813"/><text fill="#000000" font-family="sans-serif" font-size="14" lengthAdjust="spacing" textLength="181" x="672.5" y="515.9551">+Account(person, password)</text><text fill="#000000" font-family="sans-serif" font-size="14" lengthAdjust="spacing" textLength="83" x="672.5" y="531.5957">+getPerson()</text><text fill="#000000" font-family="sans-serif" font-size="14" lengthAdjust="spacing" textLength="99" x="672.5" y="547.2363">+getPassword()</text></g><!--class RegisterAccountRepository--><g id="elem_RegisterAccountRepository"><rect codeLine="28" fill="#F1F1F1" height="141.8438" id="RegisterAccountRepository" rx="2.5" ry="2.5" style="stroke:#181818;stroke-width:0.5;" width="295" x="615.5" y="225"/><ellipse cx="672.75" cy="241" fill="#ADD1B2" rx="11" ry="11" style="stroke:#181818;stroke-width:1.0;"/><path d="M675.5156,236.875 Q675.6719,236.6563 675.8594,236.5469 Q676.0469,236.4375 676.2656,236.4375 Q676.6406,236.4375 676.875,236.7031 Q677.1094,236.9531 677.1094,237.5625 L677.1094,239.0156 Q677.1094,239.625 676.875,239.8906 Q676.6406,240.1563 676.2656,240.1563 Q675.9219,240.1563 675.7188,239.9531 Q675.5156,239.7656 675.4063,239.25 Q675.3594,238.8906 675.1719,238.7031 Q674.8438,238.3281 674.2344,238.1094 Q673.625,237.8906 673,237.8906 Q672.2344,237.8906 671.5938,238.2188 Q670.9688,238.5469 670.4688,239.2969 Q669.9844,240.0469 669.9844,241.0781 L669.9844,242.1719 Q669.9844,243.4063 670.875,244.2344 Q671.7656,245.0469 673.3594,245.0469 Q674.2969,245.0469 674.9531,244.7969 Q675.3438,244.6406 675.7656,244.2031 Q676.0313,243.9375 676.1719,243.8594 Q676.3281,243.7813 676.5313,243.7813 Q676.8594,243.7813 677.1094,244.0469 Q677.375,244.2969 677.375,244.6406 Q677.375,244.9844 677.0313,245.3906 Q676.5313,245.9688 675.7344,246.2969 Q674.6563,246.75 673.3594,246.75 Q671.8438,246.75 670.6406,246.125 Q669.6563,245.625 668.9688,244.5625 Q668.2813,243.4844 668.2813,242.2031 L668.2813,241.0469 Q668.2813,239.7188 668.8906,238.5781 Q669.5156,237.4219 670.6094,236.8125 Q671.7031,236.1875 672.9375,236.1875 Q673.6719,236.1875 674.3125,236.3594 Q674.9688,236.5156 675.5156,236.875 Z " fill="#000000"/><text fill="#000000" font-family="sans-serif" font-size="14" lengthAdjust="spacing" textLength="172" x="693.25" y="245.8535">RegisterAccountRepository</text><line style="stroke:#181818;stroke-width:0.5;" x1="616.5" x2="909.5" y1="257" y2="257"/><text fill="#000000" font-family="sans-serif" font-size="14" lengthAdjust="spacing" textLength="159" x="621.5" y="273.6738">-accounts: List&lt;Account&gt;</text><line style="stroke:#181818;stroke-width:0.5;" x1="616.5" x2="909.5" y1="280.6406" y2="280.6406"/><text fill="#000000" font-family="sans-serif" font-size="14" lengthAdjust="spacing" textLength="96" x="621.5" y="297.3145">+getAccounts()</text><text fill="#000000" font-family="sans-serif" font-size="14" lengthAdjust="spacing" textLength="229" x="621.5" y="312.9551">+registerAccount(person, password)</text><text fill="#000000" font-family="sans-serif" font-size="14" lengthAdjust="spacing" textLength="117" x="621.5" y="328.5957">+validate(account)</text><text fill="#000000" font-family="sans-serif" font-size="14" lengthAdjust="spacing" textLength="143" x="621.5" y="344.2363">+addAccount(account)</text><text fill="#000000" font-family="sans-serif" font-size="14" lengthAdjust="spacing" textLength="283" x="621.5" y="359.877">+getTaskCategoryByDescription(description)</text></g><!--class AddressRepository--><g id="elem_AddressRepository"><rect codeLine="34" fill="#F1F1F1" height="94.9219" id="AddressRepository" rx="2.5" ry="2.5" style="stroke:#181818;stroke-width:0.5;" width="375" x="203.5" y="248.5"/><ellipse cx="326.75" cy="264.5" fill="#ADD1B2" rx="11" ry="11" style="stroke:#181818;stroke-width:1.0;"/><path d="M329.5156,260.375 Q329.6719,260.1563 329.8594,260.0469 Q330.0469,259.9375 330.2656,259.9375 Q330.6406,259.9375 330.875,260.2031 Q331.1094,260.4531 331.1094,261.0625 L331.1094,262.5156 Q331.1094,263.125 330.875,263.3906 Q330.6406,263.6563 330.2656,263.6563 Q329.9219,263.6563 329.7188,263.4531 Q329.5156,263.2656 329.4063,262.75 Q329.3594,262.3906 329.1719,262.2031 Q328.8438,261.8281 328.2344,261.6094 Q327.625,261.3906 327,261.3906 Q326.2344,261.3906 325.5938,261.7188 Q324.9688,262.0469 324.4688,262.7969 Q323.9844,263.5469 323.9844,264.5781 L323.9844,265.6719 Q323.9844,266.9063 324.875,267.7344 Q325.7656,268.5469 327.3594,268.5469 Q328.2969,268.5469 328.9531,268.2969 Q329.3438,268.1406 329.7656,267.7031 Q330.0313,267.4375 330.1719,267.3594 Q330.3281,267.2813 330.5313,267.2813 Q330.8594,267.2813 331.1094,267.5469 Q331.375,267.7969 331.375,268.1406 Q331.375,268.4844 331.0313,268.8906 Q330.5313,269.4688 329.7344,269.7969 Q328.6563,270.25 327.3594,270.25 Q325.8438,270.25 324.6406,269.625 Q323.6563,269.125 322.9688,268.0625 Q322.2813,266.9844 322.2813,265.7031 L322.2813,264.5469 Q322.2813,263.2188 322.8906,262.0781 Q323.5156,260.9219 324.6094,260.3125 Q325.7031,259.6875 326.9375,259.6875 Q327.6719,259.6875 328.3125,259.8594 Q328.9688,260.0156 329.5156,260.375 Z " fill="#000000"/><text fill="#000000" font-family="sans-serif" font-size="14" lengthAdjust="spacing" textLength="120" x="347.25" y="269.3535">AddressRepository</text><line style="stroke:#181818;stroke-width:0.5;" x1="204.5" x2="577.5" y1="280.5" y2="280.5"/><text fill="#000000" font-family="sans-serif" font-size="14" lengthAdjust="spacing" textLength="176" x="209.5" y="297.1738">-addressList: List&lt;Address&gt;</text><line style="stroke:#181818;stroke-width:0.5;" x1="204.5" x2="577.5" y1="304.1406" y2="304.1406"/><text fill="#000000" font-family="sans-serif" font-size="14" lengthAdjust="spacing" textLength="363" x="209.5" y="320.8145">+registerAddress(streetName, cityName, zipCode, district)</text><text fill="#000000" font-family="sans-serif" font-size="14" lengthAdjust="spacing" textLength="145" x="209.5" y="336.4551">+addAddress(address)</text></g><!--class Repositories--><g id="elem_Repositories"><rect codeLine="40" fill="#F1F1F1" height="110.5625" id="Repositories" rx="2.5" ry="2.5" style="stroke:#181818;stroke-width:0.5;" width="194" x="669" y="22.5"/><ellipse cx="722.25" cy="38.5" fill="#ADD1B2" rx="11" ry="11" style="stroke:#181818;stroke-width:1.0;"/><path d="M725.0156,34.375 Q725.1719,34.1563 725.3594,34.0469 Q725.5469,33.9375 725.7656,33.9375 Q726.1406,33.9375 726.375,34.2031 Q726.6094,34.4531 726.6094,35.0625 L726.6094,36.5156 Q726.6094,37.125 726.375,37.3906 Q726.1406,37.6563 725.7656,37.6563 Q725.4219,37.6563 725.2188,37.4531 Q725.0156,37.2656 724.9063,36.75 Q724.8594,36.3906 724.6719,36.2031 Q724.3438,35.8281 723.7344,35.6094 Q723.125,35.3906 722.5,35.3906 Q721.7344,35.3906 721.0938,35.7188 Q720.4688,36.0469 719.9688,36.7969 Q719.4844,37.5469 719.4844,38.5781 L719.4844,39.6719 Q719.4844,40.9063 720.375,41.7344 Q721.2656,42.5469 722.8594,42.5469 Q723.7969,42.5469 724.4531,42.2969 Q724.8438,42.1406 725.2656,41.7031 Q725.5313,41.4375 725.6719,41.3594 Q725.8281,41.2813 726.0313,41.2813 Q726.3594,41.2813 726.6094,41.5469 Q726.875,41.7969 726.875,42.1406 Q726.875,42.4844 726.5313,42.8906 Q726.0313,43.4688 725.2344,43.7969 Q724.1563,44.25 722.8594,44.25 Q721.3438,44.25 720.1406,43.625 Q719.1563,43.125 718.4688,42.0625 Q717.7813,40.9844 717.7813,39.7031 L717.7813,38.5469 Q717.7813,37.2188 718.3906,36.0781 Q719.0156,34.9219 720.1094,34.3125 Q721.2031,33.6875 722.4375,33.6875 Q723.1719,33.6875 723.8125,33.8594 Q724.4688,34.0156 725.0156,34.375 Z " fill="#000000"/><text fill="#000000" font-family="sans-serif" font-size="14" lengthAdjust="spacing" textLength="79" x="742.75" y="43.3535">Repositories</text><line style="stroke:#181818;stroke-width:0.5;" x1="670" x2="862" y1="54.5" y2="54.5"/><line style="stroke:#181818;stroke-width:0.5;" x1="670" x2="862" y1="62.5" y2="62.5"/><text fill="#000000" font-family="sans-serif" font-size="14" lengthAdjust="spacing" textLength="94" x="675" y="79.1738">-Repositories()</text><text fill="#000000" font-family="sans-serif" font-size="14" lengthAdjust="spacing" textLength="182" x="675" y="94.8145">+getInstance() : Repositories</text><text fill="#000000" font-family="sans-serif" font-size="14" lengthAdjust="spacing" textLength="158" x="675" y="110.4551">+getAddressRepository()</text><text fill="#000000" font-family="sans-serif" font-size="14" lengthAdjust="spacing" textLength="157" x="675" y="126.0957">+getAccountRepository()</text></g><!--class RegisterAccountController--><g id="elem_RegisterAccountController"><rect codeLine="47" fill="#F1F1F1" height="141.8438" id="RegisterAccountController" rx="2.5" ry="2.5" style="stroke:#181818;stroke-width:0.5;" width="375" x="190.5" y="7"/><ellipse cx="290.75" cy="23" fill="#ADD1B2" rx="11" ry="11" style="stroke:#181818;stroke-width:1.0;"/><path d="M293.5156,18.875 Q293.6719,18.6563 293.8594,18.5469 Q294.0469,18.4375 294.2656,18.4375 Q294.6406,18.4375 294.875,18.7031 Q295.1094,18.9531 295.1094,19.5625 L295.1094,21.0156 Q295.1094,21.625 294.875,21.8906 Q294.6406,22.1563 294.2656,22.1563 Q293.9219,22.1563 293.7188,21.9531 Q293.5156,21.7656 293.4063,21.25 Q293.3594,20.8906 293.1719,20.7031 Q292.8438,20.3281 292.2344,20.1094 Q291.625,19.8906 291,19.8906 Q290.2344,19.8906 289.5938,20.2188 Q288.9688,20.5469 288.4688,21.2969 Q287.9844,22.0469 287.9844,23.0781 L287.9844,24.1719 Q287.9844,25.4063 288.875,26.2344 Q289.7656,27.0469 291.3594,27.0469 Q292.2969,27.0469 292.9531,26.7969 Q293.3438,26.6406 293.7656,26.2031 Q294.0313,25.9375 294.1719,25.8594 Q294.3281,25.7813 294.5313,25.7813 Q294.8594,25.7813 295.1094,26.0469 Q295.375,26.2969 295.375,26.6406 Q295.375,26.9844 295.0313,27.3906 Q294.5313,27.9688 293.7344,28.2969 Q292.6563,28.75 291.3594,28.75 Q289.8438,28.75 288.6406,28.125 Q287.6563,27.625 286.9688,26.5625 Q286.2813,25.4844 286.2813,24.2031 L286.2813,23.0469 Q286.2813,21.7188 286.8906,20.5781 Q287.5156,19.4219 288.6094,18.8125 Q289.7031,18.1875 290.9375,18.1875 Q291.6719,18.1875 292.3125,18.3594 Q292.9688,18.5156 293.5156,18.875 Z " fill="#000000"/><text fill="#000000" font-family="sans-serif" font-size="14" lengthAdjust="spacing" textLength="166" x="311.25" y="27.8535">RegisterAccountController</text><line style="stroke:#181818;stroke-width:0.5;" x1="191.5" x2="564.5" y1="39" y2="39"/><line style="stroke:#181818;stroke-width:0.5;" x1="191.5" x2="564.5" y1="47" y2="47"/><text fill="#000000" font-family="sans-serif" font-size="14" lengthAdjust="spacing" textLength="184" x="196.5" y="63.6738">+RegisterAccountController()</text><text fill="#000000" font-family="sans-serif" font-size="14" lengthAdjust="spacing" textLength="158" x="196.5" y="79.3145">+getAddressRepository()</text><text fill="#000000" font-family="sans-serif" font-size="14" lengthAdjust="spacing" textLength="157" x="196.5" y="94.9551">+getAccountRepository()</text><text fill="#000000" font-family="sans-serif" font-size="14" lengthAdjust="spacing" textLength="363" x="196.5" y="110.5957">+registerAddress(district, cityName, streetName, zipCode)</text><text fill="#000000" font-family="sans-serif" font-size="14" lengthAdjust="spacing" textLength="288" x="196.5" y="126.2363">+registerAccount(person, password, address)</text><text fill="#000000" font-family="sans-serif" font-size="14" lengthAdjust="spacing" textLength="229" x="196.5" y="141.877">+registerAccount(person, password)</text></g><!--class RegisterAccountUI--><g id="elem_RegisterAccountUI"><rect codeLine="60" fill="#F1F1F1" height="48" id="RegisterAccountUI" rx="2.5" ry="2.5" style="stroke:#181818;stroke-width:0.5;" width="148" x="7" y="54"/><ellipse cx="22" cy="70" fill="#ADD1B2" rx="11" ry="11" style="stroke:#181818;stroke-width:1.0;"/><path d="M24.7656,65.875 Q24.9219,65.6563 25.1094,65.5469 Q25.2969,65.4375 25.5156,65.4375 Q25.8906,65.4375 26.125,65.7031 Q26.3594,65.9531 26.3594,66.5625 L26.3594,68.0156 Q26.3594,68.625 26.125,68.8906 Q25.8906,69.1563 25.5156,69.1563 Q25.1719,69.1563 24.9688,68.9531 Q24.7656,68.7656 24.6563,68.25 Q24.6094,67.8906 24.4219,67.7031 Q24.0938,67.3281 23.4844,67.1094 Q22.875,66.8906 22.25,66.8906 Q21.4844,66.8906 20.8438,67.2188 Q20.2188,67.5469 19.7188,68.2969 Q19.2344,69.0469 19.2344,70.0781 L19.2344,71.1719 Q19.2344,72.4063 20.125,73.2344 Q21.0156,74.0469 22.6094,74.0469 Q23.5469,74.0469 24.2031,73.7969 Q24.5938,73.6406 25.0156,73.2031 Q25.2813,72.9375 25.4219,72.8594 Q25.5781,72.7813 25.7813,72.7813 Q26.1094,72.7813 26.3594,73.0469 Q26.625,73.2969 26.625,73.6406 Q26.625,73.9844 26.2813,74.3906 Q25.7813,74.9688 24.9844,75.2969 Q23.9063,75.75 22.6094,75.75 Q21.0938,75.75 19.8906,75.125 Q18.9063,74.625 18.2188,73.5625 Q17.5313,72.4844 17.5313,71.2031 L17.5313,70.0469 Q17.5313,68.7188 18.1406,67.5781 Q18.7656,66.4219 19.8594,65.8125 Q20.9531,65.1875 22.1875,65.1875 Q22.9219,65.1875 23.5625,65.3594 Q24.2188,65.5156 24.7656,65.875 Z " fill="#000000"/><text fill="#000000" font-family="sans-serif" font-size="14" lengthAdjust="spacing" textLength="116" x="36" y="74.8535">RegisterAccountUI</text><line style="stroke:#181818;stroke-width:0.5;" x1="8" x2="154" y1="86" y2="86"/><line style="stroke:#181818;stroke-width:0.5;" x1="8" x2="154" y1="94" y2="94"/></g><!--link Repositories to Repositories--><g id="link_Repositories_Repositories"><path codeLine="63" d="M863.28,58.46 C883.48,60.52 898,67.03 898,78 C898,88.03 885.87,94.33 868.36,96.91 " fill="none" id="Repositories-to-Repositories" style="stroke:#181818;stroke-width:1.0;"/><polygon fill="#181818" points="863.28,97.54,872.7036,100.4028,868.242,96.9251,871.7198,92.4636,863.28,97.54" style="stroke:#181818;stroke-width:1.0;"/><text fill="#000000" font-family="sans-serif" font-size="13" lengthAdjust="spacing" textLength="49" x="904" y="82.7686">instance</text></g><!--link RegisterAccountUI to RegisterAccountController--><g id="link_RegisterAccountUI_RegisterAccountController"><path codeLine="65" d="M155.02,78 C169.34,78 180,78 180,78 C180,78 181.86,78 185.06,78 " fill="none" id="RegisterAccountUI-to-RegisterAccountController" style="stroke:#181818;stroke-width:1.0;stroke-dasharray:7.0,7.0;"/><polygon fill="#181818" points="190.22,78,181.22,74,185.22,78,181.22,82,190.22,78" style="stroke:#181818;stroke-width:1.0;"/></g><!--link RegisterAccountController to Repositories--><g id="link_RegisterAccountController_Repositories"><path codeLine="67" d="M565.75,78 C599.49,78 633.48,78 663.63,78 " fill="none" id="RegisterAccountController-to-Repositories" style="stroke:#181818;stroke-width:1.0;stroke-dasharray:7.0,7.0;"/><polygon fill="#181818" points="668.82,78,659.82,74,663.82,78,659.82,82,668.82,78" style="stroke:#181818;stroke-width:1.0;"/><text fill="#000000" font-family="sans-serif" font-size="13" lengthAdjust="spacing" textLength="67" x="583.75" y="71.7686">repositories</text></g><!--link Repositories to AddressRepository--><g id="link_Repositories_AddressRepository"><path codeLine="69" d="M733.99,133.6 C716.35,163.69 698,195 698,195 C698,195 598,225 598,225 C598,225 569.5,234.64 533.66,246.76 " fill="none" id="Repositories-to-AddressRepository" style="stroke:#181818;stroke-width:1.0;"/><polygon fill="#181818" points="528.78,248.41,538.5873,249.3143,533.5162,246.8074,536.0231,241.7364,528.78,248.41" style="stroke:#181818;stroke-width:1.0;"/><text fill="#000000" font-family="sans-serif" font-size="13" lengthAdjust="spacing" textLength="7" x="542.3416" y="237.8655">1</text></g><!--link RegisterAccountController to RegisterAccountRepository--><g id="link_RegisterAccountController_RegisterAccountRepository"><path codeLine="72" d="M503,149.13 C544.73,172.54 591.31,198.68 633.39,222.28 " fill="none" id="RegisterAccountController-to-RegisterAccountRepository" style="stroke:#181818;stroke-width:1.0;stroke-dasharray:7.0,7.0;"/><polygon fill="#181818" points="637.97,224.85,632.0955,216.9449,633.6148,222.3939,628.1658,223.9133,637.97,224.85" style="stroke:#181818;stroke-width:1.0;"/><text fill="#000000" font-family="sans-serif" font-size="13" lengthAdjust="spacing" textLength="153" x="584" y="191.7686">registerAccountRepository</text></g><!--link RegisterAccountController to AddressRepository--><g id="link_RegisterAccountController_AddressRepository"><path codeLine="73" d="M382.22,149.13 C384.06,179.74 386.19,215.01 387.88,243.19 " fill="none" id="RegisterAccountController-to-AddressRepository" style="stroke:#181818;stroke-width:1.0;stroke-dasharray:7.0,7.0;"/><polygon fill="#181818" points="388.19,248.37,391.6422,239.146,387.8897,243.379,383.6567,239.6265,388.19,248.37" style="stroke:#181818;stroke-width:1.0;"/><text fill="#000000" font-family="sans-serif" font-size="13" lengthAdjust="spacing" textLength="101" x="386" y="191.7686">adressRepository</text></g><!--link Repositories to RegisterAccountRepository--><g id="link_Repositories_RegisterAccountRepository"><path codeLine="75" d="M765.24,133.51 C764.88,159.63 764.44,191.33 764.05,219.71 " fill="none" id="Repositories-to-RegisterAccountRepository" style="stroke:#181818;stroke-width:1.0;"/><polygon fill="#181818" points="763.97,224.96,768.0982,216.0181,764.0414,219.9605,760.099,215.9038,763.97,224.96" style="stroke:#181818;stroke-width:1.0;"/><text fill="#000000" font-family="sans-serif" font-size="13" lengthAdjust="spacing" textLength="7" x="756.6933" y="214.2301">1</text></g><!--link RegisterAccountRepository to Account--><g id="link_RegisterAccountRepository_Account"><path codeLine="77" d="M763,367.22 C763,385.35 763,404.82 763,422.79 " fill="none" id="RegisterAccountRepository-to-Account" style="stroke:#181818;stroke-width:1.0;"/><polygon fill="#181818" points="763,427.81,767,418.81,763,422.81,759,418.81,763,427.81" style="stroke:#181818;stroke-width:1.0;"/><text fill="#000000" font-family="sans-serif" font-size="13" lengthAdjust="spacing" textLength="5" x="757.6953" y="417.0437">*</text></g><!--SRC=[ZLJ1Rjim3BthAuXSuivfiLsD8K2NNG8Cmz1i7w19h2D4aGo9MU4E-_V9jkp8TftD5yia7_duI7djJyfKtF4pdAsnukZi6O7S1TdLKt5nuYKUgDO83WLnK-eqm1-vj2_AbF3CjKyzMXcakaAehAwR3xP-msaTMPQWXERUFn8vzVD2k1VM7DGhmdl6rXgV2SY2K-MHGAg6ZhA6CTQ2u548Up44lnc4vnugTDwQ0hwrxzuO8b-iamKSGWrJjkQynsOTPZE4tKL_YTIboL9B30gsFps99ooL9tGnuHDMrYkohXveySxZ2_WI8Z_6mEqrRRJuePGRvrma-Ojh9JbX5alqTYvb3nqy_qsufVIT-zCkP2w3_LFz6Rrmgch4p-Jrt2OTXY6bG-_Vwh_pDCtt4dIMxRJTpfnvSeZqbPzn0q9HtPrULRMpCXna27PAZBgDo5Xgr6taez0FZ59ZEj-zyM7V1MPtK8o2abbDsqpnCqblBChE6d9MQtI1Lhxe31doXRBvGiLygcSlMAfcgd5KDaKkBDu61eNpVoyfI_TZqk6FVMWxk4VpkT-EvrM0YXDf0gVuX-sofhFuHEw7MHMNZdf6QVLXDTzkThF2d5foBuhf_KwotiuvlsD56CYKs9X_R62HpgoF97iBVhVgVvRDCFy2]--></g></svg>