<?xml version="1.0" encoding="us-ascii" standalone="no"?><svg xmlns="http://www.w3.org/2000/svg" xmlns:xlink="http://www.w3.org/1999/xlink" contentStyleType="text/css" height="654px" preserveAspectRatio="none" style="width:3687px;height:654px;background:#FFFFFF;" version="1.1" viewBox="0 0 3687 654" width="3687px" zoomAndPan="magnify"><defs/><g><!--class PropertiesListUI--><g id="elem_PropertiesListUI"><rect codeLine="11" fill="#F1F1F1" height="48" id="PropertiesListUI" rx="2.5" ry="2.5" style="stroke:#181818;stroke-width:0.5;" width="131" x="400" y="30.5"/><ellipse cx="415" cy="46.5" fill="#ADD1B2" rx="11" ry="11" style="stroke:#181818;stroke-width:1.0;"/><path d="M417.7656,42.375 Q417.9219,42.1563 418.1094,42.0469 Q418.2969,41.9375 418.5156,41.9375 Q418.8906,41.9375 419.125,42.2031 Q419.3594,42.4531 419.3594,43.0625 L419.3594,44.5156 Q419.3594,45.125 419.125,45.3906 Q418.8906,45.6563 418.5156,45.6563 Q418.1719,45.6563 417.9688,45.4531 Q417.7656,45.2656 417.6563,44.75 Q417.6094,44.3906 417.4219,44.2031 Q417.0938,43.8281 416.4844,43.6094 Q415.875,43.3906 415.25,43.3906 Q414.4844,43.3906 413.8438,43.7188 Q413.2188,44.0469 412.7188,44.7969 Q412.2344,45.5469 412.2344,46.5781 L412.2344,47.6719 Q412.2344,48.9063 413.125,49.7344 Q414.0156,50.5469 415.6094,50.5469 Q416.5469,50.5469 417.2031,50.2969 Q417.5938,50.1406 418.0156,49.7031 Q418.2813,49.4375 418.4219,49.3594 Q418.5781,49.2813 418.7813,49.2813 Q419.1094,49.2813 419.3594,49.5469 Q419.625,49.7969 419.625,50.1406 Q419.625,50.4844 419.2813,50.8906 Q418.7813,51.4688 417.9844,51.7969 Q416.9063,52.25 415.6094,52.25 Q414.0938,52.25 412.8906,51.625 Q411.9063,51.125 411.2188,50.0625 Q410.5313,48.9844 410.5313,47.7031 L410.5313,46.5469 Q410.5313,45.2188 411.1406,44.0781 Q411.7656,42.9219 412.8594,42.3125 Q413.9531,41.6875 415.1875,41.6875 Q415.9219,41.6875 416.5625,41.8594 Q417.2188,42.0156 417.7656,42.375 Z " fill="#000000"/><text fill="#000000" font-family="sans-serif" font-size="14" lengthAdjust="spacing" textLength="99" x="429" y="51.3535">PropertiesListUI</text><line style="stroke:#181818;stroke-width:0.5;" x1="401" x2="530" y1="62.5" y2="62.5"/><line style="stroke:#181818;stroke-width:0.5;" x1="401" x2="530" y1="70.5" y2="70.5"/></g><!--class PropertiesListController--><g id="elem_PropertiesListController"><rect codeLine="14" fill="#F1F1F1" height="63.6406" id="PropertiesListController" rx="2.5" ry="2.5" style="stroke:#181818;stroke-width:0.5;" width="208" x="566.5" y="22.5"/><ellipse cx="593.65" cy="38.5" fill="#ADD1B2" rx="11" ry="11" style="stroke:#181818;stroke-width:1.0;"/><path d="M596.4156,34.375 Q596.5719,34.1563 596.7594,34.0469 Q596.9469,33.9375 597.1656,33.9375 Q597.5406,33.9375 597.775,34.2031 Q598.0094,34.4531 598.0094,35.0625 L598.0094,36.5156 Q598.0094,37.125 597.775,37.3906 Q597.5406,37.6563 597.1656,37.6563 Q596.8219,37.6563 596.6188,37.4531 Q596.4156,37.2656 596.3063,36.75 Q596.2594,36.3906 596.0719,36.2031 Q595.7438,35.8281 595.1344,35.6094 Q594.525,35.3906 593.9,35.3906 Q593.1344,35.3906 592.4938,35.7188 Q591.8688,36.0469 591.3688,36.7969 Q590.8844,37.5469 590.8844,38.5781 L590.8844,39.6719 Q590.8844,40.9063 591.775,41.7344 Q592.6656,42.5469 594.2594,42.5469 Q595.1969,42.5469 595.8531,42.2969 Q596.2438,42.1406 596.6656,41.7031 Q596.9313,41.4375 597.0719,41.3594 Q597.2281,41.2813 597.4313,41.2813 Q597.7594,41.2813 598.0094,41.5469 Q598.275,41.7969 598.275,42.1406 Q598.275,42.4844 597.9313,42.8906 Q597.4313,43.4688 596.6344,43.7969 Q595.5563,44.25 594.2594,44.25 Q592.7438,44.25 591.5406,43.625 Q590.5563,43.125 589.8688,42.0625 Q589.1813,40.9844 589.1813,39.7031 L589.1813,38.5469 Q589.1813,37.2188 589.7906,36.0781 Q590.4156,34.9219 591.5094,34.3125 Q592.6031,33.6875 593.8375,33.6875 Q594.5719,33.6875 595.2125,33.8594 Q595.8688,34.0156 596.4156,34.375 Z " fill="#000000"/><text fill="#000000" font-family="sans-serif" font-size="14" lengthAdjust="spacing" textLength="149" x="610.35" y="43.3535">PropertiesListController</text><line style="stroke:#181818;stroke-width:0.5;" x1="567.5" x2="773.5" y1="54.5" y2="54.5"/><line style="stroke:#181818;stroke-width:0.5;" x1="567.5" x2="773.5" y1="62.5" y2="62.5"/><text fill="#000000" font-family="sans-serif" font-size="14" lengthAdjust="spacing" textLength="196" x="572.5" y="79.1738">+getAdvertisementRepository()</text></g><!--class Filtering--><g id="elem_Filtering"><rect codeLine="18" fill="#F1F1F1" height="94.9219" id="Filtering" rx="2.5" ry="2.5" style="stroke:#181818;stroke-width:0.5;" width="483" x="7" y="178"/><ellipse cx="218.75" cy="194" fill="#ADD1B2" rx="11" ry="11" style="stroke:#181818;stroke-width:1.0;"/><path d="M221.5156,189.875 Q221.6719,189.6563 221.8594,189.5469 Q222.0469,189.4375 222.2656,189.4375 Q222.6406,189.4375 222.875,189.7031 Q223.1094,189.9531 223.1094,190.5625 L223.1094,192.0156 Q223.1094,192.625 222.875,192.8906 Q222.6406,193.1563 222.2656,193.1563 Q221.9219,193.1563 221.7188,192.9531 Q221.5156,192.7656 221.4063,192.25 Q221.3594,191.8906 221.1719,191.7031 Q220.8438,191.3281 220.2344,191.1094 Q219.625,190.8906 219,190.8906 Q218.2344,190.8906 217.5938,191.2188 Q216.9688,191.5469 216.4688,192.2969 Q215.9844,193.0469 215.9844,194.0781 L215.9844,195.1719 Q215.9844,196.4063 216.875,197.2344 Q217.7656,198.0469 219.3594,198.0469 Q220.2969,198.0469 220.9531,197.7969 Q221.3438,197.6406 221.7656,197.2031 Q222.0313,196.9375 222.1719,196.8594 Q222.3281,196.7813 222.5313,196.7813 Q222.8594,196.7813 223.1094,197.0469 Q223.375,197.2969 223.375,197.6406 Q223.375,197.9844 223.0313,198.3906 Q222.5313,198.9688 221.7344,199.2969 Q220.6563,199.75 219.3594,199.75 Q217.8438,199.75 216.6406,199.125 Q215.6563,198.625 214.9688,197.5625 Q214.2813,196.4844 214.2813,195.2031 L214.2813,194.0469 Q214.2813,192.7188 214.8906,191.5781 Q215.5156,190.4219 216.6094,189.8125 Q217.7031,189.1875 218.9375,189.1875 Q219.6719,189.1875 220.3125,189.3594 Q220.9688,189.5156 221.5156,189.875 Z " fill="#000000"/><text fill="#000000" font-family="sans-serif" font-size="14" lengthAdjust="spacing" textLength="51" x="239.25" y="198.8535">Filtering</text><line style="stroke:#181818;stroke-width:0.5;" x1="8" x2="489" y1="210" y2="210"/><line style="stroke:#181818;stroke-width:0.5;" x1="8" x2="489" y1="218" y2="218"/><text fill="#000000" font-family="sans-serif" font-size="14" lengthAdjust="spacing" textLength="447" x="13" y="234.6738">+filterRequestType(ArrayList&lt;Advertisement&gt; list, String RequestType)</text><text fill="#000000" font-family="sans-serif" font-size="14" lengthAdjust="spacing" textLength="444" x="13" y="250.3145">+filterPropertyType(ArrayList&lt;Advertisement&gt; list,String propertyType)</text><text fill="#000000" font-family="sans-serif" font-size="14" lengthAdjust="spacing" textLength="471" x="13" y="265.9551">+filterNumberOfRooms(ArrayList&lt;Advertisement&gt; list,int numberBedrooms)</text></g><!--class Sorting--><g id="elem_Sorting"><rect codeLine="26" fill="#F1F1F1" height="94.9219" id="Sorting" rx="2.5" ry="2.5" style="stroke:#181818;stroke-width:0.5;" width="291" x="525" y="178"/><ellipse cx="643.75" cy="194" fill="#ADD1B2" rx="11" ry="11" style="stroke:#181818;stroke-width:1.0;"/><path d="M646.5156,189.875 Q646.6719,189.6563 646.8594,189.5469 Q647.0469,189.4375 647.2656,189.4375 Q647.6406,189.4375 647.875,189.7031 Q648.1094,189.9531 648.1094,190.5625 L648.1094,192.0156 Q648.1094,192.625 647.875,192.8906 Q647.6406,193.1563 647.2656,193.1563 Q646.9219,193.1563 646.7188,192.9531 Q646.5156,192.7656 646.4063,192.25 Q646.3594,191.8906 646.1719,191.7031 Q645.8438,191.3281 645.2344,191.1094 Q644.625,190.8906 644,190.8906 Q643.2344,190.8906 642.5938,191.2188 Q641.9688,191.5469 641.4688,192.2969 Q640.9844,193.0469 640.9844,194.0781 L640.9844,195.1719 Q640.9844,196.4063 641.875,197.2344 Q642.7656,198.0469 644.3594,198.0469 Q645.2969,198.0469 645.9531,197.7969 Q646.3438,197.6406 646.7656,197.2031 Q647.0313,196.9375 647.1719,196.8594 Q647.3281,196.7813 647.5313,196.7813 Q647.8594,196.7813 648.1094,197.0469 Q648.375,197.2969 648.375,197.6406 Q648.375,197.9844 648.0313,198.3906 Q647.5313,198.9688 646.7344,199.2969 Q645.6563,199.75 644.3594,199.75 Q642.8438,199.75 641.6406,199.125 Q640.6563,198.625 639.9688,197.5625 Q639.2813,196.4844 639.2813,195.2031 L639.2813,194.0469 Q639.2813,192.7188 639.8906,191.5781 Q640.5156,190.4219 641.6094,189.8125 Q642.7031,189.1875 643.9375,189.1875 Q644.6719,189.1875 645.3125,189.3594 Q645.9688,189.5156 646.5156,189.875 Z " fill="#000000"/><text fill="#000000" font-family="sans-serif" font-size="14" lengthAdjust="spacing" textLength="45" x="664.25" y="198.8535">Sorting</text><line style="stroke:#181818;stroke-width:0.5;" x1="526" x2="815" y1="210" y2="210"/><line style="stroke:#181818;stroke-width:0.5;" x1="526" x2="815" y1="218" y2="218"/><text fill="#000000" font-family="sans-serif" font-size="14" lengthAdjust="spacing" textLength="257" x="531" y="234.6738">+sortPrice(ArrayList&lt;Advertisement&gt; list)</text><text fill="#000000" font-family="sans-serif" font-size="14" lengthAdjust="spacing" textLength="279" x="531" y="250.3145">+sortLocation(ArrayList&lt;Advertisement&gt; list)</text><text fill="#000000" font-family="sans-serif" font-size="14" lengthAdjust="spacing" textLength="255" x="531" y="265.9551">+sortArea(ArrayList&lt;Advertisement&gt; list)</text></g><!--class Repositores--><g id="elem_Repositores"><rect codeLine="34" fill="#F1F1F1" height="94.9219" id="Repositores" rx="2.5" ry="2.5" style="stroke:#181818;stroke-width:0.5;" width="208" x="878.5" y="7"/><ellipse cx="940.25" cy="23" fill="#ADD1B2" rx="11" ry="11" style="stroke:#181818;stroke-width:1.0;"/><path d="M943.0156,18.875 Q943.1719,18.6563 943.3594,18.5469 Q943.5469,18.4375 943.7656,18.4375 Q944.1406,18.4375 944.375,18.7031 Q944.6094,18.9531 944.6094,19.5625 L944.6094,21.0156 Q944.6094,21.625 944.375,21.8906 Q944.1406,22.1563 943.7656,22.1563 Q943.4219,22.1563 943.2188,21.9531 Q943.0156,21.7656 942.9063,21.25 Q942.8594,20.8906 942.6719,20.7031 Q942.3438,20.3281 941.7344,20.1094 Q941.125,19.8906 940.5,19.8906 Q939.7344,19.8906 939.0938,20.2188 Q938.4688,20.5469 937.9688,21.2969 Q937.4844,22.0469 937.4844,23.0781 L937.4844,24.1719 Q937.4844,25.4063 938.375,26.2344 Q939.2656,27.0469 940.8594,27.0469 Q941.7969,27.0469 942.4531,26.7969 Q942.8438,26.6406 943.2656,26.2031 Q943.5313,25.9375 943.6719,25.8594 Q943.8281,25.7813 944.0313,25.7813 Q944.3594,25.7813 944.6094,26.0469 Q944.875,26.2969 944.875,26.6406 Q944.875,26.9844 944.5313,27.3906 Q944.0313,27.9688 943.2344,28.2969 Q942.1563,28.75 940.8594,28.75 Q939.3438,28.75 938.1406,28.125 Q937.1563,27.625 936.4688,26.5625 Q935.7813,25.4844 935.7813,24.2031 L935.7813,23.0469 Q935.7813,21.7188 936.3906,20.5781 Q937.0156,19.4219 938.1094,18.8125 Q939.2031,18.1875 940.4375,18.1875 Q941.1719,18.1875 941.8125,18.3594 Q942.4688,18.5156 943.0156,18.875 Z " fill="#000000"/><text fill="#000000" font-family="sans-serif" font-size="14" lengthAdjust="spacing" textLength="76" x="960.75" y="27.8535">Repositores</text><line style="stroke:#181818;stroke-width:0.5;" x1="879.5" x2="1085.5" y1="39" y2="39"/><line style="stroke:#181818;stroke-width:0.5;" x1="879.5" x2="1085.5" y1="47" y2="47"/><text fill="#000000" font-family="sans-serif" font-size="14" lengthAdjust="spacing" textLength="91" x="884.5" y="63.6738">-Repositores()</text><text fill="#000000" font-family="sans-serif" font-size="14" lengthAdjust="spacing" textLength="179" x="884.5" y="79.3145">+getInstance() : Repositores</text><text fill="#000000" font-family="sans-serif" font-size="14" lengthAdjust="spacing" textLength="196" x="884.5" y="94.9551">+getAdvertisementRepository()</text></g><!--class AdvertisementRepository--><g id="elem_AdvertisementRepository"><rect codeLine="42" fill="#F1F1F1" height="79.2813" id="AdvertisementRepository" rx="2.5" ry="2.5" style="stroke:#181818;stroke-width:0.5;" width="253" x="851" y="186"/><ellipse cx="894.35" cy="202" fill="#ADD1B2" rx="11" ry="11" style="stroke:#181818;stroke-width:1.0;"/><path d="M897.1156,197.875 Q897.2719,197.6563 897.4594,197.5469 Q897.6469,197.4375 897.8656,197.4375 Q898.2406,197.4375 898.475,197.7031 Q898.7094,197.9531 898.7094,198.5625 L898.7094,200.0156 Q898.7094,200.625 898.475,200.8906 Q898.2406,201.1563 897.8656,201.1563 Q897.5219,201.1563 897.3188,200.9531 Q897.1156,200.7656 897.0063,200.25 Q896.9594,199.8906 896.7719,199.7031 Q896.4438,199.3281 895.8344,199.1094 Q895.225,198.8906 894.6,198.8906 Q893.8344,198.8906 893.1938,199.2188 Q892.5688,199.5469 892.0688,200.2969 Q891.5844,201.0469 891.5844,202.0781 L891.5844,203.1719 Q891.5844,204.4063 892.475,205.2344 Q893.3656,206.0469 894.9594,206.0469 Q895.8969,206.0469 896.5531,205.7969 Q896.9438,205.6406 897.3656,205.2031 Q897.6313,204.9375 897.7719,204.8594 Q897.9281,204.7813 898.1313,204.7813 Q898.4594,204.7813 898.7094,205.0469 Q898.975,205.2969 898.975,205.6406 Q898.975,205.9844 898.6313,206.3906 Q898.1313,206.9688 897.3344,207.2969 Q896.2563,207.75 894.9594,207.75 Q893.4438,207.75 892.2406,207.125 Q891.2563,206.625 890.5688,205.5625 Q889.8813,204.4844 889.8813,203.2031 L889.8813,202.0469 Q889.8813,200.7188 890.4906,199.5781 Q891.1156,198.4219 892.2094,197.8125 Q893.3031,197.1875 894.5375,197.1875 Q895.2719,197.1875 895.9125,197.3594 Q896.5688,197.5156 897.1156,197.875 Z " fill="#000000"/><text fill="#000000" font-family="sans-serif" font-size="14" lengthAdjust="spacing" textLength="158" x="914.65" y="206.8535">AdvertisementRepository</text><line style="stroke:#181818;stroke-width:0.5;" x1="852" x2="1103" y1="218" y2="218"/><text fill="#000000" font-family="sans-serif" font-size="14" lengthAdjust="spacing" textLength="241" x="857" y="234.6738">-advertisements: List &lt;Advertisement&gt;</text><line style="stroke:#181818;stroke-width:0.5;" x1="852" x2="1103" y1="241.6406" y2="241.6406"/><text fill="#000000" font-family="sans-serif" font-size="14" lengthAdjust="spacing" textLength="135" x="857" y="258.3145">+getAdvertisements()</text></g><!--class Advertisement--><g id="elem_Advertisement"><rect codeLine="47" fill="#F1F1F1" height="298.25" id="Advertisement" rx="2.5" ry="2.5" style="stroke:#181818;stroke-width:0.5;" width="196" x="879.5" y="349"/><ellipse cx="928.25" cy="365" fill="#ADD1B2" rx="11" ry="11" style="stroke:#181818;stroke-width:1.0;"/><path d="M931.0156,360.875 Q931.1719,360.6563 931.3594,360.5469 Q931.5469,360.4375 931.7656,360.4375 Q932.1406,360.4375 932.375,360.7031 Q932.6094,360.9531 932.6094,361.5625 L932.6094,363.0156 Q932.6094,363.625 932.375,363.8906 Q932.1406,364.1563 931.7656,364.1563 Q931.4219,364.1563 931.2188,363.9531 Q931.0156,363.7656 930.9063,363.25 Q930.8594,362.8906 930.6719,362.7031 Q930.3438,362.3281 929.7344,362.1094 Q929.125,361.8906 928.5,361.8906 Q927.7344,361.8906 927.0938,362.2188 Q926.4688,362.5469 925.9688,363.2969 Q925.4844,364.0469 925.4844,365.0781 L925.4844,366.1719 Q925.4844,367.4063 926.375,368.2344 Q927.2656,369.0469 928.8594,369.0469 Q929.7969,369.0469 930.4531,368.7969 Q930.8438,368.6406 931.2656,368.2031 Q931.5313,367.9375 931.6719,367.8594 Q931.8281,367.7813 932.0313,367.7813 Q932.3594,367.7813 932.6094,368.0469 Q932.875,368.2969 932.875,368.6406 Q932.875,368.9844 932.5313,369.3906 Q932.0313,369.9688 931.2344,370.2969 Q930.1563,370.75 928.8594,370.75 Q927.3438,370.75 926.1406,370.125 Q925.1563,369.625 924.4688,368.5625 Q923.7813,367.4844 923.7813,366.2031 L923.7813,365.0469 Q923.7813,363.7188 924.3906,362.5781 Q925.0156,361.4219 926.1094,360.8125 Q927.2031,360.1875 928.4375,360.1875 Q929.1719,360.1875 929.8125,360.3594 Q930.4688,360.5156 931.0156,360.875 Z " fill="#000000"/><text fill="#000000" font-family="sans-serif" font-size="14" lengthAdjust="spacing" textLength="90" x="948.75" y="369.8535">Advertisement</text><line style="stroke:#181818;stroke-width:0.5;" x1="880.5" x2="1074.5" y1="381" y2="381"/><text fill="#000000" font-family="sans-serif" font-size="14" lengthAdjust="spacing" textLength="82" x="885.5" y="397.6738">-client: Client</text><text fill="#000000" font-family="sans-serif" font-size="14" lengthAdjust="spacing" textLength="120" x="885.5" y="413.3145">-property: Property</text><text fill="#000000" font-family="sans-serif" font-size="14" lengthAdjust="spacing" textLength="184" x="885.5" y="428.9551">-propertyType: PropertyType</text><text fill="#000000" font-family="sans-serif" font-size="14" lengthAdjust="spacing" textLength="178" x="885.5" y="444.5957">-requestType: RequestType</text><text fill="#000000" font-family="sans-serif" font-size="14" lengthAdjust="spacing" textLength="116" x="885.5" y="460.2363">-address: Address</text><text fill="#000000" font-family="sans-serif" font-size="14" lengthAdjust="spacing" textLength="78" x="885.5" y="475.877">-date: String</text><text fill="#000000" font-family="sans-serif" font-size="14" lengthAdjust="spacing" textLength="162" x="885.5" y="491.5176">-commission: Commission</text><text fill="#000000" font-family="sans-serif" font-size="14" lengthAdjust="spacing" textLength="160" x="885.5" y="507.1582">-photograph: Photograph</text><text fill="#000000" font-family="sans-serif" font-size="14" lengthAdjust="spacing" textLength="120" x="885.5" y="522.7988">+getRequestTypes</text><line style="stroke:#181818;stroke-width:0.5;" x1="880.5" x2="1074.5" y1="529.7656" y2="529.7656"/><text fill="#000000" font-family="sans-serif" font-size="14" lengthAdjust="spacing" textLength="74" x="885.5" y="546.4395">+getClient()</text><text fill="#000000" font-family="sans-serif" font-size="14" lengthAdjust="spacing" textLength="92" x="885.5" y="562.0801">+getProperty()</text><text fill="#000000" font-family="sans-serif" font-size="14" lengthAdjust="spacing" textLength="131" x="885.5" y="577.7207">+getPropertyTypes()</text><text fill="#000000" font-family="sans-serif" font-size="14" lengthAdjust="spacing" textLength="90" x="885.5" y="593.3613">+getAddress()</text><text fill="#000000" font-family="sans-serif" font-size="14" lengthAdjust="spacing" textLength="114" x="885.5" y="609.002">+getCommission()</text><text fill="#000000" font-family="sans-serif" font-size="14" lengthAdjust="spacing" textLength="68" x="885.5" y="624.6426">+getDate()</text><text fill="#000000" font-family="sans-serif" font-size="14" lengthAdjust="spacing" textLength="112" x="885.5" y="640.2832">+getPhotograph()</text></g><!--class Address--><g id="elem_Address"><rect codeLine="66" fill="#F1F1F1" height="188.7656" id="Address" rx="2.5" ry="2.5" style="stroke:#181818;stroke-width:0.5;" width="327" x="1637" y="403.5"/><ellipse cx="1770.25" cy="419.5" fill="#ADD1B2" rx="11" ry="11" style="stroke:#181818;stroke-width:1.0;"/><path d="M1773.0156,415.375 Q1773.1719,415.1563 1773.3594,415.0469 Q1773.5469,414.9375 1773.7656,414.9375 Q1774.1406,414.9375 1774.375,415.2031 Q1774.6094,415.4531 1774.6094,416.0625 L1774.6094,417.5156 Q1774.6094,418.125 1774.375,418.3906 Q1774.1406,418.6563 1773.7656,418.6563 Q1773.4219,418.6563 1773.2188,418.4531 Q1773.0156,418.2656 1772.9063,417.75 Q1772.8594,417.3906 1772.6719,417.2031 Q1772.3438,416.8281 1771.7344,416.6094 Q1771.125,416.3906 1770.5,416.3906 Q1769.7344,416.3906 1769.0938,416.7188 Q1768.4688,417.0469 1767.9688,417.7969 Q1767.4844,418.5469 1767.4844,419.5781 L1767.4844,420.6719 Q1767.4844,421.9063 1768.375,422.7344 Q1769.2656,423.5469 1770.8594,423.5469 Q1771.7969,423.5469 1772.4531,423.2969 Q1772.8438,423.1406 1773.2656,422.7031 Q1773.5313,422.4375 1773.6719,422.3594 Q1773.8281,422.2813 1774.0313,422.2813 Q1774.3594,422.2813 1774.6094,422.5469 Q1774.875,422.7969 1774.875,423.1406 Q1774.875,423.4844 1774.5313,423.8906 Q1774.0313,424.4688 1773.2344,424.7969 Q1772.1563,425.25 1770.8594,425.25 Q1769.3438,425.25 1768.1406,424.625 Q1767.1563,424.125 1766.4688,423.0625 Q1765.7813,421.9844 1765.7813,420.7031 L1765.7813,419.5469 Q1765.7813,418.2188 1766.3906,417.0781 Q1767.0156,415.9219 1768.1094,415.3125 Q1769.2031,414.6875 1770.4375,414.6875 Q1771.1719,414.6875 1771.8125,414.8594 Q1772.4688,415.0156 1773.0156,415.375 Z " fill="#000000"/><text fill="#000000" font-family="sans-serif" font-size="14" lengthAdjust="spacing" textLength="52" x="1790.75" y="424.3535">Address</text><line style="stroke:#181818;stroke-width:0.5;" x1="1638" x2="1963" y1="435.5" y2="435.5"/><text fill="#000000" font-family="sans-serif" font-size="14" lengthAdjust="spacing" textLength="122" x="1643" y="452.1738">-streetName: String</text><text fill="#000000" font-family="sans-serif" font-size="14" lengthAdjust="spacing" textLength="107" x="1643" y="467.8145">-cityName: String</text><text fill="#000000" font-family="sans-serif" font-size="14" lengthAdjust="spacing" textLength="101" x="1643" y="483.4551">-zipCode: String</text><text fill="#000000" font-family="sans-serif" font-size="14" lengthAdjust="spacing" textLength="91" x="1643" y="499.0957">-district: String</text><line style="stroke:#181818;stroke-width:0.5;" x1="1638" x2="1963" y1="506.0625" y2="506.0625"/><text fill="#000000" font-family="sans-serif" font-size="14" lengthAdjust="spacing" textLength="315" x="1643" y="522.7363">+Address(streetName, cityName, zipCode, district)</text><text fill="#000000" font-family="sans-serif" font-size="14" lengthAdjust="spacing" textLength="112" x="1643" y="538.377">+getStreetName()</text><text fill="#000000" font-family="sans-serif" font-size="14" lengthAdjust="spacing" textLength="98" x="1643" y="554.0176">+getCityName()</text><text fill="#000000" font-family="sans-serif" font-size="14" lengthAdjust="spacing" textLength="91" x="1643" y="569.6582">+getZipCode()</text><text fill="#000000" font-family="sans-serif" font-size="14" lengthAdjust="spacing" textLength="81" x="1643" y="585.2988">+getDistrict()</text></g><!--class Property--><g id="elem_Property"><rect codeLine="79" fill="#F1F1F1" height="220.0469" id="Property" rx="2.5" ry="2.5" style="stroke:#181818;stroke-width:0.5;" width="410" x="1133.5" y="388"/><ellipse cx="1307.25" cy="404" fill="#ADD1B2" rx="11" ry="11" style="stroke:#181818;stroke-width:1.0;"/><path d="M1310.0156,399.875 Q1310.1719,399.6563 1310.3594,399.5469 Q1310.5469,399.4375 1310.7656,399.4375 Q1311.1406,399.4375 1311.375,399.7031 Q1311.6094,399.9531 1311.6094,400.5625 L1311.6094,402.0156 Q1311.6094,402.625 1311.375,402.8906 Q1311.1406,403.1563 1310.7656,403.1563 Q1310.4219,403.1563 1310.2188,402.9531 Q1310.0156,402.7656 1309.9063,402.25 Q1309.8594,401.8906 1309.6719,401.7031 Q1309.3438,401.3281 1308.7344,401.1094 Q1308.125,400.8906 1307.5,400.8906 Q1306.7344,400.8906 1306.0938,401.2188 Q1305.4688,401.5469 1304.9688,402.2969 Q1304.4844,403.0469 1304.4844,404.0781 L1304.4844,405.1719 Q1304.4844,406.4063 1305.375,407.2344 Q1306.2656,408.0469 1307.8594,408.0469 Q1308.7969,408.0469 1309.4531,407.7969 Q1309.8438,407.6406 1310.2656,407.2031 Q1310.5313,406.9375 1310.6719,406.8594 Q1310.8281,406.7813 1311.0313,406.7813 Q1311.3594,406.7813 1311.6094,407.0469 Q1311.875,407.2969 1311.875,407.6406 Q1311.875,407.9844 1311.5313,408.3906 Q1311.0313,408.9688 1310.2344,409.2969 Q1309.1563,409.75 1307.8594,409.75 Q1306.3438,409.75 1305.1406,409.125 Q1304.1563,408.625 1303.4688,407.5625 Q1302.7813,406.4844 1302.7813,405.2031 L1302.7813,404.0469 Q1302.7813,402.7188 1303.3906,401.5781 Q1304.0156,400.4219 1305.1094,399.8125 Q1306.2031,399.1875 1307.4375,399.1875 Q1308.1719,399.1875 1308.8125,399.3594 Q1309.4688,399.5156 1310.0156,399.875 Z " fill="#000000"/><text fill="#000000" font-family="sans-serif" font-size="14" lengthAdjust="spacing" textLength="54" x="1327.75" y="408.8535">Property</text><line style="stroke:#181818;stroke-width:0.5;" x1="1134.5" x2="1542.5" y1="420" y2="420"/><text fill="#000000" font-family="sans-serif" font-size="14" lengthAdjust="spacing" textLength="87" x="1139.5" y="436.6738">-area: Double</text><text fill="#000000" font-family="sans-serif" font-size="14" lengthAdjust="spacing" textLength="89" x="1139.5" y="452.3145">-price: Double</text><text fill="#000000" font-family="sans-serif" font-size="14" lengthAdjust="spacing" textLength="168" x="1139.5" y="467.9551">-distanceFromCity: Double</text><text fill="#000000" font-family="sans-serif" font-size="14" lengthAdjust="spacing" textLength="183" x="1139.5" y="483.5957">-photographList: List&lt;String&gt;</text><text fill="#000000" font-family="sans-serif" font-size="14" lengthAdjust="spacing" textLength="116" x="1139.5" y="499.2363">-address: Address</text><line style="stroke:#181818;stroke-width:0.5;" x1="1134.5" x2="1542.5" y1="506.2031" y2="506.2031"/><text fill="#000000" font-family="sans-serif" font-size="14" lengthAdjust="spacing" textLength="398" x="1139.5" y="522.877">+Property(area, price, distanceFromCity, photograph, address)</text><text fill="#000000" font-family="sans-serif" font-size="14" lengthAdjust="spacing" textLength="68" x="1139.5" y="538.5176">+getArea()</text><text fill="#000000" font-family="sans-serif" font-size="14" lengthAdjust="spacing" textLength="70" x="1139.5" y="554.1582">+getPrice()</text><text fill="#000000" font-family="sans-serif" font-size="14" lengthAdjust="spacing" textLength="150" x="1139.5" y="569.7988">+getDistanceFromCity()</text><text fill="#000000" font-family="sans-serif" font-size="14" lengthAdjust="spacing" textLength="112" x="1139.5" y="585.4395">+getPhotograph()</text><text fill="#000000" font-family="sans-serif" font-size="14" lengthAdjust="spacing" textLength="90" x="1139.5" y="601.0801">+getAddress()</text></g><!--class Residence--><g id="elem_Residence"><rect codeLine="93" fill="#F1F1F1" height="235.6875" id="Residence" rx="2.5" ry="2.5" style="stroke:#181818;stroke-width:0.5;" width="797" x="1999" y="380"/><ellipse cx="2359.75" cy="396" fill="#ADD1B2" rx="11" ry="11" style="stroke:#181818;stroke-width:1.0;"/><path d="M2362.5156,391.875 Q2362.6719,391.6563 2362.8594,391.5469 Q2363.0469,391.4375 2363.2656,391.4375 Q2363.6406,391.4375 2363.875,391.7031 Q2364.1094,391.9531 2364.1094,392.5625 L2364.1094,394.0156 Q2364.1094,394.625 2363.875,394.8906 Q2363.6406,395.1563 2363.2656,395.1563 Q2362.9219,395.1563 2362.7188,394.9531 Q2362.5156,394.7656 2362.4063,394.25 Q2362.3594,393.8906 2362.1719,393.7031 Q2361.8438,393.3281 2361.2344,393.1094 Q2360.625,392.8906 2360,392.8906 Q2359.2344,392.8906 2358.5938,393.2188 Q2357.9688,393.5469 2357.4688,394.2969 Q2356.9844,395.0469 2356.9844,396.0781 L2356.9844,397.1719 Q2356.9844,398.4063 2357.875,399.2344 Q2358.7656,400.0469 2360.3594,400.0469 Q2361.2969,400.0469 2361.9531,399.7969 Q2362.3438,399.6406 2362.7656,399.2031 Q2363.0313,398.9375 2363.1719,398.8594 Q2363.3281,398.7813 2363.5313,398.7813 Q2363.8594,398.7813 2364.1094,399.0469 Q2364.375,399.2969 2364.375,399.6406 Q2364.375,399.9844 2364.0313,400.3906 Q2363.5313,400.9688 2362.7344,401.2969 Q2361.6563,401.75 2360.3594,401.75 Q2358.8438,401.75 2357.6406,401.125 Q2356.6563,400.625 2355.9688,399.5625 Q2355.2813,398.4844 2355.2813,397.2031 L2355.2813,396.0469 Q2355.2813,394.7188 2355.8906,393.5781 Q2356.5156,392.4219 2357.6094,391.8125 Q2358.7031,391.1875 2359.9375,391.1875 Q2360.6719,391.1875 2361.3125,391.3594 Q2361.9688,391.5156 2362.5156,391.875 Z " fill="#000000"/><text fill="#000000" font-family="sans-serif" font-size="14" lengthAdjust="spacing" textLength="67" x="2380.25" y="400.8535">Residence</text><line style="stroke:#181818;stroke-width:0.5;" x1="2000" x2="2795" y1="412" y2="412"/><text fill="#000000" font-family="sans-serif" font-size="14" lengthAdjust="spacing" textLength="120" x="2005" y="428.6738">-property: Property</text><text fill="#000000" font-family="sans-serif" font-size="14" lengthAdjust="spacing" textLength="140" x="2005" y="444.3145">-numberBedrooms: Int</text><text fill="#000000" font-family="sans-serif" font-size="14" lengthAdjust="spacing" textLength="144" x="2005" y="459.9551">-numberBathrooms: Int</text><text fill="#000000" font-family="sans-serif" font-size="14" lengthAdjust="spacing" textLength="171" x="2005" y="475.5957">-numberParkingSpaces: Int</text><text fill="#000000" font-family="sans-serif" font-size="14" lengthAdjust="spacing" textLength="181" x="2005" y="491.2363">-hasCentralHeating: boolean</text><text fill="#000000" font-family="sans-serif" font-size="14" lengthAdjust="spacing" textLength="183" x="2005" y="506.877">-hasAirConditioning: boolean</text><line style="stroke:#181818;stroke-width:0.5;" x1="2000" x2="2795" y1="513.8438" y2="513.8438"/><text fill="#000000" font-family="sans-serif" font-size="14" lengthAdjust="spacing" textLength="785" x="2005" y="530.5176">+Residence(property, numberBedrooms, numberBathrooms, numberParkingSpaces, hasCentralHeating, hasAirConditioning)</text><text fill="#000000" font-family="sans-serif" font-size="14" lengthAdjust="spacing" textLength="409" x="2005" y="546.1582">+Residence(property, numberBedrooms, numberParkingSpaces)</text><text fill="#000000" font-family="sans-serif" font-size="14" lengthAdjust="spacing" textLength="92" x="2005" y="561.7988">+getProperty()</text><text fill="#000000" font-family="sans-serif" font-size="14" lengthAdjust="spacing" textLength="151" x="2005" y="577.4395">+getNumberBedrooms()</text><text fill="#000000" font-family="sans-serif" font-size="14" lengthAdjust="spacing" textLength="155" x="2005" y="593.0801">+getNumberBathrooms()</text><text fill="#000000" font-family="sans-serif" font-size="14" lengthAdjust="spacing" textLength="182" x="2005" y="608.7207">+getNumberParkingSpaces()</text></g><!--class AvailableEquipment--><g id="elem_AvailableEquipment"><rect codeLine="108" fill="#F1F1F1" height="126.2031" id="AvailableEquipment" rx="2.5" ry="2.5" style="stroke:#181818;stroke-width:0.5;" width="348" x="2853.5" y="435"/><ellipse cx="2961.25" cy="451" fill="#ADD1B2" rx="11" ry="11" style="stroke:#181818;stroke-width:1.0;"/><path d="M2964.0156,446.875 Q2964.1719,446.6563 2964.3594,446.5469 Q2964.5469,446.4375 2964.7656,446.4375 Q2965.1406,446.4375 2965.375,446.7031 Q2965.6094,446.9531 2965.6094,447.5625 L2965.6094,449.0156 Q2965.6094,449.625 2965.375,449.8906 Q2965.1406,450.1563 2964.7656,450.1563 Q2964.4219,450.1563 2964.2188,449.9531 Q2964.0156,449.7656 2963.9063,449.25 Q2963.8594,448.8906 2963.6719,448.7031 Q2963.3438,448.3281 2962.7344,448.1094 Q2962.125,447.8906 2961.5,447.8906 Q2960.7344,447.8906 2960.0938,448.2188 Q2959.4688,448.5469 2958.9688,449.2969 Q2958.4844,450.0469 2958.4844,451.0781 L2958.4844,452.1719 Q2958.4844,453.4063 2959.375,454.2344 Q2960.2656,455.0469 2961.8594,455.0469 Q2962.7969,455.0469 2963.4531,454.7969 Q2963.8438,454.6406 2964.2656,454.2031 Q2964.5313,453.9375 2964.6719,453.8594 Q2964.8281,453.7813 2965.0313,453.7813 Q2965.3594,453.7813 2965.6094,454.0469 Q2965.875,454.2969 2965.875,454.6406 Q2965.875,454.9844 2965.5313,455.3906 Q2965.0313,455.9688 2964.2344,456.2969 Q2963.1563,456.75 2961.8594,456.75 Q2960.3438,456.75 2959.1406,456.125 Q2958.1563,455.625 2957.4688,454.5625 Q2956.7813,453.4844 2956.7813,452.2031 L2956.7813,451.0469 Q2956.7813,449.7188 2957.3906,448.5781 Q2958.0156,447.4219 2959.1094,446.8125 Q2960.2031,446.1875 2961.4375,446.1875 Q2962.1719,446.1875 2962.8125,446.3594 Q2963.4688,446.5156 2964.0156,446.875 Z " fill="#000000"/><text fill="#000000" font-family="sans-serif" font-size="14" lengthAdjust="spacing" textLength="124" x="2981.75" y="455.8535">AvailableEquipment</text><line style="stroke:#181818;stroke-width:0.5;" x1="2854.5" x2="3200.5" y1="467" y2="467"/><text fill="#000000" font-family="sans-serif" font-size="14" lengthAdjust="spacing" textLength="123" x="2859.5" y="483.6738">-airConditioning: Int</text><text fill="#000000" font-family="sans-serif" font-size="14" lengthAdjust="spacing" textLength="119" x="2859.5" y="499.3145">-centralHeating: Int</text><line style="stroke:#181818;stroke-width:0.5;" x1="2854.5" x2="3200.5" y1="506.2813" y2="506.2813"/><text fill="#000000" font-family="sans-serif" font-size="14" lengthAdjust="spacing" textLength="336" x="2859.5" y="522.9551">+AvailableEquipment(airConditioning, centralHeating)</text><text fill="#000000" font-family="sans-serif" font-size="14" lengthAdjust="spacing" textLength="134" x="2859.5" y="538.5957">+getAirConditioning()</text><text fill="#000000" font-family="sans-serif" font-size="14" lengthAdjust="spacing" textLength="132" x="2859.5" y="554.2363">+getCentralHeating()</text></g><!--class House--><g id="elem_House"><rect codeLine="116" fill="#F1F1F1" height="188.7656" id="House" rx="2.5" ry="2.5" style="stroke:#181818;stroke-width:0.5;" width="443" x="3237" y="403.5"/><ellipse cx="3434.25" cy="419.5" fill="#ADD1B2" rx="11" ry="11" style="stroke:#181818;stroke-width:1.0;"/><path d="M3437.0156,415.375 Q3437.1719,415.1563 3437.3594,415.0469 Q3437.5469,414.9375 3437.7656,414.9375 Q3438.1406,414.9375 3438.375,415.2031 Q3438.6094,415.4531 3438.6094,416.0625 L3438.6094,417.5156 Q3438.6094,418.125 3438.375,418.3906 Q3438.1406,418.6563 3437.7656,418.6563 Q3437.4219,418.6563 3437.2188,418.4531 Q3437.0156,418.2656 3436.9063,417.75 Q3436.8594,417.3906 3436.6719,417.2031 Q3436.3438,416.8281 3435.7344,416.6094 Q3435.125,416.3906 3434.5,416.3906 Q3433.7344,416.3906 3433.0938,416.7188 Q3432.4688,417.0469 3431.9688,417.7969 Q3431.4844,418.5469 3431.4844,419.5781 L3431.4844,420.6719 Q3431.4844,421.9063 3432.375,422.7344 Q3433.2656,423.5469 3434.8594,423.5469 Q3435.7969,423.5469 3436.4531,423.2969 Q3436.8438,423.1406 3437.2656,422.7031 Q3437.5313,422.4375 3437.6719,422.3594 Q3437.8281,422.2813 3438.0313,422.2813 Q3438.3594,422.2813 3438.6094,422.5469 Q3438.875,422.7969 3438.875,423.1406 Q3438.875,423.4844 3438.5313,423.8906 Q3438.0313,424.4688 3437.2344,424.7969 Q3436.1563,425.25 3434.8594,425.25 Q3433.3438,425.25 3432.1406,424.625 Q3431.1563,424.125 3430.4688,423.0625 Q3429.7813,421.9844 3429.7813,420.7031 L3429.7813,419.5469 Q3429.7813,418.2188 3430.3906,417.0781 Q3431.0156,415.9219 3432.1094,415.3125 Q3433.2031,414.6875 3434.4375,414.6875 Q3435.1719,414.6875 3435.8125,414.8594 Q3436.4688,415.0156 3437.0156,415.375 Z " fill="#000000"/><text fill="#000000" font-family="sans-serif" font-size="14" lengthAdjust="spacing" textLength="40" x="3454.75" y="424.3535">House</text><line style="stroke:#181818;stroke-width:0.5;" x1="3238" x2="3679" y1="435.5" y2="435.5"/><text fill="#000000" font-family="sans-serif" font-size="14" lengthAdjust="spacing" textLength="142" x="3243" y="452.1738">-residence: Residence</text><text fill="#000000" font-family="sans-serif" font-size="14" lengthAdjust="spacing" textLength="186" x="3243" y="467.8145">-existenceBasement: boolean</text><text fill="#000000" font-family="sans-serif" font-size="14" lengthAdjust="spacing" textLength="147" x="3243" y="483.4551">-existenceLoft: boolean</text><text fill="#000000" font-family="sans-serif" font-size="14" lengthAdjust="spacing" textLength="132" x="3243" y="499.0957">-sunExposure: String</text><line style="stroke:#181818;stroke-width:0.5;" x1="3238" x2="3679" y1="506.0625" y2="506.0625"/><text fill="#000000" font-family="sans-serif" font-size="14" lengthAdjust="spacing" textLength="431" x="3243" y="522.7363">+House(residence, existenceBasement, existenceLoft, sunExposure)</text><text fill="#000000" font-family="sans-serif" font-size="14" lengthAdjust="spacing" textLength="105" x="3243" y="538.377">+getResidence()</text><text fill="#000000" font-family="sans-serif" font-size="14" lengthAdjust="spacing" textLength="151" x="3243" y="554.0176">+isExistenceBasement()</text><text fill="#000000" font-family="sans-serif" font-size="14" lengthAdjust="spacing" textLength="112" x="3243" y="569.6582">+isExistenceLoft()</text><text fill="#000000" font-family="sans-serif" font-size="14" lengthAdjust="spacing" textLength="122" x="3243" y="585.2988">+getSunExposure()</text></g><!--link PropertiesListUI to PropertiesListController--><g id="link_PropertiesListUI_PropertiesListController"><path codeLine="130" d="M531.16,54.5 C541.13,54.5 551.09,54.5 561.06,54.5 " fill="none" id="PropertiesListUI-to-PropertiesListController" style="stroke:#181818;stroke-width:1.0;stroke-dasharray:7.0,7.0;"/><polygon fill="#181818" points="566.27,54.5,557.27,50.5,561.27,54.5,557.27,58.5,566.27,54.5" style="stroke:#181818;stroke-width:1.0;"/></g><!--link PropertiesListController to Repositores--><g id="link_PropertiesListController_Repositores"><path codeLine="131" d="M774.83,54.5 C806.44,54.5 841.24,54.5 873.17,54.5 " fill="none" id="PropertiesListController-to-Repositores" style="stroke:#181818;stroke-width:1.0;stroke-dasharray:7.0,7.0;"/><polygon fill="#181818" points="878.27,54.5,869.27,50.5,873.27,54.5,869.27,58.5,878.27,54.5" style="stroke:#181818;stroke-width:1.0;"/><text fill="#000000" font-family="sans-serif" font-size="13" lengthAdjust="spacing" textLength="67" x="793" y="48.2686">repositories</text></g><!--link Repositores to Repositores--><g id="link_Repositores_Repositores"><path codeLine="132" d="M1086.76,39.45 C1107.08,41.2 1121.5,46.21 1121.5,54.5 C1121.5,62.07 1109.45,66.92 1091.86,69.03 " fill="none" id="Repositores-to-Repositores" style="stroke:#181818;stroke-width:1.0;"/><polygon fill="#181818" points="1086.76,69.55,1096.1238,72.6027,1091.7335,69.0355,1095.3006,64.6451,1086.76,69.55" style="stroke:#181818;stroke-width:1.0;"/><text fill="#000000" font-family="sans-serif" font-size="13" lengthAdjust="spacing" textLength="49" x="1127.5" y="59.2686">instance</text></g><!--link PropertiesListController to AdvertisementRepository--><g id="link_PropertiesListController_AdvertisementRepository"><path codeLine="133" d="M727.17,86.69 C776.63,113.92 848.76,153.63 902.9,183.43 " fill="none" id="PropertiesListController-to-AdvertisementRepository" style="stroke:#181818;stroke-width:1.0;stroke-dasharray:7.0,7.0;"/><polygon fill="#181818" points="907.42,185.92,901.4755,178.0674,903.0432,183.5027,897.6079,185.0704,907.42,185.92" style="stroke:#181818;stroke-width:1.0;"/><text fill="#000000" font-family="sans-serif" font-size="13" lengthAdjust="spacing" textLength="144" x="833.5" y="144.7686">AdvertisementRepository</text></g><!--link Advertisement to Property--><g id="link_Advertisement_Property"><path codeLine="134" d="M1075.67,498 C1092.27,498 1110.06,498 1128.26,498 " fill="none" id="Advertisement-to-Property" style="stroke:#181818;stroke-width:1.0;"/><polygon fill="#181818" points="1133.4,498,1124.4,494,1128.4,498,1124.4,502,1133.4,498" style="stroke:#181818;stroke-width:1.0;"/><text fill="#000000" font-family="sans-serif" font-size="13" lengthAdjust="spacing" textLength="21" x="1094" y="491.7686">has</text><text fill="#000000" font-family="sans-serif" font-size="13" lengthAdjust="spacing" textLength="5" x="1120.2906" y="495.5044">*</text></g><!--reverse link Property to Residence--><g id="link_Property_Residence"><path codeLine="135" d="M1495.37,377.06 C1538.93,349.99 1587.84,325.13 1637,311 C1776.68,270.86 1821.67,281.61 1964,311 C2033.84,325.42 2106.27,351.64 2171.47,379.97 " fill="none" id="Property-backto-Residence" style="stroke:#181818;stroke-width:1.0;"/><polygon fill="none" points="1498.94,383.08,1478.31,387.93,1491.41,371.28,1498.94,383.08" style="stroke:#181818;stroke-width:1.0;"/></g><!--reverse link Residence to House--><g id="link_Residence_House"><path codeLine="137" d="M2643.33,372.01 C2804.19,306.34 3017.9,251.02 3202,311 C3259.77,329.82 3315.35,367.12 3359.92,403.48 " fill="none" id="Residence-backto-House" style="stroke:#181818;stroke-width:1.0;"/><polygon fill="none" points="2645.63,378.64,2624.47,379.85,2640.25,365.71,2645.63,378.64" style="stroke:#181818;stroke-width:1.0;"/></g><!--link Residence to AvailableEquipment--><g id="link_Residence_AvailableEquipment"><path codeLine="139" d="M2796.04,498 C2815.73,498 2834.95,498 2853.36,498 " fill="none" id="Residence-AvailableEquipment" style="stroke:#181818;stroke-width:1.0;"/><text fill="#000000" font-family="sans-serif" font-size="13" lengthAdjust="spacing" textLength="21" x="2814.25" y="491.7686">has</text><text fill="#000000" font-family="sans-serif" font-size="13" lengthAdjust="spacing" textLength="7" x="2804.2064" y="495.6349">1</text><text fill="#000000" font-family="sans-serif" font-size="13" lengthAdjust="spacing" textLength="7" x="2838.3107" y="495.4586">1</text></g><!--link AdvertisementRepository to Advertisement--><g id="link_AdvertisementRepository_Advertisement"><path codeLine="141" d="M977.5,265.26 C977.5,286.59 977.5,314.61 977.5,343.77 " fill="none" id="AdvertisementRepository-to-Advertisement" style="stroke:#181818;stroke-width:1.0;"/><polygon fill="#181818" points="977.5,348.84,981.5,339.84,977.5,343.84,973.5,339.84,977.5,348.84" style="stroke:#181818;stroke-width:1.0;"/><text fill="#000000" font-family="sans-serif" font-size="13" lengthAdjust="spacing" textLength="80" x="978.5" y="315.7686">advertisement</text><text fill="#000000" font-family="sans-serif" font-size="13" lengthAdjust="spacing" textLength="5" x="972.3633" y="338.076">*</text></g><!--link Property to Address--><g id="link_Property_Address"><path codeLine="143" d="M1543.83,498 C1573.1,498 1602.92,498 1631.39,498 " fill="none" id="Property-to-Address" style="stroke:#181818;stroke-width:1.0;"/><polygon fill="#181818" points="1636.69,498,1627.69,494,1631.69,498,1627.69,502,1636.69,498" style="stroke:#181818;stroke-width:1.0;"/><text fill="#000000" font-family="sans-serif" font-size="13" lengthAdjust="spacing" textLength="57" x="1561.75" y="491.7686">located at</text></g><!--link PropertiesListController to Sorting--><g id="link_PropertiesListController_Sorting"><path codeLine="145" d="M670.5,86.89 C670.5,110.97 670.5,144.74 670.5,172.79 " fill="none" id="PropertiesListController-to-Sorting" style="stroke:#181818;stroke-width:1.0;stroke-dasharray:7.0,7.0;"/><polygon fill="#181818" points="670.5,177.96,674.5,168.96,670.5,172.96,666.5,168.96,670.5,177.96" style="stroke:#181818;stroke-width:1.0;"/><text fill="#000000" font-family="sans-serif" font-size="13" lengthAdjust="spacing" textLength="39" x="671.5" y="144.7686">sorting</text></g><!--link PropertiesListController to Filtering--><g id="link_PropertiesListController_Filtering"><path codeLine="146" d="M592.61,86.69 C530.15,111.71 441.4,147.25 369.68,175.97 " fill="none" id="PropertiesListController-to-Filtering" style="stroke:#181818;stroke-width:1.0;stroke-dasharray:7.0,7.0;"/><polygon fill="#181818" points="364.98,177.85,374.8219,178.2214,369.6224,175.993,371.8507,170.7936,364.98,177.85" style="stroke:#181818;stroke-width:1.0;"/><text fill="#000000" font-family="sans-serif" font-size="13" lengthAdjust="spacing" textLength="41" x="473.5" y="144.7686">filtering</text></g><!--SRC=[bLTRRzCm57xthx3sifQw25uZDAcC8IPDOrhXXJUlEMqjaZZO3X0k_vtZ9BwboJRsiCNd-fshlNFzLLGrLxoafQpaxgXa2TIe1aZWr7ptbHzWQze2g8ATuTMXY0NqaUVoXwWETCyB7NCAKO5fQw2rB5fxcE99PII96Bk2QxqnHec7ni3rJbPRyGleAqBE2zWRQYHLud0qD1SMZP0L8PqElLEo1cK4w1kXpUTh-flydUPToieeMHIWK8RQdzK1p2R_RaKqb52PUwYb5aQgTh4CPjwBme2oiVucdU9gtr7kuLi3sdp2W1ORfNXhlRn935vWoDemkZMTVgInZ2qDGDjdc1eirP56OkgsAHz0VTpVIrdg9so9oj2gatyBkR8AInB2tcAHug0rdk-Ks3s1S1caR-IEsrezMs6ZW3yb703wQe5s5Lr7jCKoLFcwqjZ227r9irZlENrW7GuUPuHwvsiUStL6RGnq50IPzAVZTaiuGs1hd121nunUTdy7ekk2pBLwEsBOzWXCUne4LEZ4B6xBWStp7BE3CMpwZu6SSuFYVGiwNB8iXTPOPSJclnsCepJoe7XzH13-kyy1nIJqmGo5wYWEwXJDujCn8yAj0tM070i6O37r7KQJ-F48qt9qvdmXj540vfQN9vaGffqW_nBrfSp7r1nx0sV99EILSxO8JfYtovmfvhKZy5klaGG-wCQqBxsL91E3lJxkT7ksFdAEqvdHTx9vAC3t6Uw34Ss2ixFs7YyMwt-iuhDivwEVaZTz4YuUwxwL1xImG5ZlcvsuOv47van5iNOx9kakkz96oOWDphR8HCT5kqcB7D2ApzxihAOREAFNVhm73ZV76TOTLtY57hPuNKF2Fd9zYPEbUF41kDtY6NsGiW1U1O6DK7Wbvi9kw1E9LOXWuP2p4LGs1iYcOB5JC6p2_VA_tIPUdbWXjuc52OuBuPILk4aMmtSk2ewDVVMj4NMohFaujQ4okr5P76SrOMyniiD6sd4BffB93aXquWW-o4Q71bKkyraemi22dpWJzloMzzVIk9sym8tSdp1rKrtznBkoKJ1QTns0XNVCJXsnr3IBZIKtWUiQHnJwQcnhYcUDnidQ1lF3CYGdByoN5xClIpBxv4Ib-BsIORg74ygIcBKUIuhXyVA8STIPUPlGR8v3qeS6cZXxSHQsVcQ7b8GzjYx-N8JLHVhUwOYXMoBnizTdM7hxUs9EUjja3l9wdVTWKeGPJLvOlZ8jxSBlh-cC5lRL2JdbXZoUCVV0pQZklnuN3_y6P7JllWdv1m00]--></g></svg>