<?xml version="1.0" encoding="us-ascii" standalone="no"?><svg xmlns="http://www.w3.org/2000/svg" xmlns:xlink="http://www.w3.org/1999/xlink" contentStyleType="text/css" height="431.2px" preserveAspectRatio="none" style="width:1110px;height:431px;background:#FFFFFF;" version="1.1" viewBox="0 0 1110 431" width="1110.9px" zoomAndPan="magnify"><defs/><g><text fill="#000000" font-family="sans-serif" font-size="9.8" font-weight="bold" lengthAdjust="spacing" textLength="109.2" x="495.95" y="17.5752">Domain Model - US004</text><!--class Owner--><g id="elem_Owner"><rect codeLine="14" fill="#F1F1F1" height="25.6348" id="Owner" rx="1.75" ry="1.75" style="stroke:#181818;stroke-width:0.3499999999999999;" width="32.9" x="611.45" y="209.0348"/><text fill="#000000" font-family="sans-serif" font-size="9.8" lengthAdjust="spacing" textLength="28.7" x="613.55" y="223.11">Owner</text><line style="stroke:#181818;stroke-width:0.3499999999999999;" x1="612.15" x2="643.65" y1="229.0695" y2="229.0695"/></g><!--class Store--><g id="elem_Store"><rect codeLine="18" fill="#F1F1F1" height="77.7738" id="Store" rx="1.75" ry="1.75" style="stroke:#181818;stroke-width:0.3499999999999999;" width="70.7" x="840.35" y="183.1348"/><text fill="#000000" font-family="sans-serif" font-size="9.8" lengthAdjust="spacing" textLength="23.8" x="863.8" y="197.21">Store</text><line style="stroke:#181818;stroke-width:0.3499999999999999;" x1="841.05" x2="910.35" y1="203.1695" y2="203.1695"/><text fill="#000000" font-family="sans-serif" font-size="9.8" lengthAdjust="spacing" textLength="9.1" x="844.55" y="216.5447">ID</text><text fill="#000000" font-family="sans-serif" font-size="9.8" lengthAdjust="spacing" textLength="51.1" x="844.55" y="229.5795">designation</text><text fill="#000000" font-family="sans-serif" font-size="9.8" lengthAdjust="spacing" textLength="62.3" x="844.55" y="242.6143">phoneNumber</text><text fill="#000000" font-family="sans-serif" font-size="9.8" lengthAdjust="spacing" textLength="59.5" x="844.55" y="255.649">emailAddress</text></g><!--class Agent--><g id="elem_Agent"><rect codeLine="25" fill="#F1F1F1" height="38.6695" id="Agent" rx="1.75" ry="1.75" style="stroke:#181818;stroke-width:0.3499999999999999;" width="81.2" x="835.1" y="298.6348"/><text fill="#000000" font-family="sans-serif" font-size="9.8" lengthAdjust="spacing" textLength="25.9" x="862.75" y="312.71">Agent</text><line style="stroke:#181818;stroke-width:0.3499999999999999;" x1="835.8" x2="915.6" y1="318.6695" y2="318.6695"/><text fill="#000000" font-family="sans-serif" font-size="9.8" lengthAdjust="spacing" textLength="72.8" x="839.3" y="332.0447">assignedAgency</text></g><!--class Property--><g id="elem_Property"><rect codeLine="29" fill="#F1F1F1" height="90.8086" id="Property" rx="1.75" ry="1.75" style="stroke:#181818;stroke-width:0.3499999999999999;" width="64.4" x="369.6" y="93.1848"/><text fill="#000000" font-family="sans-serif" font-size="9.8" lengthAdjust="spacing" textLength="37.8" x="382.9" y="107.26">Property</text><line style="stroke:#181818;stroke-width:0.3499999999999999;" x1="370.3" x2="433.3" y1="113.2195" y2="113.2195"/><text fill="#000000" font-family="sans-serif" font-size="9.8" lengthAdjust="spacing" textLength="18.9" x="373.8" y="126.5947">type</text><text fill="#000000" font-family="sans-serif" font-size="9.8" lengthAdjust="spacing" textLength="20.3" x="373.8" y="139.6295">area</text><text fill="#000000" font-family="sans-serif" font-size="9.8" lengthAdjust="spacing" textLength="37.1" x="373.8" y="152.6643">distance</text><text fill="#000000" font-family="sans-serif" font-size="9.8" lengthAdjust="spacing" textLength="21.7" x="373.8" y="165.699">price</text><text fill="#000000" font-family="sans-serif" font-size="9.8" lengthAdjust="spacing" textLength="56" x="373.8" y="178.7338">photographs</text></g><!--class CommonCharacteristicsApartmentHouse--><g id="elem_CommonCharacteristicsApartmentHouse"><rect codeLine="37" fill="#F1F1F1" height="77.7738" id="CommonCharacteristicsApartmentHouse" rx="1.75" ry="1.75" style="stroke:#181818;stroke-width:0.3499999999999999;" width="182.7" x="536.55" y="32.6348"/><text fill="#000000" font-family="sans-serif" font-size="9.8" lengthAdjust="spacing" textLength="178.5" x="538.65" y="46.71">CommonCharacteristicsApartmentHouse</text><line style="stroke:#181818;stroke-width:0.3499999999999999;" x1="537.25" x2="718.55" y1="52.6695" y2="52.6695"/><text fill="#000000" font-family="sans-serif" font-size="9.8" lengthAdjust="spacing" textLength="78.4" x="540.75" y="66.0447">numberBedrooms</text><text fill="#000000" font-family="sans-serif" font-size="9.8" lengthAdjust="spacing" textLength="81.2" x="540.75" y="79.0795">numberBathrooms</text><text fill="#000000" font-family="sans-serif" font-size="9.8" lengthAdjust="spacing" textLength="100.1" x="540.75" y="92.1143">numberParkingSpaces</text><text fill="#000000" font-family="sans-serif" font-size="9.8" lengthAdjust="spacing" textLength="86.1" x="540.75" y="105.149">availableEquipment</text></g><!--class House--><g id="elem_House"><rect codeLine="44" fill="#F1F1F1" height="64.7391" id="House" rx="1.75" ry="1.75" style="stroke:#181818;stroke-width:0.3499999999999999;" width="93.8" x="828.8" y="39.2848"/><text fill="#000000" font-family="sans-serif" font-size="9.8" lengthAdjust="spacing" textLength="28" x="861.7" y="53.36">House</text><line style="stroke:#181818;stroke-width:0.3499999999999999;" x1="829.5" x2="921.9" y1="59.3195" y2="59.3195"/><text fill="#000000" font-family="sans-serif" font-size="9.8" lengthAdjust="spacing" textLength="85.4" x="833" y="72.6947">existenceBasement</text><text fill="#000000" font-family="sans-serif" font-size="9.8" lengthAdjust="spacing" textLength="58.1" x="833" y="85.7295">existenceLoft</text><text fill="#000000" font-family="sans-serif" font-size="9.8" lengthAdjust="spacing" textLength="57.4" x="833" y="98.7643">sunExposure</text></g><!--class AdvertisementRequest--><g id="elem_AdvertisementRequest"><rect codeLine="50" fill="#F1F1F1" height="25.6348" id="AdvertisementRequest" rx="1.75" ry="1.75" style="stroke:#181818;stroke-width:0.3499999999999999;" width="104.3" x="172.9" y="209.0348"/><text fill="#000000" font-family="sans-serif" font-size="9.8" lengthAdjust="spacing" textLength="100.1" x="175" y="223.11">AdvertisementRequest</text><line style="stroke:#181818;stroke-width:0.3499999999999999;" x1="173.6" x2="276.5" y1="229.0695" y2="229.0695"/></g><!--class SaleAdvertisementRequest--><g id="elem_SaleAdvertisementRequest"><rect codeLine="54" fill="#F1F1F1" height="38.6695" id="SaleAdvertisementRequest" rx="1.75" ry="1.75" style="stroke:#181818;stroke-width:0.3499999999999999;" width="123.9" x="5.6" y="234.2348"/><text fill="#000000" font-family="sans-serif" font-size="9.8" lengthAdjust="spacing" textLength="119.7" x="7.7" y="248.31">SaleAdvertisementRequest</text><line style="stroke:#181818;stroke-width:0.3499999999999999;" x1="6.3" x2="128.8" y1="254.2695" y2="254.2695"/><text fill="#000000" font-family="sans-serif" font-size="9.8" lengthAdjust="spacing" textLength="41.3" x="9.8" y="267.6447">totalPrice</text></g><!--class RentAdvertisementRequest--><g id="elem_RentAdvertisementRequest"><rect codeLine="58" fill="#F1F1F1" height="38.6695" id="RentAdvertisementRequest" rx="1.75" ry="1.75" style="stroke:#181818;stroke-width:0.3499999999999999;" width="125.3" x="4.9" y="171.2348"/><text fill="#000000" font-family="sans-serif" font-size="9.8" lengthAdjust="spacing" textLength="121.1" x="7" y="185.31">RentAdvertisementRequest</text><line style="stroke:#181818;stroke-width:0.3499999999999999;" x1="5.6" x2="129.5" y1="191.2695" y2="191.2695"/><text fill="#000000" font-family="sans-serif" font-size="9.8" lengthAdjust="spacing" textLength="82.6" x="9.1" y="204.6447">rentPricePerMonth</text></g><!--class Address--><g id="elem_Address"><rect codeLine="62" fill="#F1F1F1" height="77.7738" id="Address" rx="1.75" ry="1.75" style="stroke:#181818;stroke-width:0.3499999999999999;" width="58.8" x="372.4" y="271.3348"/><text fill="#000000" font-family="sans-serif" font-size="9.8" lengthAdjust="spacing" textLength="36.4" x="383.6" y="285.41">Address</text><line style="stroke:#181818;stroke-width:0.3499999999999999;" x1="373.1" x2="430.5" y1="291.3695" y2="291.3695"/><text fill="#000000" font-family="sans-serif" font-size="9.8" lengthAdjust="spacing" textLength="35.7" x="376.6" y="304.7447">zipCode</text><text fill="#000000" font-family="sans-serif" font-size="9.8" lengthAdjust="spacing" textLength="50.4" x="376.6" y="317.7795">streetName</text><text fill="#000000" font-family="sans-serif" font-size="9.8" lengthAdjust="spacing" textLength="39.9" x="376.6" y="330.8143">cityName</text><text fill="#000000" font-family="sans-serif" font-size="9.8" lengthAdjust="spacing" textLength="28.7" x="376.6" y="343.849">district</text></g><!--class CommonCharacteristicsPerson--><g id="elem_CommonCharacteristicsPerson"><rect codeLine="69" fill="#F1F1F1" height="90.8086" id="CommonCharacteristicsPerson" rx="1.75" ry="1.75" style="stroke:#181818;stroke-width:0.3499999999999999;" width="140.7" x="965.3" y="186.2848"/><text fill="#000000" font-family="sans-serif" font-size="9.8" lengthAdjust="spacing" textLength="136.5" x="967.4" y="200.36">CommonCharacteristicsPerson</text><line style="stroke:#181818;stroke-width:0.3499999999999999;" x1="966" x2="1105.3" y1="206.3195" y2="206.3195"/><text fill="#000000" font-family="sans-serif" font-size="9.8" lengthAdjust="spacing" textLength="24.5" x="969.5" y="219.6947">name</text><text fill="#000000" font-family="sans-serif" font-size="9.8" lengthAdjust="spacing" textLength="83.3" x="969.5" y="232.7295">citizenCardNumber</text><text fill="#000000" font-family="sans-serif" font-size="9.8" lengthAdjust="spacing" textLength="46.9" x="969.5" y="245.7643">taxNumber</text><text fill="#000000" font-family="sans-serif" font-size="9.8" lengthAdjust="spacing" textLength="59.5" x="969.5" y="258.799">emailAddress</text><text fill="#000000" font-family="sans-serif" font-size="9.8" lengthAdjust="spacing" textLength="62.3" x="969.5" y="271.8338">phoneNumber</text></g><g id="elem_GMN13"><path d="M526.4,134.8348 L526.4,138.9718 L434.217,139.4758 L526.4,144.5718 L526.4,153.9385 A0,0 0 0 0 526.4,153.9385 L729.4,153.9385 A0,0 0 0 0 729.4,153.9385 L729.4,141.8348 L722.4,134.8348 L526.4,134.8348 A0,0 0 0 0 526.4,134.8348 " fill="#FAFAFA" style="stroke:#181818;stroke-width:0.3499999999999999;"/><path d="M722.4,134.8348 L722.4,141.8348 L729.4,141.8348 L722.4,134.8348 " fill="#FAFAFA" style="stroke:#181818;stroke-width:0.3499999999999999;"/><text fill="#000000" font-family="sans-serif" font-size="9.1" lengthAdjust="spacing" textLength="188.3" x="530.6" y="148.1546">"Type" can be a land, a house or an apartment</text></g><!--link Owner to Agent--><g id="link_Owner_Agent"><path codeLine="81" d="M644.385,228.1308 C682.36,242.9078 779.737,280.8128 835.051,302.3378 " fill="none" id="Owner-Agent" style="stroke:#181818;stroke-width:0.6999999999999998;"/><polygon fill="#000000" points="757.1617,264.3061,752.0074,260.0925,750.5151,263.9268,757.1617,264.3061" style="stroke:#000000;stroke-width:0.6999999999999998;"/><text fill="#000000" font-family="sans-serif" font-size="9.1" lengthAdjust="spacing" textLength="46.9" x="760.2" y="266.8046">chooses an</text><text fill="#000000" font-family="sans-serif" font-size="9.1" lengthAdjust="spacing" textLength="14" x="649.8159" y="226.1501">1..*</text><text fill="#000000" font-family="sans-serif" font-size="9.1" lengthAdjust="spacing" textLength="4.9" x="824.6289" y="310.9302">1</text></g><!--link Owner to Store--><g id="link_Owner_Store"><path codeLine="82" d="M644.385,221.9848 C683.585,221.9848 786.065,221.9848 840.252,221.9848 " fill="none" id="Owner-Store" style="stroke:#181818;stroke-width:0.6999999999999998;"/><polygon fill="#000000" points="759.85,215.4366,753.5184,213.3794,753.5184,217.4939,759.85,215.4366" style="stroke:#000000;stroke-width:0.6999999999999998;"/><text fill="#000000" font-family="sans-serif" font-size="9.1" lengthAdjust="spacing" textLength="42" x="762.65" y="219.2046">chooses a</text><text fill="#000000" font-family="sans-serif" font-size="9.1" lengthAdjust="spacing" textLength="14" x="649.8159" y="233.2347">0..*</text><text fill="#000000" font-family="sans-serif" font-size="9.1" lengthAdjust="spacing" textLength="4.9" x="829.7857" y="232.688">1</text></g><!--link Owner to Property--><g id="link_Owner_Property"><path codeLine="83" d="M611.226,216.4058 C580.741,205.7168 512.197,181.4618 455,159.6848 C448.21,157.1018 440.958,154.2598 434.084,151.5158 " fill="none" id="Owner-Property" style="stroke:#181818;stroke-width:0.6999999999999998;"/><polygon fill="#000000" points="468.0864,154.3405,462.8488,150.2309,461.4336,154.0944,468.0864,154.3405" style="stroke:#000000;stroke-width:0.6999999999999998;"/><text fill="#000000" font-family="sans-serif" font-size="9.1" lengthAdjust="spacing" textLength="27.3" x="471.1" y="156.9046">has an</text><text fill="#000000" font-family="sans-serif" font-size="9.1" lengthAdjust="spacing" textLength="14" x="591.7514" y="226.3656">1..*</text><text fill="#000000" font-family="sans-serif" font-size="9.1" lengthAdjust="spacing" textLength="4.9" x="439.6197" y="164.3603">1</text></g><!--link Owner to CommonCharacteristicsPerson--><g id="link_Owner_CommonCharacteristicsPerson"><path codeLine="84" d="M644.392,214.6208 C688.723,194.9298 817.894,144.3338 922.6,170.8848 C932.505,173.3978 942.487,176.9818 952.189,181.1608 " fill="none" id="Owner-to-CommonCharacteristicsPerson" style="stroke:#181818;stroke-width:0.6999999999999998;"/><polygon fill="none" points="954.576,176.8628,965.223,187.1948,950.453,185.7598,954.576,176.8628" style="stroke:#181818;stroke-width:0.6999999999999998;"/></g><!--link Store to Agent--><g id="link_Store_Agent"><path codeLine="86" d="M875.7,260.9748 C875.7,273.8898 875.7,287.7008 875.7,298.4808 " fill="none" id="Store-Agent" style="stroke:#181818;stroke-width:0.6999999999999998;"/><polygon fill="#000000" points="848.4,276.3366,846.3428,282.6682,850.4572,282.6682,848.4,276.3366" style="stroke:#000000;stroke-width:0.6999999999999998;"/><text fill="#000000" font-family="sans-serif" font-size="9.1" lengthAdjust="spacing" textLength="33.6" x="854.7" y="283.6046">works in</text><text fill="#000000" font-family="sans-serif" font-size="9.1" lengthAdjust="spacing" textLength="4.9" x="870.5014" y="276.2796">1</text><text fill="#000000" font-family="sans-serif" font-size="9.1" lengthAdjust="spacing" textLength="14" x="860.1687" y="290.8581">1..*</text></g><!--reverse link Property to CommonCharacteristicsApartmentHouse--><g id="link_Property_CommonCharacteristicsApartmentHouse"><path codeLine="88" d="M447.559,124.1878 C450.072,123.4038 452.564,122.6338 455,121.8848 C481.362,113.8138 510.076,105.3018 536.361,97.6158 " fill="none" id="Property-backto-CommonCharacteristicsApartmentHouse" style="stroke:#181818;stroke-width:0.6999999999999998;"/><polygon fill="none" points="448.931,128.8918,434.112,128.4298,445.984,119.5468,448.931,128.8918" style="stroke:#181818;stroke-width:0.6999999999999998;"/></g><!--reverse link CommonCharacteristicsApartmentHouse to House--><g id="link_CommonCharacteristicsApartmentHouse_House"><path codeLine="89" d="M733.418,71.4848 C766.682,71.4848 801.773,71.4848 828.702,71.4848 " fill="none" id="CommonCharacteristicsApartmentHouse-backto-House" style="stroke:#181818;stroke-width:0.6999999999999998;"/><polygon fill="none" points="733.299,76.3848,719.299,71.4848,733.299,66.5848,733.299,76.3848" style="stroke:#181818;stroke-width:0.6999999999999998;"/></g><!--link AdvertisementRequest to Owner--><g id="link_AdvertisementRequest_Owner"><path codeLine="91" d="M277.207,221.9848 C368.816,221.9848 555.8,221.9848 611.317,221.9848 " fill="none" id="AdvertisementRequest-Owner" style="stroke:#181818;stroke-width:0.6999999999999998;"/><polygon fill="#000000" points="380.45,215.4366,386.7816,217.4939,386.7816,213.3794,380.45,215.4366" style="stroke:#000000;stroke-width:0.6999999999999998;"/><text fill="#000000" font-family="sans-serif" font-size="9.1" lengthAdjust="spacing" textLength="32.2" x="390.25" y="219.2046">submits</text><text fill="#000000" font-family="sans-serif" font-size="9.1" lengthAdjust="spacing" textLength="14" x="282.8454" y="232.394">1..*</text><text fill="#000000" font-family="sans-serif" font-size="9.1" lengthAdjust="spacing" textLength="4.9" x="592.6444" y="218.5829">1</text></g><!--link AdvertisementRequest to Property--><g id="link_AdvertisementRequest_Property"><path codeLine="92" d="M253.148,208.9718 C284.648,194.0058 336.259,169.4918 369.446,153.7208 " fill="none" id="AdvertisementRequest-Property" style="stroke:#181818;stroke-width:0.6999999999999998;"/><polygon fill="#000000" points="305.2114,157.2347,298.6096,158.0935,300.3752,161.8099,305.2114,157.2347" style="stroke:#000000;stroke-width:0.6999999999999998;"/><text fill="#000000" font-family="sans-serif" font-size="9.1" lengthAdjust="spacing" textLength="39.2" x="308.35" y="162.5046">describes</text><text fill="#000000" font-family="sans-serif" font-size="9.1" lengthAdjust="spacing" textLength="4.9" x="256.1027" y="201.156">1</text><text fill="#000000" font-family="sans-serif" font-size="9.1" lengthAdjust="spacing" textLength="4.9" x="358.9991" y="153.1202">1</text></g><!--link AdvertisementRequest to Agent--><g id="link_AdvertisementRequest_Agent"><path codeLine="93" d="M233.989,235.1028 C253.344,264.4958 304.99,335.1328 369.6,361.2848 C531.839,426.9658 746.795,364.5048 834.82,333.2848 " fill="none" id="AdvertisementRequest-Agent" style="stroke:#181818;stroke-width:0.6999999999999998;"/><polygon fill="#000000" points="462.7458,376.5722,468.6627,379.6236,469.3263,375.563,462.7458,376.5722" style="stroke:#000000;stroke-width:0.6999999999999998;"/><text fill="#000000" font-family="sans-serif" font-size="9.1" lengthAdjust="spacing" textLength="24.5" x="472.5" y="380.9046">opens</text><text fill="#000000" font-family="sans-serif" font-size="9.1" lengthAdjust="spacing" textLength="4.9" x="230.8329" y="250.1101">1</text><text fill="#000000" font-family="sans-serif" font-size="9.1" lengthAdjust="spacing" textLength="14" x="815.5831" y="345.4416">1..*</text></g><!--link Property to Address--><g id="link_Property_Address"><path codeLine="95" d="M369.425,158.2778 C334.782,181.8468 287.742,223.0628 310.8,261.5348 C324.016,283.5848 351.008,296.2058 372.183,303.0308 " fill="none" id="Property-Address" style="stroke:#181818;stroke-width:0.6999999999999998;"/><polygon fill="#000000" points="301.7667,258.486,303.7029,252.1164,299.5892,252.1948,301.7667,258.486" style="stroke:#000000;stroke-width:0.6999999999999998;"/><text fill="#000000" font-family="sans-serif" font-size="9.1" lengthAdjust="spacing" textLength="39.9" x="308" y="258.7546">located at</text><text fill="#000000" font-family="sans-serif" font-size="9.1" lengthAdjust="spacing" textLength="4.9" x="356.4045" y="171.8782">1</text><text fill="#000000" font-family="sans-serif" font-size="9.1" lengthAdjust="spacing" textLength="14" x="352.8049" y="312.6833">1..*</text></g><!--link Address to Owner--><g id="link_Address_Owner"><path codeLine="96" d="M431.417,298.8378 C479.423,279.9938 573.986,242.8728 611.408,228.1868 " fill="none" id="Address-Owner" style="stroke:#181818;stroke-width:0.6999999999999998;"/><polygon fill="#000000" points="455.242,265.7155,461.8875,265.317,460.3841,261.487,455.242,265.7155" style="stroke:#000000;stroke-width:0.6999999999999998;"/><text fill="#000000" font-family="sans-serif" font-size="9.1" lengthAdjust="spacing" textLength="39.9" x="464.8" y="268.2046">located at</text><text fill="#000000" font-family="sans-serif" font-size="9.1" lengthAdjust="spacing" textLength="4.9" x="436.7508" y="307.8078">1</text><text fill="#000000" font-family="sans-serif" font-size="9.1" lengthAdjust="spacing" textLength="4.9" x="600.9438" y="241.6451">1</text></g><!--link Address to Agent--><g id="link_Address_Agent"><path codeLine="97" d="M431.347,310.6538 C512.295,311.9768 741.72,315.7148 834.911,317.2338 " fill="none" id="Address-Agent" style="stroke:#181818;stroke-width:0.6999999999999998;"/><polygon fill="#000000" points="602.7005,305.6796,608.9976,307.8398,609.0647,303.7258,602.7005,305.6796" style="stroke:#000000;stroke-width:0.6999999999999998;"/><text fill="#000000" font-family="sans-serif" font-size="9.1" lengthAdjust="spacing" textLength="39.9" x="612.5" y="309.5046">located at</text><text fill="#000000" font-family="sans-serif" font-size="9.1" lengthAdjust="spacing" textLength="4.9" x="436.8465" y="321.588">1</text><text fill="#000000" font-family="sans-serif" font-size="9.1" lengthAdjust="spacing" textLength="4.9" x="824.471" y="327.7347">1</text></g><!--link Agent to CommonCharacteristicsPerson--><g id="link_Agent_CommonCharacteristicsPerson"><path codeLine="99" d="M911.981,298.5648 C924.189,291.9358 938.406,284.2148 952.749,276.4238 " fill="none" id="Agent-to-CommonCharacteristicsPerson" style="stroke:#181818;stroke-width:0.6999999999999998;"/><polygon fill="none" points="950.425,272.1118,965.062,269.7388,955.101,280.7218,950.425,272.1118" style="stroke:#181818;stroke-width:0.6999999999999998;"/></g><!--link SaleAdvertisementRequest to AdvertisementRequest--><g id="link_SaleAdvertisementRequest_AdvertisementRequest"><path codeLine="101" d="M129.724,241.0808 C139.293,239.1488 149.212,237.1468 158.872,235.2008 " fill="none" id="SaleAdvertisementRequest-to-AdvertisementRequest" style="stroke:#181818;stroke-width:0.6999999999999998;"/><polygon fill="none" points="158.074,230.3638,172.76,232.3938,160.006,239.9678,158.074,230.3638" style="stroke:#181818;stroke-width:0.6999999999999998;"/></g><!--link RentAdvertisementRequest to AdvertisementRequest--><g id="link_RentAdvertisementRequest_AdvertisementRequest"><path codeLine="102" d="M130.396,203.0288 C139.706,204.9048 149.338,206.8508 158.725,208.7478 " fill="none" id="RentAdvertisementRequest-to-AdvertisementRequest" style="stroke:#181818;stroke-width:0.6999999999999998;"/><polygon fill="none" points="159.957,203.9948,172.711,211.5688,158.018,213.5988,159.957,203.9948" style="stroke:#181818;stroke-width:0.6999999999999998;"/></g><!--SRC=[ZLLjJzim4FxkNs7ruxIWJjedX91OGHhIO1NTVi3LlYOMYI_O5w2C_VTTd9UcZ0BzalZot7EFdpkxyTRv6W9KkY9FfWXKeURGe8hZbnhCBUIuucs9Eg1Xy7av1SG2B3qud-iDb16LAd73caa7bnUihMkJ77aroJ4bn7Z67DowORmqv5Vk2VLSgS9PrCO58pNIUuLSa8rAiMDHS4uLEA-lo6AfC_rxDPz_LIhnwPyF7eF-ezJV8R9Y2YWHBR_By_Im65tk8IbgrtL17g-RQeqXhL7uopDh0yQu8phBqNDF96jXGDl6p7Q7MGQgCV2sX_6snWuV4BhIBefxfelMmGrl1J7b0UfYKd11bVHaKOXTXZ58fZFnJDpZIfHyfoOE-_99-pUqWQYAqn1myJAsX21Do5VILUpYS2_xXNM95tUDgrlodOXf6NmK3R9X_0OH4sml-eCsNIGs_kAnfjW4dDXdxyKProNUu5s3aVSR1IKU02KlYQ5S9iV6b1j1lP4I998obXYko7CnLPEwsmEVNBsGQUh4Sq3aQwYwfN6y7HTjzuIFt-cHb8laXzvCc6J0_GA2dSmQm-EXoNivcbBK4sD_g6WpJbj2pdx9iCsq0Q_Ng46NuErdUHQfWHIqV81XU1HwgriofReJC_joTFHffhDCtcRzg1zhKn15Z6tgwG2SJu7TuPe0TxYUCC76Ot6i2qXq9pqiovvFtp9HgQv4ov8Df8Ey1mgtKRkMJOqbJfv5smUEZlh8yKfa7LozEcXJtzecz1VGiPo1TUKuYhG3UQE74tFaOZ9o7ugHf- -axVaW-Rwjf8Qf7bIrrt1IjbUb90ECLWCdTKEA7XKDUpW0_6zCzd2gYsRoX-3VRUwhcnJJcpexU1-ycNJeHlW7]--></g></svg>