<?xml version="1.0" encoding="us-ascii" standalone="no"?><svg xmlns="http://www.w3.org/2000/svg" xmlns:xlink="http://www.w3.org/1999/xlink" contentStyleType="text/css" height="731px" preserveAspectRatio="none" style="width:959px;height:731px;background:#FFFFFF;" version="1.1" viewBox="0 0 959 731" width="959px" zoomAndPan="magnify"><defs/><g><!--class RegisterStoreUI--><g id="elem_RegisterStoreUI"><rect codeLine="10" fill="#F1F1F1" height="48" id="RegisterStoreUI" rx="2.5" ry="2.5" style="stroke:#181818;stroke-width:0.5;" width="131" x="131" y="46"/><ellipse cx="146" cy="62" fill="#ADD1B2" rx="11" ry="11" style="stroke:#181818;stroke-width:1.0;"/><path d="M148,58.5 Q148.2031,58 148.4375,57.75 Q148.6719,57.5 148.9375,57.5 Q149.4063,57.5 149.7031,57.7813 Q150,58.0625 150,58.7188 L150,60.2813 Q150,60.9375 149.7188,61.2188 Q149.4375,61.5 149,61.5 Q148.6094,61.5 148.3594,61.3281 Q148.1094,61.1563 148,60.7031 Q147.9531,60.3906 147.7813,60.2188 Q147.4688,59.8906 146.9063,59.7031 Q146.3438,59.5 145.7813,59.5 Q145.0781,59.5 144.4844,59.7813 Q143.9063,60.0625 143.4531,60.6875 Q143,61.3125 143,62.1719 L143,63.0938 Q143,64.125 143.8438,64.8125 Q144.6875,65.5 146.1875,65.5 Q147.0781,65.5 147.7031,65.2969 Q148.0625,65.1875 148.4688,64.8281 Q148.7344,64.625 148.875,64.5625 Q149.0156,64.5 149.1875,64.5 Q149.5156,64.5 149.75,64.7656 Q150,65.0156 150,65.375 Q150,65.7188 149.6563,66.125 Q149.1563,66.7188 148.3594,67.0469 Q147.3125,67.5 146.0313,67.5 Q144.5313,67.5 143.3281,66.9063 Q142.3594,66.4375 141.6719,65.4219 Q141,64.4063 141,63.2031 L141,62.1094 Q141,60.8594 141.5938,59.7656 Q142.2031,58.6719 143.25,58.0938 Q144.3125,57.5 145.5,57.5 Q146.2188,57.5 146.8438,57.75 Q147.4688,58 148,58.5 Z " fill="#000000"/><text fill="#000000" font-family="sans-serif" font-size="14" lengthAdjust="spacing" textLength="99" x="160" y="66.8535">RegisterStoreUI</text><line style="stroke:#181818;stroke-width:0.5;" x1="132" x2="261" y1="78" y2="78"/><line style="stroke:#181818;stroke-width:0.5;" x1="132" x2="261" y1="86" y2="86"/></g><!--class RegisterStoreController--><g id="elem_RegisterStoreController"><rect codeLine="12" fill="#F1F1F1" height="126.2031" id="RegisterStoreController" rx="2.5" ry="2.5" style="stroke:#181818;stroke-width:0.5;" width="408" x="297.5" y="7"/><ellipse cx="422.75" cy="23" fill="#ADD1B2" rx="11" ry="11" style="stroke:#181818;stroke-width:1.0;"/><path d="M424.75,19.5 Q424.9531,19 425.1875,18.75 Q425.4219,18.5 425.6875,18.5 Q426.1563,18.5 426.4531,18.7813 Q426.75,19.0625 426.75,19.7188 L426.75,21.2813 Q426.75,21.9375 426.4688,22.2188 Q426.1875,22.5 425.75,22.5 Q425.3594,22.5 425.1094,22.3281 Q424.8594,22.1563 424.75,21.7031 Q424.7031,21.3906 424.5313,21.2188 Q424.2188,20.8906 423.6563,20.7031 Q423.0938,20.5 422.5313,20.5 Q421.8281,20.5 421.2344,20.7813 Q420.6563,21.0625 420.2031,21.6875 Q419.75,22.3125 419.75,23.1719 L419.75,24.0938 Q419.75,25.125 420.5938,25.8125 Q421.4375,26.5 422.9375,26.5 Q423.8281,26.5 424.4531,26.2969 Q424.8125,26.1875 425.2188,25.8281 Q425.4844,25.625 425.625,25.5625 Q425.7656,25.5 425.9375,25.5 Q426.2656,25.5 426.5,25.7656 Q426.75,26.0156 426.75,26.375 Q426.75,26.7188 426.4063,27.125 Q425.9063,27.7188 425.1094,28.0469 Q424.0625,28.5 422.7813,28.5 Q421.2813,28.5 420.0781,27.9063 Q419.1094,27.4375 418.4219,26.4219 Q417.75,25.4063 417.75,24.2031 L417.75,23.1094 Q417.75,21.8594 418.3438,20.7656 Q418.9531,19.6719 420,19.0938 Q421.0625,18.5 422.25,18.5 Q422.9688,18.5 423.5938,18.75 Q424.2188,19 424.75,19.5 Z " fill="#000000"/><text fill="#000000" font-family="sans-serif" font-size="14" lengthAdjust="spacing" textLength="149" x="443.25" y="27.8535">RegisterStoreController</text><line style="stroke:#181818;stroke-width:0.5;" x1="298.5" x2="704.5" y1="39" y2="39"/><line style="stroke:#181818;stroke-width:0.5;" x1="298.5" x2="704.5" y1="47" y2="47"/><text fill="#000000" font-family="sans-serif" font-size="14" lengthAdjust="spacing" textLength="167" x="303.5" y="63.6738">+RegisterStoreController()</text><text fill="#000000" font-family="sans-serif" font-size="14" lengthAdjust="spacing" textLength="140" x="303.5" y="79.3145">+getStoreRepository()</text><text fill="#000000" font-family="sans-serif" font-size="14" lengthAdjust="spacing" textLength="158" x="303.5" y="94.9551">+getAddressRepository()</text><text fill="#000000" font-family="sans-serif" font-size="14" lengthAdjust="spacing" textLength="363" x="303.5" y="110.5957">+registerAddress(district, cityName, streetName, zipCode)</text><text fill="#000000" font-family="sans-serif" font-size="14" lengthAdjust="spacing" textLength="396" x="303.5" y="126.2363">+registerStore(ID, designation, phoneNumber, e-mail, address)</text></g><!--class Repositories--><g id="elem_Repositories"><rect codeLine="19" fill="#F1F1F1" height="110.5625" id="Repositories" rx="2.5" ry="2.5" style="stroke:#181818;stroke-width:0.5;" width="194" x="558.5" y="232"/><ellipse cx="611.75" cy="248" fill="#ADD1B2" rx="11" ry="11" style="stroke:#181818;stroke-width:1.0;"/><path d="M613.75,244.5 Q613.9531,244 614.1875,243.75 Q614.4219,243.5 614.6875,243.5 Q615.1563,243.5 615.4531,243.7813 Q615.75,244.0625 615.75,244.7188 L615.75,246.2813 Q615.75,246.9375 615.4688,247.2188 Q615.1875,247.5 614.75,247.5 Q614.3594,247.5 614.1094,247.3281 Q613.8594,247.1563 613.75,246.7031 Q613.7031,246.3906 613.5313,246.2188 Q613.2188,245.8906 612.6563,245.7031 Q612.0938,245.5 611.5313,245.5 Q610.8281,245.5 610.2344,245.7813 Q609.6563,246.0625 609.2031,246.6875 Q608.75,247.3125 608.75,248.1719 L608.75,249.0938 Q608.75,250.125 609.5938,250.8125 Q610.4375,251.5 611.9375,251.5 Q612.8281,251.5 613.4531,251.2969 Q613.8125,251.1875 614.2188,250.8281 Q614.4844,250.625 614.625,250.5625 Q614.7656,250.5 614.9375,250.5 Q615.2656,250.5 615.5,250.7656 Q615.75,251.0156 615.75,251.375 Q615.75,251.7188 615.4063,252.125 Q614.9063,252.7188 614.1094,253.0469 Q613.0625,253.5 611.7813,253.5 Q610.2813,253.5 609.0781,252.9063 Q608.1094,252.4375 607.4219,251.4219 Q606.75,250.4063 606.75,249.2031 L606.75,248.1094 Q606.75,246.8594 607.3438,245.7656 Q607.9531,244.6719 609,244.0938 Q610.0625,243.5 611.25,243.5 Q611.9688,243.5 612.5938,243.75 Q613.2188,244 613.75,244.5 Z " fill="#000000"/><text fill="#000000" font-family="sans-serif" font-size="14" lengthAdjust="spacing" textLength="79" x="632.25" y="252.8535">Repositories</text><line style="stroke:#181818;stroke-width:0.5;" x1="559.5" x2="751.5" y1="264" y2="264"/><line style="stroke:#181818;stroke-width:0.5;" x1="559.5" x2="751.5" y1="272" y2="272"/><text fill="#000000" font-family="sans-serif" font-size="14" lengthAdjust="spacing" textLength="94" x="564.5" y="288.6738">-Repositories()</text><text fill="#000000" font-family="sans-serif" font-size="14" lengthAdjust="spacing" textLength="182" x="564.5" y="304.3145">+getInstance() : Repositories</text><text fill="#000000" font-family="sans-serif" font-size="14" lengthAdjust="spacing" textLength="158" x="564.5" y="319.9551">+getAddressRepository()</text><text fill="#000000" font-family="sans-serif" font-size="14" lengthAdjust="spacing" textLength="140" x="564.5" y="335.5957">+getStoreRepository()</text></g><!--class AddressRepository--><g id="elem_AddressRepository"><rect codeLine="26" fill="#F1F1F1" height="79.2813" id="AddressRepository" rx="2.5" ry="2.5" style="stroke:#181818;stroke-width:0.5;" width="375" x="524" y="621.5"/><ellipse cx="647.25" cy="637.5" fill="#ADD1B2" rx="11" ry="11" style="stroke:#181818;stroke-width:1.0;"/><path d="M649.25,634 Q649.4531,633.5 649.6875,633.25 Q649.9219,633 650.1875,633 Q650.6563,633 650.9531,633.2813 Q651.25,633.5625 651.25,634.2188 L651.25,635.7813 Q651.25,636.4375 650.9688,636.7188 Q650.6875,637 650.25,637 Q649.8594,637 649.6094,636.8281 Q649.3594,636.6563 649.25,636.2031 Q649.2031,635.8906 649.0313,635.7188 Q648.7188,635.3906 648.1563,635.2031 Q647.5938,635 647.0313,635 Q646.3281,635 645.7344,635.2813 Q645.1563,635.5625 644.7031,636.1875 Q644.25,636.8125 644.25,637.6719 L644.25,638.5938 Q644.25,639.625 645.0938,640.3125 Q645.9375,641 647.4375,641 Q648.3281,641 648.9531,640.7969 Q649.3125,640.6875 649.7188,640.3281 Q649.9844,640.125 650.125,640.0625 Q650.2656,640 650.4375,640 Q650.7656,640 651,640.2656 Q651.25,640.5156 651.25,640.875 Q651.25,641.2188 650.9063,641.625 Q650.4063,642.2188 649.6094,642.5469 Q648.5625,643 647.2813,643 Q645.7813,643 644.5781,642.4063 Q643.6094,641.9375 642.9219,640.9219 Q642.25,639.9063 642.25,638.7031 L642.25,637.6094 Q642.25,636.3594 642.8438,635.2656 Q643.4531,634.1719 644.5,633.5938 Q645.5625,633 646.75,633 Q647.4688,633 648.0938,633.25 Q648.7188,633.5 649.25,634 Z " fill="#000000"/><text fill="#000000" font-family="sans-serif" font-size="14" lengthAdjust="spacing" textLength="120" x="667.75" y="642.3535">AddressRepository</text><line style="stroke:#181818;stroke-width:0.5;" x1="525" x2="898" y1="653.5" y2="653.5"/><line style="stroke:#181818;stroke-width:0.5;" x1="525" x2="898" y1="661.5" y2="661.5"/><text fill="#000000" font-family="sans-serif" font-size="14" lengthAdjust="spacing" textLength="145" x="530" y="678.1738">+addAddress(address)</text><text fill="#000000" font-family="sans-serif" font-size="14" lengthAdjust="spacing" textLength="363" x="530" y="693.8145">+registerAddress(streetName, cityName, district, zipCode)</text></g><!--class StoreRepository--><g id="elem_StoreRepository"><rect codeLine="31" fill="#F1F1F1" height="94.9219" id="StoreRepository" rx="2.5" ry="2.5" style="stroke:#181818;stroke-width:0.5;" width="401" x="240" y="442"/><ellipse cx="385.25" cy="458" fill="#ADD1B2" rx="11" ry="11" style="stroke:#181818;stroke-width:1.0;"/><path d="M387.25,454.5 Q387.4531,454 387.6875,453.75 Q387.9219,453.5 388.1875,453.5 Q388.6563,453.5 388.9531,453.7813 Q389.25,454.0625 389.25,454.7188 L389.25,456.2813 Q389.25,456.9375 388.9688,457.2188 Q388.6875,457.5 388.25,457.5 Q387.8594,457.5 387.6094,457.3281 Q387.3594,457.1563 387.25,456.7031 Q387.2031,456.3906 387.0313,456.2188 Q386.7188,455.8906 386.1563,455.7031 Q385.5938,455.5 385.0313,455.5 Q384.3281,455.5 383.7344,455.7813 Q383.1563,456.0625 382.7031,456.6875 Q382.25,457.3125 382.25,458.1719 L382.25,459.0938 Q382.25,460.125 383.0938,460.8125 Q383.9375,461.5 385.4375,461.5 Q386.3281,461.5 386.9531,461.2969 Q387.3125,461.1875 387.7188,460.8281 Q387.9844,460.625 388.125,460.5625 Q388.2656,460.5 388.4375,460.5 Q388.7656,460.5 389,460.7656 Q389.25,461.0156 389.25,461.375 Q389.25,461.7188 388.9063,462.125 Q388.4063,462.7188 387.6094,463.0469 Q386.5625,463.5 385.2813,463.5 Q383.7813,463.5 382.5781,462.9063 Q381.6094,462.4375 380.9219,461.4219 Q380.25,460.4063 380.25,459.2031 L380.25,458.1094 Q380.25,456.8594 380.8438,455.7656 Q381.4531,454.6719 382.5,454.0938 Q383.5625,453.5 384.75,453.5 Q385.4688,453.5 386.0938,453.75 Q386.7188,454 387.25,454.5 Z " fill="#000000"/><text fill="#000000" font-family="sans-serif" font-size="14" lengthAdjust="spacing" textLength="102" x="405.75" y="462.8535">StoreRepository</text><line style="stroke:#181818;stroke-width:0.5;" x1="241" x2="640" y1="474" y2="474"/><line style="stroke:#181818;stroke-width:0.5;" x1="241" x2="640" y1="482" y2="482"/><text fill="#000000" font-family="sans-serif" font-size="14" lengthAdjust="spacing" textLength="108" x="246" y="498.6738">+addStore(store)</text><text fill="#000000" font-family="sans-serif" font-size="14" lengthAdjust="spacing" textLength="133" x="246" y="514.3145">+validateStore(store)</text><text fill="#000000" font-family="sans-serif" font-size="14" lengthAdjust="spacing" textLength="389" x="246" y="529.9551">+registerStore(address, id, phoneNumber, designation, email)</text></g><!--class Address--><g id="elem_Address"><rect codeLine="37" fill="#F1F1F1" height="126.2031" id="Address" rx="2.5" ry="2.5" style="stroke:#181818;stroke-width:0.5;" width="327" x="72" y="598"/><ellipse cx="205.25" cy="614" fill="#ADD1B2" rx="11" ry="11" style="stroke:#181818;stroke-width:1.0;"/><path d="M207.25,610.5 Q207.4531,610 207.6875,609.75 Q207.9219,609.5 208.1875,609.5 Q208.6563,609.5 208.9531,609.7813 Q209.25,610.0625 209.25,610.7188 L209.25,612.2813 Q209.25,612.9375 208.9688,613.2188 Q208.6875,613.5 208.25,613.5 Q207.8594,613.5 207.6094,613.3281 Q207.3594,613.1563 207.25,612.7031 Q207.2031,612.3906 207.0313,612.2188 Q206.7188,611.8906 206.1563,611.7031 Q205.5938,611.5 205.0313,611.5 Q204.3281,611.5 203.7344,611.7813 Q203.1563,612.0625 202.7031,612.6875 Q202.25,613.3125 202.25,614.1719 L202.25,615.0938 Q202.25,616.125 203.0938,616.8125 Q203.9375,617.5 205.4375,617.5 Q206.3281,617.5 206.9531,617.2969 Q207.3125,617.1875 207.7188,616.8281 Q207.9844,616.625 208.125,616.5625 Q208.2656,616.5 208.4375,616.5 Q208.7656,616.5 209,616.7656 Q209.25,617.0156 209.25,617.375 Q209.25,617.7188 208.9063,618.125 Q208.4063,618.7188 207.6094,619.0469 Q206.5625,619.5 205.2813,619.5 Q203.7813,619.5 202.5781,618.9063 Q201.6094,618.4375 200.9219,617.4219 Q200.25,616.4063 200.25,615.2031 L200.25,614.1094 Q200.25,612.8594 200.8438,611.7656 Q201.4531,610.6719 202.5,610.0938 Q203.5625,609.5 204.75,609.5 Q205.4688,609.5 206.0938,609.75 Q206.7188,610 207.25,610.5 Z " fill="#000000"/><text fill="#000000" font-family="sans-serif" font-size="14" lengthAdjust="spacing" textLength="52" x="225.75" y="618.8535">Address</text><line style="stroke:#181818;stroke-width:0.5;" x1="73" x2="398" y1="630" y2="630"/><text fill="#000000" font-family="sans-serif" font-size="14" lengthAdjust="spacing" textLength="87" x="78" y="646.6738">-String district</text><text fill="#000000" font-family="sans-serif" font-size="14" lengthAdjust="spacing" textLength="103" x="78" y="662.3145">-String cityName</text><text fill="#000000" font-family="sans-serif" font-size="14" lengthAdjust="spacing" textLength="75" x="78" y="677.9551">-int zipCode</text><text fill="#000000" font-family="sans-serif" font-size="14" lengthAdjust="spacing" textLength="118" x="78" y="693.5957">-String streetName</text><line style="stroke:#181818;stroke-width:0.5;" x1="73" x2="398" y1="700.5625" y2="700.5625"/><text fill="#000000" font-family="sans-serif" font-size="14" lengthAdjust="spacing" textLength="315" x="78" y="717.2363">+Address(streetName, cityName, district, zipCode)</text></g><!--class Store--><g id="elem_Store"><rect codeLine="45" fill="#F1F1F1" height="157.4844" id="Store" rx="2.5" ry="2.5" style="stroke:#181818;stroke-width:0.5;" width="353" x="7" y="209"/><ellipse cx="162.25" cy="225" fill="#ADD1B2" rx="11" ry="11" style="stroke:#181818;stroke-width:1.0;"/><path d="M164.25,221.5 Q164.4531,221 164.6875,220.75 Q164.9219,220.5 165.1875,220.5 Q165.6563,220.5 165.9531,220.7813 Q166.25,221.0625 166.25,221.7188 L166.25,223.2813 Q166.25,223.9375 165.9688,224.2188 Q165.6875,224.5 165.25,224.5 Q164.8594,224.5 164.6094,224.3281 Q164.3594,224.1563 164.25,223.7031 Q164.2031,223.3906 164.0313,223.2188 Q163.7188,222.8906 163.1563,222.7031 Q162.5938,222.5 162.0313,222.5 Q161.3281,222.5 160.7344,222.7813 Q160.1563,223.0625 159.7031,223.6875 Q159.25,224.3125 159.25,225.1719 L159.25,226.0938 Q159.25,227.125 160.0938,227.8125 Q160.9375,228.5 162.4375,228.5 Q163.3281,228.5 163.9531,228.2969 Q164.3125,228.1875 164.7188,227.8281 Q164.9844,227.625 165.125,227.5625 Q165.2656,227.5 165.4375,227.5 Q165.7656,227.5 166,227.7656 Q166.25,228.0156 166.25,228.375 Q166.25,228.7188 165.9063,229.125 Q165.4063,229.7188 164.6094,230.0469 Q163.5625,230.5 162.2813,230.5 Q160.7813,230.5 159.5781,229.9063 Q158.6094,229.4375 157.9219,228.4219 Q157.25,227.4063 157.25,226.2031 L157.25,225.1094 Q157.25,223.8594 157.8438,222.7656 Q158.4531,221.6719 159.5,221.0938 Q160.5625,220.5 161.75,220.5 Q162.4688,220.5 163.0938,220.75 Q163.7188,221 164.25,221.5 Z " fill="#000000"/><text fill="#000000" font-family="sans-serif" font-size="14" lengthAdjust="spacing" textLength="34" x="182.75" y="229.8535">Store</text><line style="stroke:#181818;stroke-width:0.5;" x1="8" x2="359" y1="241" y2="241"/><text fill="#000000" font-family="sans-serif" font-size="14" lengthAdjust="spacing" textLength="57" x="13" y="257.6738">-String id</text><text fill="#000000" font-family="sans-serif" font-size="14" lengthAdjust="spacing" textLength="119" x="13" y="273.3145">-String designation</text><text fill="#000000" font-family="sans-serif" font-size="14" lengthAdjust="spacing" textLength="135" x="13" y="288.9551">-String phoneNumber</text><text fill="#000000" font-family="sans-serif" font-size="14" lengthAdjust="spacing" textLength="79" x="13" y="304.5957">-String email</text><text fill="#000000" font-family="sans-serif" font-size="14" lengthAdjust="spacing" textLength="112" x="13" y="320.2363">-Address address</text><line style="stroke:#181818;stroke-width:0.5;" x1="8" x2="359" y1="327.2031" y2="327.2031"/><text fill="#000000" font-family="sans-serif" font-size="14" lengthAdjust="spacing" textLength="98" x="13" y="343.877">+equals(object)</text><text fill="#000000" font-family="sans-serif" font-size="14" lengthAdjust="spacing" textLength="341" x="13" y="359.5176">+Store(address, id, phoneNumber, designation, email)</text></g><!--link Address to AddressRepository--><g id="link_Address_AddressRepository"><path codeLine="62" d="M399.09,661 C416.91,661 479.09,661 518.71,661 " fill="none" id="Address-to-AddressRepository" style="stroke:#181818;stroke-width:1.0;"/><polygon fill="#181818" points="523.9,661,514.9,657,518.9,661,514.9,665,523.9,661" style="stroke:#181818;stroke-width:1.0;"/><text fill="#000000" font-family="sans-serif" font-size="13" lengthAdjust="spacing" textLength="5" x="510.8802" y="658.4784">*</text></g><!--link Store to StoreRepository--><g id="link_Store_StoreRepository"><path codeLine="64" d="M283.23,366.11 C314.56,390.5 348.3,416.75 376.47,438.67 " fill="none" id="Store-to-StoreRepository" style="stroke:#181818;stroke-width:1.0;"/><polygon fill="#181818" points="380.58,441.87,375.9381,433.1836,376.6355,438.7973,371.0219,439.4948,380.58,441.87" style="stroke:#181818;stroke-width:1.0;"/><text fill="#000000" font-family="sans-serif" font-size="13" lengthAdjust="spacing" textLength="5" x="366.0219" y="431.3194">*</text></g><!--link Store to Address--><g id="link_Store_Address"><path codeLine="65" d="M173.38,366.15 C168.42,404.22 163.5,442 163.5,442 C163.5,442 163.5,537 163.5,537 C163.5,537 179.47,564.28 196.36,593.14 " fill="none" id="Store-to-Address" style="stroke:#181818;stroke-width:1.0;"/><polygon fill="#181818" points="199.08,597.78,197.9801,587.9927,196.5518,593.4663,191.0782,592.0379,199.08,597.78" style="stroke:#181818;stroke-width:1.0;"/><text fill="#000000" font-family="sans-serif" font-size="13" lengthAdjust="spacing" textLength="57" x="164.5" y="494.2686">located at</text><text fill="#000000" font-family="sans-serif" font-size="13" lengthAdjust="spacing" textLength="5" x="167.1377" y="386.3516">*</text><text fill="#000000" font-family="sans-serif" font-size="13" lengthAdjust="spacing" textLength="7" x="187.4643" y="587.4479">1</text></g><!--link RegisterStoreUI to RegisterStoreController--><g id="link_RegisterStoreUI_RegisterStoreController"><path codeLine="67" d="M262.04,70 C274.41,70 285.51,70 292.04,70 " fill="none" id="RegisterStoreUI-to-RegisterStoreController" style="stroke:#181818;stroke-width:1.0;stroke-dasharray:7.0,7.0;"/><polygon fill="#181818" points="297.42,70,288.42,66,292.42,70,288.42,74,297.42,70" style="stroke:#181818;stroke-width:1.0;"/></g><!--link RegisterStoreController to Repositories--><g id="link_RegisterStoreController_Repositories"><path codeLine="69" d="M545.84,133.04 C567.09,162.79 592.43,198.24 613.39,227.57 " fill="none" id="RegisterStoreController-to-Repositories" style="stroke:#181818;stroke-width:1.0;stroke-dasharray:7.0,7.0;"/><polygon fill="#181818" points="616.45,231.85,614.4866,222.1988,613.5492,227.7775,607.9706,226.8401,616.45,231.85" style="stroke:#181818;stroke-width:1.0;"/><text fill="#000000" font-family="sans-serif" font-size="13" lengthAdjust="spacing" textLength="67" x="579.5" y="175.7686">repositories</text></g><!--link RegisterStoreController to Store--><g id="link_RegisterStoreController_Store"><path codeLine="70" d="M409.95,133.04 C376.36,155.8 337.84,181.91 302.21,206.05 " fill="none" id="RegisterStoreController-to-Store" style="stroke:#181818;stroke-width:1.0;stroke-dasharray:7.0,7.0;"/><polygon fill="#181818" points="297.88,208.99,307.5765,207.2644,302.0226,206.1902,303.0968,200.6363,297.88,208.99" style="stroke:#181818;stroke-width:1.0;"/><text fill="#000000" font-family="sans-serif" font-size="13" lengthAdjust="spacing" textLength="29" x="362.5" y="175.7686">store</text></g><!--link RegisterStoreController to StoreRepository--><g id="link_RegisterStoreController_StoreRepository"><path codeLine="71" d="M477.64,133.14 C463.57,169.77 448.5,209 448.5,209 C448.5,209 444.3,355.64 441.99,436.49 " fill="none" id="RegisterStoreController-to-StoreRepository" style="stroke:#181818;stroke-width:1.0;stroke-dasharray:7.0,7.0;"/><polygon fill="#181818" points="441.84,441.72,446.0954,432.8379,441.9828,436.722,438.0987,432.6094,441.84,441.72" style="stroke:#181818;stroke-width:1.0;"/><text fill="#000000" font-family="sans-serif" font-size="13" lengthAdjust="spacing" textLength="91" x="449.5" y="292.2686">storeRepository</text></g><!--link RegisterStoreController to AddressRepository--><g id="link_RegisterStoreController_AddressRepository"><path codeLine="72" d="M657.94,133.04 C750.38,169.69 849.5,209 849.5,209 C849.5,209 849.5,366 849.5,366 C849.5,366 810.5,537 810.5,537 C810.5,537 774.57,581.64 746,617.14 " fill="none" id="RegisterStoreController-to-AddressRepository" style="stroke:#181818;stroke-width:1.0;stroke-dasharray:7.0,7.0;"/><polygon fill="#181818" points="742.55,621.42,751.3018,616.9027,745.6787,617.5198,745.0615,611.8968,742.55,621.42" style="stroke:#181818;stroke-width:1.0;"/><text fill="#000000" font-family="sans-serif" font-size="13" lengthAdjust="spacing" textLength="108" x="843.5" y="408.7686">addressRepository</text></g><!--link Repositories to AddressRepository--><g id="link_Repositories_AddressRepository"><path codeLine="74" d="M663.76,343.32 C674.94,417.48 694.66,548.29 704.9,616.25 " fill="none" id="Repositories-to-AddressRepository" style="stroke:#181818;stroke-width:1.0;"/><polygon fill="#181818" points="705.69,621.43,708.308,611.9355,704.9469,616.4855,700.3968,613.1244,705.69,621.43" style="stroke:#181818;stroke-width:1.0;"/><text fill="#000000" font-family="sans-serif" font-size="13" lengthAdjust="spacing" textLength="108" x="693.5" y="494.2686">addressRepository</text><text fill="#000000" font-family="sans-serif" font-size="13" lengthAdjust="spacing" textLength="7" x="696.9735" y="610.6345">1</text></g><!--link Repositories to StoreRepository--><g id="link_Repositories_StoreRepository"><path codeLine="75" d="M596.75,343.15 C564.85,372.82 525.68,409.26 494.55,438.22 " fill="none" id="Repositories-to-StoreRepository" style="stroke:#181818;stroke-width:1.0;"/><polygon fill="#181818" points="490.79,441.72,500.1112,438.5396,494.4585,438.3227,494.6755,432.67,490.79,441.72" style="stroke:#181818;stroke-width:1.0;"/><text fill="#000000" font-family="sans-serif" font-size="13" lengthAdjust="spacing" textLength="91" x="535.5" y="408.7686">storeRepository</text><text fill="#000000" font-family="sans-serif" font-size="13" lengthAdjust="spacing" textLength="7" x="490.9547" y="431.1464">1</text></g><!--link Repositories to Repositories--><g id="link_Repositories_Repositories"><path codeLine="76" d="M752.78,266.51 C772.98,268.72 787.5,275.72 787.5,287.5 C787.5,298.27 775.37,305.04 757.86,307.81 " fill="none" id="Repositories-to-Repositories" style="stroke:#181818;stroke-width:1.0;"/><polygon fill="#181818" points="752.78,308.49,762.2276,311.2726,757.7366,307.8329,761.1763,303.342,752.78,308.49" style="stroke:#181818;stroke-width:1.0;"/><text fill="#000000" font-family="sans-serif" font-size="13" lengthAdjust="spacing" textLength="49" x="793.5" y="292.2686">instance</text></g><!--SRC=[fLJ1Rjim3BthAuXUaYnsiLrpA51qbrnwQB0FK2pMuIfBhiHqI8l- -sH7jkKuQOijXy0c-SJtdaZF_1EPMZfPGMMDBNRELWZizYY6J2sB9rdYXWyQmM71qfGwBV0xgUmVCYKyIktJZ2Q3VAWHQgiFpOkOdKbQnrOag49Bxs-P7MttZEl2cWsz8dmNCusF36p1KRbZKDIm8Mk4Q27mW2LvHhTXw_3N6jx4-xdCdJNihDRetiJoGcQ-4CiIkOq-O6qzXQT3ZDugvT3xSTp5Ws9ohiAReu8pA8WFzxB23484aO_FhrJVMOK9icqsN__CGA6dqiX6MmRrpXgytrTRT1bWNadI6SXZbqMYC98Xz45udhv7sclZmzqLE5_0QbH_MTHP2zuxloUGq7WPc7KMz2GdvgH63FOCblNczBrEQCHEHyjyyn-wl4XDIZAEesDx8wSCI9rOEp8T6vkdKeEncq0nZ7h7jGzqCaHEXZi1VNOGB9R_QSB0WTH0Po3Vnn9rVQpL9V98eHiZiSJdVTZTkTt-3YiLJFj7i-AlEpw_WQjlLzCv4Q8z7_9OS7AvnsoJoDkA7_qHON2rBS8LAv0inEd2NzzSslIJsY41roqeMPvL-CWbk_4HxgXY1UseVLwPZ6_499e_GayNRTLTNMhgI4PqxclGSyYlK4vH4nifVc_QaVWB]--></g></svg>