<?xml version="1.0" encoding="us-ascii" standalone="no"?><svg xmlns="http://www.w3.org/2000/svg" xmlns:xlink="http://www.w3.org/1999/xlink" contentStyleType="text/css" height="403.2px" preserveAspectRatio="none" style="width:882px;height:403px;background:#FFFFFF;" version="1.1" viewBox="0 0 882 403" width="882px" zoomAndPan="magnify"><defs/><g><text fill="#000000" font-family="sans-serif" font-size="8.4" font-weight="bold" lengthAdjust="spacing" textLength="88.2" x="392.7" y="13.6043">Domain Model US002</text><!--class Agent--><g id="elem_Agent"><rect codeLine="14" fill="#F1F1F1" height="20.1844" id="Agent" rx="1.5" ry="1.5" style="stroke:#181818;stroke-width:0.3;" width="25.8" x="634.5" y="74.4844"/><text fill="#000000" font-family="sans-serif" font-size="8.4" lengthAdjust="spacing" textLength="22.2" x="636.3" y="85.0887">Agent</text><line style="stroke:#181818;stroke-width:0.3;" x1="635.1" x2="659.7" y1="89.8687" y2="89.8687"/></g><!--class Owner--><g id="elem_Owner"><rect codeLine="17" fill="#F1F1F1" height="20.1844" id="Owner" rx="1.5" ry="1.5" style="stroke:#181818;stroke-width:0.3;" width="28.2" x="633.3" y="219.0844"/><text fill="#000000" font-family="sans-serif" font-size="8.4" lengthAdjust="spacing" textLength="24.6" x="635.1" y="229.6887">Owner</text><line style="stroke:#181818;stroke-width:0.3;" x1="633.9" x2="660.9" y1="234.4688" y2="234.4688"/></g><!--class Advertisement--><g id="elem_Advertisement"><rect codeLine="20" fill="#F1F1F1" height="29.5687" id="Advertisement" rx="1.5" ry="1.5" style="stroke:#181818;stroke-width:0.3;" width="57.6" x="414" y="30.3844"/><text fill="#000000" font-family="sans-serif" font-size="8.4" lengthAdjust="spacing" textLength="54" x="415.8" y="40.9887">Advertisement</text><line style="stroke:#181818;stroke-width:0.3;" x1="414.6" x2="471" y1="45.7688" y2="45.7688"/><text fill="#000000" font-family="sans-serif" font-size="8.4" lengthAdjust="spacing" textLength="16.8" x="417.6" y="55.773">date</text></g><!--class AdvertisementRequest--><g id="elem_AdvertisementRequest"><rect codeLine="24" fill="#F1F1F1" height="20.1844" id="AdvertisementRequest" rx="1.5" ry="1.5" style="stroke:#181818;stroke-width:0.3;" width="88.8" x="190.8" y="168.0844"/><text fill="#000000" font-family="sans-serif" font-size="8.4" font-style="italic" lengthAdjust="spacing" textLength="85.2" x="192.6" y="178.6887">AdvertisementRequest</text><line style="stroke:#181818;stroke-width:0.3;" x1="191.4" x2="279" y1="183.4688" y2="183.4688"/></g><!--class SaleAdvertisementRequest--><g id="elem_SaleAdvertisementRequest"><rect codeLine="27" fill="#F1F1F1" height="29.5687" id="SaleAdvertisementRequest" rx="1.5" ry="1.5" style="stroke:#181818;stroke-width:0.3;" width="106.2" x="4.8" y="146.7844"/><text fill="#000000" font-family="sans-serif" font-size="8.4" lengthAdjust="spacing" textLength="102.6" x="6.6" y="157.3887">SaleAdvertisementRequest</text><line style="stroke:#181818;stroke-width:0.3;" x1="5.4" x2="110.4" y1="162.1688" y2="162.1688"/><text fill="#000000" font-family="sans-serif" font-size="8.4" lengthAdjust="spacing" textLength="35.4" x="8.4" y="172.173">totalPrice</text></g><!--class RentAdvertisementRequest--><g id="elem_RentAdvertisementRequest"><rect codeLine="31" fill="#F1F1F1" height="29.5687" id="RentAdvertisementRequest" rx="1.5" ry="1.5" style="stroke:#181818;stroke-width:0.3;" width="107.4" x="4.2" y="197.1844"/><text fill="#000000" font-family="sans-serif" font-size="8.4" lengthAdjust="spacing" textLength="103.8" x="6" y="207.7887">RentAdvertisementRequest</text><line style="stroke:#181818;stroke-width:0.3;" x1="4.8" x2="111" y1="212.5688" y2="212.5688"/><text fill="#000000" font-family="sans-serif" font-size="8.4" lengthAdjust="spacing" textLength="70.8" x="7.8" y="222.573">rentPricePerMonth</text></g><!--class House--><g id="elem_House"><rect codeLine="35" fill="#F1F1F1" height="48.3375" id="House" rx="1.5" ry="1.5" style="stroke:#181818;stroke-width:0.3;" width="80.4" x="607.2" y="309.9844"/><text fill="#000000" font-family="sans-serif" font-size="8.4" lengthAdjust="spacing" textLength="24" x="635.4" y="320.5887">House</text><line style="stroke:#181818;stroke-width:0.3;" x1="607.8" x2="687" y1="325.3688" y2="325.3688"/><text fill="#000000" font-family="sans-serif" font-size="8.4" lengthAdjust="spacing" textLength="73.2" x="610.8" y="335.373">existenceBasement</text><text fill="#000000" font-family="sans-serif" font-size="8.4" lengthAdjust="spacing" textLength="49.8" x="610.8" y="344.7574">existenceLoft</text><text fill="#000000" font-family="sans-serif" font-size="8.4" lengthAdjust="spacing" textLength="49.2" x="610.8" y="354.1418">sunExposure</text></g><!--class CommonCharacteristicsApartmentHouse--><g id="elem_CommonCharacteristicsApartmentHouse"><rect codeLine="41" fill="#F1F1F1" height="57.7219" id="CommonCharacteristicsApartmentHouse" rx="1.5" ry="1.5" style="stroke:#181818;stroke-width:0.3;" width="157.2" x="364.2" y="305.4844"/><text fill="#000000" font-family="sans-serif" font-size="8.4" font-style="italic" lengthAdjust="spacing" textLength="153.6" x="366" y="316.0887">CommonCharacteristicsApartmentHouse</text><line style="stroke:#181818;stroke-width:0.3;" x1="364.8" x2="520.8" y1="320.8688" y2="320.8688"/><text fill="#000000" font-family="sans-serif" font-size="8.4" lengthAdjust="spacing" textLength="67.2" x="367.8" y="330.873">numberBedrooms</text><text fill="#000000" font-family="sans-serif" font-size="8.4" lengthAdjust="spacing" textLength="69.6" x="367.8" y="340.2574">numberBathrooms</text><text fill="#000000" font-family="sans-serif" font-size="8.4" lengthAdjust="spacing" textLength="85.8" x="367.8" y="349.6418">numberParkingSpaces</text><text fill="#000000" font-family="sans-serif" font-size="8.4" lengthAdjust="spacing" textLength="73.8" x="367.8" y="359.0262">availableEquipment</text></g><!--class Property--><g id="elem_Property"><rect codeLine="48" fill="#F1F1F1" height="67.1063" id="Property" rx="1.5" ry="1.5" style="stroke:#181818;stroke-width:0.3;" width="55.2" x="207.6" y="246.6844"/><text fill="#000000" font-family="sans-serif" font-size="8.4" font-style="italic" lengthAdjust="spacing" textLength="32.4" x="219" y="257.2887">Property</text><line style="stroke:#181818;stroke-width:0.3;" x1="208.2" x2="262.2" y1="262.0687" y2="262.0687"/><text fill="#000000" font-family="sans-serif" font-size="8.4" lengthAdjust="spacing" textLength="16.2" x="211.2" y="272.073">type</text><text fill="#000000" font-family="sans-serif" font-size="8.4" lengthAdjust="spacing" textLength="17.4" x="211.2" y="281.4574">area</text><text fill="#000000" font-family="sans-serif" font-size="8.4" lengthAdjust="spacing" textLength="31.8" x="211.2" y="290.8418">distance</text><text fill="#000000" font-family="sans-serif" font-size="8.4" lengthAdjust="spacing" textLength="18.6" x="211.2" y="300.2262">price</text><text fill="#000000" font-family="sans-serif" font-size="8.4" lengthAdjust="spacing" textLength="48" x="211.2" y="309.6105">photographs</text></g><!--class Commission--><g id="elem_Commission"><rect codeLine="56" fill="#F1F1F1" height="38.9531" id="Commission" rx="1.5" ry="1.5" style="stroke:#181818;stroke-width:0.3;" width="53.4" x="790.8" y="26.1844"/><text fill="#000000" font-family="sans-serif" font-size="8.4" lengthAdjust="spacing" textLength="45.6" x="794.7" y="36.7887">Commission</text><line style="stroke:#181818;stroke-width:0.3;" x1="791.4" x2="843.6" y1="41.5688" y2="41.5688"/><text fill="#000000" font-family="sans-serif" font-size="8.4" lengthAdjust="spacing" textLength="46.2" x="794.4" y="51.573">fixedAmount</text><text fill="#000000" font-family="sans-serif" font-size="8.4" lengthAdjust="spacing" textLength="43.2" x="794.4" y="60.9574">percentage</text></g><!--class Address--><g id="elem_Address"><rect codeLine="61" fill="#F1F1F1" height="57.7219" id="Address" rx="1.5" ry="1.5" style="stroke:#181818;stroke-width:0.3;" width="50.4" x="32.7" y="251.4844"/><text fill="#000000" font-family="sans-serif" font-size="8.4" font-style="italic" lengthAdjust="spacing" textLength="31.2" x="42.3" y="262.0887">Address</text><line style="stroke:#181818;stroke-width:0.3;" x1="33.3" x2="82.5" y1="266.8688" y2="266.8688"/><text fill="#000000" font-family="sans-serif" font-size="8.4" lengthAdjust="spacing" textLength="30.6" x="36.3" y="276.873">zipCode</text><text fill="#000000" font-family="sans-serif" font-size="8.4" lengthAdjust="spacing" textLength="43.2" x="36.3" y="286.2574">streetName</text><text fill="#000000" font-family="sans-serif" font-size="8.4" lengthAdjust="spacing" textLength="34.2" x="36.3" y="295.6418">cityName</text><text fill="#000000" font-family="sans-serif" font-size="8.4" lengthAdjust="spacing" textLength="24.6" x="36.3" y="305.0262">district</text></g><!--class CommonCharacteristicsPerson--><g id="elem_CommonCharacteristicsPerson"><rect codeLine="68" fill="#F1F1F1" height="67.1063" id="CommonCharacteristicsPerson" rx="1.5" ry="1.5" style="stroke:#181818;stroke-width:0.3;" width="120.6" x="757.2" y="165.6844"/><text fill="#000000" font-family="sans-serif" font-size="8.4" font-style="italic" lengthAdjust="spacing" textLength="117" x="759" y="176.2887">CommonCharacteristicsPerson</text><line style="stroke:#181818;stroke-width:0.3;" x1="757.8" x2="877.2" y1="181.0688" y2="181.0688"/><text fill="#000000" font-family="sans-serif" font-size="8.4" lengthAdjust="spacing" textLength="21" x="760.8" y="191.073">name</text><text fill="#000000" font-family="sans-serif" font-size="8.4" lengthAdjust="spacing" textLength="71.4" x="760.8" y="200.4574">citizenCardNumber</text><text fill="#000000" font-family="sans-serif" font-size="8.4" lengthAdjust="spacing" textLength="40.2" x="760.8" y="209.8418">taxNumber</text><text fill="#000000" font-family="sans-serif" font-size="8.4" lengthAdjust="spacing" textLength="51" x="760.8" y="219.2262">emailAddress</text><text fill="#000000" font-family="sans-serif" font-size="8.4" lengthAdjust="spacing" textLength="53.4" x="760.8" y="228.6105">phoneNumber</text></g><!--class Organization--><g id="elem_Organization"><rect codeLine="76" fill="#F1F1F1" height="38.9531" id="Organization" rx="1.5" ry="1.5" style="stroke:#181818;stroke-width:0.3;" width="61.2" x="616.8" y="116.1844"/><text fill="#000000" font-family="sans-serif" font-size="8.4" lengthAdjust="spacing" textLength="57.6" x="618.6" y="126.7887">RealEstateUSA</text><line style="stroke:#181818;stroke-width:0.3;" x1="617.4" x2="677.4" y1="131.5688" y2="131.5688"/><text fill="#000000" font-family="sans-serif" font-size="8.4" lengthAdjust="spacing" textLength="53.4" x="620.4" y="141.573">phoneNumber</text><text fill="#000000" font-family="sans-serif" font-size="8.4" lengthAdjust="spacing" textLength="51" x="620.4" y="150.9574">emailAddress</text></g><!--class Employee--><g id="elem_Employee"><rect codeLine="81" fill="#F1F1F1" height="38.9531" id="Employee" rx="1.5" ry="1.5" style="stroke:#181818;stroke-width:0.3;" width="69.6" x="408" y="132.9844"/><text fill="#000000" font-family="sans-serif" font-size="8.4" font-style="italic" lengthAdjust="spacing" textLength="37.2" x="424.2" y="143.5887">Employee</text><line style="stroke:#181818;stroke-width:0.3;" x1="408.6" x2="477" y1="148.3688" y2="148.3688"/><text fill="#000000" font-family="sans-serif" font-size="8.4" lengthAdjust="spacing" textLength="62.4" x="411.6" y="158.373">assignedAgency</text><text fill="#000000" font-family="sans-serif" font-size="8.4" lengthAdjust="spacing" textLength="14.4" x="411.6" y="167.7574">role</text></g><g id="elem_GMN16"><path d="M356.4,384.3844 L356.4,399.0984 L529.2,399.0984 L529.2,390.3844 L523.2,384.3844 L356.4,384.3844 " fill="#FAFAFA" style="stroke:#181818;stroke-width:0.3;"/><path d="M523.2,384.3844 L523.2,390.3844 L529.2,390.3844 L523.2,384.3844 " fill="#FAFAFA" style="stroke:#181818;stroke-width:0.6;"/><text fill="#000000" font-family="sans-serif" font-size="7.8" lengthAdjust="spacing" textLength="160.2" x="360" y="394.4455">Type can be a Land, a House or an Apartment</text></g><!--link Property to GMN16--><g id="link_Property_GMN16"><path d="M262.842,307.1944 C285.822,328.5064 320.682,357.3544 356.4,373.8844 C366.21,378.4204 377.172,381.8284 387.906,384.3784 " fill="none" id="Property-GMN16" style="stroke:#181818;stroke-width:0.6;stroke-dasharray:7.0,7.0;"/></g><!--link Advertisement to Agent--><g id="link_Advertisement_Agent"><path codeLine="90" d="M471.684,50.5924 C516.546,59.3224 602.226,76.0084 634.284,82.2484 " fill="none" id="Advertisement-Agent" style="stroke:#181818;stroke-width:0.6;"/><polygon fill="#000000" points="547.2553,60.8681,552.2453,63.6361,552.9193,60.1744,547.2553,60.8681" style="stroke:#000000;stroke-width:0.6;"/><text fill="#000000" font-family="sans-serif" font-size="7.8" lengthAdjust="spacing" textLength="33" x="555.6" y="64.1455">publishes</text><text fill="#000000" font-family="sans-serif" font-size="7.8" lengthAdjust="spacing" textLength="3" x="476.3365" y="59.1512">*</text><text fill="#000000" font-family="sans-serif" font-size="7.8" lengthAdjust="spacing" textLength="4.2" x="625.4241" y="89.9308">1</text></g><!--link Advertisement to Commission--><g id="link_Advertisement_Commission"><path codeLine="91" d="M471.624,45.1324 C541.728,45.2404 722.988,45.5344 790.794,45.6424 " fill="none" id="Advertisement-Commission" style="stroke:#181818;stroke-width:0.6;"/><polygon fill="#000000" points="638.4,41.0462,632.9758,39.2742,632.9701,42.8009,638.4,41.0462" style="stroke:#000000;stroke-width:0.6;"/><text fill="#000000" font-family="sans-serif" font-size="7.8" lengthAdjust="spacing" textLength="21" x="640.8" y="43.7455">needs</text><text fill="#000000" font-family="sans-serif" font-size="7.8" lengthAdjust="spacing" textLength="4.2" x="476.3592" y="43.1689">1</text><text fill="#000000" font-family="sans-serif" font-size="7.8" lengthAdjust="spacing" textLength="4.2" x="781.823" y="43.6308">1</text></g><!--link AdvertisementRequest to Advertisement--><g id="link_AdvertisementRequest_Advertisement"><path codeLine="92" d="M238.842,168.0064 C245.64,146.9404 264.15,98.8564 297.6,75.0844 C332.184,50.5024 382.488,45.1684 413.73,44.4664 " fill="none" id="AdvertisementRequest-Advertisement" style="stroke:#181818;stroke-width:0.6;"/><polygon fill="#000000" points="303.0503,50.1105,297.6003,51.8015,299.635,54.682,303.0503,50.1105" style="stroke:#000000;stroke-width:0.6;"/><text fill="#000000" font-family="sans-serif" font-size="7.8" lengthAdjust="spacing" textLength="31.8" x="306" y="54.5455">becomes</text><text fill="#000000" font-family="sans-serif" font-size="7.8" lengthAdjust="spacing" textLength="4.2" x="235.1913" y="161.6041">1</text><text fill="#000000" font-family="sans-serif" font-size="7.8" lengthAdjust="spacing" textLength="4.2" x="404.9519" y="52.0643">1</text></g><!--link Agent to Owner--><g id="link_Agent_Owner"><path codeLine="94" d="M634.44,89.9224 C605.88,102.2944 541.584,135.1384 561.9,172.8844 C577.074,201.0664 613.176,217.5004 633.282,224.7724 " fill="none" id="Agent-Owner" style="stroke:#181818;stroke-width:0.6;"/><polygon fill="#000000" points="551.7258,165.2415,549.9159,170.6532,553.4424,170.6835,551.7258,165.2415" style="stroke:#000000;stroke-width:0.6;"/><text fill="#000000" font-family="sans-serif" font-size="7.8" lengthAdjust="spacing" textLength="30" x="557.1" y="170.9455">contacts</text><text fill="#000000" font-family="sans-serif" font-size="7.8" lengthAdjust="spacing" textLength="4.2" x="625.4396" y="100.0763">1</text><text fill="#000000" font-family="sans-serif" font-size="7.8" lengthAdjust="spacing" textLength="12" x="616.3782" y="221.3745">1..*</text></g><!--link Agent to Commission--><g id="link_Agent_Commission"><path codeLine="95" d="M660.42,81.8164 C687.768,75.5044 753.696,60.2764 790.656,51.7444 " fill="none" id="Agent-Commission" style="stroke:#181818;stroke-width:0.6;"/><polygon fill="#000000" points="711.5231,58.9665,705.8384,58.4693,706.6319,61.9056,711.5231,58.9665" style="stroke:#000000;stroke-width:0.6;"/><text fill="#000000" font-family="sans-serif" font-size="7.8" lengthAdjust="spacing" textLength="24.6" x="714" y="62.3455">defines</text><text fill="#000000" font-family="sans-serif" font-size="7.8" lengthAdjust="spacing" textLength="4.2" x="665.0505" y="89.3665">1</text><text fill="#000000" font-family="sans-serif" font-size="7.8" lengthAdjust="spacing" textLength="4.2" x="781.8431" y="60.4695">1</text></g><!--reverse link Property to CommonCharacteristicsApartmentHouse--><g id="link_Property_CommonCharacteristicsApartmentHouse"><path codeLine="97" d="M274.638,290.4424 C299.85,297.0424 333.588,305.8684 364.188,313.8724 " fill="none" id="Property-backto-CommonCharacteristicsApartmentHouse" style="stroke:#181818;stroke-width:0.6;"/><polygon fill="none" points="273.54,294.4984,262.998,287.4004,275.67,286.3744,273.54,294.4984" style="stroke:#181818;stroke-width:0.6;"/></g><!--reverse link CommonCharacteristicsApartmentHouse to House--><g id="link_CommonCharacteristicsApartmentHouse_House"><path codeLine="98" d="M533.58,334.2844 C559.308,334.2844 586.026,334.2844 607.044,334.2844 " fill="none" id="CommonCharacteristicsApartmentHouse-backto-House" style="stroke:#181818;stroke-width:0.6;"/><polygon fill="none" points="533.46,338.4844,521.46,334.2844,533.46,330.0844,533.46,338.4844" style="stroke:#181818;stroke-width:0.6;"/></g><!--link Property to Owner--><g id="link_Property_Owner"><path codeLine="99" d="M262.926,276.9184 C342.732,267.0184 574.788,238.2184 633.288,230.9584 " fill="none" id="Property-Owner" style="stroke:#181818;stroke-width:0.6;"/><polygon fill="#000000" points="432.5772,238.672,426.9743,237.5904,427.4086,241.0902,432.5772,238.672" style="stroke:#000000;stroke-width:0.6;"/><text fill="#000000" font-family="sans-serif" font-size="7.8" lengthAdjust="spacing" textLength="23.4" x="435" y="241.7455">has an</text><text fill="#000000" font-family="sans-serif" font-size="7.8" lengthAdjust="spacing" textLength="4.2" x="267.6795" y="284.1449">1</text><text fill="#000000" font-family="sans-serif" font-size="7.8" lengthAdjust="spacing" textLength="4.2" x="624.3257" y="239.8228">1</text></g><!--link AdvertisementRequest to Agent--><g id="link_AdvertisementRequest_Agent"><path codeLine="101" d="M253.518,167.9884 C276.462,155.1544 318.06,133.5664 356.4,122.4844 C460.92,92.2684 593.628,86.1544 634.356,84.9604 " fill="none" id="AdvertisementRequest-Agent" style="stroke:#181818;stroke-width:0.6;"/><polygon fill="#000000" points="423.9689,87.8804,429.647,88.4473,428.8957,85.0015,423.9689,87.8804" style="stroke:#000000;stroke-width:0.6;"/><text fill="#000000" font-family="sans-serif" font-size="7.8" lengthAdjust="spacing" textLength="28.8" x="432.3" y="89.9455">analizes</text><text fill="#000000" font-family="sans-serif" font-size="7.8" lengthAdjust="spacing" textLength="3" x="256.5094" y="161.5797">*</text><text fill="#000000" font-family="sans-serif" font-size="7.8" lengthAdjust="spacing" textLength="4.2" x="625.5182" y="82.5009">1</text></g><!--link AdvertisementRequest to Property--><g id="link_AdvertisementRequest_Property"><path codeLine="102" d="M235.2,188.6044 C235.2,202.1044 235.2,226.4104 235.2,246.6004 " fill="none" id="AdvertisementRequest-Property" style="stroke:#181818;stroke-width:0.6;"/><polygon fill="#000000" points="210.3,220.7414,212.0634,215.3144,208.5366,215.3144,210.3,220.7414" style="stroke:#000000;stroke-width:0.6;"/><text fill="#000000" font-family="sans-serif" font-size="7.8" lengthAdjust="spacing" textLength="33.6" x="215.7" y="220.4455">describes</text><text fill="#000000" font-family="sans-serif" font-size="7.8" lengthAdjust="spacing" textLength="4.2" x="230.3569" y="200.1934">1</text><text fill="#000000" font-family="sans-serif" font-size="7.8" lengthAdjust="spacing" textLength="4.2" x="230.7178" y="240.1982">1</text></g><!--link AdvertisementRequest to Owner--><g id="link_AdvertisementRequest_Owner"><path codeLine="104" d="M279.786,183.7444 C371.316,195.1024 578.334,220.7884 633.228,227.5984 " fill="none" id="AdvertisementRequest-Owner" style="stroke:#181818;stroke-width:0.6;"/><polygon fill="#000000" points="424.5228,188.872,429.6915,191.2902,430.1257,187.7903,424.5228,188.872" style="stroke:#000000;stroke-width:0.6;"/><text fill="#000000" font-family="sans-serif" font-size="7.8" lengthAdjust="spacing" textLength="27.6" x="432.9" y="191.9455">submits</text><text fill="#000000" font-family="sans-serif" font-size="7.8" lengthAdjust="spacing" textLength="12" x="284.4494" y="191.7205">1..*</text><text fill="#000000" font-family="sans-serif" font-size="7.8" lengthAdjust="spacing" textLength="4.2" x="624.2481" y="235.4758">1</text></g><!--link Address to Property--><g id="link_Address_Property"><path codeLine="106" d="M83.172,280.2844 C115.926,280.2844 173.562,280.2844 207.498,280.2844 " fill="none" id="Address-Property" style="stroke:#181818;stroke-width:0.6;"/><polygon fill="#000000" points="129.6,275.6414,135.0271,277.4048,135.0271,273.8781,129.6,275.6414" style="stroke:#000000;stroke-width:0.6;"/><text fill="#000000" font-family="sans-serif" font-size="7.8" lengthAdjust="spacing" textLength="34.2" x="138" y="278.3455">located at</text><text fill="#000000" font-family="sans-serif" font-size="7.8" lengthAdjust="spacing" textLength="4.2" x="87.8766" y="288.0839">1</text><text fill="#000000" font-family="sans-serif" font-size="7.8" lengthAdjust="spacing" textLength="4.2" x="196.1508" y="288.0199">1</text></g><!--link Employee to CommonCharacteristicsPerson--><g id="link_Employee_CommonCharacteristicsPerson"><path codeLine="108" d="M477.828,160.6564 C497.952,165.1804 523.902,170.5804 547.2,174.0844 C613.818,184.0984 690.336,190.7944 744.804,194.7544 " fill="none" id="Employee-to-CommonCharacteristicsPerson" style="stroke:#181818;stroke-width:0.6;"/><polygon fill="none" points="745.278,190.5724,756.948,195.6124,744.678,198.9544,745.278,190.5724" style="stroke:#181818;stroke-width:0.6;"/></g><!--link Owner to CommonCharacteristicsPerson--><g id="link_Owner_CommonCharacteristicsPerson"><path codeLine="109" d="M661.536,226.8784 C679.794,223.6384 713.652,217.6264 745.11,212.0344 " fill="none" id="Owner-to-CommonCharacteristicsPerson" style="stroke:#181818;stroke-width:0.6;"/><polygon fill="none" points="744.462,207.8824,757.014,209.9224,745.932,216.1564,744.462,207.8824" style="stroke:#181818;stroke-width:0.6;"/></g><!--link SaleAdvertisementRequest to AdvertisementRequest--><g id="link_SaleAdvertisementRequest_AdvertisementRequest"><path codeLine="111" d="M111.096,166.5004 C132.378,168.5344 156.972,170.8804 178.584,172.9384 " fill="none" id="SaleAdvertisementRequest-to-AdvertisementRequest" style="stroke:#181818;stroke-width:0.6;"/><polygon fill="none" points="179.034,168.7624,190.584,174.0844,178.236,177.1264,179.034,168.7624" style="stroke:#181818;stroke-width:0.6;"/></g><!--link RentAdvertisementRequest to AdvertisementRequest--><g id="link_RentAdvertisementRequest_AdvertisementRequest"><path codeLine="112" d="M111.816,201.7144 C132.984,197.6704 157.344,193.0264 178.758,188.9404 " fill="none" id="RentAdvertisementRequest-to-AdvertisementRequest" style="stroke:#181818;stroke-width:0.6;"/><polygon fill="none" points="178.068,184.7944,190.644,186.6724,179.64,193.0444,178.068,184.7944" style="stroke:#181818;stroke-width:0.6;"/></g><!--reverse link Employee to Agent--><g id="link_Employee_Agent"><path codeLine="114" d="M489.078,137.2564 C536.058,121.5964 606.228,98.2084 634.416,88.8124 " fill="none" id="Employee-backto-Agent" style="stroke:#181818;stroke-width:0.6;"/><polygon fill="none" points="490.386,141.2524,477.672,141.0604,487.728,133.2784,490.386,141.2524" style="stroke:#181818;stroke-width:0.6;"/></g><!--link Employee to Organization--><g id="link_Employee_Organization"><path codeLine="115" d="M477.87,149.6584 C507.414,147.2344 551.106,143.6404 589.2,140.4844 C598.098,139.7464 607.776,138.9424 616.608,138.2044 " fill="none" id="Employee-Organization" style="stroke:#181818;stroke-width:0.6;"/><polygon fill="#000000" points="554.0898,135.5946,548.5361,134.2837,548.8263,137.7985,554.0898,135.5946" style="stroke:#000000;stroke-width:0.6;"/><text fill="#000000" font-family="sans-serif" font-size="7.8" lengthAdjust="spacing" textLength="31.2" x="556.5" y="138.5455">works for</text><text fill="#000000" font-family="sans-serif" font-size="7.8" lengthAdjust="spacing" textLength="3" x="482.327" y="156.909">*</text><text fill="#000000" font-family="sans-serif" font-size="7.8" lengthAdjust="spacing" textLength="4.2" x="607.7826" y="146.2359">1</text></g><!--SRC=[ZLHjJzim4FxkNt7gHpGGx6E5a3g6j4d041q_uEfS4ml73lO5A6F_VHSxJLDe6VcGnEVdpe-VUudtnZKOi8RQEw-hu6i23YsfEEmqgE-nf3clB44WpUXAEmR42Wl_P5m9IxIHbBAqP60FmPGLGs4w9-ET6lbeYp7Ec8DPj4m_jNTpyq9mh5Hb2W9jWfOpqdzDNFaYAiM6XS5tNwDnSEKBid0tFpx-gbIA1hEI7CCVzNTj-FNaA8mDi-AH0fj8TKQ2F0KoTGXSH0we6NP0R-cXfRWLUuwMzc2wgEmPxKqmcZOkjuBwm2M89NdSKBZoZgkDvm_VHkfXz6mYazFq3NEKRUkbNsPBRDt5S-DZ6tPTxzpNal7p2ZiR1N4sEiuaDzo579_dsdf1uHiLmViwZat8rLlR3GP9SJcNcg5inqSq5XUMBXvQqoI-xzdS1D-8BAkrUAk6idCWp4aIWYYtIuicoPh-Ai- -3DXKSIDMTpKJenHS7svfdgcOrRxjjPAZjF2GcjwPzoAGVBFhYsdEfT2oe1o8-1hhlDI6LyEYuoUi-BDAIuhZmC-DGaeJk7CCnNMICwk1pwCLIVNRdkHQ0qSzOD1WSajeBqGpfhlvR08epH1ATEO5UIFCsFLTxFStkQWRwrUqBWmncTA9ij9sUfLBsDkagVDCVVVxvP3T1FajkGMD3XO429VeYY_opGNd0yZ6K8MAN05TAAMs6tToC873GvYSJFgUdqBJBgo95KKuVGi-6S2ZofY28oeYdAcT7JbosjgV2cqjCx9pLFdi19NtqP6mIXDd2ZBEM7HBPCgFI1IqD2v76thWz5MGd-XFzPaUJi4oV3XWH2PFo2bKKY0Y_PdQ8yT1lcElzrImQALKtwczfLzwhq_jxXgrZFjUkzrUISGHjQcCiKLjaf9gtPe3VzY4bpjOhwNS2q3km4En7Xw-ddtKX2fhy5-OsZlna-kk7RLtukztsH1FgKjwRsoZoj_gvoay-N0VOIajTAR-0G00]--></g></svg>