<?xml version="1.0" encoding="us-ascii" standalone="no"?><svg xmlns="http://www.w3.org/2000/svg" xmlns:xlink="http://www.w3.org/1999/xlink" contentStyleType="text/css" height="1828.8px" preserveAspectRatio="none" style="width:2831px;height:1828px;background:#FFFFFF;" version="1.1" viewBox="0 0 2831 1828" width="2831.2px" zoomAndPan="magnify"><defs/><g><!--class StoreRepository--><g id="elem_StoreRepository"><rect codeLine="11" fill="#F1F1F1" height="112.8844" id="StoreRepository" rx="2" ry="2" style="stroke:#181818;stroke-width:0.4000000000000001;" width="362.4" x="510.8" y="375.2"/><ellipse cx="647.8" cy="388" fill="#ADD1B2" rx="8.8" ry="8.8" style="stroke:#181818;stroke-width:0.8000000000000002;"/><path d="M650.0125,384.7 Q650.1375,384.525 650.2875,384.4375 Q650.4375,384.35 650.6125,384.35 Q650.9125,384.35 651.1,384.5625 Q651.2875,384.7625 651.2875,385.25 L651.2875,386.4125 Q651.2875,386.9 651.1,387.1125 Q650.9125,387.325 650.6125,387.325 Q650.3375,387.325 650.175,387.1625 Q650.0125,387.0125 649.925,386.6 Q649.8875,386.3125 649.7375,386.1625 Q649.475,385.8625 648.9875,385.6875 Q648.5,385.5125 648,385.5125 Q647.3875,385.5125 646.875,385.775 Q646.375,386.0375 645.975,386.6375 Q645.5875,387.2375 645.5875,388.0625 L645.5875,388.9375 Q645.5875,389.925 646.3,390.5875 Q647.0125,391.2375 648.2875,391.2375 Q649.0375,391.2375 649.5625,391.0375 Q649.875,390.9125 650.2125,390.5625 Q650.425,390.35 650.5375,390.2875 Q650.6625,390.225 650.825,390.225 Q651.0875,390.225 651.2875,390.4375 Q651.5,390.6375 651.5,390.9125 Q651.5,391.1875 651.225,391.5125 Q650.825,391.975 650.1875,392.2375 Q649.325,392.6 648.2875,392.6 Q647.075,392.6 646.1125,392.1 Q645.325,391.7 644.775,390.85 Q644.225,389.9875 644.225,388.9625 L644.225,388.0375 Q644.225,386.975 644.7125,386.0625 Q645.2125,385.1375 646.0875,384.65 Q646.9625,384.15 647.95,384.15 Q648.5375,384.15 649.05,384.2875 Q649.575,384.4125 650.0125,384.7 Z " fill="#000000"/><text fill="#000000" font-family="sans-serif" font-size="11.2" lengthAdjust="spacing" textLength="81.6" x="664.2" y="392.6375">StoreRepository</text><line style="stroke:#181818;stroke-width:0.4000000000000001;" x1="511.6" x2="872.4" y1="400.8" y2="400.8"/><text fill="#000000" font-family="sans-serif" font-size="11.2" lengthAdjust="spacing" textLength="116.8" x="515.6" y="416.0859">-storesList: List&lt;Store&gt;</text><line style="stroke:#181818;stroke-width:0.4000000000000001;" x1="511.6" x2="872.4" y1="422.0969" y2="422.0969"/><text fill="#000000" font-family="sans-serif" font-size="11.2" lengthAdjust="spacing" textLength="80.8" x="515.6" y="437.3828">+getStoresList()</text><text fill="#000000" font-family="sans-serif" font-size="11.2" lengthAdjust="spacing" textLength="352.8" x="515.6" y="452.2797">+registerStore(address, id, phoneNumber, designation, emailAddress)</text><text fill="#000000" font-family="sans-serif" font-size="11.2" lengthAdjust="spacing" textLength="79.2" x="515.6" y="467.1766">+validate(store)</text><text fill="#000000" font-family="sans-serif" font-size="11.2" lengthAdjust="spacing" textLength="86.4" x="515.6" y="482.0734">+addStore(store)</text></g><!--class PropertyRepository--><g id="elem_PropertyRepository"><rect codeLine="19" fill="#F1F1F1" height="261.8531" id="PropertyRepository" rx="2" ry="2" style="stroke:#181818;stroke-width:0.4000000000000001;" width="1018.4" x="1384.4" y="300.8"/><ellipse cx="1841.4" cy="313.6" fill="#ADD1B2" rx="8.8" ry="8.8" style="stroke:#181818;stroke-width:0.8000000000000002;"/><path d="M1843.6125,310.3 Q1843.7375,310.125 1843.8875,310.0375 Q1844.0375,309.95 1844.2125,309.95 Q1844.5125,309.95 1844.7,310.1625 Q1844.8875,310.3625 1844.8875,310.85 L1844.8875,312.0125 Q1844.8875,312.5 1844.7,312.7125 Q1844.5125,312.925 1844.2125,312.925 Q1843.9375,312.925 1843.775,312.7625 Q1843.6125,312.6125 1843.525,312.2 Q1843.4875,311.9125 1843.3375,311.7625 Q1843.075,311.4625 1842.5875,311.2875 Q1842.1,311.1125 1841.6,311.1125 Q1840.9875,311.1125 1840.475,311.375 Q1839.975,311.6375 1839.575,312.2375 Q1839.1875,312.8375 1839.1875,313.6625 L1839.1875,314.5375 Q1839.1875,315.525 1839.9,316.1875 Q1840.6125,316.8375 1841.8875,316.8375 Q1842.6375,316.8375 1843.1625,316.6375 Q1843.475,316.5125 1843.8125,316.1625 Q1844.025,315.95 1844.1375,315.8875 Q1844.2625,315.825 1844.425,315.825 Q1844.6875,315.825 1844.8875,316.0375 Q1845.1,316.2375 1845.1,316.5125 Q1845.1,316.7875 1844.825,317.1125 Q1844.425,317.575 1843.7875,317.8375 Q1842.925,318.2 1841.8875,318.2 Q1840.675,318.2 1839.7125,317.7 Q1838.925,317.3 1838.375,316.45 Q1837.825,315.5875 1837.825,314.5625 L1837.825,313.6375 Q1837.825,312.575 1838.3125,311.6625 Q1838.8125,310.7375 1839.6875,310.25 Q1840.5625,309.75 1841.55,309.75 Q1842.1375,309.75 1842.65,309.8875 Q1843.175,310.0125 1843.6125,310.3 Z " fill="#000000"/><text fill="#000000" font-family="sans-serif" font-size="11.2" lengthAdjust="spacing" textLength="97.6" x="1857.8" y="318.2375">PropertyRepository</text><line style="stroke:#181818;stroke-width:0.4000000000000001;" x1="1385.2" x2="2402" y1="326.4" y2="326.4"/><text fill="#000000" font-family="sans-serif" font-size="11.2" lengthAdjust="spacing" textLength="135.2" x="1389.2" y="341.6859">-properties: List&lt;Property&gt;</text><text fill="#000000" font-family="sans-serif" font-size="11.2" lengthAdjust="spacing" textLength="149.6" x="1389.2" y="356.5828">-residences: List&lt;Residence&gt;</text><text fill="#000000" font-family="sans-serif" font-size="11.2" lengthAdjust="spacing" textLength="109.6" x="1389.2" y="371.4797">-houses: List&lt;House&gt;</text><line style="stroke:#181818;stroke-width:0.4000000000000001;" x1="1385.2" x2="2402" y1="377.4906" y2="377.4906"/><text fill="#000000" font-family="sans-serif" font-size="11.2" lengthAdjust="spacing" textLength="82.4" x="1389.2" y="392.7766">+getProperties()</text><text fill="#000000" font-family="sans-serif" font-size="11.2" lengthAdjust="spacing" textLength="89.6" x="1389.2" y="407.6734">+getResidences()</text><text fill="#000000" font-family="sans-serif" font-size="11.2" lengthAdjust="spacing" textLength="68" x="1389.2" y="422.5703">+getHouses()</text><text fill="#000000" font-family="sans-serif" font-size="11.2" lengthAdjust="spacing" textLength="139.2" x="1389.2" y="437.4672">+validateProperty(property)</text><text fill="#000000" font-family="sans-serif" font-size="11.2" lengthAdjust="spacing" textLength="156.8" x="1389.2" y="452.3641">+validateResidence(residence)</text><text fill="#000000" font-family="sans-serif" font-size="11.2" lengthAdjust="spacing" textLength="116.8" x="1389.2" y="467.2609">+validateHouse(house)</text><text fill="#000000" font-family="sans-serif" font-size="11.2" lengthAdjust="spacing" textLength="119.2" x="1389.2" y="482.1578">+addProperty(property)</text><text fill="#000000" font-family="sans-serif" font-size="11.2" lengthAdjust="spacing" textLength="136.8" x="1389.2" y="497.0547">+addResidence(residence)</text><text fill="#000000" font-family="sans-serif" font-size="11.2" lengthAdjust="spacing" textLength="96.8" x="1389.2" y="511.9516">+addHouse(house)</text><text fill="#000000" font-family="sans-serif" font-size="11.2" lengthAdjust="spacing" textLength="350.4" x="1389.2" y="526.8484">+createProperty(area, distanceFromCity, photograph, address, price)</text><text fill="#000000" font-family="sans-serif" font-size="11.2" lengthAdjust="spacing" textLength="781.6" x="1389.2" y="541.7453">+createResidence(area, distanceFromCity, price, photograph, address, numberBedrooms, numberBathrooms, numberParkingSpaces, availableEquipment)</text><text fill="#000000" font-family="sans-serif" font-size="11.2" lengthAdjust="spacing" textLength="1008.8" x="1389.2" y="556.6422">+createHouse(area, distanceFromCity, price, photograph, address, numberBedrooms, numberBathrooms, numberParkingSpaces, availableEquipment, existenceBasement, existenceLoft, sunExposure)</text></g><!--class AdvertisementRequest--><g id="elem_AdvertisementRequest"><rect codeLine="38" fill="#F1F1F1" height="217.1625" id="AdvertisementRequest" rx="2" ry="2" style="stroke:#181818;stroke-width:0.4000000000000001;" width="392.8" x="227.6" y="1430.4"/><ellipse cx="363.4" cy="1443.2" fill="#ADD1B2" rx="8.8" ry="8.8" style="stroke:#181818;stroke-width:0.8000000000000002;"/><path d="M365.6125,1439.9 Q365.7375,1439.725 365.8875,1439.6375 Q366.0375,1439.55 366.2125,1439.55 Q366.5125,1439.55 366.7,1439.7625 Q366.8875,1439.9625 366.8875,1440.45 L366.8875,1441.6125 Q366.8875,1442.1 366.7,1442.3125 Q366.5125,1442.525 366.2125,1442.525 Q365.9375,1442.525 365.775,1442.3625 Q365.6125,1442.2125 365.525,1441.8 Q365.4875,1441.5125 365.3375,1441.3625 Q365.075,1441.0625 364.5875,1440.8875 Q364.1,1440.7125 363.6,1440.7125 Q362.9875,1440.7125 362.475,1440.975 Q361.975,1441.2375 361.575,1441.8375 Q361.1875,1442.4375 361.1875,1443.2625 L361.1875,1444.1375 Q361.1875,1445.125 361.9,1445.7875 Q362.6125,1446.4375 363.8875,1446.4375 Q364.6375,1446.4375 365.1625,1446.2375 Q365.475,1446.1125 365.8125,1445.7625 Q366.025,1445.55 366.1375,1445.4875 Q366.2625,1445.425 366.425,1445.425 Q366.6875,1445.425 366.8875,1445.6375 Q367.1,1445.8375 367.1,1446.1125 Q367.1,1446.3875 366.825,1446.7125 Q366.425,1447.175 365.7875,1447.4375 Q364.925,1447.8 363.8875,1447.8 Q362.675,1447.8 361.7125,1447.3 Q360.925,1446.9 360.375,1446.05 Q359.825,1445.1875 359.825,1444.1625 L359.825,1443.2375 Q359.825,1442.175 360.3125,1441.2625 Q360.8125,1440.3375 361.6875,1439.85 Q362.5625,1439.35 363.55,1439.35 Q364.1375,1439.35 364.65,1439.4875 Q365.175,1439.6125 365.6125,1439.9 Z " fill="#000000"/><text fill="#000000" font-family="sans-serif" font-size="11.2" lengthAdjust="spacing" textLength="114.4" x="379.8" y="1447.8375">AdvertisementRequest</text><line style="stroke:#181818;stroke-width:0.4000000000000001;" x1="228.4" x2="619.6" y1="1456" y2="1456"/><text fill="#000000" font-family="sans-serif" font-size="11.2" lengthAdjust="spacing" textLength="63.2" x="232.4" y="1471.2859">-store: Store</text><text fill="#000000" font-family="sans-serif" font-size="11.2" lengthAdjust="spacing" textLength="88.8" x="232.4" y="1486.1828">-agent: Employee</text><text fill="#000000" font-family="sans-serif" font-size="11.2" lengthAdjust="spacing" textLength="96" x="232.4" y="1501.0797">-property: Property</text><text fill="#000000" font-family="sans-serif" font-size="11.2" lengthAdjust="spacing" textLength="147.2" x="232.4" y="1515.9766">-propertyType: PropertyType</text><text fill="#000000" font-family="sans-serif" font-size="11.2" lengthAdjust="spacing" textLength="142.4" x="232.4" y="1530.8734">-requestType: RequestType</text><line style="stroke:#181818;stroke-width:0.4000000000000001;" x1="228.4" x2="619.6" y1="1536.8844" y2="1536.8844"/><text fill="#000000" font-family="sans-serif" font-size="11.2" lengthAdjust="spacing" textLength="383.2" x="232.4" y="1552.1703">+AdvertisementRequest(store, agent, property, propertyType, requestType)</text><text fill="#000000" font-family="sans-serif" font-size="11.2" lengthAdjust="spacing" textLength="73.6" x="232.4" y="1567.0672">+getProperty()</text><text fill="#000000" font-family="sans-serif" font-size="11.2" lengthAdjust="spacing" textLength="57.6" x="232.4" y="1581.9641">+getStore()</text><text fill="#000000" font-family="sans-serif" font-size="11.2" lengthAdjust="spacing" textLength="60" x="232.4" y="1596.8609">+getAgent()</text><text fill="#000000" font-family="sans-serif" font-size="11.2" lengthAdjust="spacing" textLength="73.6" x="232.4" y="1611.7578">+getProperty()</text><text fill="#000000" font-family="sans-serif" font-size="11.2" lengthAdjust="spacing" textLength="99.2" x="232.4" y="1626.6547">+getPropertyType()</text><text fill="#000000" font-family="sans-serif" font-size="11.2" lengthAdjust="spacing" textLength="98.4" x="232.4" y="1641.5516">+getRequestType()</text></g><!--class AgentListRepository--><g id="elem_AgentListRepository"><rect codeLine="53" fill="#F1F1F1" height="83.0906" id="AgentListRepository" rx="2" ry="2" style="stroke:#181818;stroke-width:0.4000000000000001;" width="127.2" x="1229.2" y="390"/><ellipse cx="1241.2" cy="402.8" fill="#ADD1B2" rx="8.8" ry="8.8" style="stroke:#181818;stroke-width:0.8000000000000002;"/><path d="M1243.4125,399.5 Q1243.5375,399.325 1243.6875,399.2375 Q1243.8375,399.15 1244.0125,399.15 Q1244.3125,399.15 1244.5,399.3625 Q1244.6875,399.5625 1244.6875,400.05 L1244.6875,401.2125 Q1244.6875,401.7 1244.5,401.9125 Q1244.3125,402.125 1244.0125,402.125 Q1243.7375,402.125 1243.575,401.9625 Q1243.4125,401.8125 1243.325,401.4 Q1243.2875,401.1125 1243.1375,400.9625 Q1242.875,400.6625 1242.3875,400.4875 Q1241.9,400.3125 1241.4,400.3125 Q1240.7875,400.3125 1240.275,400.575 Q1239.775,400.8375 1239.375,401.4375 Q1238.9875,402.0375 1238.9875,402.8625 L1238.9875,403.7375 Q1238.9875,404.725 1239.7,405.3875 Q1240.4125,406.0375 1241.6875,406.0375 Q1242.4375,406.0375 1242.9625,405.8375 Q1243.275,405.7125 1243.6125,405.3625 Q1243.825,405.15 1243.9375,405.0875 Q1244.0625,405.025 1244.225,405.025 Q1244.4875,405.025 1244.6875,405.2375 Q1244.9,405.4375 1244.9,405.7125 Q1244.9,405.9875 1244.625,406.3125 Q1244.225,406.775 1243.5875,407.0375 Q1242.725,407.4 1241.6875,407.4 Q1240.475,407.4 1239.5125,406.9 Q1238.725,406.5 1238.175,405.65 Q1237.625,404.7875 1237.625,403.7625 L1237.625,402.8375 Q1237.625,401.775 1238.1125,400.8625 Q1238.6125,399.9375 1239.4875,399.45 Q1240.3625,398.95 1241.35,398.95 Q1241.9375,398.95 1242.45,399.0875 Q1242.975,399.2125 1243.4125,399.5 Z " fill="#000000"/><text fill="#000000" font-family="sans-serif" font-size="11.2" lengthAdjust="spacing" textLength="101.6" x="1252.4" y="407.4375">AgentListRepository</text><line style="stroke:#181818;stroke-width:0.4000000000000001;" x1="1230" x2="1355.6" y1="415.6" y2="415.6"/><text fill="#000000" font-family="sans-serif" font-size="11.2" lengthAdjust="spacing" textLength="116.8" x="1234" y="430.8859">-agentList: List&lt;Agent&gt;</text><line style="stroke:#181818;stroke-width:0.4000000000000001;" x1="1230" x2="1355.6" y1="436.8969" y2="436.8969"/><text fill="#000000" font-family="sans-serif" font-size="11.2" lengthAdjust="spacing" textLength="92" x="1234" y="452.1828">+addAgent(agent)</text><text fill="#000000" font-family="sans-serif" font-size="11.2" lengthAdjust="spacing" textLength="60" x="1234" y="467.0797">+getAgent()</text></g><!--class AdvertisementRequestRepository--><g id="elem_AdvertisementRequestRepository"><rect codeLine="59" fill="#F1F1F1" height="112.8844" id="AdvertisementRequestRepository" rx="2" ry="2" style="stroke:#181818;stroke-width:0.4000000000000001;" width="427.2" x="248.8" y="586.4"/><ellipse cx="374.6" cy="599.2" fill="#ADD1B2" rx="8.8" ry="8.8" style="stroke:#181818;stroke-width:0.8000000000000002;"/><path d="M376.8125,595.9 Q376.9375,595.725 377.0875,595.6375 Q377.2375,595.55 377.4125,595.55 Q377.7125,595.55 377.9,595.7625 Q378.0875,595.9625 378.0875,596.45 L378.0875,597.6125 Q378.0875,598.1 377.9,598.3125 Q377.7125,598.525 377.4125,598.525 Q377.1375,598.525 376.975,598.3625 Q376.8125,598.2125 376.725,597.8 Q376.6875,597.5125 376.5375,597.3625 Q376.275,597.0625 375.7875,596.8875 Q375.3,596.7125 374.8,596.7125 Q374.1875,596.7125 373.675,596.975 Q373.175,597.2375 372.775,597.8375 Q372.3875,598.4375 372.3875,599.2625 L372.3875,600.1375 Q372.3875,601.125 373.1,601.7875 Q373.8125,602.4375 375.0875,602.4375 Q375.8375,602.4375 376.3625,602.2375 Q376.675,602.1125 377.0125,601.7625 Q377.225,601.55 377.3375,601.4875 Q377.4625,601.425 377.625,601.425 Q377.8875,601.425 378.0875,601.6375 Q378.3,601.8375 378.3,602.1125 Q378.3,602.3875 378.025,602.7125 Q377.625,603.175 376.9875,603.4375 Q376.125,603.8 375.0875,603.8 Q373.875,603.8 372.9125,603.3 Q372.125,602.9 371.575,602.05 Q371.025,601.1875 371.025,600.1625 L371.025,599.2375 Q371.025,598.175 371.5125,597.2625 Q372.0125,596.3375 372.8875,595.85 Q373.7625,595.35 374.75,595.35 Q375.3375,595.35 375.85,595.4875 Q376.375,595.6125 376.8125,595.9 Z " fill="#000000"/><text fill="#000000" font-family="sans-serif" font-size="11.2" lengthAdjust="spacing" textLength="168.8" x="391" y="603.8375">AdvertisementRequestRepository</text><line style="stroke:#181818;stroke-width:0.4000000000000001;" x1="249.6" x2="675.2" y1="612" y2="612"/><text fill="#000000" font-family="sans-serif" font-size="11.2" lengthAdjust="spacing" textLength="274.4" x="253.6" y="627.2859">-advertisementRequests: List&lt;AdvertisementRequest&gt;</text><line style="stroke:#181818;stroke-width:0.4000000000000001;" x1="249.6" x2="675.2" y1="633.2969" y2="633.2969"/><text fill="#000000" font-family="sans-serif" font-size="11.2" lengthAdjust="spacing" textLength="150.4" x="253.6" y="648.5828">+getAdvertisementRequests()</text><text fill="#000000" font-family="sans-serif" font-size="11.2" lengthAdjust="spacing" textLength="281.6" x="253.6" y="663.4797">+validateAdvertisementRequest(advertisementRequest)</text><text fill="#000000" font-family="sans-serif" font-size="11.2" lengthAdjust="spacing" textLength="261.6" x="253.6" y="678.3766">+addAdvertisementRequest(advertisementRequest)</text><text fill="#000000" font-family="sans-serif" font-size="11.2" lengthAdjust="spacing" textLength="417.6" x="253.6" y="693.2734">+createRequest(emailAddress, store, agent, property, propertyType, requestType)</text></g><!--class Agent--><g id="elem_Agent"><rect codeLine="67" fill="#F1F1F1" height="68.1938" id="Agent" rx="2" ry="2" style="stroke:#181818;stroke-width:0.4000000000000001;" width="72.8" x="1290.8" y="608.8"/><ellipse cx="1310.72" cy="621.6" fill="#ADD1B2" rx="8.8" ry="8.8" style="stroke:#181818;stroke-width:0.8000000000000002;"/><path d="M1312.9325,618.3 Q1313.0575,618.125 1313.2075,618.0375 Q1313.3575,617.95 1313.5325,617.95 Q1313.8325,617.95 1314.02,618.1625 Q1314.2075,618.3625 1314.2075,618.85 L1314.2075,620.0125 Q1314.2075,620.5 1314.02,620.7125 Q1313.8325,620.925 1313.5325,620.925 Q1313.2575,620.925 1313.095,620.7625 Q1312.9325,620.6125 1312.845,620.2 Q1312.8075,619.9125 1312.6575,619.7625 Q1312.395,619.4625 1311.9075,619.2875 Q1311.42,619.1125 1310.92,619.1125 Q1310.3075,619.1125 1309.795,619.375 Q1309.295,619.6375 1308.895,620.2375 Q1308.5075,620.8375 1308.5075,621.6625 L1308.5075,622.5375 Q1308.5075,623.525 1309.22,624.1875 Q1309.9325,624.8375 1311.2075,624.8375 Q1311.9575,624.8375 1312.4825,624.6375 Q1312.795,624.5125 1313.1325,624.1625 Q1313.345,623.95 1313.4575,623.8875 Q1313.5825,623.825 1313.745,623.825 Q1314.0075,623.825 1314.2075,624.0375 Q1314.42,624.2375 1314.42,624.5125 Q1314.42,624.7875 1314.145,625.1125 Q1313.745,625.575 1313.1075,625.8375 Q1312.245,626.2 1311.2075,626.2 Q1309.995,626.2 1309.0325,625.7 Q1308.245,625.3 1307.695,624.45 Q1307.145,623.5875 1307.145,622.5625 L1307.145,621.6375 Q1307.145,620.575 1307.6325,619.6625 Q1308.1325,618.7375 1309.0075,618.25 Q1309.8825,617.75 1310.87,617.75 Q1311.4575,617.75 1311.97,617.8875 Q1312.495,618.0125 1312.9325,618.3 Z " fill="#000000"/><text fill="#000000" font-family="sans-serif" font-size="11.2" lengthAdjust="spacing" textLength="29.6" x="1323.68" y="626.2375">Agent</text><line style="stroke:#181818;stroke-width:0.4000000000000001;" x1="1291.6" x2="1362.8" y1="634.4" y2="634.4"/><text fill="#000000" font-family="sans-serif" font-size="11.2" lengthAdjust="spacing" textLength="63.2" x="1295.6" y="649.6859">-store: Store</text><line style="stroke:#181818;stroke-width:0.4000000000000001;" x1="1291.6" x2="1362.8" y1="655.6969" y2="655.6969"/><text fill="#000000" font-family="sans-serif" font-size="11.2" lengthAdjust="spacing" textLength="57.6" x="1295.6" y="670.9828">+getStore()</text></g><!--class Client--><g id="elem_Client"><rect codeLine="72" fill="#F1F1F1" height="68.1938" id="Client" rx="2" ry="2" style="stroke:#181818;stroke-width:0.4000000000000001;" width="407.2" x="523.6" y="1232"/><ellipse cx="709.4" cy="1244.8" fill="#ADD1B2" rx="8.8" ry="8.8" style="stroke:#181818;stroke-width:0.8000000000000002;"/><path d="M711.6125,1241.5 Q711.7375,1241.325 711.8875,1241.2375 Q712.0375,1241.15 712.2125,1241.15 Q712.5125,1241.15 712.7,1241.3625 Q712.8875,1241.5625 712.8875,1242.05 L712.8875,1243.2125 Q712.8875,1243.7 712.7,1243.9125 Q712.5125,1244.125 712.2125,1244.125 Q711.9375,1244.125 711.775,1243.9625 Q711.6125,1243.8125 711.525,1243.4 Q711.4875,1243.1125 711.3375,1242.9625 Q711.075,1242.6625 710.5875,1242.4875 Q710.1,1242.3125 709.6,1242.3125 Q708.9875,1242.3125 708.475,1242.575 Q707.975,1242.8375 707.575,1243.4375 Q707.1875,1244.0375 707.1875,1244.8625 L707.1875,1245.7375 Q707.1875,1246.725 707.9,1247.3875 Q708.6125,1248.0375 709.8875,1248.0375 Q710.6375,1248.0375 711.1625,1247.8375 Q711.475,1247.7125 711.8125,1247.3625 Q712.025,1247.15 712.1375,1247.0875 Q712.2625,1247.025 712.425,1247.025 Q712.6875,1247.025 712.8875,1247.2375 Q713.1,1247.4375 713.1,1247.7125 Q713.1,1247.9875 712.825,1248.3125 Q712.425,1248.775 711.7875,1249.0375 Q710.925,1249.4 709.8875,1249.4 Q708.675,1249.4 707.7125,1248.9 Q706.925,1248.5 706.375,1247.65 Q705.825,1246.7875 705.825,1245.7625 L705.825,1244.8375 Q705.825,1243.775 706.3125,1242.8625 Q706.8125,1241.9375 707.6875,1241.45 Q708.5625,1240.95 709.55,1240.95 Q710.1375,1240.95 710.65,1241.0875 Q711.175,1241.2125 711.6125,1241.5 Z " fill="#000000"/><text fill="#000000" font-family="sans-serif" font-size="11.2" lengthAdjust="spacing" textLength="28.8" x="725.8" y="1249.4375">Client</text><line style="stroke:#181818;stroke-width:0.4000000000000001;" x1="524.4" x2="930" y1="1257.6" y2="1257.6"/><line style="stroke:#181818;stroke-width:0.4000000000000001;" x1="524.4" x2="930" y1="1264" y2="1264"/><text fill="#000000" font-family="sans-serif" font-size="11.2" lengthAdjust="spacing" textLength="397.6" x="528.4" y="1279.2859">+Client(name, passportCardNumber, taxNumber, emailAddress, phoneNumber)</text><text fill="#000000" font-family="sans-serif" font-size="11.2" lengthAdjust="spacing" textLength="180" x="528.4" y="1294.1828">+anyOwnerHasEmail(emailAddress)</text></g><!--class AvailableEquipment--><g id="elem_AvailableEquipment"><rect codeLine="77" fill="#F1F1F1" height="112.8844" id="AvailableEquipment" rx="2" ry="2" style="stroke:#181818;stroke-width:0.4000000000000001;" width="278.4" x="2110.4" y="1710.4"/><ellipse cx="2196.6" cy="1723.2" fill="#ADD1B2" rx="8.8" ry="8.8" style="stroke:#181818;stroke-width:0.8000000000000002;"/><path d="M2198.8125,1719.9 Q2198.9375,1719.725 2199.0875,1719.6375 Q2199.2375,1719.55 2199.4125,1719.55 Q2199.7125,1719.55 2199.9,1719.7625 Q2200.0875,1719.9625 2200.0875,1720.45 L2200.0875,1721.6125 Q2200.0875,1722.1 2199.9,1722.3125 Q2199.7125,1722.525 2199.4125,1722.525 Q2199.1375,1722.525 2198.975,1722.3625 Q2198.8125,1722.2125 2198.725,1721.8 Q2198.6875,1721.5125 2198.5375,1721.3625 Q2198.275,1721.0625 2197.7875,1720.8875 Q2197.3,1720.7125 2196.8,1720.7125 Q2196.1875,1720.7125 2195.675,1720.975 Q2195.175,1721.2375 2194.775,1721.8375 Q2194.3875,1722.4375 2194.3875,1723.2625 L2194.3875,1724.1375 Q2194.3875,1725.125 2195.1,1725.7875 Q2195.8125,1726.4375 2197.0875,1726.4375 Q2197.8375,1726.4375 2198.3625,1726.2375 Q2198.675,1726.1125 2199.0125,1725.7625 Q2199.225,1725.55 2199.3375,1725.4875 Q2199.4625,1725.425 2199.625,1725.425 Q2199.8875,1725.425 2200.0875,1725.6375 Q2200.3,1725.8375 2200.3,1726.1125 Q2200.3,1726.3875 2200.025,1726.7125 Q2199.625,1727.175 2198.9875,1727.4375 Q2198.125,1727.8 2197.0875,1727.8 Q2195.875,1727.8 2194.9125,1727.3 Q2194.125,1726.9 2193.575,1726.05 Q2193.025,1725.1875 2193.025,1724.1625 L2193.025,1723.2375 Q2193.025,1722.175 2193.5125,1721.2625 Q2194.0125,1720.3375 2194.8875,1719.85 Q2195.7625,1719.35 2196.75,1719.35 Q2197.3375,1719.35 2197.85,1719.4875 Q2198.375,1719.6125 2198.8125,1719.9 Z " fill="#000000"/><text fill="#000000" font-family="sans-serif" font-size="11.2" lengthAdjust="spacing" textLength="99.2" x="2213" y="1727.8375">AvailableEquipment</text><line style="stroke:#181818;stroke-width:0.4000000000000001;" x1="2111.2" x2="2388" y1="1736" y2="1736"/><text fill="#000000" font-family="sans-serif" font-size="11.2" lengthAdjust="spacing" textLength="98.4" x="2115.2" y="1751.2859">-airConditioning: Int</text><text fill="#000000" font-family="sans-serif" font-size="11.2" lengthAdjust="spacing" textLength="95.2" x="2115.2" y="1766.1828">-centralHeating: Int</text><line style="stroke:#181818;stroke-width:0.4000000000000001;" x1="2111.2" x2="2388" y1="1772.1938" y2="1772.1938"/><text fill="#000000" font-family="sans-serif" font-size="11.2" lengthAdjust="spacing" textLength="268.8" x="2115.2" y="1787.4797">+AvailableEquipment(airConditioning, centralHeating)</text><text fill="#000000" font-family="sans-serif" font-size="11.2" lengthAdjust="spacing" textLength="107.2" x="2115.2" y="1802.3766">+getAirConditioning()</text><text fill="#000000" font-family="sans-serif" font-size="11.2" lengthAdjust="spacing" textLength="105.6" x="2115.2" y="1817.2734">+getCentralHeating()</text></g><!--class AddressRepository--><g id="elem_AddressRepository"><rect codeLine="85" fill="#F1F1F1" height="83.0906" id="AddressRepository" rx="2" ry="2" style="stroke:#181818;stroke-width:0.4000000000000001;" width="300" x="901.2" y="390"/><ellipse cx="999.8" cy="402.8" fill="#ADD1B2" rx="8.8" ry="8.8" style="stroke:#181818;stroke-width:0.8000000000000002;"/><path d="M1002.0125,399.5 Q1002.1375,399.325 1002.2875,399.2375 Q1002.4375,399.15 1002.6125,399.15 Q1002.9125,399.15 1003.1,399.3625 Q1003.2875,399.5625 1003.2875,400.05 L1003.2875,401.2125 Q1003.2875,401.7 1003.1,401.9125 Q1002.9125,402.125 1002.6125,402.125 Q1002.3375,402.125 1002.175,401.9625 Q1002.0125,401.8125 1001.925,401.4 Q1001.8875,401.1125 1001.7375,400.9625 Q1001.475,400.6625 1000.9875,400.4875 Q1000.5,400.3125 1000,400.3125 Q999.3875,400.3125 998.875,400.575 Q998.375,400.8375 997.975,401.4375 Q997.5875,402.0375 997.5875,402.8625 L997.5875,403.7375 Q997.5875,404.725 998.3,405.3875 Q999.0125,406.0375 1000.2875,406.0375 Q1001.0375,406.0375 1001.5625,405.8375 Q1001.875,405.7125 1002.2125,405.3625 Q1002.425,405.15 1002.5375,405.0875 Q1002.6625,405.025 1002.825,405.025 Q1003.0875,405.025 1003.2875,405.2375 Q1003.5,405.4375 1003.5,405.7125 Q1003.5,405.9875 1003.225,406.3125 Q1002.825,406.775 1002.1875,407.0375 Q1001.325,407.4 1000.2875,407.4 Q999.075,407.4 998.1125,406.9 Q997.325,406.5 996.775,405.65 Q996.225,404.7875 996.225,403.7625 L996.225,402.8375 Q996.225,401.775 996.7125,400.8625 Q997.2125,399.9375 998.0875,399.45 Q998.9625,398.95 999.95,398.95 Q1000.5375,398.95 1001.05,399.0875 Q1001.575,399.2125 1002.0125,399.5 Z " fill="#000000"/><text fill="#000000" font-family="sans-serif" font-size="11.2" lengthAdjust="spacing" textLength="96" x="1016.2" y="407.4375">AddressRepository</text><line style="stroke:#181818;stroke-width:0.4000000000000001;" x1="902" x2="1200.4" y1="415.6" y2="415.6"/><line style="stroke:#181818;stroke-width:0.4000000000000001;" x1="902" x2="1200.4" y1="422" y2="422"/><text fill="#000000" font-family="sans-serif" font-size="11.2" lengthAdjust="spacing" textLength="290.4" x="906" y="437.2859">+registerAddress(streetName, cityName, zipCode, district)</text><text fill="#000000" font-family="sans-serif" font-size="11.2" lengthAdjust="spacing" textLength="116" x="906" y="452.1828">+addAddress(address)</text><text fill="#000000" font-family="sans-serif" font-size="11.2" lengthAdjust="spacing" textLength="136" x="906" y="467.0797">+validateAddress(address)</text></g><!--class Store--><g id="elem_Store"><rect codeLine="91" fill="#F1F1F1" height="112.8844" id="Store" rx="2" ry="2" style="stroke:#181818;stroke-width:0.4000000000000001;" width="324" x="526" y="753.2"/><ellipse cx="671" cy="766" fill="#ADD1B2" rx="8.8" ry="8.8" style="stroke:#181818;stroke-width:0.8000000000000002;"/><path d="M673.2125,762.7 Q673.3375,762.525 673.4875,762.4375 Q673.6375,762.35 673.8125,762.35 Q674.1125,762.35 674.3,762.5625 Q674.4875,762.7625 674.4875,763.25 L674.4875,764.4125 Q674.4875,764.9 674.3,765.1125 Q674.1125,765.325 673.8125,765.325 Q673.5375,765.325 673.375,765.1625 Q673.2125,765.0125 673.125,764.6 Q673.0875,764.3125 672.9375,764.1625 Q672.675,763.8625 672.1875,763.6875 Q671.7,763.5125 671.2,763.5125 Q670.5875,763.5125 670.075,763.775 Q669.575,764.0375 669.175,764.6375 Q668.7875,765.2375 668.7875,766.0625 L668.7875,766.9375 Q668.7875,767.925 669.5,768.5875 Q670.2125,769.2375 671.4875,769.2375 Q672.2375,769.2375 672.7625,769.0375 Q673.075,768.9125 673.4125,768.5625 Q673.625,768.35 673.7375,768.2875 Q673.8625,768.225 674.025,768.225 Q674.2875,768.225 674.4875,768.4375 Q674.7,768.6375 674.7,768.9125 Q674.7,769.1875 674.425,769.5125 Q674.025,769.975 673.3875,770.2375 Q672.525,770.6 671.4875,770.6 Q670.275,770.6 669.3125,770.1 Q668.525,769.7 667.975,768.85 Q667.425,767.9875 667.425,766.9625 L667.425,766.0375 Q667.425,764.975 667.9125,764.0625 Q668.4125,763.1375 669.2875,762.65 Q670.1625,762.15 671.15,762.15 Q671.7375,762.15 672.25,762.2875 Q672.775,762.4125 673.2125,762.7 Z " fill="#000000"/><text fill="#000000" font-family="sans-serif" font-size="11.2" lengthAdjust="spacing" textLength="27.2" x="687.4" y="770.6375">Store</text><line style="stroke:#181818;stroke-width:0.4000000000000001;" x1="526.8" x2="849.2" y1="778.8" y2="778.8"/><text fill="#000000" font-family="sans-serif" font-size="11.2" lengthAdjust="spacing" textLength="92.8" x="530.8" y="794.0859">-address: Address</text><text fill="#000000" font-family="sans-serif" font-size="11.2" lengthAdjust="spacing" textLength="156.8" x="530.8" y="808.9828">-employeeList: List&lt;Employee&gt;</text><line style="stroke:#181818;stroke-width:0.4000000000000001;" x1="526.8" x2="849.2" y1="814.9938" y2="814.9938"/><text fill="#000000" font-family="sans-serif" font-size="11.2" lengthAdjust="spacing" textLength="314.4" x="530.8" y="830.2797">+Store(address, id, designation, phoneNumber, emailAddress)</text><text fill="#000000" font-family="sans-serif" font-size="11.2" lengthAdjust="spacing" textLength="72" x="530.8" y="845.1766">+getAddress()</text><text fill="#000000" font-family="sans-serif" font-size="11.2" lengthAdjust="spacing" textLength="85.6" x="530.8" y="860.0734">+getEmployees()</text></g><!--class Repositories--><g id="elem_Repositories"><rect codeLine="99" fill="#F1F1F1" height="127.7813" id="Repositories" rx="2" ry="2" style="stroke:#181818;stroke-width:0.4000000000000001;" width="208.8" x="1233.2" y="57.6"/><ellipse cx="1302.6" cy="70.4" fill="#ADD1B2" rx="8.8" ry="8.8" style="stroke:#181818;stroke-width:0.8000000000000002;"/><path d="M1304.8125,67.1 Q1304.9375,66.925 1305.0875,66.8375 Q1305.2375,66.75 1305.4125,66.75 Q1305.7125,66.75 1305.9,66.9625 Q1306.0875,67.1625 1306.0875,67.65 L1306.0875,68.8125 Q1306.0875,69.3 1305.9,69.5125 Q1305.7125,69.725 1305.4125,69.725 Q1305.1375,69.725 1304.975,69.5625 Q1304.8125,69.4125 1304.725,69 Q1304.6875,68.7125 1304.5375,68.5625 Q1304.275,68.2625 1303.7875,68.0875 Q1303.3,67.9125 1302.8,67.9125 Q1302.1875,67.9125 1301.675,68.175 Q1301.175,68.4375 1300.775,69.0375 Q1300.3875,69.6375 1300.3875,70.4625 L1300.3875,71.3375 Q1300.3875,72.325 1301.1,72.9875 Q1301.8125,73.6375 1303.0875,73.6375 Q1303.8375,73.6375 1304.3625,73.4375 Q1304.675,73.3125 1305.0125,72.9625 Q1305.225,72.75 1305.3375,72.6875 Q1305.4625,72.625 1305.625,72.625 Q1305.8875,72.625 1306.0875,72.8375 Q1306.3,73.0375 1306.3,73.3125 Q1306.3,73.5875 1306.025,73.9125 Q1305.625,74.375 1304.9875,74.6375 Q1304.125,75 1303.0875,75 Q1301.875,75 1300.9125,74.5 Q1300.125,74.1 1299.575,73.25 Q1299.025,72.3875 1299.025,71.3625 L1299.025,70.4375 Q1299.025,69.375 1299.5125,68.4625 Q1300.0125,67.5375 1300.8875,67.05 Q1301.7625,66.55 1302.75,66.55 Q1303.3375,66.55 1303.85,66.6875 Q1304.375,66.8125 1304.8125,67.1 Z " fill="#000000"/><text fill="#000000" font-family="sans-serif" font-size="11.2" lengthAdjust="spacing" textLength="63.2" x="1319" y="75.0375">Repositories</text><line style="stroke:#181818;stroke-width:0.4000000000000001;" x1="1234" x2="1441.2" y1="83.2" y2="83.2"/><line style="stroke:#181818;stroke-width:0.4000000000000001;" x1="1234" x2="1441.2" y1="89.6" y2="89.6"/><text fill="#000000" font-family="sans-serif" font-size="11.2" lengthAdjust="spacing" textLength="75.2" x="1238" y="104.8859">-Repositories()</text><text fill="#000000" font-family="sans-serif" font-size="11.2" lengthAdjust="spacing" textLength="145.6" x="1238" y="119.7828">+getInstance() : Repositories</text><text fill="#000000" font-family="sans-serif" font-size="11.2" lengthAdjust="spacing" textLength="126.4" x="1238" y="134.6797">+getAddressRepository()</text><text fill="#000000" font-family="sans-serif" font-size="11.2" lengthAdjust="spacing" textLength="132" x="1238" y="149.5766">+getAgentListRepository()</text><text fill="#000000" font-family="sans-serif" font-size="11.2" lengthAdjust="spacing" textLength="112" x="1238" y="164.4734">+getStoreRepository()</text><text fill="#000000" font-family="sans-serif" font-size="11.2" lengthAdjust="spacing" textLength="199.2" x="1238" y="179.3703">+getAdvertisementRequestRepository()</text></g><!--class AddRequestController--><g id="elem_AddRequestController"><rect codeLine="108" fill="#F1F1F1" height="232.0594" id="AddRequestController" rx="2" ry="2" style="stroke:#181818;stroke-width:0.4000000000000001;" width="1018.4" x="131.6" y="5.6"/><ellipse cx="581.4" cy="18.4" fill="#ADD1B2" rx="8.8" ry="8.8" style="stroke:#181818;stroke-width:0.8000000000000002;"/><path d="M583.6125,15.1 Q583.7375,14.925 583.8875,14.8375 Q584.0375,14.75 584.2125,14.75 Q584.5125,14.75 584.7,14.9625 Q584.8875,15.1625 584.8875,15.65 L584.8875,16.8125 Q584.8875,17.3 584.7,17.5125 Q584.5125,17.725 584.2125,17.725 Q583.9375,17.725 583.775,17.5625 Q583.6125,17.4125 583.525,17 Q583.4875,16.7125 583.3375,16.5625 Q583.075,16.2625 582.5875,16.0875 Q582.1,15.9125 581.6,15.9125 Q580.9875,15.9125 580.475,16.175 Q579.975,16.4375 579.575,17.0375 Q579.1875,17.6375 579.1875,18.4625 L579.1875,19.3375 Q579.1875,20.325 579.9,20.9875 Q580.6125,21.6375 581.8875,21.6375 Q582.6375,21.6375 583.1625,21.4375 Q583.475,21.3125 583.8125,20.9625 Q584.025,20.75 584.1375,20.6875 Q584.2625,20.625 584.425,20.625 Q584.6875,20.625 584.8875,20.8375 Q585.1,21.0375 585.1,21.3125 Q585.1,21.5875 584.825,21.9125 Q584.425,22.375 583.7875,22.6375 Q582.925,23 581.8875,23 Q580.675,23 579.7125,22.5 Q578.925,22.1 578.375,21.25 Q577.825,20.3875 577.825,19.3625 L577.825,18.4375 Q577.825,17.375 578.3125,16.4625 Q578.8125,15.5375 579.6875,15.05 Q580.5625,14.55 581.55,14.55 Q582.1375,14.55 582.65,14.6875 Q583.175,14.8125 583.6125,15.1 Z " fill="#000000"/><text fill="#000000" font-family="sans-serif" font-size="11.2" lengthAdjust="spacing" textLength="112" x="597.8" y="23.0375">AddRequestController</text><line style="stroke:#181818;stroke-width:0.4000000000000001;" x1="132.4" x2="1149.2" y1="31.2" y2="31.2"/><line style="stroke:#181818;stroke-width:0.4000000000000001;" x1="132.4" x2="1149.2" y1="37.6" y2="37.6"/><text fill="#000000" font-family="sans-serif" font-size="11.2" lengthAdjust="spacing" textLength="126.4" x="136.4" y="52.8859">+AddRequestController()</text><text fill="#000000" font-family="sans-serif" font-size="11.2" lengthAdjust="spacing" textLength="112" x="136.4" y="67.7828">+getStoreRepository()</text><text fill="#000000" font-family="sans-serif" font-size="11.2" lengthAdjust="spacing" textLength="132" x="136.4" y="82.6797">+getAgentListRepository()</text><text fill="#000000" font-family="sans-serif" font-size="11.2" lengthAdjust="spacing" textLength="126.4" x="136.4" y="97.5766">+getAddressRepository()</text><text fill="#000000" font-family="sans-serif" font-size="11.2" lengthAdjust="spacing" textLength="199.2" x="136.4" y="112.4734">+getAdvertisementRequestRepository()</text><text fill="#000000" font-family="sans-serif" font-size="11.2" lengthAdjust="spacing" textLength="128" x="136.4" y="127.3703">+getPropertyRepository()</text><text fill="#000000" font-family="sans-serif" font-size="11.2" lengthAdjust="spacing" textLength="80.8" x="136.4" y="142.2672">+getStoresList()</text><text fill="#000000" font-family="sans-serif" font-size="11.2" lengthAdjust="spacing" textLength="103.2" x="136.4" y="157.1641">+getAgentList(store)</text><text fill="#000000" font-family="sans-serif" font-size="11.2" lengthAdjust="spacing" textLength="300" x="136.4" y="172.0609">+addPhotographURIToList(photographURI, photographList)</text><text fill="#000000" font-family="sans-serif" font-size="11.2" lengthAdjust="spacing" textLength="290.4" x="136.4" y="186.9578">+registerAddress(district, cityName, streetName, zipCode)</text><text fill="#000000" font-family="sans-serif" font-size="11.2" lengthAdjust="spacing" textLength="350.4" x="136.4" y="201.8547">+createProperty(area, distanceFromCity, photograph, address, price)</text><text fill="#000000" font-family="sans-serif" font-size="11.2" lengthAdjust="spacing" textLength="781.6" x="136.4" y="216.7516">+createResidence(area, distanceFromCity, price, photograph, address, numberBedrooms, numberBathrooms, numberParkingSpaces, availableEquipment)</text><text fill="#000000" font-family="sans-serif" font-size="11.2" lengthAdjust="spacing" textLength="1008.8" x="136.4" y="231.6484">+createHouse(area, distanceFromCity, price, photograph, address, numberBedrooms, numberBathrooms, numberParkingSpaces, availableEquipment, existenceBasement, existenceLoft, sunExposure)</text></g><!--class Photograph--><g id="elem_Photograph"><rect codeLine="124" fill="#F1F1F1" height="68.1938" id="Photograph" rx="2" ry="2" style="stroke:#181818;stroke-width:0.4000000000000001;" width="120" x="2705.6" y="1504.8"/><ellipse cx="2733.44" cy="1517.6" fill="#ADD1B2" rx="8.8" ry="8.8" style="stroke:#181818;stroke-width:0.8000000000000002;"/><path d="M2735.6525,1514.3 Q2735.7775,1514.125 2735.9275,1514.0375 Q2736.0775,1513.95 2736.2525,1513.95 Q2736.5525,1513.95 2736.74,1514.1625 Q2736.9275,1514.3625 2736.9275,1514.85 L2736.9275,1516.0125 Q2736.9275,1516.5 2736.74,1516.7125 Q2736.5525,1516.925 2736.2525,1516.925 Q2735.9775,1516.925 2735.815,1516.7625 Q2735.6525,1516.6125 2735.565,1516.2 Q2735.5275,1515.9125 2735.3775,1515.7625 Q2735.115,1515.4625 2734.6275,1515.2875 Q2734.14,1515.1125 2733.64,1515.1125 Q2733.0275,1515.1125 2732.515,1515.375 Q2732.015,1515.6375 2731.615,1516.2375 Q2731.2275,1516.8375 2731.2275,1517.6625 L2731.2275,1518.5375 Q2731.2275,1519.525 2731.94,1520.1875 Q2732.6525,1520.8375 2733.9275,1520.8375 Q2734.6775,1520.8375 2735.2025,1520.6375 Q2735.515,1520.5125 2735.8525,1520.1625 Q2736.065,1519.95 2736.1775,1519.8875 Q2736.3025,1519.825 2736.465,1519.825 Q2736.7275,1519.825 2736.9275,1520.0375 Q2737.14,1520.2375 2737.14,1520.5125 Q2737.14,1520.7875 2736.865,1521.1125 Q2736.465,1521.575 2735.8275,1521.8375 Q2734.965,1522.2 2733.9275,1522.2 Q2732.715,1522.2 2731.7525,1521.7 Q2730.965,1521.3 2730.415,1520.45 Q2729.865,1519.5875 2729.865,1518.5625 L2729.865,1517.6375 Q2729.865,1516.575 2730.3525,1515.6625 Q2730.8525,1514.7375 2731.7275,1514.25 Q2732.6025,1513.75 2733.59,1513.75 Q2734.1775,1513.75 2734.69,1513.8875 Q2735.215,1514.0125 2735.6525,1514.3 Z " fill="#000000"/><text fill="#000000" font-family="sans-serif" font-size="11.2" lengthAdjust="spacing" textLength="59.2" x="2748.16" y="1522.2375">Photograph</text><line style="stroke:#181818;stroke-width:0.4000000000000001;" x1="2706.4" x2="2824.8" y1="1530.4" y2="1530.4"/><text fill="#000000" font-family="sans-serif" font-size="11.2" lengthAdjust="spacing" textLength="110.4" x="2710.4" y="1545.6859">-photographs: String[]</text><line style="stroke:#181818;stroke-width:0.4000000000000001;" x1="2706.4" x2="2824.8" y1="1551.6969" y2="1551.6969"/><text fill="#000000" font-family="sans-serif" font-size="11.2" lengthAdjust="spacing" textLength="89.6" x="2710.4" y="1566.9828">+getPhotograph()</text></g><!--class RequestType--><g id="elem_RequestType"><rect codeLine="129" fill="#F1F1F1" height="68.1938" id="RequestType" rx="2" ry="2" style="stroke:#181818;stroke-width:0.4000000000000001;" width="125.6" x="664.4" y="996.4"/><ellipse cx="690.8" cy="1009.2" fill="#ADD1B2" rx="8.8" ry="8.8" style="stroke:#181818;stroke-width:0.8000000000000002;"/><path d="M693.0125,1005.9 Q693.1375,1005.725 693.2875,1005.6375 Q693.4375,1005.55 693.6125,1005.55 Q693.9125,1005.55 694.1,1005.7625 Q694.2875,1005.9625 694.2875,1006.45 L694.2875,1007.6125 Q694.2875,1008.1 694.1,1008.3125 Q693.9125,1008.525 693.6125,1008.525 Q693.3375,1008.525 693.175,1008.3625 Q693.0125,1008.2125 692.925,1007.8 Q692.8875,1007.5125 692.7375,1007.3625 Q692.475,1007.0625 691.9875,1006.8875 Q691.5,1006.7125 691,1006.7125 Q690.3875,1006.7125 689.875,1006.975 Q689.375,1007.2375 688.975,1007.8375 Q688.5875,1008.4375 688.5875,1009.2625 L688.5875,1010.1375 Q688.5875,1011.125 689.3,1011.7875 Q690.0125,1012.4375 691.2875,1012.4375 Q692.0375,1012.4375 692.5625,1012.2375 Q692.875,1012.1125 693.2125,1011.7625 Q693.425,1011.55 693.5375,1011.4875 Q693.6625,1011.425 693.825,1011.425 Q694.0875,1011.425 694.2875,1011.6375 Q694.5,1011.8375 694.5,1012.1125 Q694.5,1012.3875 694.225,1012.7125 Q693.825,1013.175 693.1875,1013.4375 Q692.325,1013.8 691.2875,1013.8 Q690.075,1013.8 689.1125,1013.3 Q688.325,1012.9 687.775,1012.05 Q687.225,1011.1875 687.225,1010.1625 L687.225,1009.2375 Q687.225,1008.175 687.7125,1007.2625 Q688.2125,1006.3375 689.0875,1005.85 Q689.9625,1005.35 690.95,1005.35 Q691.5375,1005.35 692.05,1005.4875 Q692.575,1005.6125 693.0125,1005.9 Z " fill="#000000"/><text fill="#000000" font-family="sans-serif" font-size="11.2" lengthAdjust="spacing" textLength="68" x="705.2" y="1013.8375">RequestType</text><line style="stroke:#181818;stroke-width:0.4000000000000001;" x1="665.2" x2="789.2" y1="1022" y2="1022"/><text fill="#000000" font-family="sans-serif" font-size="11.2" lengthAdjust="spacing" textLength="116" x="669.2" y="1037.2859">-requestTypes: String[]</text><line style="stroke:#181818;stroke-width:0.4000000000000001;" x1="665.2" x2="789.2" y1="1043.2969" y2="1043.2969"/><text fill="#000000" font-family="sans-serif" font-size="11.2" lengthAdjust="spacing" textLength="104" x="669.2" y="1058.5828">+getRequestTypes()</text></g><!--class Property--><g id="elem_Property"><rect codeLine="134" fill="#F1F1F1" height="202.2656" id="Property" rx="2" ry="2" style="stroke:#181818;stroke-width:0.4000000000000001;" width="328" x="959.2" y="1164.8"/><ellipse cx="1098.2" cy="1177.6" fill="#ADD1B2" rx="8.8" ry="8.8" style="stroke:#181818;stroke-width:0.8000000000000002;"/><path d="M1100.4125,1174.3 Q1100.5375,1174.125 1100.6875,1174.0375 Q1100.8375,1173.95 1101.0125,1173.95 Q1101.3125,1173.95 1101.5,1174.1625 Q1101.6875,1174.3625 1101.6875,1174.85 L1101.6875,1176.0125 Q1101.6875,1176.5 1101.5,1176.7125 Q1101.3125,1176.925 1101.0125,1176.925 Q1100.7375,1176.925 1100.575,1176.7625 Q1100.4125,1176.6125 1100.325,1176.2 Q1100.2875,1175.9125 1100.1375,1175.7625 Q1099.875,1175.4625 1099.3875,1175.2875 Q1098.9,1175.1125 1098.4,1175.1125 Q1097.7875,1175.1125 1097.275,1175.375 Q1096.775,1175.6375 1096.375,1176.2375 Q1095.9875,1176.8375 1095.9875,1177.6625 L1095.9875,1178.5375 Q1095.9875,1179.525 1096.7,1180.1875 Q1097.4125,1180.8375 1098.6875,1180.8375 Q1099.4375,1180.8375 1099.9625,1180.6375 Q1100.275,1180.5125 1100.6125,1180.1625 Q1100.825,1179.95 1100.9375,1179.8875 Q1101.0625,1179.825 1101.225,1179.825 Q1101.4875,1179.825 1101.6875,1180.0375 Q1101.9,1180.2375 1101.9,1180.5125 Q1101.9,1180.7875 1101.625,1181.1125 Q1101.225,1181.575 1100.5875,1181.8375 Q1099.725,1182.2 1098.6875,1182.2 Q1097.475,1182.2 1096.5125,1181.7 Q1095.725,1181.3 1095.175,1180.45 Q1094.625,1179.5875 1094.625,1178.5625 L1094.625,1177.6375 Q1094.625,1176.575 1095.1125,1175.6625 Q1095.6125,1174.7375 1096.4875,1174.25 Q1097.3625,1173.75 1098.35,1173.75 Q1098.9375,1173.75 1099.45,1173.8875 Q1099.975,1174.0125 1100.4125,1174.3 Z " fill="#000000"/><text fill="#000000" font-family="sans-serif" font-size="11.2" lengthAdjust="spacing" textLength="43.2" x="1114.6" y="1182.2375">Property</text><line style="stroke:#181818;stroke-width:0.4000000000000001;" x1="960" x2="1286.4" y1="1190.4" y2="1190.4"/><text fill="#000000" font-family="sans-serif" font-size="11.2" lengthAdjust="spacing" textLength="69.6" x="964" y="1205.6859">-area: Double</text><text fill="#000000" font-family="sans-serif" font-size="11.2" lengthAdjust="spacing" textLength="71.2" x="964" y="1220.5828">-price: Double</text><text fill="#000000" font-family="sans-serif" font-size="11.2" lengthAdjust="spacing" textLength="134.4" x="964" y="1235.4797">-distanceFromCity: Double</text><text fill="#000000" font-family="sans-serif" font-size="11.2" lengthAdjust="spacing" textLength="98.4" x="964" y="1250.3766">-photograph: String</text><text fill="#000000" font-family="sans-serif" font-size="11.2" lengthAdjust="spacing" textLength="92.8" x="964" y="1265.2734">-address: Address</text><line style="stroke:#181818;stroke-width:0.4000000000000001;" x1="960" x2="1286.4" y1="1271.2844" y2="1271.2844"/><text fill="#000000" font-family="sans-serif" font-size="11.2" lengthAdjust="spacing" textLength="318.4" x="964" y="1286.5703">+Property(area, price, distanceFromCity, photograph, address)</text><text fill="#000000" font-family="sans-serif" font-size="11.2" lengthAdjust="spacing" textLength="54.4" x="964" y="1301.4672">+getArea()</text><text fill="#000000" font-family="sans-serif" font-size="11.2" lengthAdjust="spacing" textLength="56" x="964" y="1316.3641">+getPrice()</text><text fill="#000000" font-family="sans-serif" font-size="11.2" lengthAdjust="spacing" textLength="120" x="964" y="1331.2609">+getDistanceFromCity()</text><text fill="#000000" font-family="sans-serif" font-size="11.2" lengthAdjust="spacing" textLength="89.6" x="964" y="1346.1578">+getPhotograph()</text><text fill="#000000" font-family="sans-serif" font-size="11.2" lengthAdjust="spacing" textLength="72" x="964" y="1361.0547">+getAddress()</text></g><!--class PropertyType--><g id="elem_PropertyType"><rect codeLine="148" fill="#F1F1F1" height="68.1938" id="PropertyType" rx="2" ry="2" style="stroke:#181818;stroke-width:0.4000000000000001;" width="129.6" x="648.8" y="1504.8"/><ellipse cx="676.64" cy="1517.6" fill="#ADD1B2" rx="8.8" ry="8.8" style="stroke:#181818;stroke-width:0.8000000000000002;"/><path d="M678.8525,1514.3 Q678.9775,1514.125 679.1275,1514.0375 Q679.2775,1513.95 679.4525,1513.95 Q679.7525,1513.95 679.94,1514.1625 Q680.1275,1514.3625 680.1275,1514.85 L680.1275,1516.0125 Q680.1275,1516.5 679.94,1516.7125 Q679.7525,1516.925 679.4525,1516.925 Q679.1775,1516.925 679.015,1516.7625 Q678.8525,1516.6125 678.765,1516.2 Q678.7275,1515.9125 678.5775,1515.7625 Q678.315,1515.4625 677.8275,1515.2875 Q677.34,1515.1125 676.84,1515.1125 Q676.2275,1515.1125 675.715,1515.375 Q675.215,1515.6375 674.815,1516.2375 Q674.4275,1516.8375 674.4275,1517.6625 L674.4275,1518.5375 Q674.4275,1519.525 675.14,1520.1875 Q675.8525,1520.8375 677.1275,1520.8375 Q677.8775,1520.8375 678.4025,1520.6375 Q678.715,1520.5125 679.0525,1520.1625 Q679.265,1519.95 679.3775,1519.8875 Q679.5025,1519.825 679.665,1519.825 Q679.9275,1519.825 680.1275,1520.0375 Q680.34,1520.2375 680.34,1520.5125 Q680.34,1520.7875 680.065,1521.1125 Q679.665,1521.575 679.0275,1521.8375 Q678.165,1522.2 677.1275,1522.2 Q675.915,1522.2 674.9525,1521.7 Q674.165,1521.3 673.615,1520.45 Q673.065,1519.5875 673.065,1518.5625 L673.065,1517.6375 Q673.065,1516.575 673.5525,1515.6625 Q674.0525,1514.7375 674.9275,1514.25 Q675.8025,1513.75 676.79,1513.75 Q677.3775,1513.75 677.89,1513.8875 Q678.415,1514.0125 678.8525,1514.3 Z " fill="#000000"/><text fill="#000000" font-family="sans-serif" font-size="11.2" lengthAdjust="spacing" textLength="68.8" x="691.36" y="1522.2375">PropertyType</text><line style="stroke:#181818;stroke-width:0.4000000000000001;" x1="649.6" x2="777.6" y1="1530.4" y2="1530.4"/><text fill="#000000" font-family="sans-serif" font-size="11.2" lengthAdjust="spacing" textLength="120" x="653.6" y="1545.6859">-propertyTypes: String[]</text><line style="stroke:#181818;stroke-width:0.4000000000000001;" x1="649.6" x2="777.6" y1="1551.6969" y2="1551.6969"/><text fill="#000000" font-family="sans-serif" font-size="11.2" lengthAdjust="spacing" textLength="104.8" x="653.6" y="1566.9828">+getPropertyTypes()</text></g><!--class Residence--><g id="elem_Residence"><rect codeLine="153" fill="#F1F1F1" height="187.3688" id="Residence" rx="2" ry="2" style="stroke:#181818;stroke-width:0.4000000000000001;" width="856" x="1821.6" y="1445.2"/><ellipse cx="2219.4" cy="1458" fill="#ADD1B2" rx="8.8" ry="8.8" style="stroke:#181818;stroke-width:0.8000000000000002;"/><path d="M2221.6125,1454.7 Q2221.7375,1454.525 2221.8875,1454.4375 Q2222.0375,1454.35 2222.2125,1454.35 Q2222.5125,1454.35 2222.7,1454.5625 Q2222.8875,1454.7625 2222.8875,1455.25 L2222.8875,1456.4125 Q2222.8875,1456.9 2222.7,1457.1125 Q2222.5125,1457.325 2222.2125,1457.325 Q2221.9375,1457.325 2221.775,1457.1625 Q2221.6125,1457.0125 2221.525,1456.6 Q2221.4875,1456.3125 2221.3375,1456.1625 Q2221.075,1455.8625 2220.5875,1455.6875 Q2220.1,1455.5125 2219.6,1455.5125 Q2218.9875,1455.5125 2218.475,1455.775 Q2217.975,1456.0375 2217.575,1456.6375 Q2217.1875,1457.2375 2217.1875,1458.0625 L2217.1875,1458.9375 Q2217.1875,1459.925 2217.9,1460.5875 Q2218.6125,1461.2375 2219.8875,1461.2375 Q2220.6375,1461.2375 2221.1625,1461.0375 Q2221.475,1460.9125 2221.8125,1460.5625 Q2222.025,1460.35 2222.1375,1460.2875 Q2222.2625,1460.225 2222.425,1460.225 Q2222.6875,1460.225 2222.8875,1460.4375 Q2223.1,1460.6375 2223.1,1460.9125 Q2223.1,1461.1875 2222.825,1461.5125 Q2222.425,1461.975 2221.7875,1462.2375 Q2220.925,1462.6 2219.8875,1462.6 Q2218.675,1462.6 2217.7125,1462.1 Q2216.925,1461.7 2216.375,1460.85 Q2215.825,1459.9875 2215.825,1458.9625 L2215.825,1458.0375 Q2215.825,1456.975 2216.3125,1456.0625 Q2216.8125,1455.1375 2217.6875,1454.65 Q2218.5625,1454.15 2219.55,1454.15 Q2220.1375,1454.15 2220.65,1454.2875 Q2221.175,1454.4125 2221.6125,1454.7 Z " fill="#000000"/><text fill="#000000" font-family="sans-serif" font-size="11.2" lengthAdjust="spacing" textLength="53.6" x="2235.8" y="1462.6375">Residence</text><line style="stroke:#181818;stroke-width:0.4000000000000001;" x1="1822.4" x2="2676.8" y1="1470.8" y2="1470.8"/><text fill="#000000" font-family="sans-serif" font-size="11.2" lengthAdjust="spacing" textLength="112" x="1826.4" y="1486.0859">-numberBedrooms: Int</text><text fill="#000000" font-family="sans-serif" font-size="11.2" lengthAdjust="spacing" textLength="115.2" x="1826.4" y="1500.9828">-numberBathrooms: Int</text><text fill="#000000" font-family="sans-serif" font-size="11.2" lengthAdjust="spacing" textLength="136.8" x="1826.4" y="1515.8797">-numberParkingSpaces: Int</text><text fill="#000000" font-family="sans-serif" font-size="11.2" lengthAdjust="spacing" textLength="208" x="1826.4" y="1530.7766">-availableEquipment: AvailableEquipment</text><line style="stroke:#181818;stroke-width:0.4000000000000001;" x1="1822.4" x2="2676.8" y1="1536.7875" y2="1536.7875"/><text fill="#000000" font-family="sans-serif" font-size="11.2" lengthAdjust="spacing" textLength="846.4" x="1826.4" y="1552.0734">+Residence(area, distanceFromCity, price, photograph, address, numberBedrooms, numberBathrooms, numberParkingSpaces, hasCentralHeating, hasAirConditioning)</text><text fill="#000000" font-family="sans-serif" font-size="11.2" lengthAdjust="spacing" textLength="594.4" x="1826.4" y="1566.9703">+Residence(area, distanceFromCity, price, photograph, address, property, numberBedrooms, numberParkingSpaces)</text><text fill="#000000" font-family="sans-serif" font-size="11.2" lengthAdjust="spacing" textLength="120.8" x="1826.4" y="1581.8672">+getNumberBedrooms()</text><text fill="#000000" font-family="sans-serif" font-size="11.2" lengthAdjust="spacing" textLength="124" x="1826.4" y="1596.7641">+getNumberBathrooms()</text><text fill="#000000" font-family="sans-serif" font-size="11.2" lengthAdjust="spacing" textLength="145.6" x="1826.4" y="1611.6609">+getNumberParkingSpaces()</text><text fill="#000000" font-family="sans-serif" font-size="11.2" lengthAdjust="spacing" textLength="129.6" x="1826.4" y="1626.5578">+getAvailableEquipment()</text></g><!--class House--><g id="elem_House"><rect codeLine="166" fill="#F1F1F1" height="157.575" id="House" rx="2" ry="2" style="stroke:#181818;stroke-width:0.4000000000000001;" width="986.4" x="806.8" y="1460"/><ellipse cx="1280.6" cy="1472.8" fill="#ADD1B2" rx="8.8" ry="8.8" style="stroke:#181818;stroke-width:0.8000000000000002;"/><path d="M1282.8125,1469.5 Q1282.9375,1469.325 1283.0875,1469.2375 Q1283.2375,1469.15 1283.4125,1469.15 Q1283.7125,1469.15 1283.9,1469.3625 Q1284.0875,1469.5625 1284.0875,1470.05 L1284.0875,1471.2125 Q1284.0875,1471.7 1283.9,1471.9125 Q1283.7125,1472.125 1283.4125,1472.125 Q1283.1375,1472.125 1282.975,1471.9625 Q1282.8125,1471.8125 1282.725,1471.4 Q1282.6875,1471.1125 1282.5375,1470.9625 Q1282.275,1470.6625 1281.7875,1470.4875 Q1281.3,1470.3125 1280.8,1470.3125 Q1280.1875,1470.3125 1279.675,1470.575 Q1279.175,1470.8375 1278.775,1471.4375 Q1278.3875,1472.0375 1278.3875,1472.8625 L1278.3875,1473.7375 Q1278.3875,1474.725 1279.1,1475.3875 Q1279.8125,1476.0375 1281.0875,1476.0375 Q1281.8375,1476.0375 1282.3625,1475.8375 Q1282.675,1475.7125 1283.0125,1475.3625 Q1283.225,1475.15 1283.3375,1475.0875 Q1283.4625,1475.025 1283.625,1475.025 Q1283.8875,1475.025 1284.0875,1475.2375 Q1284.3,1475.4375 1284.3,1475.7125 Q1284.3,1475.9875 1284.025,1476.3125 Q1283.625,1476.775 1282.9875,1477.0375 Q1282.125,1477.4 1281.0875,1477.4 Q1279.875,1477.4 1278.9125,1476.9 Q1278.125,1476.5 1277.575,1475.65 Q1277.025,1474.7875 1277.025,1473.7625 L1277.025,1472.8375 Q1277.025,1471.775 1277.5125,1470.8625 Q1278.0125,1469.9375 1278.8875,1469.45 Q1279.7625,1468.95 1280.75,1468.95 Q1281.3375,1468.95 1281.85,1469.0875 Q1282.375,1469.2125 1282.8125,1469.5 Z " fill="#000000"/><text fill="#000000" font-family="sans-serif" font-size="11.2" lengthAdjust="spacing" textLength="32" x="1297" y="1477.4375">House</text><line style="stroke:#181818;stroke-width:0.4000000000000001;" x1="807.6" x2="1792.4" y1="1485.6" y2="1485.6"/><text fill="#000000" font-family="sans-serif" font-size="11.2" lengthAdjust="spacing" textLength="120" x="811.6" y="1500.8859">-existenceBasement: int</text><text fill="#000000" font-family="sans-serif" font-size="11.2" lengthAdjust="spacing" textLength="88.8" x="811.6" y="1515.7828">-existenceLoft: int</text><text fill="#000000" font-family="sans-serif" font-size="11.2" lengthAdjust="spacing" textLength="105.6" x="811.6" y="1530.6797">-sunExposure: String</text><line style="stroke:#181818;stroke-width:0.4000000000000001;" x1="807.6" x2="1792.4" y1="1536.6906" y2="1536.6906"/><text fill="#000000" font-family="sans-serif" font-size="11.2" lengthAdjust="spacing" textLength="976.8" x="811.6" y="1551.9766">+House(area, distanceFromCity, price, photograph, address, numberBedrooms, numberBathrooms, numberParkingSpaces, availableEquipment, existenceBasement, existenceLoft, sunExposure)</text><text fill="#000000" font-family="sans-serif" font-size="11.2" lengthAdjust="spacing" textLength="84" x="811.6" y="1566.8734">+getResidence()</text><text fill="#000000" font-family="sans-serif" font-size="11.2" lengthAdjust="spacing" textLength="120.8" x="811.6" y="1581.7703">+isExistenceBasement()</text><text fill="#000000" font-family="sans-serif" font-size="11.2" lengthAdjust="spacing" textLength="89.6" x="811.6" y="1596.6672">+isExistenceLoft()</text><text fill="#000000" font-family="sans-serif" font-size="11.2" lengthAdjust="spacing" textLength="97.6" x="811.6" y="1611.5641">+getSunExposure()</text></g><!--class Address--><g id="elem_Address"><rect codeLine="177" fill="#F1F1F1" height="172.4719" id="Address" rx="2" ry="2" style="stroke:#181818;stroke-width:0.4000000000000001;" width="261.6" x="925.2" y="723.2"/><ellipse cx="1031.8" cy="736" fill="#ADD1B2" rx="8.8" ry="8.8" style="stroke:#181818;stroke-width:0.8000000000000002;"/><path d="M1034.0125,732.7 Q1034.1375,732.525 1034.2875,732.4375 Q1034.4375,732.35 1034.6125,732.35 Q1034.9125,732.35 1035.1,732.5625 Q1035.2875,732.7625 1035.2875,733.25 L1035.2875,734.4125 Q1035.2875,734.9 1035.1,735.1125 Q1034.9125,735.325 1034.6125,735.325 Q1034.3375,735.325 1034.175,735.1625 Q1034.0125,735.0125 1033.925,734.6 Q1033.8875,734.3125 1033.7375,734.1625 Q1033.475,733.8625 1032.9875,733.6875 Q1032.5,733.5125 1032,733.5125 Q1031.3875,733.5125 1030.875,733.775 Q1030.375,734.0375 1029.975,734.6375 Q1029.5875,735.2375 1029.5875,736.0625 L1029.5875,736.9375 Q1029.5875,737.925 1030.3,738.5875 Q1031.0125,739.2375 1032.2875,739.2375 Q1033.0375,739.2375 1033.5625,739.0375 Q1033.875,738.9125 1034.2125,738.5625 Q1034.425,738.35 1034.5375,738.2875 Q1034.6625,738.225 1034.825,738.225 Q1035.0875,738.225 1035.2875,738.4375 Q1035.5,738.6375 1035.5,738.9125 Q1035.5,739.1875 1035.225,739.5125 Q1034.825,739.975 1034.1875,740.2375 Q1033.325,740.6 1032.2875,740.6 Q1031.075,740.6 1030.1125,740.1 Q1029.325,739.7 1028.775,738.85 Q1028.225,737.9875 1028.225,736.9625 L1028.225,736.0375 Q1028.225,734.975 1028.7125,734.0625 Q1029.2125,733.1375 1030.0875,732.65 Q1030.9625,732.15 1031.95,732.15 Q1032.5375,732.15 1033.05,732.2875 Q1033.575,732.4125 1034.0125,732.7 Z " fill="#000000"/><text fill="#000000" font-family="sans-serif" font-size="11.2" lengthAdjust="spacing" textLength="41.6" x="1048.2" y="740.6375">Address</text><line style="stroke:#181818;stroke-width:0.4000000000000001;" x1="926" x2="1186" y1="748.8" y2="748.8"/><text fill="#000000" font-family="sans-serif" font-size="11.2" lengthAdjust="spacing" textLength="97.6" x="930" y="764.0859">-streetName: String</text><text fill="#000000" font-family="sans-serif" font-size="11.2" lengthAdjust="spacing" textLength="85.6" x="930" y="778.9828">-cityName: String</text><text fill="#000000" font-family="sans-serif" font-size="11.2" lengthAdjust="spacing" textLength="80.8" x="930" y="793.8797">-zipCode: String</text><text fill="#000000" font-family="sans-serif" font-size="11.2" lengthAdjust="spacing" textLength="72.8" x="930" y="808.7766">-district: String</text><line style="stroke:#181818;stroke-width:0.4000000000000001;" x1="926" x2="1186" y1="814.7875" y2="814.7875"/><text fill="#000000" font-family="sans-serif" font-size="11.2" lengthAdjust="spacing" textLength="252" x="930" y="830.0734">+Address(streetName, cityName, zipCode, district)</text><text fill="#000000" font-family="sans-serif" font-size="11.2" lengthAdjust="spacing" textLength="89.6" x="930" y="844.9703">+getStreetName()</text><text fill="#000000" font-family="sans-serif" font-size="11.2" lengthAdjust="spacing" textLength="78.4" x="930" y="859.8672">+getCityName()</text><text fill="#000000" font-family="sans-serif" font-size="11.2" lengthAdjust="spacing" textLength="72.8" x="930" y="874.7641">+getZipCode()</text><text fill="#000000" font-family="sans-serif" font-size="11.2" lengthAdjust="spacing" textLength="64.8" x="930" y="889.6609">+getDistrict()</text></g><!--class Employee--><g id="elem_Employee"><rect codeLine="189" fill="#F1F1F1" height="142.6781" id="Employee" rx="2" ry="2" style="stroke:#181818;stroke-width:0.4000000000000001;" width="598.4" x="1097.6" y="959.2"/><ellipse cx="1368.6" cy="972" fill="#ADD1B2" rx="8.8" ry="8.8" style="stroke:#181818;stroke-width:0.8000000000000002;"/><path d="M1370.8125,968.7 Q1370.9375,968.525 1371.0875,968.4375 Q1371.2375,968.35 1371.4125,968.35 Q1371.7125,968.35 1371.9,968.5625 Q1372.0875,968.7625 1372.0875,969.25 L1372.0875,970.4125 Q1372.0875,970.9 1371.9,971.1125 Q1371.7125,971.325 1371.4125,971.325 Q1371.1375,971.325 1370.975,971.1625 Q1370.8125,971.0125 1370.725,970.6 Q1370.6875,970.3125 1370.5375,970.1625 Q1370.275,969.8625 1369.7875,969.6875 Q1369.3,969.5125 1368.8,969.5125 Q1368.1875,969.5125 1367.675,969.775 Q1367.175,970.0375 1366.775,970.6375 Q1366.3875,971.2375 1366.3875,972.0625 L1366.3875,972.9375 Q1366.3875,973.925 1367.1,974.5875 Q1367.8125,975.2375 1369.0875,975.2375 Q1369.8375,975.2375 1370.3625,975.0375 Q1370.675,974.9125 1371.0125,974.5625 Q1371.225,974.35 1371.3375,974.2875 Q1371.4625,974.225 1371.625,974.225 Q1371.8875,974.225 1372.0875,974.4375 Q1372.3,974.6375 1372.3,974.9125 Q1372.3,975.1875 1372.025,975.5125 Q1371.625,975.975 1370.9875,976.2375 Q1370.125,976.6 1369.0875,976.6 Q1367.875,976.6 1366.9125,976.1 Q1366.125,975.7 1365.575,974.85 Q1365.025,973.9875 1365.025,972.9625 L1365.025,972.0375 Q1365.025,970.975 1365.5125,970.0625 Q1366.0125,969.1375 1366.8875,968.65 Q1367.7625,968.15 1368.75,968.15 Q1369.3375,968.15 1369.85,968.2875 Q1370.375,968.4125 1370.8125,968.7 Z " fill="#000000"/><text fill="#000000" font-family="sans-serif" font-size="11.2" lengthAdjust="spacing" textLength="49.6" x="1385" y="976.6375">Employee</text><line style="stroke:#181818;stroke-width:0.4000000000000001;" x1="1098.4" x2="1695.2" y1="984.8" y2="984.8"/><text fill="#000000" font-family="sans-serif" font-size="11.2" lengthAdjust="spacing" textLength="182.4" x="1102.4" y="1000.0859">-organizationRole: OrganizationRole</text><text fill="#000000" font-family="sans-serif" font-size="11.2" lengthAdjust="spacing" textLength="92.8" x="1102.4" y="1014.9828">-address: Address</text><text fill="#000000" font-family="sans-serif" font-size="11.2" lengthAdjust="spacing" textLength="63.2" x="1102.4" y="1029.8797">-store: Store</text><line style="stroke:#181818;stroke-width:0.4000000000000001;" x1="1098.4" x2="1695.2" y1="1035.8906" y2="1035.8906"/><text fill="#000000" font-family="sans-serif" font-size="11.2" lengthAdjust="spacing" textLength="588.8" x="1102.4" y="1051.1766">+Employee(name, passportCardNumber, taxNumber, emailAddress, phoneNumber, organizationRole, address, store)</text><text fill="#000000" font-family="sans-serif" font-size="11.2" lengthAdjust="spacing" textLength="117.6" x="1102.4" y="1066.0734">+getOrganizationRole()</text><text fill="#000000" font-family="sans-serif" font-size="11.2" lengthAdjust="spacing" textLength="72" x="1102.4" y="1080.9703">+getAddress()</text><text fill="#000000" font-family="sans-serif" font-size="11.2" lengthAdjust="spacing" textLength="57.6" x="1102.4" y="1095.8672">+getStore()</text></g><!--class AddRequestUI--><g id="elem_AddRequestUI"><rect codeLine="199" fill="#F1F1F1" height="38.4" id="AddRequestUI" rx="2" ry="2" style="stroke:#181818;stroke-width:0.4000000000000001;" width="97.6" x="5.6" y="102.4"/><ellipse cx="17.6" cy="115.2" fill="#ADD1B2" rx="8.8" ry="8.8" style="stroke:#181818;stroke-width:0.8000000000000002;"/><path d="M19.8125,111.9 Q19.9375,111.725 20.0875,111.6375 Q20.2375,111.55 20.4125,111.55 Q20.7125,111.55 20.9,111.7625 Q21.0875,111.9625 21.0875,112.45 L21.0875,113.6125 Q21.0875,114.1 20.9,114.3125 Q20.7125,114.525 20.4125,114.525 Q20.1375,114.525 19.975,114.3625 Q19.8125,114.2125 19.725,113.8 Q19.6875,113.5125 19.5375,113.3625 Q19.275,113.0625 18.7875,112.8875 Q18.3,112.7125 17.8,112.7125 Q17.1875,112.7125 16.675,112.975 Q16.175,113.2375 15.775,113.8375 Q15.3875,114.4375 15.3875,115.2625 L15.3875,116.1375 Q15.3875,117.125 16.1,117.7875 Q16.8125,118.4375 18.0875,118.4375 Q18.8375,118.4375 19.3625,118.2375 Q19.675,118.1125 20.0125,117.7625 Q20.225,117.55 20.3375,117.4875 Q20.4625,117.425 20.625,117.425 Q20.8875,117.425 21.0875,117.6375 Q21.3,117.8375 21.3,118.1125 Q21.3,118.3875 21.025,118.7125 Q20.625,119.175 19.9875,119.4375 Q19.125,119.8 18.0875,119.8 Q16.875,119.8 15.9125,119.3 Q15.125,118.9 14.575,118.05 Q14.025,117.1875 14.025,116.1625 L14.025,115.2375 Q14.025,114.175 14.5125,113.2625 Q15.0125,112.3375 15.8875,111.85 Q16.7625,111.35 17.75,111.35 Q18.3375,111.35 18.85,111.4875 Q19.375,111.6125 19.8125,111.9 Z " fill="#000000"/><text fill="#000000" font-family="sans-serif" font-size="11.2" lengthAdjust="spacing" textLength="72" x="28.8" y="119.8375">AddRequestUI</text><line style="stroke:#181818;stroke-width:0.4000000000000001;" x1="6.4" x2="102.4" y1="128" y2="128"/><line style="stroke:#181818;stroke-width:0.4000000000000001;" x1="6.4" x2="102.4" y1="134.4" y2="134.4"/></g><!--link Repositories to Repositories--><g id="link_Repositories_Repositories"><path codeLine="203" d="M1442.216,96.248 C1458.72,99.992 1470,108.448 1470,121.6 C1470,133.624 1460.576,141.72 1446.352,145.888 " fill="none" id="Repositories-to-Repositories" style="stroke:#181818;stroke-width:0.8000000000000002;"/><polygon fill="#181818" points="1442.216,146.952,1449.9891,148.2403,1446.0877,145.947,1448.381,142.0456,1442.216,146.952" style="stroke:#181818;stroke-width:0.8000000000000002;"/><text fill="#000000" font-family="sans-serif" font-size="10.4" lengthAdjust="spacing" textLength="39.2" x="1474.8" y="126.0227">instance</text></g><!--link AddRequestUI to AddRequestController--><g id="link_AddRequestUI_AddRequestController"><path codeLine="205" d="M103.224,121.6 C110.8,121.6 118.912,121.6 127.28,121.6 " fill="none" id="AddRequestUI-to-AddRequestController" style="stroke:#181818;stroke-width:0.8000000000000002;stroke-dasharray:7.0,7.0;"/><polygon fill="#181818" points="131.408,121.6,124.208,118.4,127.408,121.6,124.208,124.8,131.408,121.6" style="stroke:#181818;stroke-width:0.8000000000000002;"/></g><!--link AddRequestController to Repositories--><g id="link_AddRequestController_Repositories"><path codeLine="207" d="M1150.184,121.6 C1178.624,121.6 1205.224,121.6 1228.952,121.6 " fill="none" id="AddRequestController-to-Repositories" style="stroke:#181818;stroke-width:0.8000000000000002;stroke-dasharray:7.0,7.0;"/><polygon fill="#181818" points="1233.04,121.6,1225.84,118.4,1229.04,121.6,1225.84,124.8,1233.04,121.6" style="stroke:#181818;stroke-width:0.8000000000000002;"/><text fill="#000000" font-family="sans-serif" font-size="10.4" lengthAdjust="spacing" textLength="53.6" x="1164.8" y="116.0227">repositories</text></g><!--link Repositories to StoreRepository--><g id="link_Repositories_StoreRepository"><path codeLine="209" d="M1242.168,185.728 C1201.824,212.496 1164,237.6 1164,237.6 C1164,237.6 923.2,261.6 923.2,261.6 C923.2,261.6 838.472,323.608 771.592,372.552 " fill="none" id="Repositories-to-StoreRepository" style="stroke:#181818;stroke-width:0.8000000000000002;"/><polygon fill="#181818" points="768.024,375.16,775.7217,373.4791,771.2485,372.7931,771.9346,368.3199,768.024,375.16" style="stroke:#181818;stroke-width:0.8000000000000002;"/><text fill="#000000" font-family="sans-serif" font-size="10.4" lengthAdjust="spacing" textLength="5.6" x="769.9752" y="366.2687">1</text></g><!--link Repositories to AddressRepository--><g id="link_Repositories_AddressRepository"><path codeLine="210" d="M1242.168,185.728 C1201.824,212.496 1164,237.6 1164,237.6 C1164,237.6 1122.4,261.6 1122.4,261.6 C1122.4,261.6 1091.16,335.848 1070.064,385.976 " fill="none" id="Repositories-to-AddressRepository" style="stroke:#181818;stroke-width:0.8000000000000002;"/><polygon fill="#181818" points="1068.432,389.84,1074.1752,384.446,1069.9842,386.1535,1068.2768,381.9624,1068.432,389.84" style="stroke:#181818;stroke-width:0.8000000000000002;"/><text fill="#000000" font-family="sans-serif" font-size="10.4" lengthAdjust="spacing" textLength="5.6" x="1064.7713" y="380.9604">1</text></g><!--link Repositories to AgentListRepository--><g id="link_Repositories_AgentListRepository"><path codeLine="211" d="M1328.368,185.928 C1319.712,245.56 1306.968,333.248 1299.32,385.92 " fill="none" id="Repositories-to-AgentListRepository" style="stroke:#181818;stroke-width:0.8000000000000002;"/><polygon fill="#181818" points="1298.736,389.96,1302.9301,383.29,1299.3065,386.0009,1296.5956,382.3772,1298.736,389.96" style="stroke:#181818;stroke-width:0.8000000000000002;"/><text fill="#000000" font-family="sans-serif" font-size="10.4" lengthAdjust="spacing" textLength="5.6" x="1293.5574" y="381.0965">1</text></g><!--link Repositories to PropertyRepository--><g id="link_Repositories_PropertyRepository"><path codeLine="212" d="M1442.176,180.408 C1502.488,213.856 1580.92,257.36 1655.448,298.704 " fill="none" id="Repositories-to-PropertyRepository" style="stroke:#181818;stroke-width:0.8000000000000002;"/><polygon fill="#181818" points="1658.992,300.672,1654.2521,294.3781,1655.4954,298.7294,1651.144,299.9727,1658.992,300.672" style="stroke:#181818;stroke-width:0.8000000000000002;"/><text fill="#000000" font-family="sans-serif" font-size="10.4" lengthAdjust="spacing" textLength="5.6" x="1641.8926" y="291.623">1</text></g><!--link StoreRepository to Store--><g id="link_StoreRepository_Store"><path codeLine="214" d="M691.408,488.144 C690.664,558.04 689.4,677.368 688.632,749.08 " fill="none" id="StoreRepository-to-Store" style="stroke:#181818;stroke-width:0.8000000000000002;"/><polygon fill="#181818" points="688.592,753.096,691.8741,745.933,688.6377,749.0963,685.4745,745.8599,688.592,753.096" style="stroke:#181818;stroke-width:0.8000000000000002;"/><text fill="#000000" font-family="sans-serif" font-size="10.4" lengthAdjust="spacing" textLength="4" x="684.4468" y="744.1981">*</text></g><!--link AddRequestController to StoreRepository--><g id="link_AddRequestController_StoreRepository"><path codeLine="216" d="M659.936,237.672 C667.464,282.984 675.776,333.096 682.056,370.92 " fill="none" id="AddRequestController-to-StoreRepository" style="stroke:#181818;stroke-width:0.8000000000000002;stroke-dasharray:7.0,7.0;"/><polygon fill="#181818" points="682.736,375,684.698,367.3691,682.0728,371.0554,678.3866,368.4302,682.736,375" style="stroke:#181818;stroke-width:0.8000000000000002;"/><text fill="#000000" font-family="sans-serif" font-size="10.4" lengthAdjust="spacing" textLength="72.8" x="667.2" y="273.6227">storeRepository</text></g><!--link AddRequestController to AddressRepository--><g id="link_AddRequestController_AddressRepository"><path codeLine="217" d="M784.104,237.64 C812.008,260.08 832.8,276.8 832.8,276.8 C832.8,276.8 887.2,300.8 887.2,300.8 C887.2,300.8 948.488,349.384 996.128,387.144 " fill="none" id="AddRequestController-to-AddressRepository" style="stroke:#181818;stroke-width:0.8000000000000002;stroke-dasharray:7.0,7.0;"/><polygon fill="#181818" points="999.536,389.848,995.8941,382.8611,996.4058,387.3576,991.9094,387.8694,999.536,389.848" style="stroke:#181818;stroke-width:0.8000000000000002;"/><text fill="#000000" font-family="sans-serif" font-size="10.4" lengthAdjust="spacing" textLength="86.4" x="833.6" y="273.6227">addressRepository</text></g><!--link AddRequestController to AgentListRepository--><g id="link_AddRequestController_AgentListRepository"><path codeLine="218" d="M930.392,237.64 C986.776,260.08 1028.8,276.8 1028.8,276.8 C1028.8,276.8 1215.2,300.8 1215.2,300.8 C1215.2,300.8 1243.648,348.456 1266.096,386.064 " fill="none" id="AddRequestController-to-AgentListRepository" style="stroke:#181818;stroke-width:0.8000000000000002;stroke-dasharray:7.0,7.0;"/><polygon fill="#181818" points="1268.248,389.664,1267.2991,381.8423,1266.1951,386.231,1261.8063,385.127,1268.248,389.664" style="stroke:#181818;stroke-width:0.8000000000000002;"/><text fill="#000000" font-family="sans-serif" font-size="10.4" lengthAdjust="spacing" textLength="92" x="1029.6" y="273.6227">agentListRepository</text></g><!--link AddRequestController to AdvertisementRequestRepository--><g id="link_AddRequestController_AdvertisementRequestRepository"><path codeLine="219" d="M528.176,237.672 C514.256,251.92 504.8,261.6 504.8,261.6 C504.8,261.6 496.8,300.8 496.8,300.8 C496.8,300.8 478.32,484.128 468.448,582.016 " fill="none" id="AddRequestController-to-AdvertisementRequestRepository" style="stroke:#181818;stroke-width:0.8000000000000002;stroke-dasharray:7.0,7.0;"/><polygon fill="#181818" points="468.04,586.04,471.9425,579.1953,468.4391,582.06,465.5744,578.5566,468.04,586.04" style="stroke:#181818;stroke-width:0.8000000000000002;"/><text fill="#000000" font-family="sans-serif" font-size="10.4" lengthAdjust="spacing" textLength="152" x="505.6" y="273.6227">advertisementRequestRepository</text></g><!--link AddRequestController to AdvertisementRequest--><g id="link_AddRequestController_AdvertisementRequest"><path codeLine="220" d="M487.4,237.672 C370.832,325.272 230.4,430.8 230.4,430.8 C230.4,430.8 230.4,430.8 230.4,1266.8 C230.4,1266.8 291.12,1351.856 344.552,1426.704 " fill="none" id="AddRequestController-to-AdvertisementRequest" style="stroke:#181818;stroke-width:0.8000000000000002;stroke-dasharray:7.0,7.0;"/><polygon fill="#181818" points="346.928,1430.032,345.3573,1422.3111,344.6074,1426.774,340.1445,1426.0241,346.928,1430.032" style="stroke:#181818;stroke-width:0.8000000000000002;"/><text fill="#000000" font-family="sans-serif" font-size="10.4" lengthAdjust="spacing" textLength="34.4" x="231.2" y="932.0227">request</text></g><!--link AddRequestController to PropertyRepository--><g id="link_AddRequestController_PropertyRepository"><path codeLine="221" d="M1112.144,237.648 C1252.864,272.064 1370.4,300.8 1370.4,300.8 C1370.4,300.8 1373.952,301.68 1380.472,303.304 " fill="none" id="AddRequestController-to-PropertyRepository" style="stroke:#181818;stroke-width:0.8000000000000002;stroke-dasharray:7.0,7.0;"/><polygon fill="#181818" points="1384.392,304.28,1378.1697,299.4465,1380.5088,303.3206,1376.6347,305.6597,1384.392,304.28" style="stroke:#181818;stroke-width:0.8000000000000002;"/><text fill="#000000" font-family="sans-serif" font-size="10.4" lengthAdjust="spacing" textLength="87.2" x="1264.8" y="273.6227">propertyRepository</text></g><!--link AdvertisementRequestRepository to AdvertisementRequest--><g id="link_AdvertisementRequestRepository_AdvertisementRequest"><path codeLine="223" d="M454.856,699.216 C443.68,781.688 424,926.8 424,926.8 C424,926.8 424,926.8 424,1266.8 C424,1266.8 424,1351.184 424,1425.816 " fill="none" id="AdvertisementRequestRepository-to-AdvertisementRequest" style="stroke:#181818;stroke-width:0.8000000000000002;"/><polygon fill="#181818" points="424,1430.032,427.2,1422.832,424,1426.032,420.8,1422.832,424,1430.032" style="stroke:#181818;stroke-width:0.8000000000000002;"/><text fill="#000000" font-family="sans-serif" font-size="10.4" lengthAdjust="spacing" textLength="4" x="419.8906" y="1421.331">*</text></g><!--link Store to AdvertisementRequest--><g id="link_Store_AdvertisementRequest"><path codeLine="225" d="M659.928,866.168 C609.688,965.968 509.6,1164.8 509.6,1164.8 C509.6,1164.8 474.888,1316.152 449.672,1426.088 " fill="none" id="Store-to-AdvertisementRequest" style="stroke:#181818;stroke-width:0.8000000000000002;"/><polygon fill="#181818" points="448.704,1430.304,453.4289,1423.9988,449.5959,1426.4047,447.19,1422.5717,448.704,1430.304" style="stroke:#181818;stroke-width:0.8000000000000002;"/></g><!--link Store to RequestType--><g id="link_Store_RequestType"><path codeLine="226" d="M697.992,866.28 C705.056,905.776 714.328,957.624 720.512,992.208 " fill="none" id="Store-to-RequestType" style="stroke:#181818;stroke-width:0.8000000000000002;"/><polygon fill="#181818" points="721.248,996.336,723.1455,988.6888,720.5516,992.3971,716.8433,989.8031,721.248,996.336" style="stroke:#181818;stroke-width:0.8000000000000002;"/><text fill="#000000" font-family="sans-serif" font-size="10.4" lengthAdjust="spacing" textLength="40" x="710.4" y="932.0227">requests</text><text fill="#000000" font-family="sans-serif" font-size="10.4" lengthAdjust="spacing" textLength="4" x="715.9807" y="987.4491">*</text></g><!--link Store to Address--><g id="link_Store_Address"><path codeLine="227" d="M850.216,809.6 C873.792,809.6 897.864,809.6 920.832,809.6 " fill="none" id="Store-to-Address" style="stroke:#181818;stroke-width:0.8000000000000002;"/><polygon fill="#181818" points="925.112,809.6,917.912,806.4,921.112,809.6,917.912,812.8,925.112,809.6" style="stroke:#181818;stroke-width:0.8000000000000002;"/><text fill="#000000" font-family="sans-serif" font-size="10.4" lengthAdjust="spacing" textLength="45.6" x="864.8" y="804.0227">located at</text><text fill="#000000" font-family="sans-serif" font-size="10.4" lengthAdjust="spacing" textLength="4" x="856.6307" y="806.9599">*</text><text fill="#000000" font-family="sans-serif" font-size="10.4" lengthAdjust="spacing" textLength="5.6" x="913.0365" y="806.9069">1</text></g><!--link Agent to Employee--><g id="link_Agent_Employee"><path codeLine="229" d="M1333.192,676.848 C1343.776,735.512 1366.072,859.16 1381.24,943.32 " fill="none" id="Agent-to-Employee" style="stroke:#181818;stroke-width:0.8000000000000002;"/><polygon fill="none" points="1386.752,942.336,1384.08,959.072,1375.736,944.32,1386.752,942.336" style="stroke:#181818;stroke-width:0.8000000000000002;"/></g><!--link RequestType to Property--><g id="link_RequestType_Property"><path codeLine="231" d="M783.52,1064.48 C828.48,1091.048 893.904,1129.704 955.36,1166.024 " fill="none" id="RequestType-to-Property" style="stroke:#181818;stroke-width:0.8000000000000002;"/><polygon fill="#181818" points="959.032,1168.192,954.4634,1161.7726,955.589,1166.1559,951.2057,1167.2815,959.032,1168.192" style="stroke:#181818;stroke-width:0.8000000000000002;"/><text fill="#000000" font-family="sans-serif" font-size="10.4" lengthAdjust="spacing" textLength="16.8" x="901.6" y="1137.6227">has</text><text fill="#000000" font-family="sans-serif" font-size="10.4" lengthAdjust="spacing" textLength="5.6" x="786.4498" y="1082.221">1</text><text fill="#000000" font-family="sans-serif" font-size="10.4" lengthAdjust="spacing" textLength="5.6" x="947.4316" y="1162.0619">1</text></g><!--link RequestType to Client--><g id="link_RequestType_Client"><path codeLine="232" d="M727.2,1064.48 C727.2,1107.592 727.2,1182.552 727.2,1227.656 " fill="none" id="RequestType-to-Client" style="stroke:#181818;stroke-width:0.8000000000000002;"/><polygon fill="#181818" points="727.2,1231.656,730.4,1224.456,727.2,1227.656,724,1224.456,727.2,1231.656" style="stroke:#181818;stroke-width:0.8000000000000002;"/><text fill="#000000" font-family="sans-serif" font-size="10.4" lengthAdjust="spacing" textLength="48.8" x="728" y="1137.6227">created by</text><text fill="#000000" font-family="sans-serif" font-size="10.4" lengthAdjust="spacing" textLength="5.6" x="721.1538" y="1082.221">1</text><text fill="#000000" font-family="sans-serif" font-size="10.4" lengthAdjust="spacing" textLength="5.6" x="721.1713" y="1222.9815">1</text></g><!--reverse link Address to Property--><g id="link_Address_Property"><path codeLine="234" d="M1044.392,900.344 C1040.352,931.696 1036.8,959.2 1036.8,959.2 C1036.8,959.2 1036.8,1101.6 1036.8,1101.6 C1036.8,1101.6 1052.248,1130.856 1070.08,1164.616 " fill="none" id="Address-backto-Property" style="stroke:#181818;stroke-width:0.8000000000000002;"/><polygon fill="#181818" points="1044.944,896.096,1040.8446,902.8247,1044.4296,900.0628,1047.1915,903.6477,1044.944,896.096" style="stroke:#181818;stroke-width:0.8000000000000002;"/><text fill="#000000" font-family="sans-serif" font-size="10.4" lengthAdjust="spacing" textLength="45.6" x="1037.6" y="1034.8227">located at</text><text fill="#000000" font-family="sans-serif" font-size="10.4" lengthAdjust="spacing" textLength="5.6" x="1038.4564" y="913.3134">1</text><text fill="#000000" font-family="sans-serif" font-size="10.4" lengthAdjust="spacing" textLength="4" x="1062.7211" y="1155.6574">*</text></g><!--reverse link Address to Employee--><g id="link_Address_Employee"><path codeLine="235" d="M1190.528,896.928 C1222.616,917.568 1256.48,939.344 1287.28,959.16 " fill="none" id="Address-backto-Employee" style="stroke:#181818;stroke-width:0.8000000000000002;"/><polygon fill="#181818" points="1187.032,894.68,1191.3581,901.2652,1190.3967,896.843,1194.8189,895.8817,1187.032,894.68" style="stroke:#181818;stroke-width:0.8000000000000002;"/><text fill="#000000" font-family="sans-serif" font-size="10.4" lengthAdjust="spacing" textLength="45.6" x="1247.2" y="932.0227">located at</text><text fill="#000000" font-family="sans-serif" font-size="10.4" lengthAdjust="spacing" textLength="5.6" x="1193.0963" y="895.8624">1</text><text fill="#000000" font-family="sans-serif" font-size="10.4" lengthAdjust="spacing" textLength="4" x="1273.6963" y="950.0741">*</text></g><!--reverse link Property to Residence--><g id="link_Property_Residence"><path codeLine="237" d="M1302.88,1309.776 C1505.544,1358.248 1807.2,1430.4 1807.2,1430.4 C1807.2,1430.4 1831.2,1436.24 1868.016,1445.192 " fill="none" id="Property-backto-Residence" style="stroke:#181818;stroke-width:0.8000000000000002;"/><polygon fill="none" points="1301.512,1315.208,1287.256,1306.04,1304.12,1304.312,1301.512,1315.208" style="stroke:#181818;stroke-width:0.8000000000000002;"/></g><!--reverse link Property to PropertyType--><g id="link_Property_PropertyType"><path codeLine="238" d="M945.048,1367.056 C944.888,1367.152 944.8,1367.2 944.8,1367.2 C944.8,1367.2 792.8,1430.4 792.8,1430.4 C792.8,1430.4 761.472,1472.96 738.224,1504.544 " fill="none" id="Property-backto-PropertyType" style="stroke:#181818;stroke-width:0.8000000000000002;"/><polygon fill="none" points="942.408,1362.12,959.096,1359.152,947.904,1371.88,942.408,1362.12" style="stroke:#181818;stroke-width:0.8000000000000002;"/></g><!--link Property to AdvertisementRequest--><g id="link_Property_AdvertisementRequest"><path codeLine="239" d="M959.096,1359.152 C950.192,1364.168 944.8,1367.2 944.8,1367.2 C944.8,1367.2 635.2,1430.4 635.2,1430.4 C635.2,1430.4 631.2,1432.44 624.296,1435.952 " fill="none" id="Property-to-AdvertisementRequest" style="stroke:#181818;stroke-width:0.8000000000000002;"/><polygon fill="#181818" points="620.68,1437.792,628.5474,1437.3637,624.2415,1435.9712,625.6341,1431.6652,620.68,1437.792" style="stroke:#181818;stroke-width:0.8000000000000002;"/></g><!--link Property to Photograph--><g id="link_Property_Photograph"><path codeLine="240" d="M1287.384,1283.92 C1689.68,1325.872 2692,1430.4 2692,1430.4 C2692,1430.4 2719.096,1470.016 2740.408,1501.176 " fill="none" id="Property-to-Photograph" style="stroke:#181818;stroke-width:0.8000000000000002;"/><polygon fill="#181818" points="2742.712,1504.544,2741.3007,1496.7923,2740.459,1501.2388,2736.0125,1500.3971,2742.712,1504.544" style="stroke:#181818;stroke-width:0.8000000000000002;"/><text fill="#000000" font-family="sans-serif" font-size="10.4" lengthAdjust="spacing" textLength="16.8" x="2429.6" y="1403.2227">has</text><text fill="#000000" font-family="sans-serif" font-size="10.4" lengthAdjust="spacing" textLength="11.2" x="2727.1498" y="1495.8829">30</text></g><!--link Residence to AvailableEquipment--><g id="link_Residence_AvailableEquipment"><path codeLine="242" d="M2249.6,1632.664 C2249.6,1657.464 2249.6,1683.6 2249.6,1706.096 " fill="none" id="Residence-to-AvailableEquipment" style="stroke:#181818;stroke-width:0.8000000000000002;"/><polygon fill="#181818" points="2249.6,1710.248,2252.8,1703.048,2249.6,1706.248,2246.4,1703.048,2249.6,1710.248" style="stroke:#181818;stroke-width:0.8000000000000002;"/><text fill="#000000" font-family="sans-serif" font-size="10.4" lengthAdjust="spacing" textLength="16.8" x="2250.4" y="1683.2227">has</text><text fill="#000000" font-family="sans-serif" font-size="10.4" lengthAdjust="spacing" textLength="5.6" x="2243.8206" y="1650.3375">1</text><text fill="#000000" font-family="sans-serif" font-size="10.4" lengthAdjust="spacing" textLength="4" x="2245.3938" y="1701.3451">*</text></g><!--link AddressRepository to Address--><g id="link_AddressRepository_Address"><path codeLine="244" d="M1051.72,473.4 C1052.472,531.896 1053.856,640.832 1054.848,718.688 " fill="none" id="AddressRepository-to-Address" style="stroke:#181818;stroke-width:0.8000000000000002;"/><polygon fill="#181818" points="1054.904,722.84,1058.0008,715.595,1054.8469,718.8404,1051.6015,715.6864,1054.904,722.84" style="stroke:#181818;stroke-width:0.8000000000000002;"/><text fill="#000000" font-family="sans-serif" font-size="10.4" lengthAdjust="spacing" textLength="4" x="1050.696" y="714.1954">*</text></g><!--link AgentListRepository to Agent--><g id="link_AgentListRepository_Agent"><path codeLine="246" d="M1299.512,473.312 C1305.776,511.472 1315.04,567.912 1321.096,604.824 " fill="none" id="AgentListRepository-to-Agent" style="stroke:#181818;stroke-width:0.8000000000000002;"/><polygon fill="#181818" points="1321.744,608.776,1323.7275,601.1507,1321.092,604.8295,1317.4131,602.1939,1321.744,608.776" style="stroke:#181818;stroke-width:0.8000000000000002;"/><text fill="#000000" font-family="sans-serif" font-size="10.4" lengthAdjust="spacing" textLength="4" x="1316.5557" y="599.8954">*</text></g><!--link PropertyRepository to Property--><g id="link_PropertyRepository_Property"><path codeLine="248" d="M1857.952,562.616 C1804.656,757.296 1710.4,1101.6 1710.4,1101.6 C1710.4,1101.6 1465.144,1169.928 1291.632,1218.272 " fill="none" id="PropertyRepository-to-Property" style="stroke:#181818;stroke-width:0.8000000000000002;"/><polygon fill="#181818" points="1287.552,1219.408,1295.347,1220.5559,1291.4049,1218.3333,1293.6275,1214.3912,1287.552,1219.408" style="stroke:#181818;stroke-width:0.8000000000000002;"/><text fill="#000000" font-family="sans-serif" font-size="10.4" lengthAdjust="spacing" textLength="4" x="1293.5303" y="1215.1185">*</text></g><!--link House to Residence--><g id="link_House_Residence"><path codeLine="250" d="M1793.312,1538.8 C1797.416,1538.8 1801.504,1538.8 1805.568,1538.8 " fill="none" id="House-to-Residence" style="stroke:#181818;stroke-width:0.8000000000000002;"/><polygon fill="none" points="1805.568,1533.2,1821.568,1538.8,1805.568,1544.4,1805.568,1533.2" style="stroke:#181818;stroke-width:0.8000000000000002;"/></g><!--SRC=[xLX9Rnit5BxFho1yyRYMWXIz3Gm1ZkB21WB7a9DBYnve3IqH6Gqd7CgnqkI_XpiV5ybkMY0jK1yCyMryV1k_uV7uWVO3vdY3DgndopLd6u84tv8gS0Qy_81Nv5RiEe8uMGhShpeeCAvnopxHVeNkSJT2JaTx8dO3GGFhTcfH7HUOZ0jM0QrbXyVnN0XExxQ2N2rPVqi_4_IogeuxSY-GO8ZJrLgWbYftAEkhIkkWMy4uMP21ZLJ-sg4_AoJ_fcXKzF4D7KM3rFypBJZJt5Eq8kBM2zGdbih9IYu9rwmQjwqK62U8jXCqh5bFhhUREy8dg2KZNVLOkJ51P8DfTsvadQ47tD4M2r9hBnnL6ZIMBVMhEyCDPmFXObSunc1Ob8ps64vsPWNajhGb_T8BB1p1IQpPTlJSIxK0KRZnzdqK9DNRYAXQDr3S8Pr7jVLrbmfuQxLtDXNHfcljAOZMNikITy2ev1RiBJc1pcAvb9cKCS5IzLVP1NCgTZhHWgqu7jOJv2jWu7IP60hxxxMabFOOx7KblI8jPsmJrbYi8y8Dvh95LhUo7uaauWTPQlYk8nSVjtJOa5x4FfbJ_qX_P3iygXQI6x_28qb8RzYzN8xR_k9H5lfMzK1eWlFsGHMYKLgGZrioYhYR6zFibYJdKozx-s8pT6n7IDmlkyOtLS9u9yTFOAgLRoIzfU4lmi96kEIUQUI9SMNYjvX4cqsWvPEiytQmmynu08HpPRb-GWiU9kvYlsyDfessgOP1OTnWnxFZGilEGbyPVxHKmSk3kIpjLX1pWwfa0ioj4ZiVJSMabNO5e-ClwxXvO2JXTJ11tr4WSPxsTq1KC5vftj6WTMgNTOytglEbm21ltZdchRlA17vqFsFFmONdWzFltdxg2R_4uuMIhUEhBpYUZOMGSShdh6-fkZhb86dGLIyiQodbEEukPJ0Zpcd1NftOcIJQi3PZITWVyqWdhbzzfgna0qIm4d82S4B4jOxlKevPy-ip7UQi9MOAox4RrvVHn6N8aB6_HaW7z8xcDyvNIoPs788UTXFITKy1tKI09e8w9NIZsyzu2KXkcn46qaTG0WplEYH22rUzkRBg4zH4Gjc-8J7Pi8m7MpPSzsWUd5T9PLY-h2h1MTSHxekZn7ok1uTzFtpkfxpFRee30OeHCVGi0xCt7acyNrozOrfcW3G8DXJtP4yJkIw1BGGRoxRJ_qZktupamjUCTojynNZIgAumBdV-_GzGbfuTpmv_Atf3uAOiMW8wqHnonHB6fmnjWrwphJopHuWogWajZNsguXrtpXoQpgSegLcRnsULBkn8gHntDLr6mEzrOZ0IXh4kpFCiP57y8Muffn8AnDcqNUPjnPKAeK1Iipahgbx8pkkuAS07w-wFQFmr7cFOeKa9I3dvHnmCQBFiQkGPg8NhIBhEEUw8EIio6TLN3k50RUXfv-iYcpiDeZx1qGI2332BebuyHV_1MPe_nFXWql4YjLNYAQFHtHxC5u0k-CfmjsuoqDp5d93jpPnGtNsU9E8xCRD69auZmkzM5z9-CrRIQQZimNCxiEeFplWAz_IpXi0BriaJlKqeXt5tuVFCxV4tlxuccM-WGYD89i-QEbqVnkpPvsD0iE-lP6mK8uBmqraCwLK7cewggaZtnQo8Xg4K0D0lChCSml_41-d4qSz7wSjlMIW3pdl4SlXT5imHT5MbJz1QzYVhuFuJfsgDoIQml4yp_pnjN4ayHxlm_jE4bvydBMW73hxlDCMNdMSTB5Th7EZRgvNdfF6N7ypJ4rwxj9N4R9ArJ94VsCe4XAxU_z48ANvSd5AaOqk9-bk4vKxctMSw_J8BZviLjAXKqtgKDYIEs2jcduKQ-tdHeZiT3xEz4ZYRQiU1EU1IB6Wa_GIDdVS6phvCfm709FJe-TMpzWOtaZZwvUKH_COm1wy2llJdLhdCdwAiVDv38Vzci5UbHd4oYXLEcmlur-VAW1kLpH2DRm00]--></g></svg>