<?xml version="1.0" encoding="us-ascii" standalone="no"?><svg xmlns="http://www.w3.org/2000/svg" xmlns:xlink="http://www.w3.org/1999/xlink" contentStyleType="text/css" height="1661px" preserveAspectRatio="none" style="width:711px;height:1661px;background:#FFFFFF;" version="1.1" viewBox="0 0 711 1661" width="711px" zoomAndPan="magnify"><defs/><g><text fill="#000000" font-family="sans-serif" font-size="14" font-weight="bold" lengthAdjust="spacing" textLength="284" x="215.25" y="27.6738">System Sequence Diagram (SSD) - US002</text><rect fill="#FFFFFF" height="1445.2266" style="stroke:#181818;stroke-width:1.0;" width="10" x="56.5" y="127.2813"/><rect fill="#FFFFFF" height="28.5234" style="stroke:#181818;stroke-width:1.0;" width="10" x="638.5" y="147.8047"/><rect fill="#FFFFFF" height="28.5234" style="stroke:#181818;stroke-width:1.0;" width="10" x="638.5" y="204.8516"/><rect fill="#FFFFFF" height="52.0469" style="stroke:#181818;stroke-width:1.0;" width="10" x="638.5" y="261.8984"/><rect fill="#FFFFFF" height="42.8125" style="stroke:#181818;stroke-width:1.0;" width="10" x="638.5" y="342.4688"/><rect fill="#FFFFFF" height="35.5234" style="stroke:#181818;stroke-width:1.0;" width="10" x="638.5" y="413.8047"/><rect fill="#FFFFFF" height="28.5234" style="stroke:#181818;stroke-width:1.0;" width="10" x="638.5" y="477.8516"/><rect fill="#FFFFFF" height="28.5234" style="stroke:#181818;stroke-width:1.0;" width="10" x="638.5" y="534.8984"/><rect fill="#FFFFFF" height="52.0469" style="stroke:#181818;stroke-width:1.0;" width="10" x="638.5" y="591.9453"/><rect fill="#FFFFFF" height="59.0469" style="stroke:#181818;stroke-width:1.0;" width="10" x="638.5" y="672.5156"/><rect fill="#FFFFFF" height="52.0469" style="stroke:#181818;stroke-width:1.0;" width="10" x="638.5" y="760.0859"/><rect fill="#FFFFFF" height="82.5703" style="stroke:#181818;stroke-width:1.0;" width="10" x="638.5" y="840.6563"/><rect fill="#FFFFFF" height="66.0469" style="stroke:#181818;stroke-width:1.0;" width="10" x="638.5" y="951.75"/><rect fill="#FFFFFF" height="28.5234" style="stroke:#181818;stroke-width:1.0;" width="10" x="638.5" y="1046.3203"/><rect fill="#FFFFFF" height="52.0469" style="stroke:#181818;stroke-width:1.0;" width="10" x="638.5" y="1103.3672"/><rect fill="#FFFFFF" height="49.5234" style="stroke:#181818;stroke-width:1.0;" width="10" x="638.5" y="1183.9375"/><rect fill="#FFFFFF" height="52.0469" style="stroke:#181818;stroke-width:1.0;" width="10" x="638.5" y="1261.9844"/><rect fill="#FFFFFF" height="42.8125" style="stroke:#181818;stroke-width:1.0;" width="10" x="638.5" y="1342.5547"/><rect fill="#FFFFFF" height="35.5234" style="stroke:#181818;stroke-width:1.0;" width="10" x="638.5" y="1413.8906"/><rect fill="#FFFFFF" height="28.5234" style="stroke:#181818;stroke-width:1.0;" width="10" x="638.5" y="1477.9375"/><rect fill="#FFFFFF" height="28.5234" style="stroke:#181818;stroke-width:1.0;" width="10" x="638.5" y="1534.9844"/><rect fill="none" height="144.9063" style="stroke:#000000;stroke-width:1.5;" width="655.5" x="30" y="276.8984"/><rect fill="none" height="73.5703" style="stroke:#000000;stroke-width:1.5;" width="655.5" x="30" y="606.9453"/><rect fill="none" height="511.4219" style="stroke:#000000;stroke-width:1.5;" width="695.5" x="10" y="694.5156"/><rect fill="none" height="73.5703" style="stroke:#000000;stroke-width:1.5;" width="655.5" x="30" y="775.0859"/><rect fill="none" height="104.0938" style="stroke:#000000;stroke-width:1.5;" width="675.5" x="20" y="862.6563"/><rect fill="none" height="73.5703" style="stroke:#000000;stroke-width:1.5;" width="655.5" x="30" y="886.1797"/><rect fill="none" height="218.1875" style="stroke:#000000;stroke-width:1.5;" width="675.5" x="20" y="980.75"/><rect fill="none" height="73.5703" style="stroke:#000000;stroke-width:1.5;" width="655.5" x="30" y="1118.3672"/><rect fill="none" height="144.9063" style="stroke:#000000;stroke-width:1.5;" width="655.5" x="30" y="1276.9844"/><line style="stroke:#181818;stroke-width:0.5;stroke-dasharray:5.0,5.0;" x1="61" x2="61" y1="117.2813" y2="1581.5078"/><line style="stroke:#181818;stroke-width:0.5;stroke-dasharray:5.0,5.0;" x1="643.5" x2="643.5" y1="117.2813" y2="1581.5078"/><text fill="#000000" font-family="sans-serif" font-size="14" lengthAdjust="spacing" textLength="37" x="40" y="114.3145">Agent</text><ellipse cx="61.5" cy="50.1406" fill="#E3E3E3" rx="8" ry="8" style="stroke:#181818;stroke-width:0.5;"/><path d="M61.5,58.1406 L61.5,85.1406 M48.5,66.1406 L74.5,66.1406 M61.5,85.1406 L48.5,100.1406 M61.5,85.1406 L74.5,100.1406 " fill="none" style="stroke:#181818;stroke-width:0.5;"/><text fill="#000000" font-family="sans-serif" font-size="14" lengthAdjust="spacing" textLength="37" x="40" y="1593.1816">Agent</text><ellipse cx="61.5" cy="1604.6484" fill="#E3E3E3" rx="8" ry="8" style="stroke:#181818;stroke-width:0.5;"/><path d="M61.5,1612.6484 L61.5,1639.6484 M48.5,1620.6484 L74.5,1620.6484 M61.5,1639.6484 L48.5,1654.6484 M61.5,1639.6484 L74.5,1654.6484 " fill="none" style="stroke:#181818;stroke-width:0.5;"/><rect fill="#E3E3E3" height="29.6406" rx="2.5" ry="2.5" style="stroke:#181818;stroke-width:0.5;" width="64" x="611.5" y="86.6406"/><text fill="#000000" font-family="sans-serif" font-size="14" lengthAdjust="spacing" textLength="50" x="618.5" y="106.3145">:System</text><rect fill="#E3E3E3" height="29.6406" rx="2.5" ry="2.5" style="stroke:#181818;stroke-width:0.5;" width="64" x="611.5" y="1580.5078"/><text fill="#000000" font-family="sans-serif" font-size="14" lengthAdjust="spacing" textLength="50" x="618.5" y="1600.1816">:System</text><rect fill="#FFFFFF" height="1445.2266" style="stroke:#181818;stroke-width:1.0;" width="10" x="56.5" y="127.2813"/><rect fill="#FFFFFF" height="28.5234" style="stroke:#181818;stroke-width:1.0;" width="10" x="638.5" y="147.8047"/><rect fill="#FFFFFF" height="28.5234" style="stroke:#181818;stroke-width:1.0;" width="10" x="638.5" y="204.8516"/><rect fill="#FFFFFF" height="52.0469" style="stroke:#181818;stroke-width:1.0;" width="10" x="638.5" y="261.8984"/><rect fill="#FFFFFF" height="42.8125" style="stroke:#181818;stroke-width:1.0;" width="10" x="638.5" y="342.4688"/><rect fill="#FFFFFF" height="35.5234" style="stroke:#181818;stroke-width:1.0;" width="10" x="638.5" y="413.8047"/><rect fill="#FFFFFF" height="28.5234" style="stroke:#181818;stroke-width:1.0;" width="10" x="638.5" y="477.8516"/><rect fill="#FFFFFF" height="28.5234" style="stroke:#181818;stroke-width:1.0;" width="10" x="638.5" y="534.8984"/><rect fill="#FFFFFF" height="52.0469" style="stroke:#181818;stroke-width:1.0;" width="10" x="638.5" y="591.9453"/><rect fill="#FFFFFF" height="59.0469" style="stroke:#181818;stroke-width:1.0;" width="10" x="638.5" y="672.5156"/><rect fill="#FFFFFF" height="52.0469" style="stroke:#181818;stroke-width:1.0;" width="10" x="638.5" y="760.0859"/><rect fill="#FFFFFF" height="82.5703" style="stroke:#181818;stroke-width:1.0;" width="10" x="638.5" y="840.6563"/><rect fill="#FFFFFF" height="66.0469" style="stroke:#181818;stroke-width:1.0;" width="10" x="638.5" y="951.75"/><rect fill="#FFFFFF" height="28.5234" style="stroke:#181818;stroke-width:1.0;" width="10" x="638.5" y="1046.3203"/><rect fill="#FFFFFF" height="52.0469" style="stroke:#181818;stroke-width:1.0;" width="10" x="638.5" y="1103.3672"/><rect fill="#FFFFFF" height="49.5234" style="stroke:#181818;stroke-width:1.0;" width="10" x="638.5" y="1183.9375"/><rect fill="#FFFFFF" height="52.0469" style="stroke:#181818;stroke-width:1.0;" width="10" x="638.5" y="1261.9844"/><rect fill="#FFFFFF" height="42.8125" style="stroke:#181818;stroke-width:1.0;" width="10" x="638.5" y="1342.5547"/><rect fill="#FFFFFF" height="35.5234" style="stroke:#181818;stroke-width:1.0;" width="10" x="638.5" y="1413.8906"/><rect fill="#FFFFFF" height="28.5234" style="stroke:#181818;stroke-width:1.0;" width="10" x="638.5" y="1477.9375"/><rect fill="#FFFFFF" height="28.5234" style="stroke:#181818;stroke-width:1.0;" width="10" x="638.5" y="1534.9844"/><polygon fill="#181818" points="626.5,143.8047,636.5,147.8047,626.5,151.8047,630.5,147.8047" style="stroke:#181818;stroke-width:1.0;"/><line style="stroke:#181818;stroke-width:1.0;" x1="66.5" x2="632.5" y1="147.8047" y2="147.8047"/><text fill="#000000" font-family="sans-serif" font-size="13" font-weight="bold" lengthAdjust="spacing" textLength="7" x="73.5" y="143.0498">1</text><text fill="#000000" font-family="sans-serif" font-size="13" lengthAdjust="spacing" textLength="211" x="84.5" y="143.0498">Ask to publish a sale announcement</text><polygon fill="#181818" points="77.5,172.3281,67.5,176.3281,77.5,180.3281,73.5,176.3281" style="stroke:#181818;stroke-width:1.0;"/><line style="stroke:#181818;stroke-width:1.0;stroke-dasharray:2.0,2.0;" x1="71.5" x2="642.5" y1="176.3281" y2="176.3281"/><text fill="#000000" font-family="sans-serif" font-size="13" font-weight="bold" lengthAdjust="spacing" textLength="7" x="83.5" y="171.5732">2</text><text fill="#000000" font-family="sans-serif" font-size="13" lengthAdjust="spacing" textLength="239" x="94.5" y="171.5732">Request data (i.e. owner's email address)</text><polygon fill="#181818" points="626.5,200.8516,636.5,204.8516,626.5,208.8516,630.5,204.8516" style="stroke:#181818;stroke-width:1.0;"/><line style="stroke:#181818;stroke-width:1.0;" x1="66.5" x2="632.5" y1="204.8516" y2="204.8516"/><text fill="#000000" font-family="sans-serif" font-size="13" font-weight="bold" lengthAdjust="spacing" textLength="7" x="73.5" y="200.0967">3</text><text fill="#000000" font-family="sans-serif" font-size="13" lengthAdjust="spacing" textLength="118" x="84.5" y="200.0967">Type requested data</text><polygon fill="#181818" points="77.5,229.375,67.5,233.375,77.5,237.375,73.5,233.375" style="stroke:#181818;stroke-width:1.0;"/><line style="stroke:#181818;stroke-width:1.0;stroke-dasharray:2.0,2.0;" x1="71.5" x2="642.5" y1="233.375" y2="233.375"/><text fill="#000000" font-family="sans-serif" font-size="13" font-weight="bold" lengthAdjust="spacing" textLength="7" x="83.5" y="228.6201">4</text><text fill="#000000" font-family="sans-serif" font-size="13" lengthAdjust="spacing" textLength="371" x="94.5" y="228.6201">Show type of request list (i.e. sale or rent) and ask to select one</text><polygon fill="#181818" points="626.5,257.8984,636.5,261.8984,626.5,265.8984,630.5,261.8984" style="stroke:#181818;stroke-width:1.0;"/><line style="stroke:#181818;stroke-width:1.0;" x1="66.5" x2="632.5" y1="261.8984" y2="261.8984"/><text fill="#000000" font-family="sans-serif" font-size="13" font-weight="bold" lengthAdjust="spacing" textLength="7" x="73.5" y="257.1436">5</text><text fill="#000000" font-family="sans-serif" font-size="13" lengthAdjust="spacing" textLength="127" x="84.5" y="257.1436">Select type of request</text><path d="M30,276.8984 L91,276.8984 L91,283.4219 L81,293.4219 L30,293.4219 L30,276.8984 " fill="#EEEEEE" style="stroke:#000000;stroke-width:1.5;"/><rect fill="none" height="144.9063" style="stroke:#000000;stroke-width:1.5;" width="655.5" x="30" y="276.8984"/><text fill="#000000" font-family="sans-serif" font-size="13" font-weight="bold" lengthAdjust="spacing" textLength="16" x="45" y="289.667">alt</text><text fill="#000000" font-family="sans-serif" font-size="11" font-weight="bold" lengthAdjust="spacing" textLength="120" x="106" y="288.8564">[Request type is sale]</text><polygon fill="#181818" points="77.5,309.9453,67.5,313.9453,77.5,317.9453,73.5,313.9453" style="stroke:#181818;stroke-width:1.0;"/><line style="stroke:#181818;stroke-width:1.0;stroke-dasharray:2.0,2.0;" x1="71.5" x2="642.5" y1="313.9453" y2="313.9453"/><text fill="#000000" font-family="sans-serif" font-size="13" font-weight="bold" lengthAdjust="spacing" textLength="7" x="83.5" y="309.1904">6</text><text fill="#000000" font-family="sans-serif" font-size="13" lengthAdjust="spacing" textLength="168" x="94.5" y="309.1904">Request data (i.e. total price)</text><polygon fill="#181818" points="626.5,338.4688,636.5,342.4688,626.5,346.4688,630.5,342.4688" style="stroke:#181818;stroke-width:1.0;"/><line style="stroke:#181818;stroke-width:1.0;" x1="66.5" x2="632.5" y1="342.4688" y2="342.4688"/><text fill="#000000" font-family="sans-serif" font-size="13" font-weight="bold" lengthAdjust="spacing" textLength="7" x="73.5" y="337.7139">7</text><text fill="#000000" font-family="sans-serif" font-size="13" lengthAdjust="spacing" textLength="118" x="84.5" y="337.7139">Type requested data</text><line style="stroke:#000000;stroke-width:1.0;stroke-dasharray:2.0,2.0;" x1="30" x2="685.5" y1="351.4688" y2="351.4688"/><text fill="#000000" font-family="sans-serif" font-size="11" font-weight="bold" lengthAdjust="spacing" textLength="120" x="35" y="361.4268">[Request type is rent]</text><polygon fill="#181818" points="77.5,381.2813,67.5,385.2813,77.5,389.2813,73.5,385.2813" style="stroke:#181818;stroke-width:1.0;"/><line style="stroke:#181818;stroke-width:1.0;stroke-dasharray:2.0,2.0;" x1="71.5" x2="642.5" y1="385.2813" y2="385.2813"/><text fill="#000000" font-family="sans-serif" font-size="13" font-weight="bold" lengthAdjust="spacing" textLength="7" x="83.5" y="380.5264">8</text><text fill="#000000" font-family="sans-serif" font-size="13" lengthAdjust="spacing" textLength="201" x="94.5" y="380.5264">Request data (i.e. price per month)</text><polygon fill="#181818" points="626.5,409.8047,636.5,413.8047,626.5,417.8047,630.5,413.8047" style="stroke:#181818;stroke-width:1.0;"/><line style="stroke:#181818;stroke-width:1.0;" x1="66.5" x2="632.5" y1="413.8047" y2="413.8047"/><text fill="#000000" font-family="sans-serif" font-size="13" font-weight="bold" lengthAdjust="spacing" textLength="7" x="73.5" y="409.0498">9</text><text fill="#000000" font-family="sans-serif" font-size="13" lengthAdjust="spacing" textLength="118" x="84.5" y="409.0498">Type requested data</text><polygon fill="#181818" points="77.5,445.3281,67.5,449.3281,77.5,453.3281,73.5,449.3281" style="stroke:#181818;stroke-width:1.0;"/><line style="stroke:#181818;stroke-width:1.0;stroke-dasharray:2.0,2.0;" x1="71.5" x2="642.5" y1="449.3281" y2="449.3281"/><text fill="#000000" font-family="sans-serif" font-size="13" font-weight="bold" lengthAdjust="spacing" textLength="14" x="83.5" y="444.5732">10</text><text fill="#000000" font-family="sans-serif" font-size="13" lengthAdjust="spacing" textLength="454" x="101.5" y="444.5732">Show type of property list (i.e. house, apartment or land) and ask to select one</text><polygon fill="#181818" points="626.5,473.8516,636.5,477.8516,626.5,481.8516,630.5,477.8516" style="stroke:#181818;stroke-width:1.0;"/><line style="stroke:#181818;stroke-width:1.0;" x1="66.5" x2="632.5" y1="477.8516" y2="477.8516"/><text fill="#000000" font-family="sans-serif" font-size="13" font-weight="bold" lengthAdjust="spacing" textLength="14" x="73.5" y="473.0967">11</text><text fill="#000000" font-family="sans-serif" font-size="13" lengthAdjust="spacing" textLength="131" x="91.5" y="473.0967">Select type of property</text><polygon fill="#181818" points="77.5,502.375,67.5,506.375,77.5,510.375,73.5,506.375" style="stroke:#181818;stroke-width:1.0;"/><line style="stroke:#181818;stroke-width:1.0;stroke-dasharray:2.0,2.0;" x1="71.5" x2="642.5" y1="506.375" y2="506.375"/><text fill="#000000" font-family="sans-serif" font-size="13" font-weight="bold" lengthAdjust="spacing" textLength="14" x="83.5" y="501.6201">12</text><text fill="#000000" font-family="sans-serif" font-size="13" lengthAdjust="spacing" textLength="396" x="101.5" y="501.6201">Request data (i.e. area (m2), distance from the city centre and price)</text><polygon fill="#181818" points="626.5,530.8984,636.5,534.8984,626.5,538.8984,630.5,534.8984" style="stroke:#181818;stroke-width:1.0;"/><line style="stroke:#181818;stroke-width:1.0;" x1="66.5" x2="632.5" y1="534.8984" y2="534.8984"/><text fill="#000000" font-family="sans-serif" font-size="13" font-weight="bold" lengthAdjust="spacing" textLength="14" x="73.5" y="530.1436">13</text><text fill="#000000" font-family="sans-serif" font-size="13" lengthAdjust="spacing" textLength="118" x="91.5" y="530.1436">Type requested data</text><polygon fill="#181818" points="77.5,559.4219,67.5,563.4219,77.5,567.4219,73.5,563.4219" style="stroke:#181818;stroke-width:1.0;"/><line style="stroke:#181818;stroke-width:1.0;stroke-dasharray:2.0,2.0;" x1="71.5" x2="642.5" y1="563.4219" y2="563.4219"/><text fill="#000000" font-family="sans-serif" font-size="13" font-weight="bold" lengthAdjust="spacing" textLength="14" x="83.5" y="558.667">14</text><text fill="#000000" font-family="sans-serif" font-size="13" lengthAdjust="spacing" textLength="450" x="101.5" y="558.667">Request data (i.e. address (i.e. street name, city name, zip code and district))</text><polygon fill="#181818" points="626.5,587.9453,636.5,591.9453,626.5,595.9453,630.5,591.9453" style="stroke:#181818;stroke-width:1.0;"/><line style="stroke:#181818;stroke-width:1.0;" x1="66.5" x2="632.5" y1="591.9453" y2="591.9453"/><text fill="#000000" font-family="sans-serif" font-size="13" font-weight="bold" lengthAdjust="spacing" textLength="14" x="73.5" y="587.1904">15</text><text fill="#000000" font-family="sans-serif" font-size="13" lengthAdjust="spacing" textLength="118" x="91.5" y="587.1904">Type requested data</text><path d="M30,606.9453 L103,606.9453 L103,613.4688 L93,623.4688 L30,623.4688 L30,606.9453 " fill="#EEEEEE" style="stroke:#000000;stroke-width:1.5;"/><rect fill="none" height="73.5703" style="stroke:#000000;stroke-width:1.5;" width="655.5" x="30" y="606.9453"/><text fill="#000000" font-family="sans-serif" font-size="13" font-weight="bold" lengthAdjust="spacing" textLength="28" x="45" y="619.7139">loop</text><text fill="#000000" font-family="sans-serif" font-size="11" font-weight="bold" lengthAdjust="spacing" textLength="160" x="118" y="618.9033">[For at least one photograph]</text><polygon fill="#181818" points="77.5,639.9922,67.5,643.9922,77.5,647.9922,73.5,643.9922" style="stroke:#181818;stroke-width:1.0;"/><line style="stroke:#181818;stroke-width:1.0;stroke-dasharray:2.0,2.0;" x1="71.5" x2="642.5" y1="643.9922" y2="643.9922"/><text fill="#000000" font-family="sans-serif" font-size="13" font-weight="bold" lengthAdjust="spacing" textLength="14" x="83.5" y="639.2373">16</text><text fill="#000000" font-family="sans-serif" font-size="13" lengthAdjust="spacing" textLength="132" x="101.5" y="639.2373">Request data (i.e. URI)</text><polygon fill="#181818" points="626.5,668.5156,636.5,672.5156,626.5,676.5156,630.5,672.5156" style="stroke:#181818;stroke-width:1.0;"/><line style="stroke:#181818;stroke-width:1.0;" x1="66.5" x2="632.5" y1="672.5156" y2="672.5156"/><text fill="#000000" font-family="sans-serif" font-size="13" font-weight="bold" lengthAdjust="spacing" textLength="14" x="73.5" y="667.7607">17</text><text fill="#000000" font-family="sans-serif" font-size="13" lengthAdjust="spacing" textLength="118" x="91.5" y="667.7607">Type requested data</text><path d="M10,694.5156 L71,694.5156 L71,701.0391 L61,711.0391 L10,711.0391 L10,694.5156 " fill="#EEEEEE" style="stroke:#000000;stroke-width:1.5;"/><rect fill="none" height="511.4219" style="stroke:#000000;stroke-width:1.5;" width="695.5" x="10" y="694.5156"/><text fill="#000000" font-family="sans-serif" font-size="13" font-weight="bold" lengthAdjust="spacing" textLength="16" x="25" y="707.2842">alt</text><text fill="#000000" font-family="sans-serif" font-size="11" font-weight="bold" lengthAdjust="spacing" textLength="169" x="86" y="706.4736">[Property is Apartment/House]</text><polygon fill="#181818" points="77.5,727.5625,67.5,731.5625,77.5,735.5625,73.5,731.5625" style="stroke:#181818;stroke-width:1.0;"/><line style="stroke:#181818;stroke-width:1.0;stroke-dasharray:2.0,2.0;" x1="71.5" x2="642.5" y1="731.5625" y2="731.5625"/><text fill="#000000" font-family="sans-serif" font-size="13" font-weight="bold" lengthAdjust="spacing" textLength="14" x="83.5" y="726.8076">18</text><text fill="#000000" font-family="sans-serif" font-size="13" lengthAdjust="spacing" textLength="346" x="101.5" y="726.8076">Request data (i.e. number of bedrooms and parking spaces)</text><polygon fill="#181818" points="626.5,756.0859,636.5,760.0859,626.5,764.0859,630.5,760.0859" style="stroke:#181818;stroke-width:1.0;"/><line style="stroke:#181818;stroke-width:1.0;" x1="66.5" x2="632.5" y1="760.0859" y2="760.0859"/><text fill="#000000" font-family="sans-serif" font-size="13" font-weight="bold" lengthAdjust="spacing" textLength="14" x="73.5" y="755.3311">19</text><text fill="#000000" font-family="sans-serif" font-size="13" lengthAdjust="spacing" textLength="118" x="91.5" y="755.3311">Type requested data</text><path d="M30,775.0859 L95,775.0859 L95,781.6094 L85,791.6094 L30,791.6094 L30,775.0859 " fill="#EEEEEE" style="stroke:#000000;stroke-width:1.5;"/><rect fill="none" height="73.5703" style="stroke:#000000;stroke-width:1.5;" width="655.5" x="30" y="775.0859"/><text fill="#000000" font-family="sans-serif" font-size="13" font-weight="bold" lengthAdjust="spacing" textLength="20" x="45" y="787.8545">opt</text><text fill="#000000" font-family="sans-serif" font-size="11" font-weight="bold" lengthAdjust="spacing" textLength="127" x="110" y="787.0439">[If intended to indicate]</text><polygon fill="#181818" points="77.5,808.1328,67.5,812.1328,77.5,816.1328,73.5,812.1328" style="stroke:#181818;stroke-width:1.0;"/><line style="stroke:#181818;stroke-width:1.0;stroke-dasharray:2.0,2.0;" x1="71.5" x2="642.5" y1="812.1328" y2="812.1328"/><text fill="#000000" font-family="sans-serif" font-size="13" font-weight="bold" lengthAdjust="spacing" textLength="14" x="83.5" y="807.3779">20</text><text fill="#000000" font-family="sans-serif" font-size="13" lengthAdjust="spacing" textLength="233" x="101.5" y="807.3779">Request data (i.e. number of bathrooms)</text><polygon fill="#181818" points="626.5,836.6563,636.5,840.6563,626.5,844.6563,630.5,840.6563" style="stroke:#181818;stroke-width:1.0;"/><line style="stroke:#181818;stroke-width:1.0;" x1="66.5" x2="632.5" y1="840.6563" y2="840.6563"/><text fill="#000000" font-family="sans-serif" font-size="13" font-weight="bold" lengthAdjust="spacing" textLength="14" x="73.5" y="835.9014">21</text><text fill="#000000" font-family="sans-serif" font-size="13" lengthAdjust="spacing" textLength="118" x="91.5" y="835.9014">Type requested data</text><path d="M20,862.6563 L85,862.6563 L85,869.1797 L75,879.1797 L20,879.1797 L20,862.6563 " fill="#EEEEEE" style="stroke:#000000;stroke-width:1.5;"/><rect fill="none" height="104.0938" style="stroke:#000000;stroke-width:1.5;" width="675.5" x="20" y="862.6563"/><text fill="#000000" font-family="sans-serif" font-size="13" font-weight="bold" lengthAdjust="spacing" textLength="20" x="35" y="875.4248">opt</text><text fill="#000000" font-family="sans-serif" font-size="11" font-weight="bold" lengthAdjust="spacing" textLength="127" x="100" y="874.6143">[If intended to indicate]</text><path d="M30,886.1797 L103,886.1797 L103,892.7031 L93,902.7031 L30,902.7031 L30,886.1797 " fill="#EEEEEE" style="stroke:#000000;stroke-width:1.5;"/><rect fill="none" height="73.5703" style="stroke:#000000;stroke-width:1.5;" width="655.5" x="30" y="886.1797"/><text fill="#000000" font-family="sans-serif" font-size="13" font-weight="bold" lengthAdjust="spacing" textLength="28" x="45" y="898.9482">loop</text><text fill="#000000" font-family="sans-serif" font-size="11" font-weight="bold" lengthAdjust="spacing" textLength="218" x="118" y="898.1377">[For none or more available equipment]</text><polygon fill="#181818" points="77.5,919.2266,67.5,923.2266,77.5,927.2266,73.5,923.2266" style="stroke:#181818;stroke-width:1.0;"/><line style="stroke:#181818;stroke-width:1.0;stroke-dasharray:2.0,2.0;" x1="71.5" x2="642.5" y1="923.2266" y2="923.2266"/><text fill="#000000" font-family="sans-serif" font-size="13" font-weight="bold" lengthAdjust="spacing" textLength="14" x="83.5" y="918.4717">22</text><text fill="#000000" font-family="sans-serif" font-size="13" lengthAdjust="spacing" textLength="417" x="101.5" y="918.4717">Show list (i.e. central heating and air conditioning) and ask to select one</text><polygon fill="#181818" points="626.5,947.75,636.5,951.75,626.5,955.75,630.5,951.75" style="stroke:#181818;stroke-width:1.0;"/><line style="stroke:#181818;stroke-width:1.0;" x1="66.5" x2="632.5" y1="951.75" y2="951.75"/><text fill="#000000" font-family="sans-serif" font-size="13" font-weight="bold" lengthAdjust="spacing" textLength="14" x="73.5" y="946.9951">23</text><text fill="#000000" font-family="sans-serif" font-size="13" lengthAdjust="spacing" textLength="76" x="91.5" y="946.9951">Select option</text><path d="M20,980.75 L81,980.75 L81,987.2734 L71,997.2734 L20,997.2734 L20,980.75 " fill="#EEEEEE" style="stroke:#000000;stroke-width:1.5;"/><rect fill="none" height="218.1875" style="stroke:#000000;stroke-width:1.5;" width="675.5" x="20" y="980.75"/><text fill="#000000" font-family="sans-serif" font-size="13" font-weight="bold" lengthAdjust="spacing" textLength="16" x="35" y="993.5186">alt</text><text fill="#000000" font-family="sans-serif" font-size="11" font-weight="bold" lengthAdjust="spacing" textLength="107" x="96" y="992.708">[Property is House]</text><polygon fill="#181818" points="77.5,1013.7969,67.5,1017.7969,77.5,1021.7969,73.5,1017.7969" style="stroke:#181818;stroke-width:1.0;"/><line style="stroke:#181818;stroke-width:1.0;stroke-dasharray:2.0,2.0;" x1="71.5" x2="642.5" y1="1017.7969" y2="1017.7969"/><text fill="#000000" font-family="sans-serif" font-size="13" font-weight="bold" lengthAdjust="spacing" textLength="14" x="83.5" y="1013.042">24</text><text fill="#000000" font-family="sans-serif" font-size="13" lengthAdjust="spacing" textLength="356" x="101.5" y="1013.042">Show basement options (i.e. yes or no) and ask to select one</text><polygon fill="#181818" points="626.5,1042.3203,636.5,1046.3203,626.5,1050.3203,630.5,1046.3203" style="stroke:#181818;stroke-width:1.0;"/><line style="stroke:#181818;stroke-width:1.0;" x1="66.5" x2="632.5" y1="1046.3203" y2="1046.3203"/><text fill="#000000" font-family="sans-serif" font-size="13" font-weight="bold" lengthAdjust="spacing" textLength="14" x="73.5" y="1041.5654">25</text><text fill="#000000" font-family="sans-serif" font-size="13" lengthAdjust="spacing" textLength="76" x="91.5" y="1041.5654">Select option</text><polygon fill="#181818" points="77.5,1070.8438,67.5,1074.8438,77.5,1078.8438,73.5,1074.8438" style="stroke:#181818;stroke-width:1.0;"/><line style="stroke:#181818;stroke-width:1.0;stroke-dasharray:2.0,2.0;" x1="71.5" x2="642.5" y1="1074.8438" y2="1074.8438"/><text fill="#000000" font-family="sans-serif" font-size="13" font-weight="bold" lengthAdjust="spacing" textLength="14" x="83.5" y="1070.0889">26</text><text fill="#000000" font-family="sans-serif" font-size="13" lengthAdjust="spacing" textLength="316" x="101.5" y="1070.0889">Show loft options (i.e. yes or no) and ask to select one</text><polygon fill="#181818" points="626.5,1099.3672,636.5,1103.3672,626.5,1107.3672,630.5,1103.3672" style="stroke:#181818;stroke-width:1.0;"/><line style="stroke:#181818;stroke-width:1.0;" x1="66.5" x2="632.5" y1="1103.3672" y2="1103.3672"/><text fill="#000000" font-family="sans-serif" font-size="13" font-weight="bold" lengthAdjust="spacing" textLength="14" x="73.5" y="1098.6123">27</text><text fill="#000000" font-family="sans-serif" font-size="13" lengthAdjust="spacing" textLength="76" x="91.5" y="1098.6123">Select option</text><path d="M30,1118.3672 L95,1118.3672 L95,1124.8906 L85,1134.8906 L30,1134.8906 L30,1118.3672 " fill="#EEEEEE" style="stroke:#000000;stroke-width:1.5;"/><rect fill="none" height="73.5703" style="stroke:#000000;stroke-width:1.5;" width="655.5" x="30" y="1118.3672"/><text fill="#000000" font-family="sans-serif" font-size="13" font-weight="bold" lengthAdjust="spacing" textLength="20" x="45" y="1131.1357">opt</text><text fill="#000000" font-family="sans-serif" font-size="11" font-weight="bold" lengthAdjust="spacing" textLength="127" x="110" y="1130.3252">[If intended to indicate]</text><polygon fill="#181818" points="77.5,1151.4141,67.5,1155.4141,77.5,1159.4141,73.5,1155.4141" style="stroke:#181818;stroke-width:1.0;"/><line style="stroke:#181818;stroke-width:1.0;stroke-dasharray:2.0,2.0;" x1="71.5" x2="642.5" y1="1155.4141" y2="1155.4141"/><text fill="#000000" font-family="sans-serif" font-size="13" font-weight="bold" lengthAdjust="spacing" textLength="14" x="83.5" y="1150.6592">28</text><text fill="#000000" font-family="sans-serif" font-size="13" lengthAdjust="spacing" textLength="446" x="101.5" y="1150.6592">Show sun exposure list (i.e. north, south, east or west) and ask to select one</text><polygon fill="#181818" points="626.5,1179.9375,636.5,1183.9375,626.5,1187.9375,630.5,1183.9375" style="stroke:#181818;stroke-width:1.0;"/><line style="stroke:#181818;stroke-width:1.0;" x1="66.5" x2="632.5" y1="1183.9375" y2="1183.9375"/><text fill="#000000" font-family="sans-serif" font-size="13" font-weight="bold" lengthAdjust="spacing" textLength="14" x="73.5" y="1179.1826">29</text><text fill="#000000" font-family="sans-serif" font-size="13" lengthAdjust="spacing" textLength="76" x="91.5" y="1179.1826">Select option</text><polygon fill="#181818" points="77.5,1229.4609,67.5,1233.4609,77.5,1237.4609,73.5,1233.4609" style="stroke:#181818;stroke-width:1.0;"/><line style="stroke:#181818;stroke-width:1.0;stroke-dasharray:2.0,2.0;" x1="71.5" x2="642.5" y1="1233.4609" y2="1233.4609"/><text fill="#000000" font-family="sans-serif" font-size="13" font-weight="bold" lengthAdjust="spacing" textLength="14" x="83.5" y="1228.7061">30</text><text fill="#000000" font-family="sans-serif" font-size="13" lengthAdjust="spacing" textLength="530" x="101.5" y="1228.7061">Show type of commission type list (i.e. fixed ammount or percentage) and ask to select one</text><polygon fill="#181818" points="626.5,1257.9844,636.5,1261.9844,626.5,1265.9844,630.5,1261.9844" style="stroke:#181818;stroke-width:1.0;"/><line style="stroke:#181818;stroke-width:1.0;" x1="66.5" x2="632.5" y1="1261.9844" y2="1261.9844"/><text fill="#000000" font-family="sans-serif" font-size="13" font-weight="bold" lengthAdjust="spacing" textLength="14" x="73.5" y="1257.2295">31</text><text fill="#000000" font-family="sans-serif" font-size="13" lengthAdjust="spacing" textLength="154" x="91.5" y="1257.2295">Select type of commission</text><path d="M30,1276.9844 L91,1276.9844 L91,1283.5078 L81,1293.5078 L30,1293.5078 L30,1276.9844 " fill="#EEEEEE" style="stroke:#000000;stroke-width:1.5;"/><rect fill="none" height="144.9063" style="stroke:#000000;stroke-width:1.5;" width="655.5" x="30" y="1276.9844"/><text fill="#000000" font-family="sans-serif" font-size="13" font-weight="bold" lengthAdjust="spacing" textLength="16" x="45" y="1289.7529">alt</text><text fill="#000000" font-family="sans-serif" font-size="11" font-weight="bold" lengthAdjust="spacing" textLength="205" x="106" y="1288.9424">[Commission type is fixed ammount]</text><polygon fill="#181818" points="77.5,1310.0313,67.5,1314.0313,77.5,1318.0313,73.5,1314.0313" style="stroke:#181818;stroke-width:1.0;"/><line style="stroke:#181818;stroke-width:1.0;stroke-dasharray:2.0,2.0;" x1="71.5" x2="642.5" y1="1314.0313" y2="1314.0313"/><text fill="#000000" font-family="sans-serif" font-size="13" font-weight="bold" lengthAdjust="spacing" textLength="14" x="83.5" y="1309.2764">32</text><text fill="#000000" font-family="sans-serif" font-size="13" lengthAdjust="spacing" textLength="196" x="101.5" y="1309.2764">Request data (i.e. fixed ammount)</text><polygon fill="#181818" points="626.5,1338.5547,636.5,1342.5547,626.5,1346.5547,630.5,1342.5547" style="stroke:#181818;stroke-width:1.0;"/><line style="stroke:#181818;stroke-width:1.0;" x1="66.5" x2="632.5" y1="1342.5547" y2="1342.5547"/><text fill="#000000" font-family="sans-serif" font-size="13" font-weight="bold" lengthAdjust="spacing" textLength="14" x="73.5" y="1337.7998">33</text><text fill="#000000" font-family="sans-serif" font-size="13" lengthAdjust="spacing" textLength="118" x="91.5" y="1337.7998">Type requested data</text><line style="stroke:#000000;stroke-width:1.0;stroke-dasharray:2.0,2.0;" x1="30" x2="685.5" y1="1351.5547" y2="1351.5547"/><text fill="#000000" font-family="sans-serif" font-size="11" font-weight="bold" lengthAdjust="spacing" textLength="185" x="35" y="1361.5127">[Commission type is percentage]</text><polygon fill="#181818" points="77.5,1381.3672,67.5,1385.3672,77.5,1389.3672,73.5,1385.3672" style="stroke:#181818;stroke-width:1.0;"/><line style="stroke:#181818;stroke-width:1.0;stroke-dasharray:2.0,2.0;" x1="71.5" x2="642.5" y1="1385.3672" y2="1385.3672"/><text fill="#000000" font-family="sans-serif" font-size="13" font-weight="bold" lengthAdjust="spacing" textLength="14" x="83.5" y="1380.6123">34</text><text fill="#000000" font-family="sans-serif" font-size="13" lengthAdjust="spacing" textLength="175" x="101.5" y="1380.6123">Request data (i.e. percentage)</text><polygon fill="#181818" points="626.5,1409.8906,636.5,1413.8906,626.5,1417.8906,630.5,1413.8906" style="stroke:#181818;stroke-width:1.0;"/><line style="stroke:#181818;stroke-width:1.0;" x1="66.5" x2="632.5" y1="1413.8906" y2="1413.8906"/><text fill="#000000" font-family="sans-serif" font-size="13" font-weight="bold" lengthAdjust="spacing" textLength="14" x="73.5" y="1409.1357">35</text><text fill="#000000" font-family="sans-serif" font-size="13" lengthAdjust="spacing" textLength="118" x="91.5" y="1409.1357">Type requested data</text><polygon fill="#181818" points="77.5,1445.4141,67.5,1449.4141,77.5,1453.4141,73.5,1449.4141" style="stroke:#181818;stroke-width:1.0;"/><line style="stroke:#181818;stroke-width:1.0;stroke-dasharray:2.0,2.0;" x1="71.5" x2="642.5" y1="1449.4141" y2="1449.4141"/><text fill="#000000" font-family="sans-serif" font-size="13" font-weight="bold" lengthAdjust="spacing" textLength="14" x="83.5" y="1444.6592">36</text><text fill="#000000" font-family="sans-serif" font-size="13" lengthAdjust="spacing" textLength="136" x="101.5" y="1444.6592">Request data (i.e. date)</text><polygon fill="#181818" points="626.5,1473.9375,636.5,1477.9375,626.5,1481.9375,630.5,1477.9375" style="stroke:#181818;stroke-width:1.0;"/><line style="stroke:#181818;stroke-width:1.0;" x1="66.5" x2="632.5" y1="1477.9375" y2="1477.9375"/><text fill="#000000" font-family="sans-serif" font-size="13" font-weight="bold" lengthAdjust="spacing" textLength="14" x="73.5" y="1473.1826">37</text><text fill="#000000" font-family="sans-serif" font-size="13" lengthAdjust="spacing" textLength="118" x="91.5" y="1473.1826">Type requested data</text><polygon fill="#181818" points="77.5,1502.4609,67.5,1506.4609,77.5,1510.4609,73.5,1506.4609" style="stroke:#181818;stroke-width:1.0;"/><line style="stroke:#181818;stroke-width:1.0;stroke-dasharray:2.0,2.0;" x1="71.5" x2="642.5" y1="1506.4609" y2="1506.4609"/><text fill="#000000" font-family="sans-serif" font-size="13" font-weight="bold" lengthAdjust="spacing" textLength="14" x="83.5" y="1501.7061">38</text><text fill="#000000" font-family="sans-serif" font-size="13" lengthAdjust="spacing" textLength="374" x="101.5" y="1501.7061">Show data and ask for confirmation to publish the announcement</text><polygon fill="#181818" points="626.5,1530.9844,636.5,1534.9844,626.5,1538.9844,630.5,1534.9844" style="stroke:#181818;stroke-width:1.0;"/><line style="stroke:#181818;stroke-width:1.0;" x1="66.5" x2="632.5" y1="1534.9844" y2="1534.9844"/><text fill="#000000" font-family="sans-serif" font-size="13" font-weight="bold" lengthAdjust="spacing" textLength="14" x="73.5" y="1530.2295">39</text><text fill="#000000" font-family="sans-serif" font-size="13" lengthAdjust="spacing" textLength="44" x="91.5" y="1530.2295">Confirm</text><polygon fill="#181818" points="77.5,1559.5078,67.5,1563.5078,77.5,1567.5078,73.5,1563.5078" style="stroke:#181818;stroke-width:1.0;"/><line style="stroke:#181818;stroke-width:1.0;stroke-dasharray:2.0,2.0;" x1="71.5" x2="642.5" y1="1563.5078" y2="1563.5078"/><text fill="#000000" font-family="sans-serif" font-size="13" font-weight="bold" lengthAdjust="spacing" textLength="14" x="83.5" y="1558.7529">40</text><text fill="#000000" font-family="sans-serif" font-size="13" lengthAdjust="spacing" textLength="153" x="101.5" y="1558.7529">Display operation success</text><!--SRC=[rLZ1Rjim3BtxAuXUrW1jL_JOmu2YnR3UXdhz0CPcOY6sv4bqq-phHybnuYHEQZVBjleImvQezvx8HpbkfdI95WieZ3P9Par1mBQYoAtUb9ZCS4enBt82ImcZdkRj0Ix3rCoLdi84SqTHn8fbQBnmJ0N4zBCYdH0yA9pwuUTn_322ItYEhwzleWWhDhegncJbFc5ZuMvAcYE9pIfH9Mg6iziws1cWMyODWzKBCYt7Ho1Nk8NBBytYjt3dPi06ocgSAvS1WaF1XbgRIa0LVgQVk0hMHFSFbq4k9LuT-1QUF1l7a28ZdAihkW8prsG_EQ02LGwOffQS6uK0ANN6tKNvOr5wRKDiIaFqGR3YpCo1VH0pQUA04EObna1QfBKoV2JiKn4owE8ebnq5esaOuBYUjxNaVipXHSuh_S94vGAmrO3srKzxDemvb5ObDEeCiuVGzjL_HxQlNk59ocA7kcrox_tq0t4eoVhovMoqDrnF6OwJeakE7ILqsY-9Isk45o_QMPoPoj45eBS6Nxa-etD9vbDaTBF-iUw0bkIsk1bTG2fCq3lXH6mME2D8b11CPAwbGA6Lo7_DEhemrnxMU8UW8mQDXMWV4DUtlrG9YKbhv9wRWEVHAT7dnfJmLJOTnTm8NTXbA3F3HZfBcKN3gkVvwN5TCGSgP5X5T5N0Akkz1NvlCbiyuAv9vS_VV6uF952tJP-jOqgjCOMhimZjp7TZ9vsRt7ie3cEuUc5AXiS9ACr2M6P9DIgTgaJ6HiFDhSKEEGlqDWtk3LCRnEcGTwrsRmZ7LQvgdwF6ExGlyXSv8-1Och70K6NHrGBsEMFB28DbIEFB2DdlTB0_PQKS1Gehe-NX8LCSs1fsb5nwfMWXQqL3Ue3NibFNxShOh8U3mepHKTqE0fx6jnRa8EZVIuctPDZRCBf4E1ngxmQRoKVXqBSA3j5rbGPwBOshf31QoQsDvUm2dAdyJstp5kPIjATBQVYJEJted9EOeb3EoPhrevOG4_Kgqc9HoATAq42AmrU-V8oTuiIpHlBsCVv-2xKKx0RQ8uxq6t7- -qDzXn3hNJhsTB_UxezziE_W9hVqBxwH0uIcTYOcjCo9iWLosCBr7mN-UBxpBq5lhFTrr47u7fGhSro0xu4r75SbSe1pUvR-3G00]--></g></svg>