<?xml version="1.0" encoding="us-ascii" standalone="no"?><svg xmlns="http://www.w3.org/2000/svg" xmlns:xlink="http://www.w3.org/1999/xlink" contentStyleType="text/css" height="1004px" preserveAspectRatio="none" style="width:893px;height:1004px;background:#FFFFFF;" version="1.1" viewBox="0 0 893 1004" width="893.5px" zoomAndPan="magnify"><defs/><g><text fill="#000000" font-family="sans-serif" font-size="7" font-weight="bold" lengthAdjust="spacing" textLength="106" x="394.5" y="13.8369">US001 Sequence Diagram (SD)</text><rect fill="#FFFFFF" height="895.9883" style="stroke:#181818;stroke-width:0.5;" width="5" x="42.5" y="63.6406"/><rect fill="#FFFFFF" height="148.6758" style="stroke:#181818;stroke-width:0.5;" width="5" x="408" y="73.9023"/><rect fill="#FFFFFF" height="26.0234" style="stroke:#181818;stroke-width:0.5;" width="5" x="408" y="236.8398"/><rect fill="#FFFFFF" height="161.582" style="stroke:#181818;stroke-width:0.5;" width="5" x="408" y="277.125"/><rect fill="#FFFFFF" height="17.7617" style="stroke:#181818;stroke-width:0.5;" width="5" x="408" y="452.9688"/><rect fill="#FFFFFF" height="140.1172" style="stroke:#181818;stroke-width:0.5;" width="5" x="408" y="484.9922"/><rect fill="#FFFFFF" height="17.7617" style="stroke:#181818;stroke-width:0.5;" width="5" x="408" y="639.3711"/><rect fill="#FFFFFF" height="26.0234" style="stroke:#181818;stroke-width:0.5;" width="5" x="408" y="671.3945"/><rect fill="#FFFFFF" height="139.1172" style="stroke:#181818;stroke-width:0.5;" width="5" x="408" y="711.6797"/><rect fill="#FFFFFF" height="26.0234" style="stroke:#181818;stroke-width:0.5;" width="5" x="408" y="868.5586"/><rect fill="#FFFFFF" height="42.7852" style="stroke:#181818;stroke-width:0.5;" width="5" x="408" y="908.8438"/><rect fill="#FFFFFF" height="99.832" style="stroke:#181818;stroke-width:0.5;" width="5" x="602.5" y="108.4844"/><rect fill="#FFFFFF" height="99.832" style="stroke:#181818;stroke-width:0.5;" width="5" x="602.5" y="324.6133"/><rect fill="#FFFFFF" height="99.832" style="stroke:#181818;stroke-width:0.5;" width="5" x="602.5" y="511.0156"/><rect fill="#FFFFFF" height="99.832" style="stroke:#181818;stroke-width:0.5;" width="5" x="602.5" y="736.7031"/><rect fill="#FFFFFF" height="14.2617" style="stroke:#181818;stroke-width:0.5;" width="5" x="602.5" y="923.1055"/><rect fill="#FFFFFF" height="14.2617" style="stroke:#181818;stroke-width:0.5;" width="5" x="673.5" y="122.7461"/><rect fill="#FFFFFF" height="14.2617" style="stroke:#181818;stroke-width:0.5;" width="5" x="673.5" y="338.875"/><rect fill="#FFFFFF" height="14.2617" style="stroke:#181818;stroke-width:0.5;" width="5" x="673.5" y="525.2773"/><rect fill="#FFFFFF" height="14.2617" style="stroke:#181818;stroke-width:0.5;" width="5" x="673.5" y="750.9648"/><rect fill="#FFFFFF" height="14.2617" style="stroke:#181818;stroke-width:0.5;" width="5" x="727" y="151.2695"/><rect fill="#FFFFFF" height="14.2617" style="stroke:#181818;stroke-width:0.5;" width="5" x="727" y="367.3984"/><rect fill="#FFFFFF" height="14.2617" style="stroke:#181818;stroke-width:0.5;" width="5" x="727" y="553.8008"/><rect fill="#FFFFFF" height="14.2617" style="stroke:#181818;stroke-width:0.5;" width="5" x="727" y="779.4883"/><rect fill="#FFFFFF" height="14.2617" style="stroke:#181818;stroke-width:0.5;" width="5" x="834" y="179.793"/><rect fill="#FFFFFF" height="14.2617" style="stroke:#181818;stroke-width:0.5;" width="5" x="834" y="395.9219"/><rect fill="#FFFFFF" height="14.2617" style="stroke:#181818;stroke-width:0.5;" width="5" x="834" y="582.3242"/><rect fill="#FFFFFF" height="14.2617" style="stroke:#181818;stroke-width:0.5;" width="5" x="834" y="808.0117"/><rect fill="none" height="610.457" style="stroke:#000000;stroke-width:0.75;" width="885.5" x="5" y="244.3398"/><rect fill="none" height="172.3438" style="stroke:#000000;stroke-width:0.75;" width="875.5" x="10" y="284.625"/><rect fill="none" height="150.8789" style="stroke:#000000;stroke-width:0.75;" width="875.5" x="10" y="492.4922"/><rect fill="none" height="36.7852" style="stroke:#000000;stroke-width:0.75;" width="434.75" x="10" y="678.8945"/><rect fill="none" height="79.5703" style="stroke:#000000;stroke-width:0.75;" width="641.75" x="10" y="876.0586"/><line style="stroke:#181818;stroke-width:0.25;stroke-dasharray:5.0,5.0;" x1="45" x2="45" y1="58.6406" y2="964.1289"/><line style="stroke:#181818;stroke-width:0.25;stroke-dasharray:5.0,5.0;" x1="410.25" x2="410.25" y1="58.6406" y2="964.1289"/><line style="stroke:#181818;stroke-width:0.25;stroke-dasharray:5.0,5.0;" x1="604.75" x2="604.75" y1="93.0625" y2="964.1289"/><line style="stroke:#181818;stroke-width:0.25;stroke-dasharray:5.0,5.0;" x1="675.75" x2="675.75" y1="58.6406" y2="964.1289"/><line style="stroke:#181818;stroke-width:0.25;stroke-dasharray:5.0,5.0;" x1="729.25" x2="729.25" y1="58.6406" y2="964.1289"/><line style="stroke:#181818;stroke-width:0.25;stroke-dasharray:5.0,5.0;" x1="836.5" x2="836.5" y1="58.6406" y2="964.1289"/><text fill="#000000" font-family="sans-serif" font-size="7" lengthAdjust="spacing" textLength="57" x="15" y="57.1572">Unregistered User</text><ellipse cx="45" cy="25.0703" fill="#E3E3E3" rx="4" ry="4" style="stroke:#181818;stroke-width:0.25;"/><path d="M45,29.0703 L45,42.5703 M38.5,33.0703 L51.5,33.0703 M45,42.5703 L38.5,50.0703 M45,42.5703 L51.5,50.0703 " fill="none" style="stroke:#181818;stroke-width:0.25;"/><text fill="#000000" font-family="sans-serif" font-size="7" lengthAdjust="spacing" textLength="57" x="15" y="969.9658">Unregistered User</text><ellipse cx="45" cy="975.6992" fill="#E3E3E3" rx="4" ry="4" style="stroke:#181818;stroke-width:0.25;"/><path d="M45,979.6992 L45,993.1992 M38.5,983.6992 L51.5,983.6992 M45,993.1992 L38.5,1000.6992 M45,993.1992 L51.5,1000.6992 " fill="none" style="stroke:#181818;stroke-width:0.25;"/><rect fill="#E3E3E3" height="14.8203" rx="1.25" ry="1.25" style="stroke:#181818;stroke-width:0.25;" width="58.5" x="381.25" y="43.3203"/><text fill="#000000" font-family="sans-serif" font-size="7" lengthAdjust="spacing" textLength="51.5" x="384.75" y="53.1572">:PropertiesListUI</text><rect fill="#E3E3E3" height="14.8203" rx="1.25" ry="1.25" style="stroke:#181818;stroke-width:0.25;" width="58.5" x="381.25" y="963.6289"/><text fill="#000000" font-family="sans-serif" font-size="7" lengthAdjust="spacing" textLength="51.5" x="384.75" y="973.4658">:PropertiesListUI</text><rect fill="#E3E3E3" height="14.8203" rx="1.25" ry="1.25" style="stroke:#181818;stroke-width:0.25;" width="83.5" x="563.25" y="963.6289"/><text fill="#000000" font-family="sans-serif" font-size="7" lengthAdjust="spacing" textLength="76.5" x="566.75" y="973.4658">:PropertiesListController</text><rect fill="#E3E3E3" height="14.8203" rx="1.25" ry="1.25" style="stroke:#181818;stroke-width:0.25;" width="48.5" x="651.75" y="43.3203"/><text fill="#000000" font-family="sans-serif" font-size="7" lengthAdjust="spacing" textLength="41.5" x="655.25" y="53.1572">:Repositories</text><rect fill="#E3E3E3" height="14.8203" rx="1.25" ry="1.25" style="stroke:#181818;stroke-width:0.25;" width="48.5" x="651.75" y="963.6289"/><text fill="#000000" font-family="sans-serif" font-size="7" lengthAdjust="spacing" textLength="41.5" x="655.25" y="973.4658">:Repositories</text><rect fill="#E3E3E3" height="22.6406" rx="1.25" ry="1.25" style="stroke:#181818;stroke-width:0.25;" width="48.5" x="705.25" y="35.5"/><text fill="#000000" font-family="sans-serif" font-size="7" lengthAdjust="spacing" textLength="37" x="711" y="45.3369">repositories</text><text fill="#000000" font-family="sans-serif" font-size="7" lengthAdjust="spacing" textLength="41.5" x="708.75" y="53.1572">:Repositories</text><rect fill="#E3E3E3" height="22.6406" rx="1.25" ry="1.25" style="stroke:#181818;stroke-width:0.25;" width="48.5" x="705.25" y="963.6289"/><text fill="#000000" font-family="sans-serif" font-size="7" lengthAdjust="spacing" textLength="37" x="711" y="973.4658">repositories</text><text fill="#000000" font-family="sans-serif" font-size="7" lengthAdjust="spacing" textLength="41.5" x="708.75" y="981.2861">:Repositories</text><rect fill="#E3E3E3" height="22.6406" rx="1.25" ry="1.25" style="stroke:#181818;stroke-width:0.25;" width="88" x="792.5" y="35.5"/><text fill="#000000" font-family="sans-serif" font-size="7" lengthAdjust="spacing" textLength="79" x="797" y="45.3369">AdvertisementRepository</text><text fill="#000000" font-family="sans-serif" font-size="7" lengthAdjust="spacing" textLength="81" x="796" y="53.1572">:AdvertisementRepository</text><rect fill="#E3E3E3" height="22.6406" rx="1.25" ry="1.25" style="stroke:#181818;stroke-width:0.25;" width="88" x="792.5" y="963.6289"/><text fill="#000000" font-family="sans-serif" font-size="7" lengthAdjust="spacing" textLength="79" x="797" y="973.4658">AdvertisementRepository</text><text fill="#000000" font-family="sans-serif" font-size="7" lengthAdjust="spacing" textLength="81" x="796" y="981.2861">:AdvertisementRepository</text><rect fill="#FFFFFF" height="895.9883" style="stroke:#181818;stroke-width:0.5;" width="5" x="42.5" y="63.6406"/><rect fill="#FFFFFF" height="148.6758" style="stroke:#181818;stroke-width:0.5;" width="5" x="408" y="73.9023"/><rect fill="#FFFFFF" height="26.0234" style="stroke:#181818;stroke-width:0.5;" width="5" x="408" y="236.8398"/><rect fill="#FFFFFF" height="161.582" style="stroke:#181818;stroke-width:0.5;" width="5" x="408" y="277.125"/><rect fill="#FFFFFF" height="17.7617" style="stroke:#181818;stroke-width:0.5;" width="5" x="408" y="452.9688"/><rect fill="#FFFFFF" height="140.1172" style="stroke:#181818;stroke-width:0.5;" width="5" x="408" y="484.9922"/><rect fill="#FFFFFF" height="17.7617" style="stroke:#181818;stroke-width:0.5;" width="5" x="408" y="639.3711"/><rect fill="#FFFFFF" height="26.0234" style="stroke:#181818;stroke-width:0.5;" width="5" x="408" y="671.3945"/><rect fill="#FFFFFF" height="139.1172" style="stroke:#181818;stroke-width:0.5;" width="5" x="408" y="711.6797"/><rect fill="#FFFFFF" height="26.0234" style="stroke:#181818;stroke-width:0.5;" width="5" x="408" y="868.5586"/><rect fill="#FFFFFF" height="42.7852" style="stroke:#181818;stroke-width:0.5;" width="5" x="408" y="908.8438"/><rect fill="#FFFFFF" height="99.832" style="stroke:#181818;stroke-width:0.5;" width="5" x="602.5" y="108.4844"/><rect fill="#FFFFFF" height="99.832" style="stroke:#181818;stroke-width:0.5;" width="5" x="602.5" y="324.6133"/><rect fill="#FFFFFF" height="99.832" style="stroke:#181818;stroke-width:0.5;" width="5" x="602.5" y="511.0156"/><rect fill="#FFFFFF" height="99.832" style="stroke:#181818;stroke-width:0.5;" width="5" x="602.5" y="736.7031"/><rect fill="#FFFFFF" height="14.2617" style="stroke:#181818;stroke-width:0.5;" width="5" x="602.5" y="923.1055"/><rect fill="#FFFFFF" height="14.2617" style="stroke:#181818;stroke-width:0.5;" width="5" x="673.5" y="122.7461"/><rect fill="#FFFFFF" height="14.2617" style="stroke:#181818;stroke-width:0.5;" width="5" x="673.5" y="338.875"/><rect fill="#FFFFFF" height="14.2617" style="stroke:#181818;stroke-width:0.5;" width="5" x="673.5" y="525.2773"/><rect fill="#FFFFFF" height="14.2617" style="stroke:#181818;stroke-width:0.5;" width="5" x="673.5" y="750.9648"/><rect fill="#FFFFFF" height="14.2617" style="stroke:#181818;stroke-width:0.5;" width="5" x="727" y="151.2695"/><rect fill="#FFFFFF" height="14.2617" style="stroke:#181818;stroke-width:0.5;" width="5" x="727" y="367.3984"/><rect fill="#FFFFFF" height="14.2617" style="stroke:#181818;stroke-width:0.5;" width="5" x="727" y="553.8008"/><rect fill="#FFFFFF" height="14.2617" style="stroke:#181818;stroke-width:0.5;" width="5" x="727" y="779.4883"/><rect fill="#FFFFFF" height="14.2617" style="stroke:#181818;stroke-width:0.5;" width="5" x="834" y="179.793"/><rect fill="#FFFFFF" height="14.2617" style="stroke:#181818;stroke-width:0.5;" width="5" x="834" y="395.9219"/><rect fill="#FFFFFF" height="14.2617" style="stroke:#181818;stroke-width:0.5;" width="5" x="834" y="582.3242"/><rect fill="#FFFFFF" height="14.2617" style="stroke:#181818;stroke-width:0.5;" width="5" x="834" y="808.0117"/><polygon fill="#181818" points="402,71.9023,407,73.9023,402,75.9023,404,73.9023" style="stroke:#181818;stroke-width:0.5;"/><line style="stroke:#181818;stroke-width:0.5;" x1="47.5" x2="405" y1="73.9023" y2="73.9023"/><text fill="#000000" font-family="sans-serif" font-size="6.5" font-weight="bold" lengthAdjust="spacing" textLength="3.5" x="51" y="71.5249">1</text><text fill="#000000" font-family="sans-serif" font-size="6.5" lengthAdjust="spacing" textLength="65" x="56.5" y="71.5249">Request properties list</text><polygon fill="#181818" points="557.25,86.1641,562.25,88.1641,557.25,90.1641,559.25,88.1641" style="stroke:#181818;stroke-width:0.5;"/><line style="stroke:#181818;stroke-width:0.5;" x1="413" x2="560.25" y1="88.1641" y2="88.1641"/><text fill="#000000" font-family="sans-serif" font-size="6.5" font-weight="bold" lengthAdjust="spacing" textLength="3.5" x="416.5" y="85.7866">2</text><text fill="#000000" font-family="sans-serif" font-size="6.5" lengthAdjust="spacing" textLength="18" x="422" y="85.7866">create</text><rect fill="#E3E3E3" height="14.8203" rx="1.25" ry="1.25" style="stroke:#181818;stroke-width:0.25;" width="83.5" x="563.25" y="77.9023"/><text fill="#000000" font-family="sans-serif" font-size="7" lengthAdjust="spacing" textLength="76.5" x="566.75" y="87.7393">:PropertiesListController</text><polygon fill="#181818" points="596.5,106.4844,601.5,108.4844,596.5,110.4844,598.5,108.4844" style="stroke:#181818;stroke-width:0.5;"/><line style="stroke:#181818;stroke-width:0.5;" x1="413" x2="599.5" y1="108.4844" y2="108.4844"/><text fill="#000000" font-family="sans-serif" font-size="6.5" font-weight="bold" lengthAdjust="spacing" textLength="3.5" x="416.5" y="106.1069">3</text><text fill="#000000" font-family="sans-serif" font-size="6.5" lengthAdjust="spacing" textLength="54" x="422" y="106.1069">getAdvertisement()</text><polygon fill="#181818" points="667.5,120.7461,672.5,122.7461,667.5,124.7461,669.5,122.7461" style="stroke:#181818;stroke-width:0.5;"/><line style="stroke:#181818;stroke-width:0.5;" x1="607.5" x2="670.5" y1="122.7461" y2="122.7461"/><text fill="#000000" font-family="sans-serif" font-size="6.5" font-weight="bold" lengthAdjust="spacing" textLength="3.5" x="611" y="120.3687">4</text><text fill="#000000" font-family="sans-serif" font-size="6.5" lengthAdjust="spacing" textLength="37.5" x="616.5" y="120.3687">getInstance()</text><polygon fill="#181818" points="613,135.0078,608,137.0078,613,139.0078,611,137.0078" style="stroke:#181818;stroke-width:0.5;"/><line style="stroke:#181818;stroke-width:0.5;stroke-dasharray:2.0,2.0;" x1="610" x2="675.5" y1="137.0078" y2="137.0078"/><text fill="#000000" font-family="sans-serif" font-size="6.5" font-weight="bold" lengthAdjust="spacing" textLength="3.5" x="616" y="134.6304">5</text><text fill="#000000" font-family="sans-serif" font-size="6.5" lengthAdjust="spacing" textLength="33.5" x="621.5" y="134.6304">repositories</text><polygon fill="#181818" points="721,149.2695,726,151.2695,721,153.2695,723,151.2695" style="stroke:#181818;stroke-width:0.5;"/><line style="stroke:#181818;stroke-width:0.5;" x1="607.5" x2="724" y1="151.2695" y2="151.2695"/><text fill="#000000" font-family="sans-serif" font-size="6.5" font-weight="bold" lengthAdjust="spacing" textLength="3.5" x="611" y="148.8921">6</text><text fill="#000000" font-family="sans-serif" font-size="6.5" lengthAdjust="spacing" textLength="85" x="616.5" y="148.8921">getAdvertisementRepository()</text><polygon fill="#181818" points="613,163.5313,608,165.5313,613,167.5313,611,165.5313" style="stroke:#181818;stroke-width:0.5;"/><line style="stroke:#181818;stroke-width:0.5;stroke-dasharray:2.0,2.0;" x1="610" x2="729" y1="165.5313" y2="165.5313"/><text fill="#000000" font-family="sans-serif" font-size="6.5" font-weight="bold" lengthAdjust="spacing" textLength="3.5" x="616" y="163.1538">7</text><text fill="#000000" font-family="sans-serif" font-size="6.5" lengthAdjust="spacing" textLength="72" x="621.5" y="163.1538">AdvertisementRepository</text><polygon fill="#181818" points="828,177.793,833,179.793,828,181.793,830,179.793" style="stroke:#181818;stroke-width:0.5;"/><line style="stroke:#181818;stroke-width:0.5;" x1="607.5" x2="831" y1="179.793" y2="179.793"/><text fill="#000000" font-family="sans-serif" font-size="6.5" font-weight="bold" lengthAdjust="spacing" textLength="3.5" x="611" y="177.4155">8</text><text fill="#000000" font-family="sans-serif" font-size="6.5" lengthAdjust="spacing" textLength="54" x="616.5" y="177.4155">getAdvertisement()</text><polygon fill="#181818" points="613,192.0547,608,194.0547,613,196.0547,611,194.0547" style="stroke:#181818;stroke-width:0.5;"/><line style="stroke:#181818;stroke-width:0.5;stroke-dasharray:2.0,2.0;" x1="610" x2="836" y1="194.0547" y2="194.0547"/><text fill="#000000" font-family="sans-serif" font-size="6.5" font-weight="bold" lengthAdjust="spacing" textLength="3.5" x="616" y="191.6772">9</text><text fill="#000000" font-family="sans-serif" font-size="6.5" lengthAdjust="spacing" textLength="41" x="621.5" y="191.6772">Advertisement</text><polygon fill="#181818" points="418.5,206.3164,413.5,208.3164,418.5,210.3164,416.5,208.3164" style="stroke:#181818;stroke-width:0.5;"/><line style="stroke:#181818;stroke-width:0.5;stroke-dasharray:2.0,2.0;" x1="415.5" x2="604.5" y1="208.3164" y2="208.3164"/><text fill="#000000" font-family="sans-serif" font-size="6.5" font-weight="bold" lengthAdjust="spacing" textLength="7" x="421.5" y="205.939">10</text><text fill="#000000" font-family="sans-serif" font-size="6.5" lengthAdjust="spacing" textLength="40" x="430.5" y="205.939">PropertiesList</text><polygon fill="#181818" points="53,220.5781,48,222.5781,53,224.5781,51,222.5781" style="stroke:#181818;stroke-width:0.5;"/><line style="stroke:#181818;stroke-width:0.5;stroke-dasharray:2.0,2.0;" x1="50" x2="410" y1="222.5781" y2="222.5781"/><text fill="#000000" font-family="sans-serif" font-size="6.5" font-weight="bold" lengthAdjust="spacing" textLength="7" x="56" y="220.2007">11</text><text fill="#000000" font-family="sans-serif" font-size="6.5" lengthAdjust="spacing" textLength="218" x="65" y="220.2007">Return list sorted by latest listings and asks if it wishes to filter the list (y,n)</text><polygon fill="#181818" points="402,234.8398,407,236.8398,402,238.8398,404,236.8398" style="stroke:#181818;stroke-width:0.5;"/><line style="stroke:#181818;stroke-width:0.5;" x1="47.5" x2="405" y1="236.8398" y2="236.8398"/><text fill="#000000" font-family="sans-serif" font-size="6.5" font-weight="bold" lengthAdjust="spacing" textLength="7" x="51" y="234.4624">12</text><text fill="#000000" font-family="sans-serif" font-size="6.5" lengthAdjust="spacing" textLength="80.5" x="60" y="234.4624">Unregistered User responds</text><path d="M5,244.3398 L37.5,244.3398 L37.5,247.6016 L32.5,252.6016 L5,252.6016 L5,244.3398 " fill="#EEEEEE" style="stroke:#000000;stroke-width:0.75;"/><rect fill="none" height="610.457" style="stroke:#000000;stroke-width:0.75;" width="885.5" x="5" y="244.3398"/><text fill="#000000" font-family="sans-serif" font-size="6.5" font-weight="bold" lengthAdjust="spacing" textLength="10" x="12.5" y="250.7241">opt</text><text fill="#000000" font-family="sans-serif" font-size="5.5" font-weight="bold" lengthAdjust="spacing" textLength="129.5" x="45" y="250.3188">[UnregisteredUser User wants to filter results]</text><polygon fill="#181818" points="53,260.8633,48,262.8633,53,264.8633,51,262.8633" style="stroke:#181818;stroke-width:0.5;"/><line style="stroke:#181818;stroke-width:0.5;stroke-dasharray:2.0,2.0;" x1="50" x2="410" y1="262.8633" y2="262.8633"/><text fill="#000000" font-family="sans-serif" font-size="6.5" font-weight="bold" lengthAdjust="spacing" textLength="7" x="56" y="260.4858">13</text><text fill="#000000" font-family="sans-serif" font-size="6.5" lengthAdjust="spacing" textLength="230.5" x="65" y="260.4858">Ask if it wants to choose between for sale properties and renting properties (y,n)</text><polygon fill="#181818" points="402,275.125,407,277.125,402,279.125,404,277.125" style="stroke:#181818;stroke-width:0.5;"/><line style="stroke:#181818;stroke-width:0.5;" x1="47.5" x2="405" y1="277.125" y2="277.125"/><text fill="#000000" font-family="sans-serif" font-size="6.5" font-weight="bold" lengthAdjust="spacing" textLength="7" x="51" y="274.7476">14</text><text fill="#000000" font-family="sans-serif" font-size="6.5" lengthAdjust="spacing" textLength="80.5" x="60" y="274.7476">Unregistered User responds</text><path d="M10,284.625 L42.5,284.625 L42.5,287.8867 L37.5,292.8867 L10,292.8867 L10,284.625 " fill="#EEEEEE" style="stroke:#000000;stroke-width:0.75;"/><rect fill="none" height="172.3438" style="stroke:#000000;stroke-width:0.75;" width="875.5" x="10" y="284.625"/><text fill="#000000" font-family="sans-serif" font-size="6.5" font-weight="bold" lengthAdjust="spacing" textLength="10" x="17.5" y="291.0093">opt</text><text fill="#000000" font-family="sans-serif" font-size="5.5" font-weight="bold" lengthAdjust="spacing" textLength="112.5" x="50" y="290.604">[User wants to choose type of business]</text><rect fill="none" height="18.9648" style="stroke:#000000;stroke-width:0.75;" width="86.5" x="561.75" y="292.8867"/><path d="M561.75,292.8867 L592.75,292.8867 L592.75,295.8867 L587.75,300.8867 L561.75,300.8867 L561.75,292.8867 " fill="#EEEEEE" style="stroke:#000000;stroke-width:1.0;"/><text fill="#000000" font-family="sans-serif" font-size="6.5" font-weight="bold" lengthAdjust="spacing" textLength="8.5" x="568.25" y="299.771">ref</text><text fill="#000000" font-family="sans-serif" font-size="6" lengthAdjust="spacing" textLength="48" x="581" y="308.3184">c.f. Filter Example</text><polygon fill="#181818" points="596.5,322.6133,601.5,324.6133,596.5,326.6133,598.5,324.6133" style="stroke:#181818;stroke-width:0.5;"/><line style="stroke:#181818;stroke-width:0.5;" x1="413" x2="599.5" y1="324.6133" y2="324.6133"/><text fill="#000000" font-family="sans-serif" font-size="6.5" font-weight="bold" lengthAdjust="spacing" textLength="7" x="416.5" y="322.2358">15</text><text fill="#000000" font-family="sans-serif" font-size="6.5" lengthAdjust="spacing" textLength="51.5" x="425.5" y="322.2358">getPropertyType()</text><polygon fill="#181818" points="667.5,336.875,672.5,338.875,667.5,340.875,669.5,338.875" style="stroke:#181818;stroke-width:0.5;"/><line style="stroke:#181818;stroke-width:0.5;" x1="607.5" x2="670.5" y1="338.875" y2="338.875"/><text fill="#000000" font-family="sans-serif" font-size="6.5" font-weight="bold" lengthAdjust="spacing" textLength="7" x="611" y="336.4976">16</text><text fill="#000000" font-family="sans-serif" font-size="6.5" lengthAdjust="spacing" textLength="37.5" x="620" y="336.4976">getInstance()</text><polygon fill="#181818" points="613,351.1367,608,353.1367,613,355.1367,611,353.1367" style="stroke:#181818;stroke-width:0.5;"/><line style="stroke:#181818;stroke-width:0.5;stroke-dasharray:2.0,2.0;" x1="610" x2="675.5" y1="353.1367" y2="353.1367"/><text fill="#000000" font-family="sans-serif" font-size="6.5" font-weight="bold" lengthAdjust="spacing" textLength="7" x="616" y="350.7593">17</text><text fill="#000000" font-family="sans-serif" font-size="6.5" lengthAdjust="spacing" textLength="33.5" x="625" y="350.7593">repositories</text><polygon fill="#181818" points="721,365.3984,726,367.3984,721,369.3984,723,367.3984" style="stroke:#181818;stroke-width:0.5;"/><line style="stroke:#181818;stroke-width:0.5;" x1="607.5" x2="724" y1="367.3984" y2="367.3984"/><text fill="#000000" font-family="sans-serif" font-size="6.5" font-weight="bold" lengthAdjust="spacing" textLength="7" x="611" y="365.021">18</text><text fill="#000000" font-family="sans-serif" font-size="6.5" lengthAdjust="spacing" textLength="85" x="620" y="365.021">getAdvertisementRepository()</text><polygon fill="#181818" points="613,379.6602,608,381.6602,613,383.6602,611,381.6602" style="stroke:#181818;stroke-width:0.5;"/><line style="stroke:#181818;stroke-width:0.5;stroke-dasharray:2.0,2.0;" x1="610" x2="729" y1="381.6602" y2="381.6602"/><text fill="#000000" font-family="sans-serif" font-size="6.5" font-weight="bold" lengthAdjust="spacing" textLength="7" x="616" y="379.2827">19</text><text fill="#000000" font-family="sans-serif" font-size="6.5" lengthAdjust="spacing" textLength="72" x="625" y="379.2827">AdvertisementRepository</text><polygon fill="#181818" points="828,393.9219,833,395.9219,828,397.9219,830,395.9219" style="stroke:#181818;stroke-width:0.5;"/><line style="stroke:#181818;stroke-width:0.5;" x1="607.5" x2="831" y1="395.9219" y2="395.9219"/><text fill="#000000" font-family="sans-serif" font-size="6.5" font-weight="bold" lengthAdjust="spacing" textLength="7" x="611" y="393.5444">20</text><text fill="#000000" font-family="sans-serif" font-size="6.5" lengthAdjust="spacing" textLength="51" x="620" y="393.5444">getRequestType()</text><polygon fill="#181818" points="613,408.1836,608,410.1836,613,412.1836,611,410.1836" style="stroke:#181818;stroke-width:0.5;"/><line style="stroke:#181818;stroke-width:0.5;stroke-dasharray:2.0,2.0;" x1="610" x2="836" y1="410.1836" y2="410.1836"/><text fill="#000000" font-family="sans-serif" font-size="6.5" font-weight="bold" lengthAdjust="spacing" textLength="7" x="616" y="407.8062">21</text><text fill="#000000" font-family="sans-serif" font-size="6.5" lengthAdjust="spacing" textLength="48.5" x="625" y="407.8062">RequestTypeList</text><polygon fill="#181818" points="418.5,422.4453,413.5,424.4453,418.5,426.4453,416.5,424.4453" style="stroke:#181818;stroke-width:0.5;"/><line style="stroke:#181818;stroke-width:0.5;stroke-dasharray:2.0,2.0;" x1="415.5" x2="604.5" y1="424.4453" y2="424.4453"/><text fill="#000000" font-family="sans-serif" font-size="6.5" font-weight="bold" lengthAdjust="spacing" textLength="7" x="421.5" y="422.0679">22</text><text fill="#000000" font-family="sans-serif" font-size="6.5" lengthAdjust="spacing" textLength="51.5" x="430.5" y="422.0679">BusinessTypeList</text><polygon fill="#181818" points="53,436.707,48,438.707,53,440.707,51,438.707" style="stroke:#181818;stroke-width:0.5;"/><line style="stroke:#181818;stroke-width:0.5;stroke-dasharray:2.0,2.0;" x1="50" x2="410" y1="438.707" y2="438.707"/><text fill="#000000" font-family="sans-serif" font-size="6.5" font-weight="bold" lengthAdjust="spacing" textLength="7" x="56" y="436.3296">23</text><text fill="#000000" font-family="sans-serif" font-size="6.5" lengthAdjust="spacing" textLength="162.5" x="65" y="436.3296">Ask to choose between rented or for sale properties (r,s)</text><polygon fill="#181818" points="402,450.9688,407,452.9688,402,454.9688,404,452.9688" style="stroke:#181818;stroke-width:0.5;"/><line style="stroke:#181818;stroke-width:0.5;" x1="47.5" x2="405" y1="452.9688" y2="452.9688"/><text fill="#000000" font-family="sans-serif" font-size="6.5" font-weight="bold" lengthAdjust="spacing" textLength="7" x="51" y="450.5913">24</text><text fill="#000000" font-family="sans-serif" font-size="6.5" lengthAdjust="spacing" textLength="80.5" x="60" y="450.5913">Unregistered User responds</text><polygon fill="#181818" points="53,468.7305,48,470.7305,53,472.7305,51,470.7305" style="stroke:#181818;stroke-width:0.5;"/><line style="stroke:#181818;stroke-width:0.5;stroke-dasharray:2.0,2.0;" x1="50" x2="410" y1="470.7305" y2="470.7305"/><text fill="#000000" font-family="sans-serif" font-size="6.5" font-weight="bold" lengthAdjust="spacing" textLength="7" x="56" y="468.353">25</text><text fill="#000000" font-family="sans-serif" font-size="6.5" lengthAdjust="spacing" textLength="136.5" x="65" y="468.353">ask if it wants to choose the property type (y,n)</text><polygon fill="#181818" points="402,482.9922,407,484.9922,402,486.9922,404,484.9922" style="stroke:#181818;stroke-width:0.5;"/><line style="stroke:#181818;stroke-width:0.5;" x1="47.5" x2="405" y1="484.9922" y2="484.9922"/><text fill="#000000" font-family="sans-serif" font-size="6.5" font-weight="bold" lengthAdjust="spacing" textLength="7" x="51" y="482.6147">26</text><text fill="#000000" font-family="sans-serif" font-size="6.5" lengthAdjust="spacing" textLength="42" x="60" y="482.6147">User responds</text><path d="M10,492.4922 L42.5,492.4922 L42.5,495.7539 L37.5,500.7539 L10,500.7539 L10,492.4922 " fill="#EEEEEE" style="stroke:#000000;stroke-width:0.75;"/><rect fill="none" height="150.8789" style="stroke:#000000;stroke-width:0.75;" width="875.5" x="10" y="492.4922"/><text fill="#000000" font-family="sans-serif" font-size="6.5" font-weight="bold" lengthAdjust="spacing" textLength="10" x="17.5" y="498.8765">opt</text><text fill="#000000" font-family="sans-serif" font-size="5.5" font-weight="bold" lengthAdjust="spacing" textLength="121" x="50" y="498.4712">[User wants to choose the type of property]</text><polygon fill="#181818" points="596.5,509.0156,601.5,511.0156,596.5,513.0156,598.5,511.0156" style="stroke:#181818;stroke-width:0.5;"/><line style="stroke:#181818;stroke-width:0.5;" x1="413" x2="599.5" y1="511.0156" y2="511.0156"/><text fill="#000000" font-family="sans-serif" font-size="6.5" font-weight="bold" lengthAdjust="spacing" textLength="7" x="416.5" y="508.6382">27</text><text fill="#000000" font-family="sans-serif" font-size="6.5" lengthAdjust="spacing" textLength="54" x="425.5" y="508.6382">getBusinessType()</text><polygon fill="#181818" points="667.5,523.2773,672.5,525.2773,667.5,527.2773,669.5,525.2773" style="stroke:#181818;stroke-width:0.5;"/><line style="stroke:#181818;stroke-width:0.5;" x1="607.5" x2="670.5" y1="525.2773" y2="525.2773"/><text fill="#000000" font-family="sans-serif" font-size="6.5" font-weight="bold" lengthAdjust="spacing" textLength="7" x="611" y="522.8999">28</text><text fill="#000000" font-family="sans-serif" font-size="6.5" lengthAdjust="spacing" textLength="37.5" x="620" y="522.8999">getInstance()</text><polygon fill="#181818" points="613,537.5391,608,539.5391,613,541.5391,611,539.5391" style="stroke:#181818;stroke-width:0.5;"/><line style="stroke:#181818;stroke-width:0.5;stroke-dasharray:2.0,2.0;" x1="610" x2="675.5" y1="539.5391" y2="539.5391"/><text fill="#000000" font-family="sans-serif" font-size="6.5" font-weight="bold" lengthAdjust="spacing" textLength="7" x="616" y="537.1616">29</text><text fill="#000000" font-family="sans-serif" font-size="6.5" lengthAdjust="spacing" textLength="33.5" x="625" y="537.1616">repositories</text><polygon fill="#181818" points="721,551.8008,726,553.8008,721,555.8008,723,553.8008" style="stroke:#181818;stroke-width:0.5;"/><line style="stroke:#181818;stroke-width:0.5;" x1="607.5" x2="724" y1="553.8008" y2="553.8008"/><text fill="#000000" font-family="sans-serif" font-size="6.5" font-weight="bold" lengthAdjust="spacing" textLength="7" x="611" y="551.4233">30</text><text fill="#000000" font-family="sans-serif" font-size="6.5" lengthAdjust="spacing" textLength="82.5" x="620" y="551.4233">getPropertyTypeRepository()</text><polygon fill="#181818" points="613,566.0625,608,568.0625,613,570.0625,611,568.0625" style="stroke:#181818;stroke-width:0.5;"/><line style="stroke:#181818;stroke-width:0.5;stroke-dasharray:2.0,2.0;" x1="610" x2="729" y1="568.0625" y2="568.0625"/><text fill="#000000" font-family="sans-serif" font-size="6.5" font-weight="bold" lengthAdjust="spacing" textLength="7" x="616" y="565.6851">31</text><text fill="#000000" font-family="sans-serif" font-size="6.5" lengthAdjust="spacing" textLength="72" x="625" y="565.6851">AdvertisementRepository</text><polygon fill="#181818" points="828,580.3242,833,582.3242,828,584.3242,830,582.3242" style="stroke:#181818;stroke-width:0.5;"/><line style="stroke:#181818;stroke-width:0.5;" x1="607.5" x2="831" y1="582.3242" y2="582.3242"/><text fill="#000000" font-family="sans-serif" font-size="6.5" font-weight="bold" lengthAdjust="spacing" textLength="7" x="611" y="579.9468">32</text><text fill="#000000" font-family="sans-serif" font-size="6.5" lengthAdjust="spacing" textLength="51.5" x="620" y="579.9468">getPropertyType()</text><polygon fill="#181818" points="613,594.5859,608,596.5859,613,598.5859,611,596.5859" style="stroke:#181818;stroke-width:0.5;"/><line style="stroke:#181818;stroke-width:0.5;stroke-dasharray:2.0,2.0;" x1="610" x2="836" y1="596.5859" y2="596.5859"/><text fill="#000000" font-family="sans-serif" font-size="6.5" font-weight="bold" lengthAdjust="spacing" textLength="7" x="616" y="594.2085">33</text><text fill="#000000" font-family="sans-serif" font-size="6.5" lengthAdjust="spacing" textLength="49" x="625" y="594.2085">PropertyTypeList</text><polygon fill="#181818" points="418.5,608.8477,413.5,610.8477,418.5,612.8477,416.5,610.8477" style="stroke:#181818;stroke-width:0.5;"/><line style="stroke:#181818;stroke-width:0.5;stroke-dasharray:2.0,2.0;" x1="415.5" x2="604.5" y1="610.8477" y2="610.8477"/><text fill="#000000" font-family="sans-serif" font-size="6.5" font-weight="bold" lengthAdjust="spacing" textLength="7" x="421.5" y="608.4702">34</text><text fill="#000000" font-family="sans-serif" font-size="6.5" lengthAdjust="spacing" textLength="49" x="430.5" y="608.4702">PropertyTypeList</text><polygon fill="#181818" points="53,623.1094,48,625.1094,53,627.1094,51,625.1094" style="stroke:#181818;stroke-width:0.5;"/><line style="stroke:#181818;stroke-width:0.5;stroke-dasharray:2.0,2.0;" x1="50" x2="410" y1="625.1094" y2="625.1094"/><text fill="#000000" font-family="sans-serif" font-size="6.5" font-weight="bold" lengthAdjust="spacing" textLength="7" x="56" y="622.7319">35</text><text fill="#000000" font-family="sans-serif" font-size="6.5" lengthAdjust="spacing" textLength="189" x="65" y="622.7319">Ask to choose the type of property, land, house, apartment (l,h,a)</text><polygon fill="#181818" points="402,637.3711,407,639.3711,402,641.3711,404,639.3711" style="stroke:#181818;stroke-width:0.5;"/><line style="stroke:#181818;stroke-width:0.5;" x1="47.5" x2="405" y1="639.3711" y2="639.3711"/><text fill="#000000" font-family="sans-serif" font-size="6.5" font-weight="bold" lengthAdjust="spacing" textLength="7" x="51" y="636.9937">36</text><text fill="#000000" font-family="sans-serif" font-size="6.5" lengthAdjust="spacing" textLength="80.5" x="60" y="636.9937">Unregistered User responds</text><polygon fill="#181818" points="53,655.1328,48,657.1328,53,659.1328,51,657.1328" style="stroke:#181818;stroke-width:0.5;"/><line style="stroke:#181818;stroke-width:0.5;stroke-dasharray:2.0,2.0;" x1="50" x2="410" y1="657.1328" y2="657.1328"/><text fill="#000000" font-family="sans-serif" font-size="6.5" font-weight="bold" lengthAdjust="spacing" textLength="7" x="56" y="654.7554">37</text><text fill="#000000" font-family="sans-serif" font-size="6.5" lengthAdjust="spacing" textLength="125" x="65" y="654.7554">Ask the number of rooms it wants (number)</text><polygon fill="#181818" points="402,669.3945,407,671.3945,402,673.3945,404,671.3945" style="stroke:#181818;stroke-width:0.5;"/><line style="stroke:#181818;stroke-width:0.5;" x1="47.5" x2="405" y1="671.3945" y2="671.3945"/><text fill="#000000" font-family="sans-serif" font-size="6.5" font-weight="bold" lengthAdjust="spacing" textLength="7" x="51" y="669.0171">38</text><text fill="#000000" font-family="sans-serif" font-size="6.5" lengthAdjust="spacing" textLength="42" x="60" y="669.0171">User responds</text><path d="M10,678.8945 L42.5,678.8945 L42.5,682.1563 L37.5,687.1563 L10,687.1563 L10,678.8945 " fill="#EEEEEE" style="stroke:#000000;stroke-width:0.75;"/><rect fill="none" height="36.7852" style="stroke:#000000;stroke-width:0.75;" width="434.75" x="10" y="678.8945"/><text fill="#000000" font-family="sans-serif" font-size="6.5" font-weight="bold" lengthAdjust="spacing" textLength="10" x="17.5" y="685.2788">opt</text><text fill="#000000" font-family="sans-serif" font-size="5.5" font-weight="bold" lengthAdjust="spacing" textLength="168" x="50" y="684.8735">[User wants to choose the number of rooms in the property]</text><polygon fill="#181818" points="53,695.418,48,697.418,53,699.418,51,697.418" style="stroke:#181818;stroke-width:0.5;"/><line style="stroke:#181818;stroke-width:0.5;stroke-dasharray:2.0,2.0;" x1="50" x2="410" y1="697.418" y2="697.418"/><text fill="#000000" font-family="sans-serif" font-size="6.5" font-weight="bold" lengthAdjust="spacing" textLength="7" x="56" y="695.0405">39</text><text fill="#000000" font-family="sans-serif" font-size="6.5" lengthAdjust="spacing" textLength="133" x="65" y="695.0405">Ask if it wants to choose the number of rooms</text><polygon fill="#181818" points="402,709.6797,407,711.6797,402,713.6797,404,711.6797" style="stroke:#181818;stroke-width:0.5;"/><line style="stroke:#181818;stroke-width:0.5;" x1="47.5" x2="405" y1="711.6797" y2="711.6797"/><text fill="#000000" font-family="sans-serif" font-size="6.5" font-weight="bold" lengthAdjust="spacing" textLength="7" x="51" y="709.3022">40</text><text fill="#000000" font-family="sans-serif" font-size="6.5" lengthAdjust="spacing" textLength="80.5" x="60" y="709.3022">Unregistered User responds</text><polygon fill="#181818" points="596.5,734.7031,601.5,736.7031,596.5,738.7031,598.5,736.7031" style="stroke:#181818;stroke-width:0.5;"/><line style="stroke:#181818;stroke-width:0.5;" x1="413" x2="599.5" y1="736.7031" y2="736.7031"/><text fill="#000000" font-family="sans-serif" font-size="6.5" font-weight="bold" lengthAdjust="spacing" textLength="7" x="416.5" y="730.6948">41</text><text fill="#000000" font-family="sans-serif" font-size="6.5" lengthAdjust="spacing" textLength="104.5" x="425.5" y="727.064">getListedProperties(BussinessType,</text><text fill="#000000" font-family="sans-serif" font-size="6.5" lengthAdjust="spacing" textLength="93" x="427.5" y="734.3257">PropertyType, number of rooms)</text><polygon fill="#181818" points="667.5,748.9648,672.5,750.9648,667.5,752.9648,669.5,750.9648" style="stroke:#181818;stroke-width:0.5;"/><line style="stroke:#181818;stroke-width:0.5;" x1="607.5" x2="670.5" y1="750.9648" y2="750.9648"/><text fill="#000000" font-family="sans-serif" font-size="6.5" font-weight="bold" lengthAdjust="spacing" textLength="7" x="611" y="748.5874">42</text><text fill="#000000" font-family="sans-serif" font-size="6.5" lengthAdjust="spacing" textLength="37.5" x="620" y="748.5874">getInstance()</text><polygon fill="#181818" points="613,763.2266,608,765.2266,613,767.2266,611,765.2266" style="stroke:#181818;stroke-width:0.5;"/><line style="stroke:#181818;stroke-width:0.5;stroke-dasharray:2.0,2.0;" x1="610" x2="675.5" y1="765.2266" y2="765.2266"/><text fill="#000000" font-family="sans-serif" font-size="6.5" font-weight="bold" lengthAdjust="spacing" textLength="7" x="616" y="762.8491">43</text><text fill="#000000" font-family="sans-serif" font-size="6.5" lengthAdjust="spacing" textLength="33.5" x="625" y="762.8491">repositories</text><polygon fill="#181818" points="721,777.4883,726,779.4883,721,781.4883,723,779.4883" style="stroke:#181818;stroke-width:0.5;"/><line style="stroke:#181818;stroke-width:0.5;" x1="607.5" x2="724" y1="779.4883" y2="779.4883"/><text fill="#000000" font-family="sans-serif" font-size="6.5" font-weight="bold" lengthAdjust="spacing" textLength="7" x="611" y="777.1108">44</text><text fill="#000000" font-family="sans-serif" font-size="6.5" lengthAdjust="spacing" textLength="85" x="620" y="777.1108">getAdvertisementRepository()</text><polygon fill="#181818" points="613,791.75,608,793.75,613,795.75,611,793.75" style="stroke:#181818;stroke-width:0.5;"/><line style="stroke:#181818;stroke-width:0.5;stroke-dasharray:2.0,2.0;" x1="610" x2="729" y1="793.75" y2="793.75"/><text fill="#000000" font-family="sans-serif" font-size="6.5" font-weight="bold" lengthAdjust="spacing" textLength="7" x="616" y="791.3726">45</text><text fill="#000000" font-family="sans-serif" font-size="6.5" lengthAdjust="spacing" textLength="72" x="625" y="791.3726">AdvertisementRepository</text><polygon fill="#181818" points="828,806.0117,833,808.0117,828,810.0117,830,808.0117" style="stroke:#181818;stroke-width:0.5;"/><line style="stroke:#181818;stroke-width:0.5;" x1="607.5" x2="831" y1="808.0117" y2="808.0117"/><text fill="#000000" font-family="sans-serif" font-size="6.5" font-weight="bold" lengthAdjust="spacing" textLength="7" x="611" y="805.6343">46</text><text fill="#000000" font-family="sans-serif" font-size="6.5" lengthAdjust="spacing" textLength="208" x="620" y="805.6343">getFilteredPropertiesList(BusinessType, RequestType,number of rooms)</text><polygon fill="#181818" points="613,820.2734,608,822.2734,613,824.2734,611,822.2734" style="stroke:#181818;stroke-width:0.5;"/><line style="stroke:#181818;stroke-width:0.5;stroke-dasharray:2.0,2.0;" x1="610" x2="836" y1="822.2734" y2="822.2734"/><text fill="#000000" font-family="sans-serif" font-size="6.5" font-weight="bold" lengthAdjust="spacing" textLength="7" x="616" y="819.896">47</text><text fill="#000000" font-family="sans-serif" font-size="6.5" lengthAdjust="spacing" textLength="61.5" x="625" y="819.896">FilteredPropertiesList</text><polygon fill="#181818" points="418.5,834.5352,413.5,836.5352,418.5,838.5352,416.5,836.5352" style="stroke:#181818;stroke-width:0.5;"/><line style="stroke:#181818;stroke-width:0.5;stroke-dasharray:2.0,2.0;" x1="415.5" x2="604.5" y1="836.5352" y2="836.5352"/><text fill="#000000" font-family="sans-serif" font-size="6.5" font-weight="bold" lengthAdjust="spacing" textLength="7" x="421.5" y="834.1577">48</text><text fill="#000000" font-family="sans-serif" font-size="6.5" lengthAdjust="spacing" textLength="61.5" x="430.5" y="834.1577">FilteredPropertiesList</text><polygon fill="#181818" points="53,848.7969,48,850.7969,53,852.7969,51,850.7969" style="stroke:#181818;stroke-width:0.5;"/><line style="stroke:#181818;stroke-width:0.5;stroke-dasharray:2.0,2.0;" x1="50" x2="410" y1="850.7969" y2="850.7969"/><text fill="#000000" font-family="sans-serif" font-size="6.5" font-weight="bold" lengthAdjust="spacing" textLength="7" x="56" y="848.4194">49</text><text fill="#000000" font-family="sans-serif" font-size="6.5" lengthAdjust="spacing" textLength="339.5" x="65" y="848.4194">Shows listed properties according to the filters and sorted by most recent and ask if it wishes to use a sorting method</text><polygon fill="#181818" points="402,866.5586,407,868.5586,402,870.5586,404,868.5586" style="stroke:#181818;stroke-width:0.5;"/><line style="stroke:#181818;stroke-width:0.5;" x1="47.5" x2="405" y1="868.5586" y2="868.5586"/><text fill="#000000" font-family="sans-serif" font-size="6.5" font-weight="bold" lengthAdjust="spacing" textLength="7" x="51" y="866.1812">50</text><text fill="#000000" font-family="sans-serif" font-size="6.5" lengthAdjust="spacing" textLength="80.5" x="60" y="866.1812">Unregistered User responds</text><path d="M10,876.0586 L42.5,876.0586 L42.5,879.3203 L37.5,884.3203 L10,884.3203 L10,876.0586 " fill="#EEEEEE" style="stroke:#000000;stroke-width:0.75;"/><rect fill="none" height="79.5703" style="stroke:#000000;stroke-width:0.75;" width="641.75" x="10" y="876.0586"/><text fill="#000000" font-family="sans-serif" font-size="6.5" font-weight="bold" lengthAdjust="spacing" textLength="10" x="17.5" y="882.4429">opt</text><text fill="#000000" font-family="sans-serif" font-size="5.5" font-weight="bold" lengthAdjust="spacing" textLength="103.5" x="50" y="882.0376">[User wants to use a sorting method]</text><polygon fill="#181818" points="53,892.582,48,894.582,53,896.582,51,894.582" style="stroke:#181818;stroke-width:0.5;"/><line style="stroke:#181818;stroke-width:0.5;stroke-dasharray:2.0,2.0;" x1="50" x2="410" y1="894.582" y2="894.582"/><text fill="#000000" font-family="sans-serif" font-size="6.5" font-weight="bold" lengthAdjust="spacing" textLength="7" x="56" y="892.2046">51</text><text fill="#000000" font-family="sans-serif" font-size="6.5" lengthAdjust="spacing" textLength="175" x="65" y="892.2046">Ask if it wants to sort the list by location, area or price (l,a,p)</text><polygon fill="#181818" points="402,906.8438,407,908.8438,402,910.8438,404,908.8438" style="stroke:#181818;stroke-width:0.5;"/><line style="stroke:#181818;stroke-width:0.5;" x1="47.5" x2="405" y1="908.8438" y2="908.8438"/><text fill="#000000" font-family="sans-serif" font-size="6.5" font-weight="bold" lengthAdjust="spacing" textLength="7" x="51" y="906.4663">52</text><text fill="#000000" font-family="sans-serif" font-size="6.5" lengthAdjust="spacing" textLength="80.5" x="60" y="906.4663">Unregistered User responds</text><polygon fill="#181818" points="596.5,921.1055,601.5,923.1055,596.5,925.1055,598.5,923.1055" style="stroke:#181818;stroke-width:0.5;"/><line style="stroke:#181818;stroke-width:0.5;" x1="413" x2="599.5" y1="923.1055" y2="923.1055"/><text fill="#000000" font-family="sans-serif" font-size="6.5" font-weight="bold" lengthAdjust="spacing" textLength="7" x="416.5" y="920.728">53</text><text fill="#000000" font-family="sans-serif" font-size="6.5" lengthAdjust="spacing" textLength="171" x="425.5" y="920.728">getSortedFilteredList(FilteredPropertiesList, SortingPattern)</text><polygon fill="#181818" points="418.5,935.3672,413.5,937.3672,418.5,939.3672,416.5,937.3672" style="stroke:#181818;stroke-width:0.5;"/><line style="stroke:#181818;stroke-width:0.5;stroke-dasharray:2.0,2.0;" x1="415.5" x2="604.5" y1="937.3672" y2="937.3672"/><text fill="#000000" font-family="sans-serif" font-size="6.5" font-weight="bold" lengthAdjust="spacing" textLength="7" x="421.5" y="934.9897">54</text><text fill="#000000" font-family="sans-serif" font-size="6.5" lengthAdjust="spacing" textLength="62.5" x="430.5" y="934.9897">FilteredAndSortedList</text><polygon fill="#181818" points="53,949.6289,48,951.6289,53,953.6289,51,951.6289" style="stroke:#181818;stroke-width:0.5;"/><line style="stroke:#181818;stroke-width:0.5;stroke-dasharray:2.0,2.0;" x1="50" x2="410" y1="951.6289" y2="951.6289"/><text fill="#000000" font-family="sans-serif" font-size="6.5" font-weight="bold" lengthAdjust="spacing" textLength="7" x="56" y="949.2515">55</text><text fill="#000000" font-family="sans-serif" font-size="6.5" lengthAdjust="spacing" textLength="62.5" x="65" y="949.2515">FilteredAndSortedList</text><!--SRC=[xLTDJ-Cm4BtdLumu1HGGU-Mm4WkiL8a3elJ6nIIJncfYPss7Rl_zZkEqSRvQFhhYi2kX2japu_6RzyOJlUAYP8eLK4WXuqp90i6e2WEzsobPl69Bd9jDZg0mDamiSzz0PooHQowMaB9SOn0ORiXqCR-y_0Pp_5MXY15kELjQwt1-Une4h39ILCKBAle_DbB1oK8eN79jK6422utg19W6VzKk1dIcuJ4lcJ1mSlMWP8cqWFgUZ1OpvpFRQtKZXL4opviJRfuUxtlsZrXApIahygXj7kyUkYRAitWM8mvOqb_NvpfvjKbeB52OdSU6t2TswaWJUpLi_9KP748K1FqbEFzEgC0LvKNbq0RA7IAGavqNR4RUCsjlSJax8vzO8UtuoxIuHDF9B3njOzI81hKXEH1spducD74dHj_K0XjOY_Ccz1Nuq0O9TartGMjyH_9e4UeSuyeHD6xjOLFe-kSsljkZ9rmEO39PngbmvotM7HC_jScWBjTjqRlqzmEuIjd2Mji-QInTJAL4JH7GKXbIvii6SdAb1RjAgjV0H49CNMdWAN03QwupufMHaFASee79q8K8Dv4uzS-lsJR5rK5386heKef41x8qmtJhdpL9pJ-RNAhSw271nozyhLVRMsm3nPcK6k45pHfHG4gzIZFgRvw4B02AIc1xeBTyjEkw-tQkrsHbDYM2JE6bqboWxjrJOGgIAEBg75-a5_3JmNBtcnKbTN6iCqy7scueitcY-4Df_vlQRdfd7vBFADiBsPVc6xNzeodyM8X3whPa7nBS4faOI3GVetge8dqKJdS2M1xkIPHDgjAsbYQxZHF3EqKtdTEqvh9MTzkp1mBow_A5RwEluo-MprHB-On-_9WV5D2-44stUxE4nfWHqNCfaWWoMMcCWDcHq6O4OHvb4ViBMZeWfZfbIjIDtpPL9MMXMtM5RkSe8jglea4AeYFeZptK8u6FZl4MOL_nbZoOjBDMI2sWxG7Hi-XGBUhd-7z-jhcuySI7qS8Q-jqqyb_DQ1h5IVs_fR6Cv_61zd8uqFQLdY3wF9Dhzv56bFHdpZYMAh4J9r7VSjuDl6uORMVrGjBSJL_jjkCqS_fWJAV61ApsiU4AD9bCWfvcBEEF89nXEnW__5t2jyxjHuRzG94nCrmAQhVqxMf7cLBn66tBPL5v_9RRRmNp6lvjwMi6Z_CWWhcx-0Cpj2qcca2VJDSYSKUyT-8x6A2fz1y0]--></g></svg>