<?xml version="1.0" encoding="us-ascii" standalone="no"?><svg xmlns="http://www.w3.org/2000/svg" xmlns:xlink="http://www.w3.org/1999/xlink" contentStyleType="text/css" height="1344px" preserveAspectRatio="none" style="width:2017px;height:1344px;background:#FFFFFF;" version="1.1" viewBox="0 0 2017 1344" width="2017px" zoomAndPan="magnify"><defs/><g><text fill="#000000" font-family="sans-serif" font-size="14" font-weight="bold" lengthAdjust="spacing" textLength="181" x="917" y="27.6738">US05 SD - Alternative One</text><rect fill="#FFFFFF" height="1128.1953" style="stroke:#181818;stroke-width:1.0;" width="10" x="69.5" y="127.2813"/><rect fill="#FFFFFF" height="69.1641" style="stroke:#181818;stroke-width:1.0;" width="10" x="552.5" y="147.8047"/><rect fill="#FFFFFF" height="408.9219" style="stroke:#181818;stroke-width:1.0;" width="10" x="552.5" y="260.0156"/><rect fill="#FFFFFF" height="28.5234" style="stroke:#181818;stroke-width:1.0;" width="10" x="552.5" y="697.4609"/><rect fill="#FFFFFF" height="491.9688" style="stroke:#181818;stroke-width:1.0;" width="10" x="552.5" y="754.5078"/><rect fill="#FFFFFF" height="380.3984" style="stroke:#181818;stroke-width:1.0;" width="10" x="948.5" y="288.5391"/><rect fill="#FFFFFF" height="434.9219" style="stroke:#181818;stroke-width:1.0;" width="10" x="948.5" y="783.0313"/><rect fill="#FFFFFF" height="28.5234" style="stroke:#181818;stroke-width:1.0;" width="10" x="1090.5" y="317.0625"/><rect fill="#FFFFFF" height="28.5234" style="stroke:#181818;stroke-width:1.0;" width="10" x="1090.5" y="811.5547"/><rect fill="#FFFFFF" height="28.5234" style="stroke:#181818;stroke-width:1.0;" width="10" x="1236.5" y="374.1094"/><rect fill="#FFFFFF" height="28.5234" style="stroke:#181818;stroke-width:1.0;" width="10" x="1236.5" y="868.6016"/><rect fill="#FFFFFF" height="180.7344" style="stroke:#181818;stroke-width:1.0;" width="10" x="1403" y="431.1563"/><rect fill="#FFFFFF" height="263.7813" style="stroke:#181818;stroke-width:1.0;" width="10" x="1561" y="925.6484"/><rect fill="#FFFFFF" height="30.6406" style="stroke:#181818;stroke-width:1.0;" width="10" x="1800.5" y="469.6797"/><rect fill="#FFFFFF" height="30.6406" style="stroke:#181818;stroke-width:1.0;" width="10" x="1962" y="964.1719"/><line style="stroke:#181818;stroke-width:0.5;stroke-dasharray:5.0,5.0;" x1="74" x2="74" y1="117.2813" y2="1264.4766"/><line style="stroke:#181818;stroke-width:0.5;stroke-dasharray:5.0,5.0;" x1="557" x2="557" y1="117.2813" y2="1264.4766"/><line style="stroke:#181818;stroke-width:0.5;stroke-dasharray:5.0,5.0;" x1="953" x2="953" y1="186.125" y2="1264.4766"/><line style="stroke:#181818;stroke-width:0.5;stroke-dasharray:5.0,5.0;" x1="1095" x2="1095" y1="117.2813" y2="1264.4766"/><line style="stroke:#181818;stroke-width:0.5;stroke-dasharray:5.0,5.0;" x1="1241" x2="1241" y1="117.2813" y2="1264.4766"/><line style="stroke:#181818;stroke-width:0.5;stroke-dasharray:5.0,5.0;" x1="1408" x2="1408" y1="117.2813" y2="1264.4766"/><line style="stroke:#181818;stroke-width:0.5;stroke-dasharray:5.0,5.0;" x1="1566" x2="1566" y1="117.2813" y2="1264.4766"/><line style="stroke:#181818;stroke-width:0.5;stroke-dasharray:5.0,5.0;" x1="1805" x2="1805" y1="469.4766" y2="1264.4766"/><line style="stroke:#181818;stroke-width:0.5;stroke-dasharray:5.0,5.0;" x1="1967" x2="1967" y1="963.9688" y2="1264.4766"/><text fill="#000000" font-family="sans-serif" font-size="14" lengthAdjust="spacing" textLength="133" x="5" y="114.3145">System Administrator</text><ellipse cx="74.5" cy="50.1406" fill="#E2E2F0" rx="8" ry="8" style="stroke:#181818;stroke-width:0.5;"/><path d="M74.5,58.1406 L74.5,85.1406 M61.5,66.1406 L87.5,66.1406 M74.5,85.1406 L61.5,100.1406 M74.5,85.1406 L87.5,100.1406 " fill="none" style="stroke:#181818;stroke-width:0.5;"/><text fill="#000000" font-family="sans-serif" font-size="14" lengthAdjust="spacing" textLength="133" x="5" y="1276.1504">System Administrator</text><ellipse cx="74.5" cy="1287.6172" fill="#E2E2F0" rx="8" ry="8" style="stroke:#181818;stroke-width:0.5;"/><path d="M74.5,1295.6172 L74.5,1322.6172 M61.5,1303.6172 L87.5,1303.6172 M74.5,1322.6172 L61.5,1337.6172 M74.5,1322.6172 L87.5,1337.6172 " fill="none" style="stroke:#181818;stroke-width:0.5;"/><rect fill="#E2E2F0" height="29.6406" rx="2.5" ry="2.5" style="stroke:#181818;stroke-width:0.5;" width="117" x="499" y="86.6406"/><text fill="#000000" font-family="sans-serif" font-size="14" lengthAdjust="spacing" textLength="103" x="506" y="106.3145">:RegisterStoreUI</text><rect fill="#E2E2F0" height="29.6406" rx="2.5" ry="2.5" style="stroke:#181818;stroke-width:0.5;" width="117" x="499" y="1263.4766"/><text fill="#000000" font-family="sans-serif" font-size="14" lengthAdjust="spacing" textLength="103" x="506" y="1283.1504">:RegisterStoreUI</text><rect fill="#E2E2F0" height="29.6406" rx="2.5" ry="2.5" style="stroke:#181818;stroke-width:0.5;" width="167" x="870" y="1263.4766"/><text fill="#000000" font-family="sans-serif" font-size="14" lengthAdjust="spacing" textLength="153" x="877" y="1283.1504">:RegisterStoreController</text><rect fill="#E2E2F0" height="29.6406" rx="2.5" ry="2.5" style="stroke:#181818;stroke-width:0.5;" width="97" x="1047" y="86.6406"/><text fill="#000000" font-family="sans-serif" font-size="14" lengthAdjust="spacing" textLength="83" x="1054" y="106.3145">:Repositories</text><rect fill="#E2E2F0" height="29.6406" rx="2.5" ry="2.5" style="stroke:#181818;stroke-width:0.5;" width="97" x="1047" y="1263.4766"/><text fill="#000000" font-family="sans-serif" font-size="14" lengthAdjust="spacing" textLength="83" x="1054" y="1283.1504">:Repositories</text><rect fill="#E2E2F0" height="29.6406" rx="2.5" ry="2.5" style="stroke:#181818;stroke-width:0.5;" width="175" x="1154" y="86.6406"/><text fill="#000000" font-family="sans-serif" font-size="14" lengthAdjust="spacing" textLength="161" x="1161" y="106.3145">repositories :Repositories</text><rect fill="#E2E2F0" height="29.6406" rx="2.5" ry="2.5" style="stroke:#181818;stroke-width:0.5;" width="175" x="1154" y="1263.4766"/><text fill="#000000" font-family="sans-serif" font-size="14" lengthAdjust="spacing" textLength="161" x="1161" y="1283.1504">repositories :Repositories</text><rect fill="#E2E2F0" height="29.6406" rx="2.5" ry="2.5" style="stroke:#181818;stroke-width:0.5;" width="138" x="1339" y="86.6406"/><text fill="#000000" font-family="sans-serif" font-size="14" lengthAdjust="spacing" textLength="124" x="1346" y="106.3145">:AddressRepository</text><rect fill="#E2E2F0" height="29.6406" rx="2.5" ry="2.5" style="stroke:#181818;stroke-width:0.5;" width="138" x="1339" y="1263.4766"/><text fill="#000000" font-family="sans-serif" font-size="14" lengthAdjust="spacing" textLength="124" x="1346" y="1283.1504">:AddressRepository</text><rect fill="#E2E2F0" height="29.6406" rx="2.5" ry="2.5" style="stroke:#181818;stroke-width:0.5;" width="120" x="1506" y="86.6406"/><text fill="#000000" font-family="sans-serif" font-size="14" lengthAdjust="spacing" textLength="106" x="1513" y="106.3145">:StoreRepository</text><rect fill="#E2E2F0" height="29.6406" rx="2.5" ry="2.5" style="stroke:#181818;stroke-width:0.5;" width="120" x="1506" y="1263.4766"/><text fill="#000000" font-family="sans-serif" font-size="14" lengthAdjust="spacing" textLength="106" x="1513" y="1283.1504">:StoreRepository</text><rect fill="#E2E2F0" height="29.6406" rx="2.5" ry="2.5" style="stroke:#181818;stroke-width:0.5;" width="125" x="1743" y="1263.4766"/><text fill="#000000" font-family="sans-serif" font-size="14" lengthAdjust="spacing" textLength="111" x="1750" y="1283.1504">address :Address</text><rect fill="#E2E2F0" height="29.6406" rx="2.5" ry="2.5" style="stroke:#181818;stroke-width:0.5;" width="88" x="1923" y="1263.4766"/><text fill="#000000" font-family="sans-serif" font-size="14" lengthAdjust="spacing" textLength="74" x="1930" y="1283.1504">store :Store</text><rect fill="#FFFFFF" height="1128.1953" style="stroke:#181818;stroke-width:1.0;" width="10" x="69.5" y="127.2813"/><rect fill="#FFFFFF" height="69.1641" style="stroke:#181818;stroke-width:1.0;" width="10" x="552.5" y="147.8047"/><rect fill="#FFFFFF" height="408.9219" style="stroke:#181818;stroke-width:1.0;" width="10" x="552.5" y="260.0156"/><rect fill="#FFFFFF" height="28.5234" style="stroke:#181818;stroke-width:1.0;" width="10" x="552.5" y="697.4609"/><rect fill="#FFFFFF" height="491.9688" style="stroke:#181818;stroke-width:1.0;" width="10" x="552.5" y="754.5078"/><rect fill="#FFFFFF" height="380.3984" style="stroke:#181818;stroke-width:1.0;" width="10" x="948.5" y="288.5391"/><rect fill="#FFFFFF" height="434.9219" style="stroke:#181818;stroke-width:1.0;" width="10" x="948.5" y="783.0313"/><rect fill="#FFFFFF" height="28.5234" style="stroke:#181818;stroke-width:1.0;" width="10" x="1090.5" y="317.0625"/><rect fill="#FFFFFF" height="28.5234" style="stroke:#181818;stroke-width:1.0;" width="10" x="1090.5" y="811.5547"/><rect fill="#FFFFFF" height="28.5234" style="stroke:#181818;stroke-width:1.0;" width="10" x="1236.5" y="374.1094"/><rect fill="#FFFFFF" height="28.5234" style="stroke:#181818;stroke-width:1.0;" width="10" x="1236.5" y="868.6016"/><rect fill="#FFFFFF" height="180.7344" style="stroke:#181818;stroke-width:1.0;" width="10" x="1403" y="431.1563"/><rect fill="#FFFFFF" height="263.7813" style="stroke:#181818;stroke-width:1.0;" width="10" x="1561" y="925.6484"/><rect fill="#FFFFFF" height="30.6406" style="stroke:#181818;stroke-width:1.0;" width="10" x="1800.5" y="469.6797"/><rect fill="#FFFFFF" height="30.6406" style="stroke:#181818;stroke-width:1.0;" width="10" x="1962" y="964.1719"/><polygon fill="#181818" points="540.5,143.8047,550.5,147.8047,540.5,151.8047,544.5,147.8047" style="stroke:#181818;stroke-width:1.0;"/><line style="stroke:#181818;stroke-width:1.0;" x1="79.5" x2="546.5" y1="147.8047" y2="147.8047"/><text fill="#000000" font-family="sans-serif" font-size="13" font-weight="bold" lengthAdjust="spacing" textLength="7" x="86.5" y="143.0498">1</text><text fill="#000000" font-family="sans-serif" font-size="13" lengthAdjust="spacing" textLength="125" x="97.5" y="143.0498">asks to register Store</text><polygon fill="#181818" points="858,172.3281,868,176.3281,858,180.3281,862,176.3281" style="stroke:#181818;stroke-width:1.0;"/><line style="stroke:#181818;stroke-width:1.0;" x1="562.5" x2="864" y1="176.3281" y2="176.3281"/><text fill="#000000" font-family="sans-serif" font-size="13" font-weight="bold" lengthAdjust="spacing" textLength="7" x="569.5" y="171.5732">2</text><text fill="#000000" font-family="sans-serif" font-size="13" lengthAdjust="spacing" textLength="36" x="580.5" y="171.5732">create</text><rect fill="#E2E2F0" height="29.6406" rx="2.5" ry="2.5" style="stroke:#181818;stroke-width:0.5;" width="167" x="870" y="155.8047"/><text fill="#000000" font-family="sans-serif" font-size="14" lengthAdjust="spacing" textLength="153" x="877" y="175.4785">:RegisterStoreController</text><polygon fill="#181818" points="90.5,212.9688,80.5,216.9688,90.5,220.9688,86.5,216.9688" style="stroke:#181818;stroke-width:1.0;"/><line style="stroke:#181818;stroke-width:1.0;stroke-dasharray:2.0,2.0;" x1="84.5" x2="556.5" y1="216.9688" y2="216.9688"/><text fill="#000000" font-family="sans-serif" font-size="13" font-weight="bold" lengthAdjust="spacing" textLength="7" x="96.5" y="212.2139">3</text><text fill="#000000" font-family="sans-serif" font-size="13" lengthAdjust="spacing" textLength="438" x="107.5" y="212.2139">Request address (district, city name, street name and zip code of the store)</text><polygon fill="#181818" points="540.5,256.0156,550.5,260.0156,540.5,264.0156,544.5,260.0156" style="stroke:#181818;stroke-width:1.0;"/><line style="stroke:#181818;stroke-width:1.0;" x1="79.5" x2="546.5" y1="260.0156" y2="260.0156"/><text fill="#000000" font-family="sans-serif" font-size="13" font-weight="bold" lengthAdjust="spacing" textLength="7" x="86.5" y="247.999">4</text><text fill="#000000" font-family="sans-serif" font-size="13" lengthAdjust="spacing" textLength="387" x="97.5" y="240.7373">Submit requested address (district, city name, street name and zip</text><text fill="#000000" font-family="sans-serif" font-size="13" lengthAdjust="spacing" textLength="101" x="97.5" y="255.2607">code of the store)</text><polygon fill="#181818" points="936.5,284.5391,946.5,288.5391,936.5,292.5391,940.5,288.5391" style="stroke:#181818;stroke-width:1.0;"/><line style="stroke:#181818;stroke-width:1.0;" x1="562.5" x2="942.5" y1="288.5391" y2="288.5391"/><text fill="#000000" font-family="sans-serif" font-size="13" font-weight="bold" lengthAdjust="spacing" textLength="7" x="569.5" y="283.7842">5</text><text fill="#000000" font-family="sans-serif" font-size="13" lengthAdjust="spacing" textLength="331" x="580.5" y="283.7842">registerAddress(district, cityName, streetName, zipCode)</text><polygon fill="#181818" points="1078.5,313.0625,1088.5,317.0625,1078.5,321.0625,1082.5,317.0625" style="stroke:#181818;stroke-width:1.0;"/><line style="stroke:#181818;stroke-width:1.0;" x1="958.5" x2="1084.5" y1="317.0625" y2="317.0625"/><text fill="#000000" font-family="sans-serif" font-size="13" font-weight="bold" lengthAdjust="spacing" textLength="7" x="965.5" y="312.3076">6</text><text fill="#000000" font-family="sans-serif" font-size="13" lengthAdjust="spacing" textLength="75" x="976.5" y="312.3076">getInstance()</text><polygon fill="#181818" points="969.5,341.5859,959.5,345.5859,969.5,349.5859,965.5,345.5859" style="stroke:#181818;stroke-width:1.0;"/><line style="stroke:#181818;stroke-width:1.0;stroke-dasharray:2.0,2.0;" x1="963.5" x2="1094.5" y1="345.5859" y2="345.5859"/><text fill="#000000" font-family="sans-serif" font-size="13" font-weight="bold" lengthAdjust="spacing" textLength="7" x="975.5" y="340.8311">7</text><text fill="#000000" font-family="sans-serif" font-size="13" lengthAdjust="spacing" textLength="67" x="986.5" y="340.8311">repositories</text><polygon fill="#181818" points="1224.5,370.1094,1234.5,374.1094,1224.5,378.1094,1228.5,374.1094" style="stroke:#181818;stroke-width:1.0;"/><line style="stroke:#181818;stroke-width:1.0;" x1="958.5" x2="1230.5" y1="374.1094" y2="374.1094"/><text fill="#000000" font-family="sans-serif" font-size="13" font-weight="bold" lengthAdjust="spacing" textLength="7" x="965.5" y="369.3545">8</text><text fill="#000000" font-family="sans-serif" font-size="13" lengthAdjust="spacing" textLength="136" x="976.5" y="369.3545">getAddressRepository()</text><polygon fill="#181818" points="969.5,398.6328,959.5,402.6328,969.5,406.6328,965.5,402.6328" style="stroke:#181818;stroke-width:1.0;"/><line style="stroke:#181818;stroke-width:1.0;stroke-dasharray:2.0,2.0;" x1="963.5" x2="1240.5" y1="402.6328" y2="402.6328"/><text fill="#000000" font-family="sans-serif" font-size="13" font-weight="bold" lengthAdjust="spacing" textLength="7" x="975.5" y="397.8779">9</text><text fill="#000000" font-family="sans-serif" font-size="13" lengthAdjust="spacing" textLength="110" x="986.5" y="397.8779">AddressRepository</text><polygon fill="#181818" points="1391,427.1563,1401,431.1563,1391,435.1563,1395,431.1563" style="stroke:#181818;stroke-width:1.0;"/><line style="stroke:#181818;stroke-width:1.0;" x1="958.5" x2="1397" y1="431.1563" y2="431.1563"/><text fill="#000000" font-family="sans-serif" font-size="13" font-weight="bold" lengthAdjust="spacing" textLength="14" x="965.5" y="426.4014">10</text><text fill="#000000" font-family="sans-serif" font-size="13" lengthAdjust="spacing" textLength="331" x="983.5" y="426.4014">registerAddress(district, cityName, streetName, zipCode)</text><polygon fill="#181818" points="1731,455.6797,1741,459.6797,1731,463.6797,1735,459.6797" style="stroke:#181818;stroke-width:1.0;"/><line style="stroke:#181818;stroke-width:1.0;" x1="1413" x2="1737" y1="459.6797" y2="459.6797"/><text fill="#000000" font-family="sans-serif" font-size="13" font-weight="bold" lengthAdjust="spacing" textLength="14" x="1420" y="454.9248">11</text><text fill="#000000" font-family="sans-serif" font-size="13" lengthAdjust="spacing" textLength="288" x="1438" y="454.9248">Address(district, cityName, streetName, zipCode)</text><rect fill="#E2E2F0" height="29.6406" rx="2.5" ry="2.5" style="stroke:#181818;stroke-width:0.5;" width="125" x="1743" y="439.1563"/><text fill="#000000" font-family="sans-serif" font-size="14" lengthAdjust="spacing" textLength="111" x="1750" y="458.8301">address :Address</text><polygon fill="#181818" points="1424,496.3203,1414,500.3203,1424,504.3203,1420,500.3203" style="stroke:#181818;stroke-width:1.0;"/><line style="stroke:#181818;stroke-width:1.0;stroke-dasharray:2.0,2.0;" x1="1418" x2="1804.5" y1="500.3203" y2="500.3203"/><text fill="#000000" font-family="sans-serif" font-size="13" font-weight="bold" lengthAdjust="spacing" textLength="14" x="1430" y="495.5654">12</text><text fill="#000000" font-family="sans-serif" font-size="13" lengthAdjust="spacing" textLength="46" x="1448" y="495.5654">address</text><line style="stroke:#181818;stroke-width:1.0;" x1="1413" x2="1455" y1="528.8438" y2="528.8438"/><line style="stroke:#181818;stroke-width:1.0;" x1="1455" x2="1455" y1="528.8438" y2="541.8438"/><line style="stroke:#181818;stroke-width:1.0;" x1="1414" x2="1455" y1="541.8438" y2="541.8438"/><polygon fill="#181818" points="1424,537.8438,1414,541.8438,1424,545.8438,1420,541.8438" style="stroke:#181818;stroke-width:1.0;"/><text fill="#000000" font-family="sans-serif" font-size="13" font-weight="bold" lengthAdjust="spacing" textLength="14" x="1420" y="524.0889">13</text><text fill="#000000" font-family="sans-serif" font-size="13" lengthAdjust="spacing" textLength="116" x="1438" y="524.0889">addAdress(address)</text><line style="stroke:#181818;stroke-width:1.0;stroke-dasharray:2.0,2.0;" x1="1413" x2="1455" y1="570.3672" y2="570.3672"/><line style="stroke:#181818;stroke-width:1.0;stroke-dasharray:2.0,2.0;" x1="1455" x2="1455" y1="570.3672" y2="583.3672"/><line style="stroke:#181818;stroke-width:1.0;stroke-dasharray:2.0,2.0;" x1="1414" x2="1455" y1="583.3672" y2="583.3672"/><polygon fill="#181818" points="1424,579.3672,1414,583.3672,1424,587.3672,1420,583.3672" style="stroke:#181818;stroke-width:1.0;"/><text fill="#000000" font-family="sans-serif" font-size="13" font-weight="bold" lengthAdjust="spacing" textLength="14" x="1420" y="565.6123">14</text><text fill="#000000" font-family="sans-serif" font-size="13" lengthAdjust="spacing" textLength="4" x="1438" y="565.6123">&#160;</text><polygon fill="#181818" points="969.5,607.8906,959.5,611.8906,969.5,615.8906,965.5,611.8906" style="stroke:#181818;stroke-width:1.0;"/><line style="stroke:#181818;stroke-width:1.0;stroke-dasharray:2.0,2.0;" x1="963.5" x2="1407" y1="611.8906" y2="611.8906"/><text fill="#000000" font-family="sans-serif" font-size="13" font-weight="bold" lengthAdjust="spacing" textLength="14" x="975.5" y="607.1357">15</text><text fill="#000000" font-family="sans-serif" font-size="13" lengthAdjust="spacing" textLength="46" x="993.5" y="607.1357">address</text><polygon fill="#181818" points="573.5,636.4141,563.5,640.4141,573.5,644.4141,569.5,640.4141" style="stroke:#181818;stroke-width:1.0;"/><line style="stroke:#181818;stroke-width:1.0;stroke-dasharray:2.0,2.0;" x1="567.5" x2="947.5" y1="640.4141" y2="640.4141"/><text fill="#000000" font-family="sans-serif" font-size="13" font-weight="bold" lengthAdjust="spacing" textLength="14" x="579.5" y="635.6592">16</text><text fill="#000000" font-family="sans-serif" font-size="13" lengthAdjust="spacing" textLength="46" x="597.5" y="635.6592">address</text><polygon fill="#181818" points="90.5,664.9375,80.5,668.9375,90.5,672.9375,86.5,668.9375" style="stroke:#181818;stroke-width:1.0;"/><line style="stroke:#181818;stroke-width:1.0;stroke-dasharray:2.0,2.0;" x1="84.5" x2="556.5" y1="668.9375" y2="668.9375"/><text fill="#000000" font-family="sans-serif" font-size="13" font-weight="bold" lengthAdjust="spacing" textLength="14" x="96.5" y="664.1826">17</text><text fill="#000000" font-family="sans-serif" font-size="13" lengthAdjust="spacing" textLength="308" x="114.5" y="664.1826">Request data (ID, designation, phone number, e-mail)</text><polygon fill="#181818" points="540.5,693.4609,550.5,697.4609,540.5,701.4609,544.5,697.4609" style="stroke:#181818;stroke-width:1.0;"/><line style="stroke:#181818;stroke-width:1.0;" x1="79.5" x2="546.5" y1="697.4609" y2="697.4609"/><text fill="#000000" font-family="sans-serif" font-size="13" font-weight="bold" lengthAdjust="spacing" textLength="14" x="86.5" y="692.7061">18</text><text fill="#000000" font-family="sans-serif" font-size="13" lengthAdjust="spacing" textLength="362" x="104.5" y="692.7061">Submit requested data (ID, designation, phone number, e-mail)</text><polygon fill="#181818" points="90.5,721.9844,80.5,725.9844,90.5,729.9844,86.5,725.9844" style="stroke:#181818;stroke-width:1.0;"/><line style="stroke:#181818;stroke-width:1.0;stroke-dasharray:2.0,2.0;" x1="84.5" x2="556.5" y1="725.9844" y2="725.9844"/><text fill="#000000" font-family="sans-serif" font-size="13" font-weight="bold" lengthAdjust="spacing" textLength="14" x="96.5" y="721.2295">19</text><text fill="#000000" font-family="sans-serif" font-size="13" lengthAdjust="spacing" textLength="216" x="114.5" y="721.2295">Ask for the administrator confirmation</text><polygon fill="#181818" points="540.5,750.5078,550.5,754.5078,540.5,758.5078,544.5,754.5078" style="stroke:#181818;stroke-width:1.0;"/><line style="stroke:#181818;stroke-width:1.0;" x1="79.5" x2="546.5" y1="754.5078" y2="754.5078"/><text fill="#000000" font-family="sans-serif" font-size="13" font-weight="bold" lengthAdjust="spacing" textLength="14" x="86.5" y="749.7529">20</text><text fill="#000000" font-family="sans-serif" font-size="13" lengthAdjust="spacing" textLength="99" x="104.5" y="749.7529">Give confirmation</text><polygon fill="#181818" points="936.5,779.0313,946.5,783.0313,936.5,787.0313,940.5,783.0313" style="stroke:#181818;stroke-width:1.0;"/><line style="stroke:#181818;stroke-width:1.0;" x1="562.5" x2="942.5" y1="783.0313" y2="783.0313"/><text fill="#000000" font-family="sans-serif" font-size="13" font-weight="bold" lengthAdjust="spacing" textLength="14" x="569.5" y="778.2764">21</text><text fill="#000000" font-family="sans-serif" font-size="13" lengthAdjust="spacing" textLength="349" x="587.5" y="778.2764">registerStore(ID, designation, phoneNumber, email, address)</text><polygon fill="#181818" points="1078.5,807.5547,1088.5,811.5547,1078.5,815.5547,1082.5,811.5547" style="stroke:#181818;stroke-width:1.0;"/><line style="stroke:#181818;stroke-width:1.0;" x1="958.5" x2="1084.5" y1="811.5547" y2="811.5547"/><text fill="#000000" font-family="sans-serif" font-size="13" font-weight="bold" lengthAdjust="spacing" textLength="14" x="965.5" y="806.7998">22</text><text fill="#000000" font-family="sans-serif" font-size="13" lengthAdjust="spacing" textLength="75" x="983.5" y="806.7998">getInstance()</text><polygon fill="#181818" points="969.5,836.0781,959.5,840.0781,969.5,844.0781,965.5,840.0781" style="stroke:#181818;stroke-width:1.0;"/><line style="stroke:#181818;stroke-width:1.0;stroke-dasharray:2.0,2.0;" x1="963.5" x2="1094.5" y1="840.0781" y2="840.0781"/><text fill="#000000" font-family="sans-serif" font-size="13" font-weight="bold" lengthAdjust="spacing" textLength="14" x="975.5" y="835.3232">23</text><text fill="#000000" font-family="sans-serif" font-size="13" lengthAdjust="spacing" textLength="67" x="993.5" y="835.3232">repositories</text><polygon fill="#181818" points="1224.5,864.6016,1234.5,868.6016,1224.5,872.6016,1228.5,868.6016" style="stroke:#181818;stroke-width:1.0;"/><line style="stroke:#181818;stroke-width:1.0;" x1="958.5" x2="1230.5" y1="868.6016" y2="868.6016"/><text fill="#000000" font-family="sans-serif" font-size="13" font-weight="bold" lengthAdjust="spacing" textLength="14" x="965.5" y="863.8467">24</text><text fill="#000000" font-family="sans-serif" font-size="13" lengthAdjust="spacing" textLength="119" x="983.5" y="863.8467">getStoreRepository()</text><polygon fill="#181818" points="969.5,893.125,959.5,897.125,969.5,901.125,965.5,897.125" style="stroke:#181818;stroke-width:1.0;"/><line style="stroke:#181818;stroke-width:1.0;stroke-dasharray:2.0,2.0;" x1="963.5" x2="1240.5" y1="897.125" y2="897.125"/><text fill="#000000" font-family="sans-serif" font-size="13" font-weight="bold" lengthAdjust="spacing" textLength="14" x="975.5" y="892.3701">25</text><text fill="#000000" font-family="sans-serif" font-size="13" lengthAdjust="spacing" textLength="93" x="993.5" y="892.3701">StoreRepository</text><polygon fill="#181818" points="1549,921.6484,1559,925.6484,1549,929.6484,1553,925.6484" style="stroke:#181818;stroke-width:1.0;"/><line style="stroke:#181818;stroke-width:1.0;" x1="958.5" x2="1555" y1="925.6484" y2="925.6484"/><text fill="#000000" font-family="sans-serif" font-size="13" font-weight="bold" lengthAdjust="spacing" textLength="14" x="965.5" y="920.8936">26</text><text fill="#000000" font-family="sans-serif" font-size="13" lengthAdjust="spacing" textLength="349" x="983.5" y="920.8936">registerStore(ID, designation, phoneNumber, email, address)</text><polygon fill="#181818" points="1911,950.1719,1921,954.1719,1911,958.1719,1915,954.1719" style="stroke:#181818;stroke-width:1.0;"/><line style="stroke:#181818;stroke-width:1.0;" x1="1571" x2="1917" y1="954.1719" y2="954.1719"/><text fill="#000000" font-family="sans-serif" font-size="13" font-weight="bold" lengthAdjust="spacing" textLength="14" x="1578" y="949.417">27</text><text fill="#000000" font-family="sans-serif" font-size="13" lengthAdjust="spacing" textLength="310" x="1596" y="949.417">Store(ID, designation, phoneNumber, e-mail, address)</text><rect fill="#E2E2F0" height="29.6406" rx="2.5" ry="2.5" style="stroke:#181818;stroke-width:0.5;" width="88" x="1923" y="933.6484"/><text fill="#000000" font-family="sans-serif" font-size="14" lengthAdjust="spacing" textLength="74" x="1930" y="953.3223">store :Store</text><polygon fill="#181818" points="1582,990.8125,1572,994.8125,1582,998.8125,1578,994.8125" style="stroke:#181818;stroke-width:1.0;"/><line style="stroke:#181818;stroke-width:1.0;stroke-dasharray:2.0,2.0;" x1="1576" x2="1966" y1="994.8125" y2="994.8125"/><text fill="#000000" font-family="sans-serif" font-size="13" font-weight="bold" lengthAdjust="spacing" textLength="14" x="1588" y="990.0576">28</text><text fill="#000000" font-family="sans-serif" font-size="13" lengthAdjust="spacing" textLength="29" x="1606" y="990.0576">store</text><line style="stroke:#181818;stroke-width:1.0;" x1="1571" x2="1613" y1="1023.3359" y2="1023.3359"/><line style="stroke:#181818;stroke-width:1.0;" x1="1613" x2="1613" y1="1023.3359" y2="1036.3359"/><line style="stroke:#181818;stroke-width:1.0;" x1="1572" x2="1613" y1="1036.3359" y2="1036.3359"/><polygon fill="#181818" points="1582,1032.3359,1572,1036.3359,1582,1040.3359,1578,1036.3359" style="stroke:#181818;stroke-width:1.0;"/><text fill="#000000" font-family="sans-serif" font-size="13" font-weight="bold" lengthAdjust="spacing" textLength="14" x="1578" y="1018.5811">29</text><text fill="#000000" font-family="sans-serif" font-size="13" lengthAdjust="spacing" textLength="111" x="1596" y="1018.5811">validateStore(store)</text><line style="stroke:#181818;stroke-width:1.0;" x1="1571" x2="1613" y1="1064.8594" y2="1064.8594"/><line style="stroke:#181818;stroke-width:1.0;" x1="1613" x2="1613" y1="1064.8594" y2="1077.8594"/><line style="stroke:#181818;stroke-width:1.0;" x1="1572" x2="1613" y1="1077.8594" y2="1077.8594"/><polygon fill="#181818" points="1582,1073.8594,1572,1077.8594,1582,1081.8594,1578,1077.8594" style="stroke:#181818;stroke-width:1.0;"/><text fill="#000000" font-family="sans-serif" font-size="13" font-weight="bold" lengthAdjust="spacing" textLength="14" x="1578" y="1060.1045">30</text><text fill="#000000" font-family="sans-serif" font-size="13" lengthAdjust="spacing" textLength="89" x="1596" y="1060.1045">addStore(store)</text><line style="stroke:#181818;stroke-width:1.0;stroke-dasharray:2.0,2.0;" x1="1571" x2="1613" y1="1106.3828" y2="1106.3828"/><line style="stroke:#181818;stroke-width:1.0;stroke-dasharray:2.0,2.0;" x1="1613" x2="1613" y1="1106.3828" y2="1119.3828"/><line style="stroke:#181818;stroke-width:1.0;stroke-dasharray:2.0,2.0;" x1="1572" x2="1613" y1="1119.3828" y2="1119.3828"/><polygon fill="#181818" points="1582,1115.3828,1572,1119.3828,1582,1123.3828,1578,1119.3828" style="stroke:#181818;stroke-width:1.0;"/><text fill="#000000" font-family="sans-serif" font-size="13" font-weight="bold" lengthAdjust="spacing" textLength="14" x="1578" y="1101.6279">31</text><text fill="#000000" font-family="sans-serif" font-size="13" lengthAdjust="spacing" textLength="4" x="1596" y="1101.6279">&#160;</text><line style="stroke:#181818;stroke-width:1.0;stroke-dasharray:2.0,2.0;" x1="1571" x2="1613" y1="1147.9063" y2="1147.9063"/><line style="stroke:#181818;stroke-width:1.0;stroke-dasharray:2.0,2.0;" x1="1613" x2="1613" y1="1147.9063" y2="1160.9063"/><line style="stroke:#181818;stroke-width:1.0;stroke-dasharray:2.0,2.0;" x1="1572" x2="1613" y1="1160.9063" y2="1160.9063"/><polygon fill="#181818" points="1582,1156.9063,1572,1160.9063,1582,1164.9063,1578,1160.9063" style="stroke:#181818;stroke-width:1.0;"/><text fill="#000000" font-family="sans-serif" font-size="13" font-weight="bold" lengthAdjust="spacing" textLength="14" x="1578" y="1143.1514">32</text><text fill="#000000" font-family="sans-serif" font-size="13" lengthAdjust="spacing" textLength="4" x="1596" y="1143.1514">&#160;</text><polygon fill="#181818" points="969.5,1185.4297,959.5,1189.4297,969.5,1193.4297,965.5,1189.4297" style="stroke:#181818;stroke-width:1.0;"/><line style="stroke:#181818;stroke-width:1.0;stroke-dasharray:2.0,2.0;" x1="963.5" x2="1565" y1="1189.4297" y2="1189.4297"/><text fill="#000000" font-family="sans-serif" font-size="13" font-weight="bold" lengthAdjust="spacing" textLength="14" x="975.5" y="1184.6748">33</text><text fill="#000000" font-family="sans-serif" font-size="13" lengthAdjust="spacing" textLength="29" x="993.5" y="1184.6748">store</text><polygon fill="#181818" points="573.5,1213.9531,563.5,1217.9531,573.5,1221.9531,569.5,1217.9531" style="stroke:#181818;stroke-width:1.0;"/><line style="stroke:#181818;stroke-width:1.0;stroke-dasharray:2.0,2.0;" x1="567.5" x2="952.5" y1="1217.9531" y2="1217.9531"/><text fill="#000000" font-family="sans-serif" font-size="13" font-weight="bold" lengthAdjust="spacing" textLength="14" x="579.5" y="1213.1982">34</text><text fill="#000000" font-family="sans-serif" font-size="13" lengthAdjust="spacing" textLength="29" x="597.5" y="1213.1982">store</text><polygon fill="#181818" points="90.5,1242.4766,80.5,1246.4766,90.5,1250.4766,86.5,1246.4766" style="stroke:#181818;stroke-width:1.0;"/><line style="stroke:#181818;stroke-width:1.0;stroke-dasharray:2.0,2.0;" x1="84.5" x2="556.5" y1="1246.4766" y2="1246.4766"/><text fill="#000000" font-family="sans-serif" font-size="13" font-weight="bold" lengthAdjust="spacing" textLength="14" x="96.5" y="1241.7217">35</text><text fill="#000000" font-family="sans-serif" font-size="13" lengthAdjust="spacing" textLength="153" x="114.5" y="1241.7217">Display operation success</text><!--SRC=[lLLDZzem4BtdLupsqbq4KY-zSAWKmQf2QfUABBTUJ38irYPsQXjK-kix6IV1IO3zQ5KEA76Utxnvdl4uwNA4TVBn4oHpc42SEpHAE7b0M2gC8h5tMksB3Phemqvc25kjtKR_YaJgj86Rv6WT5X1dXLJIEYDezGQ4XNZ-BOfAOPnCPIcKWvlf2fy8WYOX3AuN35ilhe5cMZcZynmzv-nnzNK0BxMLX9Le6REw_xxiOam0WU66wdEFDCuoWzQsq6FB7C_dg_iawU5PwnbqyhXStNUnmbD34wFswWohhKZ1SpFAiqMLy_8W77gBwGycdyb7c0hxRC5foiXR2BptX2Ul8y8HkZ9oD88ff0RfYr-czOfi2YlykKVheD5wcrKdArCtXbIw8oXHu1Xe2T7n2mYLmMzPGggfGlGMt0w1zTz56NRY1t81alsca8xqSZpCtX7nXpeJyqB65BAnfdQ_5-SX2EEVASIC-0DAha7wCI4HL-TCn4_e5ieweLAy3T1SZGoPX29E9HZwm-20ki9vwa51XZ6uW1aRn1Zi20FnZcuATGd-ZKNTh9kQZgAGdckC7qUZLkGxJg5XRta7QTIb5ARTIkef6coClQoQuYx4Kw0mkmxJoVqpmJkUUEURFcZGPvim4qx0xM8-XWojVAhkPgt6KEwqGl0tynXmKWYP3vejUFLbUwKP1xtufi0XRIUDs3xJo33SdI8S4dHNgAqq1TDULVQb6aOTzClzpJVV1V4FZVPA-XZQK-wt-7_jyDu8UR6_U_WNkfj7nx-ovpJPeXCt1U87dYglefzSulVSDMql0RxWmsIReTXH4kuuY5nIAQFNL0-8YsXISmdOHRxwItrU0-61Y-5jq4879pfevcwZpQKjSt44NQ9Xly7kqxIwLlgzzGS0]--></g></svg>