<?xml version="1.0" encoding="us-ascii" standalone="no"?><svg xmlns="http://www.w3.org/2000/svg" xmlns:xlink="http://www.w3.org/1999/xlink" contentStyleType="text/css" height="1207px" preserveAspectRatio="none" style="width:927px;height:1207px;background:#FFFFFF;" version="1.1" viewBox="0 0 927 1207" width="927px" zoomAndPan="magnify"><defs/><g><rect fill="#FFFFFF" height="1027.7734" style="stroke:#181818;stroke-width:1.0;" width="10" x="95" y="90.6406"/><rect fill="#FFFFFF" height="57.0469" style="stroke:#181818;stroke-width:1.0;" width="10" x="853" y="111.1641"/><rect fill="#FFFFFF" height="52.0469" style="stroke:#181818;stroke-width:1.0;" width="10" x="853" y="196.7344"/><rect fill="#FFFFFF" height="52.0469" style="stroke:#181818;stroke-width:1.0;" width="10" x="853" y="277.3047"/><rect fill="#FFFFFF" height="158.9063" style="stroke:#181818;stroke-width:1.0;" width="10" x="853" y="357.875"/><rect fill="#FFFFFF" height="57.0469" style="stroke:#181818;stroke-width:1.0;" width="10" x="853" y="545.3047"/><rect fill="#FFFFFF" height="28.5234" style="stroke:#181818;stroke-width:1.0;" width="10" x="853" y="732.7344"/><rect fill="#FFFFFF" height="42.8125" style="stroke:#181818;stroke-width:1.0;" width="10" x="853" y="936.4531"/><rect fill="#FFFFFF" height="52.0469" style="stroke:#181818;stroke-width:1.0;" width="10" x="853" y="1007.7891"/><rect fill="none" height="593.1016" style="stroke:#000000;stroke-width:1.5;" width="890" x="20" y="211.7344"/><rect fill="none" height="173.4297" style="stroke:#000000;stroke-width:1.5;" width="870" x="30" y="292.3047"/><rect fill="none" height="173.4297" style="stroke:#000000;stroke-width:1.5;" width="870" x="30" y="479.7344"/><rect fill="none" height="116.3828" style="stroke:#000000;stroke-width:1.5;" width="870" x="30" y="667.1641"/><rect fill="none" height="291.5781" style="stroke:#000000;stroke-width:1.5;" width="910" x="10" y="818.8359"/><rect fill="none" height="189.7188" style="stroke:#000000;stroke-width:1.5;" width="890" x="20" y="899.4063"/><rect fill="none" height="59.3359" style="stroke:#000000;stroke-width:1.5;" width="870" x="30" y="1022.7891"/><line style="stroke:#181818;stroke-width:0.5;stroke-dasharray:5.0,5.0;" x1="100" x2="100" y1="80.6406" y2="1127.4141"/><line style="stroke:#181818;stroke-width:0.5;stroke-dasharray:5.0,5.0;" x1="858" x2="858" y1="80.6406" y2="1127.4141"/><text fill="#000000" font-family="sans-serif" font-size="14" lengthAdjust="spacing" textLength="114" x="40" y="77.6738">Unregistered User</text><ellipse cx="100" cy="13.5" fill="#E3E3E3" rx="8" ry="8" style="stroke:#181818;stroke-width:0.5;"/><path d="M100,21.5 L100,48.5 M87,29.5 L113,29.5 M100,48.5 L87,63.5 M100,48.5 L113,63.5 " fill="none" style="stroke:#181818;stroke-width:0.5;"/><text fill="#000000" font-family="sans-serif" font-size="14" lengthAdjust="spacing" textLength="114" x="40" y="1139.0879">Unregistered User</text><ellipse cx="100" cy="1150.5547" fill="#E3E3E3" rx="8" ry="8" style="stroke:#181818;stroke-width:0.5;"/><path d="M100,1158.5547 L100,1185.5547 M87,1166.5547 L113,1166.5547 M100,1185.5547 L87,1200.5547 M100,1185.5547 L113,1200.5547 " fill="none" style="stroke:#181818;stroke-width:0.5;"/><rect fill="#E3E3E3" height="29.6406" rx="2.5" ry="2.5" style="stroke:#181818;stroke-width:0.5;" width="64" x="826" y="50"/><text fill="#000000" font-family="sans-serif" font-size="14" lengthAdjust="spacing" textLength="50" x="833" y="69.6738">:System</text><rect fill="#E3E3E3" height="29.6406" rx="2.5" ry="2.5" style="stroke:#181818;stroke-width:0.5;" width="64" x="826" y="1126.4141"/><text fill="#000000" font-family="sans-serif" font-size="14" lengthAdjust="spacing" textLength="50" x="833" y="1146.0879">:System</text><rect fill="#FFFFFF" height="1027.7734" style="stroke:#181818;stroke-width:1.0;" width="10" x="95" y="90.6406"/><rect fill="#FFFFFF" height="57.0469" style="stroke:#181818;stroke-width:1.0;" width="10" x="853" y="111.1641"/><rect fill="#FFFFFF" height="52.0469" style="stroke:#181818;stroke-width:1.0;" width="10" x="853" y="196.7344"/><rect fill="#FFFFFF" height="52.0469" style="stroke:#181818;stroke-width:1.0;" width="10" x="853" y="277.3047"/><rect fill="#FFFFFF" height="158.9063" style="stroke:#181818;stroke-width:1.0;" width="10" x="853" y="357.875"/><rect fill="#FFFFFF" height="57.0469" style="stroke:#181818;stroke-width:1.0;" width="10" x="853" y="545.3047"/><rect fill="#FFFFFF" height="28.5234" style="stroke:#181818;stroke-width:1.0;" width="10" x="853" y="732.7344"/><rect fill="#FFFFFF" height="42.8125" style="stroke:#181818;stroke-width:1.0;" width="10" x="853" y="936.4531"/><rect fill="#FFFFFF" height="52.0469" style="stroke:#181818;stroke-width:1.0;" width="10" x="853" y="1007.7891"/><polygon fill="#181818" points="841,107.1641,851,111.1641,841,115.1641,845,111.1641" style="stroke:#181818;stroke-width:1.0;"/><line style="stroke:#181818;stroke-width:1.0;" x1="105" x2="847" y1="111.1641" y2="111.1641"/><text fill="#000000" font-family="sans-serif" font-size="13" font-weight="bold" lengthAdjust="spacing" textLength="7" x="112" y="106.4092">1</text><text fill="#000000" font-family="sans-serif" font-size="13" lengthAdjust="spacing" textLength="130" x="123" y="106.4092">Request properties list</text><polygon fill="#181818" points="116,135.6875,106,139.6875,116,143.6875,112,139.6875" style="stroke:#181818;stroke-width:1.0;"/><line style="stroke:#181818;stroke-width:1.0;stroke-dasharray:2.0,2.0;" x1="110" x2="852" y1="139.6875" y2="139.6875"/><text fill="#000000" font-family="sans-serif" font-size="13" font-weight="bold" lengthAdjust="spacing" textLength="7" x="122" y="134.9326">2</text><text fill="#000000" font-family="sans-serif" font-size="13" lengthAdjust="spacing" textLength="279" x="133" y="134.9326">Return the list sorted by the most recent listings</text><polygon fill="#181818" points="116,164.2109,106,168.2109,116,172.2109,112,168.2109" style="stroke:#181818;stroke-width:1.0;"/><line style="stroke:#181818;stroke-width:1.0;stroke-dasharray:2.0,2.0;" x1="110" x2="857" y1="168.2109" y2="168.2109"/><text fill="#000000" font-family="sans-serif" font-size="13" font-weight="bold" lengthAdjust="spacing" textLength="7" x="122" y="163.4561">3</text><text fill="#000000" font-family="sans-serif" font-size="13" lengthAdjust="spacing" textLength="221" x="133" y="163.4561">Asks if the user wishes to filter the list</text><polygon fill="#181818" points="841,192.7344,851,196.7344,841,200.7344,845,196.7344" style="stroke:#181818;stroke-width:1.0;"/><line style="stroke:#181818;stroke-width:1.0;stroke-dasharray:2.0,2.0;" x1="105" x2="847" y1="196.7344" y2="196.7344"/><text fill="#000000" font-family="sans-serif" font-size="13" font-weight="bold" lengthAdjust="spacing" textLength="7" x="112" y="191.9795">4</text><text fill="#000000" font-family="sans-serif" font-size="13" lengthAdjust="spacing" textLength="115" x="123" y="191.9795">Employee responds</text><path d="M20,211.7344 L81,211.7344 L81,218.2578 L71,228.2578 L20,228.2578 L20,211.7344 " fill="#EEEEEE" style="stroke:#000000;stroke-width:1.5;"/><rect fill="none" height="593.1016" style="stroke:#000000;stroke-width:1.5;" width="890" x="20" y="211.7344"/><text fill="#000000" font-family="sans-serif" font-size="13" font-weight="bold" lengthAdjust="spacing" textLength="16" x="35" y="224.5029">alt</text><text fill="#000000" font-family="sans-serif" font-size="11" font-weight="bold" lengthAdjust="spacing" textLength="185" x="96" y="223.6924">[Employee wants to filter results]</text><polygon fill="#181818" points="116,244.7813,106,248.7813,116,252.7813,112,248.7813" style="stroke:#181818;stroke-width:1.0;"/><line style="stroke:#181818;stroke-width:1.0;stroke-dasharray:2.0,2.0;" x1="110" x2="857" y1="248.7813" y2="248.7813"/><text fill="#000000" font-family="sans-serif" font-size="13" font-weight="bold" lengthAdjust="spacing" textLength="7" x="122" y="244.0264">5</text><text fill="#000000" font-family="sans-serif" font-size="13" lengthAdjust="spacing" textLength="522" x="133" y="244.0264">Ask the Employee if he wants to choose between for sale properties and renting properties</text><polygon fill="#181818" points="841,273.3047,851,277.3047,841,281.3047,845,277.3047" style="stroke:#181818;stroke-width:1.0;"/><line style="stroke:#181818;stroke-width:1.0;" x1="105" x2="847" y1="277.3047" y2="277.3047"/><text fill="#000000" font-family="sans-serif" font-size="13" font-weight="bold" lengthAdjust="spacing" textLength="7" x="112" y="272.5498">6</text><text fill="#000000" font-family="sans-serif" font-size="13" lengthAdjust="spacing" textLength="115" x="123" y="272.5498">Employee responds</text><path d="M30,292.3047 L91,292.3047 L91,298.8281 L81,308.8281 L30,308.8281 L30,292.3047 " fill="#EEEEEE" style="stroke:#000000;stroke-width:1.5;"/><rect fill="none" height="173.4297" style="stroke:#000000;stroke-width:1.5;" width="870" x="30" y="292.3047"/><text fill="#000000" font-family="sans-serif" font-size="13" font-weight="bold" lengthAdjust="spacing" textLength="16" x="45" y="305.0732">alt</text><text fill="#000000" font-family="sans-serif" font-size="11" font-weight="bold" lengthAdjust="spacing" textLength="382" x="106" y="304.2627">[Employee wants to choose between for sale and renting properties]</text><polygon fill="#181818" points="116,325.3516,106,329.3516,116,333.3516,112,329.3516" style="stroke:#181818;stroke-width:1.0;"/><line style="stroke:#181818;stroke-width:1.0;stroke-dasharray:2.0,2.0;" x1="110" x2="857" y1="329.3516" y2="329.3516"/><text fill="#000000" font-family="sans-serif" font-size="13" font-weight="bold" lengthAdjust="spacing" textLength="7" x="122" y="324.5967">7</text><text fill="#000000" font-family="sans-serif" font-size="13" lengthAdjust="spacing" textLength="382" x="133" y="324.5967">Ask the Employee to choose between rented or for sale properties</text><polygon fill="#181818" points="841,353.875,851,357.875,841,361.875,845,357.875" style="stroke:#181818;stroke-width:1.0;"/><line style="stroke:#181818;stroke-width:1.0;" x1="105" x2="847" y1="357.875" y2="357.875"/><text fill="#000000" font-family="sans-serif" font-size="13" font-weight="bold" lengthAdjust="spacing" textLength="7" x="112" y="353.1201">8</text><text fill="#000000" font-family="sans-serif" font-size="13" lengthAdjust="spacing" textLength="115" x="123" y="353.1201">Employee responds</text><polygon fill="#181818" points="116,382.3984,106,386.3984,116,390.3984,112,386.3984" style="stroke:#181818;stroke-width:1.0;"/><line style="stroke:#181818;stroke-width:1.0;stroke-dasharray:2.0,2.0;" x1="110" x2="852" y1="386.3984" y2="386.3984"/><text fill="#000000" font-family="sans-serif" font-size="13" font-weight="bold" lengthAdjust="spacing" textLength="7" x="122" y="381.6436">9</text><text fill="#000000" font-family="sans-serif" font-size="13" lengthAdjust="spacing" textLength="559" x="133" y="381.6436">Divides properties between renting and selling and lists them, sorts them by most recently added</text><polygon fill="#181818" points="116,410.9219,106,414.9219,116,418.9219,112,414.9219" style="stroke:#181818;stroke-width:1.0;"/><line style="stroke:#181818;stroke-width:1.0;stroke-dasharray:2.0,2.0;" x1="110" x2="852" y1="414.9219" y2="414.9219"/><text fill="#000000" font-family="sans-serif" font-size="13" font-weight="bold" lengthAdjust="spacing" textLength="14" x="122" y="410.167">10</text><text fill="#000000" font-family="sans-serif" font-size="13" lengthAdjust="spacing" textLength="350" x="140" y="410.167">Ask the Employee if he wants to choose the type of property</text><polygon fill="#181818" points="116,439.4453,106,443.4453,116,447.4453,112,443.4453" style="stroke:#181818;stroke-width:1.0;"/><line style="stroke:#181818;stroke-width:1.0;stroke-dasharray:2.0,2.0;" x1="110" x2="852" y1="443.4453" y2="443.4453"/><text fill="#000000" font-family="sans-serif" font-size="13" font-weight="bold" lengthAdjust="spacing" textLength="14" x="122" y="438.6904">11</text><text fill="#000000" font-family="sans-serif" font-size="13" lengthAdjust="spacing" textLength="115" x="140" y="438.6904">Employee responds</text><line style="stroke:#000000;stroke-width:1.0;stroke-dasharray:2.0,2.0;" x1="30" x2="900" y1="452.4453" y2="452.4453"/><text fill="#000000" font-family="sans-serif" font-size="11" font-weight="bold" lengthAdjust="spacing" textLength="427" x="35" y="462.4033">[Employee does not want to choose between for sale and renting properties]</text><path d="M30,479.7344 L91,479.7344 L91,486.2578 L81,496.2578 L30,496.2578 L30,479.7344 " fill="#EEEEEE" style="stroke:#000000;stroke-width:1.5;"/><rect fill="none" height="173.4297" style="stroke:#000000;stroke-width:1.5;" width="870" x="30" y="479.7344"/><text fill="#000000" font-family="sans-serif" font-size="13" font-weight="bold" lengthAdjust="spacing" textLength="16" x="45" y="492.5029">alt</text><text fill="#000000" font-family="sans-serif" font-size="11" font-weight="bold" lengthAdjust="spacing" textLength="270" x="106" y="491.6924">[Employee wants to choose the type of property]</text><polygon fill="#181818" points="116,512.7813,106,516.7813,116,520.7813,112,516.7813" style="stroke:#181818;stroke-width:1.0;"/><line style="stroke:#181818;stroke-width:1.0;stroke-dasharray:2.0,2.0;" x1="110" x2="857" y1="516.7813" y2="516.7813"/><text fill="#000000" font-family="sans-serif" font-size="13" font-weight="bold" lengthAdjust="spacing" textLength="14" x="122" y="512.0264">12</text><text fill="#000000" font-family="sans-serif" font-size="13" lengthAdjust="spacing" textLength="284" x="140" y="512.0264">Ask the Employee to choose the type of property</text><polygon fill="#181818" points="841,541.3047,851,545.3047,841,549.3047,845,545.3047" style="stroke:#181818;stroke-width:1.0;"/><line style="stroke:#181818;stroke-width:1.0;" x1="105" x2="847" y1="545.3047" y2="545.3047"/><text fill="#000000" font-family="sans-serif" font-size="13" font-weight="bold" lengthAdjust="spacing" textLength="14" x="112" y="540.5498">13</text><text fill="#000000" font-family="sans-serif" font-size="13" lengthAdjust="spacing" textLength="111" x="130" y="540.5498">Employee chooses</text><polygon fill="#181818" points="116,569.8281,106,573.8281,116,577.8281,112,573.8281" style="stroke:#181818;stroke-width:1.0;"/><line style="stroke:#181818;stroke-width:1.0;stroke-dasharray:2.0,2.0;" x1="110" x2="852" y1="573.8281" y2="573.8281"/><text fill="#000000" font-family="sans-serif" font-size="13" font-weight="bold" lengthAdjust="spacing" textLength="14" x="122" y="569.0732">14</text><text fill="#000000" font-family="sans-serif" font-size="13" lengthAdjust="spacing" textLength="702" x="140" y="569.0732">Lists properties with the chosen type of property and the for sale or renting choice and sorts them by most recently added</text><polygon fill="#181818" points="116,598.3516,106,602.3516,116,606.3516,112,602.3516" style="stroke:#181818;stroke-width:1.0;"/><line style="stroke:#181818;stroke-width:1.0;stroke-dasharray:2.0,2.0;" x1="110" x2="857" y1="602.3516" y2="602.3516"/><text fill="#000000" font-family="sans-serif" font-size="13" font-weight="bold" lengthAdjust="spacing" textLength="14" x="122" y="597.5967">15</text><text fill="#000000" font-family="sans-serif" font-size="13" lengthAdjust="spacing" textLength="357" x="140" y="597.5967">Ask the Employee if he wants to choose the number of rooms</text><polygon fill="#181818" points="846,626.875,856,630.875,846,634.875,850,630.875" style="stroke:#181818;stroke-width:1.0;"/><line style="stroke:#181818;stroke-width:1.0;" x1="105" x2="852" y1="630.875" y2="630.875"/><text fill="#000000" font-family="sans-serif" font-size="13" font-weight="bold" lengthAdjust="spacing" textLength="14" x="112" y="626.1201">16</text><text fill="#000000" font-family="sans-serif" font-size="13" lengthAdjust="spacing" textLength="115" x="130" y="626.1201">Employee responds</text><line style="stroke:#000000;stroke-width:1.0;stroke-dasharray:2.0,2.0;" x1="30" x2="900" y1="639.875" y2="639.875"/><text fill="#000000" font-family="sans-serif" font-size="11" font-weight="bold" lengthAdjust="spacing" textLength="315" x="35" y="649.833">[Employee does not want to choose the type of property]</text><path d="M30,667.1641 L91,667.1641 L91,673.6875 L81,683.6875 L30,683.6875 L30,667.1641 " fill="#EEEEEE" style="stroke:#000000;stroke-width:1.5;"/><rect fill="none" height="116.3828" style="stroke:#000000;stroke-width:1.5;" width="870" x="30" y="667.1641"/><text fill="#000000" font-family="sans-serif" font-size="13" font-weight="bold" lengthAdjust="spacing" textLength="16" x="45" y="679.9326">alt</text><text fill="#000000" font-family="sans-serif" font-size="11" font-weight="bold" lengthAdjust="spacing" textLength="365" x="106" y="679.1221">[Employee wants to choose the number of rooms of the property]</text><polygon fill="#181818" points="116,700.2109,106,704.2109,116,708.2109,112,704.2109" style="stroke:#181818;stroke-width:1.0;"/><line style="stroke:#181818;stroke-width:1.0;stroke-dasharray:2.0,2.0;" x1="110" x2="857" y1="704.2109" y2="704.2109"/><text fill="#000000" font-family="sans-serif" font-size="13" font-weight="bold" lengthAdjust="spacing" textLength="14" x="122" y="699.4561">17</text><text fill="#000000" font-family="sans-serif" font-size="13" lengthAdjust="spacing" textLength="249" x="140" y="699.4561">Asks client to choose the number of rooms</text><polygon fill="#181818" points="841,728.7344,851,732.7344,841,736.7344,845,732.7344" style="stroke:#181818;stroke-width:1.0;"/><line style="stroke:#181818;stroke-width:1.0;" x1="105" x2="847" y1="732.7344" y2="732.7344"/><text fill="#000000" font-family="sans-serif" font-size="13" font-weight="bold" lengthAdjust="spacing" textLength="14" x="112" y="727.9795">18</text><text fill="#000000" font-family="sans-serif" font-size="13" lengthAdjust="spacing" textLength="115" x="130" y="727.9795">Employee responds</text><polygon fill="#181818" points="116,757.2578,106,761.2578,116,765.2578,112,761.2578" style="stroke:#181818;stroke-width:1.0;"/><line style="stroke:#181818;stroke-width:1.0;stroke-dasharray:2.0,2.0;" x1="110" x2="857" y1="761.2578" y2="761.2578"/><text fill="#000000" font-family="sans-serif" font-size="13" font-weight="bold" lengthAdjust="spacing" textLength="14" x="122" y="756.5029">19</text><text fill="#000000" font-family="sans-serif" font-size="13" lengthAdjust="spacing" textLength="706" x="140" y="756.5029">Lists properties with type of property and number and the for sale or renting choice and sorts them by most recently added</text><line style="stroke:#000000;stroke-width:1.0;stroke-dasharray:2.0,2.0;" x1="30" x2="900" y1="770.2578" y2="770.2578"/><text fill="#000000" font-family="sans-serif" font-size="11" font-weight="bold" lengthAdjust="spacing" textLength="410" x="35" y="780.2158">[Employee does not want to choose the number of rooms of the property]</text><line style="stroke:#000000;stroke-width:1.0;stroke-dasharray:2.0,2.0;" x1="20" x2="910" y1="791.5469" y2="791.5469"/><text fill="#000000" font-family="sans-serif" font-size="11" font-weight="bold" lengthAdjust="spacing" textLength="228" x="25" y="801.5049">[Employee does not want to filter the list]</text><path d="M10,818.8359 L71,818.8359 L71,825.3594 L61,835.3594 L10,835.3594 L10,818.8359 " fill="#EEEEEE" style="stroke:#000000;stroke-width:1.5;"/><rect fill="none" height="291.5781" style="stroke:#000000;stroke-width:1.5;" width="910" x="10" y="818.8359"/><text fill="#000000" font-family="sans-serif" font-size="13" font-weight="bold" lengthAdjust="spacing" textLength="16" x="25" y="831.6045">alt</text><text fill="#000000" font-family="sans-serif" font-size="11" font-weight="bold" lengthAdjust="spacing" textLength="182" x="86" y="830.7939">[Employee wants to sort results]</text><polygon fill="#181818" points="116,851.8828,106,855.8828,116,859.8828,112,855.8828" style="stroke:#181818;stroke-width:1.0;"/><line style="stroke:#181818;stroke-width:1.0;stroke-dasharray:2.0,2.0;" x1="110" x2="857" y1="855.8828" y2="855.8828"/><text fill="#000000" font-family="sans-serif" font-size="13" font-weight="bold" lengthAdjust="spacing" textLength="14" x="122" y="851.1279">20</text><text fill="#000000" font-family="sans-serif" font-size="13" lengthAdjust="spacing" textLength="276" x="140" y="851.1279">Ask the User if he wants to sort the list by price</text><polygon fill="#181818" points="846,880.4063,856,884.4063,846,888.4063,850,884.4063" style="stroke:#181818;stroke-width:1.0;"/><line style="stroke:#181818;stroke-width:1.0;" x1="105" x2="852" y1="884.4063" y2="884.4063"/><text fill="#000000" font-family="sans-serif" font-size="13" font-weight="bold" lengthAdjust="spacing" textLength="14" x="112" y="879.6514">21</text><text fill="#000000" font-family="sans-serif" font-size="13" lengthAdjust="spacing" textLength="84" x="130" y="879.6514">User responds</text><path d="M20,899.4063 L81,899.4063 L81,905.9297 L71,915.9297 L20,915.9297 L20,899.4063 " fill="#EEEEEE" style="stroke:#000000;stroke-width:1.5;"/><rect fill="none" height="189.7188" style="stroke:#000000;stroke-width:1.5;" width="890" x="20" y="899.4063"/><text fill="#000000" font-family="sans-serif" font-size="13" font-weight="bold" lengthAdjust="spacing" textLength="16" x="35" y="912.1748">alt</text><text fill="#000000" font-family="sans-serif" font-size="11" font-weight="bold" lengthAdjust="spacing" textLength="186" x="96" y="911.3643">[Employee wants to sort by price]</text><polygon fill="#181818" points="116,932.4531,106,936.4531,116,940.4531,112,936.4531" style="stroke:#181818;stroke-width:1.0;"/><line style="stroke:#181818;stroke-width:1.0;stroke-dasharray:2.0,2.0;" x1="110" x2="852" y1="936.4531" y2="936.4531"/><text fill="#000000" font-family="sans-serif" font-size="13" font-weight="bold" lengthAdjust="spacing" textLength="14" x="122" y="931.6982">22</text><text fill="#000000" font-family="sans-serif" font-size="13" lengthAdjust="spacing" textLength="294" x="140" y="931.6982">Lists  properties by price and  most recently added</text><line style="stroke:#000000;stroke-width:1.0;stroke-dasharray:2.0,2.0;" x1="20" x2="910" y1="945.4531" y2="945.4531"/><text fill="#000000" font-family="sans-serif" font-size="11" font-weight="bold" lengthAdjust="spacing" textLength="203" x="25" y="955.4111">[User does not want to sort by price]</text><polygon fill="#181818" points="116,975.2656,106,979.2656,116,983.2656,112,979.2656" style="stroke:#181818;stroke-width:1.0;"/><line style="stroke:#181818;stroke-width:1.0;stroke-dasharray:2.0,2.0;" x1="110" x2="857" y1="979.2656" y2="979.2656"/><text fill="#000000" font-family="sans-serif" font-size="13" font-weight="bold" lengthAdjust="spacing" textLength="14" x="122" y="974.5107">23</text><text fill="#000000" font-family="sans-serif" font-size="13" lengthAdjust="spacing" textLength="283" x="140" y="974.5107">Ask the User if he wants to sort the list by parish</text><polygon fill="#181818" points="841,1003.7891,851,1007.7891,841,1011.7891,845,1007.7891" style="stroke:#181818;stroke-width:1.0;"/><line style="stroke:#181818;stroke-width:1.0;" x1="105" x2="847" y1="1007.7891" y2="1007.7891"/><text fill="#000000" font-family="sans-serif" font-size="13" font-weight="bold" lengthAdjust="spacing" textLength="14" x="112" y="1003.0342">24</text><text fill="#000000" font-family="sans-serif" font-size="13" lengthAdjust="spacing" textLength="84" x="130" y="1003.0342">User responds</text><path d="M30,1022.7891 L91,1022.7891 L91,1029.3125 L81,1039.3125 L30,1039.3125 L30,1022.7891 " fill="#EEEEEE" style="stroke:#000000;stroke-width:1.5;"/><rect fill="none" height="59.3359" style="stroke:#000000;stroke-width:1.5;" width="870" x="30" y="1022.7891"/><text fill="#000000" font-family="sans-serif" font-size="13" font-weight="bold" lengthAdjust="spacing" textLength="16" x="45" y="1035.5576">alt</text><text fill="#000000" font-family="sans-serif" font-size="11" font-weight="bold" lengthAdjust="spacing" textLength="201" x="106" y="1034.7471">[Employee wants to sort by location]</text><polygon fill="#181818" points="116,1055.8359,106,1059.8359,116,1063.8359,112,1059.8359" style="stroke:#181818;stroke-width:1.0;"/><line style="stroke:#181818;stroke-width:1.0;stroke-dasharray:2.0,2.0;" x1="110" x2="857" y1="1059.8359" y2="1059.8359"/><text fill="#000000" font-family="sans-serif" font-size="13" font-weight="bold" lengthAdjust="spacing" textLength="14" x="122" y="1055.0811">25</text><text fill="#000000" font-family="sans-serif" font-size="13" lengthAdjust="spacing" textLength="293" x="140" y="1055.0811">Lists properties by parish and most recently added</text><line style="stroke:#000000;stroke-width:1.0;stroke-dasharray:2.0,2.0;" x1="30" x2="900" y1="1068.8359" y2="1068.8359"/><text fill="#000000" font-family="sans-serif" font-size="11" font-weight="bold" lengthAdjust="spacing" textLength="238" x="35" y="1078.7939">[Employee does not want to sort by parish]</text><line style="stroke:#000000;stroke-width:1.0;stroke-dasharray:2.0,2.0;" x1="10" x2="920" y1="1097.125" y2="1097.125"/><text fill="#000000" font-family="sans-serif" font-size="11" font-weight="bold" lengthAdjust="spacing" textLength="227" x="15" y="1107.083">[Employee does not want to sort results]</text><!--SRC=[nLTBZjim3Dtx5CHisWBD1GP5WG7INO423UO0Yit4GcJ9bUW4ldqfEVux7tioCrufj4G-FZxIYZj8dGihCiYCDd5gJOP0ji38DMzo4H_47ZTKAWIBCGczLzqDBXM9EKczXvrG3gFe2qdYlPlI4MQmmNy5wXXXBSNUx_-wsQo_mGfU5A7LWkGHuO_cSw8WeujiYvRNCHaBJw_Qubwo7ui9l3gqJo0S_CfoPKh4Y06GZ6KkDC7JSnKmxAYMmOqy2iBsI0JyrBzWzRE6-Gn_FL17a5kJ8_j51uf3XmEDdzend9_pwHKxQfnwLrHO3PHYS07EME84jcKmPOPDp2GoQl-QgNC3N3zMgnROYpiuaBjmjc0Eu2HTokZ8m4vw4fj05Qm4By9j4-zctbWjkjpen5KvAshVd9ZYRaJUMIXohUVpSp7oPR9yVY63niQvffsGSMgCGzWYdH0rx5WOJh30EeKIEc58sbFPCG_1NMFceYp6vFJEJBDq2V8TEAyYlCxaYCWn4X-SbSXu9cYSZdM3jBUGzu2Sr_8e4rP0HmpTN3tHddI7IjLhtodE4vLz3vrPhNrtTZfJbI2I19Etq3-jOx-5oXp1x6hKvNL6UzDWWj8-NyX3kDsL66P46mem5aYpxredCzG_cUWyhTyxCHQm-p1fLu4Vh-pVGQOTNPyafI4_ZkYuTCCqGmdz-wQcnZObvJCohghyIPglFkqUi3Kc-vXXiwGpRijsVXiCSlSBRrxO5LVBuI1M4aSPVGRx7zCGKrrmplPX3N4lMui5DqiWGN-LwKQ4uVqmwibtMhQUZUdxtOBBNJqV_DrzE1j2eEQEpCpdbYlIzxhanXPYpRcj1I1j_6YE77iNZxEB8Aff7Otb4T2E2ZU0DBkB7b4DOVb_HhHWHiojoktAA1Fp7qMZtt-cD8c78jur2sxqO5FAYi-bWtVqqUaPxi7Gz7JKS_4V]--></g></svg>