<?xml version="1.0" encoding="us-ascii" standalone="no"?><svg xmlns="http://www.w3.org/2000/svg" xmlns:xlink="http://www.w3.org/1999/xlink" contentStyleType="text/css" height="1269px" preserveAspectRatio="none" style="width:1835px;height:1269px;background:#FFFFFF;" version="1.1" viewBox="0 0 1835 1269" width="1835px" zoomAndPan="magnify"><defs/><g><rect fill="#FFFFFF" height="1074.3125" style="stroke:#181818;stroke-width:1.0;" width="10" x="69.5" y="93.6211"/><rect fill="#FFFFFF" height="187.7461" style="stroke:#181818;stroke-width:1.0;" width="10" x="319.5" y="116.9121"/><rect fill="#FFFFFF" height="217.7461" style="stroke:#181818;stroke-width:1.0;" width="10" x="319.5" y="335.9492"/><rect fill="#FFFFFF" height="31.291" style="stroke:#181818;stroke-width:1.0;" width="10" x="319.5" y="584.9863"/><rect fill="#FFFFFF" height="529.3652" style="stroke:#181818;stroke-width:1.0;" width="10" x="319.5" y="647.5684"/><rect fill="#FFFFFF" height="36.291" style="stroke:#181818;stroke-width:1.0;" width="10" x="324.5" y="1056.0605"/><rect fill="#FFFFFF" height="36.291" style="stroke:#181818;stroke-width:1.0;" width="10" x="324.5" y="1131.6426"/><rect fill="#FFFFFF" height="125.1641" style="stroke:#181818;stroke-width:1.0;" width="10" x="825.5" y="148.2031"/><rect fill="#FFFFFF" height="155.1641" style="stroke:#181818;stroke-width:1.0;" width="10" x="825.5" y="367.2402"/><rect fill="#FFFFFF" height="320.6191" style="stroke:#181818;stroke-width:1.0;" width="10" x="825.5" y="696.1504"/><rect fill="#FFFFFF" height="31.291" style="stroke:#181818;stroke-width:1.0;" width="10" x="1013.5" y="179.4941"/><rect fill="#FFFFFF" height="61.291" style="stroke:#181818;stroke-width:1.0;" width="10" x="1013.5" y="398.5313"/><rect fill="#FFFFFF" height="31.291" style="stroke:#181818;stroke-width:1.0;" width="10" x="1013.5" y="727.4414"/><rect fill="#FFFFFF" height="61.291" style="stroke:#181818;stroke-width:1.0;" width="10" x="1192.5" y="429.8223"/><rect fill="#FFFFFF" height="119.873" style="stroke:#181818;stroke-width:1.0;" width="10" x="1354" y="758.7324"/><rect fill="#FFFFFF" height="42.291" style="stroke:#181818;stroke-width:1.0;" width="10" x="1359" y="798.0234"/><rect fill="#FFFFFF" height="31.291" style="stroke:#181818;stroke-width:1.0;" width="10" x="1354" y="954.1875"/><rect fill="#FFFFFF" height="31.291" style="stroke:#181818;stroke-width:1.0;" width="10" x="1504.5" y="210.7852"/><rect fill="#FFFFFF" height="75.582" style="stroke:#181818;stroke-width:1.0;" width="10" x="1682" y="878.6055"/><line style="stroke:#181818;stroke-width:0.5;stroke-dasharray:5.0,5.0;" x1="74" x2="74" y1="83.6211" y2="1185.9336"/><line style="stroke:#181818;stroke-width:0.5;stroke-dasharray:5.0,5.0;" x1="324" x2="324" y1="83.6211" y2="1185.9336"/><line style="stroke:#181818;stroke-width:0.5;stroke-dasharray:5.0,5.0;" x1="830" x2="830" y1="83.6211" y2="1185.9336"/><line style="stroke:#181818;stroke-width:0.5;stroke-dasharray:5.0,5.0;" x1="1018" x2="1018" y1="83.6211" y2="1185.9336"/><line style="stroke:#181818;stroke-width:0.5;stroke-dasharray:5.0,5.0;" x1="1197" x2="1197" y1="83.6211" y2="1185.9336"/><line style="stroke:#181818;stroke-width:0.5;stroke-dasharray:5.0,5.0;" x1="1359" x2="1359" y1="83.6211" y2="1185.9336"/><line style="stroke:#181818;stroke-width:0.5;stroke-dasharray:5.0,5.0;" x1="1509" x2="1509" y1="83.6211" y2="1185.9336"/><line style="stroke:#181818;stroke-width:0.5;stroke-dasharray:5.0,5.0;" x1="1687" x2="1687" y1="83.6211" y2="1185.9336"/><text fill="#000000" font-family="sans-serif" font-size="14" lengthAdjust="spacing" textLength="133" x="5" y="80.1074">System Administrator</text><ellipse cx="74.5" cy="13.5" fill="#E3E3E3" rx="8" ry="8" style="stroke:#181818;stroke-width:0.5;"/><path d="M74.5,21.5 L74.5,48.5 M61.5,29.5 L87.5,29.5 M74.5,48.5 L61.5,63.5 M74.5,48.5 L87.5,63.5 " fill="none" style="stroke:#181818;stroke-width:0.5;"/><text fill="#000000" font-family="sans-serif" font-size="14" lengthAdjust="spacing" textLength="133" x="5" y="1200.041">System Administrator</text><ellipse cx="74.5" cy="1212.0547" fill="#E3E3E3" rx="8" ry="8" style="stroke:#181818;stroke-width:0.5;"/><path d="M74.5,1220.0547 L74.5,1247.0547 M61.5,1228.0547 L87.5,1228.0547 M74.5,1247.0547 L61.5,1262.0547 M74.5,1247.0547 L87.5,1262.0547 " fill="none" style="stroke:#181818;stroke-width:0.5;"/><rect fill="#E3E3E3" height="32.6211" rx="2.5" ry="2.5" style="stroke:#181818;stroke-width:0.5;" width="145" x="252" y="50"/><text fill="#000000" font-family="sans-serif" font-size="14" lengthAdjust="spacing" textLength="131" x="259" y="72.1074">:RegisterEmployeeUI</text><rect fill="#E3E3E3" height="32.6211" rx="2.5" ry="2.5" style="stroke:#181818;stroke-width:0.5;" width="145" x="252" y="1184.9336"/><text fill="#000000" font-family="sans-serif" font-size="14" lengthAdjust="spacing" textLength="131" x="259" y="1207.041">:RegisterEmployeeUI</text><rect fill="#E3E3E3" height="32.6211" rx="2.5" ry="2.5" style="stroke:#181818;stroke-width:0.5;" width="195" x="733" y="50"/><text fill="#000000" font-family="sans-serif" font-size="14" lengthAdjust="spacing" textLength="181" x="740" y="72.1074">:RegisterEmployeeController</text><rect fill="#E3E3E3" height="32.6211" rx="2.5" ry="2.5" style="stroke:#181818;stroke-width:0.5;" width="195" x="733" y="1184.9336"/><text fill="#000000" font-family="sans-serif" font-size="14" lengthAdjust="spacing" textLength="181" x="740" y="1207.041">:RegisterEmployeeController</text><rect fill="#E3E3E3" height="32.6211" rx="2.5" ry="2.5" style="stroke:#181818;stroke-width:0.5;" width="97" x="970" y="50"/><text fill="#000000" font-family="sans-serif" font-size="14" lengthAdjust="spacing" textLength="83" x="977" y="72.1074">:Repositories</text><rect fill="#E3E3E3" height="32.6211" rx="2.5" ry="2.5" style="stroke:#181818;stroke-width:0.5;" width="97" x="970" y="1184.9336"/><text fill="#000000" font-family="sans-serif" font-size="14" lengthAdjust="spacing" textLength="83" x="977" y="1207.041">:Repositories</text><rect fill="#E3E3E3" height="32.6211" rx="2.5" ry="2.5" style="stroke:#181818;stroke-width:0.5;" width="155" x="1120" y="50"/><text fill="#000000" font-family="sans-serif" font-size="14" lengthAdjust="spacing" textLength="141" x="1127" y="72.1074">:AgencyListRepository</text><rect fill="#E3E3E3" height="32.6211" rx="2.5" ry="2.5" style="stroke:#181818;stroke-width:0.5;" width="155" x="1120" y="1184.9336"/><text fill="#000000" font-family="sans-serif" font-size="14" lengthAdjust="spacing" textLength="141" x="1127" y="1207.041">:AgencyListRepository</text><rect fill="#E3E3E3" height="32.6211" rx="2.5" ry="2.5" style="stroke:#181818;stroke-width:0.5;" width="148" x="1285" y="50"/><text fill="#000000" font-family="sans-serif" font-size="14" lengthAdjust="spacing" textLength="134" x="1292" y="72.1074">:EmployeeRepository</text><rect fill="#E3E3E3" height="32.6211" rx="2.5" ry="2.5" style="stroke:#181818;stroke-width:0.5;" width="148" x="1285" y="1184.9336"/><text fill="#000000" font-family="sans-serif" font-size="14" lengthAdjust="spacing" textLength="134" x="1292" y="1207.041">:EmployeeRepository</text><rect fill="#E3E3E3" height="32.6211" rx="2.5" ry="2.5" style="stroke:#181818;stroke-width:0.5;" width="133" x="1443" y="50"/><text fill="#000000" font-family="sans-serif" font-size="14" lengthAdjust="spacing" textLength="119" x="1450" y="72.1074">RoleListRepository</text><rect fill="#E3E3E3" height="32.6211" rx="2.5" ry="2.5" style="stroke:#181818;stroke-width:0.5;" width="133" x="1443" y="1184.9336"/><text fill="#000000" font-family="sans-serif" font-size="14" lengthAdjust="spacing" textLength="119" x="1450" y="1207.041">RoleListRepository</text><rect fill="#E3E3E3" height="32.6211" rx="2.5" ry="2.5" style="stroke:#181818;stroke-width:0.5;" width="202" x="1586" y="50"/><text fill="#000000" font-family="sans-serif" font-size="14" lengthAdjust="spacing" textLength="188" x="1593" y="72.1074">EmployeePasswordGenerator</text><rect fill="#E3E3E3" height="32.6211" rx="2.5" ry="2.5" style="stroke:#181818;stroke-width:0.5;" width="202" x="1586" y="1184.9336"/><text fill="#000000" font-family="sans-serif" font-size="14" lengthAdjust="spacing" textLength="188" x="1593" y="1207.041">EmployeePasswordGenerator</text><rect fill="#FFFFFF" height="1074.3125" style="stroke:#181818;stroke-width:1.0;" width="10" x="69.5" y="93.6211"/><rect fill="#FFFFFF" height="187.7461" style="stroke:#181818;stroke-width:1.0;" width="10" x="319.5" y="116.9121"/><rect fill="#FFFFFF" height="217.7461" style="stroke:#181818;stroke-width:1.0;" width="10" x="319.5" y="335.9492"/><rect fill="#FFFFFF" height="31.291" style="stroke:#181818;stroke-width:1.0;" width="10" x="319.5" y="584.9863"/><rect fill="#FFFFFF" height="529.3652" style="stroke:#181818;stroke-width:1.0;" width="10" x="319.5" y="647.5684"/><rect fill="#FFFFFF" height="36.291" style="stroke:#181818;stroke-width:1.0;" width="10" x="324.5" y="1056.0605"/><rect fill="#FFFFFF" height="36.291" style="stroke:#181818;stroke-width:1.0;" width="10" x="324.5" y="1131.6426"/><rect fill="#FFFFFF" height="125.1641" style="stroke:#181818;stroke-width:1.0;" width="10" x="825.5" y="148.2031"/><rect fill="#FFFFFF" height="155.1641" style="stroke:#181818;stroke-width:1.0;" width="10" x="825.5" y="367.2402"/><rect fill="#FFFFFF" height="320.6191" style="stroke:#181818;stroke-width:1.0;" width="10" x="825.5" y="696.1504"/><rect fill="#FFFFFF" height="31.291" style="stroke:#181818;stroke-width:1.0;" width="10" x="1013.5" y="179.4941"/><rect fill="#FFFFFF" height="61.291" style="stroke:#181818;stroke-width:1.0;" width="10" x="1013.5" y="398.5313"/><rect fill="#FFFFFF" height="31.291" style="stroke:#181818;stroke-width:1.0;" width="10" x="1013.5" y="727.4414"/><rect fill="#FFFFFF" height="61.291" style="stroke:#181818;stroke-width:1.0;" width="10" x="1192.5" y="429.8223"/><rect fill="#FFFFFF" height="119.873" style="stroke:#181818;stroke-width:1.0;" width="10" x="1354" y="758.7324"/><rect fill="#FFFFFF" height="42.291" style="stroke:#181818;stroke-width:1.0;" width="10" x="1359" y="798.0234"/><rect fill="#FFFFFF" height="31.291" style="stroke:#181818;stroke-width:1.0;" width="10" x="1354" y="954.1875"/><rect fill="#FFFFFF" height="31.291" style="stroke:#181818;stroke-width:1.0;" width="10" x="1504.5" y="210.7852"/><rect fill="#FFFFFF" height="75.582" style="stroke:#181818;stroke-width:1.0;" width="10" x="1682" y="878.6055"/><polygon fill="#181818" points="307.5,112.9121,317.5,116.9121,307.5,120.9121,311.5,116.9121" style="stroke:#181818;stroke-width:1.0;"/><line style="stroke:#181818;stroke-width:1.0;" x1="79.5" x2="313.5" y1="116.9121" y2="116.9121"/><text fill="#000000" font-family="sans-serif" font-size="13" font-weight="bold" lengthAdjust="spacing" textLength="7" x="86.5" y="111.6494">1</text><text fill="#000000" font-family="sans-serif" font-size="13" lengthAdjust="spacing" textLength="210" x="97.5" y="111.6494">requests to register a new employee</text><polygon fill="#181818" points="813.5,144.2031,823.5,148.2031,813.5,152.2031,817.5,148.2031" style="stroke:#181818;stroke-width:1.0;"/><line style="stroke:#181818;stroke-width:1.0;stroke-dasharray:2.0,2.0;" x1="329.5" x2="819.5" y1="148.2031" y2="148.2031"/><text fill="#000000" font-family="sans-serif" font-size="13" font-weight="bold" lengthAdjust="spacing" textLength="7" x="336.5" y="142.9404">2</text><text fill="#000000" font-family="sans-serif" font-size="13" lengthAdjust="spacing" textLength="62" x="347.5" y="142.9404">GetRoles()</text><polygon fill="#181818" points="1001.5,175.4941,1011.5,179.4941,1001.5,183.4941,1005.5,179.4941" style="stroke:#181818;stroke-width:1.0;"/><line style="stroke:#181818;stroke-width:1.0;" x1="835.5" x2="1007.5" y1="179.4941" y2="179.4941"/><text fill="#000000" font-family="sans-serif" font-size="13" font-weight="bold" lengthAdjust="spacing" textLength="7" x="842.5" y="174.2314">3</text><text fill="#000000" font-family="sans-serif" font-size="13" lengthAdjust="spacing" textLength="148" x="853.5" y="174.2314">repository = getInstance()</text><polygon fill="#181818" points="1492.5,206.7852,1502.5,210.7852,1492.5,214.7852,1496.5,210.7852" style="stroke:#181818;stroke-width:1.0;"/><line style="stroke:#181818;stroke-width:1.0;" x1="1018.5" x2="1498.5" y1="210.7852" y2="210.7852"/><text fill="#000000" font-family="sans-serif" font-size="13" font-weight="bold" lengthAdjust="spacing" textLength="7" x="1025.5" y="205.5225">4</text><text fill="#000000" font-family="sans-serif" font-size="13" lengthAdjust="spacing" textLength="73" x="1036.5" y="205.5225">getRoleList()</text><polygon fill="#181818" points="846.5,238.0762,836.5,242.0762,846.5,246.0762,842.5,242.0762" style="stroke:#181818;stroke-width:1.0;"/><line style="stroke:#181818;stroke-width:1.0;stroke-dasharray:2.0,2.0;" x1="840.5" x2="1508.5" y1="242.0762" y2="242.0762"/><text fill="#000000" font-family="sans-serif" font-size="13" font-weight="bold" lengthAdjust="spacing" textLength="7" x="852.5" y="236.8135">5</text><text fill="#000000" font-family="sans-serif" font-size="13" lengthAdjust="spacing" textLength="42" x="863.5" y="236.8135">roleList</text><polygon fill="#181818" points="340.5,269.3672,330.5,273.3672,340.5,277.3672,336.5,273.3672" style="stroke:#181818;stroke-width:1.0;"/><line style="stroke:#181818;stroke-width:1.0;stroke-dasharray:2.0,2.0;" x1="334.5" x2="829.5" y1="273.3672" y2="273.3672"/><text fill="#000000" font-family="sans-serif" font-size="13" font-weight="bold" lengthAdjust="spacing" textLength="7" x="346.5" y="268.1045">6</text><text fill="#000000" font-family="sans-serif" font-size="13" lengthAdjust="spacing" textLength="42" x="357.5" y="268.1045">roleList</text><polygon fill="#181818" points="90.5,300.6582,80.5,304.6582,90.5,308.6582,86.5,304.6582" style="stroke:#181818;stroke-width:1.0;"/><line style="stroke:#181818;stroke-width:1.0;stroke-dasharray:2.0,2.0;" x1="84.5" x2="323.5" y1="304.6582" y2="304.6582"/><text fill="#000000" font-family="sans-serif" font-size="13" font-weight="bold" lengthAdjust="spacing" textLength="7" x="96.5" y="299.3955">7</text><text fill="#000000" font-family="sans-serif" font-size="13" lengthAdjust="spacing" textLength="76" x="107.5" y="299.3955">show role list</text><polygon fill="#181818" points="307.5,331.9492,317.5,335.9492,307.5,339.9492,311.5,335.9492" style="stroke:#181818;stroke-width:1.0;"/><line style="stroke:#181818;stroke-width:1.0;" x1="79.5" x2="313.5" y1="335.9492" y2="335.9492"/><text fill="#000000" font-family="sans-serif" font-size="13" font-weight="bold" lengthAdjust="spacing" textLength="7" x="86.5" y="330.6865">8</text><text fill="#000000" font-family="sans-serif" font-size="13" lengthAdjust="spacing" textLength="104" x="97.5" y="330.6865">Asks for agencies</text><polygon fill="#181818" points="813.5,363.2402,823.5,367.2402,813.5,371.2402,817.5,367.2402" style="stroke:#181818;stroke-width:1.0;"/><line style="stroke:#181818;stroke-width:1.0;" x1="329.5" x2="819.5" y1="367.2402" y2="367.2402"/><text fill="#000000" font-family="sans-serif" font-size="13" font-weight="bold" lengthAdjust="spacing" textLength="7" x="336.5" y="361.9775">9</text><text fill="#000000" font-family="sans-serif" font-size="13" lengthAdjust="spacing" textLength="80" x="347.5" y="361.9775">getAgencies()</text><polygon fill="#181818" points="1001.5,394.5313,1011.5,398.5313,1001.5,402.5313,1005.5,398.5313" style="stroke:#181818;stroke-width:1.0;"/><line style="stroke:#181818;stroke-width:1.0;" x1="835.5" x2="1007.5" y1="398.5313" y2="398.5313"/><text fill="#000000" font-family="sans-serif" font-size="13" font-weight="bold" lengthAdjust="spacing" textLength="14" x="842.5" y="393.2686">10</text><text fill="#000000" font-family="sans-serif" font-size="13" lengthAdjust="spacing" textLength="75" x="860.5" y="393.2686">getInstance()</text><polygon fill="#181818" points="1180.5,425.8223,1190.5,429.8223,1180.5,433.8223,1184.5,429.8223" style="stroke:#181818;stroke-width:1.0;"/><line style="stroke:#181818;stroke-width:1.0;" x1="1023.5" x2="1186.5" y1="429.8223" y2="429.8223"/><text fill="#000000" font-family="sans-serif" font-size="13" font-weight="bold" lengthAdjust="spacing" textLength="14" x="1030.5" y="424.5596">11</text><text fill="#000000" font-family="sans-serif" font-size="13" lengthAdjust="spacing" textLength="132" x="1048.5" y="424.5596">getAgencyRepository()</text><polygon fill="#181818" points="846.5,487.1133,836.5,491.1133,846.5,495.1133,842.5,491.1133" style="stroke:#181818;stroke-width:1.0;"/><line style="stroke:#181818;stroke-width:1.0;stroke-dasharray:2.0,2.0;" x1="840.5" x2="1196.5" y1="491.1133" y2="491.1133"/><text fill="#000000" font-family="sans-serif" font-size="13" font-weight="bold" lengthAdjust="spacing" textLength="14" x="852.5" y="485.8506">12</text><text fill="#000000" font-family="sans-serif" font-size="13" lengthAdjust="spacing" textLength="63" x="870.5" y="485.8506">agencyList</text><polygon fill="#181818" points="340.5,518.4043,330.5,522.4043,340.5,526.4043,336.5,522.4043" style="stroke:#181818;stroke-width:1.0;"/><line style="stroke:#181818;stroke-width:1.0;stroke-dasharray:2.0,2.0;" x1="334.5" x2="829.5" y1="522.4043" y2="522.4043"/><text fill="#000000" font-family="sans-serif" font-size="13" font-weight="bold" lengthAdjust="spacing" textLength="14" x="346.5" y="517.1416">13</text><text fill="#000000" font-family="sans-serif" font-size="13" lengthAdjust="spacing" textLength="63" x="364.5" y="517.1416">agencyList</text><polygon fill="#181818" points="90.5,549.6953,80.5,553.6953,90.5,557.6953,86.5,553.6953" style="stroke:#181818;stroke-width:1.0;"/><line style="stroke:#181818;stroke-width:1.0;stroke-dasharray:2.0,2.0;" x1="84.5" x2="323.5" y1="553.6953" y2="553.6953"/><text fill="#000000" font-family="sans-serif" font-size="13" font-weight="bold" lengthAdjust="spacing" textLength="14" x="96.5" y="548.4326">14</text><text fill="#000000" font-family="sans-serif" font-size="13" lengthAdjust="spacing" textLength="104" x="114.5" y="548.4326">shows agency list</text><polygon fill="#181818" points="307.5,580.9863,317.5,584.9863,307.5,588.9863,311.5,584.9863" style="stroke:#181818;stroke-width:1.0;"/><line style="stroke:#181818;stroke-width:1.0;" x1="79.5" x2="313.5" y1="584.9863" y2="584.9863"/><text fill="#000000" font-family="sans-serif" font-size="13" font-weight="bold" lengthAdjust="spacing" textLength="14" x="86.5" y="579.7236">15</text><text fill="#000000" font-family="sans-serif" font-size="13" lengthAdjust="spacing" textLength="106" x="104.5" y="579.7236">selects an agency</text><polygon fill="#181818" points="90.5,612.2773,80.5,616.2773,90.5,620.2773,86.5,616.2773" style="stroke:#181818;stroke-width:1.0;"/><line style="stroke:#181818;stroke-width:1.0;stroke-dasharray:2.0,2.0;" x1="84.5" x2="323.5" y1="616.2773" y2="616.2773"/><text fill="#000000" font-family="sans-serif" font-size="13" font-weight="bold" lengthAdjust="spacing" textLength="14" x="96.5" y="611.0146">16</text><text fill="#000000" font-family="sans-serif" font-size="13" lengthAdjust="spacing" textLength="139" x="114.5" y="611.0146">requests employee data</text><polygon fill="#181818" points="307.5,643.5684,317.5,647.5684,307.5,651.5684,311.5,647.5684" style="stroke:#181818;stroke-width:1.0;"/><line style="stroke:#181818;stroke-width:1.0;" x1="79.5" x2="313.5" y1="647.5684" y2="647.5684"/><text fill="#000000" font-family="sans-serif" font-size="13" font-weight="bold" lengthAdjust="spacing" textLength="14" x="86.5" y="642.3057">17</text><text fill="#000000" font-family="sans-serif" font-size="13" lengthAdjust="spacing" textLength="136" x="104.5" y="642.3057">provides employee data</text><polygon fill="#181818" points="813.5,692.1504,823.5,696.1504,813.5,700.1504,817.5,696.1504" style="stroke:#181818;stroke-width:1.0;"/><line style="stroke:#181818;stroke-width:1.0;" x1="329.5" x2="819.5" y1="696.1504" y2="696.1504"/><text fill="#000000" font-family="sans-serif" font-size="13" font-weight="bold" lengthAdjust="spacing" textLength="14" x="336.5" y="682.2422">18</text><text fill="#000000" font-family="sans-serif" font-size="13" lengthAdjust="spacing" textLength="249" x="354.5" y="673.5967">registerEmployee(selectedRole,sex, name,</text><text fill="#000000" font-family="sans-serif" font-size="13" lengthAdjust="spacing" textLength="455" x="358.5" y="690.8877">passportCardNumber, taxNumber, address, email, telephone, selectedAgency)</text><polygon fill="#181818" points="1001.5,723.4414,1011.5,727.4414,1001.5,731.4414,1005.5,727.4414" style="stroke:#181818;stroke-width:1.0;"/><line style="stroke:#181818;stroke-width:1.0;" x1="835.5" x2="1007.5" y1="727.4414" y2="727.4414"/><text fill="#000000" font-family="sans-serif" font-size="13" font-weight="bold" lengthAdjust="spacing" textLength="14" x="842.5" y="722.1787">19</text><text fill="#000000" font-family="sans-serif" font-size="13" lengthAdjust="spacing" textLength="75" x="860.5" y="722.1787">getInstance()</text><polygon fill="#181818" points="1342,754.7324,1352,758.7324,1342,762.7324,1346,758.7324" style="stroke:#181818;stroke-width:1.0;"/><line style="stroke:#181818;stroke-width:1.0;" x1="1018.5" x2="1348" y1="758.7324" y2="758.7324"/><text fill="#000000" font-family="sans-serif" font-size="13" font-weight="bold" lengthAdjust="spacing" textLength="14" x="1025.5" y="753.4697">20</text><text fill="#000000" font-family="sans-serif" font-size="13" lengthAdjust="spacing" textLength="138" x="1043.5" y="753.4697">getEmployeeRepository</text><line style="stroke:#181818;stroke-width:1.0;" x1="1364" x2="1411" y1="785.0234" y2="785.0234"/><line style="stroke:#181818;stroke-width:1.0;" x1="1411" x2="1411" y1="785.0234" y2="798.0234"/><line style="stroke:#181818;stroke-width:1.0;" x1="1370" x2="1411" y1="798.0234" y2="798.0234"/><polygon fill="#181818" points="1380,794.0234,1370,798.0234,1380,802.0234,1376,798.0234" style="stroke:#181818;stroke-width:1.0;"/><text fill="#000000" font-family="sans-serif" font-size="13" font-weight="bold" lengthAdjust="spacing" textLength="14" x="1376" y="779.7607">21</text><text fill="#000000" font-family="sans-serif" font-size="13" lengthAdjust="spacing" textLength="78" x="1394" y="779.7607">validateData()</text><line style="stroke:#181818;stroke-width:1.0;stroke-dasharray:2.0,2.0;" x1="1369" x2="1411" y1="839.3145" y2="839.3145"/><line style="stroke:#181818;stroke-width:1.0;stroke-dasharray:2.0,2.0;" x1="1411" x2="1411" y1="839.3145" y2="852.3145"/><line style="stroke:#181818;stroke-width:1.0;stroke-dasharray:2.0,2.0;" x1="1364" x2="1411" y1="852.3145" y2="852.3145"/><polygon fill="#181818" points="1374,848.3145,1364,852.3145,1374,856.3145,1370,852.3145" style="stroke:#181818;stroke-width:1.0;"/><text fill="#000000" font-family="sans-serif" font-size="13" font-weight="bold" lengthAdjust="spacing" textLength="14" x="1376" y="834.0518">22</text><text fill="#000000" font-family="sans-serif" font-size="13" lengthAdjust="spacing" textLength="89" x="1394" y="834.0518">validation result</text><polygon fill="#181818" points="1670,874.6055,1680,878.6055,1670,882.6055,1674,878.6055" style="stroke:#181818;stroke-width:1.0;"/><line style="stroke:#181818;stroke-width:1.0;" x1="1359" x2="1676" y1="878.6055" y2="878.6055"/><text fill="#000000" font-family="sans-serif" font-size="13" font-weight="bold" lengthAdjust="spacing" textLength="14" x="1366" y="873.3428">23</text><text fill="#000000" font-family="sans-serif" font-size="13" lengthAdjust="spacing" textLength="115" x="1384" y="873.3428">generatePassword()</text><line style="stroke:#181818;stroke-width:1.0;stroke-dasharray:2.0,2.0;" x1="1692" x2="1734" y1="914.8965" y2="914.8965"/><line style="stroke:#181818;stroke-width:1.0;stroke-dasharray:2.0,2.0;" x1="1734" x2="1734" y1="914.8965" y2="927.8965"/><line style="stroke:#181818;stroke-width:1.0;stroke-dasharray:2.0,2.0;" x1="1687" x2="1734" y1="927.8965" y2="927.8965"/><polygon fill="#181818" points="1697,923.8965,1687,927.8965,1697,931.8965,1693,927.8965" style="stroke:#181818;stroke-width:1.0;"/><text fill="#000000" font-family="sans-serif" font-size="13" font-weight="bold" lengthAdjust="spacing" textLength="14" x="1699" y="909.6338">24</text><text fill="#000000" font-family="sans-serif" font-size="13" lengthAdjust="spacing" textLength="111" x="1717" y="909.6338">generate Password</text><polygon fill="#181818" points="1375,950.1875,1365,954.1875,1375,958.1875,1371,954.1875" style="stroke:#181818;stroke-width:1.0;"/><line style="stroke:#181818;stroke-width:1.0;" x1="1369" x2="1686" y1="954.1875" y2="954.1875"/><text fill="#000000" font-family="sans-serif" font-size="13" font-weight="bold" lengthAdjust="spacing" textLength="14" x="1381" y="948.9248">25</text><text fill="#000000" font-family="sans-serif" font-size="13" lengthAdjust="spacing" textLength="92" x="1399" y="948.9248">saveEmployee()</text><polygon fill="#181818" points="846.5,981.4785,836.5,985.4785,846.5,989.4785,842.5,985.4785" style="stroke:#181818;stroke-width:1.0;"/><line style="stroke:#181818;stroke-width:1.0;stroke-dasharray:2.0,2.0;" x1="840.5" x2="1358" y1="985.4785" y2="985.4785"/><text fill="#000000" font-family="sans-serif" font-size="13" font-weight="bold" lengthAdjust="spacing" textLength="14" x="852.5" y="980.2158">26</text><text fill="#000000" font-family="sans-serif" font-size="13" lengthAdjust="spacing" textLength="49" x="870.5" y="980.2158">success</text><polygon fill="#181818" points="340.5,1012.7695,330.5,1016.7695,340.5,1020.7695,336.5,1016.7695" style="stroke:#181818;stroke-width:1.0;"/><line style="stroke:#181818;stroke-width:1.0;stroke-dasharray:2.0,2.0;" x1="334.5" x2="829.5" y1="1016.7695" y2="1016.7695"/><text fill="#000000" font-family="sans-serif" font-size="13" font-weight="bold" lengthAdjust="spacing" textLength="14" x="346.5" y="1011.5068">27</text><text fill="#000000" font-family="sans-serif" font-size="13" lengthAdjust="spacing" textLength="49" x="364.5" y="1011.5068">success</text><line style="stroke:#181818;stroke-width:1.0;" x1="329.5" x2="376.5" y1="1043.0605" y2="1043.0605"/><line style="stroke:#181818;stroke-width:1.0;" x1="376.5" x2="376.5" y1="1043.0605" y2="1056.0605"/><line style="stroke:#181818;stroke-width:1.0;" x1="335.5" x2="376.5" y1="1056.0605" y2="1056.0605"/><polygon fill="#181818" points="345.5,1052.0605,335.5,1056.0605,345.5,1060.0605,341.5,1056.0605" style="stroke:#181818;stroke-width:1.0;"/><text fill="#000000" font-family="sans-serif" font-size="13" font-weight="bold" lengthAdjust="spacing" textLength="14" x="341.5" y="1037.7979">28</text><text fill="#000000" font-family="sans-serif" font-size="13" lengthAdjust="spacing" textLength="153" x="359.5" y="1037.7979">displaySuccessMessage()</text><polygon fill="#181818" points="90.5,1088.3516,80.5,1092.3516,90.5,1096.3516,86.5,1092.3516" style="stroke:#181818;stroke-width:1.0;"/><line style="stroke:#181818;stroke-width:1.0;stroke-dasharray:2.0,2.0;" x1="84.5" x2="318.5" y1="1092.3516" y2="1092.3516"/><text fill="#000000" font-family="sans-serif" font-size="13" font-weight="bold" lengthAdjust="spacing" textLength="14" x="96.5" y="1087.0889">29</text><text fill="#000000" font-family="sans-serif" font-size="13" lengthAdjust="spacing" textLength="163" x="114.5" y="1087.0889">operation success message</text><line style="stroke:#181818;stroke-width:1.0;" x1="329.5" x2="376.5" y1="1118.6426" y2="1118.6426"/><line style="stroke:#181818;stroke-width:1.0;" x1="376.5" x2="376.5" y1="1118.6426" y2="1131.6426"/><line style="stroke:#181818;stroke-width:1.0;" x1="335.5" x2="376.5" y1="1131.6426" y2="1131.6426"/><polygon fill="#181818" points="345.5,1127.6426,335.5,1131.6426,345.5,1135.6426,341.5,1131.6426" style="stroke:#181818;stroke-width:1.0;"/><text fill="#000000" font-family="sans-serif" font-size="13" font-weight="bold" lengthAdjust="spacing" textLength="14" x="341.5" y="1113.3799">30</text><text fill="#000000" font-family="sans-serif" font-size="13" lengthAdjust="spacing" textLength="295" x="359.5" y="1113.3799">sendPasswordByEmail(email, generatedPassword)</text><polygon fill="#181818" points="85.5,1163.9336,75.5,1167.9336,85.5,1171.9336,81.5,1167.9336" style="stroke:#181818;stroke-width:1.0;"/><line style="stroke:#181818;stroke-width:1.0;stroke-dasharray:2.0,2.0;" x1="79.5" x2="318.5" y1="1167.9336" y2="1167.9336"/><text fill="#000000" font-family="sans-serif" font-size="13" font-weight="bold" lengthAdjust="spacing" textLength="14" x="91.5" y="1162.6709">31</text><text fill="#000000" font-family="sans-serif" font-size="13" lengthAdjust="spacing" textLength="141" x="109.5" y="1162.6709">password sent message</text><!--SRC=[fLNRRjim37ttLn1zQe7a1mmiGDOLHO1k69hrRI-QpJf2RSaJbQJ- -r6s9SkND2ZsaC2c3W-fmulfJQfQ6551fPNE3aPN2DOSCQ5mKeliJHIujqs9O32pGXLb3A23oFLPgW9UHKcO9E9ejJfMVz0a_99PRU1ctv352hPv9PKaQmHRRq0GK4EjCM4oApDP2sNX9dt6Wc5e7ggwr0tYowv5l-okuEwriaQN9NRizx-UdsOUjIR9uILIYmc6PY_TrJZvYSksG9KrJnnemBQktO4pJZnyEXDyR1vxFEiI5m8uynpiQNuAehCs-ICg71HrLhQqqikJi3XedFWdM6zOIqYve7-FI9R0Qdxkj0G12i-0VPI1XzLFs6kztZXTqqUqBZ-wlHiWhU29-tSX5gHjOtehV842xKuHDrM6CSzIKP9amUgYz2AbHPUGqv6vSloGRJZq6YV-YI_ONiJbslEDs8A30wrRATCbO2V6oyv1lF8f7VIvfOLo0cTvFMgzOSejlH6yylG8rsRShlDAX3pvwjiUjLoEzMQn69-HVuc0CnY68CgZ6S0nRpGmr-gJHBnHGKIOnPWWvksQppVuCjvNnk56bQ7UOQauy-aXB7aXie_gtPPc9V27MVEJ1RcmucgGskYJp77gThaNp6GdtdPfOkuQTqNulW8bAbpzLhpSYMfjxBqm-OzsPQ_0YdV_AFBS8D6AGmjPyX4JrGUjS0MUirD-rd9NLW3yPz-jD_4gTLqytxXN6ooSZjPo4h-v6upUKpY9Kd81y1iN8KvzJ3AbkSWZMG_M-5YEkktZZFeDtuvRk_d3bs2yziOimHm-49w7ivjJWkUyp1ZyPvSZSSBGVdUZMPz_dZwwRF-feMEMSIDUJkNYmNWRBF0Cgw37v9BgKZJx3lgTVppRSQM7qHwskgwTQAwOVGYeEiVfU4U125NkHVxQFBWHk-q7pHSXd5y9N_SmnsalXOvUlUC_]--></g></svg>