<?xml version="1.0" encoding="us-ascii" standalone="no"?><svg xmlns="http://www.w3.org/2000/svg" xmlns:xlink="http://www.w3.org/1999/xlink" contentStyleType="text/css" height="758.4px" preserveAspectRatio="none" style="width:556px;height:758px;background:#FFFFFF;" version="1.1" viewBox="0 0 556 758" width="556.2px" zoomAndPan="magnify"><defs/><g><rect fill="#FFFFFF" height="650.8922" style="stroke:#181818;stroke-width:0.6;" width="6" x="57" y="54.3844"/><rect fill="#FFFFFF" height="34.2281" style="stroke:#181818;stroke-width:0.6;" width="6" x="511.8" y="66.6984"/><rect fill="#FFFFFF" height="31.2281" style="stroke:#181818;stroke-width:0.6;" width="6" x="511.8" y="118.0406"/><rect fill="#FFFFFF" height="31.2281" style="stroke:#181818;stroke-width:0.6;" width="6" x="511.8" y="166.3828"/><rect fill="#FFFFFF" height="95.3438" style="stroke:#181818;stroke-width:0.6;" width="6" x="511.8" y="214.725"/><rect fill="#FFFFFF" height="34.2281" style="stroke:#181818;stroke-width:0.6;" width="6" x="511.8" y="327.1828"/><rect fill="#FFFFFF" height="17.1141" style="stroke:#181818;stroke-width:0.6;" width="6" x="511.8" y="439.6406"/><rect fill="#FFFFFF" height="31.2281" style="stroke:#181818;stroke-width:0.6;" width="6" x="511.8" y="516.5297"/><rect fill="#FFFFFF" height="25.6875" style="stroke:#181818;stroke-width:0.6;" width="6" x="511.8" y="596.1"/><rect fill="#FFFFFF" height="31.2281" style="stroke:#181818;stroke-width:0.6;" width="6" x="511.8" y="638.9016"/><rect fill="none" height="355.8609" style="stroke:#000000;stroke-width:0.8999999999999999;" width="534" x="12" y="127.0406"/><rect fill="none" height="104.0578" style="stroke:#000000;stroke-width:0.8999999999999999;" width="522" x="18" y="175.3828"/><rect fill="none" height="104.0578" style="stroke:#000000;stroke-width:0.8999999999999999;" width="522" x="18" y="287.8406"/><rect fill="none" height="69.8297" style="stroke:#000000;stroke-width:0.8999999999999999;" width="522" x="18" y="400.2984"/><rect fill="none" height="174.9469" style="stroke:#000000;stroke-width:0.8999999999999999;" width="546" x="6" y="525.5297"/><rect fill="none" height="113.8313" style="stroke:#000000;stroke-width:0.8999999999999999;" width="534" x="12" y="573.8719"/><rect fill="none" height="35.6016" style="stroke:#000000;stroke-width:0.8999999999999999;" width="522" x="18" y="647.9016"/><line style="stroke:#181818;stroke-width:0.3;stroke-dasharray:5.0,5.0;" x1="60" x2="60" y1="48.3844" y2="710.6766"/><line style="stroke:#181818;stroke-width:0.3;stroke-dasharray:5.0,5.0;" x1="514.8" x2="514.8" y1="48.3844" y2="710.6766"/><text fill="#000000" font-family="sans-serif" font-size="8.4" lengthAdjust="spacing" textLength="68.4" x="24" y="46.6043">Unregistered User</text><ellipse cx="60" cy="8.1" fill="#E3E3E3" rx="4.8" ry="4.8" style="stroke:#181818;stroke-width:0.3;"/><path d="M60,12.9 L60,29.1 M52.2,17.7 L67.8,17.7 M60,29.1 L52.2,38.1 M60,29.1 L67.8,38.1 " fill="none" style="stroke:#181818;stroke-width:0.3;"/><text fill="#000000" font-family="sans-serif" font-size="8.4" lengthAdjust="spacing" textLength="68.4" x="24" y="717.6809">Unregistered User</text><ellipse cx="60" cy="724.5609" fill="#E3E3E3" rx="4.8" ry="4.8" style="stroke:#181818;stroke-width:0.3;"/><path d="M60,729.3609 L60,745.5609 M52.2,734.1609 L67.8,734.1609 M60,745.5609 L52.2,754.5609 M60,745.5609 L67.8,754.5609 " fill="none" style="stroke:#181818;stroke-width:0.3;"/><rect fill="#E3E3E3" height="17.7844" rx="1.5" ry="1.5" style="stroke:#181818;stroke-width:0.3;" width="38.4" x="495.6" y="30"/><text fill="#000000" font-family="sans-serif" font-size="8.4" lengthAdjust="spacing" textLength="30" x="499.8" y="41.8043">:System</text><rect fill="#E3E3E3" height="17.7844" rx="1.5" ry="1.5" style="stroke:#181818;stroke-width:0.3;" width="38.4" x="495.6" y="710.0766"/><text fill="#000000" font-family="sans-serif" font-size="8.4" lengthAdjust="spacing" textLength="30" x="499.8" y="721.8809">:System</text><rect fill="#FFFFFF" height="650.8922" style="stroke:#181818;stroke-width:0.6;" width="6" x="57" y="54.3844"/><rect fill="#FFFFFF" height="34.2281" style="stroke:#181818;stroke-width:0.6;" width="6" x="511.8" y="66.6984"/><rect fill="#FFFFFF" height="31.2281" style="stroke:#181818;stroke-width:0.6;" width="6" x="511.8" y="118.0406"/><rect fill="#FFFFFF" height="31.2281" style="stroke:#181818;stroke-width:0.6;" width="6" x="511.8" y="166.3828"/><rect fill="#FFFFFF" height="95.3438" style="stroke:#181818;stroke-width:0.6;" width="6" x="511.8" y="214.725"/><rect fill="#FFFFFF" height="34.2281" style="stroke:#181818;stroke-width:0.6;" width="6" x="511.8" y="327.1828"/><rect fill="#FFFFFF" height="17.1141" style="stroke:#181818;stroke-width:0.6;" width="6" x="511.8" y="439.6406"/><rect fill="#FFFFFF" height="31.2281" style="stroke:#181818;stroke-width:0.6;" width="6" x="511.8" y="516.5297"/><rect fill="#FFFFFF" height="25.6875" style="stroke:#181818;stroke-width:0.6;" width="6" x="511.8" y="596.1"/><rect fill="#FFFFFF" height="31.2281" style="stroke:#181818;stroke-width:0.6;" width="6" x="511.8" y="638.9016"/><polygon fill="#181818" points="504.6,64.2984,510.6,66.6984,504.6,69.0984,507,66.6984" style="stroke:#181818;stroke-width:0.6;"/><line style="stroke:#181818;stroke-width:0.6;" x1="63" x2="508.2" y1="66.6984" y2="66.6984"/><text fill="#000000" font-family="sans-serif" font-size="7.8" font-weight="bold" lengthAdjust="spacing" textLength="4.2" x="67.2" y="63.8455">1</text><text fill="#000000" font-family="sans-serif" font-size="7.8" lengthAdjust="spacing" textLength="78" x="73.8" y="63.8455">Request properties list</text><polygon fill="#181818" points="69.6,81.4125,63.6,83.8125,69.6,86.2125,67.2,83.8125" style="stroke:#181818;stroke-width:0.6;"/><line style="stroke:#181818;stroke-width:0.6;stroke-dasharray:2.0,2.0;" x1="66" x2="511.2" y1="83.8125" y2="83.8125"/><text fill="#000000" font-family="sans-serif" font-size="7.8" font-weight="bold" lengthAdjust="spacing" textLength="4.2" x="73.2" y="80.9596">2</text><text fill="#000000" font-family="sans-serif" font-size="7.8" lengthAdjust="spacing" textLength="167.4" x="79.8" y="80.9596">Return the list sorted by the most recent listings</text><polygon fill="#181818" points="69.6,98.5266,63.6,100.9266,69.6,103.3266,67.2,100.9266" style="stroke:#181818;stroke-width:0.6;"/><line style="stroke:#181818;stroke-width:0.6;stroke-dasharray:2.0,2.0;" x1="66" x2="514.2" y1="100.9266" y2="100.9266"/><text fill="#000000" font-family="sans-serif" font-size="7.8" font-weight="bold" lengthAdjust="spacing" textLength="4.2" x="73.2" y="98.0736">3</text><text fill="#000000" font-family="sans-serif" font-size="7.8" lengthAdjust="spacing" textLength="150.6" x="79.8" y="98.0736">Asks if the user wishes to filter the list (y,n)</text><polygon fill="#181818" points="504.6,115.6406,510.6,118.0406,504.6,120.4406,507,118.0406" style="stroke:#181818;stroke-width:0.6;"/><line style="stroke:#181818;stroke-width:0.6;stroke-dasharray:2.0,2.0;" x1="63" x2="508.2" y1="118.0406" y2="118.0406"/><text fill="#000000" font-family="sans-serif" font-size="7.8" font-weight="bold" lengthAdjust="spacing" textLength="4.2" x="67.2" y="115.1877">4</text><text fill="#000000" font-family="sans-serif" font-size="7.8" lengthAdjust="spacing" textLength="50.4" x="73.8" y="115.1877">User responds</text><path d="M12,127.0406 L48.6,127.0406 L48.6,130.9547 L42.6,136.9547 L12,136.9547 L12,127.0406 " fill="#EEEEEE" style="stroke:#000000;stroke-width:0.8999999999999999;"/><rect fill="none" height="355.8609" style="stroke:#000000;stroke-width:0.8999999999999999;" width="534" x="12" y="127.0406"/><text fill="#000000" font-family="sans-serif" font-size="7.8" font-weight="bold" lengthAdjust="spacing" textLength="9.6" x="21" y="134.7018">alt</text><text fill="#000000" font-family="sans-serif" font-size="6.6" font-weight="bold" lengthAdjust="spacing" textLength="94.2" x="57.6" y="134.2154">[User wants to filter results]</text><polygon fill="#181818" points="69.6,146.8688,63.6,149.2687,69.6,151.6688,67.2,149.2687" style="stroke:#181818;stroke-width:0.6;"/><line style="stroke:#181818;stroke-width:0.6;stroke-dasharray:2.0,2.0;" x1="66" x2="514.2" y1="149.2687" y2="149.2687"/><text fill="#000000" font-family="sans-serif" font-size="7.8" font-weight="bold" lengthAdjust="spacing" textLength="4.2" x="73.2" y="146.4158">5</text><text fill="#000000" font-family="sans-serif" font-size="7.8" lengthAdjust="spacing" textLength="280.8" x="79.8" y="146.4158">Ask if he wants to choose between for sale properties and renting properties (y,n)</text><polygon fill="#181818" points="504.6,163.9828,510.6,166.3828,504.6,168.7828,507,166.3828" style="stroke:#181818;stroke-width:0.6;"/><line style="stroke:#181818;stroke-width:0.6;" x1="63" x2="508.2" y1="166.3828" y2="166.3828"/><text fill="#000000" font-family="sans-serif" font-size="7.8" font-weight="bold" lengthAdjust="spacing" textLength="4.2" x="67.2" y="163.5299">6</text><text fill="#000000" font-family="sans-serif" font-size="7.8" lengthAdjust="spacing" textLength="50.4" x="73.8" y="163.5299">User responds</text><path d="M18,175.3828 L54.6,175.3828 L54.6,179.2969 L48.6,185.2969 L18,185.2969 L18,175.3828 " fill="#EEEEEE" style="stroke:#000000;stroke-width:0.8999999999999999;"/><rect fill="none" height="104.0578" style="stroke:#000000;stroke-width:0.8999999999999999;" width="522" x="18" y="175.3828"/><text fill="#000000" font-family="sans-serif" font-size="7.8" font-weight="bold" lengthAdjust="spacing" textLength="9.6" x="27" y="183.0439">alt</text><text fill="#000000" font-family="sans-serif" font-size="6.6" font-weight="bold" lengthAdjust="spacing" textLength="212.4" x="63.6" y="182.5576">[User wants to choose between for sale and renting properties]</text><polygon fill="#181818" points="69.6,195.2109,63.6,197.6109,69.6,200.0109,67.2,197.6109" style="stroke:#181818;stroke-width:0.6;"/><line style="stroke:#181818;stroke-width:0.6;stroke-dasharray:2.0,2.0;" x1="66" x2="514.2" y1="197.6109" y2="197.6109"/><text fill="#000000" font-family="sans-serif" font-size="7.8" font-weight="bold" lengthAdjust="spacing" textLength="4.2" x="73.2" y="194.758">7</text><text fill="#000000" font-family="sans-serif" font-size="7.8" lengthAdjust="spacing" textLength="196.8" x="79.8" y="194.758">Ask to choose between rented or for sale properties (y,n)</text><polygon fill="#181818" points="504.6,212.325,510.6,214.725,504.6,217.125,507,214.725" style="stroke:#181818;stroke-width:0.6;"/><line style="stroke:#181818;stroke-width:0.6;" x1="63" x2="508.2" y1="214.725" y2="214.725"/><text fill="#000000" font-family="sans-serif" font-size="7.8" font-weight="bold" lengthAdjust="spacing" textLength="4.2" x="67.2" y="211.8721">8</text><text fill="#000000" font-family="sans-serif" font-size="7.8" lengthAdjust="spacing" textLength="50.4" x="73.8" y="211.8721">User responds</text><polygon fill="#181818" points="69.6,229.4391,63.6,231.8391,69.6,234.2391,67.2,231.8391" style="stroke:#181818;stroke-width:0.6;"/><line style="stroke:#181818;stroke-width:0.6;stroke-dasharray:2.0,2.0;" x1="66" x2="511.2" y1="231.8391" y2="231.8391"/><text fill="#000000" font-family="sans-serif" font-size="7.8" font-weight="bold" lengthAdjust="spacing" textLength="4.2" x="73.2" y="228.9861">9</text><text fill="#000000" font-family="sans-serif" font-size="7.8" lengthAdjust="spacing" textLength="335.4" x="79.8" y="228.9861">Divides properties between renting and selling and lists them, sorts them by most recently added</text><polygon fill="#181818" points="69.6,246.5531,63.6,248.9531,69.6,251.3531,67.2,248.9531" style="stroke:#181818;stroke-width:0.6;"/><line style="stroke:#181818;stroke-width:0.6;stroke-dasharray:2.0,2.0;" x1="66" x2="511.2" y1="248.9531" y2="248.9531"/><text fill="#000000" font-family="sans-serif" font-size="7.8" font-weight="bold" lengthAdjust="spacing" textLength="8.4" x="73.2" y="246.1002">10</text><text fill="#000000" font-family="sans-serif" font-size="7.8" lengthAdjust="spacing" textLength="177.6" x="84" y="246.1002">Ask if he wants to choose the type of property (y,n)</text><polygon fill="#181818" points="504.6,263.6672,510.6,266.0672,504.6,268.4672,507,266.0672" style="stroke:#181818;stroke-width:0.6;"/><line style="stroke:#181818;stroke-width:0.6;stroke-dasharray:2.0,2.0;" x1="63" x2="508.2" y1="266.0672" y2="266.0672"/><text fill="#000000" font-family="sans-serif" font-size="7.8" font-weight="bold" lengthAdjust="spacing" textLength="8.4" x="67.2" y="263.2143">11</text><text fill="#000000" font-family="sans-serif" font-size="7.8" lengthAdjust="spacing" textLength="50.4" x="78" y="263.2143">User responds</text><line style="stroke:#000000;stroke-width:0.6;stroke-dasharray:2.0,2.0;" x1="18" x2="540" y1="271.4672" y2="271.4672"/><text fill="#000000" font-family="sans-serif" font-size="6.6" font-weight="bold" lengthAdjust="spacing" textLength="239.4" x="21" y="277.442">[User does not want to choose between for sale and renting properties]</text><path d="M18,287.8406 L54.6,287.8406 L54.6,291.7547 L48.6,297.7547 L18,297.7547 L18,287.8406 " fill="#EEEEEE" style="stroke:#000000;stroke-width:0.8999999999999999;"/><rect fill="none" height="104.0578" style="stroke:#000000;stroke-width:0.8999999999999999;" width="522" x="18" y="287.8406"/><text fill="#000000" font-family="sans-serif" font-size="7.8" font-weight="bold" lengthAdjust="spacing" textLength="9.6" x="27" y="295.5018">alt</text><text fill="#000000" font-family="sans-serif" font-size="6.6" font-weight="bold" lengthAdjust="spacing" textLength="145.2" x="63.6" y="295.0154">[User wants to choose the type of property]</text><polygon fill="#181818" points="69.6,307.6688,63.6,310.0687,69.6,312.4688,67.2,310.0687" style="stroke:#181818;stroke-width:0.6;"/><line style="stroke:#181818;stroke-width:0.6;stroke-dasharray:2.0,2.0;" x1="66" x2="514.2" y1="310.0687" y2="310.0687"/><text fill="#000000" font-family="sans-serif" font-size="7.8" font-weight="bold" lengthAdjust="spacing" textLength="8.4" x="73.2" y="307.2158">12</text><text fill="#000000" font-family="sans-serif" font-size="7.8" lengthAdjust="spacing" textLength="120" x="84" y="307.2158">Ask to choose the type of property</text><polygon fill="#181818" points="504.6,324.7828,510.6,327.1828,504.6,329.5828,507,327.1828" style="stroke:#181818;stroke-width:0.6;"/><line style="stroke:#181818;stroke-width:0.6;" x1="63" x2="508.2" y1="327.1828" y2="327.1828"/><text fill="#000000" font-family="sans-serif" font-size="7.8" font-weight="bold" lengthAdjust="spacing" textLength="8.4" x="67.2" y="324.3299">13</text><text fill="#000000" font-family="sans-serif" font-size="7.8" lengthAdjust="spacing" textLength="48" x="78" y="324.3299">User chooses</text><polygon fill="#181818" points="69.6,341.8969,63.6,344.2969,69.6,346.6969,67.2,344.2969" style="stroke:#181818;stroke-width:0.6;"/><line style="stroke:#181818;stroke-width:0.6;stroke-dasharray:2.0,2.0;" x1="66" x2="511.2" y1="344.2969" y2="344.2969"/><text fill="#000000" font-family="sans-serif" font-size="7.8" font-weight="bold" lengthAdjust="spacing" textLength="8.4" x="73.2" y="341.4439">14</text><text fill="#000000" font-family="sans-serif" font-size="7.8" lengthAdjust="spacing" textLength="421.2" x="84" y="341.4439">Lists properties with the chosen type of property and the for sale or renting choice and sorts them by most recently added</text><polygon fill="#181818" points="69.6,359.0109,63.6,361.4109,69.6,363.8109,67.2,361.4109" style="stroke:#181818;stroke-width:0.6;"/><line style="stroke:#181818;stroke-width:0.6;stroke-dasharray:2.0,2.0;" x1="66" x2="514.2" y1="361.4109" y2="361.4109"/><text fill="#000000" font-family="sans-serif" font-size="7.8" font-weight="bold" lengthAdjust="spacing" textLength="8.4" x="73.2" y="358.558">15</text><text fill="#000000" font-family="sans-serif" font-size="7.8" lengthAdjust="spacing" textLength="181.8" x="84" y="358.558">Ask if he wants to choose the number of rooms (y,n)</text><polygon fill="#181818" points="507.6,376.125,513.6,378.525,507.6,380.925,510,378.525" style="stroke:#181818;stroke-width:0.6;"/><line style="stroke:#181818;stroke-width:0.6;" x1="63" x2="511.2" y1="378.525" y2="378.525"/><text fill="#000000" font-family="sans-serif" font-size="7.8" font-weight="bold" lengthAdjust="spacing" textLength="8.4" x="67.2" y="375.6721">16</text><text fill="#000000" font-family="sans-serif" font-size="7.8" lengthAdjust="spacing" textLength="50.4" x="78" y="375.6721">User responds</text><line style="stroke:#000000;stroke-width:0.6;stroke-dasharray:2.0,2.0;" x1="18" x2="540" y1="383.925" y2="383.925"/><text fill="#000000" font-family="sans-serif" font-size="6.6" font-weight="bold" lengthAdjust="spacing" textLength="172.2" x="21" y="389.8998">[User does not want to choose the type of property]</text><path d="M18,400.2984 L54.6,400.2984 L54.6,404.2125 L48.6,410.2125 L18,410.2125 L18,400.2984 " fill="#EEEEEE" style="stroke:#000000;stroke-width:0.8999999999999999;"/><rect fill="none" height="69.8297" style="stroke:#000000;stroke-width:0.8999999999999999;" width="522" x="18" y="400.2984"/><text fill="#000000" font-family="sans-serif" font-size="7.8" font-weight="bold" lengthAdjust="spacing" textLength="9.6" x="27" y="407.9596">alt</text><text fill="#000000" font-family="sans-serif" font-size="6.6" font-weight="bold" lengthAdjust="spacing" textLength="202.2" x="63.6" y="407.4732">[User wants to choose the number of rooms of the property]</text><polygon fill="#181818" points="69.6,420.1266,63.6,422.5266,69.6,424.9266,67.2,422.5266" style="stroke:#181818;stroke-width:0.6;"/><line style="stroke:#181818;stroke-width:0.6;stroke-dasharray:2.0,2.0;" x1="66" x2="514.2" y1="422.5266" y2="422.5266"/><text fill="#000000" font-family="sans-serif" font-size="7.8" font-weight="bold" lengthAdjust="spacing" textLength="8.4" x="73.2" y="419.6736">17</text><text fill="#000000" font-family="sans-serif" font-size="7.8" lengthAdjust="spacing" textLength="124.2" x="84" y="419.6736">Ask to choose the number of rooms</text><polygon fill="#181818" points="504.6,437.2406,510.6,439.6406,504.6,442.0406,507,439.6406" style="stroke:#181818;stroke-width:0.6;"/><line style="stroke:#181818;stroke-width:0.6;" x1="63" x2="508.2" y1="439.6406" y2="439.6406"/><text fill="#000000" font-family="sans-serif" font-size="7.8" font-weight="bold" lengthAdjust="spacing" textLength="8.4" x="67.2" y="436.7877">18</text><text fill="#000000" font-family="sans-serif" font-size="7.8" lengthAdjust="spacing" textLength="50.4" x="78" y="436.7877">User responds</text><polygon fill="#181818" points="69.6,454.3547,63.6,456.7547,69.6,459.1547,67.2,456.7547" style="stroke:#181818;stroke-width:0.6;"/><line style="stroke:#181818;stroke-width:0.6;stroke-dasharray:2.0,2.0;" x1="66" x2="514.2" y1="456.7547" y2="456.7547"/><text fill="#000000" font-family="sans-serif" font-size="7.8" font-weight="bold" lengthAdjust="spacing" textLength="8.4" x="73.2" y="453.9018">19</text><text fill="#000000" font-family="sans-serif" font-size="7.8" lengthAdjust="spacing" textLength="423.6" x="84" y="453.9018">Lists properties with type of property and number and the for sale or renting choice and sorts them by most recently added</text><line style="stroke:#000000;stroke-width:0.6;stroke-dasharray:2.0,2.0;" x1="18" x2="540" y1="462.1547" y2="462.1547"/><text fill="#000000" font-family="sans-serif" font-size="6.6" font-weight="bold" lengthAdjust="spacing" textLength="229.2" x="21" y="468.1295">[User does not want to choose the number of rooms of the property]</text><line style="stroke:#000000;stroke-width:0.6;stroke-dasharray:2.0,2.0;" x1="12" x2="546" y1="474.9281" y2="474.9281"/><text fill="#000000" font-family="sans-serif" font-size="6.6" font-weight="bold" lengthAdjust="spacing" textLength="120" x="15" y="480.9029">[User does not want to filter the list]</text><polygon fill="#181818" points="69.6,497.0156,63.6,499.4156,69.6,501.8156,67.2,499.4156" style="stroke:#181818;stroke-width:0.6;"/><line style="stroke:#181818;stroke-width:0.6;stroke-dasharray:2.0,2.0;" x1="66" x2="514.2" y1="499.4156" y2="499.4156"/><text fill="#000000" font-family="sans-serif" font-size="7.8" font-weight="bold" lengthAdjust="spacing" textLength="8.4" x="73.2" y="496.5627">20</text><text fill="#000000" font-family="sans-serif" font-size="7.8" lengthAdjust="spacing" textLength="145.2" x="84" y="496.5627">Ask if the user wishes to sort the list (y,n)</text><polygon fill="#181818" points="504.6,514.1297,510.6,516.5297,504.6,518.9297,507,516.5297" style="stroke:#181818;stroke-width:0.6;"/><line style="stroke:#181818;stroke-width:0.6;" x1="63" x2="508.2" y1="516.5297" y2="516.5297"/><text fill="#000000" font-family="sans-serif" font-size="7.8" font-weight="bold" lengthAdjust="spacing" textLength="8.4" x="67.2" y="513.6768">21</text><text fill="#000000" font-family="sans-serif" font-size="7.8" lengthAdjust="spacing" textLength="50.4" x="78" y="513.6768">User responds</text><path d="M6,525.5297 L42.6,525.5297 L42.6,529.4438 L36.6,535.4438 L6,535.4438 L6,525.5297 " fill="#EEEEEE" style="stroke:#000000;stroke-width:0.8999999999999999;"/><rect fill="none" height="174.9469" style="stroke:#000000;stroke-width:0.8999999999999999;" width="546" x="6" y="525.5297"/><text fill="#000000" font-family="sans-serif" font-size="7.8" font-weight="bold" lengthAdjust="spacing" textLength="9.6" x="15" y="533.1908">alt</text><text fill="#000000" font-family="sans-serif" font-size="6.6" font-weight="bold" lengthAdjust="spacing" textLength="92.4" x="51.6" y="532.7045">[User wants to sort results]</text><polygon fill="#181818" points="69.6,545.3578,63.6,547.7578,69.6,550.1578,67.2,547.7578" style="stroke:#181818;stroke-width:0.6;"/><line style="stroke:#181818;stroke-width:0.6;stroke-dasharray:2.0,2.0;" x1="66" x2="514.2" y1="547.7578" y2="547.7578"/><text fill="#000000" font-family="sans-serif" font-size="7.8" font-weight="bold" lengthAdjust="spacing" textLength="8.4" x="73.2" y="544.9049">22</text><text fill="#000000" font-family="sans-serif" font-size="7.8" lengthAdjust="spacing" textLength="133.8" x="84" y="544.9049">Ask if he wants to sort the list by price</text><polygon fill="#181818" points="507.6,562.4719,513.6,564.8719,507.6,567.2719,510,564.8719" style="stroke:#181818;stroke-width:0.6;"/><line style="stroke:#181818;stroke-width:0.6;" x1="63" x2="511.2" y1="564.8719" y2="564.8719"/><text fill="#000000" font-family="sans-serif" font-size="7.8" font-weight="bold" lengthAdjust="spacing" textLength="8.4" x="67.2" y="562.0189">23</text><text fill="#000000" font-family="sans-serif" font-size="7.8" lengthAdjust="spacing" textLength="50.4" x="78" y="562.0189">User responds</text><path d="M12,573.8719 L48.6,573.8719 L48.6,577.7859 L42.6,583.7859 L12,583.7859 L12,573.8719 " fill="#EEEEEE" style="stroke:#000000;stroke-width:0.8999999999999999;"/><rect fill="none" height="113.8313" style="stroke:#000000;stroke-width:0.8999999999999999;" width="534" x="12" y="573.8719"/><text fill="#000000" font-family="sans-serif" font-size="7.8" font-weight="bold" lengthAdjust="spacing" textLength="9.6" x="21" y="581.533">alt</text><text fill="#000000" font-family="sans-serif" font-size="6.6" font-weight="bold" lengthAdjust="spacing" textLength="94.8" x="57.6" y="581.0467">[User wants to sort by price]</text><polygon fill="#181818" points="69.6,593.7,63.6,596.1,69.6,598.5,67.2,596.1" style="stroke:#181818;stroke-width:0.6;"/><line style="stroke:#181818;stroke-width:0.6;stroke-dasharray:2.0,2.0;" x1="66" x2="511.2" y1="596.1" y2="596.1"/><text fill="#000000" font-family="sans-serif" font-size="7.8" font-weight="bold" lengthAdjust="spacing" textLength="8.4" x="73.2" y="593.2471">24</text><text fill="#000000" font-family="sans-serif" font-size="7.8" lengthAdjust="spacing" textLength="176.4" x="84" y="593.2471">Lists  properties by price and  most recently added</text><line style="stroke:#000000;stroke-width:0.6;stroke-dasharray:2.0,2.0;" x1="12" x2="546" y1="601.5" y2="601.5"/><text fill="#000000" font-family="sans-serif" font-size="6.6" font-weight="bold" lengthAdjust="spacing" textLength="121.8" x="15" y="607.4748">[User does not want to sort by price]</text><polygon fill="#181818" points="69.6,619.3875,63.6,621.7875,69.6,624.1875,67.2,621.7875" style="stroke:#181818;stroke-width:0.6;"/><line style="stroke:#181818;stroke-width:0.6;stroke-dasharray:2.0,2.0;" x1="66" x2="514.2" y1="621.7875" y2="621.7875"/><text fill="#000000" font-family="sans-serif" font-size="7.8" font-weight="bold" lengthAdjust="spacing" textLength="8.4" x="73.2" y="618.9346">25</text><text fill="#000000" font-family="sans-serif" font-size="7.8" lengthAdjust="spacing" textLength="138" x="84" y="618.9346">Ask if he wants to sort the list by parish</text><polygon fill="#181818" points="504.6,636.5016,510.6,638.9016,504.6,641.3016,507,638.9016" style="stroke:#181818;stroke-width:0.6;"/><line style="stroke:#181818;stroke-width:0.6;" x1="63" x2="508.2" y1="638.9016" y2="638.9016"/><text fill="#000000" font-family="sans-serif" font-size="7.8" font-weight="bold" lengthAdjust="spacing" textLength="8.4" x="67.2" y="636.0486">26</text><text fill="#000000" font-family="sans-serif" font-size="7.8" lengthAdjust="spacing" textLength="50.4" x="78" y="636.0486">User responds</text><path d="M18,647.9016 L54.6,647.9016 L54.6,651.8156 L48.6,657.8156 L18,657.8156 L18,647.9016 " fill="#EEEEEE" style="stroke:#000000;stroke-width:0.8999999999999999;"/><rect fill="none" height="35.6016" style="stroke:#000000;stroke-width:0.8999999999999999;" width="522" x="18" y="647.9016"/><text fill="#000000" font-family="sans-serif" font-size="7.8" font-weight="bold" lengthAdjust="spacing" textLength="9.6" x="27" y="655.5627">alt</text><text fill="#000000" font-family="sans-serif" font-size="6.6" font-weight="bold" lengthAdjust="spacing" textLength="99" x="63.6" y="655.0764">[User wants to sort by parish]</text><polygon fill="#181818" points="69.6,667.7297,63.6,670.1297,69.6,672.5297,67.2,670.1297" style="stroke:#181818;stroke-width:0.6;"/><line style="stroke:#181818;stroke-width:0.6;stroke-dasharray:2.0,2.0;" x1="66" x2="514.2" y1="670.1297" y2="670.1297"/><text fill="#000000" font-family="sans-serif" font-size="7.8" font-weight="bold" lengthAdjust="spacing" textLength="8.4" x="73.2" y="667.2768">27</text><text fill="#000000" font-family="sans-serif" font-size="7.8" lengthAdjust="spacing" textLength="175.8" x="84" y="667.2768">Lists properties by parish and most recently added</text><line style="stroke:#000000;stroke-width:0.6;stroke-dasharray:2.0,2.0;" x1="18" x2="540" y1="675.5297" y2="675.5297"/><text fill="#000000" font-family="sans-serif" font-size="6.6" font-weight="bold" lengthAdjust="spacing" textLength="126" x="21" y="681.5045">[User does not want to sort by parish]</text><line style="stroke:#000000;stroke-width:0.6;stroke-dasharray:2.0,2.0;" x1="6" x2="552" y1="692.5031" y2="692.5031"/><text fill="#000000" font-family="sans-serif" font-size="6.6" font-weight="bold" lengthAdjust="spacing" textLength="119.4" x="9" y="698.4779">[User does not want to sort results]</text><!--SRC=[rLRRYkCm37ttLuXvsHcO_i2mB0pqSM5Xoto0cwYjQM9dRQSbVx-odQPEwxH9vWAJ9sFBqj7HiIAp5xBYcfTGAgcodLObWjKrCjETL3pRyoskR5CWQCmibziYDZ0xdgkZa5lOyC8WOp-ii6IxQep54bRuhqQP8Im5tphxnzLg-GGBU2qiQicjE23yaNIFrrR9kboZfdLcbOQ7DwbnAyYFnXpU3Ee7uCOl60Mt8XCLbnOUNa8mVngMteKuS8l1d05zRWMBNoTeB_3NWJCMAgqg97zeeA1mthYxVt88xTVUNf0Zxz2viRMMO7VehuDHsXBWTUEtIaLRn1mIKdTCL9a8py_5uWperUmDY8s_LxlJep0xGcKLR8GZx1paiNcMJm5KZeDWGyfnpdv7ewcKp4t8jB1XzqXanh78gYwiENjhly5eQNfSLYufGjv5o7PA6OGrsYEYX0rLst1IJLG9BdD281rVyNQKT_JTe21P-JuBFTjhEeR0fX6oqLGDK-OOkmxiOf6kA7oAhq1CCi0TTkQmzCu4b-8WSW8TuO-pT8mwTWqMnMdjL6-S_ijd_yB2shsow8KL3V0yntm2psbbkdTccmf1RKuWcm7jZNbdh4yCKgSC5hcYrAMo7i0CiVNTodoabbFfiMdA7NZeTsB0mFSkYOQ07wlGtrvkaJwFmkvyJXJDK6MkrE4gvCwxaYdTLOpkY2mKyMkq6_wa3fzMgloAxZ1LuVSbE4tEbnchy1kTgUunVJaHzRlqtm5rfoJTPlXXwXxBq0mvJPA0LrVOkk7zOkngxK_2l3rtNOvs0vETeomvrusKnFMhy1wJqzl4qItHO_fegSQLfjht7NtgDEO1dEEoiMBlpHhjTI_Pj4h7oky2pkJtEPDqhaa_R4QZcTfaRXGWO62VsvYwGBvMenhAc6grs6Tswwi_Ks_ZNlpkPRBUzVy0]--></g></svg>