<?xml version="1.0" encoding="us-ascii" standalone="no"?><svg xmlns="http://www.w3.org/2000/svg" xmlns:xlink="http://www.w3.org/1999/xlink" contentStyleType="text/css" height="1580px" preserveAspectRatio="none" style="width:1336px;height:1580px;background:#FFFFFF;" version="1.1" viewBox="0 0 1336 1580" width="1336px" zoomAndPan="magnify"><defs/><g><g id="elem_UC1"><ellipse cx="772.6399" cy="1429.128" fill="#F1F1F1" rx="113.6399" ry="25.128" style="stroke:#181818;stroke-width:0.5;"/><text fill="#000000" font-family="sans-serif" font-size="14" lengthAdjust="spacing" textLength="195" x="675.1399" y="1431.9815">UC 1 - Display listed properties</text></g><!--entity Unregistered User--><g id="elem_Unregistered User"><ellipse cx="80" cy="1450.5" fill="#F1F1F1" rx="8" ry="8" style="stroke:#181818;stroke-width:0.5;"/><path d="M80,1458.5 L80,1485.5 M67,1466.5 L93,1466.5 M80,1485.5 L67,1500.5 M80,1485.5 L93,1500.5 " fill="none" style="stroke:#181818;stroke-width:0.5;"/><text fill="#000000" font-family="sans-serif" font-size="14" lengthAdjust="spacing" textLength="114" x="23" y="1514.6738">Unregistered User</text></g><g id="elem_UC2"><ellipse cx="772.2794" cy="936.1559" fill="#F1F1F1" rx="183.7794" ry="39.1559" style="stroke:#181818;stroke-width:0.5;"/><text fill="#000000" font-family="sans-serif" font-size="14" lengthAdjust="spacing" textLength="341" x="601.7794" y="939.0094">UC 2 - Publish any sale announcement on the system.</text></g><!--entity Agent--><g id="elem_Agent"><ellipse cx="80" cy="1028.5" fill="#F1F1F1" rx="8" ry="8" style="stroke:#181818;stroke-width:0.5;"/><path d="M80,1036.5 L80,1063.5 M67,1044.5 L93,1044.5 M80,1063.5 L67,1078.5 M80,1063.5 L93,1078.5 " fill="none" style="stroke:#181818;stroke-width:0.5;"/><text fill="#000000" font-family="sans-serif" font-size="14" lengthAdjust="spacing" textLength="37" x="61.5" y="1092.6738">Agent</text></g><g id="elem_UC5"><ellipse cx="772.3857" cy="595.1771" fill="#F1F1F1" rx="103.8857" ry="23.1771" style="stroke:#181818;stroke-width:0.5;"/><text fill="#000000" font-family="sans-serif" font-size="14" lengthAdjust="spacing" textLength="174" x="685.3857" y="598.0307">UC 5 - Register a new store</text></g><!--entity System Administrator--><g id="elem_System Administrator"><ellipse cx="80" cy="649.5" fill="#F1F1F1" rx="8" ry="8" style="stroke:#181818;stroke-width:0.5;"/><path d="M80,657.5 L80,684.5 M67,665.5 L93,665.5 M80,684.5 L67,699.5 M80,684.5 L93,699.5 " fill="none" style="stroke:#181818;stroke-width:0.5;"/><text fill="#000000" font-family="sans-serif" font-size="14" lengthAdjust="spacing" textLength="133" x="13.5" y="713.6738">System Administrator</text></g><g id="elem_UC3"><ellipse cx="772.3905" cy="678.8781" fill="#F1F1F1" rx="117.3905" ry="25.8781" style="stroke:#181818;stroke-width:0.5;"/><text fill="#000000" font-family="sans-serif" font-size="14" lengthAdjust="spacing" textLength="203" x="670.8905" y="681.7316">UC 3 - Register a new employee</text></g><g id="elem_UC4"><ellipse cx="772.4183" cy="481.1837" fill="#F1F1F1" rx="266.4183" ry="55.6837" style="stroke:#181818;stroke-width:0.5;"/><text fill="#000000" font-family="sans-serif" font-size="14" lengthAdjust="spacing" textLength="509" x="517.9183" y="484.0372">UC 4 - Request for listing a property sale or rent, choosing the responsible agent</text></g><!--entity Owner--><g id="elem_Owner"><ellipse cx="80" cy="451.5" fill="#F1F1F1" rx="8" ry="8" style="stroke:#181818;stroke-width:0.5;"/><path d="M80,459.5 L80,486.5 M67,467.5 L93,467.5 M80,486.5 L67,501.5 M80,486.5 L93,501.5 " fill="none" style="stroke:#181818;stroke-width:0.5;"/><text fill="#000000" font-family="sans-serif" font-size="14" lengthAdjust="spacing" textLength="41" x="59.5" y="515.6738">Owner</text></g><g id="elem_UC7"><ellipse cx="772.4211" cy="1531.8842" fill="#F1F1F1" rx="199.9211" ry="42.3842" style="stroke:#181818;stroke-width:0.5;"/><text fill="#000000" font-family="sans-serif" font-size="14" lengthAdjust="spacing" textLength="374" x="585.4211" y="1534.7377">UC 7 - Register in the system to buy, sell or rent properties.</text></g><g id="elem_UC8"><ellipse cx="772.479" cy="1057.7958" fill="#F1F1F1" rx="224.479" ry="47.2958" style="stroke:#181818;stroke-width:0.5;"/><text fill="#000000" font-family="sans-serif" font-size="14" lengthAdjust="spacing" textLength="424" x="560.479" y="1060.6493">UC 8 - List The Property Announcement Requests Made To Myself.</text></g><g id="elem_UC9"><ellipse cx="772.3218" cy="188.9644" fill="#F1F1F1" rx="275.3218" ry="57.4644" style="stroke:#181818;stroke-width:0.5;"/><text fill="#000000" font-family="sans-serif" font-size="14" lengthAdjust="spacing" textLength="527" x="508.8218" y="191.8179">UC 9 - Leave a message to the agent to schedule a visit to a property of my interest</text></g><!--entity Client--><g id="elem_Client"><ellipse cx="80" cy="233.5" fill="#F1F1F1" rx="8" ry="8" style="stroke:#181818;stroke-width:0.5;"/><path d="M80,241.5 L80,268.5 M67,249.5 L93,249.5 M80,268.5 L67,283.5 M80,268.5 L93,283.5 " fill="none" style="stroke:#181818;stroke-width:0.5;"/><text fill="#000000" font-family="sans-serif" font-size="14" lengthAdjust="spacing" textLength="36" x="62" y="297.6738">Client</text></g><g id="elem_UC10"><ellipse cx="772.5038" cy="336.2008" fill="#F1F1F1" rx="259.0038" ry="54.2008" style="stroke:#181818;stroke-width:0.5;"/><text fill="#000000" font-family="sans-serif" font-size="14" lengthAdjust="spacing" textLength="494" x="525.5038" y="339.0543">UC 10 - Place an order to purchase the property, submitting the order amount.</text></g><g id="elem_UC11"><ellipse cx="772.3782" cy="1255.0756" fill="#F1F1F1" rx="558.3782" ry="114.0756" style="stroke:#181818;stroke-width:0.5;"/><text fill="#000000" font-family="sans-serif" font-size="14" lengthAdjust="spacing" textLength="1096" x="224.3782" y="1257.9292">UC 11 - List real estate purchase orders to accept or decline a purchase order for a property. After accepting or declining, an email notification should be sent to the customer</text></g><g id="elem_UC12"><ellipse cx="772.656" cy="800.8312" fill="#F1F1F1" rx="292.156" ry="60.8312" style="stroke:#181818;stroke-width:0.5;"/><text fill="#000000" font-family="sans-serif" font-size="14" lengthAdjust="spacing" textLength="561" x="492.156" y="803.6847">UC 12 - Import information from a legacy system that has been in use in several agencies</text></g><g id="elem_UC13"><ellipse cx="772.687" cy="50.8374" fill="#F1F1F1" rx="212.187" ry="44.8374" style="stroke:#181818;stroke-width:0.5;"/><text fill="#000000" font-family="sans-serif" font-size="14" lengthAdjust="spacing" textLength="399" x="573.187" y="53.6909">UC 13 - List all employees working in every store of the network</text></g><!--entity Store Network Manager--><g id="elem_Store Network Manager"><ellipse cx="80" cy="21.5" fill="#F1F1F1" rx="8" ry="8" style="stroke:#181818;stroke-width:0.5;"/><path d="M80,29.5 L80,56.5 M67,37.5 L93,37.5 M80,56.5 L67,71.5 M80,56.5 L93,71.5 " fill="none" style="stroke:#181818;stroke-width:0.5;"/><text fill="#000000" font-family="sans-serif" font-size="14" lengthAdjust="spacing" textLength="148" x="6" y="85.6738">Store Network Manager</text></g><!--link Unregistered User to UC1--><g id="link_Unregistered User_UC1"><path d="M137.21,1475.85 C250.83,1467.46 509.68,1448.34 659.22,1437.29 " fill="none" id="Unregistered User-to-UC1" style="stroke:#181818;stroke-width:1.0;"/><polygon fill="#181818" points="664.49,1436.9,655.2272,1433.5533,659.5028,1437.2573,655.7988,1441.5328,664.49,1436.9" style="stroke:#181818;stroke-width:1.0;"/></g><!--link Agent to UC2--><g id="link_Agent_UC2"><path d="M98.68,1046.82 C123.42,1031.78 170.26,1005.49 214,993 C334.06,958.7 473.86,944.47 583.43,938.8 " fill="none" id="Agent-to-UC2" style="stroke:#181818;stroke-width:1.0;"/><polygon fill="#181818" points="588.62,938.54,579.4365,934.9813,583.6259,938.7826,579.8247,942.9719,588.62,938.54" style="stroke:#181818;stroke-width:1.0;"/></g><!--link System Administrator to UC5--><g id="link_System Administrator_UC5"><path d="M146.82,654.28 C167.99,647.26 191.73,640.35 214,636 C368,605.89 549.85,597.46 662.95,595.34 " fill="none" id="System Administrator-to-UC5" style="stroke:#181818;stroke-width:1.0;"/><polygon fill="#181818" points="668.28,595.24,659.2018,591.4208,663.281,595.34,659.3618,599.4192,668.28,595.24" style="stroke:#181818;stroke-width:1.0;"/></g><!--link System Administrator to UC3--><g id="link_System Administrator_UC3"><path d="M146.58,679 C261.95,679 502.83,679 649.53,679 " fill="none" id="System Administrator-to-UC3" style="stroke:#181818;stroke-width:1.0;"/><polygon fill="#181818" points="654.71,679,645.71,675,649.71,679,645.71,683,654.71,679" style="stroke:#181818;stroke-width:1.0;"/></g><!--link Owner to UC4--><g id="link_Owner_UC4"><path d="M100.55,481 C159.5,481 341.23,481 500.71,481 " fill="none" id="Owner-to-UC4" style="stroke:#181818;stroke-width:1.0;"/><polygon fill="#181818" points="505.9,481,496.9,477,500.9,481,496.9,485,505.9,481" style="stroke:#181818;stroke-width:1.0;"/></g><!--link Unregistered User to UC7--><g id="link_Unregistered User_UC7"><path d="M137.21,1484.23 C232.32,1491.4 429.18,1506.22 578.52,1517.47 " fill="none" id="Unregistered User-to-UC7" style="stroke:#181818;stroke-width:1.0;"/><polygon fill="#181818" points="583.81,1517.87,575.132,1513.2124,578.8238,1517.4985,574.5377,1521.1903,583.81,1517.87" style="stroke:#181818;stroke-width:1.0;"/></g><!--link Agent to UC8--><g id="link_Agent_UC8"><path d="M98.76,1058 C160.79,1058 373.22,1058 542.97,1058 " fill="none" id="Agent-to-UC8" style="stroke:#181818;stroke-width:1.0;"/><polygon fill="#181818" points="547.98,1058,538.98,1054,542.98,1058,538.98,1062,547.98,1058" style="stroke:#181818;stroke-width:1.0;"/></g><!--link Client to UC9--><g id="link_Client_UC9"><path d="M98.07,261.17 C156.67,254.89 355.24,233.61 521.69,215.77 " fill="none" id="Client-to-UC9" style="stroke:#181818;stroke-width:1.0;"/><polygon fill="#181818" points="527.1,215.19,517.7285,212.1611,522.1279,215.7171,518.5719,220.1165,527.1,215.19" style="stroke:#181818;stroke-width:1.0;"/></g><!--link Client to UC10--><g id="link_Client_UC10"><path d="M98.07,264.8 C158.38,271.18 366.9,293.23 536.11,311.11 " fill="none" id="Client-to-UC10" style="stroke:#181818;stroke-width:1.0;"/><polygon fill="#181818" points="541.11,311.64,532.5833,306.7109,536.138,311.1114,531.7375,314.666,541.11,311.64" style="stroke:#181818;stroke-width:1.0;"/></g><!--link Agent to UC11--><g id="link_Agent_UC11"><path d="M98.52,1068.13 C123.45,1082.19 170.93,1107.59 214,1123 C265.25,1141.33 320.06,1157.86 374.58,1172.52 " fill="none" id="Agent-to-UC11" style="stroke:#181818;stroke-width:1.0;"/><polygon fill="#181818" points="379.51,1173.84,371.8423,1167.6589,374.6784,1172.5535,369.7838,1175.3896,379.51,1173.84" style="stroke:#181818;stroke-width:1.0;"/></g><!--link System Administrator to UC12--><g id="link_System Administrator_UC12"><path d="M146.63,703.32 C167.89,710.49 191.74,717.8 214,723 C307.85,744.9 412.12,761.5 504.86,773.64 " fill="none" id="System Administrator-to-UC12" style="stroke:#181818;stroke-width:1.0;"/><polygon fill="#181818" points="509.82,774.29,501.4092,769.1658,504.8615,773.647,500.3803,777.0993,509.82,774.29" style="stroke:#181818;stroke-width:1.0;"/></g><!--link Store Network Manager to UC13--><g id="link_Store Network Manager_UC13"><path d="M154.24,51 C248.91,51 417.88,51 555.12,51 " fill="none" id="Store Network Manager-to-UC13" style="stroke:#181818;stroke-width:1.0;"/><polygon fill="#181818" points="560.4,51,551.4,47,555.4,51,551.4,55,560.4,51" style="stroke:#181818;stroke-width:1.0;"/></g><!--SRC=[XLJDJkCm4BxtAKOz0o8j2BWWLUnbfMKNBVG1N6VIMFWdwt50UVkTSM882b9pYP9ClhyP3xqQtwce77HAlweZFgV18cWJjSNLocAJ80M8vjWcg4r4dKpmgnNmrHDgHGZh_GDKS0u_37LM3M0D9QoXYw73c0pI6XJ1_g7AVwttFk9HIY8NxGdZ6ixFxp- -pr4tZFhK7nYm1UK78CNQbFUXzneT-WJ1GseHQ60yTp4HRJBGxYW58_Hc0NtDq7yd7Q30upjG2X4dYEjHwtF6XLtjZEVIgBYaoBrUO6wNcEWw6mOiiDlJiDi5x5M6_TSZ9MX2pFaQVsI6AU8f6FuKsV8Pw3O4aWg99Y9rmPCvI7GIoIJbAlFyUVUiTMI-MZ3Vp0sPUTGo58T-E0D2QmlphEMb5JSdUdwpuBnbpbzS2YzCzbGCxkPDdy8WU5Grmak0nu5bD8NpTkJSZMP7dji5pvtme7hZLC0X4MSZfiHYZaaUIBTOzn8Sl1ao-TqizT206pWNiKKbrxkH_S6Q6VtTyi1SocnRfMMWES2Q4sRqhe-wbHhHKOWuvVxWJ4gbfsEvSXn9Agwho- -8fxTVcAkIS4HbWPMhX9_46PkoKwsnIzBS6hKrNcBuMfR7yJEG2zWrUVJpZoBsurz-E1EZw9Inu4CoZT5ATWbG6tfRmu57QufTBEgUZwEJGHdTLTyqjLfkZ4fMna_NXPYuCIpFZIHD38wLMZmgFNpCSAiIi1lcHY_ppKXo8tp3oD787EZP_jgSFhtLSjDKsvAtugDI5WB1UuYlaX4J2jymxXyPAl7lCKb1eIwB8vVy7h_n-7kM-CczNV7r7m00]--></g></svg>