<?xml version="1.0" encoding="us-ascii" standalone="no"?><svg xmlns="http://www.w3.org/2000/svg" xmlns:xlink="http://www.w3.org/1999/xlink" contentStyleType="text/css" height="155px" preserveAspectRatio="none" style="width:492px;height:155px;background:#FFFFFF;" version="1.1" viewBox="0 0 492 155" width="492px" zoomAndPan="magnify"><defs/><g><!--class SystemAdministrator--><g id="elem_SystemAdministrator"><rect codeLine="15" fill="#F1F1F1" height="94.9219" id="SystemAdministrator" rx="2.5" ry="2.5" style="stroke:#181818;stroke-width:0.5;" width="206" x="7" y="30.5"/><ellipse cx="42.25" cy="46.5" fill="#ADD1B2" rx="11" ry="11" style="stroke:#181818;stroke-width:1.0;"/><path d="M45.0156,42.375 Q45.1719,42.1563 45.3594,42.0469 Q45.5469,41.9375 45.7656,41.9375 Q46.1406,41.9375 46.375,42.2031 Q46.6094,42.4531 46.6094,43.0625 L46.6094,44.5156 Q46.6094,45.125 46.375,45.3906 Q46.1406,45.6563 45.7656,45.6563 Q45.4219,45.6563 45.2188,45.4531 Q45.0156,45.2656 44.9063,44.75 Q44.8594,44.3906 44.6719,44.2031 Q44.3438,43.8281 43.7344,43.6094 Q43.125,43.3906 42.5,43.3906 Q41.7344,43.3906 41.0938,43.7188 Q40.4688,44.0469 39.9688,44.7969 Q39.4844,45.5469 39.4844,46.5781 L39.4844,47.6719 Q39.4844,48.9063 40.375,49.7344 Q41.2656,50.5469 42.8594,50.5469 Q43.7969,50.5469 44.4531,50.2969 Q44.8438,50.1406 45.2656,49.7031 Q45.5313,49.4375 45.6719,49.3594 Q45.8281,49.2813 46.0313,49.2813 Q46.3594,49.2813 46.6094,49.5469 Q46.875,49.7969 46.875,50.1406 Q46.875,50.4844 46.5313,50.8906 Q46.0313,51.4688 45.2344,51.7969 Q44.1563,52.25 42.8594,52.25 Q41.3438,52.25 40.1406,51.625 Q39.1563,51.125 38.4688,50.0625 Q37.7813,48.9844 37.7813,47.7031 L37.7813,46.5469 Q37.7813,45.2188 38.3906,44.0781 Q39.0156,42.9219 40.1094,42.3125 Q41.2031,41.6875 42.4375,41.6875 Q43.1719,41.6875 43.8125,41.8594 Q44.4688,42.0156 45.0156,42.375 Z " fill="#000000"/><text fill="#000000" font-family="sans-serif" font-size="14" lengthAdjust="spacing" textLength="129" x="60.75" y="51.3535">SystemAdministrator</text><line style="stroke:#181818;stroke-width:0.5;" x1="8" x2="212" y1="62.5" y2="62.5"/><rect fill="none" height="6" style="stroke:#C82930;stroke-width:1.0;" width="6" x="15" y="72.8203"/><text fill="#000000" font-family="sans-serif" font-size="14" lengthAdjust="spacing" textLength="106" x="27" y="79.1738">username: string</text><rect fill="none" height="6" style="stroke:#C82930;stroke-width:1.0;" width="6" x="15" y="88.4609"/><text fill="#000000" font-family="sans-serif" font-size="14" lengthAdjust="spacing" textLength="103" x="27" y="94.8145">password: string</text><line style="stroke:#181818;stroke-width:0.5;" x1="8" x2="212" y1="101.7813" y2="101.7813"/><ellipse cx="18" cy="115.1016" fill="#84BE84" rx="3" ry="3" style="stroke:#038048;stroke-width:1.0;"/><text fill="#000000" font-family="sans-serif" font-size="14" lengthAdjust="spacing" textLength="180" x="27" y="118.4551">registerNewEmployee(): void</text></g><!--class Employee--><g id="elem_Employee"><rect codeLine="21" fill="#F1F1F1" height="141.8438" id="Employee" rx="2.5" ry="2.5" style="stroke:#181818;stroke-width:0.5;" width="158" x="327" y="7"/><ellipse cx="370.8" cy="23" fill="#ADD1B2" rx="11" ry="11" style="stroke:#181818;stroke-width:1.0;"/><path d="M373.5656,18.875 Q373.7219,18.6563 373.9094,18.5469 Q374.0969,18.4375 374.3156,18.4375 Q374.6906,18.4375 374.925,18.7031 Q375.1594,18.9531 375.1594,19.5625 L375.1594,21.0156 Q375.1594,21.625 374.925,21.8906 Q374.6906,22.1563 374.3156,22.1563 Q373.9719,22.1563 373.7688,21.9531 Q373.5656,21.7656 373.4563,21.25 Q373.4094,20.8906 373.2219,20.7031 Q372.8938,20.3281 372.2844,20.1094 Q371.675,19.8906 371.05,19.8906 Q370.2844,19.8906 369.6438,20.2188 Q369.0188,20.5469 368.5188,21.2969 Q368.0344,22.0469 368.0344,23.0781 L368.0344,24.1719 Q368.0344,25.4063 368.925,26.2344 Q369.8156,27.0469 371.4094,27.0469 Q372.3469,27.0469 373.0031,26.7969 Q373.3938,26.6406 373.8156,26.2031 Q374.0813,25.9375 374.2219,25.8594 Q374.3781,25.7813 374.5813,25.7813 Q374.9094,25.7813 375.1594,26.0469 Q375.425,26.2969 375.425,26.6406 Q375.425,26.9844 375.0813,27.3906 Q374.5813,27.9688 373.7844,28.2969 Q372.7063,28.75 371.4094,28.75 Q369.8938,28.75 368.6906,28.125 Q367.7063,27.625 367.0188,26.5625 Q366.3313,25.4844 366.3313,24.2031 L366.3313,23.0469 Q366.3313,21.7188 366.9406,20.5781 Q367.5656,19.4219 368.6594,18.8125 Q369.7531,18.1875 370.9875,18.1875 Q371.7219,18.1875 372.3625,18.3594 Q373.0188,18.5156 373.5656,18.875 Z " fill="#000000"/><text fill="#000000" font-family="sans-serif" font-size="14" lengthAdjust="spacing" textLength="62" x="391.2" y="27.8535">Employee</text><line style="stroke:#181818;stroke-width:0.5;" x1="328" x2="484" y1="39" y2="39"/><rect fill="none" height="6" style="stroke:#C82930;stroke-width:1.0;" width="6" x="335" y="49.3203"/><text fill="#000000" font-family="sans-serif" font-size="14" lengthAdjust="spacing" textLength="95" x="347" y="55.6738">employeeId: int</text><rect fill="none" height="6" style="stroke:#C82930;stroke-width:1.0;" width="6" x="335" y="64.9609"/><text fill="#000000" font-family="sans-serif" font-size="14" lengthAdjust="spacing" textLength="102" x="347" y="71.3145">firstName: string</text><rect fill="none" height="6" style="stroke:#C82930;stroke-width:1.0;" width="6" x="335" y="80.6016"/><text fill="#000000" font-family="sans-serif" font-size="14" lengthAdjust="spacing" textLength="101" x="347" y="86.9551">lastName: string</text><rect fill="none" height="6" style="stroke:#C82930;stroke-width:1.0;" width="6" x="335" y="96.2422"/><text fill="#000000" font-family="sans-serif" font-size="14" lengthAdjust="spacing" textLength="108" x="347" y="102.5957">dateOfBirth: date</text><rect fill="none" height="6" style="stroke:#C82930;stroke-width:1.0;" width="6" x="335" y="111.8828"/><text fill="#000000" font-family="sans-serif" font-size="14" lengthAdjust="spacing" textLength="76" x="347" y="118.2363">email: string</text><rect fill="none" height="6" style="stroke:#C82930;stroke-width:1.0;" width="6" x="335" y="127.5234"/><text fill="#000000" font-family="sans-serif" font-size="14" lengthAdjust="spacing" textLength="132" x="347" y="133.877">phoneNumber: string</text><line style="stroke:#181818;stroke-width:0.5;" x1="328" x2="484" y1="140.8438" y2="140.8438"/></g><!--link SystemAdministrator to Employee--><g id="link_SystemAdministrator_Employee"><path codeLine="30" d="M213.11,78 C248.43,78 287.51,78 321.21,78 " fill="none" id="SystemAdministrator-to-Employee" style="stroke:#181818;stroke-width:1.0;"/><polygon fill="#181818" points="326.57,78,317.57,74,321.57,78,317.57,82,326.57,78" style="stroke:#181818;stroke-width:1.0;"/><text fill="#000000" font-family="sans-serif" font-size="13" lengthAdjust="spacing" textLength="77" x="231.5" y="71.7686">registers new</text></g><!--SRC=[RKzB2i8m4Dtd5BDKf1V8Gb1muQOkF45ifkr0ayXCQYdYtOtM5DJERjxZ_QhEYC1vb8XkPnrvaiWc1eQxWdH5ByZUEDIG2FBDX5wJQWXilz0DOvFao2KE1tVjmeYuMcku1RBgeLJrpifC3i3FVqncvEC4riGIox_OPB20MXFnLE-9OwlXzMHZGzrFxJPuB7jtGPw9L6nfVh6Tcsh8mmGy3ay0]--></g></svg>