<?xml version="1.0" encoding="us-ascii" standalone="no"?><svg xmlns="http://www.w3.org/2000/svg" xmlns:xlink="http://www.w3.org/1999/xlink" contentStyleType="text/css" height="356px" preserveAspectRatio="none" style="width:476px;height:356px;background:#FFFFFF;" version="1.1" viewBox="0 0 476 356" width="476px" zoomAndPan="magnify"><defs/><g><text fill="#000000" font-family="sans-serif" font-size="11.2" font-weight="bold" lengthAdjust="spacing" textLength="182.4" x="146" y="22.1391">System Sequence Diagram (SSD)</text><rect fill="#FFFFFF" height="183.35" style="stroke:#181818;stroke-width:0.8000000000000002;" width="8" x="55.2" y="101.825"/><rect fill="#FFFFFF" height="22.8188" style="stroke:#181818;stroke-width:0.8000000000000002;" width="8" x="441.6" y="118.2438"/><rect fill="#FFFFFF" height="22.8188" style="stroke:#181818;stroke-width:0.8000000000000002;" width="8" x="441.6" y="163.8813"/><rect fill="#FFFFFF" height="22.8188" style="stroke:#181818;stroke-width:0.8000000000000002;" width="8" x="441.6" y="209.5188"/><rect fill="#FFFFFF" height="22.8188" style="stroke:#181818;stroke-width:0.8000000000000002;" width="8" x="441.6" y="255.1563"/><line style="stroke:#181818;stroke-width:0.4000000000000001;stroke-dasharray:5.0,5.0;" x1="59.2" x2="59.2" y1="93.825" y2="292.375"/><line style="stroke:#181818;stroke-width:0.4000000000000001;stroke-dasharray:5.0,5.0;" x1="445.6" x2="445.6" y1="93.825" y2="292.375"/><text fill="#000000" font-family="sans-serif" font-size="11.2" lengthAdjust="spacing" textLength="105.6" x="4" y="91.4516">System administrator</text><ellipse cx="59.2" cy="40.1125" fill="#E3E3E3" rx="6.4" ry="6.4" style="stroke:#181818;stroke-width:0.4000000000000001;"/><path d="M59.2,46.5125 L59.2,68.1125 M48.8,52.9125 L69.6,52.9125 M59.2,68.1125 L48.8,80.1125 M59.2,68.1125 L69.6,80.1125 " fill="none" style="stroke:#181818;stroke-width:0.4000000000000001;"/><text fill="#000000" font-family="sans-serif" font-size="11.2" lengthAdjust="spacing" textLength="105.6" x="4" y="301.7141">System administrator</text><ellipse cx="59.2" cy="310.8875" fill="#E3E3E3" rx="6.4" ry="6.4" style="stroke:#181818;stroke-width:0.4000000000000001;"/><path d="M59.2,317.2875 L59.2,338.8875 M48.8,323.6875 L69.6,323.6875 M59.2,338.8875 L48.8,350.8875 M59.2,338.8875 L69.6,350.8875 " fill="none" style="stroke:#181818;stroke-width:0.4000000000000001;"/><rect fill="#E3E3E3" height="23.7125" rx="2" ry="2" style="stroke:#181818;stroke-width:0.4000000000000001;" width="51.2" x="420" y="69.3125"/><text fill="#000000" font-family="sans-serif" font-size="11.2" lengthAdjust="spacing" textLength="40" x="425.6" y="85.0516">:System</text><rect fill="#E3E3E3" height="23.7125" rx="2" ry="2" style="stroke:#181818;stroke-width:0.4000000000000001;" width="51.2" x="420" y="291.575"/><text fill="#000000" font-family="sans-serif" font-size="11.2" lengthAdjust="spacing" textLength="40" x="425.6" y="307.3141">:System</text><rect fill="#FFFFFF" height="183.35" style="stroke:#181818;stroke-width:0.8000000000000002;" width="8" x="55.2" y="101.825"/><rect fill="#FFFFFF" height="22.8188" style="stroke:#181818;stroke-width:0.8000000000000002;" width="8" x="441.6" y="118.2438"/><rect fill="#FFFFFF" height="22.8188" style="stroke:#181818;stroke-width:0.8000000000000002;" width="8" x="441.6" y="163.8813"/><rect fill="#FFFFFF" height="22.8188" style="stroke:#181818;stroke-width:0.8000000000000002;" width="8" x="441.6" y="209.5188"/><rect fill="#FFFFFF" height="22.8188" style="stroke:#181818;stroke-width:0.8000000000000002;" width="8" x="441.6" y="255.1563"/><polygon fill="#181818" points="432,115.0438,440,118.2438,432,121.4438,435.2,118.2438" style="stroke:#181818;stroke-width:0.8000000000000002;"/><line style="stroke:#181818;stroke-width:0.8000000000000002;" x1="63.2" x2="436.8" y1="118.2438" y2="118.2438"/><text fill="#000000" font-family="sans-serif" font-size="10.4" font-weight="bold" lengthAdjust="spacing" textLength="5.6" x="68.8" y="114.4398">1</text><text fill="#000000" font-family="sans-serif" font-size="10.4" lengthAdjust="spacing" textLength="103.2" x="77.6" y="114.4398">Ask to register a store</text><polygon fill="#181818" points="72,137.8625,64,141.0625,72,144.2625,68.8,141.0625" style="stroke:#181818;stroke-width:0.8000000000000002;"/><line style="stroke:#181818;stroke-width:0.8000000000000002;stroke-dasharray:2.0,2.0;" x1="67.2" x2="444.8" y1="141.0625" y2="141.0625"/><text fill="#000000" font-family="sans-serif" font-size="10.4" font-weight="bold" lengthAdjust="spacing" textLength="5.6" x="76.8" y="137.2586">2</text><text fill="#000000" font-family="sans-serif" font-size="10.4" lengthAdjust="spacing" textLength="350.4" x="85.6" y="137.2586">Request address (district, city name, street name and zip code of the store)</text><polygon fill="#181818" points="432,160.6813,440,163.8813,432,167.0813,435.2,163.8813" style="stroke:#181818;stroke-width:0.8000000000000002;"/><line style="stroke:#181818;stroke-width:0.8000000000000002;" x1="63.2" x2="436.8" y1="163.8813" y2="163.8813"/><text fill="#000000" font-family="sans-serif" font-size="10.4" font-weight="bold" lengthAdjust="spacing" textLength="5.6" x="68.8" y="160.0773">3</text><text fill="#000000" font-family="sans-serif" font-size="10.4" lengthAdjust="spacing" textLength="121.6" x="77.6" y="160.0773">Submit requested address</text><polygon fill="#181818" points="72,183.5,64,186.7,72,189.9,68.8,186.7" style="stroke:#181818;stroke-width:0.8000000000000002;"/><line style="stroke:#181818;stroke-width:0.8000000000000002;stroke-dasharray:2.0,2.0;" x1="67.2" x2="444.8" y1="186.7" y2="186.7"/><text fill="#000000" font-family="sans-serif" font-size="10.4" font-weight="bold" lengthAdjust="spacing" textLength="5.6" x="76.8" y="182.8961">4</text><text fill="#000000" font-family="sans-serif" font-size="10.4" lengthAdjust="spacing" textLength="246.4" x="85.6" y="182.8961">Request data (ID, designation, phone number, e-mail)</text><polygon fill="#181818" points="432,206.3188,440,209.5188,432,212.7188,435.2,209.5188" style="stroke:#181818;stroke-width:0.8000000000000002;"/><line style="stroke:#181818;stroke-width:0.8000000000000002;" x1="63.2" x2="436.8" y1="209.5188" y2="209.5188"/><text fill="#000000" font-family="sans-serif" font-size="10.4" font-weight="bold" lengthAdjust="spacing" textLength="5.6" x="68.8" y="205.7148">5</text><text fill="#000000" font-family="sans-serif" font-size="10.4" lengthAdjust="spacing" textLength="104.8" x="77.6" y="205.7148">Submit requested data</text><polygon fill="#181818" points="72,229.1375,64,232.3375,72,235.5375,68.8,232.3375" style="stroke:#181818;stroke-width:0.8000000000000002;"/><line style="stroke:#181818;stroke-width:0.8000000000000002;stroke-dasharray:2.0,2.0;" x1="67.2" x2="444.8" y1="232.3375" y2="232.3375"/><text fill="#000000" font-family="sans-serif" font-size="10.4" font-weight="bold" lengthAdjust="spacing" textLength="5.6" x="76.8" y="228.5336">6</text><text fill="#000000" font-family="sans-serif" font-size="10.4" lengthAdjust="spacing" textLength="172.8" x="85.6" y="228.5336">Ask for the administrator confirmation</text><polygon fill="#181818" points="432,251.9563,440,255.1563,432,258.3563,435.2,255.1563" style="stroke:#181818;stroke-width:0.8000000000000002;"/><line style="stroke:#181818;stroke-width:0.8000000000000002;" x1="63.2" x2="436.8" y1="255.1563" y2="255.1563"/><text fill="#000000" font-family="sans-serif" font-size="10.4" font-weight="bold" lengthAdjust="spacing" textLength="5.6" x="68.8" y="251.3523">7</text><text fill="#000000" font-family="sans-serif" font-size="10.4" lengthAdjust="spacing" textLength="79.2" x="77.6" y="251.3523">Give confirmation</text><polygon fill="#181818" points="72,274.775,64,277.975,72,281.175,68.8,277.975" style="stroke:#181818;stroke-width:0.8000000000000002;"/><line style="stroke:#181818;stroke-width:0.8000000000000002;stroke-dasharray:2.0,2.0;" x1="67.2" x2="444.8" y1="277.975" y2="277.975"/><text fill="#000000" font-family="sans-serif" font-size="10.4" font-weight="bold" lengthAdjust="spacing" textLength="5.6" x="76.8" y="274.1711">8</text><text fill="#000000" font-family="sans-serif" font-size="10.4" lengthAdjust="spacing" textLength="122.4" x="85.6" y="274.1711">Display operation success</text><!--SRC=[bP9DReCm48NtFiKegqGY5yYYKYMggjjoWeazm2Zuf_QGYfw-1aBQAYXglB9XvhtlZPrEx096j62zyxgDtX98x4cbwv-0-eGDLJ9q196qe6kwtmMfHUC_sJLGOvT8AM79fTMGX2nKzD6JqmGbOpEMRwkgt2c5lNZNsoF5lDVY8smk7MWiEquICN_T02PuiQ7p0v7AXiAQ0pg1pM6kdohcxQJ4PnJwQL6GrtA2_TF2TO3dT0BnELAJpIW2Gig6D3LSTHPXkAnBzpuBNKKFy3w6J9BHJQIKO6j6VjPIW6OPmA6b8ij78faEWCx05mVGtX3u6gIbsNutMHbQ9LZDKVL7ov9pJ0na5egxGUxdC2W8sxUoo2296uV2tXKGMky8vbihWFOMkTkfTTR_eOv6wi5XZ_TMv_SoZkpFMyd3T3L7Ez7U6UCgsYkVwLRWGRIIK-Xm01yeJYAGUgsNkxYb-GO0]--></g></svg>