<?xml version="1.0" encoding="us-ascii" standalone="no"?><svg xmlns="http://www.w3.org/2000/svg" xmlns:xlink="http://www.w3.org/1999/xlink" contentStyleType="text/css" height="490px" preserveAspectRatio="none" style="width:516px;height:490px;background:#FFFFFF;" version="1.1" viewBox="0 0 516 490" width="516px" zoomAndPan="magnify"><defs/><g><text fill="#000000" font-family="sans-serif" font-size="14" font-weight="bold" lengthAdjust="spacing" textLength="284" x="117.5" y="27.6738">System Sequence Diagram (SSD) - US007</text><rect fill="#FFFFFF" height="274.2344" style="stroke:#181818;stroke-width:1.0;" width="10" x="75" y="127.2813"/><rect fill="#FFFFFF" height="43.0469" style="stroke:#181818;stroke-width:1.0;" width="10" x="463" y="147.8047"/><rect fill="#FFFFFF" height="52.0469" style="stroke:#181818;stroke-width:1.0;" width="10" x="463" y="219.375"/><rect fill="#FFFFFF" height="35.5234" style="stroke:#181818;stroke-width:1.0;" width="10" x="463" y="299.9453"/><rect fill="#FFFFFF" height="28.5234" style="stroke:#181818;stroke-width:1.0;" width="10" x="463" y="363.9922"/><rect fill="none" height="73.5703" style="stroke:#000000;stroke-width:1.5;" width="500" x="10" y="234.375"/><line style="stroke:#181818;stroke-width:0.5;stroke-dasharray:5.0,5.0;" x1="80" x2="80" y1="117.2813" y2="410.5156"/><line style="stroke:#181818;stroke-width:0.5;stroke-dasharray:5.0,5.0;" x1="468" x2="468" y1="117.2813" y2="410.5156"/><text fill="#000000" font-family="sans-serif" font-size="14" lengthAdjust="spacing" textLength="114" x="20" y="114.3145">Unregistered User</text><ellipse cx="80" cy="50.1406" fill="#E3E3E3" rx="8" ry="8" style="stroke:#181818;stroke-width:0.5;"/><path d="M80,58.1406 L80,85.1406 M67,66.1406 L93,66.1406 M80,85.1406 L67,100.1406 M80,85.1406 L93,100.1406 " fill="none" style="stroke:#181818;stroke-width:0.5;"/><text fill="#000000" font-family="sans-serif" font-size="14" lengthAdjust="spacing" textLength="114" x="20" y="422.1895">Unregistered User</text><ellipse cx="80" cy="433.6563" fill="#E3E3E3" rx="8" ry="8" style="stroke:#181818;stroke-width:0.5;"/><path d="M80,441.6563 L80,468.6563 M67,449.6563 L93,449.6563 M80,468.6563 L67,483.6563 M80,468.6563 L93,483.6563 " fill="none" style="stroke:#181818;stroke-width:0.5;"/><rect fill="#E3E3E3" height="29.6406" rx="2.5" ry="2.5" style="stroke:#181818;stroke-width:0.5;" width="64" x="436" y="86.6406"/><text fill="#000000" font-family="sans-serif" font-size="14" lengthAdjust="spacing" textLength="50" x="443" y="106.3145">:System</text><rect fill="#E3E3E3" height="29.6406" rx="2.5" ry="2.5" style="stroke:#181818;stroke-width:0.5;" width="64" x="436" y="409.5156"/><text fill="#000000" font-family="sans-serif" font-size="14" lengthAdjust="spacing" textLength="50" x="443" y="429.1895">:System</text><rect fill="#FFFFFF" height="274.2344" style="stroke:#181818;stroke-width:1.0;" width="10" x="75" y="127.2813"/><rect fill="#FFFFFF" height="43.0469" style="stroke:#181818;stroke-width:1.0;" width="10" x="463" y="147.8047"/><rect fill="#FFFFFF" height="52.0469" style="stroke:#181818;stroke-width:1.0;" width="10" x="463" y="219.375"/><rect fill="#FFFFFF" height="35.5234" style="stroke:#181818;stroke-width:1.0;" width="10" x="463" y="299.9453"/><rect fill="#FFFFFF" height="28.5234" style="stroke:#181818;stroke-width:1.0;" width="10" x="463" y="363.9922"/><polygon fill="#181818" points="451,143.8047,461,147.8047,451,151.8047,455,147.8047" style="stroke:#181818;stroke-width:1.0;"/><line style="stroke:#181818;stroke-width:1.0;" x1="85" x2="457" y1="147.8047" y2="147.8047"/><text fill="#000000" font-family="sans-serif" font-size="13" font-weight="bold" lengthAdjust="spacing" textLength="7" x="92" y="143.0498">1</text><text fill="#000000" font-family="sans-serif" font-size="13" lengthAdjust="spacing" textLength="153" x="103" y="143.0498">Ask to register an account</text><polygon fill="#181818" points="96,186.8516,86,190.8516,96,194.8516,92,190.8516" style="stroke:#181818;stroke-width:1.0;"/><line style="stroke:#181818;stroke-width:1.0;stroke-dasharray:2.0,2.0;" x1="90" x2="467" y1="190.8516" y2="190.8516"/><text fill="#000000" font-family="sans-serif" font-size="13" font-weight="bold" lengthAdjust="spacing" textLength="7" x="102" y="178.835">2</text><text fill="#000000" font-family="sans-serif" font-size="13" lengthAdjust="spacing" textLength="295" x="113" y="171.5732">Request data (i.e. name, email address, password,</text><text fill="#000000" font-family="sans-serif" font-size="13" lengthAdjust="spacing" textLength="335" x="113" y="186.0967">passport card number, tax number and telephone number)</text><polygon fill="#181818" points="451,215.375,461,219.375,451,223.375,455,219.375" style="stroke:#181818;stroke-width:1.0;"/><line style="stroke:#181818;stroke-width:1.0;" x1="85" x2="457" y1="219.375" y2="219.375"/><text fill="#000000" font-family="sans-serif" font-size="13" font-weight="bold" lengthAdjust="spacing" textLength="7" x="92" y="214.6201">3</text><text fill="#000000" font-family="sans-serif" font-size="13" lengthAdjust="spacing" textLength="118" x="103" y="214.6201">Type requested data</text><path d="M10,234.375 L75,234.375 L75,240.8984 L65,250.8984 L10,250.8984 L10,234.375 " fill="#EEEEEE" style="stroke:#000000;stroke-width:1.5;"/><rect fill="none" height="73.5703" style="stroke:#000000;stroke-width:1.5;" width="500" x="10" y="234.375"/><text fill="#000000" font-family="sans-serif" font-size="13" font-weight="bold" lengthAdjust="spacing" textLength="20" x="25" y="247.1436">opt</text><text fill="#000000" font-family="sans-serif" font-size="11" font-weight="bold" lengthAdjust="spacing" textLength="205" x="90" y="246.333">[If intended to register with address]</text><polygon fill="#181818" points="96,267.4219,86,271.4219,96,275.4219,92,271.4219" style="stroke:#181818;stroke-width:1.0;"/><line style="stroke:#181818;stroke-width:1.0;stroke-dasharray:2.0,2.0;" x1="90" x2="467" y1="271.4219" y2="271.4219"/><text fill="#000000" font-family="sans-serif" font-size="13" font-weight="bold" lengthAdjust="spacing" textLength="7" x="102" y="266.667">4</text><text fill="#000000" font-family="sans-serif" font-size="13" lengthAdjust="spacing" textLength="343" x="113" y="266.667">Request data (i.e. streetName, cityName, zipCode, district)</text><polygon fill="#181818" points="451,295.9453,461,299.9453,451,303.9453,455,299.9453" style="stroke:#181818;stroke-width:1.0;"/><line style="stroke:#181818;stroke-width:1.0;" x1="85" x2="457" y1="299.9453" y2="299.9453"/><text fill="#000000" font-family="sans-serif" font-size="13" font-weight="bold" lengthAdjust="spacing" textLength="7" x="92" y="295.1904">5</text><text fill="#000000" font-family="sans-serif" font-size="13" lengthAdjust="spacing" textLength="118" x="103" y="295.1904">Type requested data</text><polygon fill="#181818" points="96,331.4688,86,335.4688,96,339.4688,92,335.4688" style="stroke:#181818;stroke-width:1.0;"/><line style="stroke:#181818;stroke-width:1.0;stroke-dasharray:2.0,2.0;" x1="90" x2="467" y1="335.4688" y2="335.4688"/><text fill="#000000" font-family="sans-serif" font-size="13" font-weight="bold" lengthAdjust="spacing" textLength="7" x="102" y="330.7139">6</text><text fill="#000000" font-family="sans-serif" font-size="13" lengthAdjust="spacing" textLength="203" x="113" y="330.7139">Show data and ask for confirmation</text><polygon fill="#181818" points="451,359.9922,461,363.9922,451,367.9922,455,363.9922" style="stroke:#181818;stroke-width:1.0;"/><line style="stroke:#181818;stroke-width:1.0;" x1="85" x2="457" y1="363.9922" y2="363.9922"/><text fill="#000000" font-family="sans-serif" font-size="13" font-weight="bold" lengthAdjust="spacing" textLength="7" x="92" y="359.2373">7</text><text fill="#000000" font-family="sans-serif" font-size="13" lengthAdjust="spacing" textLength="44" x="103" y="359.2373">Confirm</text><polygon fill="#181818" points="96,388.5156,86,392.5156,96,396.5156,92,392.5156" style="stroke:#181818;stroke-width:1.0;"/><line style="stroke:#181818;stroke-width:1.0;stroke-dasharray:2.0,2.0;" x1="90" x2="467" y1="392.5156" y2="392.5156"/><text fill="#000000" font-family="sans-serif" font-size="13" font-weight="bold" lengthAdjust="spacing" textLength="7" x="102" y="387.7607">8</text><text fill="#000000" font-family="sans-serif" font-size="13" lengthAdjust="spacing" textLength="153" x="113" y="387.7607">Display operation success</text><!--SRC=[fLAnRjj03Dtr5OId6B23R04y52ZYfKk7gjwwC7UqH5ZYNNbK7VNhSv8imutheaWuFV1uZu-FJ0UMY8ejj462gpMq1AOT5Udy4j4TiABI-eP0oHbArLmMf1fzEB9KiCScKL4OMouj-sJKGaa_En97i6MiXlAxijmkOGsxyk7XiIYmio1T-qoQiREWiDY9KiNvjvA7NI9T02Qup0x98dStTXnH31QRgTrOES6HZd-XqVNN0dAypSBwqonw0v_J0Ip0N04eWCw5JcpyUwQUUy4fJWJhp7N5lu5lWnd9mACXtF4ztODWIokW5ha1z5uffLNsFALZKB_w8GECGGqSgeV9gHKOlfnmLkR1gA5O1w5JSZdgyVHNcV-S-tiVXosFChFxWz3R0uTey6KFB4RYS_MbOKUsUXxexCwx74gcHFPrzCcnzHFwpV4f-0ny9b1sjloZoutPvxZjmMqBvdXBFEUp1yN_7a9PX-Cqux0-pCUspvVlWknPMpGEykuDFaqa7pdJBQVOO9_tIpgAWTGvDo_oMjGh]--></g></svg>