<?xml version="1.0" encoding="us-ascii" standalone="no"?><svg xmlns="http://www.w3.org/2000/svg" xmlns:xlink="http://www.w3.org/1999/xlink" contentStyleType="text/css" height="1871px" preserveAspectRatio="none" style="width:1705px;height:1871px;background:#FFFFFF;" version="1.1" viewBox="0 0 1705 1871" width="1705px" zoomAndPan="magnify"><defs/><g><!--class AdvertisementRepository--><g id="elem_AdvertisementRepository"><rect codeLine="11" fill="#F1F1F1" height="126.2031" id="AdvertisementRepository" rx="2.5" ry="2.5" style="stroke:#181818;stroke-width:0.5;" width="637" x="407" y="209"/><ellipse cx="642.25" cy="225" fill="#ADD1B2" rx="11" ry="11" style="stroke:#181818;stroke-width:1.0;"/><path d="M645.0156,220.875 Q645.1719,220.6563 645.3594,220.5469 Q645.5469,220.4375 645.7656,220.4375 Q646.1406,220.4375 646.375,220.7031 Q646.6094,220.9531 646.6094,221.5625 L646.6094,223.0156 Q646.6094,223.625 646.375,223.8906 Q646.1406,224.1563 645.7656,224.1563 Q645.4219,224.1563 645.2188,223.9531 Q645.0156,223.7656 644.9063,223.25 Q644.8594,222.8906 644.6719,222.7031 Q644.3438,222.3281 643.7344,222.1094 Q643.125,221.8906 642.5,221.8906 Q641.7344,221.8906 641.0938,222.2188 Q640.4688,222.5469 639.9688,223.2969 Q639.4844,224.0469 639.4844,225.0781 L639.4844,226.1719 Q639.4844,227.4063 640.375,228.2344 Q641.2656,229.0469 642.8594,229.0469 Q643.7969,229.0469 644.4531,228.7969 Q644.8438,228.6406 645.2656,228.2031 Q645.5313,227.9375 645.6719,227.8594 Q645.8281,227.7813 646.0313,227.7813 Q646.3594,227.7813 646.6094,228.0469 Q646.875,228.2969 646.875,228.6406 Q646.875,228.9844 646.5313,229.3906 Q646.0313,229.9688 645.2344,230.2969 Q644.1563,230.75 642.8594,230.75 Q641.3438,230.75 640.1406,230.125 Q639.1563,229.625 638.4688,228.5625 Q637.7813,227.4844 637.7813,226.2031 L637.7813,225.0469 Q637.7813,223.7188 638.3906,222.5781 Q639.0156,221.4219 640.1094,220.8125 Q641.2031,220.1875 642.4375,220.1875 Q643.1719,220.1875 643.8125,220.3594 Q644.4688,220.5156 645.0156,220.875 Z " fill="#000000"/><text fill="#000000" font-family="sans-serif" font-size="14" lengthAdjust="spacing" textLength="158" x="662.75" y="229.8535">AdvertisementRepository</text><line style="stroke:#181818;stroke-width:0.5;" x1="408" x2="1043" y1="241" y2="241"/><text fill="#000000" font-family="sans-serif" font-size="14" lengthAdjust="spacing" textLength="237" x="413" y="257.6738">-advertisements: List&lt;Advertisement&gt;</text><line style="stroke:#181818;stroke-width:0.5;" x1="408" x2="1043" y1="264.6406" y2="264.6406"/><text fill="#000000" font-family="sans-serif" font-size="14" lengthAdjust="spacing" textLength="135" x="413" y="281.3145">+getAdvertisements()</text><text fill="#000000" font-family="sans-serif" font-size="14" lengthAdjust="spacing" textLength="246" x="413" y="296.9551">+validateAdvertisement(advertisement)</text><text fill="#000000" font-family="sans-serif" font-size="14" lengthAdjust="spacing" textLength="221" x="413" y="312.5957">+addAdvertisement(advertisement)</text><text fill="#000000" font-family="sans-serif" font-size="14" lengthAdjust="spacing" textLength="625" x="413" y="328.2363">+createAdvertisement(client, property, propertyType, requestType,  data, commission, photograph)</text></g><!--class ClientRepository--><g id="elem_ClientRepository"><rect codeLine="19" fill="#F1F1F1" height="79.2813" id="ClientRepository" rx="2.5" ry="2.5" style="stroke:#181818;stroke-width:0.5;" width="208" x="1079.5" y="232.5"/><ellipse cx="1127.25" cy="248.5" fill="#ADD1B2" rx="11" ry="11" style="stroke:#181818;stroke-width:1.0;"/><path d="M1130.0156,244.375 Q1130.1719,244.1563 1130.3594,244.0469 Q1130.5469,243.9375 1130.7656,243.9375 Q1131.1406,243.9375 1131.375,244.2031 Q1131.6094,244.4531 1131.6094,245.0625 L1131.6094,246.5156 Q1131.6094,247.125 1131.375,247.3906 Q1131.1406,247.6563 1130.7656,247.6563 Q1130.4219,247.6563 1130.2188,247.4531 Q1130.0156,247.2656 1129.9063,246.75 Q1129.8594,246.3906 1129.6719,246.2031 Q1129.3438,245.8281 1128.7344,245.6094 Q1128.125,245.3906 1127.5,245.3906 Q1126.7344,245.3906 1126.0938,245.7188 Q1125.4688,246.0469 1124.9688,246.7969 Q1124.4844,247.5469 1124.4844,248.5781 L1124.4844,249.6719 Q1124.4844,250.9063 1125.375,251.7344 Q1126.2656,252.5469 1127.8594,252.5469 Q1128.7969,252.5469 1129.4531,252.2969 Q1129.8438,252.1406 1130.2656,251.7031 Q1130.5313,251.4375 1130.6719,251.3594 Q1130.8281,251.2813 1131.0313,251.2813 Q1131.3594,251.2813 1131.6094,251.5469 Q1131.875,251.7969 1131.875,252.1406 Q1131.875,252.4844 1131.5313,252.8906 Q1131.0313,253.4688 1130.2344,253.7969 Q1129.1563,254.25 1127.8594,254.25 Q1126.3438,254.25 1125.1406,253.625 Q1124.1563,253.125 1123.4688,252.0625 Q1122.7813,250.9844 1122.7813,249.7031 L1122.7813,248.5469 Q1122.7813,247.2188 1123.3906,246.0781 Q1124.0156,244.9219 1125.1094,244.3125 Q1126.2031,243.6875 1127.4375,243.6875 Q1128.1719,243.6875 1128.8125,243.8594 Q1129.4688,244.0156 1130.0156,244.375 Z " fill="#000000"/><text fill="#000000" font-family="sans-serif" font-size="14" lengthAdjust="spacing" textLength="104" x="1147.75" y="253.3535">ClientRepository</text><line style="stroke:#181818;stroke-width:0.5;" x1="1080.5" x2="1286.5" y1="264.5" y2="264.5"/><text fill="#000000" font-family="sans-serif" font-size="14" lengthAdjust="spacing" textLength="142" x="1085.5" y="281.1738">-clientList: List&lt;Client&gt;</text><line style="stroke:#181818;stroke-width:0.5;" x1="1080.5" x2="1286.5" y1="288.1406" y2="288.1406"/><text fill="#000000" font-family="sans-serif" font-size="14" lengthAdjust="spacing" textLength="196" x="1085.5" y="304.8145">+getClientByEmail(ownerEmail)</text></g><!--class Agent--><g id="elem_Agent"><rect codeLine="24" fill="#F1F1F1" height="94.9219" id="Agent" rx="2.5" ry="2.5" style="stroke:#181818;stroke-width:0.5;" width="148" x="676.5" y="966"/><ellipse cx="727.75" cy="982" fill="#ADD1B2" rx="11" ry="11" style="stroke:#181818;stroke-width:1.0;"/><path d="M730.5156,977.875 Q730.6719,977.6563 730.8594,977.5469 Q731.0469,977.4375 731.2656,977.4375 Q731.6406,977.4375 731.875,977.7031 Q732.1094,977.9531 732.1094,978.5625 L732.1094,980.0156 Q732.1094,980.625 731.875,980.8906 Q731.6406,981.1563 731.2656,981.1563 Q730.9219,981.1563 730.7188,980.9531 Q730.5156,980.7656 730.4063,980.25 Q730.3594,979.8906 730.1719,979.7031 Q729.8438,979.3281 729.2344,979.1094 Q728.625,978.8906 728,978.8906 Q727.2344,978.8906 726.5938,979.2188 Q725.9688,979.5469 725.4688,980.2969 Q724.9844,981.0469 724.9844,982.0781 L724.9844,983.1719 Q724.9844,984.4063 725.875,985.2344 Q726.7656,986.0469 728.3594,986.0469 Q729.2969,986.0469 729.9531,985.7969 Q730.3438,985.6406 730.7656,985.2031 Q731.0313,984.9375 731.1719,984.8594 Q731.3281,984.7813 731.5313,984.7813 Q731.8594,984.7813 732.1094,985.0469 Q732.375,985.2969 732.375,985.6406 Q732.375,985.9844 732.0313,986.3906 Q731.5313,986.9688 730.7344,987.2969 Q729.6563,987.75 728.3594,987.75 Q726.8438,987.75 725.6406,987.125 Q724.6563,986.625 723.9688,985.5625 Q723.2813,984.4844 723.2813,983.2031 L723.2813,982.0469 Q723.2813,980.7188 723.8906,979.5781 Q724.5156,978.4219 725.6094,977.8125 Q726.7031,977.1875 727.9375,977.1875 Q728.6719,977.1875 729.3125,977.3594 Q729.9688,977.5156 730.5156,977.875 Z " fill="#000000"/><text fill="#000000" font-family="sans-serif" font-size="14" lengthAdjust="spacing" textLength="37" x="748.25" y="986.8535">Agent</text><line style="stroke:#181818;stroke-width:0.5;" x1="677.5" x2="823.5" y1="998" y2="998"/><text fill="#000000" font-family="sans-serif" font-size="14" lengthAdjust="spacing" textLength="136" x="682.5" y="1014.6738">-employee: Employee</text><line style="stroke:#181818;stroke-width:0.5;" x1="677.5" x2="823.5" y1="1021.6406" y2="1021.6406"/><text fill="#000000" font-family="sans-serif" font-size="14" lengthAdjust="spacing" textLength="116" x="682.5" y="1038.3145">+Agent(employee)</text><text fill="#000000" font-family="sans-serif" font-size="14" lengthAdjust="spacing" textLength="100" x="682.5" y="1053.9551">+getEmployee()</text></g><!--class Client--><g id="elem_Client"><rect codeLine="30" fill="#F1F1F1" height="110.5625" id="Client" rx="2.5" ry="2.5" style="stroke:#181818;stroke-width:0.5;" width="224" x="1068.5" y="958"/><ellipse cx="1158.25" cy="974" fill="#ADD1B2" rx="11" ry="11" style="stroke:#181818;stroke-width:1.0;"/><path d="M1161.0156,969.875 Q1161.1719,969.6563 1161.3594,969.5469 Q1161.5469,969.4375 1161.7656,969.4375 Q1162.1406,969.4375 1162.375,969.7031 Q1162.6094,969.9531 1162.6094,970.5625 L1162.6094,972.0156 Q1162.6094,972.625 1162.375,972.8906 Q1162.1406,973.1563 1161.7656,973.1563 Q1161.4219,973.1563 1161.2188,972.9531 Q1161.0156,972.7656 1160.9063,972.25 Q1160.8594,971.8906 1160.6719,971.7031 Q1160.3438,971.3281 1159.7344,971.1094 Q1159.125,970.8906 1158.5,970.8906 Q1157.7344,970.8906 1157.0938,971.2188 Q1156.4688,971.5469 1155.9688,972.2969 Q1155.4844,973.0469 1155.4844,974.0781 L1155.4844,975.1719 Q1155.4844,976.4063 1156.375,977.2344 Q1157.2656,978.0469 1158.8594,978.0469 Q1159.7969,978.0469 1160.4531,977.7969 Q1160.8438,977.6406 1161.2656,977.2031 Q1161.5313,976.9375 1161.6719,976.8594 Q1161.8281,976.7813 1162.0313,976.7813 Q1162.3594,976.7813 1162.6094,977.0469 Q1162.875,977.2969 1162.875,977.6406 Q1162.875,977.9844 1162.5313,978.3906 Q1162.0313,978.9688 1161.2344,979.2969 Q1160.1563,979.75 1158.8594,979.75 Q1157.3438,979.75 1156.1406,979.125 Q1155.1563,978.625 1154.4688,977.5625 Q1153.7813,976.4844 1153.7813,975.2031 L1153.7813,974.0469 Q1153.7813,972.7188 1154.3906,971.5781 Q1155.0156,970.4219 1156.1094,969.8125 Q1157.2031,969.1875 1158.4375,969.1875 Q1159.1719,969.1875 1159.8125,969.3594 Q1160.4688,969.5156 1161.0156,969.875 Z " fill="#000000"/><text fill="#000000" font-family="sans-serif" font-size="14" lengthAdjust="spacing" textLength="36" x="1178.75" y="978.8535">Client</text><line style="stroke:#181818;stroke-width:0.5;" x1="1069.5" x2="1291.5" y1="990" y2="990"/><text fill="#000000" font-family="sans-serif" font-size="14" lengthAdjust="spacing" textLength="122" x="1074.5" y="1006.6738">-ownerEmail: String</text><text fill="#000000" font-family="sans-serif" font-size="14" lengthAdjust="spacing" textLength="102" x="1074.5" y="1022.3145">-person: Person</text><line style="stroke:#181818;stroke-width:0.5;" x1="1069.5" x2="1291.5" y1="1029.2813" y2="1029.2813"/><text fill="#000000" font-family="sans-serif" font-size="14" lengthAdjust="spacing" textLength="98" x="1074.5" y="1045.9551">+Client(person)</text><text fill="#000000" font-family="sans-serif" font-size="14" lengthAdjust="spacing" textLength="212" x="1074.5" y="1061.5957">+anyOwnerHasEmail(ownerEmail)</text></g><!--class AvailableEquipment--><g id="elem_AvailableEquipment"><rect codeLine="37" fill="#F1F1F1" height="126.2031" id="AvailableEquipment" rx="2.5" ry="2.5" style="stroke:#181818;stroke-width:0.5;" width="348" x="709.5" y="1738"/><ellipse cx="817.25" cy="1754" fill="#ADD1B2" rx="11" ry="11" style="stroke:#181818;stroke-width:1.0;"/><path d="M820.0156,1749.875 Q820.1719,1749.6563 820.3594,1749.5469 Q820.5469,1749.4375 820.7656,1749.4375 Q821.1406,1749.4375 821.375,1749.7031 Q821.6094,1749.9531 821.6094,1750.5625 L821.6094,1752.0156 Q821.6094,1752.625 821.375,1752.8906 Q821.1406,1753.1563 820.7656,1753.1563 Q820.4219,1753.1563 820.2188,1752.9531 Q820.0156,1752.7656 819.9063,1752.25 Q819.8594,1751.8906 819.6719,1751.7031 Q819.3438,1751.3281 818.7344,1751.1094 Q818.125,1750.8906 817.5,1750.8906 Q816.7344,1750.8906 816.0938,1751.2188 Q815.4688,1751.5469 814.9688,1752.2969 Q814.4844,1753.0469 814.4844,1754.0781 L814.4844,1755.1719 Q814.4844,1756.4063 815.375,1757.2344 Q816.2656,1758.0469 817.8594,1758.0469 Q818.7969,1758.0469 819.4531,1757.7969 Q819.8438,1757.6406 820.2656,1757.2031 Q820.5313,1756.9375 820.6719,1756.8594 Q820.8281,1756.7813 821.0313,1756.7813 Q821.3594,1756.7813 821.6094,1757.0469 Q821.875,1757.2969 821.875,1757.6406 Q821.875,1757.9844 821.5313,1758.3906 Q821.0313,1758.9688 820.2344,1759.2969 Q819.1563,1759.75 817.8594,1759.75 Q816.3438,1759.75 815.1406,1759.125 Q814.1563,1758.625 813.4688,1757.5625 Q812.7813,1756.4844 812.7813,1755.2031 L812.7813,1754.0469 Q812.7813,1752.7188 813.3906,1751.5781 Q814.0156,1750.4219 815.1094,1749.8125 Q816.2031,1749.1875 817.4375,1749.1875 Q818.1719,1749.1875 818.8125,1749.3594 Q819.4688,1749.5156 820.0156,1749.875 Z " fill="#000000"/><text fill="#000000" font-family="sans-serif" font-size="14" lengthAdjust="spacing" textLength="124" x="837.75" y="1758.8535">AvailableEquipment</text><line style="stroke:#181818;stroke-width:0.5;" x1="710.5" x2="1056.5" y1="1770" y2="1770"/><text fill="#000000" font-family="sans-serif" font-size="14" lengthAdjust="spacing" textLength="123" x="715.5" y="1786.6738">-airConditioning: Int</text><text fill="#000000" font-family="sans-serif" font-size="14" lengthAdjust="spacing" textLength="119" x="715.5" y="1802.3145">-centralHeating: Int</text><line style="stroke:#181818;stroke-width:0.5;" x1="710.5" x2="1056.5" y1="1809.2813" y2="1809.2813"/><text fill="#000000" font-family="sans-serif" font-size="14" lengthAdjust="spacing" textLength="336" x="715.5" y="1825.9551">+AvailableEquipment(airConditioning, centralHeating)</text><text fill="#000000" font-family="sans-serif" font-size="14" lengthAdjust="spacing" textLength="134" x="715.5" y="1841.5957">+getAirConditioning()</text><text fill="#000000" font-family="sans-serif" font-size="14" lengthAdjust="spacing" textLength="132" x="715.5" y="1857.2363">+getCentralHeating()</text></g><!--class AddressRepository--><g id="elem_AddressRepository"><rect codeLine="45" fill="#F1F1F1" height="79.2813" id="AddressRepository" rx="2.5" ry="2.5" style="stroke:#181818;stroke-width:0.5;" width="375" x="1323" y="232.5"/><ellipse cx="1446.25" cy="248.5" fill="#ADD1B2" rx="11" ry="11" style="stroke:#181818;stroke-width:1.0;"/><path d="M1449.0156,244.375 Q1449.1719,244.1563 1449.3594,244.0469 Q1449.5469,243.9375 1449.7656,243.9375 Q1450.1406,243.9375 1450.375,244.2031 Q1450.6094,244.4531 1450.6094,245.0625 L1450.6094,246.5156 Q1450.6094,247.125 1450.375,247.3906 Q1450.1406,247.6563 1449.7656,247.6563 Q1449.4219,247.6563 1449.2188,247.4531 Q1449.0156,247.2656 1448.9063,246.75 Q1448.8594,246.3906 1448.6719,246.2031 Q1448.3438,245.8281 1447.7344,245.6094 Q1447.125,245.3906 1446.5,245.3906 Q1445.7344,245.3906 1445.0938,245.7188 Q1444.4688,246.0469 1443.9688,246.7969 Q1443.4844,247.5469 1443.4844,248.5781 L1443.4844,249.6719 Q1443.4844,250.9063 1444.375,251.7344 Q1445.2656,252.5469 1446.8594,252.5469 Q1447.7969,252.5469 1448.4531,252.2969 Q1448.8438,252.1406 1449.2656,251.7031 Q1449.5313,251.4375 1449.6719,251.3594 Q1449.8281,251.2813 1450.0313,251.2813 Q1450.3594,251.2813 1450.6094,251.5469 Q1450.875,251.7969 1450.875,252.1406 Q1450.875,252.4844 1450.5313,252.8906 Q1450.0313,253.4688 1449.2344,253.7969 Q1448.1563,254.25 1446.8594,254.25 Q1445.3438,254.25 1444.1406,253.625 Q1443.1563,253.125 1442.4688,252.0625 Q1441.7813,250.9844 1441.7813,249.7031 L1441.7813,248.5469 Q1441.7813,247.2188 1442.3906,246.0781 Q1443.0156,244.9219 1444.1094,244.3125 Q1445.2031,243.6875 1446.4375,243.6875 Q1447.1719,243.6875 1447.8125,243.8594 Q1448.4688,244.0156 1449.0156,244.375 Z " fill="#000000"/><text fill="#000000" font-family="sans-serif" font-size="14" lengthAdjust="spacing" textLength="120" x="1466.75" y="253.3535">AddressRepository</text><line style="stroke:#181818;stroke-width:0.5;" x1="1324" x2="1697" y1="264.5" y2="264.5"/><line style="stroke:#181818;stroke-width:0.5;" x1="1324" x2="1697" y1="272.5" y2="272.5"/><text fill="#000000" font-family="sans-serif" font-size="14" lengthAdjust="spacing" textLength="363" x="1329" y="289.1738">+registerAddress(streetName, cityName, zipCode, district)</text><text fill="#000000" font-family="sans-serif" font-size="14" lengthAdjust="spacing" textLength="145" x="1329" y="304.8145">+addAddress(address)</text></g><!--class Advertisement--><g id="elem_Advertisement"><rect codeLine="50" fill="#F1F1F1" height="298.25" id="Advertisement" rx="2.5" ry="2.5" style="stroke:#181818;stroke-width:0.5;" width="196" x="652.5" y="411"/><ellipse cx="701.25" cy="427" fill="#ADD1B2" rx="11" ry="11" style="stroke:#181818;stroke-width:1.0;"/><path d="M704.0156,422.875 Q704.1719,422.6563 704.3594,422.5469 Q704.5469,422.4375 704.7656,422.4375 Q705.1406,422.4375 705.375,422.7031 Q705.6094,422.9531 705.6094,423.5625 L705.6094,425.0156 Q705.6094,425.625 705.375,425.8906 Q705.1406,426.1563 704.7656,426.1563 Q704.4219,426.1563 704.2188,425.9531 Q704.0156,425.7656 703.9063,425.25 Q703.8594,424.8906 703.6719,424.7031 Q703.3438,424.3281 702.7344,424.1094 Q702.125,423.8906 701.5,423.8906 Q700.7344,423.8906 700.0938,424.2188 Q699.4688,424.5469 698.9688,425.2969 Q698.4844,426.0469 698.4844,427.0781 L698.4844,428.1719 Q698.4844,429.4063 699.375,430.2344 Q700.2656,431.0469 701.8594,431.0469 Q702.7969,431.0469 703.4531,430.7969 Q703.8438,430.6406 704.2656,430.2031 Q704.5313,429.9375 704.6719,429.8594 Q704.8281,429.7813 705.0313,429.7813 Q705.3594,429.7813 705.6094,430.0469 Q705.875,430.2969 705.875,430.6406 Q705.875,430.9844 705.5313,431.3906 Q705.0313,431.9688 704.2344,432.2969 Q703.1563,432.75 701.8594,432.75 Q700.3438,432.75 699.1406,432.125 Q698.1563,431.625 697.4688,430.5625 Q696.7813,429.4844 696.7813,428.2031 L696.7813,427.0469 Q696.7813,425.7188 697.3906,424.5781 Q698.0156,423.4219 699.1094,422.8125 Q700.2031,422.1875 701.4375,422.1875 Q702.1719,422.1875 702.8125,422.3594 Q703.4688,422.5156 704.0156,422.875 Z " fill="#000000"/><text fill="#000000" font-family="sans-serif" font-size="14" lengthAdjust="spacing" textLength="90" x="721.75" y="431.8535">Advertisement</text><line style="stroke:#181818;stroke-width:0.5;" x1="653.5" x2="847.5" y1="443" y2="443"/><text fill="#000000" font-family="sans-serif" font-size="14" lengthAdjust="spacing" textLength="82" x="658.5" y="459.6738">-client: Client</text><text fill="#000000" font-family="sans-serif" font-size="14" lengthAdjust="spacing" textLength="120" x="658.5" y="475.3145">-property: Property</text><text fill="#000000" font-family="sans-serif" font-size="14" lengthAdjust="spacing" textLength="184" x="658.5" y="490.9551">-propertyType: PropertyType</text><text fill="#000000" font-family="sans-serif" font-size="14" lengthAdjust="spacing" textLength="178" x="658.5" y="506.5957">-requestType: RequestType</text><text fill="#000000" font-family="sans-serif" font-size="14" lengthAdjust="spacing" textLength="116" x="658.5" y="522.2363">-address: Address</text><text fill="#000000" font-family="sans-serif" font-size="14" lengthAdjust="spacing" textLength="78" x="658.5" y="537.877">-date: String</text><text fill="#000000" font-family="sans-serif" font-size="14" lengthAdjust="spacing" textLength="162" x="658.5" y="553.5176">-commission: Commission</text><text fill="#000000" font-family="sans-serif" font-size="14" lengthAdjust="spacing" textLength="160" x="658.5" y="569.1582">-photograph: Photograph</text><text fill="#000000" font-family="sans-serif" font-size="14" lengthAdjust="spacing" textLength="120" x="658.5" y="584.7988">+getRequestTypes</text><line style="stroke:#181818;stroke-width:0.5;" x1="653.5" x2="847.5" y1="591.7656" y2="591.7656"/><text fill="#000000" font-family="sans-serif" font-size="14" lengthAdjust="spacing" textLength="74" x="658.5" y="608.4395">+getClient()</text><text fill="#000000" font-family="sans-serif" font-size="14" lengthAdjust="spacing" textLength="92" x="658.5" y="624.0801">+getProperty()</text><text fill="#000000" font-family="sans-serif" font-size="14" lengthAdjust="spacing" textLength="131" x="658.5" y="639.7207">+getPropertyTypes()</text><text fill="#000000" font-family="sans-serif" font-size="14" lengthAdjust="spacing" textLength="90" x="658.5" y="655.3613">+getAddress()</text><text fill="#000000" font-family="sans-serif" font-size="14" lengthAdjust="spacing" textLength="114" x="658.5" y="671.002">+getCommission()</text><text fill="#000000" font-family="sans-serif" font-size="14" lengthAdjust="spacing" textLength="68" x="658.5" y="686.6426">+getDate()</text><text fill="#000000" font-family="sans-serif" font-size="14" lengthAdjust="spacing" textLength="112" x="658.5" y="702.2832">+getPhotograph()</text></g><!--class Repositories--><g id="elem_Repositories"><rect codeLine="69" fill="#F1F1F1" height="126.2031" id="Repositories" rx="2.5" ry="2.5" style="stroke:#181818;stroke-width:0.5;" width="208" x="1114.5" y="7"/><ellipse cx="1174.75" cy="23" fill="#ADD1B2" rx="11" ry="11" style="stroke:#181818;stroke-width:1.0;"/><path d="M1177.5156,18.875 Q1177.6719,18.6563 1177.8594,18.5469 Q1178.0469,18.4375 1178.2656,18.4375 Q1178.6406,18.4375 1178.875,18.7031 Q1179.1094,18.9531 1179.1094,19.5625 L1179.1094,21.0156 Q1179.1094,21.625 1178.875,21.8906 Q1178.6406,22.1563 1178.2656,22.1563 Q1177.9219,22.1563 1177.7188,21.9531 Q1177.5156,21.7656 1177.4063,21.25 Q1177.3594,20.8906 1177.1719,20.7031 Q1176.8438,20.3281 1176.2344,20.1094 Q1175.625,19.8906 1175,19.8906 Q1174.2344,19.8906 1173.5938,20.2188 Q1172.9688,20.5469 1172.4688,21.2969 Q1171.9844,22.0469 1171.9844,23.0781 L1171.9844,24.1719 Q1171.9844,25.4063 1172.875,26.2344 Q1173.7656,27.0469 1175.3594,27.0469 Q1176.2969,27.0469 1176.9531,26.7969 Q1177.3438,26.6406 1177.7656,26.2031 Q1178.0313,25.9375 1178.1719,25.8594 Q1178.3281,25.7813 1178.5313,25.7813 Q1178.8594,25.7813 1179.1094,26.0469 Q1179.375,26.2969 1179.375,26.6406 Q1179.375,26.9844 1179.0313,27.3906 Q1178.5313,27.9688 1177.7344,28.2969 Q1176.6563,28.75 1175.3594,28.75 Q1173.8438,28.75 1172.6406,28.125 Q1171.6563,27.625 1170.9688,26.5625 Q1170.2813,25.4844 1170.2813,24.2031 L1170.2813,23.0469 Q1170.2813,21.7188 1170.8906,20.5781 Q1171.5156,19.4219 1172.6094,18.8125 Q1173.7031,18.1875 1174.9375,18.1875 Q1175.6719,18.1875 1176.3125,18.3594 Q1176.9688,18.5156 1177.5156,18.875 Z " fill="#000000"/><text fill="#000000" font-family="sans-serif" font-size="14" lengthAdjust="spacing" textLength="79" x="1195.25" y="27.8535">Repositories</text><line style="stroke:#181818;stroke-width:0.5;" x1="1115.5" x2="1321.5" y1="39" y2="39"/><line style="stroke:#181818;stroke-width:0.5;" x1="1115.5" x2="1321.5" y1="47" y2="47"/><text fill="#000000" font-family="sans-serif" font-size="14" lengthAdjust="spacing" textLength="94" x="1120.5" y="63.6738">-Repositories()</text><text fill="#000000" font-family="sans-serif" font-size="14" lengthAdjust="spacing" textLength="182" x="1120.5" y="79.3145">+getInstance() : Repositories</text><text fill="#000000" font-family="sans-serif" font-size="14" lengthAdjust="spacing" textLength="158" x="1120.5" y="94.9551">+getAddressRepository()</text><text fill="#000000" font-family="sans-serif" font-size="14" lengthAdjust="spacing" textLength="142" x="1120.5" y="110.5957">+getClientRepository()</text><text fill="#000000" font-family="sans-serif" font-size="14" lengthAdjust="spacing" textLength="196" x="1120.5" y="126.2363">+getAdvertisementRepository()</text></g><!--class PublishController--><g id="elem_PublishController"><rect codeLine="77" fill="#F1F1F1" height="110.5625" id="PublishController" rx="2.5" ry="2.5" style="stroke:#181818;stroke-width:0.5;" width="208" x="802.5" y="14.5"/><ellipse cx="848.25" cy="30.5" fill="#ADD1B2" rx="11" ry="11" style="stroke:#181818;stroke-width:1.0;"/><path d="M851.0156,26.375 Q851.1719,26.1563 851.3594,26.0469 Q851.5469,25.9375 851.7656,25.9375 Q852.1406,25.9375 852.375,26.2031 Q852.6094,26.4531 852.6094,27.0625 L852.6094,28.5156 Q852.6094,29.125 852.375,29.3906 Q852.1406,29.6563 851.7656,29.6563 Q851.4219,29.6563 851.2188,29.4531 Q851.0156,29.2656 850.9063,28.75 Q850.8594,28.3906 850.6719,28.2031 Q850.3438,27.8281 849.7344,27.6094 Q849.125,27.3906 848.5,27.3906 Q847.7344,27.3906 847.0938,27.7188 Q846.4688,28.0469 845.9688,28.7969 Q845.4844,29.5469 845.4844,30.5781 L845.4844,31.6719 Q845.4844,32.9063 846.375,33.7344 Q847.2656,34.5469 848.8594,34.5469 Q849.7969,34.5469 850.4531,34.2969 Q850.8438,34.1406 851.2656,33.7031 Q851.5313,33.4375 851.6719,33.3594 Q851.8281,33.2813 852.0313,33.2813 Q852.3594,33.2813 852.6094,33.5469 Q852.875,33.7969 852.875,34.1406 Q852.875,34.4844 852.5313,34.8906 Q852.0313,35.4688 851.2344,35.7969 Q850.1563,36.25 848.8594,36.25 Q847.3438,36.25 846.1406,35.625 Q845.1563,35.125 844.4688,34.0625 Q843.7813,32.9844 843.7813,31.7031 L843.7813,30.5469 Q843.7813,29.2188 844.3906,28.0781 Q845.0156,26.9219 846.1094,26.3125 Q847.2031,25.6875 848.4375,25.6875 Q849.1719,25.6875 849.8125,25.8594 Q850.4688,26.0156 851.0156,26.375 Z " fill="#000000"/><text fill="#000000" font-family="sans-serif" font-size="14" lengthAdjust="spacing" textLength="108" x="868.75" y="35.3535">PublishController</text><line style="stroke:#181818;stroke-width:0.5;" x1="803.5" x2="1009.5" y1="46.5" y2="46.5"/><line style="stroke:#181818;stroke-width:0.5;" x1="803.5" x2="1009.5" y1="54.5" y2="54.5"/><text fill="#000000" font-family="sans-serif" font-size="14" lengthAdjust="spacing" textLength="126" x="808.5" y="71.1738">+PublishController()</text><text fill="#000000" font-family="sans-serif" font-size="14" lengthAdjust="spacing" textLength="158" x="808.5" y="86.8145">+getAddressRepository()</text><text fill="#000000" font-family="sans-serif" font-size="14" lengthAdjust="spacing" textLength="196" x="808.5" y="102.4551">+getAdvertisementRepository()</text><text fill="#000000" font-family="sans-serif" font-size="14" lengthAdjust="spacing" textLength="142" x="808.5" y="118.0957">+getClientRepository()</text></g><!--class RequestType--><g id="elem_RequestType"><rect codeLine="85" fill="#F1F1F1" height="79.2813" id="RequestType" rx="2.5" ry="2.5" style="stroke:#181818;stroke-width:0.5;" width="157" x="871" y="974"/><ellipse cx="904" cy="990" fill="#ADD1B2" rx="11" ry="11" style="stroke:#181818;stroke-width:1.0;"/><path d="M906.7656,985.875 Q906.9219,985.6563 907.1094,985.5469 Q907.2969,985.4375 907.5156,985.4375 Q907.8906,985.4375 908.125,985.7031 Q908.3594,985.9531 908.3594,986.5625 L908.3594,988.0156 Q908.3594,988.625 908.125,988.8906 Q907.8906,989.1563 907.5156,989.1563 Q907.1719,989.1563 906.9688,988.9531 Q906.7656,988.7656 906.6563,988.25 Q906.6094,987.8906 906.4219,987.7031 Q906.0938,987.3281 905.4844,987.1094 Q904.875,986.8906 904.25,986.8906 Q903.4844,986.8906 902.8438,987.2188 Q902.2188,987.5469 901.7188,988.2969 Q901.2344,989.0469 901.2344,990.0781 L901.2344,991.1719 Q901.2344,992.4063 902.125,993.2344 Q903.0156,994.0469 904.6094,994.0469 Q905.5469,994.0469 906.2031,993.7969 Q906.5938,993.6406 907.0156,993.2031 Q907.2813,992.9375 907.4219,992.8594 Q907.5781,992.7813 907.7813,992.7813 Q908.1094,992.7813 908.3594,993.0469 Q908.625,993.2969 908.625,993.6406 Q908.625,993.9844 908.2813,994.3906 Q907.7813,994.9688 906.9844,995.2969 Q905.9063,995.75 904.6094,995.75 Q903.0938,995.75 901.8906,995.125 Q900.9063,994.625 900.2188,993.5625 Q899.5313,992.4844 899.5313,991.2031 L899.5313,990.0469 Q899.5313,988.7188 900.1406,987.5781 Q900.7656,986.4219 901.8594,985.8125 Q902.9531,985.1875 904.1875,985.1875 Q904.9219,985.1875 905.5625,985.3594 Q906.2188,985.5156 906.7656,985.875 Z " fill="#000000"/><text fill="#000000" font-family="sans-serif" font-size="14" lengthAdjust="spacing" textLength="85" x="922" y="994.8535">RequestType</text><line style="stroke:#181818;stroke-width:0.5;" x1="872" x2="1027" y1="1006" y2="1006"/><text fill="#000000" font-family="sans-serif" font-size="14" lengthAdjust="spacing" textLength="145" x="877" y="1022.6738">-requestTypes: String[]</text><line style="stroke:#181818;stroke-width:0.5;" x1="872" x2="1027" y1="1029.6406" y2="1029.6406"/><text fill="#000000" font-family="sans-serif" font-size="14" lengthAdjust="spacing" textLength="130" x="877" y="1046.3145">+getRequestTypes()</text></g><!--class Property--><g id="elem_Property"><rect codeLine="90" fill="#F1F1F1" height="220.0469" id="Property" rx="2.5" ry="2.5" style="stroke:#181818;stroke-width:0.5;" width="410" x="1054.5" y="1145"/><ellipse cx="1228.25" cy="1161" fill="#ADD1B2" rx="11" ry="11" style="stroke:#181818;stroke-width:1.0;"/><path d="M1231.0156,1156.875 Q1231.1719,1156.6563 1231.3594,1156.5469 Q1231.5469,1156.4375 1231.7656,1156.4375 Q1232.1406,1156.4375 1232.375,1156.7031 Q1232.6094,1156.9531 1232.6094,1157.5625 L1232.6094,1159.0156 Q1232.6094,1159.625 1232.375,1159.8906 Q1232.1406,1160.1563 1231.7656,1160.1563 Q1231.4219,1160.1563 1231.2188,1159.9531 Q1231.0156,1159.7656 1230.9063,1159.25 Q1230.8594,1158.8906 1230.6719,1158.7031 Q1230.3438,1158.3281 1229.7344,1158.1094 Q1229.125,1157.8906 1228.5,1157.8906 Q1227.7344,1157.8906 1227.0938,1158.2188 Q1226.4688,1158.5469 1225.9688,1159.2969 Q1225.4844,1160.0469 1225.4844,1161.0781 L1225.4844,1162.1719 Q1225.4844,1163.4063 1226.375,1164.2344 Q1227.2656,1165.0469 1228.8594,1165.0469 Q1229.7969,1165.0469 1230.4531,1164.7969 Q1230.8438,1164.6406 1231.2656,1164.2031 Q1231.5313,1163.9375 1231.6719,1163.8594 Q1231.8281,1163.7813 1232.0313,1163.7813 Q1232.3594,1163.7813 1232.6094,1164.0469 Q1232.875,1164.2969 1232.875,1164.6406 Q1232.875,1164.9844 1232.5313,1165.3906 Q1232.0313,1165.9688 1231.2344,1166.2969 Q1230.1563,1166.75 1228.8594,1166.75 Q1227.3438,1166.75 1226.1406,1166.125 Q1225.1563,1165.625 1224.4688,1164.5625 Q1223.7813,1163.4844 1223.7813,1162.2031 L1223.7813,1161.0469 Q1223.7813,1159.7188 1224.3906,1158.5781 Q1225.0156,1157.4219 1226.1094,1156.8125 Q1227.2031,1156.1875 1228.4375,1156.1875 Q1229.1719,1156.1875 1229.8125,1156.3594 Q1230.4688,1156.5156 1231.0156,1156.875 Z " fill="#000000"/><text fill="#000000" font-family="sans-serif" font-size="14" lengthAdjust="spacing" textLength="54" x="1248.75" y="1165.8535">Property</text><line style="stroke:#181818;stroke-width:0.5;" x1="1055.5" x2="1463.5" y1="1177" y2="1177"/><text fill="#000000" font-family="sans-serif" font-size="14" lengthAdjust="spacing" textLength="87" x="1060.5" y="1193.6738">-area: Double</text><text fill="#000000" font-family="sans-serif" font-size="14" lengthAdjust="spacing" textLength="89" x="1060.5" y="1209.3145">-price: Double</text><text fill="#000000" font-family="sans-serif" font-size="14" lengthAdjust="spacing" textLength="168" x="1060.5" y="1224.9551">-distanceFromCity: Double</text><text fill="#000000" font-family="sans-serif" font-size="14" lengthAdjust="spacing" textLength="183" x="1060.5" y="1240.5957">-photographList: List&lt;String&gt;</text><text fill="#000000" font-family="sans-serif" font-size="14" lengthAdjust="spacing" textLength="116" x="1060.5" y="1256.2363">-address: Address</text><line style="stroke:#181818;stroke-width:0.5;" x1="1055.5" x2="1463.5" y1="1263.2031" y2="1263.2031"/><text fill="#000000" font-family="sans-serif" font-size="14" lengthAdjust="spacing" textLength="398" x="1060.5" y="1279.877">+Property(area, price, distanceFromCity, photograph, address)</text><text fill="#000000" font-family="sans-serif" font-size="14" lengthAdjust="spacing" textLength="68" x="1060.5" y="1295.5176">+getArea()</text><text fill="#000000" font-family="sans-serif" font-size="14" lengthAdjust="spacing" textLength="70" x="1060.5" y="1311.1582">+getPrice()</text><text fill="#000000" font-family="sans-serif" font-size="14" lengthAdjust="spacing" textLength="150" x="1060.5" y="1326.7988">+getDistanceFromCity()</text><text fill="#000000" font-family="sans-serif" font-size="14" lengthAdjust="spacing" textLength="112" x="1060.5" y="1342.4395">+getPhotograph()</text><text fill="#000000" font-family="sans-serif" font-size="14" lengthAdjust="spacing" textLength="90" x="1060.5" y="1358.0801">+getAddress()</text></g><!--class PropertyType--><g id="elem_PropertyType"><rect codeLine="104" fill="#F1F1F1" height="79.2813" id="PropertyType" rx="2.5" ry="2.5" style="stroke:#181818;stroke-width:0.5;" width="162" x="1317.5" y="1504.5"/><ellipse cx="1352.3" cy="1520.5" fill="#ADD1B2" rx="11" ry="11" style="stroke:#181818;stroke-width:1.0;"/><path d="M1355.0656,1516.375 Q1355.2219,1516.1563 1355.4094,1516.0469 Q1355.5969,1515.9375 1355.8156,1515.9375 Q1356.1906,1515.9375 1356.425,1516.2031 Q1356.6594,1516.4531 1356.6594,1517.0625 L1356.6594,1518.5156 Q1356.6594,1519.125 1356.425,1519.3906 Q1356.1906,1519.6563 1355.8156,1519.6563 Q1355.4719,1519.6563 1355.2688,1519.4531 Q1355.0656,1519.2656 1354.9563,1518.75 Q1354.9094,1518.3906 1354.7219,1518.2031 Q1354.3938,1517.8281 1353.7844,1517.6094 Q1353.175,1517.3906 1352.55,1517.3906 Q1351.7844,1517.3906 1351.1438,1517.7188 Q1350.5188,1518.0469 1350.0188,1518.7969 Q1349.5344,1519.5469 1349.5344,1520.5781 L1349.5344,1521.6719 Q1349.5344,1522.9063 1350.425,1523.7344 Q1351.3156,1524.5469 1352.9094,1524.5469 Q1353.8469,1524.5469 1354.5031,1524.2969 Q1354.8938,1524.1406 1355.3156,1523.7031 Q1355.5813,1523.4375 1355.7219,1523.3594 Q1355.8781,1523.2813 1356.0813,1523.2813 Q1356.4094,1523.2813 1356.6594,1523.5469 Q1356.925,1523.7969 1356.925,1524.1406 Q1356.925,1524.4844 1356.5813,1524.8906 Q1356.0813,1525.4688 1355.2844,1525.7969 Q1354.2063,1526.25 1352.9094,1526.25 Q1351.3938,1526.25 1350.1906,1525.625 Q1349.2063,1525.125 1348.5188,1524.0625 Q1347.8313,1522.9844 1347.8313,1521.7031 L1347.8313,1520.5469 Q1347.8313,1519.2188 1348.4406,1518.0781 Q1349.0656,1516.9219 1350.1594,1516.3125 Q1351.2531,1515.6875 1352.4875,1515.6875 Q1353.2219,1515.6875 1353.8625,1515.8594 Q1354.5188,1516.0156 1355.0656,1516.375 Z " fill="#000000"/><text fill="#000000" font-family="sans-serif" font-size="14" lengthAdjust="spacing" textLength="86" x="1370.7" y="1525.3535">PropertyType</text><line style="stroke:#181818;stroke-width:0.5;" x1="1318.5" x2="1478.5" y1="1536.5" y2="1536.5"/><text fill="#000000" font-family="sans-serif" font-size="14" lengthAdjust="spacing" textLength="150" x="1323.5" y="1553.1738">-propertyTypes: String[]</text><line style="stroke:#181818;stroke-width:0.5;" x1="1318.5" x2="1478.5" y1="1560.1406" y2="1560.1406"/><text fill="#000000" font-family="sans-serif" font-size="14" lengthAdjust="spacing" textLength="131" x="1323.5" y="1576.8145">+getPropertyTypes()</text></g><!--class Residence--><g id="elem_Residence"><rect codeLine="109" fill="#F1F1F1" height="235.6875" id="Residence" rx="2.5" ry="2.5" style="stroke:#181818;stroke-width:0.5;" width="797" x="485" y="1426"/><ellipse cx="845.75" cy="1442" fill="#ADD1B2" rx="11" ry="11" style="stroke:#181818;stroke-width:1.0;"/><path d="M848.5156,1437.875 Q848.6719,1437.6563 848.8594,1437.5469 Q849.0469,1437.4375 849.2656,1437.4375 Q849.6406,1437.4375 849.875,1437.7031 Q850.1094,1437.9531 850.1094,1438.5625 L850.1094,1440.0156 Q850.1094,1440.625 849.875,1440.8906 Q849.6406,1441.1563 849.2656,1441.1563 Q848.9219,1441.1563 848.7188,1440.9531 Q848.5156,1440.7656 848.4063,1440.25 Q848.3594,1439.8906 848.1719,1439.7031 Q847.8438,1439.3281 847.2344,1439.1094 Q846.625,1438.8906 846,1438.8906 Q845.2344,1438.8906 844.5938,1439.2188 Q843.9688,1439.5469 843.4688,1440.2969 Q842.9844,1441.0469 842.9844,1442.0781 L842.9844,1443.1719 Q842.9844,1444.4063 843.875,1445.2344 Q844.7656,1446.0469 846.3594,1446.0469 Q847.2969,1446.0469 847.9531,1445.7969 Q848.3438,1445.6406 848.7656,1445.2031 Q849.0313,1444.9375 849.1719,1444.8594 Q849.3281,1444.7813 849.5313,1444.7813 Q849.8594,1444.7813 850.1094,1445.0469 Q850.375,1445.2969 850.375,1445.6406 Q850.375,1445.9844 850.0313,1446.3906 Q849.5313,1446.9688 848.7344,1447.2969 Q847.6563,1447.75 846.3594,1447.75 Q844.8438,1447.75 843.6406,1447.125 Q842.6563,1446.625 841.9688,1445.5625 Q841.2813,1444.4844 841.2813,1443.2031 L841.2813,1442.0469 Q841.2813,1440.7188 841.8906,1439.5781 Q842.5156,1438.4219 843.6094,1437.8125 Q844.7031,1437.1875 845.9375,1437.1875 Q846.6719,1437.1875 847.3125,1437.3594 Q847.9688,1437.5156 848.5156,1437.875 Z " fill="#000000"/><text fill="#000000" font-family="sans-serif" font-size="14" lengthAdjust="spacing" textLength="67" x="866.25" y="1446.8535">Residence</text><line style="stroke:#181818;stroke-width:0.5;" x1="486" x2="1281" y1="1458" y2="1458"/><text fill="#000000" font-family="sans-serif" font-size="14" lengthAdjust="spacing" textLength="120" x="491" y="1474.6738">-property: Property</text><text fill="#000000" font-family="sans-serif" font-size="14" lengthAdjust="spacing" textLength="140" x="491" y="1490.3145">-numberBedrooms: Int</text><text fill="#000000" font-family="sans-serif" font-size="14" lengthAdjust="spacing" textLength="144" x="491" y="1505.9551">-numberBathrooms: Int</text><text fill="#000000" font-family="sans-serif" font-size="14" lengthAdjust="spacing" textLength="171" x="491" y="1521.5957">-numberParkingSpaces: Int</text><text fill="#000000" font-family="sans-serif" font-size="14" lengthAdjust="spacing" textLength="181" x="491" y="1537.2363">-hasCentralHeating: boolean</text><text fill="#000000" font-family="sans-serif" font-size="14" lengthAdjust="spacing" textLength="183" x="491" y="1552.877">-hasAirConditioning: boolean</text><line style="stroke:#181818;stroke-width:0.5;" x1="486" x2="1281" y1="1559.8438" y2="1559.8438"/><text fill="#000000" font-family="sans-serif" font-size="14" lengthAdjust="spacing" textLength="785" x="491" y="1576.5176">+Residence(property, numberBedrooms, numberBathrooms, numberParkingSpaces, hasCentralHeating, hasAirConditioning)</text><text fill="#000000" font-family="sans-serif" font-size="14" lengthAdjust="spacing" textLength="409" x="491" y="1592.1582">+Residence(property, numberBedrooms, numberParkingSpaces)</text><text fill="#000000" font-family="sans-serif" font-size="14" lengthAdjust="spacing" textLength="92" x="491" y="1607.7988">+getProperty()</text><text fill="#000000" font-family="sans-serif" font-size="14" lengthAdjust="spacing" textLength="151" x="491" y="1623.4395">+getNumberBedrooms()</text><text fill="#000000" font-family="sans-serif" font-size="14" lengthAdjust="spacing" textLength="155" x="491" y="1639.0801">+getNumberBathrooms()</text><text fill="#000000" font-family="sans-serif" font-size="14" lengthAdjust="spacing" textLength="182" x="491" y="1654.7207">+getNumberParkingSpaces()</text></g><!--class House--><g id="elem_House"><rect codeLine="124" fill="#F1F1F1" height="188.7656" id="House" rx="2.5" ry="2.5" style="stroke:#181818;stroke-width:0.5;" width="443" x="7" y="1449.5"/><ellipse cx="204.25" cy="1465.5" fill="#ADD1B2" rx="11" ry="11" style="stroke:#181818;stroke-width:1.0;"/><path d="M207.0156,1461.375 Q207.1719,1461.1563 207.3594,1461.0469 Q207.5469,1460.9375 207.7656,1460.9375 Q208.1406,1460.9375 208.375,1461.2031 Q208.6094,1461.4531 208.6094,1462.0625 L208.6094,1463.5156 Q208.6094,1464.125 208.375,1464.3906 Q208.1406,1464.6563 207.7656,1464.6563 Q207.4219,1464.6563 207.2188,1464.4531 Q207.0156,1464.2656 206.9063,1463.75 Q206.8594,1463.3906 206.6719,1463.2031 Q206.3438,1462.8281 205.7344,1462.6094 Q205.125,1462.3906 204.5,1462.3906 Q203.7344,1462.3906 203.0938,1462.7188 Q202.4688,1463.0469 201.9688,1463.7969 Q201.4844,1464.5469 201.4844,1465.5781 L201.4844,1466.6719 Q201.4844,1467.9063 202.375,1468.7344 Q203.2656,1469.5469 204.8594,1469.5469 Q205.7969,1469.5469 206.4531,1469.2969 Q206.8438,1469.1406 207.2656,1468.7031 Q207.5313,1468.4375 207.6719,1468.3594 Q207.8281,1468.2813 208.0313,1468.2813 Q208.3594,1468.2813 208.6094,1468.5469 Q208.875,1468.7969 208.875,1469.1406 Q208.875,1469.4844 208.5313,1469.8906 Q208.0313,1470.4688 207.2344,1470.7969 Q206.1563,1471.25 204.8594,1471.25 Q203.3438,1471.25 202.1406,1470.625 Q201.1563,1470.125 200.4688,1469.0625 Q199.7813,1467.9844 199.7813,1466.7031 L199.7813,1465.5469 Q199.7813,1464.2188 200.3906,1463.0781 Q201.0156,1461.9219 202.1094,1461.3125 Q203.2031,1460.6875 204.4375,1460.6875 Q205.1719,1460.6875 205.8125,1460.8594 Q206.4688,1461.0156 207.0156,1461.375 Z " fill="#000000"/><text fill="#000000" font-family="sans-serif" font-size="14" lengthAdjust="spacing" textLength="40" x="224.75" y="1470.3535">House</text><line style="stroke:#181818;stroke-width:0.5;" x1="8" x2="449" y1="1481.5" y2="1481.5"/><text fill="#000000" font-family="sans-serif" font-size="14" lengthAdjust="spacing" textLength="142" x="13" y="1498.1738">-residence: Residence</text><text fill="#000000" font-family="sans-serif" font-size="14" lengthAdjust="spacing" textLength="186" x="13" y="1513.8145">-existenceBasement: boolean</text><text fill="#000000" font-family="sans-serif" font-size="14" lengthAdjust="spacing" textLength="147" x="13" y="1529.4551">-existenceLoft: boolean</text><text fill="#000000" font-family="sans-serif" font-size="14" lengthAdjust="spacing" textLength="132" x="13" y="1545.0957">-sunExposure: String</text><line style="stroke:#181818;stroke-width:0.5;" x1="8" x2="449" y1="1552.0625" y2="1552.0625"/><text fill="#000000" font-family="sans-serif" font-size="14" lengthAdjust="spacing" textLength="431" x="13" y="1568.7363">+House(residence, existenceBasement, existenceLoft, sunExposure)</text><text fill="#000000" font-family="sans-serif" font-size="14" lengthAdjust="spacing" textLength="105" x="13" y="1584.377">+getResidence()</text><text fill="#000000" font-family="sans-serif" font-size="14" lengthAdjust="spacing" textLength="151" x="13" y="1600.0176">+isExistenceBasement()</text><text fill="#000000" font-family="sans-serif" font-size="14" lengthAdjust="spacing" textLength="112" x="13" y="1615.6582">+isExistenceLoft()</text><text fill="#000000" font-family="sans-serif" font-size="14" lengthAdjust="spacing" textLength="122" x="13" y="1631.2988">+getSunExposure()</text></g><!--class Address--><g id="elem_Address"><rect codeLine="136" fill="#F1F1F1" height="188.7656" id="Address" rx="2.5" ry="2.5" style="stroke:#181818;stroke-width:0.5;" width="327" x="1278" y="739"/><ellipse cx="1411.25" cy="755" fill="#ADD1B2" rx="11" ry="11" style="stroke:#181818;stroke-width:1.0;"/><path d="M1414.0156,750.875 Q1414.1719,750.6563 1414.3594,750.5469 Q1414.5469,750.4375 1414.7656,750.4375 Q1415.1406,750.4375 1415.375,750.7031 Q1415.6094,750.9531 1415.6094,751.5625 L1415.6094,753.0156 Q1415.6094,753.625 1415.375,753.8906 Q1415.1406,754.1563 1414.7656,754.1563 Q1414.4219,754.1563 1414.2188,753.9531 Q1414.0156,753.7656 1413.9063,753.25 Q1413.8594,752.8906 1413.6719,752.7031 Q1413.3438,752.3281 1412.7344,752.1094 Q1412.125,751.8906 1411.5,751.8906 Q1410.7344,751.8906 1410.0938,752.2188 Q1409.4688,752.5469 1408.9688,753.2969 Q1408.4844,754.0469 1408.4844,755.0781 L1408.4844,756.1719 Q1408.4844,757.4063 1409.375,758.2344 Q1410.2656,759.0469 1411.8594,759.0469 Q1412.7969,759.0469 1413.4531,758.7969 Q1413.8438,758.6406 1414.2656,758.2031 Q1414.5313,757.9375 1414.6719,757.8594 Q1414.8281,757.7813 1415.0313,757.7813 Q1415.3594,757.7813 1415.6094,758.0469 Q1415.875,758.2969 1415.875,758.6406 Q1415.875,758.9844 1415.5313,759.3906 Q1415.0313,759.9688 1414.2344,760.2969 Q1413.1563,760.75 1411.8594,760.75 Q1410.3438,760.75 1409.1406,760.125 Q1408.1563,759.625 1407.4688,758.5625 Q1406.7813,757.4844 1406.7813,756.2031 L1406.7813,755.0469 Q1406.7813,753.7188 1407.3906,752.5781 Q1408.0156,751.4219 1409.1094,750.8125 Q1410.2031,750.1875 1411.4375,750.1875 Q1412.1719,750.1875 1412.8125,750.3594 Q1413.4688,750.5156 1414.0156,750.875 Z " fill="#000000"/><text fill="#000000" font-family="sans-serif" font-size="14" lengthAdjust="spacing" textLength="52" x="1431.75" y="759.8535">Address</text><line style="stroke:#181818;stroke-width:0.5;" x1="1279" x2="1604" y1="771" y2="771"/><text fill="#000000" font-family="sans-serif" font-size="14" lengthAdjust="spacing" textLength="122" x="1284" y="787.6738">-streetName: String</text><text fill="#000000" font-family="sans-serif" font-size="14" lengthAdjust="spacing" textLength="107" x="1284" y="803.3145">-cityName: String</text><text fill="#000000" font-family="sans-serif" font-size="14" lengthAdjust="spacing" textLength="101" x="1284" y="818.9551">-zipCode: String</text><text fill="#000000" font-family="sans-serif" font-size="14" lengthAdjust="spacing" textLength="91" x="1284" y="834.5957">-district: String</text><line style="stroke:#181818;stroke-width:0.5;" x1="1279" x2="1604" y1="841.5625" y2="841.5625"/><text fill="#000000" font-family="sans-serif" font-size="14" lengthAdjust="spacing" textLength="315" x="1284" y="858.2363">+Address(streetName, cityName, zipCode, district)</text><text fill="#000000" font-family="sans-serif" font-size="14" lengthAdjust="spacing" textLength="112" x="1284" y="873.877">+getStreetName()</text><text fill="#000000" font-family="sans-serif" font-size="14" lengthAdjust="spacing" textLength="98" x="1284" y="889.5176">+getCityName()</text><text fill="#000000" font-family="sans-serif" font-size="14" lengthAdjust="spacing" textLength="91" x="1284" y="905.1582">+getZipCode()</text><text fill="#000000" font-family="sans-serif" font-size="14" lengthAdjust="spacing" textLength="81" x="1284" y="920.7988">+getDistrict()</text></g><!--class Employee--><g id="elem_Employee"><rect codeLine="148" fill="#F1F1F1" height="126.2031" id="Employee" rx="2.5" ry="2.5" style="stroke:#181818;stroke-width:0.5;" width="250" x="625.5" y="1192"/><ellipse cx="715.25" cy="1208" fill="#ADD1B2" rx="11" ry="11" style="stroke:#181818;stroke-width:1.0;"/><path d="M718.0156,1203.875 Q718.1719,1203.6563 718.3594,1203.5469 Q718.5469,1203.4375 718.7656,1203.4375 Q719.1406,1203.4375 719.375,1203.7031 Q719.6094,1203.9531 719.6094,1204.5625 L719.6094,1206.0156 Q719.6094,1206.625 719.375,1206.8906 Q719.1406,1207.1563 718.7656,1207.1563 Q718.4219,1207.1563 718.2188,1206.9531 Q718.0156,1206.7656 717.9063,1206.25 Q717.8594,1205.8906 717.6719,1205.7031 Q717.3438,1205.3281 716.7344,1205.1094 Q716.125,1204.8906 715.5,1204.8906 Q714.7344,1204.8906 714.0938,1205.2188 Q713.4688,1205.5469 712.9688,1206.2969 Q712.4844,1207.0469 712.4844,1208.0781 L712.4844,1209.1719 Q712.4844,1210.4063 713.375,1211.2344 Q714.2656,1212.0469 715.8594,1212.0469 Q716.7969,1212.0469 717.4531,1211.7969 Q717.8438,1211.6406 718.2656,1211.2031 Q718.5313,1210.9375 718.6719,1210.8594 Q718.8281,1210.7813 719.0313,1210.7813 Q719.3594,1210.7813 719.6094,1211.0469 Q719.875,1211.2969 719.875,1211.6406 Q719.875,1211.9844 719.5313,1212.3906 Q719.0313,1212.9688 718.2344,1213.2969 Q717.1563,1213.75 715.8594,1213.75 Q714.3438,1213.75 713.1406,1213.125 Q712.1563,1212.625 711.4688,1211.5625 Q710.7813,1210.4844 710.7813,1209.2031 L710.7813,1208.0469 Q710.7813,1206.7188 711.3906,1205.5781 Q712.0156,1204.4219 713.1094,1203.8125 Q714.2031,1203.1875 715.4375,1203.1875 Q716.1719,1203.1875 716.8125,1203.3594 Q717.4688,1203.5156 718.0156,1203.875 Z " fill="#000000"/><text fill="#000000" font-family="sans-serif" font-size="14" lengthAdjust="spacing" textLength="62" x="735.75" y="1212.8535">Employee</text><line style="stroke:#181818;stroke-width:0.5;" x1="626.5" x2="874.5" y1="1224" y2="1224"/><text fill="#000000" font-family="sans-serif" font-size="14" lengthAdjust="spacing" textLength="102" x="631.5" y="1240.6738">-person: Person</text><text fill="#000000" font-family="sans-serif" font-size="14" lengthAdjust="spacing" textLength="228" x="631.5" y="1256.3145">-organizationRole: OrganizationRole</text><line style="stroke:#181818;stroke-width:0.5;" x1="626.5" x2="874.5" y1="1263.2813" y2="1263.2813"/><text fill="#000000" font-family="sans-serif" font-size="14" lengthAdjust="spacing" textLength="238" x="631.5" y="1279.9551">+Employee(person, organizationRole)</text><text fill="#000000" font-family="sans-serif" font-size="14" lengthAdjust="spacing" textLength="83" x="631.5" y="1295.5957">+getPerson()</text><text fill="#000000" font-family="sans-serif" font-size="14" lengthAdjust="spacing" textLength="147" x="631.5" y="1311.2363">+getOrganizationRole()</text></g><!--class PublishUI--><g id="elem_PublishUI"><rect codeLine="156" fill="#F1F1F1" height="48" id="PublishUI" rx="2.5" ry="2.5" style="stroke:#181818;stroke-width:0.5;" width="90" x="677.5" y="46"/><ellipse cx="692.5" cy="62" fill="#ADD1B2" rx="11" ry="11" style="stroke:#181818;stroke-width:1.0;"/><path d="M695.2656,57.875 Q695.4219,57.6563 695.6094,57.5469 Q695.7969,57.4375 696.0156,57.4375 Q696.3906,57.4375 696.625,57.7031 Q696.8594,57.9531 696.8594,58.5625 L696.8594,60.0156 Q696.8594,60.625 696.625,60.8906 Q696.3906,61.1563 696.0156,61.1563 Q695.6719,61.1563 695.4688,60.9531 Q695.2656,60.7656 695.1563,60.25 Q695.1094,59.8906 694.9219,59.7031 Q694.5938,59.3281 693.9844,59.1094 Q693.375,58.8906 692.75,58.8906 Q691.9844,58.8906 691.3438,59.2188 Q690.7188,59.5469 690.2188,60.2969 Q689.7344,61.0469 689.7344,62.0781 L689.7344,63.1719 Q689.7344,64.4063 690.625,65.2344 Q691.5156,66.0469 693.1094,66.0469 Q694.0469,66.0469 694.7031,65.7969 Q695.0938,65.6406 695.5156,65.2031 Q695.7813,64.9375 695.9219,64.8594 Q696.0781,64.7813 696.2813,64.7813 Q696.6094,64.7813 696.8594,65.0469 Q697.125,65.2969 697.125,65.6406 Q697.125,65.9844 696.7813,66.3906 Q696.2813,66.9688 695.4844,67.2969 Q694.4063,67.75 693.1094,67.75 Q691.5938,67.75 690.3906,67.125 Q689.4063,66.625 688.7188,65.5625 Q688.0313,64.4844 688.0313,63.2031 L688.0313,62.0469 Q688.0313,60.7188 688.6406,59.5781 Q689.2656,58.4219 690.3594,57.8125 Q691.4531,57.1875 692.6875,57.1875 Q693.4219,57.1875 694.0625,57.3594 Q694.7188,57.5156 695.2656,57.875 Z " fill="#000000"/><text fill="#000000" font-family="sans-serif" font-size="14" lengthAdjust="spacing" textLength="58" x="706.5" y="66.8535">PublishUI</text><line style="stroke:#181818;stroke-width:0.5;" x1="678.5" x2="766.5" y1="78" y2="78"/><line style="stroke:#181818;stroke-width:0.5;" x1="678.5" x2="766.5" y1="86" y2="86"/></g><!--link Repositories to Repositories--><g id="link_Repositories_Repositories"><path codeLine="159" d="M1322.76,52.08 C1343.08,54.16 1357.5,60.14 1357.5,70 C1357.5,79.02 1345.45,84.78 1327.86,87.29 " fill="none" id="Repositories-to-Repositories" style="stroke:#181818;stroke-width:1.0;"/><polygon fill="#181818" points="1322.76,87.92,1332.1744,90.8128,1327.724,87.3209,1331.2159,82.8704,1322.76,87.92" style="stroke:#181818;stroke-width:1.0;"/><text fill="#000000" font-family="sans-serif" font-size="13" lengthAdjust="spacing" textLength="49" x="1363.5" y="74.7686">instance</text></g><!--link PublishUI to PublishController--><g id="link_PublishUI_PublishController"><path codeLine="161" d="M767.72,70 C776.91,70 783.83,70 783.83,70 C783.83,70 789.38,70 797.15,70 " fill="none" id="PublishUI-to-PublishController" style="stroke:#181818;stroke-width:1.0;stroke-dasharray:7.0,7.0;"/><polygon fill="#181818" points="802.24,70,793.24,66,797.24,70,793.24,74,802.24,70" style="stroke:#181818;stroke-width:1.0;"/></g><!--link PublishController to Repositories--><g id="link_PublishController_Repositories"><path codeLine="163" d="M1010.83,70 C1042.44,70 1077.24,70 1109.17,70 " fill="none" id="PublishController-to-Repositories" style="stroke:#181818;stroke-width:1.0;stroke-dasharray:7.0,7.0;"/><polygon fill="#181818" points="1114.27,70,1105.27,66,1109.27,70,1105.27,74,1114.27,70" style="stroke:#181818;stroke-width:1.0;"/><text fill="#000000" font-family="sans-serif" font-size="13" lengthAdjust="spacing" textLength="67" x="1029" y="63.7686">repositories</text></g><!--link Repositories to AdvertisementRepository--><g id="link_Repositories_AdvertisementRepository"><path codeLine="165" d="M1114.5,123.73 C1060.43,151.15 1005.5,179 1005.5,179 C1005.5,179 967.34,191.54 919.2,207.36 " fill="none" id="Repositories-to-AdvertisementRepository" style="stroke:#181818;stroke-width:1.0;"/><polygon fill="#181818" points="914.2,209,923.9978,210.0018,918.9519,207.4446,921.5091,202.3987,914.2,209" style="stroke:#181818;stroke-width:1.0;"/><text fill="#000000" font-family="sans-serif" font-size="13" lengthAdjust="spacing" textLength="7" x="929.7713" y="198.2568">1</text></g><!--link Repositories to AddressRepository--><g id="link_Repositories_AddressRepository"><path codeLine="166" d="M1309.29,133.18 C1355,164.5 1409.18,201.61 1449.8,229.43 " fill="none" id="Repositories-to-AddressRepository" style="stroke:#181818;stroke-width:1.0;"/><polygon fill="#181818" points="1454.19,232.43,1449.0262,224.0434,1450.0652,229.604,1444.5046,230.6431,1454.19,232.43" style="stroke:#181818;stroke-width:1.0;"/><text fill="#000000" font-family="sans-serif" font-size="13" lengthAdjust="spacing" textLength="7" x="1436.1625" y="221.6345">1</text></g><!--link Repositories to ClientRepository--><g id="link_Repositories_ClientRepository"><path codeLine="167" d="M1207.62,133.18 C1202.27,163.73 1195.96,199.81 1191.13,227.38 " fill="none" id="Repositories-to-ClientRepository" style="stroke:#181818;stroke-width:1.0;"/><polygon fill="#181818" points="1190.25,232.43,1195.7559,224.2639,1191.1206,227.5064,1187.8781,222.871,1190.25,232.43" style="stroke:#181818;stroke-width:1.0;"/><text fill="#000000" font-family="sans-serif" font-size="13" lengthAdjust="spacing" textLength="7" x="1183.8492" y="221.6345">1</text></g><!--link AdvertisementRepository to Advertisement--><g id="link_AdvertisementRepository_Advertisement"><path codeLine="169" d="M730.92,335.06 C732.77,356.16 734.92,380.76 737.11,405.79 " fill="none" id="AdvertisementRepository-to-Advertisement" style="stroke:#181818;stroke-width:1.0;"/><polygon fill="#181818" points="737.55,410.8,740.7622,401.4897,737.1206,405.8185,732.7918,402.1768,737.55,410.8" style="stroke:#181818;stroke-width:1.0;"/><text fill="#000000" font-family="sans-serif" font-size="13" lengthAdjust="spacing" textLength="80" x="735.5" y="377.7686">advertisement</text><text fill="#000000" font-family="sans-serif" font-size="13" lengthAdjust="spacing" textLength="5" x="731.7051" y="400.0338">*</text></g><!--link PublishController to AdvertisementRepository--><g id="link_PublishController_AdvertisementRepository"><path codeLine="171" d="M802.24,123.98 C791.54,129.42 784.5,133 784.5,133 C784.5,133 722.5,163 722.5,163 C722.5,163 722.5,179 722.5,179 C722.5,179 722.85,189.59 723.3,203.57 " fill="none" id="PublishController-to-AdvertisementRepository" style="stroke:#181818;stroke-width:1.0;stroke-dasharray:7.0,7.0;"/><polygon fill="#181818" points="723.47,208.87,727.1853,199.7488,723.3129,203.8725,719.1893,200.0001,723.47,208.87" style="stroke:#181818;stroke-width:1.0;"/><text fill="#000000" font-family="sans-serif" font-size="13" lengthAdjust="spacing" textLength="142" x="723.5" y="175.7686">advertisementRepository</text></g><!--link PublishController to AddressRepository--><g id="link_PublishController_AddressRepository"><path codeLine="172" d="M1010.68,105.5 C1115.84,140.32 1278.14,194.06 1389.07,230.79 " fill="none" id="PublishController-to-AddressRepository" style="stroke:#181818;stroke-width:1.0;stroke-dasharray:7.0,7.0;"/><polygon fill="#181818" points="1393.98,232.42,1386.6948,225.7924,1389.2337,230.8474,1384.1787,233.3864,1393.98,232.42" style="stroke:#181818;stroke-width:1.0;"/><text fill="#000000" font-family="sans-serif" font-size="13" lengthAdjust="spacing" textLength="108" x="1227.5" y="175.7686">addressRepository</text></g><!--link PublishController to ClientRepository--><g id="link_PublishController_ClientRepository"><path codeLine="173" d="M927.24,125.63 C937.41,152.42 947.5,179 947.5,179 C947.5,179 1061.5,209 1061.5,209 C1061.5,209 1080.23,218.52 1103.02,230.1 " fill="none" id="PublishController-to-ClientRepository" style="stroke:#181818;stroke-width:1.0;stroke-dasharray:7.0,7.0;"/><polygon fill="#181818" points="1107.62,232.44,1101.4174,224.7896,1103.1651,230.1697,1097.785,231.9174,1107.62,232.44" style="stroke:#181818;stroke-width:1.0;"/><text fill="#000000" font-family="sans-serif" font-size="13" lengthAdjust="spacing" textLength="93" x="948.5" y="175.7686">clientRepository</text></g><!--link PublishController to Advertisement--><g id="link_PublishController_Advertisement"><path codeLine="175" d="M802.24,123.98 C791.54,129.42 784.5,133 784.5,133 C784.5,133 307.5,209 307.5,209 C307.5,209 307.5,335 307.5,335 C307.5,335 516.98,440.92 647.84,507.09 " fill="none" id="PublishController-to-Advertisement" style="stroke:#181818;stroke-width:1.0;stroke-dasharray:7.0,7.0;"/><polygon fill="#181818" points="652.46,509.43,646.238,501.7954,647.9994,507.1711,642.6237,508.9325,652.46,509.43" style="stroke:#181818;stroke-width:1.0;"/><text fill="#000000" font-family="sans-serif" font-size="13" lengthAdjust="spacing" textLength="80" x="308.5" y="276.7686">advertisement</text></g><!--link ClientRepository to Client--><g id="link_ClientRepository_Client"><path codeLine="177" d="M1183.34,311.72 C1182.85,433.02 1181.34,806.27 1180.74,952.68 " fill="none" id="ClientRepository-to-Client" style="stroke:#181818;stroke-width:1.0;"/><polygon fill="#181818" points="1180.72,957.8,1184.7457,948.8115,1180.7343,952.8,1176.7457,948.7886,1180.72,957.8" style="stroke:#181818;stroke-width:1.0;"/><text fill="#000000" font-family="sans-serif" font-size="13" lengthAdjust="spacing" textLength="31" x="1183.5" y="564.7686">client</text><text fill="#000000" font-family="sans-serif" font-size="13" lengthAdjust="spacing" textLength="5" x="1175.4136" y="947.2078">*</text></g><!--link Advertisement to RequestType--><g id="link_Advertisement_RequestType"><path codeLine="179" d="M815.8,709.15 C855.7,799.68 903.95,909.16 930.2,968.71 " fill="none" id="Advertisement-to-RequestType" style="stroke:#181818;stroke-width:1.0;"/><polygon fill="#181818" points="932.36,973.61,932.3915,963.7612,930.3439,969.0345,925.0706,966.9869,932.36,973.61" style="stroke:#181818;stroke-width:1.0;"/><text fill="#000000" font-family="sans-serif" font-size="13" lengthAdjust="spacing" textLength="50" x="911.5" y="838.2686">requests</text><text fill="#000000" font-family="sans-serif" font-size="13" lengthAdjust="spacing" textLength="5" x="923.9844" y="963.3401">*</text></g><!--link Advertisement to Client--><g id="link_Advertisement_Client"><path codeLine="180" d="M848.6,640.37 C907.26,687.84 970.5,739 970.5,739 C970.5,739 1073.51,873.15 1135.24,953.55 " fill="none" id="Advertisement-to-Client" style="stroke:#181818;stroke-width:1.0;"/><polygon fill="#181818" points="1138.51,957.81,1136.2114,948.2331,1135.469,953.841,1129.8611,953.0987,1138.51,957.81" style="stroke:#181818;stroke-width:1.0;"/><text fill="#000000" font-family="sans-serif" font-size="13" lengthAdjust="spacing" textLength="31" x="1113.5" y="838.2686">client</text><text fill="#000000" font-family="sans-serif" font-size="13" lengthAdjust="spacing" textLength="7" x="1125.3973" y="947.2191">1</text></g><!--link Advertisement to Agent--><g id="link_Advertisement_Agent"><path codeLine="181" d="M750.5,709.15 C750.5,795.8 750.5,899.82 750.5,960.79 " fill="none" id="Advertisement-to-Agent" style="stroke:#181818;stroke-width:1.0;"/><polygon fill="#181818" points="750.5,965.83,754.5,956.83,750.5,960.83,746.5,956.83,750.5,965.83" style="stroke:#181818;stroke-width:1.0;"/><text fill="#000000" font-family="sans-serif" font-size="13" lengthAdjust="spacing" textLength="59" x="751.5" y="838.2686">createdBy</text><text fill="#000000" font-family="sans-serif" font-size="13" lengthAdjust="spacing" textLength="7" x="742.9641" y="955.2733">1</text></g><!--link Agent to Employee--><g id="link_Agent_Employee"><path codeLine="183" d="M750.5,1061.25 C750.5,1092.65 750.5,1134.87 750.5,1171.8 " fill="none" id="Agent-to-Employee" style="stroke:#181818;stroke-width:1.0;"/><polygon fill="none" points="757.5,1171.95,750.5,1191.95,743.5,1171.95,757.5,1171.95" style="stroke:#181818;stroke-width:1.0;"/></g><!--link RequestType to Property--><g id="link_RequestType_Property"><path codeLine="185" d="M999.65,1053.25 C1031.03,1077.49 1073.19,1110.06 1114.42,1141.91 " fill="none" id="RequestType-to-Property" style="stroke:#181818;stroke-width:1.0;"/><polygon fill="#181818" points="1118.4,1144.99,1113.7233,1136.3223,1114.4433,1141.9332,1108.8324,1142.6531,1118.4,1144.99" style="stroke:#181818;stroke-width:1.0;"/><text fill="#000000" font-family="sans-serif" font-size="13" lengthAdjust="spacing" textLength="21" x="1077.5" y="1111.7686">has</text><text fill="#000000" font-family="sans-serif" font-size="13" lengthAdjust="spacing" textLength="7" x="1000.668" y="1073.0745">1</text><text fill="#000000" font-family="sans-serif" font-size="13" lengthAdjust="spacing" textLength="7" x="1100.7809" y="1134.1831">1</text></g><!--reverse link Address to Property--><g id="link_Address_Property"><path codeLine="187" d="M1398.75,933.05 C1371.19,996.55 1335.34,1079.19 1306.92,1144.71 " fill="none" id="Address-backto-Property" style="stroke:#181818;stroke-width:1.0;"/><polygon fill="#181818" points="1400.88,928.12,1393.6156,934.7705,1398.8812,932.7031,1400.9485,937.9686,1400.88,928.12" style="stroke:#181818;stroke-width:1.0;"/><text fill="#000000" font-family="sans-serif" font-size="13" lengthAdjust="spacing" textLength="57" x="1385.5" y="1018.2686">located at</text><text fill="#000000" font-family="sans-serif" font-size="13" lengthAdjust="spacing" textLength="7" x="1390.6399" y="947.3791">1</text><text fill="#000000" font-family="sans-serif" font-size="13" lengthAdjust="spacing" textLength="5" x="1305.0784" y="1134.2484">*</text></g><!--reverse link Property to Residence--><g id="link_Property_Residence"><path codeLine="189" d="M1100.53,1377.34 C1079.44,1393.44 1057.85,1409.92 1036.86,1425.94 " fill="none" id="Property-backto-Residence" style="stroke:#181818;stroke-width:1.0;"/><polygon fill="none" points="1096.4,1371.69,1116.55,1365.12,1104.9,1382.82,1096.4,1371.69" style="stroke:#181818;stroke-width:1.0;"/></g><!--reverse link Property to PropertyType--><g id="link_Property_PropertyType"><path codeLine="190" d="M1321.3,1383.6 C1342.52,1427.41 1364.71,1473.23 1379.82,1504.44 " fill="none" id="Property-backto-PropertyType" style="stroke:#181818;stroke-width:1.0;"/><polygon fill="none" points="1314.86,1386.37,1312.45,1365.32,1327.46,1380.27,1314.86,1386.37" style="stroke:#181818;stroke-width:1.0;"/></g><!--link Residence to AvailableEquipment--><g id="link_Residence_AvailableEquipment"><path codeLine="192" d="M883.5,1662.05 C883.5,1686.29 883.5,1711.04 883.5,1732.76 " fill="none" id="Residence-to-AvailableEquipment" style="stroke:#181818;stroke-width:1.0;"/><polygon fill="#181818" points="883.5,1737.93,887.5,1728.93,883.5,1732.93,879.5,1728.93,883.5,1737.93" style="stroke:#181818;stroke-width:1.0;"/><text fill="#000000" font-family="sans-serif" font-size="13" lengthAdjust="spacing" textLength="21" x="884.5" y="1704.7686">has</text><text fill="#000000" font-family="sans-serif" font-size="13" lengthAdjust="spacing" textLength="7" x="876.2867" y="1681.4643">1</text><text fill="#000000" font-family="sans-serif" font-size="13" lengthAdjust="spacing" textLength="5" x="878.1953" y="1727.1783">*</text></g><!--link AddressRepository to Address--><g id="link_AddressRepository_Address"><path codeLine="194" d="M1505.7,311.9 C1495.05,398.3 1469.13,608.45 1453.68,733.74 " fill="none" id="AddressRepository-to-Address" style="stroke:#181818;stroke-width:1.0;"/><polygon fill="#181818" points="1453.04,738.9,1458.0925,730.4459,1453.6408,733.9362,1450.1504,729.4846,1453.04,738.9" style="stroke:#181818;stroke-width:1.0;"/><text fill="#000000" font-family="sans-serif" font-size="13" lengthAdjust="spacing" textLength="46" x="1498.5" y="377.7686">address</text><text fill="#000000" font-family="sans-serif" font-size="13" lengthAdjust="spacing" textLength="5" x="1448.7886" y="728.2862">*</text></g><!--link House to Residence--><g id="link_House_Residence"><path codeLine="196" d="M450.26,1544 C453.32,1544 458.3,1544 464.75,1544 " fill="none" id="House-to-Residence" style="stroke:#181818;stroke-width:1.0;"/><polygon fill="none" points="464.93,1537,484.93,1544,464.93,1551,464.93,1537" style="stroke:#181818;stroke-width:1.0;"/></g><!--SRC=[dLTBRzms4BxhLn2vMExAGNCL30FhjGiR21B3RYyjUg0bMaj44XMIwsJTzBztkE9ZI6gT9djPYlFwE3ES6PweJtoSgAG36SGecgqK0oDQxbWHA1DjFj6EFUXzpuXaZQPZrsC6jQMj-CB7ZZpHNc5ApqUcznCZa-ZtvgCuMI0AgKM1f9gUAhNMMlB7dMQtZHWV-0iZlnR5IS-UDD62IDvjDMcvWSF5M1G76R9kdvdKNB61ZVgUJK9nBUIU_5CG-9qHYkcg9k-vqkUHqCM1SqKwfgDzLPvQoZFjUKirYyXbfDcnqhRz7roDP9cwfkVmLv59YWcszs7rEtYiWZ1ytZ6bvmy2S6X56Z4CN2bm1t1lXHQTfDFsjFZNUMTpKBhWbjcQSOProSo9V35lNEwl1yhxKdmPcJmiaVPr1nnU9HkcNkmPgycrNLbb1xRIaK-32STNPeYzqc2t9W-G7cDd2U0P9SQQt1t-hSvPk9nfFYJZ_gFHSaFLQsTvXc_wsBFhppi-3HW3vN8ZnfQRj0C0DRaTjNCZy4dQtq0u8yfgGL-PwAaIQUIOTSnP8j8cai6UMxUjP4fbmLv1wdGGOYOjHwcqP4n_e0DaKiFrVbwzy6aZMbYqm2nv4-VqB4dd_yWgIk8alMeR41SocyyGDBjA22Qt0z5yMGQK-pMv3n_-ZXzGrSu5TjjSsIHhmeK1R7xjOFWR123yEhqHE1WEwjAUmQSm0U5MkEJCdiKXzi3mxXMS9hBZ4U8ayD7dJFbeu4siudPKKDaRK4lgY2c35v8g0ffK5qmxKfSnrhlTOy_L5Z9TIz7tJFg4pIYnvbSW7JVx6chiFnyaxpwKVShbqrz_BmSsEf_DX518eEpNv4h0wPXFVTwmPC_SFnEMtw0rRxYvBx683pmgtpEgYzSknCe3AWsGQhPTPUPmAwc8l_71nI0S9pnleioyIXGUpTg5Iv0vBue4BXIBeKWl7ughuYq3K9ckh1gDk-6HoKlMIY46XQkzfL2zFKAwen96cku1vYSMaRTKRP9MyIX4p-WO6DPfcy4Sgt22Cam8CTGg1LWjmQfoCDM2-TCVDXjP-KwH_11fMA2u8-Iao0mEyOtOANnfBUuw7C4DAbzDDuJlIphNYJGOdk6zUCg8QZTUVuNQiPDnSrdD04flkCeDLR7g2YkBEeNpkTlawZhLjKGpIh777eBwXKd1-ohC0scxjCD1icqdXMJNZGs9Ltvow33elKHKlgqitljprf8M8QCFdzlDcw46v4CaZ9ooeoD_eUOYt4FaQ_8nsR5M_FWwgwaoINm93YmOOAfqeJF-SGj8OJDgwcSNSPEl2RTjl2Y2tDkBl8bwEkguRpDj4iy1YMcm_URTcsDlhcFCIRjUPakxSb4SUzaT97v9KDJnG-_8KO-fJAGHYYDgqacxTdtoUwBPWwosip8- -O9a2fva1yuqEp_P5vKpb3ZMi-79ftOpZrfYVfVhNEQQtuUrVUwsboQetSpmxIAy4WjisiWvUJz0rQP16U1ptJAqyxC3QiJIYyPO8TH4tssVVpixGmqWtezU6aKO4Jm6asNvkp16ivYPTlooIL4KSsyofmvO_WC0]--></g></svg>