<?xml version="1.0" encoding="us-ascii" standalone="no"?><svg xmlns="http://www.w3.org/2000/svg" xmlns:xlink="http://www.w3.org/1999/xlink" contentStyleType="text/css" height="1556px" preserveAspectRatio="none" style="width:1959px;height:1556px;background:#FFFFFF;" version="1.1" viewBox="0 0 1959 1556" width="1959px" zoomAndPan="magnify"><defs/><g><rect fill="#FFFFFF" height="1367.4766" style="stroke:#181818;stroke-width:1.0;" width="10" x="75" y="90.6406"/><rect fill="#FFFFFF" height="83.6875" style="stroke:#181818;stroke-width:1.0;" width="10" x="469" y="111.1641"/><rect fill="#FFFFFF" height="52.0469" style="stroke:#181818;stroke-width:1.0;" width="10" x="469" y="223.375"/><rect fill="#FFFFFF" height="35.5234" style="stroke:#181818;stroke-width:1.0;" width="10" x="469" y="303.9453"/><rect fill="#FFFFFF" height="1099.125" style="stroke:#181818;stroke-width:1.0;" width="10" x="469" y="367.9922"/><rect fill="#FFFFFF" height="980.5078" style="stroke:#181818;stroke-width:1.0;" width="10" x="881" y="449.0859"/><rect fill="#FFFFFF" height="28.5234" style="stroke:#181818;stroke-width:1.0;" width="10" x="1031.5" y="477.6094"/><rect fill="#FFFFFF" height="28.5234" style="stroke:#181818;stroke-width:1.0;" width="10" x="1031.5" y="871.125"/><rect fill="#FFFFFF" height="28.5234" style="stroke:#181818;stroke-width:1.0;" width="10" x="1138.5" y="534.6563"/><rect fill="#FFFFFF" height="28.5234" style="stroke:#181818;stroke-width:1.0;" width="10" x="1138.5" y="928.1719"/><rect fill="#FFFFFF" height="250.8984" style="stroke:#181818;stroke-width:1.0;" width="10" x="1296" y="591.7031"/><rect fill="#FFFFFF" height="401.3281" style="stroke:#181818;stroke-width:1.0;" width="10" x="1461" y="999.7422"/><rect fill="#FFFFFF" height="146.6641" style="stroke:#181818;stroke-width:1.0;" width="10" x="1902.5" y="1052.7891"/><rect fill="none" height="73.5703" style="stroke:#000000;stroke-width:1.5;" width="541" x="10" y="238.375"/><rect fill="none" height="824.4609" style="stroke:#000000;stroke-width:1.5;" width="1555" x="397" y="382.9922"/><line style="stroke:#181818;stroke-width:0.5;stroke-dasharray:5.0,5.0;" x1="80" x2="80" y1="80.6406" y2="1476.1172"/><line style="stroke:#181818;stroke-width:0.5;stroke-dasharray:5.0,5.0;" x1="474" x2="474" y1="80.6406" y2="1476.1172"/><line style="stroke:#181818;stroke-width:0.5;stroke-dasharray:5.0,5.0;" x1="886" x2="886" y1="149.4844" y2="1476.1172"/><line style="stroke:#181818;stroke-width:0.5;stroke-dasharray:5.0,5.0;" x1="1036" x2="1036" y1="80.6406" y2="1476.1172"/><line style="stroke:#181818;stroke-width:0.5;stroke-dasharray:5.0,5.0;" x1="1143" x2="1143" y1="80.6406" y2="1476.1172"/><line style="stroke:#181818;stroke-width:0.5;stroke-dasharray:5.0,5.0;" x1="1301" x2="1301" y1="80.6406" y2="1476.1172"/><line style="stroke:#181818;stroke-width:0.5;stroke-dasharray:5.0,5.0;" x1="1465.5" x2="1465.5" y1="80.6406" y2="1476.1172"/><line style="stroke:#181818;stroke-width:0.5;stroke-dasharray:5.0,5.0;" x1="1751" x2="1751" y1="637.8438" y2="1476.1172"/><line style="stroke:#181818;stroke-width:0.5;stroke-dasharray:5.0,5.0;" x1="1907" x2="1907" y1="1045.8828" y2="1476.1172"/><text fill="#000000" font-family="sans-serif" font-size="14" lengthAdjust="spacing" textLength="114" x="20" y="77.6738">Unregistered User</text><ellipse cx="80" cy="13.5" fill="#E3E3E3" rx="8" ry="8" style="stroke:#181818;stroke-width:0.5;"/><path d="M80,21.5 L80,48.5 M67,29.5 L93,29.5 M80,48.5 L67,63.5 M80,48.5 L93,63.5 " fill="none" style="stroke:#181818;stroke-width:0.5;"/><text fill="#000000" font-family="sans-serif" font-size="14" lengthAdjust="spacing" textLength="114" x="20" y="1487.791">Unregistered User</text><ellipse cx="80" cy="1499.2578" fill="#E3E3E3" rx="8" ry="8" style="stroke:#181818;stroke-width:0.5;"/><path d="M80,1507.2578 L80,1534.2578 M67,1515.2578 L93,1515.2578 M80,1534.2578 L67,1549.2578 M80,1534.2578 L93,1549.2578 " fill="none" style="stroke:#181818;stroke-width:0.5;"/><rect fill="#E3E3E3" height="29.6406" rx="2.5" ry="2.5" style="stroke:#181818;stroke-width:0.5;" width="134" x="407" y="50"/><text fill="#000000" font-family="sans-serif" font-size="14" lengthAdjust="spacing" textLength="120" x="414" y="69.6738">:RegisterAccountUI</text><rect fill="#E3E3E3" height="29.6406" rx="2.5" ry="2.5" style="stroke:#181818;stroke-width:0.5;" width="134" x="407" y="1475.1172"/><text fill="#000000" font-family="sans-serif" font-size="14" lengthAdjust="spacing" textLength="120" x="414" y="1494.791">:RegisterAccountUI</text><rect fill="#E3E3E3" height="29.6406" rx="2.5" ry="2.5" style="stroke:#181818;stroke-width:0.5;" width="184" x="794" y="1475.1172"/><text fill="#000000" font-family="sans-serif" font-size="14" lengthAdjust="spacing" textLength="170" x="801" y="1494.791">:RegisterAccountController</text><rect fill="#E3E3E3" height="29.6406" rx="2.5" ry="2.5" style="stroke:#181818;stroke-width:0.5;" width="97" x="988" y="50"/><text fill="#000000" font-family="sans-serif" font-size="14" lengthAdjust="spacing" textLength="83" x="995" y="69.6738">:Repositories</text><rect fill="#E3E3E3" height="29.6406" rx="2.5" ry="2.5" style="stroke:#181818;stroke-width:0.5;" width="97" x="988" y="1475.1172"/><text fill="#000000" font-family="sans-serif" font-size="14" lengthAdjust="spacing" textLength="83" x="995" y="1494.791">:Repositories</text><rect fill="#E3E3E3" height="45.2813" rx="2.5" ry="2.5" style="stroke:#181818;stroke-width:0.5;" width="97" x="1095" y="34.3594"/><text fill="#000000" font-family="sans-serif" font-size="14" lengthAdjust="spacing" textLength="74" x="1106.5" y="54.0332">repositories</text><text fill="#000000" font-family="sans-serif" font-size="14" lengthAdjust="spacing" textLength="83" x="1102" y="69.6738">:Repositories</text><rect fill="#E3E3E3" height="45.2813" rx="2.5" ry="2.5" style="stroke:#181818;stroke-width:0.5;" width="97" x="1095" y="1475.1172"/><text fill="#000000" font-family="sans-serif" font-size="14" lengthAdjust="spacing" textLength="74" x="1106.5" y="1494.791">repositories</text><text fill="#000000" font-family="sans-serif" font-size="14" lengthAdjust="spacing" textLength="83" x="1102" y="1510.4316">:Repositories</text><rect fill="#E3E3E3" height="45.2813" rx="2.5" ry="2.5" style="stroke:#181818;stroke-width:0.5;" width="138" x="1232" y="34.3594"/><text fill="#000000" font-family="sans-serif" font-size="14" lengthAdjust="spacing" textLength="119" x="1241.5" y="54.0332">addressRepository</text><text fill="#000000" font-family="sans-serif" font-size="14" lengthAdjust="spacing" textLength="124" x="1239" y="69.6738">:AddressRepository</text><rect fill="#E3E3E3" height="45.2813" rx="2.5" ry="2.5" style="stroke:#181818;stroke-width:0.5;" width="138" x="1232" y="1475.1172"/><text fill="#000000" font-family="sans-serif" font-size="14" lengthAdjust="spacing" textLength="119" x="1241.5" y="1494.791">addressRepository</text><text fill="#000000" font-family="sans-serif" font-size="14" lengthAdjust="spacing" textLength="124" x="1239" y="1510.4316">:AddressRepository</text><rect fill="#E3E3E3" height="45.2813" rx="2.5" ry="2.5" style="stroke:#181818;stroke-width:0.5;" width="137" x="1397.5" y="34.3594"/><text fill="#000000" font-family="sans-serif" font-size="14" lengthAdjust="spacing" textLength="118" x="1407" y="54.0332">accountRepository</text><text fill="#000000" font-family="sans-serif" font-size="14" lengthAdjust="spacing" textLength="123" x="1404.5" y="69.6738">:AccountRepository</text><rect fill="#E3E3E3" height="45.2813" rx="2.5" ry="2.5" style="stroke:#181818;stroke-width:0.5;" width="137" x="1397.5" y="1475.1172"/><text fill="#000000" font-family="sans-serif" font-size="14" lengthAdjust="spacing" textLength="118" x="1407" y="1494.791">accountRepository</text><text fill="#000000" font-family="sans-serif" font-size="14" lengthAdjust="spacing" textLength="123" x="1404.5" y="1510.4316">:AccountRepository</text><rect fill="#E3E3E3" height="45.2813" rx="2.5" ry="2.5" style="stroke:#181818;stroke-width:0.5;" width="70" x="1716" y="1475.1172"/><text fill="#000000" font-family="sans-serif" font-size="14" lengthAdjust="spacing" textLength="51" x="1725.5" y="1494.791">address</text><text fill="#000000" font-family="sans-serif" font-size="14" lengthAdjust="spacing" textLength="56" x="1723" y="1510.4316">:Address</text><rect fill="#E3E3E3" height="45.2813" rx="2.5" ry="2.5" style="stroke:#181818;stroke-width:0.5;" width="69" x="1873" y="1475.1172"/><text fill="#000000" font-family="sans-serif" font-size="14" lengthAdjust="spacing" textLength="50" x="1882.5" y="1494.791">account</text><text fill="#000000" font-family="sans-serif" font-size="14" lengthAdjust="spacing" textLength="55" x="1880" y="1510.4316">:Account</text><rect fill="#FFFFFF" height="1367.4766" style="stroke:#181818;stroke-width:1.0;" width="10" x="75" y="90.6406"/><rect fill="#FFFFFF" height="83.6875" style="stroke:#181818;stroke-width:1.0;" width="10" x="469" y="111.1641"/><rect fill="#FFFFFF" height="52.0469" style="stroke:#181818;stroke-width:1.0;" width="10" x="469" y="223.375"/><rect fill="#FFFFFF" height="35.5234" style="stroke:#181818;stroke-width:1.0;" width="10" x="469" y="303.9453"/><rect fill="#FFFFFF" height="1099.125" style="stroke:#181818;stroke-width:1.0;" width="10" x="469" y="367.9922"/><rect fill="#FFFFFF" height="980.5078" style="stroke:#181818;stroke-width:1.0;" width="10" x="881" y="449.0859"/><rect fill="#FFFFFF" height="28.5234" style="stroke:#181818;stroke-width:1.0;" width="10" x="1031.5" y="477.6094"/><rect fill="#FFFFFF" height="28.5234" style="stroke:#181818;stroke-width:1.0;" width="10" x="1031.5" y="871.125"/><rect fill="#FFFFFF" height="28.5234" style="stroke:#181818;stroke-width:1.0;" width="10" x="1138.5" y="534.6563"/><rect fill="#FFFFFF" height="28.5234" style="stroke:#181818;stroke-width:1.0;" width="10" x="1138.5" y="928.1719"/><rect fill="#FFFFFF" height="250.8984" style="stroke:#181818;stroke-width:1.0;" width="10" x="1296" y="591.7031"/><rect fill="#FFFFFF" height="401.3281" style="stroke:#181818;stroke-width:1.0;" width="10" x="1461" y="999.7422"/><rect fill="#FFFFFF" height="146.6641" style="stroke:#181818;stroke-width:1.0;" width="10" x="1902.5" y="1052.7891"/><polygon fill="#181818" points="457,107.1641,467,111.1641,457,115.1641,461,111.1641" style="stroke:#181818;stroke-width:1.0;"/><line style="stroke:#181818;stroke-width:1.0;" x1="85" x2="463" y1="111.1641" y2="111.1641"/><text fill="#000000" font-family="sans-serif" font-size="13" font-weight="bold" lengthAdjust="spacing" textLength="7" x="92" y="106.4092">1</text><text fill="#000000" font-family="sans-serif" font-size="13" lengthAdjust="spacing" textLength="153" x="103" y="106.4092">Ask to register an account</text><polygon fill="#181818" points="782,135.6875,792,139.6875,782,143.6875,786,139.6875" style="stroke:#181818;stroke-width:1.0;"/><line style="stroke:#181818;stroke-width:1.0;" x1="479" x2="788" y1="139.6875" y2="139.6875"/><text fill="#000000" font-family="sans-serif" font-size="13" font-weight="bold" lengthAdjust="spacing" textLength="7" x="486" y="134.9326">2</text><text fill="#000000" font-family="sans-serif" font-size="13" lengthAdjust="spacing" textLength="36" x="497" y="134.9326">create</text><rect fill="#E3E3E3" height="29.6406" rx="2.5" ry="2.5" style="stroke:#181818;stroke-width:0.5;" width="184" x="794" y="119.1641"/><text fill="#000000" font-family="sans-serif" font-size="14" lengthAdjust="spacing" textLength="170" x="801" y="138.8379">:RegisterAccountController</text><polygon fill="#181818" points="96,190.8516,86,194.8516,96,198.8516,92,194.8516" style="stroke:#181818;stroke-width:1.0;"/><line style="stroke:#181818;stroke-width:1.0;stroke-dasharray:2.0,2.0;" x1="90" x2="473" y1="194.8516" y2="194.8516"/><text fill="#000000" font-family="sans-serif" font-size="13" font-weight="bold" lengthAdjust="spacing" textLength="7" x="102" y="182.835">3</text><text fill="#000000" font-family="sans-serif" font-size="13" lengthAdjust="spacing" textLength="295" x="113" y="175.5732">Request data (i.e. name, email address, password,</text><text fill="#000000" font-family="sans-serif" font-size="13" lengthAdjust="spacing" textLength="335" x="113" y="190.0967">passport card number, tax number and telephone number)</text><polygon fill="#181818" points="457,219.375,467,223.375,457,227.375,461,223.375" style="stroke:#181818;stroke-width:1.0;"/><line style="stroke:#181818;stroke-width:1.0;" x1="85" x2="463" y1="223.375" y2="223.375"/><text fill="#000000" font-family="sans-serif" font-size="13" font-weight="bold" lengthAdjust="spacing" textLength="7" x="92" y="218.6201">4</text><text fill="#000000" font-family="sans-serif" font-size="13" lengthAdjust="spacing" textLength="118" x="103" y="218.6201">Type requested data</text><path d="M10,238.375 L75,238.375 L75,244.8984 L65,254.8984 L10,254.8984 L10,238.375 " fill="#EEEEEE" style="stroke:#000000;stroke-width:1.5;"/><rect fill="none" height="73.5703" style="stroke:#000000;stroke-width:1.5;" width="541" x="10" y="238.375"/><text fill="#000000" font-family="sans-serif" font-size="13" font-weight="bold" lengthAdjust="spacing" textLength="20" x="25" y="251.1436">opt</text><text fill="#000000" font-family="sans-serif" font-size="11" font-weight="bold" lengthAdjust="spacing" textLength="205" x="90" y="250.333">[If intended to register with address]</text><polygon fill="#181818" points="96,271.4219,86,275.4219,96,279.4219,92,275.4219" style="stroke:#181818;stroke-width:1.0;"/><line style="stroke:#181818;stroke-width:1.0;stroke-dasharray:2.0,2.0;" x1="90" x2="473" y1="275.4219" y2="275.4219"/><text fill="#000000" font-family="sans-serif" font-size="13" font-weight="bold" lengthAdjust="spacing" textLength="7" x="102" y="270.667">5</text><text fill="#000000" font-family="sans-serif" font-size="13" lengthAdjust="spacing" textLength="349" x="113" y="270.667">Request data (i.e. street name, city name, zip code, district)</text><polygon fill="#181818" points="457,299.9453,467,303.9453,457,307.9453,461,303.9453" style="stroke:#181818;stroke-width:1.0;"/><line style="stroke:#181818;stroke-width:1.0;" x1="85" x2="463" y1="303.9453" y2="303.9453"/><text fill="#000000" font-family="sans-serif" font-size="13" font-weight="bold" lengthAdjust="spacing" textLength="7" x="92" y="299.1904">6</text><text fill="#000000" font-family="sans-serif" font-size="13" lengthAdjust="spacing" textLength="118" x="103" y="299.1904">Type requested data</text><polygon fill="#181818" points="96,335.4688,86,339.4688,96,343.4688,92,339.4688" style="stroke:#181818;stroke-width:1.0;"/><line style="stroke:#181818;stroke-width:1.0;stroke-dasharray:2.0,2.0;" x1="90" x2="473" y1="339.4688" y2="339.4688"/><text fill="#000000" font-family="sans-serif" font-size="13" font-weight="bold" lengthAdjust="spacing" textLength="7" x="102" y="334.7139">7</text><text fill="#000000" font-family="sans-serif" font-size="13" lengthAdjust="spacing" textLength="203" x="113" y="334.7139">Show data and ask for confirmation</text><polygon fill="#181818" points="457,363.9922,467,367.9922,457,371.9922,461,367.9922" style="stroke:#181818;stroke-width:1.0;"/><line style="stroke:#181818;stroke-width:1.0;" x1="85" x2="463" y1="367.9922" y2="367.9922"/><text fill="#000000" font-family="sans-serif" font-size="13" font-weight="bold" lengthAdjust="spacing" textLength="7" x="92" y="363.2373">8</text><text fill="#000000" font-family="sans-serif" font-size="13" lengthAdjust="spacing" textLength="44" x="103" y="363.2373">Confirm</text><path d="M397,382.9922 L462,382.9922 L462,389.5156 L452,399.5156 L397,399.5156 L397,382.9922 " fill="#EEEEEE" style="stroke:#000000;stroke-width:1.5;"/><rect fill="none" height="824.4609" style="stroke:#000000;stroke-width:1.5;" width="1555" x="397" y="382.9922"/><text fill="#000000" font-family="sans-serif" font-size="13" font-weight="bold" lengthAdjust="spacing" textLength="20" x="412" y="395.7607">opt</text><text fill="#000000" font-family="sans-serif" font-size="11" font-weight="bold" lengthAdjust="spacing" textLength="205" x="477" y="394.9502">[If intended to register with address]</text><polygon fill="#181818" points="869,445.0859,879,449.0859,869,453.0859,873,449.0859" style="stroke:#181818;stroke-width:1.0;"/><line style="stroke:#181818;stroke-width:1.0;" x1="479" x2="875" y1="449.0859" y2="449.0859"/><text fill="#000000" font-family="sans-serif" font-size="13" font-weight="bold" lengthAdjust="spacing" textLength="7" x="486" y="429.8076">9</text><text fill="#000000" font-family="sans-serif" font-size="13" lengthAdjust="spacing" textLength="281" x="497" y="415.2842">registerAccount(name, emailAddress, password,</text><text fill="#000000" font-family="sans-serif" font-size="13" lengthAdjust="spacing" textLength="306" x="497" y="429.8076">passportCardNumber, taxNumber, telephoneNumber,</text><text fill="#000000" font-family="sans-serif" font-size="13" lengthAdjust="spacing" textLength="269" x="497" y="444.3311">streetName, doorNumber, ZIPCode, cityName)</text><polygon fill="#181818" points="1019.5,473.6094,1029.5,477.6094,1019.5,481.6094,1023.5,477.6094" style="stroke:#181818;stroke-width:1.0;"/><line style="stroke:#181818;stroke-width:1.0;" x1="891" x2="1025.5" y1="477.6094" y2="477.6094"/><text fill="#000000" font-family="sans-serif" font-size="13" font-weight="bold" lengthAdjust="spacing" textLength="14" x="898" y="472.8545">10</text><text fill="#000000" font-family="sans-serif" font-size="13" lengthAdjust="spacing" textLength="75" x="916" y="472.8545">getInstance()</text><polygon fill="#181818" points="902,502.1328,892,506.1328,902,510.1328,898,506.1328" style="stroke:#181818;stroke-width:1.0;"/><line style="stroke:#181818;stroke-width:1.0;stroke-dasharray:2.0,2.0;" x1="896" x2="1035.5" y1="506.1328" y2="506.1328"/><text fill="#000000" font-family="sans-serif" font-size="13" font-weight="bold" lengthAdjust="spacing" textLength="14" x="908" y="501.3779">11</text><text fill="#000000" font-family="sans-serif" font-size="13" lengthAdjust="spacing" textLength="67" x="926" y="501.3779">repositories</text><polygon fill="#181818" points="1126.5,530.6563,1136.5,534.6563,1126.5,538.6563,1130.5,534.6563" style="stroke:#181818;stroke-width:1.0;"/><line style="stroke:#181818;stroke-width:1.0;" x1="891" x2="1132.5" y1="534.6563" y2="534.6563"/><text fill="#000000" font-family="sans-serif" font-size="13" font-weight="bold" lengthAdjust="spacing" textLength="14" x="898" y="529.9014">12</text><text fill="#000000" font-family="sans-serif" font-size="13" lengthAdjust="spacing" textLength="136" x="916" y="529.9014">getAddressRepository()</text><polygon fill="#181818" points="902,559.1797,892,563.1797,902,567.1797,898,563.1797" style="stroke:#181818;stroke-width:1.0;"/><line style="stroke:#181818;stroke-width:1.0;stroke-dasharray:2.0,2.0;" x1="896" x2="1142.5" y1="563.1797" y2="563.1797"/><text fill="#000000" font-family="sans-serif" font-size="13" font-weight="bold" lengthAdjust="spacing" textLength="14" x="908" y="558.4248">13</text><text fill="#000000" font-family="sans-serif" font-size="13" lengthAdjust="spacing" textLength="108" x="926" y="558.4248">addressRepository</text><polygon fill="#181818" points="1284,587.7031,1294,591.7031,1284,595.7031,1288,591.7031" style="stroke:#181818;stroke-width:1.0;"/><line style="stroke:#181818;stroke-width:1.0;" x1="891" x2="1290" y1="591.7031" y2="591.7031"/><text fill="#000000" font-family="sans-serif" font-size="13" font-weight="bold" lengthAdjust="spacing" textLength="14" x="898" y="586.9482">14</text><text fill="#000000" font-family="sans-serif" font-size="13" lengthAdjust="spacing" textLength="368" x="916" y="586.9482">registerAddress (streetName, doorNumber, ZIPCode, cityName)</text><polygon fill="#181818" points="1704,616.2266,1714,620.2266,1704,624.2266,1708,620.2266" style="stroke:#181818;stroke-width:1.0;"/><line style="stroke:#181818;stroke-width:1.0;" x1="1306" x2="1710" y1="620.2266" y2="620.2266"/><text fill="#000000" font-family="sans-serif" font-size="13" font-weight="bold" lengthAdjust="spacing" textLength="14" x="1313" y="615.4717">15</text><text fill="#000000" font-family="sans-serif" font-size="13" lengthAdjust="spacing" textLength="368" x="1331" y="615.4717">createsAddress (streetName, doorNumber, ZIPCode, cityName)</text><rect fill="#E3E3E3" height="45.2813" rx="2.5" ry="2.5" style="stroke:#181818;stroke-width:0.5;" width="70" x="1716" y="599.7031"/><text fill="#000000" font-family="sans-serif" font-size="14" lengthAdjust="spacing" textLength="51" x="1725.5" y="619.377">address</text><text fill="#000000" font-family="sans-serif" font-size="14" lengthAdjust="spacing" textLength="56" x="1723" y="635.0176">:Address</text><line style="stroke:#181818;stroke-width:1.0;" x1="1306" x2="1348" y1="676.5078" y2="676.5078"/><line style="stroke:#181818;stroke-width:1.0;" x1="1348" x2="1348" y1="676.5078" y2="689.5078"/><line style="stroke:#181818;stroke-width:1.0;" x1="1307" x2="1348" y1="689.5078" y2="689.5078"/><polygon fill="#181818" points="1317,685.5078,1307,689.5078,1317,693.5078,1313,689.5078" style="stroke:#181818;stroke-width:1.0;"/><text fill="#000000" font-family="sans-serif" font-size="13" font-weight="bold" lengthAdjust="spacing" textLength="14" x="1313" y="671.7529">16</text><text fill="#000000" font-family="sans-serif" font-size="13" lengthAdjust="spacing" textLength="123" x="1331" y="671.7529">addAddress(address)</text><line style="stroke:#181818;stroke-width:1.0;" x1="1306" x2="1348" y1="718.0313" y2="718.0313"/><line style="stroke:#181818;stroke-width:1.0;" x1="1348" x2="1348" y1="718.0313" y2="731.0313"/><line style="stroke:#181818;stroke-width:1.0;" x1="1307" x2="1348" y1="731.0313" y2="731.0313"/><polygon fill="#181818" points="1317,727.0313,1307,731.0313,1317,735.0313,1313,731.0313" style="stroke:#181818;stroke-width:1.0;"/><text fill="#000000" font-family="sans-serif" font-size="13" font-weight="bold" lengthAdjust="spacing" textLength="14" x="1313" y="713.2764">17</text><text fill="#000000" font-family="sans-serif" font-size="13" lengthAdjust="spacing" textLength="91" x="1331" y="713.2764">validateAddress</text><line style="stroke:#181818;stroke-width:1.0;stroke-dasharray:2.0,2.0;" x1="1306" x2="1348" y1="759.5547" y2="759.5547"/><line style="stroke:#181818;stroke-width:1.0;stroke-dasharray:2.0,2.0;" x1="1348" x2="1348" y1="759.5547" y2="772.5547"/><line style="stroke:#181818;stroke-width:1.0;stroke-dasharray:2.0,2.0;" x1="1307" x2="1348" y1="772.5547" y2="772.5547"/><polygon fill="#181818" points="1317,768.5547,1307,772.5547,1317,776.5547,1313,772.5547" style="stroke:#181818;stroke-width:1.0;"/><text fill="#000000" font-family="sans-serif" font-size="13" font-weight="bold" lengthAdjust="spacing" textLength="14" x="1313" y="754.7998">18</text><text fill="#000000" font-family="sans-serif" font-size="13" lengthAdjust="spacing" textLength="4" x="1331" y="754.7998">&#160;</text><line style="stroke:#181818;stroke-width:1.0;stroke-dasharray:2.0,2.0;" x1="1306" x2="1348" y1="801.0781" y2="801.0781"/><line style="stroke:#181818;stroke-width:1.0;stroke-dasharray:2.0,2.0;" x1="1348" x2="1348" y1="801.0781" y2="814.0781"/><line style="stroke:#181818;stroke-width:1.0;stroke-dasharray:2.0,2.0;" x1="1307" x2="1348" y1="814.0781" y2="814.0781"/><polygon fill="#181818" points="1317,810.0781,1307,814.0781,1317,818.0781,1313,814.0781" style="stroke:#181818;stroke-width:1.0;"/><text fill="#000000" font-family="sans-serif" font-size="13" font-weight="bold" lengthAdjust="spacing" textLength="14" x="1313" y="796.3232">19</text><text fill="#000000" font-family="sans-serif" font-size="13" lengthAdjust="spacing" textLength="4" x="1331" y="796.3232">&#160;</text><polygon fill="#181818" points="902,838.6016,892,842.6016,902,846.6016,898,842.6016" style="stroke:#181818;stroke-width:1.0;"/><line style="stroke:#181818;stroke-width:1.0;stroke-dasharray:2.0,2.0;" x1="896" x2="1300" y1="842.6016" y2="842.6016"/><text fill="#000000" font-family="sans-serif" font-size="13" font-weight="bold" lengthAdjust="spacing" textLength="14" x="908" y="837.8467">20</text><text fill="#000000" font-family="sans-serif" font-size="13" lengthAdjust="spacing" textLength="46" x="926" y="837.8467">address</text><polygon fill="#181818" points="1019.5,867.125,1029.5,871.125,1019.5,875.125,1023.5,871.125" style="stroke:#181818;stroke-width:1.0;"/><line style="stroke:#181818;stroke-width:1.0;" x1="891" x2="1025.5" y1="871.125" y2="871.125"/><text fill="#000000" font-family="sans-serif" font-size="13" font-weight="bold" lengthAdjust="spacing" textLength="14" x="898" y="866.3701">21</text><text fill="#000000" font-family="sans-serif" font-size="13" lengthAdjust="spacing" textLength="75" x="916" y="866.3701">getInstance()</text><polygon fill="#181818" points="902,895.6484,892,899.6484,902,903.6484,898,899.6484" style="stroke:#181818;stroke-width:1.0;"/><line style="stroke:#181818;stroke-width:1.0;stroke-dasharray:2.0,2.0;" x1="896" x2="1035.5" y1="899.6484" y2="899.6484"/><text fill="#000000" font-family="sans-serif" font-size="13" font-weight="bold" lengthAdjust="spacing" textLength="14" x="908" y="894.8936">22</text><text fill="#000000" font-family="sans-serif" font-size="13" lengthAdjust="spacing" textLength="67" x="926" y="894.8936">repositories</text><polygon fill="#181818" points="1126.5,924.1719,1136.5,928.1719,1126.5,932.1719,1130.5,928.1719" style="stroke:#181818;stroke-width:1.0;"/><line style="stroke:#181818;stroke-width:1.0;" x1="891" x2="1132.5" y1="928.1719" y2="928.1719"/><text fill="#000000" font-family="sans-serif" font-size="13" font-weight="bold" lengthAdjust="spacing" textLength="14" x="898" y="923.417">23</text><text fill="#000000" font-family="sans-serif" font-size="13" lengthAdjust="spacing" textLength="136" x="916" y="923.417">getAccountRepository()</text><polygon fill="#181818" points="902,952.6953,892,956.6953,902,960.6953,898,956.6953" style="stroke:#181818;stroke-width:1.0;"/><line style="stroke:#181818;stroke-width:1.0;stroke-dasharray:2.0,2.0;" x1="896" x2="1142.5" y1="956.6953" y2="956.6953"/><text fill="#000000" font-family="sans-serif" font-size="13" font-weight="bold" lengthAdjust="spacing" textLength="14" x="908" y="951.9404">24</text><text fill="#000000" font-family="sans-serif" font-size="13" lengthAdjust="spacing" textLength="108" x="926" y="951.9404">accountRepository</text><polygon fill="#181818" points="1449,995.7422,1459,999.7422,1449,1003.7422,1453,999.7422" style="stroke:#181818;stroke-width:1.0;"/><line style="stroke:#181818;stroke-width:1.0;" x1="891" x2="1455" y1="999.7422" y2="999.7422"/><text fill="#000000" font-family="sans-serif" font-size="13" font-weight="bold" lengthAdjust="spacing" textLength="14" x="898" y="987.7256">25</text><text fill="#000000" font-family="sans-serif" font-size="13" lengthAdjust="spacing" textLength="281" x="916" y="980.4639">registerAccount(name, emailAddress, password,</text><text fill="#000000" font-family="sans-serif" font-size="13" lengthAdjust="spacing" textLength="360" x="916" y="994.9873">passportCardNumber, taxNumber, telephoneNumber, address)</text><polygon fill="#181818" points="1861,1038.7891,1871,1042.7891,1861,1046.7891,1865,1042.7891" style="stroke:#181818;stroke-width:1.0;"/><line style="stroke:#181818;stroke-width:1.0;" x1="1471" x2="1867" y1="1042.7891" y2="1042.7891"/><text fill="#000000" font-family="sans-serif" font-size="13" font-weight="bold" lengthAdjust="spacing" textLength="14" x="1478" y="1030.7725">26</text><text fill="#000000" font-family="sans-serif" font-size="13" lengthAdjust="spacing" textLength="281" x="1496" y="1023.5107">registerAccount(name, emailAddress, password,</text><text fill="#000000" font-family="sans-serif" font-size="13" lengthAdjust="spacing" textLength="360" x="1496" y="1038.0342">passportCardNumber, taxNumber, telephoneNumber, address)</text><rect fill="#E3E3E3" height="45.2813" rx="2.5" ry="2.5" style="stroke:#181818;stroke-width:0.5;" width="69" x="1873" y="1007.7422"/><text fill="#000000" font-family="sans-serif" font-size="14" lengthAdjust="spacing" textLength="50" x="1882.5" y="1027.416">account</text><text fill="#000000" font-family="sans-serif" font-size="14" lengthAdjust="spacing" textLength="55" x="1880" y="1043.0566">:Account</text><line style="stroke:#000000;stroke-width:1.0;stroke-dasharray:2.0,2.0;" x1="397" x2="1952" y1="1065.0234" y2="1065.0234"/><text fill="#000000" font-family="sans-serif" font-size="11" font-weight="bold" lengthAdjust="spacing" textLength="226" x="402" y="1074.9814">[If not intended to register with address]</text><polygon fill="#181818" points="869,1109.3594,879,1113.3594,869,1117.3594,873,1113.3594" style="stroke:#181818;stroke-width:1.0;"/><line style="stroke:#181818;stroke-width:1.0;" x1="479" x2="875" y1="1113.3594" y2="1113.3594"/><text fill="#000000" font-family="sans-serif" font-size="13" font-weight="bold" lengthAdjust="spacing" textLength="14" x="486" y="1101.3428">27</text><text fill="#000000" font-family="sans-serif" font-size="13" lengthAdjust="spacing" textLength="285" x="504" y="1094.0811">registerAccount (name, emailAddress, password,</text><text fill="#000000" font-family="sans-serif" font-size="13" lengthAdjust="spacing" textLength="360" x="504" y="1108.6045">passportCardNumber, taxNumber, telephoneNumber, address)</text><polygon fill="#181818" points="1449,1152.4063,1459,1156.4063,1449,1160.4063,1453,1156.4063" style="stroke:#181818;stroke-width:1.0;"/><line style="stroke:#181818;stroke-width:1.0;" x1="891" x2="1455" y1="1156.4063" y2="1156.4063"/><text fill="#000000" font-family="sans-serif" font-size="13" font-weight="bold" lengthAdjust="spacing" textLength="14" x="898" y="1144.3896">28</text><text fill="#000000" font-family="sans-serif" font-size="13" lengthAdjust="spacing" textLength="281" x="916" y="1137.1279">registerAccount(name, emailAddress, password,</text><text fill="#000000" font-family="sans-serif" font-size="13" lengthAdjust="spacing" textLength="306" x="916" y="1151.6514">passportCardNumber, taxNumber, telephoneNumber)</text><polygon fill="#181818" points="1895.5,1195.4531,1905.5,1199.4531,1895.5,1203.4531,1899.5,1199.4531" style="stroke:#181818;stroke-width:1.0;"/><line style="stroke:#181818;stroke-width:1.0;" x1="1471" x2="1901.5" y1="1199.4531" y2="1199.4531"/><text fill="#000000" font-family="sans-serif" font-size="13" font-weight="bold" lengthAdjust="spacing" textLength="14" x="1478" y="1187.4365">29</text><text fill="#000000" font-family="sans-serif" font-size="13" lengthAdjust="spacing" textLength="285" x="1496" y="1180.1748">registerAccount (name, emailAddress, password,</text><text fill="#000000" font-family="sans-serif" font-size="13" lengthAdjust="spacing" textLength="306" x="1496" y="1194.6982">passportCardNumber, taxNumber, telephoneNumber)</text><line style="stroke:#181818;stroke-width:1.0;" x1="1471" x2="1513" y1="1234.9766" y2="1234.9766"/><line style="stroke:#181818;stroke-width:1.0;" x1="1513" x2="1513" y1="1234.9766" y2="1247.9766"/><line style="stroke:#181818;stroke-width:1.0;" x1="1472" x2="1513" y1="1247.9766" y2="1247.9766"/><polygon fill="#181818" points="1482,1243.9766,1472,1247.9766,1482,1251.9766,1478,1247.9766" style="stroke:#181818;stroke-width:1.0;"/><text fill="#000000" font-family="sans-serif" font-size="13" font-weight="bold" lengthAdjust="spacing" textLength="14" x="1478" y="1230.2217">30</text><text fill="#000000" font-family="sans-serif" font-size="13" lengthAdjust="spacing" textLength="123" x="1496" y="1230.2217">addAccount(account)</text><line style="stroke:#181818;stroke-width:1.0;" x1="1471" x2="1513" y1="1276.5" y2="1276.5"/><line style="stroke:#181818;stroke-width:1.0;" x1="1513" x2="1513" y1="1276.5" y2="1289.5"/><line style="stroke:#181818;stroke-width:1.0;" x1="1472" x2="1513" y1="1289.5" y2="1289.5"/><polygon fill="#181818" points="1482,1285.5,1472,1289.5,1482,1293.5,1478,1289.5" style="stroke:#181818;stroke-width:1.0;"/><text fill="#000000" font-family="sans-serif" font-size="13" font-weight="bold" lengthAdjust="spacing" textLength="14" x="1478" y="1271.7451">31</text><text fill="#000000" font-family="sans-serif" font-size="13" lengthAdjust="spacing" textLength="145" x="1496" y="1271.7451">validateAccount(account)</text><line style="stroke:#181818;stroke-width:1.0;stroke-dasharray:2.0,2.0;" x1="1471" x2="1513" y1="1318.0234" y2="1318.0234"/><line style="stroke:#181818;stroke-width:1.0;stroke-dasharray:2.0,2.0;" x1="1513" x2="1513" y1="1318.0234" y2="1331.0234"/><line style="stroke:#181818;stroke-width:1.0;stroke-dasharray:2.0,2.0;" x1="1472" x2="1513" y1="1331.0234" y2="1331.0234"/><polygon fill="#181818" points="1482,1327.0234,1472,1331.0234,1482,1335.0234,1478,1331.0234" style="stroke:#181818;stroke-width:1.0;"/><text fill="#000000" font-family="sans-serif" font-size="13" font-weight="bold" lengthAdjust="spacing" textLength="14" x="1478" y="1313.2686">32</text><text fill="#000000" font-family="sans-serif" font-size="13" lengthAdjust="spacing" textLength="4" x="1496" y="1313.2686">&#160;</text><line style="stroke:#181818;stroke-width:1.0;stroke-dasharray:2.0,2.0;" x1="1471" x2="1513" y1="1359.5469" y2="1359.5469"/><line style="stroke:#181818;stroke-width:1.0;stroke-dasharray:2.0,2.0;" x1="1513" x2="1513" y1="1359.5469" y2="1372.5469"/><line style="stroke:#181818;stroke-width:1.0;stroke-dasharray:2.0,2.0;" x1="1472" x2="1513" y1="1372.5469" y2="1372.5469"/><polygon fill="#181818" points="1482,1368.5469,1472,1372.5469,1482,1376.5469,1478,1372.5469" style="stroke:#181818;stroke-width:1.0;"/><text fill="#000000" font-family="sans-serif" font-size="13" font-weight="bold" lengthAdjust="spacing" textLength="14" x="1478" y="1354.792">33</text><text fill="#000000" font-family="sans-serif" font-size="13" lengthAdjust="spacing" textLength="4" x="1496" y="1354.792">&#160;</text><polygon fill="#181818" points="902,1397.0703,892,1401.0703,902,1405.0703,898,1401.0703" style="stroke:#181818;stroke-width:1.0;"/><line style="stroke:#181818;stroke-width:1.0;stroke-dasharray:2.0,2.0;" x1="896" x2="1465" y1="1401.0703" y2="1401.0703"/><text fill="#000000" font-family="sans-serif" font-size="13" font-weight="bold" lengthAdjust="spacing" textLength="14" x="908" y="1396.3154">34</text><text fill="#000000" font-family="sans-serif" font-size="13" lengthAdjust="spacing" textLength="48" x="926" y="1396.3154">Account</text><polygon fill="#181818" points="490,1425.5938,480,1429.5938,490,1433.5938,486,1429.5938" style="stroke:#181818;stroke-width:1.0;"/><line style="stroke:#181818;stroke-width:1.0;stroke-dasharray:2.0,2.0;" x1="484" x2="885" y1="1429.5938" y2="1429.5938"/><text fill="#000000" font-family="sans-serif" font-size="13" font-weight="bold" lengthAdjust="spacing" textLength="14" x="496" y="1424.8389">35</text><text fill="#000000" font-family="sans-serif" font-size="13" lengthAdjust="spacing" textLength="48" x="514" y="1424.8389">Account</text><polygon fill="#181818" points="91,1454.1172,81,1458.1172,91,1462.1172,87,1458.1172" style="stroke:#181818;stroke-width:1.0;"/><line style="stroke:#181818;stroke-width:1.0;stroke-dasharray:2.0,2.0;" x1="85" x2="468" y1="1458.1172" y2="1458.1172"/><text fill="#000000" font-family="sans-serif" font-size="13" font-weight="bold" lengthAdjust="spacing" textLength="14" x="97" y="1453.3623">36</text><text fill="#000000" font-family="sans-serif" font-size="13" lengthAdjust="spacing" textLength="153" x="115" y="1453.3623">Display operation success</text><!--SRC=[xLVDRk8m4BxxAKQzB5Iq3y1X9KGlI6sted1PzU9r1h0QxAnjIjcdNzjn4WUIa5PjjOVDoTZpzyryOm_wcOkCAhg5hHIIRPJS8XYrGwBBauooPxh6HtD84HGoGyKwZGNqXYPopyKQLZJLI0ZT6Ibssr-e2FcsuGd2IahpIxuIoenKSB4K2jTS6rIOm5AZkW2gON9pHwn5mndFg31mCPu7gGbZSYVCSkRbbhDkiQaKHiaq3MQdY_djYK8cDRUXSDHUfjmuF7A7piPVLr6HnfCuDV1mErdKDMYIADIwicpL9iTx0VVD_4Wt1rBNFTxBTQVJ7ylxnRpHT-MnyDFefZ8UcoIkMFo56lI58H0- -mEkljiYm1Wc-XcCXAAOG0K4cvLyQSMMhTnqdxLWxRZgN5vQMqoXbQf4tB4zT-x6jZw_TwWD9DHG6F1hl0P1jpW2t5AUGi0xibpLUYzLCdeIRfb9PO1HbK1Enn4O-XhMDjW43AQORQJ0i3dqxXCy2Jf6lJXahX5yH9Q_BYRIY5Hc1cOhuCAWIAnadAezDviYxfEqTE7MHY6Q09znSmZBFpm39XExIgm7nPaPrkmsW3efQJksfcgwtnOOQQdPuqRkyy1TfgcboihsFfDYnTMM6cvRh4UofxayQQLIxoIta6zSYeSc64JCcdGGQsfvTL_HgbmMb0eRJoAlsBstcaYf2icViuUfBvYheZkk5op2ww-meyFgSwSEJSCbPXEuHZEp8L31S31ijL6wQhe9MxNSr-JrAkGMN7AhcxBLJiI1D_alaBlRDuTwSiFsmUmlxqwGta64wkHoxmEjsqs1nRq6494ozmI3TxEe0R1_SJe1-oZoQABRMNzaD4TkvdbQWuT1oF2Rr5zeoks5WvE6QxLPDUX-j6IT9Pqw4J_oglplyrvzVZmDVLAV7xlft-VTZifk3_FRPxz2SBQVAXeM8sMhQ24H0RYy_FSGH2L0-x_4JGb2cdUCOos30dmjmY-cpB1F-SFoirCpxDDsHTNBchlHj8Eoy_oz2RaBdJuyer4-CUVL8hqpfwJvF2TTy4IQqLQcStg4CJvMgklvKR8-gu_XXkiifGSxIwFoapde7MD-QAwzJtVaBm00]--></g></svg>