<?xml version="1.0" encoding="us-ascii" standalone="no"?><svg xmlns="http://www.w3.org/2000/svg" xmlns:xlink="http://www.w3.org/1999/xlink" contentStyleType="text/css" height="704px" preserveAspectRatio="none" style="width:1438px;height:704px;background:#FFFFFF;" version="1.1" viewBox="0 0 1438 704" width="1438.4px" zoomAndPan="magnify"><defs/><g><text fill="#000000" font-family="sans-serif" font-size="11.2" font-weight="bold" lengthAdjust="spacing" textLength="80" x="673.6" y="20.0859">Domain Model</text><!--class Agent--><g id="elem_Agent"><rect codeLine="12" fill="#F1F1F1" height="29.2969" id="Agent" rx="2" ry="2" style="stroke:#181818;stroke-width:0.4000000000000001;" width="34.4" x="534.8" y="287.907"/><text fill="#000000" font-family="sans-serif" font-size="11.2" lengthAdjust="spacing" textLength="29.6" x="537.2" y="303.993">Agent</text><line style="stroke:#181818;stroke-width:0.4000000000000001;" x1="535.6" x2="568.4" y1="310.8039" y2="310.8039"/></g><!--class Advertisement--><g id="elem_Advertisement"><rect codeLine="15" fill="#F1F1F1" height="44.1938" id="Advertisement" rx="2" ry="2" style="stroke:#181818;stroke-width:0.4000000000000001;" width="76.8" x="776.8" y="211.107"/><text fill="#000000" font-family="sans-serif" font-size="11.2" lengthAdjust="spacing" textLength="72" x="779.2" y="227.193">Advertisement</text><line style="stroke:#181818;stroke-width:0.4000000000000001;" x1="777.6" x2="852.8" y1="234.0039" y2="234.0039"/><text fill="#000000" font-family="sans-serif" font-size="11.2" lengthAdjust="spacing" textLength="22.4" x="781.6" y="249.2898">date</text></g><!--class Commission--><g id="elem_Commission"><rect codeLine="19" fill="#F1F1F1" height="29.2969" id="Commission" rx="2" ry="2" style="stroke:#181818;stroke-width:0.4000000000000001;" width="65.6" x="782.4" y="138.307"/><text fill="#000000" font-family="sans-serif" font-size="11.2" lengthAdjust="spacing" textLength="60.8" x="784.8" y="154.393">Commission</text><line style="stroke:#181818;stroke-width:0.4000000000000001;" x1="783.2" x2="847.2" y1="161.2039" y2="161.2039"/></g><!--class CommissionType--><g id="elem_CommissionType"><rect codeLine="23" fill="#F1F1F1" height="59.0906" id="CommissionType" rx="2" ry="2" style="stroke:#181818;stroke-width:0.4000000000000001;" width="91.2" x="506.4" y="125.107"/><text fill="#000000" font-family="sans-serif" font-size="11.2" lengthAdjust="spacing" textLength="86.4" x="508.8" y="141.193">CommissionType</text><line style="stroke:#181818;stroke-width:0.4000000000000001;" x1="507.2" x2="596.8" y1="148.0039" y2="148.0039"/><text fill="#000000" font-family="sans-serif" font-size="11.2" lengthAdjust="spacing" textLength="61.6" x="511.2" y="163.2898">fixedAmount</text><text fill="#000000" font-family="sans-serif" font-size="11.2" lengthAdjust="spacing" textLength="57.6" x="511.2" y="178.1867">percentage</text></g><!--class Employee--><g id="elem_Employee"><rect codeLine="28" fill="#F1F1F1" height="29.2969" id="Employee" rx="2" ry="2" style="stroke:#181818;stroke-width:0.4000000000000001;" width="54.4" x="280.8" y="490.307"/><text fill="#000000" font-family="sans-serif" font-size="11.2" font-style="italic" lengthAdjust="spacing" textLength="49.6" x="283.2" y="506.393">Employee</text><line style="stroke:#181818;stroke-width:0.4000000000000001;" x1="281.6" x2="334.4" y1="513.2039" y2="513.2039"/></g><!--class OrganizationRole--><g id="elem_OrganizationRole"><rect codeLine="31" fill="#F1F1F1" height="73.9875" id="OrganizationRole" rx="2" ry="2" style="stroke:#181818;stroke-width:0.4000000000000001;" width="120" x="492" y="468.307"/><text fill="#000000" font-family="sans-serif" font-size="11.2" lengthAdjust="spacing" textLength="87.2" x="508.4" y="484.393">OrganizationRole</text><line style="stroke:#181818;stroke-width:0.4000000000000001;" x1="492.8" x2="611.2" y1="491.2039" y2="491.2039"/><text fill="#000000" font-family="sans-serif" font-size="11.2" lengthAdjust="spacing" textLength="28.8" x="496.8" y="506.4898">agent</text><text fill="#000000" font-family="sans-serif" font-size="11.2" lengthAdjust="spacing" textLength="70.4" x="496.8" y="521.3867">storeManager</text><text fill="#000000" font-family="sans-serif" font-size="11.2" lengthAdjust="spacing" textLength="110.4" x="496.8" y="536.2836">storeNetworkManager</text></g><!--class Client--><g id="elem_Client"><rect codeLine="38" fill="#F1F1F1" height="29.2969" id="Client" rx="2" ry="2" style="stroke:#181818;stroke-width:0.4000000000000001;" width="33.6" x="535.2" y="67.107"/><text fill="#000000" font-family="sans-serif" font-size="11.2" lengthAdjust="spacing" textLength="28.8" x="537.6" y="83.193">Client</text><line style="stroke:#181818;stroke-width:0.4000000000000001;" x1="536" x2="568" y1="90.0039" y2="90.0039"/></g><!--class Property--><g id="elem_Property"><rect codeLine="41" fill="#F1F1F1" height="73.9875" id="Property" rx="2" ry="2" style="stroke:#181818;stroke-width:0.4000000000000001;" width="97.6" x="939.2" y="196.307"/><text fill="#000000" font-family="sans-serif" font-size="11.2" font-style="italic" lengthAdjust="spacing" textLength="43.2" x="966.4" y="212.393">Property</text><line style="stroke:#181818;stroke-width:0.4000000000000001;" x1="940" x2="1036" y1="219.2039" y2="219.2039"/><text fill="#000000" font-family="sans-serif" font-size="11.2" lengthAdjust="spacing" textLength="23.2" x="944" y="234.4898">area</text><text fill="#000000" font-family="sans-serif" font-size="11.2" lengthAdjust="spacing" textLength="24.8" x="944" y="249.3867">price</text><text fill="#000000" font-family="sans-serif" font-size="11.2" lengthAdjust="spacing" textLength="88" x="944" y="264.2836">distanceFromCity</text></g><!--class PropertyType--><g id="elem_PropertyType"><rect codeLine="47" fill="#F1F1F1" height="73.9875" id="PropertyType" rx="2" ry="2" style="stroke:#181818;stroke-width:0.4000000000000001;" width="73.6" x="1150" y="109.107"/><text fill="#000000" font-family="sans-serif" font-size="11.2" lengthAdjust="spacing" textLength="68.8" x="1152.4" y="125.193">PropertyType</text><line style="stroke:#181818;stroke-width:0.4000000000000001;" x1="1150.8" x2="1222.8" y1="132.0039" y2="132.0039"/><text fill="#000000" font-family="sans-serif" font-size="11.2" lengthAdjust="spacing" textLength="21.6" x="1154.8" y="147.2898">land</text><text fill="#000000" font-family="sans-serif" font-size="11.2" lengthAdjust="spacing" textLength="31.2" x="1154.8" y="162.1867">house</text><text fill="#000000" font-family="sans-serif" font-size="11.2" lengthAdjust="spacing" textLength="51.2" x="1154.8" y="177.0836">apartment</text></g><!--class Photograph--><g id="elem_Photograph"><rect codeLine="53" fill="#F1F1F1" height="44.1938" id="Photograph" rx="2" ry="2" style="stroke:#181818;stroke-width:0.4000000000000001;" width="64" x="1154.8" y="211.107"/><text fill="#000000" font-family="sans-serif" font-size="11.2" lengthAdjust="spacing" textLength="59.2" x="1157.2" y="227.193">Photograph</text><line style="stroke:#181818;stroke-width:0.4000000000000001;" x1="1155.6" x2="1218" y1="234.0039" y2="234.0039"/><text fill="#000000" font-family="sans-serif" font-size="11.2" lengthAdjust="spacing" textLength="17.6" x="1159.6" y="249.2898">URI</text></g><!--class Residence--><g id="elem_Residence"><rect codeLine="57" fill="#F1F1F1" height="73.9875" id="Residence" rx="2" ry="2" style="stroke:#181818;stroke-width:0.4000000000000001;" width="124" x="1124.8" y="283.507"/><text fill="#000000" font-family="sans-serif" font-size="11.2" font-style="italic" lengthAdjust="spacing" textLength="53.6" x="1160" y="299.593">Residence</text><line style="stroke:#181818;stroke-width:0.4000000000000001;" x1="1125.6" x2="1248" y1="306.4039" y2="306.4039"/><text fill="#000000" font-family="sans-serif" font-size="11.2" lengthAdjust="spacing" textLength="89.6" x="1129.6" y="321.6898">numberBedrooms</text><text fill="#000000" font-family="sans-serif" font-size="11.2" lengthAdjust="spacing" textLength="92.8" x="1129.6" y="336.5867">numberBathrooms</text><text fill="#000000" font-family="sans-serif" font-size="11.2" lengthAdjust="spacing" textLength="114.4" x="1129.6" y="351.4836">numberParkingSpaces</text></g><!--class Address--><g id="elem_Address"><rect codeLine="63" fill="#F1F1F1" height="88.8844" id="Address" rx="2" ry="2" style="stroke:#181818;stroke-width:0.4000000000000001;" width="67.2" x="954.4" y="324.707"/><text fill="#000000" font-family="sans-serif" font-size="11.2" font-style="italic" lengthAdjust="spacing" textLength="41.6" x="967.2" y="340.793">Address</text><line style="stroke:#181818;stroke-width:0.4000000000000001;" x1="955.2" x2="1020.8" y1="347.6039" y2="347.6039"/><text fill="#000000" font-family="sans-serif" font-size="11.2" lengthAdjust="spacing" textLength="57.6" x="959.2" y="362.8898">streetName</text><text fill="#000000" font-family="sans-serif" font-size="11.2" lengthAdjust="spacing" textLength="45.6" x="959.2" y="377.7867">cityName</text><text fill="#000000" font-family="sans-serif" font-size="11.2" lengthAdjust="spacing" textLength="40.8" x="959.2" y="392.6836">zipCode</text><text fill="#000000" font-family="sans-serif" font-size="11.2" lengthAdjust="spacing" textLength="32.8" x="959.2" y="407.5805">district</text></g><!--class House--><g id="elem_House"><rect codeLine="70" fill="#F1F1F1" height="73.9875" id="House" rx="2" ry="2" style="stroke:#181818;stroke-width:0.4000000000000001;" width="107.2" x="1325.6" y="236.307"/><text fill="#000000" font-family="sans-serif" font-size="11.2" lengthAdjust="spacing" textLength="32" x="1363.2" y="252.393">House</text><line style="stroke:#181818;stroke-width:0.4000000000000001;" x1="1326.4" x2="1432" y1="259.2039" y2="259.2039"/><text fill="#000000" font-family="sans-serif" font-size="11.2" lengthAdjust="spacing" textLength="97.6" x="1330.4" y="274.4898">existenceBasement</text><text fill="#000000" font-family="sans-serif" font-size="11.2" lengthAdjust="spacing" textLength="66.4" x="1330.4" y="289.3867">existenceLoft</text><text fill="#000000" font-family="sans-serif" font-size="11.2" lengthAdjust="spacing" textLength="65.6" x="1330.4" y="304.2836">sunExposure</text></g><!--class Person--><g id="elem_Person"><rect codeLine="76" fill="#F1F1F1" height="103.7813" id="Person" rx="2" ry="2" style="stroke:#181818;stroke-width:0.4000000000000001;" width="117.6" x="249.2" y="317.107"/><text fill="#000000" font-family="sans-serif" font-size="11.2" font-style="italic" lengthAdjust="spacing" textLength="36" x="290" y="333.193">Person</text><line style="stroke:#181818;stroke-width:0.4000000000000001;" x1="250" x2="366" y1="340.0039" y2="340.0039"/><text fill="#000000" font-family="sans-serif" font-size="11.2" lengthAdjust="spacing" textLength="28" x="254" y="355.2898">name</text><text fill="#000000" font-family="sans-serif" font-size="11.2" lengthAdjust="spacing" textLength="108" x="254" y="370.1867">passportCardNumber</text><text fill="#000000" font-family="sans-serif" font-size="11.2" lengthAdjust="spacing" textLength="53.6" x="254" y="385.0836">taxNumber</text><text fill="#000000" font-family="sans-serif" font-size="11.2" lengthAdjust="spacing" textLength="68" x="254" y="399.9805">emailAddress</text><text fill="#000000" font-family="sans-serif" font-size="11.2" lengthAdjust="spacing" textLength="71.2" x="254" y="414.8773">phoneNumber</text></g><!--class Store--><g id="elem_Store"><rect codeLine="84" fill="#F1F1F1" height="88.8844" id="Store" rx="2" ry="2" style="stroke:#181818;stroke-width:0.4000000000000001;" width="80.8" x="947.6" y="487.107"/><text fill="#000000" font-family="sans-serif" font-size="11.2" lengthAdjust="spacing" textLength="27.2" x="974.4" y="503.193">Store</text><line style="stroke:#181818;stroke-width:0.4000000000000001;" x1="948.4" x2="1027.6" y1="510.0039" y2="510.0039"/><text fill="#000000" font-family="sans-serif" font-size="11.2" lengthAdjust="spacing" textLength="10.4" x="952.4" y="525.2898">ID</text><text fill="#000000" font-family="sans-serif" font-size="11.2" lengthAdjust="spacing" textLength="58.4" x="952.4" y="540.1867">designation</text><text fill="#000000" font-family="sans-serif" font-size="11.2" lengthAdjust="spacing" textLength="71.2" x="952.4" y="555.0836">phoneNumber</text><text fill="#000000" font-family="sans-serif" font-size="11.2" lengthAdjust="spacing" textLength="68" x="952.4" y="569.9805">emailAddress</text></g><!--class NetworkManager--><g id="elem_NetworkManager"><rect codeLine="91" fill="#F1F1F1" height="29.2969" id="NetworkManager" rx="2" ry="2" style="stroke:#181818;stroke-width:0.4000000000000001;" width="116.8" x="636" y="559.107"/><text fill="#000000" font-family="sans-serif" font-size="11.2" lengthAdjust="spacing" textLength="112" x="638.4" y="575.193">StoreNetworkManager</text><line style="stroke:#181818;stroke-width:0.4000000000000001;" x1="636.8" x2="752" y1="582.0039" y2="582.0039"/></g><!--class Manager--><g id="elem_Manager"><rect codeLine="95" fill="#F1F1F1" height="29.2969" id="Manager" rx="2" ry="2" style="stroke:#181818;stroke-width:0.4000000000000001;" width="76.8" x="391.2" y="614.307"/><text fill="#000000" font-family="sans-serif" font-size="11.2" lengthAdjust="spacing" textLength="72" x="393.6" y="630.393">StoreManager</text><line style="stroke:#181818;stroke-width:0.4000000000000001;" x1="392" x2="467.2" y1="637.2039" y2="637.2039"/></g><!--class Administrator--><g id="elem_Administrator"><rect codeLine="99" fill="#F1F1F1" height="29.2969" id="Administrator" rx="2" ry="2" style="stroke:#181818;stroke-width:0.4000000000000001;" width="108" x="23.2" y="623.907"/><text fill="#000000" font-family="sans-serif" font-size="11.2" lengthAdjust="spacing" textLength="103.2" x="25.6" y="639.993">SystemAdministrator</text><line style="stroke:#181818;stroke-width:0.4000000000000001;" x1="24" x2="130.4" y1="646.8039" y2="646.8039"/></g><!--class AdvertisementRequest--><g id="elem_AdvertisementRequest"><rect codeLine="102" fill="#F1F1F1" height="29.2969" id="AdvertisementRequest" rx="2" ry="2" style="stroke:#181818;stroke-width:0.4000000000000001;" width="118.4" x="248.8" y="156.707"/><text fill="#000000" font-family="sans-serif" font-size="11.2" font-style="italic" lengthAdjust="spacing" textLength="113.6" x="251.2" y="172.793">AdvertisementRequest</text><line style="stroke:#181818;stroke-width:0.4000000000000001;" x1="249.6" x2="366.4" y1="179.6039" y2="179.6039"/></g><!--class RequestType--><g id="elem_RequestType"><rect codeLine="105" fill="#F1F1F1" height="59.0906" id="RequestType" rx="2" ry="2" style="stroke:#181818;stroke-width:0.4000000000000001;" width="72.8" x="40.8" y="141.907"/><text fill="#000000" font-family="sans-serif" font-size="11.2" lengthAdjust="spacing" textLength="68" x="43.2" y="157.993">RequestType</text><line style="stroke:#181818;stroke-width:0.4000000000000001;" x1="41.6" x2="112.8" y1="164.8039" y2="164.8039"/><text fill="#000000" font-family="sans-serif" font-size="11.2" lengthAdjust="spacing" textLength="20.8" x="45.6" y="180.0898">sale</text><text fill="#000000" font-family="sans-serif" font-size="11.2" lengthAdjust="spacing" textLength="20" x="45.6" y="194.9867">rent</text></g><!--class SaleAdvertisementRequest--><g id="elem_SaleAdvertisementRequest"><rect codeLine="110" fill="#F1F1F1" height="44.1938" id="SaleAdvertisementRequest" rx="2" ry="2" style="stroke:#181818;stroke-width:0.4000000000000001;" width="141.6" x="6.4" y="69.507"/><text fill="#000000" font-family="sans-serif" font-size="11.2" lengthAdjust="spacing" textLength="136.8" x="8.8" y="85.593">SaleAdvertisementRequest</text><line style="stroke:#181818;stroke-width:0.4000000000000001;" x1="7.2" x2="147.2" y1="92.4039" y2="92.4039"/><text fill="#000000" font-family="sans-serif" font-size="11.2" lengthAdjust="spacing" textLength="47.2" x="11.2" y="107.6898">totalPrice</text></g><!--class RentAdvertisementRequest--><g id="elem_RentAdvertisementRequest"><rect codeLine="114" fill="#F1F1F1" height="44.1938" id="RentAdvertisementRequest" rx="2" ry="2" style="stroke:#181818;stroke-width:0.4000000000000001;" width="143.2" x="5.6" y="229.507"/><text fill="#000000" font-family="sans-serif" font-size="11.2" lengthAdjust="spacing" textLength="138.4" x="8" y="245.593">RentAdvertisementRequest</text><line style="stroke:#181818;stroke-width:0.4000000000000001;" x1="6.4" x2="148" y1="252.4039" y2="252.4039"/><text fill="#000000" font-family="sans-serif" font-size="11.2" lengthAdjust="spacing" textLength="94.4" x="10.4" y="267.6898">rentPricePerMonth</text></g><!--class AvailableEquipment--><g id="elem_AvailableEquipment"><rect codeLine="118" fill="#F1F1F1" height="59.0906" id="AvailableEquipment" rx="2" ry="2" style="stroke:#181818;stroke-width:0.4000000000000001;" width="104" x="1327.2" y="337.907"/><text fill="#000000" font-family="sans-serif" font-size="11.2" lengthAdjust="spacing" textLength="99.2" x="1329.6" y="353.993">AvailableEquipment</text><line style="stroke:#181818;stroke-width:0.4000000000000001;" x1="1328" x2="1430.4" y1="360.8039" y2="360.8039"/><text fill="#000000" font-family="sans-serif" font-size="11.2" lengthAdjust="spacing" textLength="72.8" x="1332" y="376.0898">centralHeating</text><text fill="#000000" font-family="sans-serif" font-size="11.2" lengthAdjust="spacing" textLength="76" x="1332" y="390.9867">airConditioning</text></g><!--link Manager to Store--><g id="link_Manager_Store"><path codeLine="123" d="M468.072,631.635 C528.704,634.851 651.408,637.819 752.8,617.907 C823.768,603.971 901.736,571.531 947.472,550.603 " fill="none" id="Manager-Store" style="stroke:#181818;stroke-width:0.8000000000000002;"/><polygon fill="#000000" points="675.1441,609.7568,667.6173,608.6445,668.401,613.281,675.1441,609.7568" style="stroke:#000000;stroke-width:0.8000000000000002;"/><text fill="#000000" font-family="sans-serif" font-size="10.4" lengthAdjust="spacing" textLength="42.4" x="678.4" y="614.7297">manages</text><text fill="#000000" font-family="sans-serif" font-size="10.4" lengthAdjust="spacing" textLength="5.6" x="474.3918" y="644.3271">1</text><text fill="#000000" font-family="sans-serif" font-size="10.4" lengthAdjust="spacing" textLength="5.6" x="935.5082" y="565.6401">1</text></g><!--link NetworkManager to Store--><g id="link_NetworkManager_Store"><path codeLine="125" d="M752.888,565.531 C810.4,557.179 897.184,544.579 947.416,537.283 " fill="none" id="NetworkManager-Store" style="stroke:#181818;stroke-width:0.8000000000000002;"/><polygon fill="#000000" points="791.5585,543.4486,784.0596,542.1617,784.7354,546.8152,791.5585,543.4486" style="stroke:#000000;stroke-width:0.8000000000000002;"/><text fill="#000000" font-family="sans-serif" font-size="10.4" lengthAdjust="spacing" textLength="51.2" x="794.8" y="548.3297">manages a</text><text fill="#000000" font-family="sans-serif" font-size="10.4" lengthAdjust="spacing" textLength="5.6" x="759.3733" y="576.6188">1</text><text fill="#000000" font-family="sans-serif" font-size="10.4" lengthAdjust="spacing" textLength="16" x="925.1912" y="534.784">1..*</text></g><!--link Property to Agent--><g id="link_Property_Agent"><path codeLine="127" d="M939.12,255.627 C914.168,266.251 882.848,277.963 853.6,284.307 C747.248,307.371 615.144,305.099 569.344,303.443 " fill="none" id="Property-Agent" style="stroke:#181818;stroke-width:0.8000000000000002;"/><polygon fill="#000000" points="796.433,277.3364,803.9109,278.7402,803.3078,274.0767,796.433,277.3364" style="stroke:#000000;stroke-width:0.8000000000000002;"/><text fill="#000000" font-family="sans-serif" font-size="10.4" lengthAdjust="spacing" textLength="25.6" x="807.6" y="281.1297">has a</text><text fill="#000000" font-family="sans-serif" font-size="10.4" lengthAdjust="spacing" textLength="5.6" x="920.7745" y="270.2309">1</text><text fill="#000000" font-family="sans-serif" font-size="10.4" lengthAdjust="spacing" textLength="5.6" x="575.7428" y="321.104">1</text></g><!--link Property to Address--><g id="link_Property_Address"><path codeLine="128" d="M988,270.011 C988,286.843 988,306.915 988,324.579 " fill="none" id="Property-Address" style="stroke:#181818;stroke-width:0.8000000000000002;"/><polygon fill="#000000" points="953.2,301.4234,955.5511,294.1874,950.8489,294.1874,953.2,301.4234" style="stroke:#000000;stroke-width:0.8000000000000002;"/><text fill="#000000" font-family="sans-serif" font-size="10.4" lengthAdjust="spacing" textLength="45.6" x="960.4" y="301.7297">located at</text><text fill="#000000" font-family="sans-serif" font-size="10.4" lengthAdjust="spacing" textLength="5.6" x="981.9713" y="287.914">1</text><text fill="#000000" font-family="sans-serif" font-size="10.4" lengthAdjust="spacing" textLength="5.6" x="982.0413" y="315.6348">1</text></g><!--reverse link Property to Residence--><g id="link_Property_Residence"><path codeLine="129" d="M1051.808,260.971 C1075.048,271.243 1101.336,282.867 1124.448,293.091 " fill="none" id="Property-backto-Residence" style="stroke:#181818;stroke-width:0.8000000000000002;"/><polygon fill="none" points="1049.408,266.027,1037.04,254.435,1053.936,255.787,1049.408,266.027" style="stroke:#181818;stroke-width:0.8000000000000002;"/></g><!--reverse link Property to PropertyType--><g id="link_Property_PropertyType"><path codeLine="130" d="M1051.88,205.211 C1084.184,190.931 1122.352,174.051 1149.696,161.963 " fill="none" id="Property-backto-PropertyType" style="stroke:#181818;stroke-width:0.8000000000000002;"/><polygon fill="none" points="1053.936,210.427,1037.04,211.779,1049.408,200.187,1053.936,210.427" style="stroke:#181818;stroke-width:0.8000000000000002;"/></g><!--link Property to Photograph--><g id="link_Property_Photograph"><path codeLine="131" d="M1037.04,233.107 C1073.64,233.107 1122.904,233.107 1154.56,233.107 " fill="none" id="Property-Photograph" style="stroke:#181818;stroke-width:0.8000000000000002;"/><polygon fill="#000000" points="1068.8,225.6234,1061.5639,223.2723,1061.5639,227.9746,1068.8,225.6234" style="stroke:#000000;stroke-width:0.8000000000000002;"/><text fill="#000000" font-family="sans-serif" font-size="10.4" lengthAdjust="spacing" textLength="28" x="1072" y="229.9297">needs</text><text fill="#000000" font-family="sans-serif" font-size="10.4" lengthAdjust="spacing" textLength="5.6" x="1043.358" y="245.149">1</text><text fill="#000000" font-family="sans-serif" font-size="10.4" lengthAdjust="spacing" textLength="11.2" x="1137.0928" y="245.4592">30</text></g><!--link Address to Store--><g id="link_Address_Store"><path codeLine="133" d="M988,413.595 C988,436.403 988,464.099 988,486.915 " fill="none" id="Address-Store" style="stroke:#181818;stroke-width:0.8000000000000002;"/><polygon fill="#000000" points="953.2,446.4234,950.8489,453.6595,955.5511,453.6595,953.2,446.4234" style="stroke:#000000;stroke-width:0.8000000000000002;"/><text fill="#000000" font-family="sans-serif" font-size="10.4" lengthAdjust="spacing" textLength="45.6" x="960.4" y="454.7297">located at</text><text fill="#000000" font-family="sans-serif" font-size="10.4" lengthAdjust="spacing" textLength="5.6" x="982.0588" y="431.0775">1</text><text fill="#000000" font-family="sans-serif" font-size="10.4" lengthAdjust="spacing" textLength="5.6" x="982.0413" y="477.9626">1</text></g><!--link Person to Address--><g id="link_Person_Address"><path codeLine="135" d="M366.936,369.107 C504.44,369.107 846.232,369.107 954.064,369.107 " fill="none" id="Person-Address" style="stroke:#181818;stroke-width:0.8000000000000002;"/><polygon fill="#000000" points="673.6,361.6234,666.3639,359.2723,666.3639,363.9746,673.6,361.6234" style="stroke:#000000;stroke-width:0.8000000000000002;"/><text fill="#000000" font-family="sans-serif" font-size="10.4" lengthAdjust="spacing" textLength="45.6" x="676.8" y="365.9297">located at</text><text fill="#000000" font-family="sans-serif" font-size="10.4" lengthAdjust="spacing" textLength="5.6" x="373.3025" y="381.0542">1</text><text fill="#000000" font-family="sans-serif" font-size="10.4" lengthAdjust="spacing" textLength="5.6" x="942.3796" y="381.4682">1</text></g><!--link Administrator to Employee--><g id="link_Administrator_Employee"><path codeLine="137" d="M103.408,623.899 C147.464,598.219 237.544,545.707 281.68,519.979 " fill="none" id="Administrator-Employee" style="stroke:#181818;stroke-width:0.8000000000000002;"/><polygon fill="#000000" points="180.2557,546.009,172.8202,547.6219,175.1883,551.6844,180.2557,546.009" style="stroke:#000000;stroke-width:0.8000000000000002;"/><text fill="#000000" font-family="sans-serif" font-size="10.4" lengthAdjust="spacing" textLength="40" x="184" y="552.3297">registers</text><text fill="#000000" font-family="sans-serif" font-size="10.4" lengthAdjust="spacing" textLength="5.6" x="104.9767" y="614.9863">1</text><text fill="#000000" font-family="sans-serif" font-size="10.4" lengthAdjust="spacing" textLength="16" x="258.6015" y="535.7268">1..*</text></g><!--reverse link Employee to Manager--><g id="link_Employee_Manager"><path codeLine="138" d="M328.448,533.531 C343.968,554.747 366.984,583.659 391.2,605.107 C394.792,608.291 398.856,611.339 402.944,614.131 " fill="none" id="Employee-backto-Manager" style="stroke:#181818;stroke-width:0.8000000000000002;"/><polygon fill="none" points="323.712,536.531,318.984,520.259,332.832,530.027,323.712,536.531" style="stroke:#181818;stroke-width:0.8000000000000002;"/></g><!--reverse link Employee to NetworkManager--><g id="link_Employee_NetworkManager"><path codeLine="139" d="M350.728,519.227 C387.528,531.035 442.72,547.347 492,556.307 C540.048,565.043 595.352,569.475 635.872,571.715 " fill="none" id="Employee-backto-NetworkManager" style="stroke:#181818;stroke-width:0.8000000000000002;"/><polygon fill="none" points="348.912,524.523,335.44,514.235,352.392,513.875,348.912,524.523" style="stroke:#181818;stroke-width:0.8000000000000002;"/></g><!--reverse link Employee to Agent--><g id="link_Employee_Agent"><path codeLine="141" d="M331.96,477.883 C342.76,465.099 355.728,449.595 367.2,435.507 C378.064,422.155 378.44,416.659 391.2,405.107 C438.016,362.715 504.32,326.443 534.76,310.859 " fill="none" id="Employee-backto-Agent" style="stroke:#181818;stroke-width:0.8000000000000002;"/><polygon fill="none" points="336.08,481.691,321.464,490.283,327.528,474.451,336.08,481.691" style="stroke:#181818;stroke-width:0.8000000000000002;"/></g><!--reverse link Employee to OrganizationRole--><g id="link_Employee_OrganizationRole"><path codeLine="142" d="M351.4,505.107 C390.376,505.107 448.432,505.107 491.936,505.107 " fill="none" id="Employee-backto-OrganizationRole" style="stroke:#181818;stroke-width:0.8000000000000002;"/><polygon fill="none" points="351.2,510.707,335.2,505.107,351.2,499.507,351.2,510.707" style="stroke:#181818;stroke-width:0.8000000000000002;"/></g><!--link Employee to Store--><g id="link_Employee_Store"><path codeLine="143" d="M335.336,495.379 C370.56,483.027 434.952,462.411 492,454.707 C544.856,447.571 559.632,444.619 612,454.707 C623.28,456.883 624.976,461.083 636,464.307 C746.664,496.707 881.632,517.467 947.376,526.419 " fill="none" id="Employee-Store" style="stroke:#181818;stroke-width:0.8000000000000002;"/><polygon fill="#000000" points="677.1949,457.026,670.0872,454.3114,669.849,459.0077,677.1949,457.026" style="stroke:#000000;stroke-width:0.8000000000000002;"/><text fill="#000000" font-family="sans-serif" font-size="10.4" lengthAdjust="spacing" textLength="38.4" x="680.4" y="461.1297">works in</text></g><!--link Client to Property--><g id="link_Client_Property"><path codeLine="145" d="M568.944,81.219 C615.368,79.851 752.344,80.091 853.6,124.307 C891.704,140.947 927.816,171.595 952.864,196.131 " fill="none" id="Client-Property" style="stroke:#181818;stroke-width:0.8000000000000002;"/><polygon fill="#000000" points="793.768,91.6765,800.026,96.0038,801.3744,91.4989,793.768,91.6765" style="stroke:#000000;stroke-width:0.8000000000000002;"/><text fill="#000000" font-family="sans-serif" font-size="10.4" lengthAdjust="spacing" textLength="31.2" x="804.8" y="97.1297">has an</text><text fill="#000000" font-family="sans-serif" font-size="10.4" lengthAdjust="spacing" textLength="16" x="575.3359" y="94.0766">1..*</text><text fill="#000000" font-family="sans-serif" font-size="10.4" lengthAdjust="spacing" textLength="5.6" x="941.6922" y="187.3127">1</text></g><!--link Agent to Store--><g id="link_Agent_Store"><path codeLine="147" d="M560.912,317.539 C573.824,339.715 601.184,381.291 636,403.507 C744.104,472.483 799.984,420.003 915.2,476.307 C926.376,481.771 937.512,489.115 947.568,496.667 " fill="none" id="Agent-Store" style="stroke:#181818;stroke-width:0.8000000000000002;"/><polygon fill="#000000" points="797.6294,438.5049,792.052,433.3298,790.0754,437.5965,797.6294,438.5049" style="stroke:#000000;stroke-width:0.8000000000000002;"/><text fill="#000000" font-family="sans-serif" font-size="10.4" lengthAdjust="spacing" textLength="38.4" x="801.2" y="441.1297">works in</text><text fill="#000000" font-family="sans-serif" font-size="10.4" lengthAdjust="spacing" textLength="5.6" x="557.031" y="334.9211">1</text><text fill="#000000" font-family="sans-serif" font-size="10.4" lengthAdjust="spacing" textLength="5.6" x="935.6183" y="503.7822">1</text></g><!--link Agent to Commission--><g id="link_Agent_Commission"><path codeLine="148" d="M569.416,291.843 C581.448,283.843 597.976,272.547 612,261.907 C623.064,253.515 624.376,249.499 636,241.907 C684.384,210.323 745.56,182.163 782.248,166.395 " fill="none" id="Agent-Commission" style="stroke:#181818;stroke-width:0.8000000000000002;"/><polygon fill="#000000" points="679.4459,171.5923,672.0183,173.2412,674.406,177.2921,679.4459,171.5923" style="stroke:#000000;stroke-width:0.8000000000000002;"/><text fill="#000000" font-family="sans-serif" font-size="10.4" lengthAdjust="spacing" textLength="32.8" x="683.2" y="177.9297">defines</text><text fill="#000000" font-family="sans-serif" font-size="10.4" lengthAdjust="spacing" textLength="5.6" x="575.6072" y="301.9032">1</text><text fill="#000000" font-family="sans-serif" font-size="10.4" lengthAdjust="spacing" textLength="5.6" x="770.5031" y="181.1164">1</text></g><!--link Agent to Advertisement--><g id="link_Agent_Advertisement"><path codeLine="150" d="M569.248,300.979 C603.928,297.011 686.768,285.827 752.8,263.507 C760.712,260.835 768.896,257.347 776.624,253.699 " fill="none" id="Agent-Advertisement" style="stroke:#181818;stroke-width:0.8000000000000002;"/><polygon fill="#000000" points="674.2999,255.1343,666.7223,254.4505,667.7675,259.0351,674.2999,255.1343" style="stroke:#000000;stroke-width:0.8000000000000002;"/><text fill="#000000" font-family="sans-serif" font-size="10.4" lengthAdjust="spacing" textLength="44" x="677.6" y="260.3297">publishes</text><text fill="#000000" font-family="sans-serif" font-size="10.4" lengthAdjust="spacing" textLength="5.6" x="575.6383" y="313.9038">1</text><text fill="#000000" font-family="sans-serif" font-size="10.4" lengthAdjust="spacing" textLength="4" x="766.4108" y="269.1191">*</text></g><!--link Commission to Advertisement--><g id="link_Commission_Advertisement"><path codeLine="151" d="M815.2,168.027 C815.2,180.123 815.2,197.347 815.2,211.035 " fill="none" id="Commission-Advertisement" style="stroke:#181818;stroke-width:0.8000000000000002;"/><polygon fill="#000000" points="789.2,185.6234,786.8489,192.8595,791.5511,192.8595,789.2,185.6234" style="stroke:#000000;stroke-width:0.8000000000000002;"/><text fill="#000000" font-family="sans-serif" font-size="10.4" lengthAdjust="spacing" textLength="28" x="796.4" y="193.9297">needs</text><text fill="#000000" font-family="sans-serif" font-size="10.4" lengthAdjust="spacing" textLength="5.6" x="808.8475" y="185.159">1</text><text fill="#000000" font-family="sans-serif" font-size="10.4" lengthAdjust="spacing" textLength="5.6" x="808.9525" y="201.9856">1</text></g><!--link Advertisement to Property--><g id="link_Advertisement_Property"><path codeLine="152" d="M853.784,233.107 C878.896,233.107 912.088,233.107 939.08,233.107 " fill="none" id="Advertisement-Property" style="stroke:#181818;stroke-width:0.8000000000000002;"/><polygon fill="#000000" points="885.6,225.6234,878.3639,223.2723,878.3639,227.9746,885.6,225.6234" style="stroke:#000000;stroke-width:0.8000000000000002;"/><text fill="#000000" font-family="sans-serif" font-size="10.4" lengthAdjust="spacing" textLength="25.6" x="888.8" y="229.9297">has a</text><text fill="#000000" font-family="sans-serif" font-size="10.4" lengthAdjust="spacing" textLength="5.6" x="860.1209" y="245.3739">1</text><text fill="#000000" font-family="sans-serif" font-size="10.4" lengthAdjust="spacing" textLength="5.6" x="927.1766" y="245.149">1</text></g><!--link Residence to AvailableEquipment--><g id="link_Residence_AvailableEquipment"><path codeLine="154" d="M1249.024,335.499 C1274.184,341.723 1302.976,348.851 1327.008,354.795 " fill="none" id="Residence-AvailableEquipment" style="stroke:#181818;stroke-width:0.8000000000000002;"/><polygon fill="#000000" points="1280.6829,335.3842,1274.2234,331.3638,1273.0939,335.9285,1280.6829,335.3842" style="stroke:#000000;stroke-width:0.8000000000000002;"/><text fill="#000000" font-family="sans-serif" font-size="10.4" lengthAdjust="spacing" textLength="16.8" x="1284" y="338.7297">has</text><text fill="#000000" font-family="sans-serif" font-size="10.4" lengthAdjust="spacing" textLength="5.6" x="1255.2216" y="348.8104">1</text><text fill="#000000" font-family="sans-serif" font-size="10.4" lengthAdjust="spacing" textLength="16" x="1304.8007" y="365.4257">1..*</text></g><!--reverse link Residence to House--><g id="link_Residence_House"><path codeLine="155" d="M1264.688,301.235 C1285.088,296.195 1306.64,290.859 1325.44,286.211 " fill="none" id="Residence-backto-House" style="stroke:#181818;stroke-width:0.8000000000000002;"/><polygon fill="none" points="1265.896,306.707,1249.024,305.115,1263.208,295.835,1265.896,306.707" style="stroke:#181818;stroke-width:0.8000000000000002;"/></g><!--reverse link Person to Client--><g id="link_Person_Client"><path codeLine="157" d="M349.52,303.395 C362.424,283.363 377.032,261.475 391.2,241.907 C423.088,197.875 435.824,190.523 468,146.707 C479.384,131.211 477.512,123.355 492,110.707 C504.656,99.659 522.296,91.803 535.024,87.115 " fill="none" id="Person-backto-Client" style="stroke:#181818;stroke-width:0.8000000000000002;"/><polygon fill="none" points="354.216,306.451,340.88,316.923,344.776,300.419,354.216,306.451" style="stroke:#181818;stroke-width:0.8000000000000002;"/></g><!--reverse link Person to Employee--><g id="link_Person_Employee"><path codeLine="158" d="M308,437.347 C308,454.971 308,472.603 308,490.235 " fill="none" id="Person-backto-Employee" style="stroke:#181818;stroke-width:0.8000000000000002;"/><polygon fill="none" points="302.4,437.155,308,421.155,313.6,437.155,302.4,437.155" style="stroke:#181818;stroke-width:0.8000000000000002;"/></g><!--link Administrator to Store--><g id="link_Administrator_Store"><path codeLine="160" d="M112.216,653.539 C156.384,671.307 236.04,698.707 307.2,698.707 C307.2,698.707 307.2,698.707 816,698.707 C886.312,698.707 938.488,625.627 965.768,576.091 " fill="none" id="Administrator-Store" style="stroke:#181818;stroke-width:0.8000000000000002;"/><polygon fill="#000000" points="533.9836,690.862,526.5647,689.1743,526.9896,693.8574,533.9836,690.862" style="stroke:#000000;stroke-width:0.8000000000000002;"/><text fill="#000000" font-family="sans-serif" font-size="10.4" lengthAdjust="spacing" textLength="40" x="537.2" y="695.5297">registers</text><text fill="#000000" font-family="sans-serif" font-size="10.4" lengthAdjust="spacing" textLength="5.6" x="115.6768" y="670.9211">1</text><text fill="#000000" font-family="sans-serif" font-size="10.4" lengthAdjust="spacing" textLength="16" x="946.0835" y="593.5852">1..*</text></g><!--link AdvertisementRequest to Client--><g id="link_AdvertisementRequest_Client"><path codeLine="162" d="M349.096,156.611 C403.352,136.555 497.408,101.787 535,87.899 " fill="none" id="AdvertisementRequest-Client" style="stroke:#181818;stroke-width:0.8000000000000002;"/><polygon fill="#000000" points="405.4481,107.8102,413.0505,107.5069,411.4203,103.0962,405.4481,107.8102" style="stroke:#000000;stroke-width:0.8000000000000002;"/><text fill="#000000" font-family="sans-serif" font-size="10.4" lengthAdjust="spacing" textLength="36.8" x="416.4" y="110.7297">submits</text><text fill="#000000" font-family="sans-serif" font-size="10.4" lengthAdjust="spacing" textLength="16" x="343.2317" y="147.6714">1..*</text><text fill="#000000" font-family="sans-serif" font-size="10.4" lengthAdjust="spacing" textLength="5.6" x="523.0888" y="103.2846">1</text></g><!--link AdvertisementRequest to Property--><g id="link_AdvertisementRequest_Property"><path codeLine="163" d="M321.088,156.539 C336.08,139.091 362.936,110.355 391.2,92.307 C475.208,38.667 512.464,48.027 612,53.107 C719.84,58.611 754.072,36.835 853.6,78.707 C907.024,101.179 946.704,157.931 968.4,196.003 " fill="none" id="AdvertisementRequest-Property" style="stroke:#181818;stroke-width:0.8000000000000002;"/><polygon fill="#000000" points="673.9926,45.0668,666.913,42.2797,666.6269,46.9733,673.9926,45.0668" style="stroke:#000000;stroke-width:0.8000000000000002;"/><text fill="#000000" font-family="sans-serif" font-size="10.4" lengthAdjust="spacing" textLength="44.8" x="677.2" y="49.1297">describes</text><text fill="#000000" font-family="sans-serif" font-size="10.4" lengthAdjust="spacing" textLength="5.6" x="318.6387" y="147.5773">1</text><text fill="#000000" font-family="sans-serif" font-size="10.4" lengthAdjust="spacing" textLength="5.6" x="959.51" y="187.1659">1</text></g><!--link AdvertisementRequest to Agent--><g id="link_AdvertisementRequest_Agent"><path codeLine="164" d="M317.968,186.459 C331.416,207.067 358.472,243.875 391.2,263.507 C438.168,291.683 504.4,299.643 534.792,301.859 " fill="none" id="AdvertisementRequest-Agent" style="stroke:#181818;stroke-width:0.8000000000000002;"/><polygon fill="#000000" points="410.069,254.1441,415.352,259.6193,417.5613,255.4683,410.069,254.1441" style="stroke:#000000;stroke-width:0.8000000000000002;"/><text fill="#000000" font-family="sans-serif" font-size="10.4" lengthAdjust="spacing" textLength="28" x="420.8" y="260.3297">opens</text><text fill="#000000" font-family="sans-serif" font-size="10.4" lengthAdjust="spacing" textLength="5.6" x="314.2944" y="203.5996">1</text><text fill="#000000" font-family="sans-serif" font-size="10.4" lengthAdjust="spacing" textLength="16" x="512.3325" y="314.6756">1..*</text></g><!--link AdvertisementRequest to Advertisement--><g id="link_AdvertisementRequest_Advertisement"><path codeLine="165" d="M362.064,186.331 C398.376,195.819 447.736,207.515 492,213.907 C594.248,228.675 716.32,232.131 776.712,232.907 " fill="none" id="AdvertisementRequest-Advertisement" style="stroke:#181818;stroke-width:0.8000000000000002;"/><polygon fill="#000000" points="532.775,206.8699,525.8466,203.7258,525.3217,208.3987,532.775,206.8699" style="stroke:#000000;stroke-width:0.8000000000000002;"/><text fill="#000000" font-family="sans-serif" font-size="10.4" lengthAdjust="spacing" textLength="42.4" x="536" y="210.7297">becomes</text><text fill="#000000" font-family="sans-serif" font-size="10.4" lengthAdjust="spacing" textLength="5.6" x="370.882" y="203.7108">1</text><text fill="#000000" font-family="sans-serif" font-size="10.4" lengthAdjust="spacing" textLength="5.6" x="764.7898" y="245.1433">1</text></g><!--link SaleAdvertisementRequest to AdvertisementRequest--><g id="link_SaleAdvertisementRequest_AdvertisementRequest"><path codeLine="166" d="M141.24,113.579 C175.016,125.371 216.312,139.779 249.256,151.283 " fill="none" id="SaleAdvertisementRequest-to-AdvertisementRequest" style="stroke:#181818;stroke-width:0.8000000000000002;"/><polygon fill="none" points="251.192,146.027,264.448,156.587,247.496,156.603,251.192,146.027" style="stroke:#181818;stroke-width:0.8000000000000002;"/></g><!--link RentAdvertisementRequest to AdvertisementRequest--><g id="link_RentAdvertisementRequest_AdvertisementRequest"><path codeLine="167" d="M141.24,229.435 C175.016,217.643 216.312,203.235 249.256,191.731 " fill="none" id="RentAdvertisementRequest-to-AdvertisementRequest" style="stroke:#181818;stroke-width:0.8000000000000002;"/><polygon fill="none" points="247.496,186.411,264.448,186.427,251.192,196.987,247.496,186.411" style="stroke:#181818;stroke-width:0.8000000000000002;"/></g><!--link RequestType to AdvertisementRequest--><g id="link_RequestType_AdvertisementRequest"><path codeLine="168" d="M113.816,171.507 C145.512,171.507 192.808,171.507 232.696,171.507 " fill="none" id="RequestType-to-AdvertisementRequest" style="stroke:#181818;stroke-width:0.8000000000000002;"/><polygon fill="none" points="232.696,165.907,248.696,171.507,232.696,177.107,232.696,165.907" style="stroke:#181818;stroke-width:0.8000000000000002;"/></g><!--link CommissionType to Commission--><g id="link_CommissionType_Commission"><path codeLine="170" d="M597.768,154.435 C644.712,154.147 718.056,153.699 766.176,153.403 " fill="none" id="CommissionType-to-Commission" style="stroke:#181818;stroke-width:0.8000000000000002;"/><polygon fill="none" points="766.328,147.803,782.36,153.299,766.4,159.003,766.328,147.803" style="stroke:#181818;stroke-width:0.8000000000000002;"/></g><!--SRC=[ZLRRRjGm47tFLrZxWeHK1E9jLLLQjaLKegNgmWVCnhE9LSSEjWFT0l_E-9B4oQQ5FcoJySnuvfovv9Lz4Ae50mrhjD9bRNI3p9aEY_6aXV81AjoveqHci7IWAfahs1gu_YbKnGuWRNuYXK9tR34y518FZZdDZAXgnxZmleHMcNufmTgDSqRiEuVNfLOxyOJiRL4BZgmKfgIBmtE3hjRS5eKJZiAwr0q8nMuqHraKmGtRLAWS-rNy6GJy1nedB3RnWD4V1uUZnbOtZR2MWgBZ9V5NdqoqF8X7v9j6Tyg5znPDINu9AMy8U-iCb2wcnAwQLkeZOXxE5rE14a_WCRZNilSBFkpmP9qsU0EA96OKtABxgSr3By-Yb698U7RzdT4KdZlsLnY46BCH9KOSX2LUI_n85R0LxZYwxMspr2Ke7XvgtTbe3qIWyxXcXhLskZBGridis_trGcptQ8bGkZffgQxPe_c0t6ZTs5m4hfxBxi1GyLGxgb6q2yutd1ka_xyIVWRHtK8JOoufp-7bIRHRgfu1348co-MJJpHvmKSwzW5_W5XAK-bdVKZqTUhgiTMsCqiLSOV6XZ9Z8Pi-3EesQrjjt1OClmqvHhc3n_mLgTvboYuPrbfXKXdYtlcAIPTSNyRa2EzAXQehvdOddWT7gzrfxQqOM3OLJTecskJAorf70gxPy4OeZpkGKL2UI1RBUjBGz_YzGpjf-2JobPiA06I4sKmgTKVYPtm5wBK3UHTQ9NEjt0ictd-m89flj79rDeL-4BwmbtZrlHDjDehyz30WFo5newhOLS9ijUB2a-LbvAI7SFLknSx2R-HupPfmOjb5KSn8MRrZf4mpMj7ZcpUlJst0MmrJWlIzGNGVn-YQrH3LCgq-WhxBrapgaWOgP-1opVFVv6leyvaydoypv-Jz_TjLFaZMJ27oa6DC8UY5nV9284Lgjdz4x3MdHTT74K7hX_YQwAryjniVo33QAPk-m2V2CpOVsVcfP-KiWZopck-7yPWEUmAzNyjezL7iQG6aQ1Dz0wA9GSNEASigAivBAFEMgKITR3UkQOWSQAFRY5Y-LLUl9toasccxlHIs9eFpkRw_e6jFR-XvNb1VJip7CkwIANCBFHUjBZAJ07eOz4F197xIQfrBUpvUhfeUsx5cJb3hPyUKkKJdcXR9lX7k1BlHQWaJ6lCbVKRX2OOdPX6Xn1JPg_-vQKhBcksnf4_7PoyZoBhsxDb1-wBHSwEsoCOxXVNxOd4VK5jClzw2vYZx2m00]--></g></svg>