<?xml version="1.0" encoding="us-ascii" standalone="no"?><svg xmlns="http://www.w3.org/2000/svg" xmlns:xlink="http://www.w3.org/1999/xlink" contentStyleType="text/css" height="741px" preserveAspectRatio="none" style="width:1010px;height:741px;background:#FFFFFF;" version="1.1" viewBox="0 0 1010 741" width="1010px" zoomAndPan="magnify"><defs/><g><!--class ApplicationSession--><g id="elem_ApplicationSession"><rect codeLine="11" fill="#F1F1F1" height="85.2422" id="ApplicationSession" rx="2.5" ry="2.5" style="stroke:#181818;stroke-width:0.5;" width="151" x="12" y="7"/><ellipse cx="27" cy="23" fill="#ADD1B2" rx="11" ry="11" style="stroke:#181818;stroke-width:1.0;"/><path d="M29.7656,18.875 Q29.9219,18.6563 30.1094,18.5469 Q30.2969,18.4375 30.5156,18.4375 Q30.8906,18.4375 31.125,18.7031 Q31.3594,18.9531 31.3594,19.5625 L31.3594,21.0156 Q31.3594,21.625 31.125,21.8906 Q30.8906,22.1563 30.5156,22.1563 Q30.1719,22.1563 29.9688,21.9531 Q29.7656,21.7656 29.6563,21.25 Q29.6094,20.8906 29.4219,20.7031 Q29.0938,20.3281 28.4844,20.1094 Q27.875,19.8906 27.25,19.8906 Q26.4844,19.8906 25.8438,20.2188 Q25.2188,20.5469 24.7188,21.2969 Q24.2344,22.0469 24.2344,23.0781 L24.2344,24.1719 Q24.2344,25.4063 25.125,26.2344 Q26.0156,27.0469 27.6094,27.0469 Q28.5469,27.0469 29.2031,26.7969 Q29.5938,26.6406 30.0156,26.2031 Q30.2813,25.9375 30.4219,25.8594 Q30.5781,25.7813 30.7813,25.7813 Q31.1094,25.7813 31.3594,26.0469 Q31.625,26.2969 31.625,26.6406 Q31.625,26.9844 31.2813,27.3906 Q30.7813,27.9688 29.9844,28.2969 Q28.9063,28.75 27.6094,28.75 Q26.0938,28.75 24.8906,28.125 Q23.9063,27.625 23.2188,26.5625 Q22.5313,25.4844 22.5313,24.2031 L22.5313,23.0469 Q22.5313,21.7188 23.1406,20.5781 Q23.7656,19.4219 24.8594,18.8125 Q25.9531,18.1875 27.1875,18.1875 Q27.9219,18.1875 28.5625,18.3594 Q29.2188,18.5156 29.7656,18.875 Z " fill="#000000"/><text fill="#000000" font-family="sans-serif" font-size="14" lengthAdjust="spacing" textLength="119" x="41" y="28.7969">ApplicationSession</text><line style="stroke:#181818;stroke-width:0.5;" x1="13" x2="162" y1="39" y2="39"/><line style="stroke:#181818;stroke-width:0.5;" x1="13" x2="162" y1="47" y2="47"/><text fill="#000000" font-family="sans-serif" font-size="14" lengthAdjust="spacing" textLength="128" x="18" y="66.1074">+static getInstance()</text><text fill="#000000" font-family="sans-serif" font-size="14" lengthAdjust="spacing" textLength="136" x="18" y="84.7285">+getCurrentSession()</text></g><!--class UserSession--><g id="elem_UserSession"><rect codeLine="17" fill="#F1F1F1" height="66.6211" id="UserSession" rx="2.5" ry="2.5" style="stroke:#181818;stroke-width:0.5;" width="113" x="31" y="171"/><ellipse cx="46.9" cy="187" fill="#ADD1B2" rx="11" ry="11" style="stroke:#181818;stroke-width:1.0;"/><path d="M49.6656,182.875 Q49.8219,182.6563 50.0094,182.5469 Q50.1969,182.4375 50.4156,182.4375 Q50.7906,182.4375 51.025,182.7031 Q51.2594,182.9531 51.2594,183.5625 L51.2594,185.0156 Q51.2594,185.625 51.025,185.8906 Q50.7906,186.1563 50.4156,186.1563 Q50.0719,186.1563 49.8688,185.9531 Q49.6656,185.7656 49.5563,185.25 Q49.5094,184.8906 49.3219,184.7031 Q48.9938,184.3281 48.3844,184.1094 Q47.775,183.8906 47.15,183.8906 Q46.3844,183.8906 45.7438,184.2188 Q45.1188,184.5469 44.6188,185.2969 Q44.1344,186.0469 44.1344,187.0781 L44.1344,188.1719 Q44.1344,189.4063 45.025,190.2344 Q45.9156,191.0469 47.5094,191.0469 Q48.4469,191.0469 49.1031,190.7969 Q49.4938,190.6406 49.9156,190.2031 Q50.1813,189.9375 50.3219,189.8594 Q50.4781,189.7813 50.6813,189.7813 Q51.0094,189.7813 51.2594,190.0469 Q51.525,190.2969 51.525,190.6406 Q51.525,190.9844 51.1813,191.3906 Q50.6813,191.9688 49.8844,192.2969 Q48.8063,192.75 47.5094,192.75 Q45.9938,192.75 44.7906,192.125 Q43.8063,191.625 43.1188,190.5625 Q42.4313,189.4844 42.4313,188.2031 L42.4313,187.0469 Q42.4313,185.7188 43.0406,184.5781 Q43.6656,183.4219 44.7594,182.8125 Q45.8531,182.1875 47.0875,182.1875 Q47.8219,182.1875 48.4625,182.3594 Q49.1188,182.5156 49.6656,182.875 Z " fill="#000000"/><text fill="#000000" font-family="sans-serif" font-size="14" lengthAdjust="spacing" textLength="79" x="61.1" y="192.7969">UserSession</text><line style="stroke:#181818;stroke-width:0.5;" x1="32" x2="143" y1="203" y2="203"/><line style="stroke:#181818;stroke-width:0.5;" x1="32" x2="143" y1="211" y2="211"/><text fill="#000000" font-family="sans-serif" font-size="14" lengthAdjust="spacing" textLength="101" x="37" y="230.1074">+getUserEmail()</text></g><!--class RegisterEmployeeController--><g id="elem_RegisterEmployeeController"><rect codeLine="22" fill="#F1F1F1" height="85.2422" id="RegisterEmployeeController" rx="2.5" ry="2.5" style="stroke:#181818;stroke-width:0.5;" width="607" x="203" y="317.5"/><ellipse cx="413.75" cy="333.5" fill="#ADD1B2" rx="11" ry="11" style="stroke:#181818;stroke-width:1.0;"/><path d="M416.5156,329.375 Q416.6719,329.1563 416.8594,329.0469 Q417.0469,328.9375 417.2656,328.9375 Q417.6406,328.9375 417.875,329.2031 Q418.1094,329.4531 418.1094,330.0625 L418.1094,331.5156 Q418.1094,332.125 417.875,332.3906 Q417.6406,332.6563 417.2656,332.6563 Q416.9219,332.6563 416.7188,332.4531 Q416.5156,332.2656 416.4063,331.75 Q416.3594,331.3906 416.1719,331.2031 Q415.8438,330.8281 415.2344,330.6094 Q414.625,330.3906 414,330.3906 Q413.2344,330.3906 412.5938,330.7188 Q411.9688,331.0469 411.4688,331.7969 Q410.9844,332.5469 410.9844,333.5781 L410.9844,334.6719 Q410.9844,335.9063 411.875,336.7344 Q412.7656,337.5469 414.3594,337.5469 Q415.2969,337.5469 415.9531,337.2969 Q416.3438,337.1406 416.7656,336.7031 Q417.0313,336.4375 417.1719,336.3594 Q417.3281,336.2813 417.5313,336.2813 Q417.8594,336.2813 418.1094,336.5469 Q418.375,336.7969 418.375,337.1406 Q418.375,337.4844 418.0313,337.8906 Q417.5313,338.4688 416.7344,338.7969 Q415.6563,339.25 414.3594,339.25 Q412.8438,339.25 411.6406,338.625 Q410.6563,338.125 409.9688,337.0625 Q409.2813,335.9844 409.2813,334.7031 L409.2813,333.5469 Q409.2813,332.2188 409.8906,331.0781 Q410.5156,329.9219 411.6094,329.3125 Q412.7031,328.6875 413.9375,328.6875 Q414.6719,328.6875 415.3125,328.8594 Q415.9688,329.0156 416.5156,329.375 Z " fill="#000000"/><text fill="#000000" font-family="sans-serif" font-size="14" lengthAdjust="spacing" textLength="177" x="434.25" y="339.2969">RegisterEmployeeController</text><line style="stroke:#181818;stroke-width:0.5;" x1="204" x2="809" y1="349.5" y2="349.5"/><line style="stroke:#181818;stroke-width:0.5;" x1="204" x2="809" y1="357.5" y2="357.5"/><text fill="#000000" font-family="sans-serif" font-size="14" lengthAdjust="spacing" textLength="595" x="209" y="376.6074">+createEmployee(name, phoneNumber, email, address, citizenCardNumber, EmployeeID,Role)</text><text fill="#000000" font-family="sans-serif" font-size="14" lengthAdjust="spacing" textLength="110" x="209" y="395.2285">+saveEmployee()</text></g><!--class PasswordGenerator--><g id="elem_PasswordGenerator"><rect codeLine="26" fill="#F1F1F1" height="66.6211" id="PasswordGenerator" rx="2.5" ry="2.5" style="stroke:#181818;stroke-width:0.5;" width="158" x="845.5" y="326.5"/><ellipse cx="860.5" cy="342.5" fill="#ADD1B2" rx="11" ry="11" style="stroke:#181818;stroke-width:1.0;"/><path d="M863.2656,338.375 Q863.4219,338.1563 863.6094,338.0469 Q863.7969,337.9375 864.0156,337.9375 Q864.3906,337.9375 864.625,338.2031 Q864.8594,338.4531 864.8594,339.0625 L864.8594,340.5156 Q864.8594,341.125 864.625,341.3906 Q864.3906,341.6563 864.0156,341.6563 Q863.6719,341.6563 863.4688,341.4531 Q863.2656,341.2656 863.1563,340.75 Q863.1094,340.3906 862.9219,340.2031 Q862.5938,339.8281 861.9844,339.6094 Q861.375,339.3906 860.75,339.3906 Q859.9844,339.3906 859.3438,339.7188 Q858.7188,340.0469 858.2188,340.7969 Q857.7344,341.5469 857.7344,342.5781 L857.7344,343.6719 Q857.7344,344.9063 858.625,345.7344 Q859.5156,346.5469 861.1094,346.5469 Q862.0469,346.5469 862.7031,346.2969 Q863.0938,346.1406 863.5156,345.7031 Q863.7813,345.4375 863.9219,345.3594 Q864.0781,345.2813 864.2813,345.2813 Q864.6094,345.2813 864.8594,345.5469 Q865.125,345.7969 865.125,346.1406 Q865.125,346.4844 864.7813,346.8906 Q864.2813,347.4688 863.4844,347.7969 Q862.4063,348.25 861.1094,348.25 Q859.5938,348.25 858.3906,347.625 Q857.4063,347.125 856.7188,346.0625 Q856.0313,344.9844 856.0313,343.7031 L856.0313,342.5469 Q856.0313,341.2188 856.6406,340.0781 Q857.2656,338.9219 858.3594,338.3125 Q859.4531,337.6875 860.6875,337.6875 Q861.4219,337.6875 862.0625,337.8594 Q862.7188,338.0156 863.2656,338.375 Z " fill="#000000"/><text fill="#000000" font-family="sans-serif" font-size="14" lengthAdjust="spacing" textLength="126" x="874.5" y="348.2969">PasswordGenerator</text><line style="stroke:#181818;stroke-width:0.5;" x1="846.5" x2="1002.5" y1="358.5" y2="358.5"/><line style="stroke:#181818;stroke-width:0.5;" x1="846.5" x2="1002.5" y1="366.5" y2="366.5"/><text fill="#000000" font-family="sans-serif" font-size="14" lengthAdjust="spacing" textLength="136" x="851.5" y="385.6074">+generatePassword()</text></g><!--class Employee--><g id="elem_Employee"><rect codeLine="29" fill="#F1F1F1" height="252.832" id="Employee" rx="2.5" ry="2.5" style="stroke:#181818;stroke-width:0.5;" width="590" x="85.5" y="482"/><ellipse cx="345.25" cy="498" fill="#ADD1B2" rx="11" ry="11" style="stroke:#181818;stroke-width:1.0;"/><path d="M348.0156,493.875 Q348.1719,493.6563 348.3594,493.5469 Q348.5469,493.4375 348.7656,493.4375 Q349.1406,493.4375 349.375,493.7031 Q349.6094,493.9531 349.6094,494.5625 L349.6094,496.0156 Q349.6094,496.625 349.375,496.8906 Q349.1406,497.1563 348.7656,497.1563 Q348.4219,497.1563 348.2188,496.9531 Q348.0156,496.7656 347.9063,496.25 Q347.8594,495.8906 347.6719,495.7031 Q347.3438,495.3281 346.7344,495.1094 Q346.125,494.8906 345.5,494.8906 Q344.7344,494.8906 344.0938,495.2188 Q343.4688,495.5469 342.9688,496.2969 Q342.4844,497.0469 342.4844,498.0781 L342.4844,499.1719 Q342.4844,500.4063 343.375,501.2344 Q344.2656,502.0469 345.8594,502.0469 Q346.7969,502.0469 347.4531,501.7969 Q347.8438,501.6406 348.2656,501.2031 Q348.5313,500.9375 348.6719,500.8594 Q348.8281,500.7813 349.0313,500.7813 Q349.3594,500.7813 349.6094,501.0469 Q349.875,501.2969 349.875,501.6406 Q349.875,501.9844 349.5313,502.3906 Q349.0313,502.9688 348.2344,503.2969 Q347.1563,503.75 345.8594,503.75 Q344.3438,503.75 343.1406,503.125 Q342.1563,502.625 341.4688,501.5625 Q340.7813,500.4844 340.7813,499.2031 L340.7813,498.0469 Q340.7813,496.7188 341.3906,495.5781 Q342.0156,494.4219 343.1094,493.8125 Q344.2031,493.1875 345.4375,493.1875 Q346.1719,493.1875 346.8125,493.3594 Q347.4688,493.5156 348.0156,493.875 Z " fill="#000000"/><text fill="#000000" font-family="sans-serif" font-size="14" lengthAdjust="spacing" textLength="62" x="365.75" y="503.7969">Employee</text><line style="stroke:#181818;stroke-width:0.5;" x1="86.5" x2="674.5" y1="514" y2="514"/><text fill="#000000" font-family="sans-serif" font-size="14" lengthAdjust="spacing" textLength="85" x="91.5" y="533.1074">-name: String</text><text fill="#000000" font-family="sans-serif" font-size="14" lengthAdjust="spacing" textLength="117" x="91.5" y="551.7285">-phoneNumber: int</text><text fill="#000000" font-family="sans-serif" font-size="14" lengthAdjust="spacing" textLength="83" x="91.5" y="570.3496">-email: String</text><text fill="#000000" font-family="sans-serif" font-size="14" lengthAdjust="spacing" textLength="101" x="91.5" y="588.9707">-address: String</text><text fill="#000000" font-family="sans-serif" font-size="14" lengthAdjust="spacing" textLength="141" x="91.5" y="607.5918">-PassaportNumber: int</text><text fill="#000000" font-family="sans-serif" font-size="14" lengthAdjust="spacing" textLength="103" x="91.5" y="626.2129">-EmployeeID: int</text><text fill="#000000" font-family="sans-serif" font-size="14" lengthAdjust="spacing" textLength="75" x="91.5" y="644.834">-Role:String</text><text fill="#000000" font-family="sans-serif" font-size="14" lengthAdjust="spacing" textLength="71" x="91.5" y="663.4551">-Agency:int</text><line style="stroke:#181818;stroke-width:0.5;" x1="86.5" x2="674.5" y1="670.9688" y2="670.9688"/><text fill="#000000" font-family="sans-serif" font-size="14" lengthAdjust="spacing" textLength="578" x="91.5" y="690.0762">+create(name, phoneNumber, email, address, PassaportNumber, EmployeeID,Role,Agency)</text><text fill="#000000" font-family="sans-serif" font-size="14" lengthAdjust="spacing" textLength="72" x="91.5" y="708.6973">+getEmail()</text><text fill="#000000" font-family="sans-serif" font-size="14" lengthAdjust="spacing" textLength="74" x="91.5" y="727.3184">+getName()</text></g><!--class Repositories--><g id="elem_Repositories"><rect codeLine="44" fill="#F1F1F1" height="103.8633" id="Repositories" rx="2.5" ry="2.5" style="stroke:#181818;stroke-width:0.5;" width="198" x="768.5" y="556.5"/><ellipse cx="823.75" cy="572.5" fill="#ADD1B2" rx="11" ry="11" style="stroke:#181818;stroke-width:1.0;"/><path d="M826.5156,568.375 Q826.6719,568.1563 826.8594,568.0469 Q827.0469,567.9375 827.2656,567.9375 Q827.6406,567.9375 827.875,568.2031 Q828.1094,568.4531 828.1094,569.0625 L828.1094,570.5156 Q828.1094,571.125 827.875,571.3906 Q827.6406,571.6563 827.2656,571.6563 Q826.9219,571.6563 826.7188,571.4531 Q826.5156,571.2656 826.4063,570.75 Q826.3594,570.3906 826.1719,570.2031 Q825.8438,569.8281 825.2344,569.6094 Q824.625,569.3906 824,569.3906 Q823.2344,569.3906 822.5938,569.7188 Q821.9688,570.0469 821.4688,570.7969 Q820.9844,571.5469 820.9844,572.5781 L820.9844,573.6719 Q820.9844,574.9063 821.875,575.7344 Q822.7656,576.5469 824.3594,576.5469 Q825.2969,576.5469 825.9531,576.2969 Q826.3438,576.1406 826.7656,575.7031 Q827.0313,575.4375 827.1719,575.3594 Q827.3281,575.2813 827.5313,575.2813 Q827.8594,575.2813 828.1094,575.5469 Q828.375,575.7969 828.375,576.1406 Q828.375,576.4844 828.0313,576.8906 Q827.5313,577.4688 826.7344,577.7969 Q825.6563,578.25 824.3594,578.25 Q822.8438,578.25 821.6406,577.625 Q820.6563,577.125 819.9688,576.0625 Q819.2813,574.9844 819.2813,573.7031 L819.2813,572.5469 Q819.2813,571.2188 819.8906,570.0781 Q820.5156,568.9219 821.6094,568.3125 Q822.7031,567.6875 823.9375,567.6875 Q824.6719,567.6875 825.3125,567.8594 Q825.9688,568.0156 826.5156,568.375 Z " fill="#000000"/><text fill="#000000" font-family="sans-serif" font-size="14" lengthAdjust="spacing" textLength="79" x="844.25" y="578.2969">Repositories</text><line style="stroke:#181818;stroke-width:0.5;" x1="769.5" x2="965.5" y1="588.5" y2="588.5"/><line style="stroke:#181818;stroke-width:0.5;" x1="769.5" x2="965.5" y1="596.5" y2="596.5"/><text fill="#000000" font-family="sans-serif" font-size="14" lengthAdjust="spacing" textLength="94" x="774.5" y="615.6074">-Repositories()</text><text fill="#000000" font-family="sans-serif" font-size="14" lengthAdjust="spacing" textLength="182" x="774.5" y="634.2285">+getInstance() : Repositories</text><text fill="#000000" font-family="sans-serif" font-size="14" lengthAdjust="spacing" textLength="186" x="774.5" y="652.8496">+getOrganizationRepository()</text></g><!--class SystemAdministrator--><g id="elem_SystemAdministrator"><rect codeLine="49" fill="#F1F1F1" height="122.4844" id="SystemAdministrator" rx="2.5" ry="2.5" style="stroke:#181818;stroke-width:0.5;" width="161" x="7" y="299"/><ellipse cx="22" cy="315" fill="#ADD1B2" rx="11" ry="11" style="stroke:#181818;stroke-width:1.0;"/><path d="M24.7656,310.875 Q24.9219,310.6563 25.1094,310.5469 Q25.2969,310.4375 25.5156,310.4375 Q25.8906,310.4375 26.125,310.7031 Q26.3594,310.9531 26.3594,311.5625 L26.3594,313.0156 Q26.3594,313.625 26.125,313.8906 Q25.8906,314.1563 25.5156,314.1563 Q25.1719,314.1563 24.9688,313.9531 Q24.7656,313.7656 24.6563,313.25 Q24.6094,312.8906 24.4219,312.7031 Q24.0938,312.3281 23.4844,312.1094 Q22.875,311.8906 22.25,311.8906 Q21.4844,311.8906 20.8438,312.2188 Q20.2188,312.5469 19.7188,313.2969 Q19.2344,314.0469 19.2344,315.0781 L19.2344,316.1719 Q19.2344,317.4063 20.125,318.2344 Q21.0156,319.0469 22.6094,319.0469 Q23.5469,319.0469 24.2031,318.7969 Q24.5938,318.6406 25.0156,318.2031 Q25.2813,317.9375 25.4219,317.8594 Q25.5781,317.7813 25.7813,317.7813 Q26.1094,317.7813 26.3594,318.0469 Q26.625,318.2969 26.625,318.6406 Q26.625,318.9844 26.2813,319.3906 Q25.7813,319.9688 24.9844,320.2969 Q23.9063,320.75 22.6094,320.75 Q21.0938,320.75 19.8906,320.125 Q18.9063,319.625 18.2188,318.5625 Q17.5313,317.4844 17.5313,316.2031 L17.5313,315.0469 Q17.5313,313.7188 18.1406,312.5781 Q18.7656,311.4219 19.8594,310.8125 Q20.9531,310.1875 22.1875,310.1875 Q22.9219,310.1875 23.5625,310.3594 Q24.2188,310.5156 24.7656,310.875 Z " fill="#000000"/><text fill="#000000" font-family="sans-serif" font-size="14" lengthAdjust="spacing" textLength="129" x="36" y="320.7969">SystemAdministrator</text><line style="stroke:#181818;stroke-width:0.5;" x1="8" x2="167" y1="331" y2="331"/><text fill="#000000" font-family="sans-serif" font-size="14" lengthAdjust="spacing" textLength="85" x="13" y="350.1074">-name: String</text><text fill="#000000" font-family="sans-serif" font-size="14" lengthAdjust="spacing" textLength="83" x="13" y="368.7285">-email: String</text><text fill="#000000" font-family="sans-serif" font-size="14" lengthAdjust="spacing" textLength="99" x="13" y="387.3496">-position: String</text><text fill="#000000" font-family="sans-serif" font-size="14" lengthAdjust="spacing" textLength="90" x="13" y="405.9707">-phone: String</text><line style="stroke:#181818;stroke-width:0.5;" x1="8" x2="167" y1="413.4844" y2="413.4844"/></g><!--class RoleRepository--><g id="elem_RoleRepository"><rect codeLine="57" fill="#F1F1F1" height="66.6211" id="RoleRepository" rx="2.5" ry="2.5" style="stroke:#181818;stroke-width:0.5;" width="173" x="514" y="171"/><ellipse cx="548.8" cy="187" fill="#ADD1B2" rx="11" ry="11" style="stroke:#181818;stroke-width:1.0;"/><path d="M551.5656,182.875 Q551.7219,182.6563 551.9094,182.5469 Q552.0969,182.4375 552.3156,182.4375 Q552.6906,182.4375 552.925,182.7031 Q553.1594,182.9531 553.1594,183.5625 L553.1594,185.0156 Q553.1594,185.625 552.925,185.8906 Q552.6906,186.1563 552.3156,186.1563 Q551.9719,186.1563 551.7688,185.9531 Q551.5656,185.7656 551.4563,185.25 Q551.4094,184.8906 551.2219,184.7031 Q550.8938,184.3281 550.2844,184.1094 Q549.675,183.8906 549.05,183.8906 Q548.2844,183.8906 547.6438,184.2188 Q547.0188,184.5469 546.5188,185.2969 Q546.0344,186.0469 546.0344,187.0781 L546.0344,188.1719 Q546.0344,189.4063 546.925,190.2344 Q547.8156,191.0469 549.4094,191.0469 Q550.3469,191.0469 551.0031,190.7969 Q551.3938,190.6406 551.8156,190.2031 Q552.0813,189.9375 552.2219,189.8594 Q552.3781,189.7813 552.5813,189.7813 Q552.9094,189.7813 553.1594,190.0469 Q553.425,190.2969 553.425,190.6406 Q553.425,190.9844 553.0813,191.3906 Q552.5813,191.9688 551.7844,192.2969 Q550.7063,192.75 549.4094,192.75 Q547.8938,192.75 546.6906,192.125 Q545.7063,191.625 545.0188,190.5625 Q544.3313,189.4844 544.3313,188.2031 L544.3313,187.0469 Q544.3313,185.7188 544.9406,184.5781 Q545.5656,183.4219 546.6594,182.8125 Q547.7531,182.1875 548.9875,182.1875 Q549.7219,182.1875 550.3625,182.3594 Q551.0188,182.5156 551.5656,182.875 Z " fill="#000000"/><text fill="#000000" font-family="sans-serif" font-size="14" lengthAdjust="spacing" textLength="97" x="567.2" y="192.7969">RoleRepository</text><line style="stroke:#181818;stroke-width:0.5;" x1="515" x2="686" y1="203" y2="203"/><line style="stroke:#181818;stroke-width:0.5;" x1="515" x2="686" y1="211" y2="211"/><text fill="#000000" font-family="sans-serif" font-size="14" lengthAdjust="spacing" textLength="161" x="520" y="230.1074">+GetEmployeeRoleByID()</text></g><!--class StoreRepository--><g id="elem_StoreRepository"><rect codeLine="60" fill="#F1F1F1" height="66.6211" id="StoreRepository" rx="2.5" ry="2.5" style="stroke:#181818;stroke-width:0.5;" width="134" x="344.5" y="171"/><ellipse cx="359.5" cy="187" fill="#ADD1B2" rx="11" ry="11" style="stroke:#181818;stroke-width:1.0;"/><path d="M362.2656,182.875 Q362.4219,182.6563 362.6094,182.5469 Q362.7969,182.4375 363.0156,182.4375 Q363.3906,182.4375 363.625,182.7031 Q363.8594,182.9531 363.8594,183.5625 L363.8594,185.0156 Q363.8594,185.625 363.625,185.8906 Q363.3906,186.1563 363.0156,186.1563 Q362.6719,186.1563 362.4688,185.9531 Q362.2656,185.7656 362.1563,185.25 Q362.1094,184.8906 361.9219,184.7031 Q361.5938,184.3281 360.9844,184.1094 Q360.375,183.8906 359.75,183.8906 Q358.9844,183.8906 358.3438,184.2188 Q357.7188,184.5469 357.2188,185.2969 Q356.7344,186.0469 356.7344,187.0781 L356.7344,188.1719 Q356.7344,189.4063 357.625,190.2344 Q358.5156,191.0469 360.1094,191.0469 Q361.0469,191.0469 361.7031,190.7969 Q362.0938,190.6406 362.5156,190.2031 Q362.7813,189.9375 362.9219,189.8594 Q363.0781,189.7813 363.2813,189.7813 Q363.6094,189.7813 363.8594,190.0469 Q364.125,190.2969 364.125,190.6406 Q364.125,190.9844 363.7813,191.3906 Q363.2813,191.9688 362.4844,192.2969 Q361.4063,192.75 360.1094,192.75 Q358.5938,192.75 357.3906,192.125 Q356.4063,191.625 355.7188,190.5625 Q355.0313,189.4844 355.0313,188.2031 L355.0313,187.0469 Q355.0313,185.7188 355.6406,184.5781 Q356.2656,183.4219 357.3594,182.8125 Q358.4531,182.1875 359.6875,182.1875 Q360.4219,182.1875 361.0625,182.3594 Q361.7188,182.5156 362.2656,182.875 Z " fill="#000000"/><text fill="#000000" font-family="sans-serif" font-size="14" lengthAdjust="spacing" textLength="102" x="373.5" y="192.7969">StoreRepository</text><line style="stroke:#181818;stroke-width:0.5;" x1="345.5" x2="477.5" y1="203" y2="203"/><line style="stroke:#181818;stroke-width:0.5;" x1="345.5" x2="477.5" y1="211" y2="211"/><text fill="#000000" font-family="sans-serif" font-size="14" lengthAdjust="spacing" textLength="104" x="350.5" y="230.1074">+GetStoreByID()</text></g><!--link ApplicationSession to ApplicationSession--><g id="link_ApplicationSession_ApplicationSession"><path codeLine="64" d="M163.16,34.27 C183,35.17 198,40.25 198,49.5 C198,57.95 185.47,62.92 168.16,64.4 " fill="none" id="ApplicationSession-to-ApplicationSession" style="stroke:#181818;stroke-width:1.0;"/><polygon fill="#181818" points="163.16,64.73,172.4036,68.1295,168.1492,64.4012,171.8775,60.1468,163.16,64.73" style="stroke:#181818;stroke-width:1.0;"/><text fill="#000000" font-family="sans-serif" font-size="13" lengthAdjust="spacing" textLength="49" x="204" y="55.0283">instance</text></g><!--link ApplicationSession to UserSession--><g id="link_ApplicationSession_UserSession"><path codeLine="65" d="M87.5,92.31 C87.5,115.24 87.5,143.46 87.5,165.72 " fill="none" id="ApplicationSession-to-UserSession" style="stroke:#181818;stroke-width:1.0;"/><polygon fill="#181818" points="87.5,170.96,91.5,161.96,87.5,165.96,83.5,161.96,87.5,170.96" style="stroke:#181818;stroke-width:1.0;"/><text fill="#000000" font-family="sans-serif" font-size="13" lengthAdjust="spacing" textLength="72" x="88.5" y="137.0283">userSession</text><text fill="#000000" font-family="sans-serif" font-size="13" lengthAdjust="spacing" textLength="7" x="79.8109" y="159.7776">1</text></g><!--link SystemAdministrator to Employee--><g id="link_SystemAdministrator_Employee"><path codeLine="66" d="M159.18,421.3 C176.57,435.94 195.9,452.19 215.67,468.83 " fill="none" id="SystemAdministrator-to-Employee" style="stroke:#181818;stroke-width:1.0;"/><polygon fill="none" points="220.43,463.68,231.22,481.92,211.41,474.4,220.43,463.68" style="stroke:#181818;stroke-width:1.0;"/></g><!--link RegisterEmployeeController to Employee--><g id="link_RegisterEmployeeController_Employee"><path codeLine="67" d="M485.27,402.54 C474.59,423.42 461.01,450 447.19,477.04 " fill="none" id="RegisterEmployeeController-to-Employee" style="stroke:#181818;stroke-width:1.0;stroke-dasharray:7.0,7.0;"/><polygon fill="#181818" points="444.78,481.74,452.4304,475.5374,447.0503,477.2851,445.3026,471.905,444.78,481.74" style="stroke:#181818;stroke-width:1.0;"/></g><!--link RegisterEmployeeController to Repositories--><g id="link_RegisterEmployeeController_Repositories"><path codeLine="68" d="M570.85,402.64 C624.95,437.64 693.5,482 693.5,482 C693.5,482 745.38,519.42 792.48,553.39 " fill="none" id="RegisterEmployeeController-to-Repositories" style="stroke:#181818;stroke-width:1.0;stroke-dasharray:7.0,7.0;"/><polygon fill="#181818" points="796.73,556.45,791.7737,547.9391,792.6759,553.5236,787.0914,554.4258,796.73,556.45" style="stroke:#181818;stroke-width:1.0;"/></g><!--link PasswordGenerator to Repositories--><g id="link_PasswordGenerator_Repositories"><path codeLine="69" d="M916.93,393.73 C907.65,433.87 891.77,502.55 880.51,551.22 " fill="none" id="PasswordGenerator-to-Repositories" style="stroke:#181818;stroke-width:1.0;stroke-dasharray:7.0,7.0;"/><polygon fill="#181818" points="879.37,556.16,885.2761,548.2785,880.4849,551.2859,877.4775,546.4947,879.37,556.16" style="stroke:#181818;stroke-width:1.0;"/></g><!--link UserSession to SystemAdministrator--><g id="link_UserSession_SystemAdministrator"><path codeLine="70" d="M87.5,238.05 C87.5,254.22 87.5,274.36 87.5,293.54 " fill="none" id="UserSession-to-SystemAdministrator" style="stroke:#181818;stroke-width:1.0;"/><polygon fill="#181818" points="87.5,298.92,91.5,289.92,87.5,293.92,83.5,289.92,87.5,298.92" style="stroke:#181818;stroke-width:1.0;"/></g><!--link RoleRepository to RegisterEmployeeController--><g id="link_RoleRepository_RegisterEmployeeController"><path codeLine="71" d="M580.57,238.05 C567.22,259.84 549.46,288.84 534.68,312.98 " fill="none" id="RoleRepository-to-RegisterEmployeeController" style="stroke:#181818;stroke-width:1.0;stroke-dasharray:7.0,7.0;"/><polygon fill="#181818" points="531.96,317.43,540.0783,311.8539,534.5765,313.1693,533.2611,307.6675,531.96,317.43" style="stroke:#181818;stroke-width:1.0;"/></g><!--link StoreRepository to RegisterEmployeeController--><g id="link_StoreRepository_RegisterEmployeeController"><path codeLine="72" d="M431.65,238.05 C445.13,259.84 463.08,288.84 478.02,312.98 " fill="none" id="StoreRepository-to-RegisterEmployeeController" style="stroke:#181818;stroke-width:1.0;stroke-dasharray:7.0,7.0;"/><polygon fill="#181818" points="480.77,317.43,479.4452,307.6707,478.1431,313.1756,472.6382,311.8736,480.77,317.43" style="stroke:#181818;stroke-width:1.0;"/></g><!--SRC=[ZLF1Rjim3BthAuXUqY9EiLrpA92rGv5BDpJO1wWowmYL9KDYLhZT_dsa7SUAanNDmOWU7wd7Ht6MNgnlTDGrrC47iusXHg2uGpL66crUT8KRQXr2H4FQLoudfAqkmwlr5Jnhb_A8inwfRH2Qu5evgDcPO8WKL9Pbd4vfHHJjquvmROBVs3U4BqhD73uJK81egor1QKME3LwfBWTMJUEiqG9jC2M9l2lWtnmICMoWGbfx_kyDNbxjGupTxc94J_iaZlmTIlvA6AUrE47WxxMsBkS-OcKJIQ1neKMy3PvYS0uZIEhSHDI4G_JIwneBQBR1uyEkVi9O04h90dHPHhwp06E9M_UtEfO3PKXVtnMFmQ4qCK_wzrXM1FLwVlBdDSJo7Zr6JM4le-gFE8IpZA58Hro8m2LiU12-adCcTGdMas2Tufoqrvv3Sf5kUCoJtB6L0oGjBSVC5MirxR8FxltxZ6-J6qzSA_h2LxqTD4ooFprmVJxaSsr2ikoVnGJz8rWSWVbJ6fyNB8z88-L7hBItRzqxFJ3QR0oRbfzHlIfhw_b1ZQEJUoT34MWw0y6wgbn_2ejh1umx75faKqOfxsf-BwxqdadiMxk-omKowuJVWGUYEbr6MDoSML6GuVUUdStXf8kl5_aYSiOkMyjpRYqMVsuEGrSVBERrzUTvHzCyMQuJHgQOcpYZKXsxpWN-Bq1DBF-G_0y0]--></g></svg>