<?xml version="1.0" encoding="us-ascii" standalone="no"?><svg xmlns="http://www.w3.org/2000/svg" xmlns:xlink="http://www.w3.org/1999/xlink" contentStyleType="text/css" height="751px" preserveAspectRatio="none" style="width:1160px;height:751px;background:#FFFFFF;" version="1.1" viewBox="0 0 1160 751" width="1160px" zoomAndPan="magnify"><defs/><g><text fill="#000000" font-family="sans-serif" font-size="14" font-weight="bold" lengthAdjust="spacing" textLength="147" x="499.5" y="22.6738">Domain Model US002</text><!--class Agent--><g id="elem_Agent"><rect codeLine="14" fill="#F1F1F1" height="33.6406" id="Agent" rx="2.5" ry="2.5" style="stroke:#181818;stroke-width:0.5;" width="43" x="860" y="99.1406"/><text fill="#000000" font-family="sans-serif" font-size="14" lengthAdjust="spacing" textLength="37" x="863" y="116.8145">Agent</text><line style="stroke:#181818;stroke-width:0.5;" x1="861" x2="902" y1="124.7813" y2="124.7813"/></g><!--class Owner--><g id="elem_Owner"><rect codeLine="17" fill="#F1F1F1" height="33.6406" id="Owner" rx="2.5" ry="2.5" style="stroke:#181818;stroke-width:0.5;" width="47" x="577" y="283.1406"/><text fill="#000000" font-family="sans-serif" font-size="14" lengthAdjust="spacing" textLength="41" x="580" y="300.8145">Owner</text><line style="stroke:#181818;stroke-width:0.5;" x1="578" x2="623" y1="308.7813" y2="308.7813"/></g><!--class Advertisement--><g id="elem_Advertisement"><rect codeLine="20" fill="#F1F1F1" height="49.2813" id="Advertisement" rx="2.5" ry="2.5" style="stroke:#181818;stroke-width:0.5;" width="96" x="552.5" y="43.6406"/><text fill="#000000" font-family="sans-serif" font-size="14" lengthAdjust="spacing" textLength="90" x="555.5" y="61.3145">Advertisement</text><line style="stroke:#181818;stroke-width:0.5;" x1="553.5" x2="647.5" y1="69.2813" y2="69.2813"/><text fill="#000000" font-family="sans-serif" font-size="14" lengthAdjust="spacing" textLength="28" x="558.5" y="85.9551">date</text></g><!--class AdvertisementRequest--><g id="elem_AdvertisementRequest"><rect codeLine="24" fill="#F1F1F1" height="33.6406" id="AdvertisementRequest" rx="2.5" ry="2.5" style="stroke:#181818;stroke-width:0.5;" width="148" x="247" y="220.1406"/><text fill="#000000" font-family="sans-serif" font-size="14" font-style="italic" lengthAdjust="spacing" textLength="142" x="250" y="237.8145">AdvertisementRequest</text><line style="stroke:#181818;stroke-width:0.5;" x1="248" x2="394" y1="245.7813" y2="245.7813"/></g><!--class RequestType--><g id="elem_RequestType"><rect codeLine="27" fill="#F1F1F1" height="64.9219" id="RequestType" rx="2.5" ry="2.5" style="stroke:#181818;stroke-width:0.5;" width="91" x="51" y="112.6406"/><text fill="#000000" font-family="sans-serif" font-size="14" lengthAdjust="spacing" textLength="85" x="54" y="130.3145">RequestType</text><line style="stroke:#181818;stroke-width:0.5;" x1="52" x2="141" y1="138.2813" y2="138.2813"/><text fill="#000000" font-family="sans-serif" font-size="14" lengthAdjust="spacing" textLength="26" x="57" y="154.9551">sale</text><text fill="#000000" font-family="sans-serif" font-size="14" lengthAdjust="spacing" textLength="25" x="57" y="170.5957">rent</text></g><!--class SaleAdvertisementRequest--><g id="elem_SaleAdvertisementRequest"><rect codeLine="32" fill="#F1F1F1" height="49.2813" id="SaleAdvertisementRequest" rx="2.5" ry="2.5" style="stroke:#181818;stroke-width:0.5;" width="177" x="8" y="212.6406"/><text fill="#000000" font-family="sans-serif" font-size="14" lengthAdjust="spacing" textLength="171" x="11" y="230.3145">SaleAdvertisementRequest</text><line style="stroke:#181818;stroke-width:0.5;" x1="9" x2="184" y1="238.2813" y2="238.2813"/><text fill="#000000" font-family="sans-serif" font-size="14" lengthAdjust="spacing" textLength="59" x="14" y="254.9551">totalPrice</text></g><!--class RentAdvertisementRequest--><g id="elem_RentAdvertisementRequest"><rect codeLine="36" fill="#F1F1F1" height="49.2813" id="RentAdvertisementRequest" rx="2.5" ry="2.5" style="stroke:#181818;stroke-width:0.5;" width="179" x="7" y="296.6406"/><text fill="#000000" font-family="sans-serif" font-size="14" lengthAdjust="spacing" textLength="173" x="10" y="314.3145">RentAdvertisementRequest</text><line style="stroke:#181818;stroke-width:0.5;" x1="8" x2="185" y1="322.2813" y2="322.2813"/><text fill="#000000" font-family="sans-serif" font-size="14" lengthAdjust="spacing" textLength="118" x="13" y="338.9551">rentPricePerMonth</text></g><!--class House--><g id="elem_House"><rect codeLine="40" fill="#F1F1F1" height="80.5625" id="House" rx="2.5" ry="2.5" style="stroke:#181818;stroke-width:0.5;" width="134" x="814.5" y="663.6406"/><text fill="#000000" font-family="sans-serif" font-size="14" lengthAdjust="spacing" textLength="40" x="861.5" y="681.3145">House</text><line style="stroke:#181818;stroke-width:0.5;" x1="815.5" x2="947.5" y1="689.2813" y2="689.2813"/><text fill="#000000" font-family="sans-serif" font-size="14" lengthAdjust="spacing" textLength="122" x="820.5" y="705.9551">existenceBasement</text><text fill="#000000" font-family="sans-serif" font-size="14" lengthAdjust="spacing" textLength="83" x="820.5" y="721.5957">existenceLoft</text><text fill="#000000" font-family="sans-serif" font-size="14" lengthAdjust="spacing" textLength="82" x="820.5" y="737.2363">sunExposure</text></g><!--class Residence--><g id="elem_Residence"><rect codeLine="46" fill="#F1F1F1" height="80.5625" id="Residence" rx="2.5" ry="2.5" style="stroke:#181818;stroke-width:0.5;" width="155" x="523" y="555.6406"/><text fill="#000000" font-family="sans-serif" font-size="14" font-style="italic" lengthAdjust="spacing" textLength="67" x="567" y="573.3145">Residence</text><line style="stroke:#181818;stroke-width:0.5;" x1="524" x2="677" y1="581.2813" y2="581.2813"/><text fill="#000000" font-family="sans-serif" font-size="14" lengthAdjust="spacing" textLength="112" x="529" y="597.9551">numberBedrooms</text><text fill="#000000" font-family="sans-serif" font-size="14" lengthAdjust="spacing" textLength="116" x="529" y="613.5957">numberBathrooms</text><text fill="#000000" font-family="sans-serif" font-size="14" lengthAdjust="spacing" textLength="143" x="529" y="629.2363">numberParkingSpaces</text></g><!--class AvailableEquipment--><g id="elem_AvailableEquipment"><rect codeLine="52" fill="#F1F1F1" height="64.9219" id="AvailableEquipment" rx="2.5" ry="2.5" style="stroke:#181818;stroke-width:0.5;" width="130" x="816.5" y="563.6406"/><text fill="#000000" font-family="sans-serif" font-size="14" lengthAdjust="spacing" textLength="124" x="819.5" y="581.3145">AvailableEquipment</text><line style="stroke:#181818;stroke-width:0.5;" x1="817.5" x2="945.5" y1="589.2813" y2="589.2813"/><text fill="#000000" font-family="sans-serif" font-size="14" lengthAdjust="spacing" textLength="91" x="822.5" y="605.9551">centralHeating</text><text fill="#000000" font-family="sans-serif" font-size="14" lengthAdjust="spacing" textLength="95" x="822.5" y="621.5957">airConditioning</text></g><!--class Property--><g id="elem_Property"><rect codeLine="57" fill="#F1F1F1" height="111.8438" id="Property" rx="2.5" ry="2.5" style="stroke:#181818;stroke-width:0.5;" width="122" x="260" y="346.1406"/><text fill="#000000" font-family="sans-serif" font-size="14" font-style="italic" lengthAdjust="spacing" textLength="54" x="294" y="363.8145">Property</text><line style="stroke:#181818;stroke-width:0.5;" x1="261" x2="381" y1="371.7813" y2="371.7813"/><text fill="#000000" font-family="sans-serif" font-size="14" lengthAdjust="spacing" textLength="27" x="266" y="388.4551">type</text><text fill="#000000" font-family="sans-serif" font-size="14" lengthAdjust="spacing" textLength="29" x="266" y="404.0957">area</text><text fill="#000000" font-family="sans-serif" font-size="14" lengthAdjust="spacing" textLength="110" x="266" y="419.7363">distanceFromCity</text><text fill="#000000" font-family="sans-serif" font-size="14" lengthAdjust="spacing" textLength="31" x="266" y="435.377">price</text><text fill="#000000" font-family="sans-serif" font-size="14" lengthAdjust="spacing" textLength="80" x="266" y="451.0176">photographs</text></g><!--class Photograph--><g id="elem_Photograph"><rect codeLine="65" fill="#F1F1F1" height="49.2813" id="Photograph" rx="2.5" ry="2.5" style="stroke:#181818;stroke-width:0.5;" width="80" x="560.5" y="671.6406"/><text fill="#000000" font-family="sans-serif" font-size="14" lengthAdjust="spacing" textLength="74" x="563.5" y="689.3145">Photograph</text><line style="stroke:#181818;stroke-width:0.5;" x1="561.5" x2="639.5" y1="697.2813" y2="697.2813"/><text fill="#000000" font-family="sans-serif" font-size="14" lengthAdjust="spacing" textLength="27" x="566.5" y="713.9551">URL</text></g><!--class PropertyType--><g id="elem_PropertyType"><rect codeLine="69" fill="#F1F1F1" height="80.5625" id="PropertyType" rx="2.5" ry="2.5" style="stroke:#181818;stroke-width:0.5;" width="92" x="554.5" y="352.6406"/><text fill="#000000" font-family="sans-serif" font-size="14" lengthAdjust="spacing" textLength="86" x="557.5" y="370.3145">PropertyType</text><line style="stroke:#181818;stroke-width:0.5;" x1="555.5" x2="645.5" y1="378.2813" y2="378.2813"/><text fill="#000000" font-family="sans-serif" font-size="14" lengthAdjust="spacing" textLength="27" x="560.5" y="394.9551">land</text><text fill="#000000" font-family="sans-serif" font-size="14" lengthAdjust="spacing" textLength="39" x="560.5" y="410.5957">house</text><text fill="#000000" font-family="sans-serif" font-size="14" lengthAdjust="spacing" textLength="64" x="560.5" y="426.2363">apartment</text></g><!--class Commission--><g id="elem_Commission"><rect codeLine="75" fill="#F1F1F1" height="33.6406" id="Commission" rx="2.5" ry="2.5" style="stroke:#181818;stroke-width:0.5;" width="82" x="1071" y="99.1406"/><text fill="#000000" font-family="sans-serif" font-size="14" lengthAdjust="spacing" textLength="76" x="1074" y="116.8145">Commission</text><line style="stroke:#181818;stroke-width:0.5;" x1="1072" x2="1152" y1="124.7813" y2="124.7813"/></g><!--class CommissionType--><g id="elem_CommissionType"><rect codeLine="78" fill="#F1F1F1" height="64.9219" id="CommissionType" rx="2.5" ry="2.5" style="stroke:#181818;stroke-width:0.5;" width="114" x="824.5" y="168.6406"/><text fill="#000000" font-family="sans-serif" font-size="14" lengthAdjust="spacing" textLength="108" x="827.5" y="186.3145">CommissionType</text><line style="stroke:#181818;stroke-width:0.5;" x1="825.5" x2="937.5" y1="194.2813" y2="194.2813"/><text fill="#000000" font-family="sans-serif" font-size="14" lengthAdjust="spacing" textLength="77" x="830.5" y="210.9551">fixedAmount</text><text fill="#000000" font-family="sans-serif" font-size="14" lengthAdjust="spacing" textLength="72" x="830.5" y="226.5957">percentage</text></g><!--class Address--><g id="elem_Address"><rect codeLine="83" fill="#F1F1F1" height="96.2031" id="Address" rx="2.5" ry="2.5" style="stroke:#181818;stroke-width:0.5;" width="84" x="839.5" y="432.1406"/><text fill="#000000" font-family="sans-serif" font-size="14" font-style="italic" lengthAdjust="spacing" textLength="52" x="855.5" y="449.8145">Address</text><line style="stroke:#181818;stroke-width:0.5;" x1="840.5" x2="922.5" y1="457.7813" y2="457.7813"/><text fill="#000000" font-family="sans-serif" font-size="14" lengthAdjust="spacing" textLength="51" x="845.5" y="474.4551">zipCode</text><text fill="#000000" font-family="sans-serif" font-size="14" lengthAdjust="spacing" textLength="72" x="845.5" y="490.0957">streetName</text><text fill="#000000" font-family="sans-serif" font-size="14" lengthAdjust="spacing" textLength="57" x="845.5" y="505.7363">cityName</text><text fill="#000000" font-family="sans-serif" font-size="14" lengthAdjust="spacing" textLength="41" x="845.5" y="521.377">district</text></g><!--class Person--><g id="elem_Person"><rect codeLine="90" fill="#F1F1F1" height="111.8438" id="Person" rx="2.5" ry="2.5" style="stroke:#181818;stroke-width:0.5;" width="147" x="808" y="269.1406"/><text fill="#000000" font-family="sans-serif" font-size="14" font-style="italic" lengthAdjust="spacing" textLength="45" x="859" y="286.8145">Person</text><line style="stroke:#181818;stroke-width:0.5;" x1="809" x2="954" y1="294.7813" y2="294.7813"/><text fill="#000000" font-family="sans-serif" font-size="14" lengthAdjust="spacing" textLength="35" x="814" y="311.4551">name</text><text fill="#000000" font-family="sans-serif" font-size="14" lengthAdjust="spacing" textLength="135" x="814" y="327.0957">passportCardNumber</text><text fill="#000000" font-family="sans-serif" font-size="14" lengthAdjust="spacing" textLength="67" x="814" y="342.7363">taxNumber</text><text fill="#000000" font-family="sans-serif" font-size="14" lengthAdjust="spacing" textLength="85" x="814" y="358.377">emailAddress</text><text fill="#000000" font-family="sans-serif" font-size="14" lengthAdjust="spacing" textLength="89" x="814" y="374.0176">phoneNumber</text></g><!--class Employee--><g id="elem_Employee"><rect codeLine="98" fill="#F1F1F1" height="33.6406" id="Employee" rx="2.5" ry="2.5" style="stroke:#181818;stroke-width:0.5;" width="68" x="566.5" y="214.1406"/><text fill="#000000" font-family="sans-serif" font-size="14" font-style="italic" lengthAdjust="spacing" textLength="62" x="569.5" y="231.8145">Employee</text><line style="stroke:#181818;stroke-width:0.5;" x1="567.5" x2="633.5" y1="239.7813" y2="239.7813"/></g><!--link Advertisement to Agent--><g id="link_Advertisement_Agent"><path codeLine="101" d="M648.51,76.2306 C710.17,86.8406 815.69,104.9906 859.98,112.6106 " fill="none" id="Advertisement-Agent" style="stroke:#181818;stroke-width:1.0;"/><polygon fill="#000000" points="708.0724,79.5546,716.4882,83.9845,717.4848,78.1918,708.0724,79.5546" style="stroke:#000000;stroke-width:1.0;"/><text fill="#000000" font-family="sans-serif" font-size="13" lengthAdjust="spacing" textLength="55" x="722" y="84.9092">publishes</text><text fill="#000000" font-family="sans-serif" font-size="13" lengthAdjust="spacing" textLength="5" x="656.56" y="90.4234">*</text><text fill="#000000" font-family="sans-serif" font-size="13" lengthAdjust="spacing" textLength="7" x="845.0049" y="107.1634">1</text></g><!--link Advertisement to Commission--><g id="link_Advertisement_Commission"><path codeLine="102" d="M648.67,65.9906 C667.17,65.2406 688.58,64.5006 708,64.1406 C856.5,61.3506 896.35,58.4606 1041,92.1406 C1050.76,94.4106 1061.07,97.5306 1070.69,100.7606 " fill="none" id="Advertisement-Commission" style="stroke:#181818;stroke-width:1.0;"/><polygon fill="#000000" points="866.4831,55.8129,857.7099,52.1412,857.2273,57.9992,866.4831,55.8129" style="stroke:#000000;stroke-width:1.0;"/><text fill="#000000" font-family="sans-serif" font-size="13" lengthAdjust="spacing" textLength="35" x="870.5" y="59.9092">needs</text><text fill="#000000" font-family="sans-serif" font-size="13" lengthAdjust="spacing" textLength="7" x="656.582" y="62.3766">1</text><text fill="#000000" font-family="sans-serif" font-size="13" lengthAdjust="spacing" textLength="7" x="1055.9883" y="111.1647">1</text></g><!--link AdvertisementRequest to Advertisement--><g id="link_AdvertisementRequest_Advertisement"><path codeLine="103" d="M332.34,219.7706 C348.71,193.7606 383.08,144.9006 425,118.1406 C463.91,93.3006 515.44,80.5106 552.39,74.1206 " fill="none" id="AdvertisementRequest-Advertisement" style="stroke:#181818;stroke-width:1.0;"/><polygon fill="#000000" points="434.1694,78.6426,425.0048,81.1843,428.249,86.0857,434.1694,78.6426" style="stroke:#000000;stroke-width:1.0;"/><text fill="#000000" font-family="sans-serif" font-size="13" lengthAdjust="spacing" textLength="53" x="439" y="85.9092">becomes</text><text fill="#000000" font-family="sans-serif" font-size="13" lengthAdjust="spacing" textLength="7" x="328.035" y="209.3137">1</text><text fill="#000000" font-family="sans-serif" font-size="13" lengthAdjust="spacing" textLength="7" x="537.4872" y="87.8953">1</text></g><!--link Agent to Commission--><g id="link_Agent_Commission"><path codeLine="105" d="M903.18,116.1406 C940.97,116.1406 1021.79,116.1406 1070.76,116.1406 " fill="none" id="Agent-Commission" style="stroke:#181818;stroke-width:1.0;"/><polygon fill="#000000" points="995,108.4023,985.9549,105.4634,985.9549,111.3413,995,108.4023" style="stroke:#000000;stroke-width:1.0;"/><text fill="#000000" font-family="sans-serif" font-size="13" lengthAdjust="spacing" textLength="41" x="999" y="112.9092">defines</text><text fill="#000000" font-family="sans-serif" font-size="13" lengthAdjust="spacing" textLength="7" x="910.8914" y="130.1881">1</text><text fill="#000000" font-family="sans-serif" font-size="13" lengthAdjust="spacing" textLength="7" x="1056.0703" y="129.1882">1</text></g><!--link CommissionType to Commission--><g id="link_CommissionType_Commission"><path codeLine="106" d="M938.69,180.2406 C973.09,167.4406 1017.06,151.0806 1051.97,138.1006 " fill="none" id="CommissionType-to-Commission" style="stroke:#181818;stroke-width:1.0;"/><polygon fill="none" points="1049.64,131.5006,1070.83,131.0806,1054.52,144.6206,1049.64,131.5006" style="stroke:#181818;stroke-width:1.0;"/></g><!--reverse link Property to Residence--><g id="link_Property_Residence"><path codeLine="108" d="M381.74,472.9406 C395.15,486.5806 409.9,500.0506 425,511.1406 C454.74,532.9806 490.96,551.6906 522.68,565.9506 " fill="none" id="Property-backto-Residence" style="stroke:#181818;stroke-width:1.0;"/><polygon fill="none" points="376.44,477.5306,367.77,458.1906,386.61,467.9006,376.44,477.5306" style="stroke:#181818;stroke-width:1.0;"/></g><!--reverse link Residence to House--><g id="link_Residence_House"><path codeLine="109" d="M696.94,633.0806 C735.65,648.0706 779.41,665.0106 814.49,678.5906 " fill="none" id="Residence-backto-House" style="stroke:#181818;stroke-width:1.0;"/><polygon fill="none" points="694.23,639.5406,678.11,625.7906,699.29,626.4906,694.23,639.5406" style="stroke:#181818;stroke-width:1.0;"/></g><!--link Property to Owner--><g id="link_Property_Owner"><path codeLine="110" d="M382.21,380.0106 C443.27,357.5706 534.57,324.0106 576.7,308.5206 " fill="none" id="Property-Owner" style="stroke:#181818;stroke-width:1.0;"/><polygon fill="#000000" points="441.693,331.6773,432.1893,332.0395,434.2172,337.5564,441.693,331.6773" style="stroke:#000000;stroke-width:1.0;"/><text fill="#000000" font-family="sans-serif" font-size="13" lengthAdjust="spacing" textLength="39" x="446" y="337.9092">has an</text><text fill="#000000" font-family="sans-serif" font-size="13" lengthAdjust="spacing" textLength="7" x="390.0965" y="389.9766">1</text><text fill="#000000" font-family="sans-serif" font-size="13" lengthAdjust="spacing" textLength="7" x="562.0219" y="324.739">1</text></g><!--reverse link Property to PropertyType--><g id="link_Property_PropertyType"><path codeLine="111" d="M402.24,399.5406 C451.72,397.9306 513.37,395.9306 554.45,394.6006 " fill="none" id="Property-backto-PropertyType" style="stroke:#181818;stroke-width:1.0;"/><polygon fill="none" points="402.43,406.5406,382.21,400.1906,401.98,392.5406,402.43,406.5406" style="stroke:#181818;stroke-width:1.0;"/></g><!--link Property to Photograph--><g id="link_Property_Photograph"><path codeLine="112" d="M349.65,458.4506 C368.29,493.4306 394.92,538.2206 425,573.1406 C461.88,615.9506 476.25,622.4006 523,654.1406 C534.66,662.0506 547.94,669.7606 560.13,676.3706 " fill="none" id="Property-Photograph" style="stroke:#181818;stroke-width:1.0;"/><polygon fill="#000000" points="442.4736,568.9987,438.3037,560.4511,434.0759,564.5345,442.4736,568.9987" style="stroke:#000000;stroke-width:1.0;"/><text fill="#000000" font-family="sans-serif" font-size="13" lengthAdjust="spacing" textLength="35" x="448" y="569.9092">needs</text><text fill="#000000" font-family="sans-serif" font-size="13" lengthAdjust="spacing" textLength="7" x="345.558" y="477.5787">1</text><text fill="#000000" font-family="sans-serif" font-size="13" lengthAdjust="spacing" textLength="20" x="532.4171" y="686.2023">1..*</text></g><!--link Residence to AvailableEquipment--><g id="link_Residence_AvailableEquipment"><path codeLine="113" d="M678.11,596.1406 C721.5,596.1406 775.17,596.1406 816.33,596.1406 " fill="none" id="Residence-AvailableEquipment" style="stroke:#181818;stroke-width:1.0;"/><polygon fill="#000000" points="735,588.4023,725.9549,585.4634,725.9549,591.3413,735,588.4023" style="stroke:#000000;stroke-width:1.0;"/><text fill="#000000" font-family="sans-serif" font-size="13" lengthAdjust="spacing" textLength="21" x="739" y="592.9092">has</text><text fill="#000000" font-family="sans-serif" font-size="13" lengthAdjust="spacing" textLength="7" x="686.0943" y="608.6455">1</text><text fill="#000000" font-family="sans-serif" font-size="13" lengthAdjust="spacing" textLength="20" x="788.5781" y="608.6621">0..*</text></g><!--link AdvertisementRequest to Agent--><g id="link_AdvertisementRequest_Agent"><path codeLine="115" d="M395.01,221.3206 C523.78,193.4206 784.74,136.8906 859.85,120.6106 " fill="none" id="AdvertisementRequest-Agent" style="stroke:#181818;stroke-width:1.0;"/><polygon fill="#000000" points="569.1134,154.4611,578.5757,155.4181,577.3311,149.6735,569.1134,154.4611" style="stroke:#000000;stroke-width:1.0;"/><text fill="#000000" font-family="sans-serif" font-size="13" lengthAdjust="spacing" textLength="48" x="583" y="157.9092">analizes</text><text fill="#000000" font-family="sans-serif" font-size="13" lengthAdjust="spacing" textLength="5" x="402.9001" y="232.2251">*</text><text fill="#000000" font-family="sans-serif" font-size="13" lengthAdjust="spacing" textLength="7" x="845.1478" y="136.027">1</text></g><!--link AdvertisementRequest to Property--><g id="link_AdvertisementRequest_Property"><path codeLine="116" d="M321,254.1906 C321,275.6806 321,313.7006 321,345.8206 " fill="none" id="AdvertisementRequest-Property" style="stroke:#181818;stroke-width:1.0;"/><polygon fill="#000000" points="279.5,305.4023,282.4389,296.3573,276.5611,296.3573,279.5,305.4023" style="stroke:#000000;stroke-width:1.0;"/><text fill="#000000" font-family="sans-serif" font-size="13" lengthAdjust="spacing" textLength="56" x="288.5" y="304.9092">describes</text><text fill="#000000" font-family="sans-serif" font-size="13" lengthAdjust="spacing" textLength="7" x="312.9281" y="273.4597">1</text><text fill="#000000" font-family="sans-serif" font-size="13" lengthAdjust="spacing" textLength="7" x="313.5516" y="335.5198">1</text></g><!--link AdvertisementRequest to Owner--><g id="link_AdvertisementRequest_Owner"><path codeLine="118" d="M395.27,253.7706 C455.65,267.4806 537.49,286.0606 576.71,294.9706 " fill="none" id="AdvertisementRequest-Owner" style="stroke:#181818;stroke-width:1.0;"/><polygon fill="#000000" points="428.6241,253.2952,436.7939,258.164,438.0954,252.4321,428.6241,253.2952" style="stroke:#000000;stroke-width:1.0;"/><text fill="#000000" font-family="sans-serif" font-size="13" lengthAdjust="spacing" textLength="46" x="442.5" y="258.9092">submits</text><text fill="#000000" font-family="sans-serif" font-size="13" lengthAdjust="spacing" textLength="20" x="396.5594" y="273.5128">1..*</text><text fill="#000000" font-family="sans-serif" font-size="13" lengthAdjust="spacing" textLength="7" x="562.0347" y="289.4405">1</text></g><!--link Person to Address--><g id="link_Person_Address"><path codeLine="120" d="M881.5,381.1706 C881.5,397.8006 881.5,415.8606 881.5,431.9506 " fill="none" id="Person-Address" style="stroke:#181818;stroke-width:1.0;"/><polygon fill="#000000" points="839.5,411.9023,842.4389,402.8573,836.5611,402.8573,839.5,411.9023" style="stroke:#000000;stroke-width:1.0;"/><text fill="#000000" font-family="sans-serif" font-size="13" lengthAdjust="spacing" textLength="57" x="848.5" y="411.4092">located at</text><text fill="#000000" font-family="sans-serif" font-size="13" lengthAdjust="spacing" textLength="7" x="874.0734" y="400.6624">1</text><text fill="#000000" font-family="sans-serif" font-size="13" lengthAdjust="spacing" textLength="7" x="873.9641" y="421.2927">1</text></g><!--link Address to Property--><g id="link_Address_Property"><path codeLine="122" d="M839.37,482.3006 C772.46,485.0006 636.15,487.0906 523,467.1406 C474.42,458.5706 421.41,441.0706 382.02,426.3806 " fill="none" id="Address-Property" style="stroke:#181818;stroke-width:1.0;"/><polygon fill="#000000" points="574.463,460.0092,565.8415,455.9942,565.1281,461.8286,574.463,460.0092" style="stroke:#000000;stroke-width:1.0;"/><text fill="#000000" font-family="sans-serif" font-size="13" lengthAdjust="spacing" textLength="57" x="578.5" y="463.9092">located at</text><text fill="#000000" font-family="sans-serif" font-size="13" lengthAdjust="spacing" textLength="7" x="824.5273" y="495.6711">1</text><text fill="#000000" font-family="sans-serif" font-size="13" lengthAdjust="spacing" textLength="7" x="390.1271" y="441.998">1</text></g><!--link Employee to Person--><g id="link_Employee_Person"><path codeLine="124" d="M634.55,240.7806 C670.16,251.3206 728.4,269.0006 778,286.1406 C781.64,287.4006 785.35,288.7006 789.09,290.0406 " fill="none" id="Employee-to-Person" style="stroke:#181818;stroke-width:1.0;"/><polygon fill="none" points="791.51,283.4706,807.91,296.8906,786.72,296.6206,791.51,283.4706" style="stroke:#181818;stroke-width:1.0;"/></g><!--link Owner to Person--><g id="link_Owner_Person"><path codeLine="125" d="M624.33,302.1906 C659.7,305.3606 729.71,311.6306 787.61,316.8206 " fill="none" id="Owner-to-Person" style="stroke:#181818;stroke-width:1.0;"/><polygon fill="none" points="788.61,309.8806,807.91,318.6406,787.36,323.8206,788.61,309.8806" style="stroke:#181818;stroke-width:1.0;"/></g><!--reverse link Employee to Agent--><g id="link_Employee_Agent"><path codeLine="126" d="M653.97,212.8906 C689.33,200.2606 736.85,182.6306 778,165.1406 C786.03,161.7306 831.96,139.6106 859.54,126.2806 " fill="none" id="Employee-backto-Agent" style="stroke:#181818;stroke-width:1.0;"/><polygon fill="none" points="655.89,219.6406,634.7,219.7106,651.22,206.4406,655.89,219.6406" style="stroke:#181818;stroke-width:1.0;"/></g><!--link SaleAdvertisementRequest to AdvertisementRequest--><g id="link_SaleAdvertisementRequest_AdvertisementRequest"><path codeLine="128" d="M185.12,237.1406 C198.69,237.1406 212.74,237.1406 226.44,237.1406 " fill="none" id="SaleAdvertisementRequest-to-AdvertisementRequest" style="stroke:#181818;stroke-width:1.0;"/><polygon fill="none" points="226.82,230.1406,246.82,237.1406,226.82,244.1406,226.82,230.1406" style="stroke:#181818;stroke-width:1.0;"/></g><!--link RentAdvertisementRequest to AdvertisementRequest--><g id="link_RentAdvertisementRequest_AdvertisementRequest"><path codeLine="129" d="M162.45,296.6206 C191.88,285.5106 226.57,272.4106 255.89,261.3406 " fill="none" id="RentAdvertisementRequest-to-AdvertisementRequest" style="stroke:#181818;stroke-width:1.0;"/><polygon fill="none" points="253.56,254.7406,274.74,254.2306,258.5,267.8406,253.56,254.7406" style="stroke:#181818;stroke-width:1.0;"/></g><!--link RequestType to AdvertisementRequest--><g id="link_RequestType_AdvertisementRequest"><path codeLine="130" d="M142.26,163.6506 C176.11,177.6506 222.94,197.0106 260.04,212.3506 " fill="none" id="RequestType-to-AdvertisementRequest" style="stroke:#181818;stroke-width:1.0;"/><polygon fill="none" points="262.88,205.9506,278.69,220.0606,257.54,218.8906,262.88,205.9506" style="stroke:#181818;stroke-width:1.0;"/></g><!--SRC=[VLNRJkCm47ttLrWyhbG4-rWX9EYoOYLWAxfym3IUDXQE7Um9j2pxxpknqyI1jZmKPtpcudDcxF2iRGqUAbavwuhIkmeb-GP5w7TgA9vXZGlQ6fGU2mAxDZaWbA3ScxPhkG8JK0Y3AvBafDVhagJIhPDsLcG-XO4GheYyNZQ4lmfd5_eTvPaGfLOe2-qBpX7N5LBfL122D745Frm5sifxfz38fyNPsNSXOZHvjKPByg_ujpFyVhFeSyELUaLFEc2La9B_512s25W6yb2Gt0Dzn9S6moXsP_gphJ752S05jmlF3WDkmUO3iLemEG8pzxh0FBIb8ovj_EWnHt_lB9M3vwrh0dOmtEX0Q0kyXXHbRBrpgsG9ZRtPr2uqVXyDZnXO0yPtKMrJBT5Ve_BELI4t0PMVRNFmBFXwmHs48LFX5RI1fS6RbqRNcHG5BpsOMmHYjsW2xMVEAjtsJslxMk7Skvgfsku8PK6IfqT80lE9WK_mavjxfcaRZNMaFAvAHsxjeIwp4kUziGlxz7YNxNOfM_6xVGDMnKNPIf0Au4wdQjGCCrTLEWG-IzvAWpKBkD8RL5ULQphXE65B3m_YtcPL7lb_SdtNzOod8wbB7f4Ue4gV1P-__sY9OHfe7wdeGomoYhbpg7chTfvcuDL3L3XH3fli2tayJLVGZc2B7U1hffkgDcwBc0WP3-Z9jnCvcSYJyvDkjgUoRfP6XnA3lFWCFk_16SrJQH5La9TYxqHbJgFzgLnYmNTXwoXIxaFn5QwqZS1FEauc7vSPL8Y-Koy-E50_MMAOiRWHXtW0PtdJVJQL9GG9bZEE8-PjEVAFxgUdp6RMrmCpG_vThhC8tZEdAVUbEC1cgzSWrvIB1CFN-XUnHlJ7trsvBP-Xu5S1ZwH9PyaucV8jjgmqjOb4rxj3xDrqJALn1T_sIWB953rjz1JBeP0nciFsZHfrJKb4KYItzB0eIUH1Y8EFGFJSjoCEFWB7NFedwGZgFm00]--></g></svg>