<?xml version="1.0" encoding="us-ascii" standalone="no"?><svg xmlns="http://www.w3.org/2000/svg" xmlns:xlink="http://www.w3.org/1999/xlink" contentStyleType="text/css" height="906px" preserveAspectRatio="none" style="width:567px;height:906px;background:#FFFFFF;" version="1.1" viewBox="0 0 567 906" width="567px" zoomAndPan="magnify"><defs/><g><text fill="#000000" font-family="sans-serif" font-size="14" font-weight="bold" lengthAdjust="spacing" textLength="284" x="142.75" y="27.6738">System Sequence Diagram (SSD) - US008</text><rect fill="#FFFFFF" height="690.1406" style="stroke:#181818;stroke-width:1.0;" width="10" x="46.5" y="127.2813"/><rect fill="#FFFFFF" height="28.5234" style="stroke:#181818;stroke-width:1.0;" width="10" x="503.5" y="147.8047"/><rect fill="#FFFFFF" height="43.0469" style="stroke:#181818;stroke-width:1.0;" width="10" x="503.5" y="204.8516"/><rect fill="#FFFFFF" height="66.5703" style="stroke:#181818;stroke-width:1.0;" width="10" x="503.5" y="276.4219"/><rect fill="#FFFFFF" height="52.0469" style="stroke:#181818;stroke-width:1.0;" width="10" x="503.5" y="371.5156"/><rect fill="#FFFFFF" height="42.8125" style="stroke:#181818;stroke-width:1.0;" width="10" x="503.5" y="452.0859"/><rect fill="#FFFFFF" height="35.5234" style="stroke:#181818;stroke-width:1.0;" width="10" x="503.5" y="523.4219"/><rect fill="#FFFFFF" height="28.5234" style="stroke:#181818;stroke-width:1.0;" width="10" x="503.5" y="587.4688"/><rect fill="#FFFFFF" height="42.8125" style="stroke:#181818;stroke-width:1.0;" width="10" x="503.5" y="644.5156"/><rect fill="#FFFFFF" height="28.5234" style="stroke:#181818;stroke-width:1.0;" width="10" x="503.5" y="715.8516"/><rect fill="#FFFFFF" height="35.5234" style="stroke:#181818;stroke-width:1.0;" width="10" x="503.5" y="772.8984"/><rect fill="none" height="489.4766" style="stroke:#000000;stroke-width:1.5;" width="550.5" x="10" y="291.4219"/><rect fill="none" height="144.9063" style="stroke:#000000;stroke-width:1.5;" width="530.5" x="20" y="386.5156"/><line style="stroke:#181818;stroke-width:0.5;stroke-dasharray:5.0,5.0;" x1="51" x2="51" y1="117.2813" y2="826.4219"/><line style="stroke:#181818;stroke-width:0.5;stroke-dasharray:5.0,5.0;" x1="508.5" x2="508.5" y1="117.2813" y2="826.4219"/><text fill="#000000" font-family="sans-serif" font-size="14" lengthAdjust="spacing" textLength="37" x="30" y="114.3145">Agent</text><ellipse cx="51.5" cy="50.1406" fill="#E3E3E3" rx="8" ry="8" style="stroke:#181818;stroke-width:0.5;"/><path d="M51.5,58.1406 L51.5,85.1406 M38.5,66.1406 L64.5,66.1406 M51.5,85.1406 L38.5,100.1406 M51.5,85.1406 L64.5,100.1406 " fill="none" style="stroke:#181818;stroke-width:0.5;"/><text fill="#000000" font-family="sans-serif" font-size="14" lengthAdjust="spacing" textLength="37" x="30" y="838.0957">Agent</text><ellipse cx="51.5" cy="849.5625" fill="#E3E3E3" rx="8" ry="8" style="stroke:#181818;stroke-width:0.5;"/><path d="M51.5,857.5625 L51.5,884.5625 M38.5,865.5625 L64.5,865.5625 M51.5,884.5625 L38.5,899.5625 M51.5,884.5625 L64.5,899.5625 " fill="none" style="stroke:#181818;stroke-width:0.5;"/><rect fill="#E3E3E3" height="29.6406" rx="2.5" ry="2.5" style="stroke:#181818;stroke-width:0.5;" width="64" x="476.5" y="86.6406"/><text fill="#000000" font-family="sans-serif" font-size="14" lengthAdjust="spacing" textLength="50" x="483.5" y="106.3145">:System</text><rect fill="#E3E3E3" height="29.6406" rx="2.5" ry="2.5" style="stroke:#181818;stroke-width:0.5;" width="64" x="476.5" y="825.4219"/><text fill="#000000" font-family="sans-serif" font-size="14" lengthAdjust="spacing" textLength="50" x="483.5" y="845.0957">:System</text><rect fill="#FFFFFF" height="690.1406" style="stroke:#181818;stroke-width:1.0;" width="10" x="46.5" y="127.2813"/><rect fill="#FFFFFF" height="28.5234" style="stroke:#181818;stroke-width:1.0;" width="10" x="503.5" y="147.8047"/><rect fill="#FFFFFF" height="43.0469" style="stroke:#181818;stroke-width:1.0;" width="10" x="503.5" y="204.8516"/><rect fill="#FFFFFF" height="66.5703" style="stroke:#181818;stroke-width:1.0;" width="10" x="503.5" y="276.4219"/><rect fill="#FFFFFF" height="52.0469" style="stroke:#181818;stroke-width:1.0;" width="10" x="503.5" y="371.5156"/><rect fill="#FFFFFF" height="42.8125" style="stroke:#181818;stroke-width:1.0;" width="10" x="503.5" y="452.0859"/><rect fill="#FFFFFF" height="35.5234" style="stroke:#181818;stroke-width:1.0;" width="10" x="503.5" y="523.4219"/><rect fill="#FFFFFF" height="28.5234" style="stroke:#181818;stroke-width:1.0;" width="10" x="503.5" y="587.4688"/><rect fill="#FFFFFF" height="42.8125" style="stroke:#181818;stroke-width:1.0;" width="10" x="503.5" y="644.5156"/><rect fill="#FFFFFF" height="28.5234" style="stroke:#181818;stroke-width:1.0;" width="10" x="503.5" y="715.8516"/><rect fill="#FFFFFF" height="35.5234" style="stroke:#181818;stroke-width:1.0;" width="10" x="503.5" y="772.8984"/><polygon fill="#181818" points="491.5,143.8047,501.5,147.8047,491.5,151.8047,495.5,147.8047" style="stroke:#181818;stroke-width:1.0;"/><line style="stroke:#181818;stroke-width:1.0;" x1="56.5" x2="497.5" y1="147.8047" y2="147.8047"/><text fill="#000000" font-family="sans-serif" font-size="13" font-weight="bold" lengthAdjust="spacing" textLength="7" x="63.5" y="143.0498">1</text><text fill="#000000" font-family="sans-serif" font-size="13" lengthAdjust="spacing" textLength="237" x="74.5" y="143.0498">Ask to publish an announcement request</text><polygon fill="#181818" points="67.5,172.3281,57.5,176.3281,67.5,180.3281,63.5,176.3281" style="stroke:#181818;stroke-width:1.0;"/><line style="stroke:#181818;stroke-width:1.0;stroke-dasharray:2.0,2.0;" x1="61.5" x2="507.5" y1="176.3281" y2="176.3281"/><text fill="#000000" font-family="sans-serif" font-size="13" font-weight="bold" lengthAdjust="spacing" textLength="7" x="73.5" y="171.5732">2</text><text fill="#000000" font-family="sans-serif" font-size="13" lengthAdjust="spacing" textLength="412" x="84.5" y="171.5732">Show the list of property announcement requests and ask to select one</text><polygon fill="#181818" points="491.5,200.8516,501.5,204.8516,491.5,208.8516,495.5,204.8516" style="stroke:#181818;stroke-width:1.0;"/><line style="stroke:#181818;stroke-width:1.0;" x1="56.5" x2="497.5" y1="204.8516" y2="204.8516"/><text fill="#000000" font-family="sans-serif" font-size="13" font-weight="bold" lengthAdjust="spacing" textLength="7" x="63.5" y="200.0967">3</text><text fill="#000000" font-family="sans-serif" font-size="13" lengthAdjust="spacing" textLength="95" x="74.5" y="200.0967">Select a request</text><polygon fill="#181818" points="67.5,243.8984,57.5,247.8984,67.5,251.8984,63.5,247.8984" style="stroke:#181818;stroke-width:1.0;"/><line style="stroke:#181818;stroke-width:1.0;stroke-dasharray:2.0,2.0;" x1="61.5" x2="507.5" y1="247.8984" y2="247.8984"/><text fill="#000000" font-family="sans-serif" font-size="13" font-weight="bold" lengthAdjust="spacing" textLength="7" x="73.5" y="235.8818">4</text><text fill="#000000" font-family="sans-serif" font-size="13" lengthAdjust="spacing" textLength="294" x="84.5" y="228.6201">Show the information it contains, show acceptence</text><text fill="#000000" font-family="sans-serif" font-size="13" lengthAdjust="spacing" textLength="304" x="84.5" y="243.1436">options (i.e. accept or decline) and ask to select one</text><polygon fill="#181818" points="491.5,272.4219,501.5,276.4219,491.5,280.4219,495.5,276.4219" style="stroke:#181818;stroke-width:1.0;"/><line style="stroke:#181818;stroke-width:1.0;" x1="56.5" x2="497.5" y1="276.4219" y2="276.4219"/><text fill="#000000" font-family="sans-serif" font-size="13" font-weight="bold" lengthAdjust="spacing" textLength="7" x="63.5" y="271.667">5</text><text fill="#000000" font-family="sans-serif" font-size="13" lengthAdjust="spacing" textLength="151" x="74.5" y="271.667">Select type of acceptence</text><path d="M10,291.4219 L71,291.4219 L71,297.9453 L61,307.9453 L10,307.9453 L10,291.4219 " fill="#EEEEEE" style="stroke:#000000;stroke-width:1.5;"/><rect fill="none" height="489.4766" style="stroke:#000000;stroke-width:1.5;" width="550.5" x="10" y="291.4219"/><text fill="#000000" font-family="sans-serif" font-size="13" font-weight="bold" lengthAdjust="spacing" textLength="16" x="25" y="304.1904">alt</text><text fill="#000000" font-family="sans-serif" font-size="11" font-weight="bold" lengthAdjust="spacing" textLength="151" x="86" y="303.3799">[Acceptance type is accept]</text><polygon fill="#181818" points="67.5,338.9922,57.5,342.9922,67.5,346.9922,63.5,342.9922" style="stroke:#181818;stroke-width:1.0;"/><line style="stroke:#181818;stroke-width:1.0;stroke-dasharray:2.0,2.0;" x1="61.5" x2="507.5" y1="342.9922" y2="342.9922"/><text fill="#000000" font-family="sans-serif" font-size="13" font-weight="bold" lengthAdjust="spacing" textLength="7" x="73.5" y="330.9756">6</text><text fill="#000000" font-family="sans-serif" font-size="13" lengthAdjust="spacing" textLength="195" x="84.5" y="323.7139">Show type of commission options</text><text fill="#000000" font-family="sans-serif" font-size="13" lengthAdjust="spacing" textLength="327" x="84.5" y="338.2373">(i.e. fixed ammount or percentage) and ask to select one</text><polygon fill="#181818" points="491.5,367.5156,501.5,371.5156,491.5,375.5156,495.5,371.5156" style="stroke:#181818;stroke-width:1.0;"/><line style="stroke:#181818;stroke-width:1.0;" x1="56.5" x2="497.5" y1="371.5156" y2="371.5156"/><text fill="#000000" font-family="sans-serif" font-size="13" font-weight="bold" lengthAdjust="spacing" textLength="7" x="63.5" y="366.7607">7</text><text fill="#000000" font-family="sans-serif" font-size="13" lengthAdjust="spacing" textLength="154" x="74.5" y="366.7607">Select type of commission</text><path d="M20,386.5156 L81,386.5156 L81,393.0391 L71,403.0391 L20,403.0391 L20,386.5156 " fill="#EEEEEE" style="stroke:#000000;stroke-width:1.5;"/><rect fill="none" height="144.9063" style="stroke:#000000;stroke-width:1.5;" width="530.5" x="20" y="386.5156"/><text fill="#000000" font-family="sans-serif" font-size="13" font-weight="bold" lengthAdjust="spacing" textLength="16" x="35" y="399.2842">alt</text><text fill="#000000" font-family="sans-serif" font-size="11" font-weight="bold" lengthAdjust="spacing" textLength="205" x="96" y="398.4736">[Commission type is fixed ammount]</text><polygon fill="#181818" points="67.5,419.5625,57.5,423.5625,67.5,427.5625,63.5,423.5625" style="stroke:#181818;stroke-width:1.0;"/><line style="stroke:#181818;stroke-width:1.0;stroke-dasharray:2.0,2.0;" x1="61.5" x2="507.5" y1="423.5625" y2="423.5625"/><text fill="#000000" font-family="sans-serif" font-size="13" font-weight="bold" lengthAdjust="spacing" textLength="7" x="73.5" y="418.8076">8</text><text fill="#000000" font-family="sans-serif" font-size="13" lengthAdjust="spacing" textLength="196" x="84.5" y="418.8076">Request data (i.e. fixed ammount)</text><polygon fill="#181818" points="491.5,448.0859,501.5,452.0859,491.5,456.0859,495.5,452.0859" style="stroke:#181818;stroke-width:1.0;"/><line style="stroke:#181818;stroke-width:1.0;" x1="56.5" x2="497.5" y1="452.0859" y2="452.0859"/><text fill="#000000" font-family="sans-serif" font-size="13" font-weight="bold" lengthAdjust="spacing" textLength="7" x="63.5" y="447.3311">9</text><text fill="#000000" font-family="sans-serif" font-size="13" lengthAdjust="spacing" textLength="118" x="74.5" y="447.3311">Type requested data</text><line style="stroke:#000000;stroke-width:1.0;stroke-dasharray:2.0,2.0;" x1="20" x2="550.5" y1="461.0859" y2="461.0859"/><text fill="#000000" font-family="sans-serif" font-size="11" font-weight="bold" lengthAdjust="spacing" textLength="185" x="25" y="471.0439">[Commission type is percentage]</text><polygon fill="#181818" points="67.5,490.8984,57.5,494.8984,67.5,498.8984,63.5,494.8984" style="stroke:#181818;stroke-width:1.0;"/><line style="stroke:#181818;stroke-width:1.0;stroke-dasharray:2.0,2.0;" x1="61.5" x2="507.5" y1="494.8984" y2="494.8984"/><text fill="#000000" font-family="sans-serif" font-size="13" font-weight="bold" lengthAdjust="spacing" textLength="14" x="73.5" y="490.1436">10</text><text fill="#000000" font-family="sans-serif" font-size="13" lengthAdjust="spacing" textLength="175" x="91.5" y="490.1436">Request data (i.e. percentage)</text><polygon fill="#181818" points="491.5,519.4219,501.5,523.4219,491.5,527.4219,495.5,523.4219" style="stroke:#181818;stroke-width:1.0;"/><line style="stroke:#181818;stroke-width:1.0;" x1="56.5" x2="497.5" y1="523.4219" y2="523.4219"/><text fill="#000000" font-family="sans-serif" font-size="13" font-weight="bold" lengthAdjust="spacing" textLength="14" x="63.5" y="518.667">11</text><text fill="#000000" font-family="sans-serif" font-size="13" lengthAdjust="spacing" textLength="118" x="81.5" y="518.667">Type requested data</text><polygon fill="#181818" points="67.5,554.9453,57.5,558.9453,67.5,562.9453,63.5,558.9453" style="stroke:#181818;stroke-width:1.0;"/><line style="stroke:#181818;stroke-width:1.0;stroke-dasharray:2.0,2.0;" x1="61.5" x2="507.5" y1="558.9453" y2="558.9453"/><text fill="#000000" font-family="sans-serif" font-size="13" font-weight="bold" lengthAdjust="spacing" textLength="14" x="73.5" y="554.1904">12</text><text fill="#000000" font-family="sans-serif" font-size="13" lengthAdjust="spacing" textLength="136" x="91.5" y="554.1904">Request data (i.e. date)</text><polygon fill="#181818" points="491.5,583.4688,501.5,587.4688,491.5,591.4688,495.5,587.4688" style="stroke:#181818;stroke-width:1.0;"/><line style="stroke:#181818;stroke-width:1.0;" x1="56.5" x2="497.5" y1="587.4688" y2="587.4688"/><text fill="#000000" font-family="sans-serif" font-size="13" font-weight="bold" lengthAdjust="spacing" textLength="14" x="63.5" y="582.7139">13</text><text fill="#000000" font-family="sans-serif" font-size="13" lengthAdjust="spacing" textLength="118" x="81.5" y="582.7139">Type requested data</text><polygon fill="#181818" points="67.5,611.9922,57.5,615.9922,67.5,619.9922,63.5,615.9922" style="stroke:#181818;stroke-width:1.0;"/><line style="stroke:#181818;stroke-width:1.0;stroke-dasharray:2.0,2.0;" x1="61.5" x2="507.5" y1="615.9922" y2="615.9922"/><text fill="#000000" font-family="sans-serif" font-size="13" font-weight="bold" lengthAdjust="spacing" textLength="14" x="73.5" y="611.2373">14</text><text fill="#000000" font-family="sans-serif" font-size="13" lengthAdjust="spacing" textLength="374" x="91.5" y="611.2373">Show data and ask for confirmation to publish the announcement</text><polygon fill="#181818" points="491.5,640.5156,501.5,644.5156,491.5,648.5156,495.5,644.5156" style="stroke:#181818;stroke-width:1.0;"/><line style="stroke:#181818;stroke-width:1.0;" x1="56.5" x2="497.5" y1="644.5156" y2="644.5156"/><text fill="#000000" font-family="sans-serif" font-size="13" font-weight="bold" lengthAdjust="spacing" textLength="14" x="63.5" y="639.7607">15</text><text fill="#000000" font-family="sans-serif" font-size="13" lengthAdjust="spacing" textLength="41" x="81.5" y="639.7607">Submit</text><line style="stroke:#000000;stroke-width:1.0;stroke-dasharray:2.0,2.0;" x1="10" x2="560.5" y1="653.5156" y2="653.5156"/><text fill="#000000" font-family="sans-serif" font-size="11" font-weight="bold" lengthAdjust="spacing" textLength="155" x="15" y="663.4736">[Acceptance type is decline]</text><polygon fill="#181818" points="67.5,683.3281,57.5,687.3281,67.5,691.3281,63.5,687.3281" style="stroke:#181818;stroke-width:1.0;"/><line style="stroke:#181818;stroke-width:1.0;stroke-dasharray:2.0,2.0;" x1="61.5" x2="507.5" y1="687.3281" y2="687.3281"/><text fill="#000000" font-family="sans-serif" font-size="13" font-weight="bold" lengthAdjust="spacing" textLength="14" x="73.5" y="682.5732">16</text><text fill="#000000" font-family="sans-serif" font-size="13" lengthAdjust="spacing" textLength="164" x="91.5" y="682.5732">Request data (i.e. message)</text><polygon fill="#181818" points="491.5,711.8516,501.5,715.8516,491.5,719.8516,495.5,715.8516" style="stroke:#181818;stroke-width:1.0;"/><line style="stroke:#181818;stroke-width:1.0;" x1="56.5" x2="497.5" y1="715.8516" y2="715.8516"/><text fill="#000000" font-family="sans-serif" font-size="13" font-weight="bold" lengthAdjust="spacing" textLength="14" x="63.5" y="711.0967">17</text><text fill="#000000" font-family="sans-serif" font-size="13" lengthAdjust="spacing" textLength="118" x="81.5" y="711.0967">Type requested data</text><polygon fill="#181818" points="67.5,740.375,57.5,744.375,67.5,748.375,63.5,744.375" style="stroke:#181818;stroke-width:1.0;"/><line style="stroke:#181818;stroke-width:1.0;stroke-dasharray:2.0,2.0;" x1="61.5" x2="507.5" y1="744.375" y2="744.375"/><text fill="#000000" font-family="sans-serif" font-size="13" font-weight="bold" lengthAdjust="spacing" textLength="14" x="73.5" y="739.6201">18</text><text fill="#000000" font-family="sans-serif" font-size="13" lengthAdjust="spacing" textLength="244" x="91.5" y="739.6201">Ask for confirmation to decline the request</text><polygon fill="#181818" points="491.5,768.8984,501.5,772.8984,491.5,776.8984,495.5,772.8984" style="stroke:#181818;stroke-width:1.0;"/><line style="stroke:#181818;stroke-width:1.0;" x1="56.5" x2="497.5" y1="772.8984" y2="772.8984"/><text fill="#000000" font-family="sans-serif" font-size="13" font-weight="bold" lengthAdjust="spacing" textLength="14" x="63.5" y="768.1436">19</text><text fill="#000000" font-family="sans-serif" font-size="13" lengthAdjust="spacing" textLength="41" x="81.5" y="768.1436">Submit</text><polygon fill="#181818" points="67.5,804.4219,57.5,808.4219,67.5,812.4219,63.5,808.4219" style="stroke:#181818;stroke-width:1.0;"/><line style="stroke:#181818;stroke-width:1.0;stroke-dasharray:2.0,2.0;" x1="61.5" x2="507.5" y1="808.4219" y2="808.4219"/><text fill="#000000" font-family="sans-serif" font-size="13" font-weight="bold" lengthAdjust="spacing" textLength="14" x="73.5" y="803.667">20</text><text fill="#000000" font-family="sans-serif" font-size="13" lengthAdjust="spacing" textLength="153" x="91.5" y="803.667">Display operation success</text><!--SRC=[jLNBZjim3BpxAuYSDa2ps6EHGu6W-OAwlUs5aMb7Y2Mv5jrj_hwKR2Tk8-VHROKSY8YFcI55-uEs3RPem3ZhrBvrXe3RZZ9_kcbG7R2Yd8yrGKkAqLRrrC7liN1lsbPGOkqforYpkEP7psGWf-yTMKMmrLW5zwSytovX1T_obvUFMOOTEzkP7RLYAtOjB3OLMLu0UeXM9cLOAzsWPLYi-xpnkZTZdFw1J8D_1dAY2QjF8uurRFm1s47JxMhjzu1MVjPrWiq4rpO0zHo3Jmd72Z2S8TbAylO5rf3ltHlmda2oChWIcjOrrF8ncTxBluLWZr0yrQ8dE4knG479kfTCyZuERsE-XbVRqhK6MJiBca4vowYj_o0D5GzKYXgEdNkrhWbU7fxqCpqFLo2jAaZLsjBo7vBYOqD1nNFzUNPOCsoY7mQSCLJx8VI604CPvOpHtWSDHfAljgTPwfyah8oH9aQsqbKbAUGn_0_2PoJNHp2G_dn6FPB-3Ut9UNeIKdpfvmSAP8G4wsKoqGp3Fyybuwy1wp2pKYHKJKRUbPvarwI4E7Sf6NQ_4fDspsQwKuhtoP6IvAI2BMO7FS59p87DtMCwX_AXVHCXZ6z6raxODgKUjyzaAuV5DDsR3pwfRcVqZHKUvoQnDOPTbZq-A8QylvYI6vFn-3HSJPS0kfbHUk0PbPv-F_uQ-4JqgrYlZUfM-wR68uGlPu_KTz8YxsVw_mi0]--></g></svg>