<?xml version="1.0" encoding="us-ascii" standalone="no"?><svg xmlns="http://www.w3.org/2000/svg" xmlns:xlink="http://www.w3.org/1999/xlink" contentStyleType="text/css" height="722.4px" preserveAspectRatio="none" style="width:1829px;height:722px;background:#FFFFFF;" version="1.1" viewBox="0 0 1829 722" width="1829.6px" zoomAndPan="magnify"><defs/><g><!--class AdvertisementRepository--><g id="elem_AdvertisementRepository"><rect codeLine="11" fill="#F1F1F1" height="100.9625" id="AdvertisementRepository" rx="2" ry="2" style="stroke:#181818;stroke-width:0.4000000000000001;" width="404" x="1215.2" y="167.2"/><ellipse cx="1350.6" cy="180" fill="#ADD1B2" rx="8.8" ry="8.8" style="stroke:#181818;stroke-width:0.8000000000000002;"/><path d="M1352.8125,176.7 Q1352.9375,176.525 1353.0875,176.4375 Q1353.2375,176.35 1353.4125,176.35 Q1353.7125,176.35 1353.9,176.5625 Q1354.0875,176.7625 1354.0875,177.25 L1354.0875,178.4125 Q1354.0875,178.9 1353.9,179.1125 Q1353.7125,179.325 1353.4125,179.325 Q1353.1375,179.325 1352.975,179.1625 Q1352.8125,179.0125 1352.725,178.6 Q1352.6875,178.3125 1352.5375,178.1625 Q1352.275,177.8625 1351.7875,177.6875 Q1351.3,177.5125 1350.8,177.5125 Q1350.1875,177.5125 1349.675,177.775 Q1349.175,178.0375 1348.775,178.6375 Q1348.3875,179.2375 1348.3875,180.0625 L1348.3875,180.9375 Q1348.3875,181.925 1349.1,182.5875 Q1349.8125,183.2375 1351.0875,183.2375 Q1351.8375,183.2375 1352.3625,183.0375 Q1352.675,182.9125 1353.0125,182.5625 Q1353.225,182.35 1353.3375,182.2875 Q1353.4625,182.225 1353.625,182.225 Q1353.8875,182.225 1354.0875,182.4375 Q1354.3,182.6375 1354.3,182.9125 Q1354.3,183.1875 1354.025,183.5125 Q1353.625,183.975 1352.9875,184.2375 Q1352.125,184.6 1351.0875,184.6 Q1349.875,184.6 1348.9125,184.1 Q1348.125,183.7 1347.575,182.85 Q1347.025,181.9875 1347.025,180.9625 L1347.025,180.0375 Q1347.025,178.975 1347.5125,178.0625 Q1348.0125,177.1375 1348.8875,176.65 Q1349.7625,176.15 1350.75,176.15 Q1351.3375,176.15 1351.85,176.2875 Q1352.375,176.4125 1352.8125,176.7 Z " fill="#000000"/><text fill="#000000" font-family="sans-serif" font-size="11.2" lengthAdjust="spacing" textLength="126.4" x="1367" y="183.8828">AdvertisementRepository</text><line style="stroke:#181818;stroke-width:0.4000000000000001;" x1="1216" x2="1618.4" y1="192.8" y2="192.8"/><text fill="#000000" font-family="sans-serif" font-size="11.2" lengthAdjust="spacing" textLength="189.6" x="1220" y="206.1391">-advertisements: List&lt;Advertisement&gt;</text><line style="stroke:#181818;stroke-width:0.4000000000000001;" x1="1216" x2="1618.4" y1="211.7125" y2="211.7125"/><text fill="#000000" font-family="sans-serif" font-size="11.2" lengthAdjust="spacing" textLength="108" x="1220" y="225.0516">+getAdvertisements()</text><text fill="#000000" font-family="sans-serif" font-size="11.2" lengthAdjust="spacing" textLength="196.8" x="1220" y="237.5641">+validateAdvertisement(advertisement)</text><text fill="#000000" font-family="sans-serif" font-size="11.2" lengthAdjust="spacing" textLength="176.8" x="1220" y="250.0766">+addAdvertisement(advertisement)</text><text fill="#000000" font-family="sans-serif" font-size="11.2" lengthAdjust="spacing" textLength="394.4" x="1220" y="262.5891">+createAdvertisementFromRequest(advertisementRequest, commission, date)</text></g><!--class AdvertisementRequestRepository--><g id="elem_AdvertisementRequestRepository"><rect codeLine="19" fill="#F1F1F1" height="100.9625" id="AdvertisementRequestRepository" rx="2" ry="2" style="stroke:#181818;stroke-width:0.4000000000000001;" width="427.2" x="702.8" y="167.2"/><ellipse cx="828.6" cy="180" fill="#ADD1B2" rx="8.8" ry="8.8" style="stroke:#181818;stroke-width:0.8000000000000002;"/><path d="M830.8125,176.7 Q830.9375,176.525 831.0875,176.4375 Q831.2375,176.35 831.4125,176.35 Q831.7125,176.35 831.9,176.5625 Q832.0875,176.7625 832.0875,177.25 L832.0875,178.4125 Q832.0875,178.9 831.9,179.1125 Q831.7125,179.325 831.4125,179.325 Q831.1375,179.325 830.975,179.1625 Q830.8125,179.0125 830.725,178.6 Q830.6875,178.3125 830.5375,178.1625 Q830.275,177.8625 829.7875,177.6875 Q829.3,177.5125 828.8,177.5125 Q828.1875,177.5125 827.675,177.775 Q827.175,178.0375 826.775,178.6375 Q826.3875,179.2375 826.3875,180.0625 L826.3875,180.9375 Q826.3875,181.925 827.1,182.5875 Q827.8125,183.2375 829.0875,183.2375 Q829.8375,183.2375 830.3625,183.0375 Q830.675,182.9125 831.0125,182.5625 Q831.225,182.35 831.3375,182.2875 Q831.4625,182.225 831.625,182.225 Q831.8875,182.225 832.0875,182.4375 Q832.3,182.6375 832.3,182.9125 Q832.3,183.1875 832.025,183.5125 Q831.625,183.975 830.9875,184.2375 Q830.125,184.6 829.0875,184.6 Q827.875,184.6 826.9125,184.1 Q826.125,183.7 825.575,182.85 Q825.025,181.9875 825.025,180.9625 L825.025,180.0375 Q825.025,178.975 825.5125,178.0625 Q826.0125,177.1375 826.8875,176.65 Q827.7625,176.15 828.75,176.15 Q829.3375,176.15 829.85,176.2875 Q830.375,176.4125 830.8125,176.7 Z " fill="#000000"/><text fill="#000000" font-family="sans-serif" font-size="11.2" lengthAdjust="spacing" textLength="168.8" x="845" y="183.8828">AdvertisementRequestRepository</text><line style="stroke:#181818;stroke-width:0.4000000000000001;" x1="703.6" x2="1129.2" y1="192.8" y2="192.8"/><text fill="#000000" font-family="sans-serif" font-size="11.2" lengthAdjust="spacing" textLength="274.4" x="707.6" y="206.1391">-advertisementRequests: List&lt;AdvertisementRequest&gt;</text><line style="stroke:#181818;stroke-width:0.4000000000000001;" x1="703.6" x2="1129.2" y1="211.7125" y2="211.7125"/><text fill="#000000" font-family="sans-serif" font-size="11.2" lengthAdjust="spacing" textLength="150.4" x="707.6" y="225.0516">+getAdvertisementRequests()</text><text fill="#000000" font-family="sans-serif" font-size="11.2" lengthAdjust="spacing" textLength="281.6" x="707.6" y="237.5641">+validateAdvertisementRequest(advertisementRequest)</text><text fill="#000000" font-family="sans-serif" font-size="11.2" lengthAdjust="spacing" textLength="261.6" x="707.6" y="250.0766">+addAdvertisementRequest(advertisementRequest)</text><text fill="#000000" font-family="sans-serif" font-size="11.2" lengthAdjust="spacing" textLength="417.6" x="707.6" y="262.5891">+createRequest(emailAddress, store, agent, property, propertyType, requestType)</text></g><!--class ClientRepository--><g id="elem_ClientRepository"><rect codeLine="27" fill="#F1F1F1" height="75.9375" id="ClientRepository" rx="2" ry="2" style="stroke:#181818;stroke-width:0.4000000000000001;" width="176.8" x="1647.2" y="179.6"/><ellipse cx="1690.6" cy="192.4" fill="#ADD1B2" rx="8.8" ry="8.8" style="stroke:#181818;stroke-width:0.8000000000000002;"/><path d="M1692.8125,189.1 Q1692.9375,188.925 1693.0875,188.8375 Q1693.2375,188.75 1693.4125,188.75 Q1693.7125,188.75 1693.9,188.9625 Q1694.0875,189.1625 1694.0875,189.65 L1694.0875,190.8125 Q1694.0875,191.3 1693.9,191.5125 Q1693.7125,191.725 1693.4125,191.725 Q1693.1375,191.725 1692.975,191.5625 Q1692.8125,191.4125 1692.725,191 Q1692.6875,190.7125 1692.5375,190.5625 Q1692.275,190.2625 1691.7875,190.0875 Q1691.3,189.9125 1690.8,189.9125 Q1690.1875,189.9125 1689.675,190.175 Q1689.175,190.4375 1688.775,191.0375 Q1688.3875,191.6375 1688.3875,192.4625 L1688.3875,193.3375 Q1688.3875,194.325 1689.1,194.9875 Q1689.8125,195.6375 1691.0875,195.6375 Q1691.8375,195.6375 1692.3625,195.4375 Q1692.675,195.3125 1693.0125,194.9625 Q1693.225,194.75 1693.3375,194.6875 Q1693.4625,194.625 1693.625,194.625 Q1693.8875,194.625 1694.0875,194.8375 Q1694.3,195.0375 1694.3,195.3125 Q1694.3,195.5875 1694.025,195.9125 Q1693.625,196.375 1692.9875,196.6375 Q1692.125,197 1691.0875,197 Q1689.875,197 1688.9125,196.5 Q1688.125,196.1 1687.575,195.25 Q1687.025,194.3875 1687.025,193.3625 L1687.025,192.4375 Q1687.025,191.375 1687.5125,190.4625 Q1688.0125,189.5375 1688.8875,189.05 Q1689.7625,188.55 1690.75,188.55 Q1691.3375,188.55 1691.85,188.6875 Q1692.375,188.8125 1692.8125,189.1 Z " fill="#000000"/><text fill="#000000" font-family="sans-serif" font-size="11.2" lengthAdjust="spacing" textLength="83.2" x="1707" y="196.2828">ClientRepository</text><line style="stroke:#181818;stroke-width:0.4000000000000001;" x1="1648" x2="1823.2" y1="205.2" y2="205.2"/><text fill="#000000" font-family="sans-serif" font-size="11.2" lengthAdjust="spacing" textLength="128.8" x="1652" y="218.5391">-clients: ArrayList&lt;Client&gt;</text><line style="stroke:#181818;stroke-width:0.4000000000000001;" x1="1648" x2="1823.2" y1="224.1125" y2="224.1125"/><text fill="#000000" font-family="sans-serif" font-size="11.2" lengthAdjust="spacing" textLength="82.4" x="1652" y="237.4516">+getClientsList()</text><text fill="#000000" font-family="sans-serif" font-size="11.2" lengthAdjust="spacing" textLength="167.2" x="1652" y="249.9641">+getClientByEmail(emailAddress)</text></g><!--class Advertisement--><g id="elem_Advertisement"><rect codeLine="33" fill="#F1F1F1" height="151.0125" id="Advertisement" rx="2" ry="2" style="stroke:#181818;stroke-width:0.4000000000000001;" width="303.2" x="1136" y="566.4"/><ellipse cx="1248.2" cy="579.2" fill="#ADD1B2" rx="8.8" ry="8.8" style="stroke:#181818;stroke-width:0.8000000000000002;"/><path d="M1250.4125,575.9 Q1250.5375,575.725 1250.6875,575.6375 Q1250.8375,575.55 1251.0125,575.55 Q1251.3125,575.55 1251.5,575.7625 Q1251.6875,575.9625 1251.6875,576.45 L1251.6875,577.6125 Q1251.6875,578.1 1251.5,578.3125 Q1251.3125,578.525 1251.0125,578.525 Q1250.7375,578.525 1250.575,578.3625 Q1250.4125,578.2125 1250.325,577.8 Q1250.2875,577.5125 1250.1375,577.3625 Q1249.875,577.0625 1249.3875,576.8875 Q1248.9,576.7125 1248.4,576.7125 Q1247.7875,576.7125 1247.275,576.975 Q1246.775,577.2375 1246.375,577.8375 Q1245.9875,578.4375 1245.9875,579.2625 L1245.9875,580.1375 Q1245.9875,581.125 1246.7,581.7875 Q1247.4125,582.4375 1248.6875,582.4375 Q1249.4375,582.4375 1249.9625,582.2375 Q1250.275,582.1125 1250.6125,581.7625 Q1250.825,581.55 1250.9375,581.4875 Q1251.0625,581.425 1251.225,581.425 Q1251.4875,581.425 1251.6875,581.6375 Q1251.9,581.8375 1251.9,582.1125 Q1251.9,582.3875 1251.625,582.7125 Q1251.225,583.175 1250.5875,583.4375 Q1249.725,583.8 1248.6875,583.8 Q1247.475,583.8 1246.5125,583.3 Q1245.725,582.9 1245.175,582.05 Q1244.625,581.1875 1244.625,580.1625 L1244.625,579.2375 Q1244.625,578.175 1245.1125,577.2625 Q1245.6125,576.3375 1246.4875,575.85 Q1247.3625,575.35 1248.35,575.35 Q1248.9375,575.35 1249.45,575.4875 Q1249.975,575.6125 1250.4125,575.9 Z " fill="#000000"/><text fill="#000000" font-family="sans-serif" font-size="11.2" lengthAdjust="spacing" textLength="72" x="1264.6" y="583.0828">Advertisement</text><line style="stroke:#181818;stroke-width:0.4000000000000001;" x1="1136.8" x2="1438.4" y1="592" y2="592"/><text fill="#000000" font-family="sans-serif" font-size="11.2" lengthAdjust="spacing" textLength="100.8" x="1140.8" y="605.3391">-emailAdress: Client</text><text fill="#000000" font-family="sans-serif" font-size="11.2" lengthAdjust="spacing" textLength="62.4" x="1140.8" y="617.8516">-date: String</text><text fill="#000000" font-family="sans-serif" font-size="11.2" lengthAdjust="spacing" textLength="129.6" x="1140.8" y="630.3641">-commission: Commission</text><text fill="#000000" font-family="sans-serif" font-size="11.2" lengthAdjust="spacing" textLength="238.4" x="1140.8" y="642.8766">-advertisementRequest: AdvertisementRequest</text><line style="stroke:#181818;stroke-width:0.4000000000000001;" x1="1136.8" x2="1438.4" y1="648.45" y2="648.45"/><text fill="#000000" font-family="sans-serif" font-size="11.2" lengthAdjust="spacing" textLength="293.6" x="1140.8" y="661.7891">+Advertisement(advertisementRequest, commission, date)</text><text fill="#000000" font-family="sans-serif" font-size="11.2" lengthAdjust="spacing" textLength="59.2" x="1140.8" y="674.3016">+getClient()</text><text fill="#000000" font-family="sans-serif" font-size="11.2" lengthAdjust="spacing" textLength="54.4" x="1140.8" y="686.8141">+getDate()</text><text fill="#000000" font-family="sans-serif" font-size="11.2" lengthAdjust="spacing" textLength="91.2" x="1140.8" y="699.3266">+getCommission()</text><text fill="#000000" font-family="sans-serif" font-size="11.2" lengthAdjust="spacing" textLength="144.8" x="1140.8" y="711.8391">+getAdvertisementRequest()</text></g><!--class AdvertisementRequest--><g id="elem_AdvertisementRequest"><rect codeLine="45" fill="#F1F1F1" height="188.55" id="AdvertisementRequest" rx="2" ry="2" style="stroke:#181818;stroke-width:0.4000000000000001;" width="392.8" x="720" y="328.8"/><ellipse cx="855.8" cy="341.6" fill="#ADD1B2" rx="8.8" ry="8.8" style="stroke:#181818;stroke-width:0.8000000000000002;"/><path d="M858.0125,338.3 Q858.1375,338.125 858.2875,338.0375 Q858.4375,337.95 858.6125,337.95 Q858.9125,337.95 859.1,338.1625 Q859.2875,338.3625 859.2875,338.85 L859.2875,340.0125 Q859.2875,340.5 859.1,340.7125 Q858.9125,340.925 858.6125,340.925 Q858.3375,340.925 858.175,340.7625 Q858.0125,340.6125 857.925,340.2 Q857.8875,339.9125 857.7375,339.7625 Q857.475,339.4625 856.9875,339.2875 Q856.5,339.1125 856,339.1125 Q855.3875,339.1125 854.875,339.375 Q854.375,339.6375 853.975,340.2375 Q853.5875,340.8375 853.5875,341.6625 L853.5875,342.5375 Q853.5875,343.525 854.3,344.1875 Q855.0125,344.8375 856.2875,344.8375 Q857.0375,344.8375 857.5625,344.6375 Q857.875,344.5125 858.2125,344.1625 Q858.425,343.95 858.5375,343.8875 Q858.6625,343.825 858.825,343.825 Q859.0875,343.825 859.2875,344.0375 Q859.5,344.2375 859.5,344.5125 Q859.5,344.7875 859.225,345.1125 Q858.825,345.575 858.1875,345.8375 Q857.325,346.2 856.2875,346.2 Q855.075,346.2 854.1125,345.7 Q853.325,345.3 852.775,344.45 Q852.225,343.5875 852.225,342.5625 L852.225,341.6375 Q852.225,340.575 852.7125,339.6625 Q853.2125,338.7375 854.0875,338.25 Q854.9625,337.75 855.95,337.75 Q856.5375,337.75 857.05,337.8875 Q857.575,338.0125 858.0125,338.3 Z " fill="#000000"/><text fill="#000000" font-family="sans-serif" font-size="11.2" lengthAdjust="spacing" textLength="114.4" x="872.2" y="345.4828">AdvertisementRequest</text><line style="stroke:#181818;stroke-width:0.4000000000000001;" x1="720.8" x2="1112" y1="354.4" y2="354.4"/><text fill="#000000" font-family="sans-serif" font-size="11.2" lengthAdjust="spacing" textLength="63.2" x="724.8" y="367.7391">-store: Store</text><text fill="#000000" font-family="sans-serif" font-size="11.2" lengthAdjust="spacing" textLength="88.8" x="724.8" y="380.2516">-agent: Employee</text><text fill="#000000" font-family="sans-serif" font-size="11.2" lengthAdjust="spacing" textLength="96" x="724.8" y="392.7641">-property: Property</text><text fill="#000000" font-family="sans-serif" font-size="11.2" lengthAdjust="spacing" textLength="147.2" x="724.8" y="405.2766">-propertyType: PropertyType</text><text fill="#000000" font-family="sans-serif" font-size="11.2" lengthAdjust="spacing" textLength="142.4" x="724.8" y="417.7891">-requestType: RequestType</text><line style="stroke:#181818;stroke-width:0.4000000000000001;" x1="720.8" x2="1112" y1="423.3625" y2="423.3625"/><text fill="#000000" font-family="sans-serif" font-size="11.2" lengthAdjust="spacing" textLength="383.2" x="724.8" y="436.7016">+AdvertisementRequest(store, agent, property, propertyType, requestType)</text><text fill="#000000" font-family="sans-serif" font-size="11.2" lengthAdjust="spacing" textLength="73.6" x="724.8" y="449.2141">+getProperty()</text><text fill="#000000" font-family="sans-serif" font-size="11.2" lengthAdjust="spacing" textLength="57.6" x="724.8" y="461.7266">+getStore()</text><text fill="#000000" font-family="sans-serif" font-size="11.2" lengthAdjust="spacing" textLength="60" x="724.8" y="474.2391">+getAgent()</text><text fill="#000000" font-family="sans-serif" font-size="11.2" lengthAdjust="spacing" textLength="73.6" x="724.8" y="486.7516">+getProperty()</text><text fill="#000000" font-family="sans-serif" font-size="11.2" lengthAdjust="spacing" textLength="99.2" x="724.8" y="499.2641">+getPropertyType()</text><text fill="#000000" font-family="sans-serif" font-size="11.2" lengthAdjust="spacing" textLength="98.4" x="724.8" y="511.7766">+getRequestType()</text></g><!--class Repositories--><g id="elem_Repositories"><rect codeLine="60" fill="#F1F1F1" height="100.9625" id="Repositories" rx="2" ry="2" style="stroke:#181818;stroke-width:0.4000000000000001;" width="208.8" x="1342.4" y="5.6"/><ellipse cx="1411.8" cy="18.4" fill="#ADD1B2" rx="8.8" ry="8.8" style="stroke:#181818;stroke-width:0.8000000000000002;"/><path d="M1414.0125,15.1 Q1414.1375,14.925 1414.2875,14.8375 Q1414.4375,14.75 1414.6125,14.75 Q1414.9125,14.75 1415.1,14.9625 Q1415.2875,15.1625 1415.2875,15.65 L1415.2875,16.8125 Q1415.2875,17.3 1415.1,17.5125 Q1414.9125,17.725 1414.6125,17.725 Q1414.3375,17.725 1414.175,17.5625 Q1414.0125,17.4125 1413.925,17 Q1413.8875,16.7125 1413.7375,16.5625 Q1413.475,16.2625 1412.9875,16.0875 Q1412.5,15.9125 1412,15.9125 Q1411.3875,15.9125 1410.875,16.175 Q1410.375,16.4375 1409.975,17.0375 Q1409.5875,17.6375 1409.5875,18.4625 L1409.5875,19.3375 Q1409.5875,20.325 1410.3,20.9875 Q1411.0125,21.6375 1412.2875,21.6375 Q1413.0375,21.6375 1413.5625,21.4375 Q1413.875,21.3125 1414.2125,20.9625 Q1414.425,20.75 1414.5375,20.6875 Q1414.6625,20.625 1414.825,20.625 Q1415.0875,20.625 1415.2875,20.8375 Q1415.5,21.0375 1415.5,21.3125 Q1415.5,21.5875 1415.225,21.9125 Q1414.825,22.375 1414.1875,22.6375 Q1413.325,23 1412.2875,23 Q1411.075,23 1410.1125,22.5 Q1409.325,22.1 1408.775,21.25 Q1408.225,20.3875 1408.225,19.3625 L1408.225,18.4375 Q1408.225,17.375 1408.7125,16.4625 Q1409.2125,15.5375 1410.0875,15.05 Q1410.9625,14.55 1411.95,14.55 Q1412.5375,14.55 1413.05,14.6875 Q1413.575,14.8125 1414.0125,15.1 Z " fill="#000000"/><text fill="#000000" font-family="sans-serif" font-size="11.2" lengthAdjust="spacing" textLength="63.2" x="1428.2" y="22.2828">Repositories</text><line style="stroke:#181818;stroke-width:0.4000000000000001;" x1="1343.2" x2="1550.4" y1="31.2" y2="31.2"/><line style="stroke:#181818;stroke-width:0.4000000000000001;" x1="1343.2" x2="1550.4" y1="37.6" y2="37.6"/><text fill="#000000" font-family="sans-serif" font-size="11.2" lengthAdjust="spacing" textLength="75.2" x="1347.2" y="50.9391">-Repositories()</text><text fill="#000000" font-family="sans-serif" font-size="11.2" lengthAdjust="spacing" textLength="145.6" x="1347.2" y="63.4516">+getInstance() : Repositories</text><text fill="#000000" font-family="sans-serif" font-size="11.2" lengthAdjust="spacing" textLength="199.2" x="1347.2" y="75.9641">+getAdvertisementRequestRepository()</text><text fill="#000000" font-family="sans-serif" font-size="11.2" lengthAdjust="spacing" textLength="156.8" x="1347.2" y="88.4766">+getAdvertisementRepository()</text><text fill="#000000" font-family="sans-serif" font-size="11.2" lengthAdjust="spacing" textLength="113.6" x="1347.2" y="100.9891">+getClientRepository()</text></g><!--class AcceptanceType--><g id="elem_AcceptanceType"><rect codeLine="68" fill="#F1F1F1" height="63.425" id="AcceptanceType" rx="2" ry="2" style="stroke:#181818;stroke-width:0.4000000000000001;" width="145.6" x="1214.8" y="391.6"/><ellipse cx="1242.64" cy="404.4" fill="#ADD1B2" rx="8.8" ry="8.8" style="stroke:#181818;stroke-width:0.8000000000000002;"/><path d="M1244.8525,401.1 Q1244.9775,400.925 1245.1275,400.8375 Q1245.2775,400.75 1245.4525,400.75 Q1245.7525,400.75 1245.94,400.9625 Q1246.1275,401.1625 1246.1275,401.65 L1246.1275,402.8125 Q1246.1275,403.3 1245.94,403.5125 Q1245.7525,403.725 1245.4525,403.725 Q1245.1775,403.725 1245.015,403.5625 Q1244.8525,403.4125 1244.765,403 Q1244.7275,402.7125 1244.5775,402.5625 Q1244.315,402.2625 1243.8275,402.0875 Q1243.34,401.9125 1242.84,401.9125 Q1242.2275,401.9125 1241.715,402.175 Q1241.215,402.4375 1240.815,403.0375 Q1240.4275,403.6375 1240.4275,404.4625 L1240.4275,405.3375 Q1240.4275,406.325 1241.14,406.9875 Q1241.8525,407.6375 1243.1275,407.6375 Q1243.8775,407.6375 1244.4025,407.4375 Q1244.715,407.3125 1245.0525,406.9625 Q1245.265,406.75 1245.3775,406.6875 Q1245.5025,406.625 1245.665,406.625 Q1245.9275,406.625 1246.1275,406.8375 Q1246.34,407.0375 1246.34,407.3125 Q1246.34,407.5875 1246.065,407.9125 Q1245.665,408.375 1245.0275,408.6375 Q1244.165,409 1243.1275,409 Q1241.915,409 1240.9525,408.5 Q1240.165,408.1 1239.615,407.25 Q1239.065,406.3875 1239.065,405.3625 L1239.065,404.4375 Q1239.065,403.375 1239.5525,402.4625 Q1240.0525,401.5375 1240.9275,401.05 Q1241.8025,400.55 1242.79,400.55 Q1243.3775,400.55 1243.89,400.6875 Q1244.415,400.8125 1244.8525,401.1 Z " fill="#000000"/><text fill="#000000" font-family="sans-serif" font-size="11.2" lengthAdjust="spacing" textLength="84.8" x="1257.36" y="408.2828">AcceptanceType</text><line style="stroke:#181818;stroke-width:0.4000000000000001;" x1="1215.6" x2="1359.6" y1="417.2" y2="417.2"/><text fill="#000000" font-family="sans-serif" font-size="11.2" lengthAdjust="spacing" textLength="136" x="1219.6" y="430.5391">-acceptanceTypes: String[]</text><line style="stroke:#181818;stroke-width:0.4000000000000001;" x1="1215.6" x2="1359.6" y1="436.1125" y2="436.1125"/><text fill="#000000" font-family="sans-serif" font-size="11.2" lengthAdjust="spacing" textLength="120.8" x="1219.6" y="449.4516">+getAcceptanceTypes()</text></g><!--class CommissionType--><g id="elem_CommissionType"><rect codeLine="73" fill="#F1F1F1" height="63.425" id="CommissionType" rx="2" ry="2" style="stroke:#181818;stroke-width:0.4000000000000001;" width="145.6" x="1388.4" y="391.6"/><ellipse cx="1415.52" cy="404.4" fill="#ADD1B2" rx="8.8" ry="8.8" style="stroke:#181818;stroke-width:0.8000000000000002;"/><path d="M1417.7325,401.1 Q1417.8575,400.925 1418.0075,400.8375 Q1418.1575,400.75 1418.3325,400.75 Q1418.6325,400.75 1418.82,400.9625 Q1419.0075,401.1625 1419.0075,401.65 L1419.0075,402.8125 Q1419.0075,403.3 1418.82,403.5125 Q1418.6325,403.725 1418.3325,403.725 Q1418.0575,403.725 1417.895,403.5625 Q1417.7325,403.4125 1417.645,403 Q1417.6075,402.7125 1417.4575,402.5625 Q1417.195,402.2625 1416.7075,402.0875 Q1416.22,401.9125 1415.72,401.9125 Q1415.1075,401.9125 1414.595,402.175 Q1414.095,402.4375 1413.695,403.0375 Q1413.3075,403.6375 1413.3075,404.4625 L1413.3075,405.3375 Q1413.3075,406.325 1414.02,406.9875 Q1414.7325,407.6375 1416.0075,407.6375 Q1416.7575,407.6375 1417.2825,407.4375 Q1417.595,407.3125 1417.9325,406.9625 Q1418.145,406.75 1418.2575,406.6875 Q1418.3825,406.625 1418.545,406.625 Q1418.8075,406.625 1419.0075,406.8375 Q1419.22,407.0375 1419.22,407.3125 Q1419.22,407.5875 1418.945,407.9125 Q1418.545,408.375 1417.9075,408.6375 Q1417.045,409 1416.0075,409 Q1414.795,409 1413.8325,408.5 Q1413.045,408.1 1412.495,407.25 Q1411.945,406.3875 1411.945,405.3625 L1411.945,404.4375 Q1411.945,403.375 1412.4325,402.4625 Q1412.9325,401.5375 1413.8075,401.05 Q1414.6825,400.55 1415.67,400.55 Q1416.2575,400.55 1416.77,400.6875 Q1417.295,400.8125 1417.7325,401.1 Z " fill="#000000"/><text fill="#000000" font-family="sans-serif" font-size="11.2" lengthAdjust="spacing" textLength="86.4" x="1430.08" y="408.2828">CommissionType</text><line style="stroke:#181818;stroke-width:0.4000000000000001;" x1="1389.2" x2="1533.2" y1="417.2" y2="417.2"/><text fill="#000000" font-family="sans-serif" font-size="11.2" lengthAdjust="spacing" textLength="136" x="1393.2" y="430.5391">-commissionTypes: String[]</text><line style="stroke:#181818;stroke-width:0.4000000000000001;" x1="1389.2" x2="1533.2" y1="436.1125" y2="436.1125"/><text fill="#000000" font-family="sans-serif" font-size="11.2" lengthAdjust="spacing" textLength="122.4" x="1393.2" y="449.4516">+getCommissionTypes()</text></g><!--class PublishRequestController--><g id="elem_PublishRequestController"><rect codeLine="78" fill="#F1F1F1" height="75.9375" id="PublishRequestController" rx="2" ry="2" style="stroke:#181818;stroke-width:0.4000000000000001;" width="404" x="761.6" y="18"/><ellipse cx="895.8" cy="30.8" fill="#ADD1B2" rx="8.8" ry="8.8" style="stroke:#181818;stroke-width:0.8000000000000002;"/><path d="M898.0125,27.5 Q898.1375,27.325 898.2875,27.2375 Q898.4375,27.15 898.6125,27.15 Q898.9125,27.15 899.1,27.3625 Q899.2875,27.5625 899.2875,28.05 L899.2875,29.2125 Q899.2875,29.7 899.1,29.9125 Q898.9125,30.125 898.6125,30.125 Q898.3375,30.125 898.175,29.9625 Q898.0125,29.8125 897.925,29.4 Q897.8875,29.1125 897.7375,28.9625 Q897.475,28.6625 896.9875,28.4875 Q896.5,28.3125 896,28.3125 Q895.3875,28.3125 894.875,28.575 Q894.375,28.8375 893.975,29.4375 Q893.5875,30.0375 893.5875,30.8625 L893.5875,31.7375 Q893.5875,32.725 894.3,33.3875 Q895.0125,34.0375 896.2875,34.0375 Q897.0375,34.0375 897.5625,33.8375 Q897.875,33.7125 898.2125,33.3625 Q898.425,33.15 898.5375,33.0875 Q898.6625,33.025 898.825,33.025 Q899.0875,33.025 899.2875,33.2375 Q899.5,33.4375 899.5,33.7125 Q899.5,33.9875 899.225,34.3125 Q898.825,34.775 898.1875,35.0375 Q897.325,35.4 896.2875,35.4 Q895.075,35.4 894.1125,34.9 Q893.325,34.5 892.775,33.65 Q892.225,32.7875 892.225,31.7625 L892.225,30.8375 Q892.225,29.775 892.7125,28.8625 Q893.2125,27.9375 894.0875,27.45 Q894.9625,26.95 895.95,26.95 Q896.5375,26.95 897.05,27.0875 Q897.575,27.2125 898.0125,27.5 Z " fill="#000000"/><text fill="#000000" font-family="sans-serif" font-size="11.2" lengthAdjust="spacing" textLength="128.8" x="912.2" y="34.6828">PublishRequestController</text><line style="stroke:#181818;stroke-width:0.4000000000000001;" x1="762.4" x2="1164.8" y1="43.6" y2="43.6"/><line style="stroke:#181818;stroke-width:0.4000000000000001;" x1="762.4" x2="1164.8" y1="50" y2="50"/><text fill="#000000" font-family="sans-serif" font-size="11.2" lengthAdjust="spacing" textLength="100.8" x="766.4" y="63.3391">+PublishController()</text><text fill="#000000" font-family="sans-serif" font-size="11.2" lengthAdjust="spacing" textLength="156.8" x="766.4" y="75.8516">+getAdvertisementRepository()</text><text fill="#000000" font-family="sans-serif" font-size="11.2" lengthAdjust="spacing" textLength="394.4" x="766.4" y="88.3641">+createAdvertisementFromRequest(advertisementRequest, commission, date)</text></g><!--class AdvertisementRequestMapper--><g id="elem_AdvertisementRequestMapper"><rect codeLine="84" fill="#F1F1F1" height="50.9125" id="AdvertisementRequestMapper" rx="2" ry="2" style="stroke:#181818;stroke-width:0.4000000000000001;" width="429.6" x="244.8" y="192"/><ellipse cx="379.8" cy="204.8" fill="#ADD1B2" rx="8.8" ry="8.8" style="stroke:#181818;stroke-width:0.8000000000000002;"/><path d="M382.0125,201.5 Q382.1375,201.325 382.2875,201.2375 Q382.4375,201.15 382.6125,201.15 Q382.9125,201.15 383.1,201.3625 Q383.2875,201.5625 383.2875,202.05 L383.2875,203.2125 Q383.2875,203.7 383.1,203.9125 Q382.9125,204.125 382.6125,204.125 Q382.3375,204.125 382.175,203.9625 Q382.0125,203.8125 381.925,203.4 Q381.8875,203.1125 381.7375,202.9625 Q381.475,202.6625 380.9875,202.4875 Q380.5,202.3125 380,202.3125 Q379.3875,202.3125 378.875,202.575 Q378.375,202.8375 377.975,203.4375 Q377.5875,204.0375 377.5875,204.8625 L377.5875,205.7375 Q377.5875,206.725 378.3,207.3875 Q379.0125,208.0375 380.2875,208.0375 Q381.0375,208.0375 381.5625,207.8375 Q381.875,207.7125 382.2125,207.3625 Q382.425,207.15 382.5375,207.0875 Q382.6625,207.025 382.825,207.025 Q383.0875,207.025 383.2875,207.2375 Q383.5,207.4375 383.5,207.7125 Q383.5,207.9875 383.225,208.3125 Q382.825,208.775 382.1875,209.0375 Q381.325,209.4 380.2875,209.4 Q379.075,209.4 378.1125,208.9 Q377.325,208.5 376.775,207.65 Q376.225,206.7875 376.225,205.7625 L376.225,204.8375 Q376.225,203.775 376.7125,202.8625 Q377.2125,201.9375 378.0875,201.45 Q378.9625,200.95 379.95,200.95 Q380.5375,200.95 381.05,201.0875 Q381.575,201.2125 382.0125,201.5 Z " fill="#000000"/><text fill="#000000" font-family="sans-serif" font-size="11.2" lengthAdjust="spacing" textLength="152.8" x="396.2" y="208.6828">AdvertisementRequestMapper</text><line style="stroke:#181818;stroke-width:0.4000000000000001;" x1="245.6" x2="673.6" y1="217.6" y2="217.6"/><line style="stroke:#181818;stroke-width:0.4000000000000001;" x1="245.6" x2="673.6" y1="224" y2="224"/><text fill="#000000" font-family="sans-serif" font-size="11.2" lengthAdjust="spacing" textLength="420" x="249.6" y="237.3391">+AdvertisementRequestDTO toDTO(advertisementRequest advertisementRequest)</text></g><!--class AdvertisementRequestDTO--><g id="elem_AdvertisementRequestDTO"><rect codeLine="88" fill="#F1F1F1" height="188.55" id="AdvertisementRequestDTO" rx="2" ry="2" style="stroke:#181818;stroke-width:0.4000000000000001;" width="392.8" x="5.6" y="328.8"/><ellipse cx="129.4" cy="341.6" fill="#ADD1B2" rx="8.8" ry="8.8" style="stroke:#181818;stroke-width:0.8000000000000002;"/><path d="M131.6125,338.3 Q131.7375,338.125 131.8875,338.0375 Q132.0375,337.95 132.2125,337.95 Q132.5125,337.95 132.7,338.1625 Q132.8875,338.3625 132.8875,338.85 L132.8875,340.0125 Q132.8875,340.5 132.7,340.7125 Q132.5125,340.925 132.2125,340.925 Q131.9375,340.925 131.775,340.7625 Q131.6125,340.6125 131.525,340.2 Q131.4875,339.9125 131.3375,339.7625 Q131.075,339.4625 130.5875,339.2875 Q130.1,339.1125 129.6,339.1125 Q128.9875,339.1125 128.475,339.375 Q127.975,339.6375 127.575,340.2375 Q127.1875,340.8375 127.1875,341.6625 L127.1875,342.5375 Q127.1875,343.525 127.9,344.1875 Q128.6125,344.8375 129.8875,344.8375 Q130.6375,344.8375 131.1625,344.6375 Q131.475,344.5125 131.8125,344.1625 Q132.025,343.95 132.1375,343.8875 Q132.2625,343.825 132.425,343.825 Q132.6875,343.825 132.8875,344.0375 Q133.1,344.2375 133.1,344.5125 Q133.1,344.7875 132.825,345.1125 Q132.425,345.575 131.7875,345.8375 Q130.925,346.2 129.8875,346.2 Q128.675,346.2 127.7125,345.7 Q126.925,345.3 126.375,344.45 Q125.825,343.5875 125.825,342.5625 L125.825,341.6375 Q125.825,340.575 126.3125,339.6625 Q126.8125,338.7375 127.6875,338.25 Q128.5625,337.75 129.55,337.75 Q130.1375,337.75 130.65,337.8875 Q131.175,338.0125 131.6125,338.3 Z " fill="#000000"/><text fill="#000000" font-family="sans-serif" font-size="11.2" lengthAdjust="spacing" textLength="138.4" x="145.8" y="345.4828">AdvertisementRequestDTO</text><line style="stroke:#181818;stroke-width:0.4000000000000001;" x1="6.4" x2="397.6" y1="354.4" y2="354.4"/><text fill="#000000" font-family="sans-serif" font-size="11.2" lengthAdjust="spacing" textLength="63.2" x="10.4" y="367.7391">-store: Store</text><text fill="#000000" font-family="sans-serif" font-size="11.2" lengthAdjust="spacing" textLength="88.8" x="10.4" y="380.2516">-agent: Employee</text><text fill="#000000" font-family="sans-serif" font-size="11.2" lengthAdjust="spacing" textLength="96" x="10.4" y="392.7641">-property: Property</text><text fill="#000000" font-family="sans-serif" font-size="11.2" lengthAdjust="spacing" textLength="147.2" x="10.4" y="405.2766">-propertyType: PropertyType</text><text fill="#000000" font-family="sans-serif" font-size="11.2" lengthAdjust="spacing" textLength="142.4" x="10.4" y="417.7891">-requestType: RequestType</text><line style="stroke:#181818;stroke-width:0.4000000000000001;" x1="6.4" x2="397.6" y1="423.3625" y2="423.3625"/><text fill="#000000" font-family="sans-serif" font-size="11.2" lengthAdjust="spacing" textLength="383.2" x="10.4" y="436.7016">+AdvertisementRequest(store, agent, property, propertyType, requestType)</text><text fill="#000000" font-family="sans-serif" font-size="11.2" lengthAdjust="spacing" textLength="73.6" x="10.4" y="449.2141">+getProperty()</text><text fill="#000000" font-family="sans-serif" font-size="11.2" lengthAdjust="spacing" textLength="57.6" x="10.4" y="461.7266">+getStore()</text><text fill="#000000" font-family="sans-serif" font-size="11.2" lengthAdjust="spacing" textLength="60" x="10.4" y="474.2391">+getAgent()</text><text fill="#000000" font-family="sans-serif" font-size="11.2" lengthAdjust="spacing" textLength="73.6" x="10.4" y="486.7516">+getProperty()</text><text fill="#000000" font-family="sans-serif" font-size="11.2" lengthAdjust="spacing" textLength="99.2" x="10.4" y="499.2641">+getPropertyType()</text><text fill="#000000" font-family="sans-serif" font-size="11.2" lengthAdjust="spacing" textLength="98.4" x="10.4" y="511.7766">+getRequestType()</text></g><!--class PublishRequestUI--><g id="elem_PublishRequestUI"><rect codeLine="103" fill="#F1F1F1" height="38.4" id="PublishRequestUI" rx="2" ry="2" style="stroke:#181818;stroke-width:0.4000000000000001;" width="114.4" x="284" y="36.8"/><ellipse cx="296" cy="49.6" fill="#ADD1B2" rx="8.8" ry="8.8" style="stroke:#181818;stroke-width:0.8000000000000002;"/><path d="M298.2125,46.3 Q298.3375,46.125 298.4875,46.0375 Q298.6375,45.95 298.8125,45.95 Q299.1125,45.95 299.3,46.1625 Q299.4875,46.3625 299.4875,46.85 L299.4875,48.0125 Q299.4875,48.5 299.3,48.7125 Q299.1125,48.925 298.8125,48.925 Q298.5375,48.925 298.375,48.7625 Q298.2125,48.6125 298.125,48.2 Q298.0875,47.9125 297.9375,47.7625 Q297.675,47.4625 297.1875,47.2875 Q296.7,47.1125 296.2,47.1125 Q295.5875,47.1125 295.075,47.375 Q294.575,47.6375 294.175,48.2375 Q293.7875,48.8375 293.7875,49.6625 L293.7875,50.5375 Q293.7875,51.525 294.5,52.1875 Q295.2125,52.8375 296.4875,52.8375 Q297.2375,52.8375 297.7625,52.6375 Q298.075,52.5125 298.4125,52.1625 Q298.625,51.95 298.7375,51.8875 Q298.8625,51.825 299.025,51.825 Q299.2875,51.825 299.4875,52.0375 Q299.7,52.2375 299.7,52.5125 Q299.7,52.7875 299.425,53.1125 Q299.025,53.575 298.3875,53.8375 Q297.525,54.2 296.4875,54.2 Q295.275,54.2 294.3125,53.7 Q293.525,53.3 292.975,52.45 Q292.425,51.5875 292.425,50.5625 L292.425,49.6375 Q292.425,48.575 292.9125,47.6625 Q293.4125,46.7375 294.2875,46.25 Q295.1625,45.75 296.15,45.75 Q296.7375,45.75 297.25,45.8875 Q297.775,46.0125 298.2125,46.3 Z " fill="#000000"/><text fill="#000000" font-family="sans-serif" font-size="11.2" lengthAdjust="spacing" textLength="88.8" x="307.2" y="53.4828">PublishRequestUI</text><line style="stroke:#181818;stroke-width:0.4000000000000001;" x1="284.8" x2="397.6" y1="62.4" y2="62.4"/><line style="stroke:#181818;stroke-width:0.4000000000000001;" x1="284.8" x2="397.6" y1="68.8" y2="68.8"/></g><!--link Repositories to Repositories--><g id="link_Repositories_Repositories"><path codeLine="106" d="M1551.416,42.216 C1567.92,44.256 1579.2,48.848 1579.2,56 C1579.2,62.536 1569.776,66.936 1555.552,69.2 " fill="none" id="Repositories-to-Repositories" style="stroke:#181818;stroke-width:0.8000000000000002;"/><polygon fill="#181818" points="1551.416,69.784,1558.9936,71.9428,1555.3765,69.2231,1558.0962,65.606,1551.416,69.784" style="stroke:#181818;stroke-width:0.8000000000000002;"/><text fill="#000000" font-family="sans-serif" font-size="10.4" lengthAdjust="spacing" textLength="39.2" x="1584" y="59.8148">instance</text></g><!--link PublishRequestUI to PublishRequestController--><g id="link_PublishRequestUI_PublishRequestController"><path codeLine="108" d="M398.44,56 C459.848,56 548.664,56 548.664,56 C548.664,56 756.136,56 756.136,56 C756.136,56 756.496,56 757.192,56 " fill="none" id="PublishRequestUI-to-PublishRequestController" style="stroke:#181818;stroke-width:0.8000000000000002;stroke-dasharray:7.0,7.0;"/><polygon fill="#181818" points="761.472,56,754.272,52.8,757.472,56,754.272,59.2,761.472,56" style="stroke:#181818;stroke-width:0.8000000000000002;"/></g><!--link PublishRequestUI to AdvertisementRequestDTO--><g id="link_PublishRequestUI_AdvertisementRequestDTO"><path codeLine="109" d="M301.032,75.28 C253.64,97.08 181.2,130.4 181.2,130.4 C181.2,130.4 181.2,304.8 181.2,304.8 C181.2,304.8 182.6,312.728 184.68,324.472 " fill="none" id="PublishRequestUI-to-AdvertisementRequestDTO" style="stroke:#181818;stroke-width:0.8000000000000002;stroke-dasharray:7.0,7.0;"/><polygon fill="#181818" points="185.408,328.6,187.3017,320.9519,184.7096,324.6614,181,322.0693,185.408,328.6" style="stroke:#181818;stroke-width:0.8000000000000002;"/></g><!--link PublishRequestController to Repositories--><g id="link_PublishRequestController_Repositories"><path codeLine="111" d="M1165.72,56 C1224.832,56 1287.184,56 1338.104,56 " fill="none" id="PublishRequestController-to-Repositories" style="stroke:#181818;stroke-width:0.8000000000000002;stroke-dasharray:7.0,7.0;"/><polygon fill="#181818" points="1342.368,56,1335.168,52.8,1338.368,56,1335.168,59.2,1342.368,56" style="stroke:#181818;stroke-width:0.8000000000000002;"/><text fill="#000000" font-family="sans-serif" font-size="10.4" lengthAdjust="spacing" textLength="53.6" x="1227.2" y="51.0148">repositories</text></g><!--link Repositories to AdvertisementRepository--><g id="link_Repositories_AdvertisementRepository"><path codeLine="113" d="M1466.248,106.504 C1471.424,119.728 1475.6,130.4 1475.6,130.4 C1475.6,130.4 1475.6,143.2 1475.6,143.2 C1475.6,143.2 1468.52,152.12 1459.296,163.752 " fill="none" id="Repositories-to-AdvertisementRepository" style="stroke:#181818;stroke-width:0.8000000000000002;"/><polygon fill="#181818" points="1456.64,167.096,1463.6187,163.4384,1459.1234,163.9603,1458.6015,159.465,1456.64,167.096" style="stroke:#181818;stroke-width:0.8000000000000002;"/><text fill="#000000" font-family="sans-serif" font-size="10.4" lengthAdjust="spacing" textLength="5.6" x="1455.5055" y="158.4888">1</text></g><!--link Repositories to AdvertisementRequestRepository--><g id="link_Repositories_AdvertisementRequestRepository"><path codeLine="114" d="M1382.296,106.56 C1357.4,125.768 1334.8,143.2 1334.8,143.2 C1334.8,143.2 1236,160.576 1134.424,178.448 " fill="none" id="Repositories-to-AdvertisementRequestRepository" style="stroke:#181818;stroke-width:0.8000000000000002;"/><polygon fill="#181818" points="1130.2,179.192,1137.8418,181.111,1134.1408,178.5066,1136.7452,174.8057,1130.2,179.192" style="stroke:#181818;stroke-width:0.8000000000000002;"/><text fill="#000000" font-family="sans-serif" font-size="10.4" lengthAdjust="spacing" textLength="5.6" x="1136.6303" y="176.1042">1</text></g><!--link Repositories to ClientRepository--><g id="link_Repositories_ClientRepository"><path codeLine="115" d="M1536.592,106.544 C1577.816,129.384 1626.008,156.088 1664.64,177.488 " fill="none" id="Repositories-to-ClientRepository" style="stroke:#181818;stroke-width:0.8000000000000002;"/><polygon fill="#181818" points="1668.344,179.544,1663.6041,173.2501,1664.8474,177.6014,1660.496,178.8447,1668.344,179.544" style="stroke:#181818;stroke-width:0.8000000000000002;"/><text fill="#000000" font-family="sans-serif" font-size="10.4" lengthAdjust="spacing" textLength="5.6" x="1652.0167" y="171.1109">1</text></g><!--link AdvertisementRepository to Advertisement--><g id="link_AdvertisementRepository_Advertisement"><path codeLine="117" d="M1476.272,268.112 C1511.096,297.416 1548.4,328.8 1548.4,328.8 C1548.4,328.8 1548.4,517.6 1548.4,517.6 C1548.4,517.6 1498.88,541.072 1443,567.552 " fill="none" id="AdvertisementRepository-to-Advertisement" style="stroke:#181818;stroke-width:0.8000000000000002;"/><polygon fill="#181818" points="1439.312,569.304,1447.1889,569.1169,1442.9276,567.5931,1444.4515,563.3319,1439.312,569.304" style="stroke:#181818;stroke-width:0.8000000000000002;"/><text fill="#000000" font-family="sans-serif" font-size="10.4" lengthAdjust="spacing" textLength="64" x="1549.2" y="427.0148">advertisement</text><text fill="#000000" font-family="sans-serif" font-size="10.4" lengthAdjust="spacing" textLength="4" x="1445.7967" y="564.2285">*</text></g><!--link AdvertisementRequestRepository to AdvertisementRequest--><g id="link_AdvertisementRequestRepository_AdvertisementRequest"><path codeLine="118" d="M916.4,268.04 C916.4,285.168 916.4,304.984 916.4,324.6 " fill="none" id="AdvertisementRequestRepository-to-AdvertisementRequest" style="stroke:#181818;stroke-width:0.8000000000000002;"/><polygon fill="#181818" points="916.4,328.784,919.6,321.584,916.4,324.784,913.2,321.584,916.4,328.784" style="stroke:#181818;stroke-width:0.8000000000000002;"/><text fill="#000000" font-family="sans-serif" font-size="10.4" lengthAdjust="spacing" textLength="102.4" x="917.2" y="302.2148">advertisementRequest</text><text fill="#000000" font-family="sans-serif" font-size="10.4" lengthAdjust="spacing" textLength="4" x="912.2656" y="320.3015">*</text></g><!--link PublishRequestController to AdvertisementRepository--><g id="link_PublishRequestController_AdvertisementRepository"><path codeLine="120" d="M1076.912,94.032 C1132.472,112.288 1187.6,130.4 1187.6,130.4 C1187.6,130.4 1231.8,147.032 1281.416,165.704 " fill="none" id="PublishRequestController-to-AdvertisementRepository" style="stroke:#181818;stroke-width:0.8000000000000002;stroke-dasharray:7.0,7.0;"/><polygon fill="#181818" points="1285.304,167.168,1279.7008,161.6287,1281.5624,165.7535,1277.4376,167.6152,1285.304,167.168" style="stroke:#181818;stroke-width:0.8000000000000002;"/><text fill="#000000" font-family="sans-serif" font-size="10.4" lengthAdjust="spacing" textLength="113.6" x="1222" y="140.6148">advertisementRepository</text></g><!--link PublishRequestController to AdvertisementRequestRepository--><g id="link_PublishRequestController_AdvertisementRequestRepository"><path codeLine="121" d="M952.592,94.112 C946.544,114.624 938.928,140.432 932.248,163.08 " fill="none" id="PublishRequestController-to-AdvertisementRequestRepository" style="stroke:#181818;stroke-width:0.8000000000000002;stroke-dasharray:7.0,7.0;"/><polygon fill="#181818" points="931.096,166.976,936.2053,160.9781,932.2296,163.14,930.0677,159.1643,931.096,166.976" style="stroke:#181818;stroke-width:0.8000000000000002;"/><text fill="#000000" font-family="sans-serif" font-size="10.4" lengthAdjust="spacing" textLength="152" x="942.8" y="140.6148">advertisementRequestRepository</text></g><!--link PublishRequestController to Advertisement--><g id="link_PublishRequestController_Advertisement"><path codeLine="122" d="M1033.608,94.032 C1067.936,112.288 1102,130.4 1102,130.4 C1102,130.4 1143.6,167.2 1143.6,167.2 C1143.6,167.2 1200.4,517.6 1200.4,517.6 C1200.4,517.6 1215.016,538.312 1232.272,562.776 " fill="none" id="PublishRequestController-to-Advertisement" style="stroke:#181818;stroke-width:0.8000000000000002;stroke-dasharray:7.0,7.0;"/><polygon fill="#181818" points="1234.616,566.096,1233.0761,558.3689,1232.3084,562.8288,1227.8485,562.0611,1234.616,566.096" style="stroke:#181818;stroke-width:0.8000000000000002;"/><text fill="#000000" font-family="sans-serif" font-size="10.4" lengthAdjust="spacing" textLength="64" x="1166.8" y="302.2148">advertisement</text></g><!--link PublishRequestController to AdvertisementRequestMapper--><g id="link_PublishRequestController_AdvertisementRequestMapper"><path codeLine="123" d="M846.392,94.008 C752.912,123.688 624.384,164.488 541.64,190.76 " fill="none" id="PublishRequestController-to-AdvertisementRequestMapper" style="stroke:#181818;stroke-width:0.8000000000000002;stroke-dasharray:7.0,7.0;"/><polygon fill="#181818" points="537.728,192,545.5587,192.8721,541.5406,190.79,543.6227,186.7719,537.728,192" style="stroke:#181818;stroke-width:0.8000000000000002;"/></g><!--link PublishRequestController to AdvertisementRequestDTO--><g id="link_PublishRequestController_AdvertisementRequestDTO"><path codeLine="124" d="M761.416,87.256 C544.512,119.936 230.8,167.2 230.8,167.2 C230.8,167.2 221.184,252.44 213.064,324.392 " fill="none" id="PublishRequestController-to-AdvertisementRequestDTO" style="stroke:#181818;stroke-width:0.8000000000000002;stroke-dasharray:7.0,7.0;"/><polygon fill="#181818" points="212.6,328.464,216.582,321.6652,213.0455,324.4889,210.2218,320.9524,212.6,328.464" style="stroke:#181818;stroke-width:0.8000000000000002;"/></g><!--link PublishRequestController to ClientRepository--><g id="link_PublishRequestController_ClientRepository"><path codeLine="125" d="M1165.64,90.112 C1362.776,122.616 1633.2,167.2 1633.2,167.2 C1633.2,167.2 1642.304,171.608 1655.08,177.8 " fill="none" id="PublishRequestController-to-ClientRepository" style="stroke:#181818;stroke-width:0.8000000000000002;stroke-dasharray:7.0,7.0;"/><polygon fill="#181818" points="1658.776,179.592,1653.6822,173.5809,1655.1735,177.8536,1650.9008,179.345,1658.776,179.592" style="stroke:#181818;stroke-width:0.8000000000000002;"/><text fill="#000000" font-family="sans-serif" font-size="10.4" lengthAdjust="spacing" textLength="74.4" x="1471.6" y="140.6148">clientRepository</text></g><!--link AcceptanceType to Advertisement--><g id="link_AcceptanceType_Advertisement"><path codeLine="127" d="M1287.6,454.888 C1287.6,479.808 1287.6,516.184 1287.6,550.2 " fill="none" id="AcceptanceType-to-Advertisement" style="stroke:#181818;stroke-width:0.8000000000000002;"/><polygon fill="none" points="1293.2,550.384,1287.6,566.384,1282,550.384,1293.2,550.384" style="stroke:#181818;stroke-width:0.8000000000000002;"/></g><!--link CommissionType to Advertisement--><g id="link_CommissionType_Advertisement"><path codeLine="128" d="M1436.512,454.888 C1415.92,480.656 1385.536,518.672 1357.568,553.656 " fill="none" id="CommissionType-to-Advertisement" style="stroke:#181818;stroke-width:0.8000000000000002;"/><polygon fill="none" points="1361.76,557.384,1347.4,566.384,1353.016,550.384,1361.76,557.384" style="stroke:#181818;stroke-width:0.8000000000000002;"/></g><!--link AdvertisementRequestMapper to AdvertisementRequestDTO--><g id="link_AdvertisementRequestMapper_AdvertisementRequestDTO"><path codeLine="130" d="M428.272,243.208 C401.864,264.128 362.288,295.464 323.584,326.12 " fill="none" id="AdvertisementRequestMapper-to-AdvertisementRequestDTO" style="stroke:#181818;stroke-width:0.8000000000000002;stroke-dasharray:7.0,7.0;"/><polygon fill="#181818" points="320.32,328.696,327.9466,326.7174,323.4502,326.2056,323.9619,321.7091,320.32,328.696" style="stroke:#181818;stroke-width:0.8000000000000002;"/></g><!--link AdvertisementRequestMapper to AdvertisementRequest--><g id="link_AdvertisementRequestMapper_AdvertisementRequest"><path codeLine="131" d="M515.152,243.208 C565.488,265.688 642.784,300.208 716.144,332.968 " fill="none" id="AdvertisementRequestMapper-to-AdvertisementRequest" style="stroke:#181818;stroke-width:0.8000000000000002;stroke-dasharray:7.0,7.0;"/><polygon fill="#181818" points="719.856,334.624,714.5949,328.7588,716.206,332.9878,711.977,334.5988,719.856,334.624" style="stroke:#181818;stroke-width:0.8000000000000002;"/></g><!--link AdvertisementRequest to Advertisement--><g id="link_AdvertisementRequest_Advertisement"><path codeLine="133" d="M1076.512,517.688 C1099.512,531.144 1123.032,544.904 1145.64,558.136 " fill="none" id="AdvertisementRequest-to-Advertisement" style="stroke:#181818;stroke-width:0.8000000000000002;"/><polygon fill="none" points="1148.608,553.384,1159.592,566.296,1142.952,563.048,1148.608,553.384" style="stroke:#181818;stroke-width:0.8000000000000002;"/></g><!--SRC=[xLPDJzmm4BtxLuou06KNjTUeGje2bP1Q5G4zLJsOPDYrSEBKzbAb7_-zTjP9RAyJTb7LKpaioSoRySpp6pk7wf5LDPMqX59K8bz9KI9ekKOoU6gQFz8btkg68qZCDQsMt0Ue5It4TrOjuO5ovNiugr0tDK8jU6DVo672AQGMn8lAELLgeRLazskDLxceRjaFXDU4779yqA05IBPSQIYOBOU9Yf0s1XR54qhD59POwHkiXM9Qo0P-4Z1_Sw2-NsNmWIdzDWWwQv4di4GTsDNHiVCyKSuAgZ5m7mMPEoWjYXrGkSGutNkp3pVuROqgYd766UIYB9bIflSPs6gEoUyH4jg0vxXmi2GbpZV6J1SwJT1KDsDqxHAp8Qz3OaaPNnI5HALce4o_E0EZtSemLajHcpJDy7Hdn3SpYcvZxOj7uZbdQGdbhSCGjP2IDYrR6wp7pyQWhBDdfJU_QovjbK6jOxlNh-h05fkvsfp7Cft1hHcMQjcLs6l3OFldYMtFaffnXKyeU4ADKTC-3HS64D3I1_lMf1AUKNd7LhlnbXJphslRYY23oxBcei7EsYaXWslt53ciAWQdVNC0JpKPt0mlATAwwb-WnvwEhWIVehQ_WBDbH7Kgoc_6jtjD-3pt8y1GzNBqZNwEgqgPso4t2I0BGDFxEepPX09Ia7XA0u7aETPjDRQbuTWBpAeRdIzVlOL3Y9zqq6gGD0_CoQHXP93qUdtFcLevCiv5fQNW7ALBVz811iy-DFsBw-KZhMkltXJaukwJkRZDRt95I9_naulQZFyd_kzFV2Z7prU6PECBpe7vMNWkPC3Sv1Eo5NvwDghm97Xah-FCtfoSRfKZ_RCdgjqKV_3cOEnRSITmT6gbO-B3YP2npzCsubMqIXRE17dciowPex_VK-CrJUXOhLkv-lRso1ONdovmfznnyZZN7g71ORP_dDNePD3MDsNclYO3ZOJNrdp-ArgDH7TG0a4cpkYfwbyGbbuhLTGV]--></g></svg>