<?xml version="1.0" encoding="us-ascii" standalone="no"?><svg xmlns="http://www.w3.org/2000/svg" xmlns:xlink="http://www.w3.org/1999/xlink" contentStyleType="text/css" height="640.5px" preserveAspectRatio="none" style="width:1243px;height:640px;background:#FFFFFF;" version="1.1" viewBox="0 0 1243 640" width="1243.9px" zoomAndPan="magnify"><defs/><g><text fill="#000000" font-family="sans-serif" font-size="9.8" font-weight="bold" lengthAdjust="spacing" textLength="70" x="582.05" y="17.5752">Domain Model</text><!--class Agent--><g id="elem_Agent"><rect codeLine="12" fill="#F1F1F1" height="25.6348" id="Agent" rx="1.75" ry="1.75" style="stroke:#181818;stroke-width:0.3499999999999999;" width="30.1" x="465.15" y="250.8388"/><text fill="#000000" font-family="sans-serif" font-size="9.8" lengthAdjust="spacing" textLength="25.9" x="467.25" y="264.914">Agent</text><line style="stroke:#181818;stroke-width:0.3499999999999999;" x1="465.85" x2="494.55" y1="270.8735" y2="270.8735"/></g><!--class Advertisement--><g id="elem_Advertisement"><rect codeLine="15" fill="#F1F1F1" height="38.6695" id="Advertisement" rx="1.75" ry="1.75" style="stroke:#181818;stroke-width:0.3499999999999999;" width="67.2" x="623.7" y="383.8388"/><text fill="#000000" font-family="sans-serif" font-size="9.8" lengthAdjust="spacing" textLength="63" x="625.8" y="397.914">Advertisement</text><line style="stroke:#181818;stroke-width:0.3499999999999999;" x1="624.4" x2="690.2" y1="403.8735" y2="403.8735"/><text fill="#000000" font-family="sans-serif" font-size="9.8" lengthAdjust="spacing" textLength="19.6" x="627.9" y="417.2487">date</text></g><!--class Organization--><g id="elem_Organization"><rect codeLine="19" fill="#F1F1F1" height="51.7043" id="Organization" rx="1.75" ry="1.75" style="stroke:#181818;stroke-width:0.3499999999999999;" width="71.4" x="39.55" y="410.0888"/><text fill="#000000" font-family="sans-serif" font-size="9.8" lengthAdjust="spacing" textLength="67.2" x="41.65" y="424.164">RealEstateUSA</text><line style="stroke:#181818;stroke-width:0.3499999999999999;" x1="40.25" x2="110.25" y1="430.1235" y2="430.1235"/><text fill="#000000" font-family="sans-serif" font-size="9.8" lengthAdjust="spacing" textLength="62.3" x="43.75" y="443.4987">phoneNumber</text><text fill="#000000" font-family="sans-serif" font-size="9.8" lengthAdjust="spacing" textLength="59.5" x="43.75" y="456.5335">emailAddress</text></g><!--class Commission--><g id="elem_Commission"><rect codeLine="24" fill="#F1F1F1" height="51.7043" id="Commission" rx="1.75" ry="1.75" style="stroke:#181818;stroke-width:0.3499999999999999;" width="62.3" x="626.15" y="294.5888"/><text fill="#000000" font-family="sans-serif" font-size="9.8" lengthAdjust="spacing" textLength="53.2" x="630.7" y="308.664">Commission</text><line style="stroke:#181818;stroke-width:0.3499999999999999;" x1="626.85" x2="687.75" y1="314.6235" y2="314.6235"/><text fill="#000000" font-family="sans-serif" font-size="9.8" lengthAdjust="spacing" textLength="53.9" x="630.35" y="327.9987">fixedAmount</text><text fill="#000000" font-family="sans-serif" font-size="9.8" lengthAdjust="spacing" textLength="50.4" x="630.35" y="341.0335">percentage</text></g><!--class Employee--><g id="elem_Employee"><rect codeLine="29" fill="#F1F1F1" height="51.7043" id="Employee" rx="1.75" ry="1.75" style="stroke:#181818;stroke-width:0.3499999999999999;" width="81.2" x="245.7" y="446.4888"/><text fill="#000000" font-family="sans-serif" font-size="9.8" font-style="italic" lengthAdjust="spacing" textLength="43.4" x="264.6" y="460.564">Employee</text><line style="stroke:#181818;stroke-width:0.3499999999999999;" x1="246.4" x2="326.2" y1="466.5235" y2="466.5235"/><text fill="#000000" font-family="sans-serif" font-size="9.8" lengthAdjust="spacing" textLength="72.8" x="249.9" y="479.8987">assignedAgency</text><text fill="#000000" font-family="sans-serif" font-size="9.8" lengthAdjust="spacing" textLength="16.8" x="249.9" y="492.9335">role</text></g><!--class Client--><g id="elem_Client"><rect codeLine="34" fill="#F1F1F1" height="25.6348" id="Client" rx="1.75" ry="1.75" style="stroke:#181818;stroke-width:0.3499999999999999;" width="29.4" x="271.6" y="280.9388"/><text fill="#000000" font-family="sans-serif" font-size="9.8" lengthAdjust="spacing" textLength="25.2" x="273.7" y="295.014">Client</text><line style="stroke:#181818;stroke-width:0.3499999999999999;" x1="272.3" x2="300.3" y1="300.9735" y2="300.9735"/></g><!--class Owner--><g id="elem_Owner"><rect codeLine="37" fill="#F1F1F1" height="25.6348" id="Owner" rx="1.75" ry="1.75" style="stroke:#181818;stroke-width:0.3499999999999999;" width="32.9" x="463.75" y="159.8388"/><text fill="#000000" font-family="sans-serif" font-size="9.8" lengthAdjust="spacing" textLength="28.7" x="465.85" y="173.914">Owner</text><line style="stroke:#181818;stroke-width:0.3499999999999999;" x1="464.45" x2="495.95" y1="179.8735" y2="179.8735"/></g><!--class Property--><g id="elem_Property"><rect codeLine="40" fill="#F1F1F1" height="90.8086" id="Property" rx="1.75" ry="1.75" style="stroke:#181818;stroke-width:0.3499999999999999;" width="64.4" x="783.65" y="137.7888"/><text fill="#000000" font-family="sans-serif" font-size="9.8" font-style="italic" lengthAdjust="spacing" textLength="37.8" x="796.95" y="151.864">Property</text><line style="stroke:#181818;stroke-width:0.3499999999999999;" x1="784.35" x2="847.35" y1="157.8235" y2="157.8235"/><text fill="#000000" font-family="sans-serif" font-size="9.8" lengthAdjust="spacing" textLength="18.9" x="787.85" y="171.1987">type</text><text fill="#000000" font-family="sans-serif" font-size="9.8" lengthAdjust="spacing" textLength="20.3" x="787.85" y="184.2335">area</text><text fill="#000000" font-family="sans-serif" font-size="9.8" lengthAdjust="spacing" textLength="21.7" x="787.85" y="197.2683">price</text><text fill="#000000" font-family="sans-serif" font-size="9.8" lengthAdjust="spacing" textLength="56" x="787.85" y="210.303">photographs</text><text fill="#000000" font-family="sans-serif" font-size="9.8" lengthAdjust="spacing" textLength="37.1" x="787.85" y="223.3378">distance</text></g><!--class CommonCharacteristicsApartmentHouse--><g id="elem_CommonCharacteristicsApartmentHouse"><rect codeLine="48" fill="#F1F1F1" height="77.7738" id="CommonCharacteristicsApartmentHouse" rx="1.75" ry="1.75" style="stroke:#181818;stroke-width:0.3499999999999999;" width="183.4" x="906.5" y="96.8388"/><text fill="#000000" font-family="sans-serif" font-size="9.8" font-style="italic" lengthAdjust="spacing" textLength="179.2" x="908.6" y="110.914">CommonCharacteristicsApartmentHouse</text><line style="stroke:#181818;stroke-width:0.3499999999999999;" x1="907.2" x2="1089.2" y1="116.8735" y2="116.8735"/><text fill="#000000" font-family="sans-serif" font-size="9.8" lengthAdjust="spacing" textLength="78.4" x="910.7" y="130.2487">numberBedrooms</text><text fill="#000000" font-family="sans-serif" font-size="9.8" lengthAdjust="spacing" textLength="81.2" x="910.7" y="143.2835">numberBathrooms</text><text fill="#000000" font-family="sans-serif" font-size="9.8" lengthAdjust="spacing" textLength="100.1" x="910.7" y="156.3183">numberParkingSpaces</text><text fill="#000000" font-family="sans-serif" font-size="9.8" lengthAdjust="spacing" textLength="86.1" x="910.7" y="169.353">availableEquipment</text></g><!--class Address--><g id="elem_Address"><rect codeLine="55" fill="#F1F1F1" height="77.7738" id="Address" rx="1.75" ry="1.75" style="stroke:#181818;stroke-width:0.3499999999999999;" width="58.8" x="786.45" y="311.0388"/><text fill="#000000" font-family="sans-serif" font-size="9.8" font-style="italic" lengthAdjust="spacing" textLength="36.4" x="797.65" y="325.114">Address</text><line style="stroke:#181818;stroke-width:0.3499999999999999;" x1="787.15" x2="844.55" y1="331.0735" y2="331.0735"/><text fill="#000000" font-family="sans-serif" font-size="9.8" lengthAdjust="spacing" textLength="50.4" x="790.65" y="344.4487">streetName</text><text fill="#000000" font-family="sans-serif" font-size="9.8" lengthAdjust="spacing" textLength="39.9" x="790.65" y="357.4835">cityName</text><text fill="#000000" font-family="sans-serif" font-size="9.8" lengthAdjust="spacing" textLength="35.7" x="790.65" y="370.5183">zipCode</text><text fill="#000000" font-family="sans-serif" font-size="9.8" lengthAdjust="spacing" textLength="28.7" x="790.65" y="383.553">district</text></g><!--class House--><g id="elem_House"><rect codeLine="62" fill="#F1F1F1" height="64.7391" id="House" rx="1.75" ry="1.75" style="stroke:#181818;stroke-width:0.3499999999999999;" width="93.8" x="1145.2" y="103.4888"/><text fill="#000000" font-family="sans-serif" font-size="9.8" lengthAdjust="spacing" textLength="28" x="1178.1" y="117.564">House</text><line style="stroke:#181818;stroke-width:0.3499999999999999;" x1="1145.9" x2="1238.3" y1="123.5235" y2="123.5235"/><text fill="#000000" font-family="sans-serif" font-size="9.8" lengthAdjust="spacing" textLength="85.4" x="1149.4" y="136.8987">existenceBasement</text><text fill="#000000" font-family="sans-serif" font-size="9.8" lengthAdjust="spacing" textLength="58.1" x="1149.4" y="149.9335">existenceLoft</text><text fill="#000000" font-family="sans-serif" font-size="9.8" lengthAdjust="spacing" textLength="57.4" x="1149.4" y="162.9683">sunExposure</text></g><!--class CommonCharacteristicsPerson--><g id="elem_CommonCharacteristicsPerson"><rect codeLine="68" fill="#F1F1F1" height="90.8086" id="CommonCharacteristicsPerson" rx="1.75" ry="1.75" style="stroke:#181818;stroke-width:0.3499999999999999;" width="140.7" x="4.9" y="248.3888"/><text fill="#000000" font-family="sans-serif" font-size="9.8" font-style="italic" lengthAdjust="spacing" textLength="136.5" x="7" y="262.464">CommonCharacteristicsPerson</text><line style="stroke:#181818;stroke-width:0.3499999999999999;" x1="5.6" x2="144.9" y1="268.4235" y2="268.4235"/><text fill="#000000" font-family="sans-serif" font-size="9.8" lengthAdjust="spacing" textLength="24.5" x="9.1" y="281.7987">name</text><text fill="#000000" font-family="sans-serif" font-size="9.8" lengthAdjust="spacing" textLength="83.3" x="9.1" y="294.8335">citizenCardNumber</text><text fill="#000000" font-family="sans-serif" font-size="9.8" lengthAdjust="spacing" textLength="46.9" x="9.1" y="307.8683">taxNumber</text><text fill="#000000" font-family="sans-serif" font-size="9.8" lengthAdjust="spacing" textLength="59.5" x="9.1" y="320.903">emailAddress</text><text fill="#000000" font-family="sans-serif" font-size="9.8" lengthAdjust="spacing" textLength="62.3" x="9.1" y="333.9378">phoneNumber</text></g><!--class Store--><g id="elem_Store"><rect codeLine="76" fill="#F1F1F1" height="77.7738" id="Store" rx="1.75" ry="1.75" style="stroke:#181818;stroke-width:0.3499999999999999;" width="70.7" x="780.5" y="476.9388"/><text fill="#000000" font-family="sans-serif" font-size="9.8" lengthAdjust="spacing" textLength="23.8" x="803.95" y="491.014">Store</text><line style="stroke:#181818;stroke-width:0.3499999999999999;" x1="781.2" x2="850.5" y1="496.9735" y2="496.9735"/><text fill="#000000" font-family="sans-serif" font-size="9.8" lengthAdjust="spacing" textLength="9.1" x="784.7" y="510.3487">ID</text><text fill="#000000" font-family="sans-serif" font-size="9.8" lengthAdjust="spacing" textLength="51.1" x="784.7" y="523.3835">designation</text><text fill="#000000" font-family="sans-serif" font-size="9.8" lengthAdjust="spacing" textLength="62.3" x="784.7" y="536.4183">phoneNumber</text><text fill="#000000" font-family="sans-serif" font-size="9.8" lengthAdjust="spacing" textLength="59.5" x="784.7" y="549.453">emailAddress</text></g><!--class NetworkManager--><g id="elem_NetworkManager"><rect codeLine="83" fill="#F1F1F1" height="25.6348" id="NetworkManager" rx="1.75" ry="1.75" style="stroke:#181818;stroke-width:0.3499999999999999;" width="102.2" x="429.1" y="610.6388"/><text fill="#000000" font-family="sans-serif" font-size="9.8" lengthAdjust="spacing" textLength="98" x="431.2" y="624.714">StoreNetworkManager</text><line style="stroke:#181818;stroke-width:0.3499999999999999;" x1="429.8" x2="530.6" y1="630.6735" y2="630.6735"/></g><!--class Manager--><g id="elem_Manager"><rect codeLine="87" fill="#F1F1F1" height="25.6348" id="Manager" rx="1.75" ry="1.75" style="stroke:#181818;stroke-width:0.3499999999999999;" width="67.2" x="623.7" y="502.8388"/><text fill="#000000" font-family="sans-serif" font-size="9.8" lengthAdjust="spacing" textLength="63" x="625.8" y="516.914">StoreManager</text><line style="stroke:#181818;stroke-width:0.3499999999999999;" x1="624.4" x2="690.2" y1="522.8735" y2="522.8735"/></g><!--class Administrator--><g id="elem_Administrator"><rect codeLine="91" fill="#F1F1F1" height="25.6348" id="Administrator" rx="1.75" ry="1.75" style="stroke:#181818;stroke-width:0.3499999999999999;" width="94.5" x="432.95" y="546.9388"/><text fill="#000000" font-family="sans-serif" font-size="9.8" lengthAdjust="spacing" textLength="90.3" x="435.05" y="561.014">SystemAdministrator</text><line style="stroke:#181818;stroke-width:0.3499999999999999;" x1="433.65" x2="526.75" y1="566.9735" y2="566.9735"/></g><!--class AdvertisementRequest--><g id="elem_AdvertisementRequest"><rect codeLine="95" fill="#F1F1F1" height="25.6348" id="AdvertisementRequest" rx="1.75" ry="1.75" style="stroke:#181818;stroke-width:0.3499999999999999;" width="103.6" x="234.5" y="159.8388"/><text fill="#000000" font-family="sans-serif" font-size="9.8" font-style="italic" lengthAdjust="spacing" textLength="99.4" x="236.6" y="173.914">AdvertisementRequest</text><line style="stroke:#181818;stroke-width:0.3499999999999999;" x1="235.2" x2="337.4" y1="179.8735" y2="179.8735"/></g><!--class SaleAdvertisementRequest--><g id="elem_SaleAdvertisementRequest"><rect codeLine="99" fill="#F1F1F1" height="38.6695" id="SaleAdvertisementRequest" rx="1.75" ry="1.75" style="stroke:#181818;stroke-width:0.3499999999999999;" width="123.9" x="13.3" y="101.7388"/><text fill="#000000" font-family="sans-serif" font-size="9.8" lengthAdjust="spacing" textLength="119.7" x="15.4" y="115.814">SaleAdvertisementRequest</text><line style="stroke:#181818;stroke-width:0.3499999999999999;" x1="14" x2="136.5" y1="121.7735" y2="121.7735"/><text fill="#000000" font-family="sans-serif" font-size="9.8" lengthAdjust="spacing" textLength="41.3" x="17.5" y="135.1487">totalPrice</text></g><!--class RentAdvertisementRequest--><g id="elem_RentAdvertisementRequest"><rect codeLine="103" fill="#F1F1F1" height="38.6695" id="RentAdvertisementRequest" rx="1.75" ry="1.75" style="stroke:#181818;stroke-width:0.3499999999999999;" width="125.3" x="12.6" y="164.7388"/><text fill="#000000" font-family="sans-serif" font-size="9.8" lengthAdjust="spacing" textLength="121.1" x="14.7" y="178.814">RentAdvertisementRequest</text><line style="stroke:#181818;stroke-width:0.3499999999999999;" x1="13.3" x2="137.2" y1="184.7735" y2="184.7735"/><text fill="#000000" font-family="sans-serif" font-size="9.8" lengthAdjust="spacing" textLength="82.6" x="16.8" y="198.1487">rentPricePerMonth</text></g><g id="elem_GMN21"><path d="M893.9,199.0388 L893.9,218.1425 A0,0 0 0 0 893.9,218.1425 L1102.5,218.1425 A0,0 0 0 0 1102.5,218.1425 L1102.5,206.0388 L1095.5,199.0388 L932.421,199.0388 L848.071,187.6778 L926.821,199.0388 L893.9,199.0388 A0,0 0 0 0 893.9,199.0388 " fill="#FEFFDD" style="stroke:#181818;stroke-width:0.3499999999999999;"/><path d="M1095.5,199.0388 L1095.5,206.0388 L1102.5,206.0388 L1095.5,199.0388 " fill="#FEFFDD" style="stroke:#181818;stroke-width:0.3499999999999999;"/><text fill="#000000" font-family="sans-serif" font-size="9.1" lengthAdjust="spacing" textLength="193.9" x="898.1" y="212.3586">"Type" can be a Land, a House or an Apartment</text></g><!--link Administrator to NetworkManager--><g id="link_Administrator_NetworkManager"><path codeLine="111" d="M480.2,572.8528 C480.2,583.7938 480.2,599.3828 480.2,610.3868 " fill="none" id="Administrator-NetworkManager" style="stroke:#181818;stroke-width:0.6999999999999998;"/><polygon fill="#000000" points="452.2,595.3406,454.2572,589.0091,450.1428,589.0091,452.2,595.3406" style="stroke:#000000;stroke-width:0.6999999999999998;"/><text fill="#000000" font-family="sans-serif" font-size="9.1" lengthAdjust="spacing" textLength="35" x="458.5" y="595.6086">registers</text><text fill="#000000" font-family="sans-serif" font-size="9.1" lengthAdjust="spacing" textLength="4.9" x="474.6109" y="588.0581">1</text><text fill="#000000" font-family="sans-serif" font-size="9.1" lengthAdjust="spacing" textLength="4.9" x="474.5803" y="602.7496">1</text></g><!--link Administrator to Manager--><g id="link_Administrator_Manager"><path codeLine="112" d="M527.576,555.7798 C550.543,552.9728 578.445,548.3738 602.7,540.9888 C612.78,537.9158 623.385,533.2958 632.492,528.8438 " fill="none" id="Administrator-Manager" style="stroke:#181818;stroke-width:0.6999999999999998;"/><polygon fill="#000000" points="561.6401,533.5703,554.9958,533.1521,556.019,537.1374,561.6401,533.5703" style="stroke:#000000;stroke-width:0.6999999999999998;"/><text fill="#000000" font-family="sans-serif" font-size="9.1" lengthAdjust="spacing" textLength="35" x="564.55" y="538.2086">registers</text><text fill="#000000" font-family="sans-serif" font-size="9.1" lengthAdjust="spacing" textLength="4.9" x="533.1788" y="552.625">1</text><text fill="#000000" font-family="sans-serif" font-size="9.1" lengthAdjust="spacing" textLength="14" x="609.9436" y="543.8342">1..*</text></g><!--link Administrator to Store--><g id="link_Administrator_Store"><path codeLine="113" d="M527.548,562.3388 C570.346,563.7178 635.327,563.6058 690.9,554.2888 C721.861,549.1018 755.832,538.1958 780.416,529.3128 " fill="none" id="Administrator-Store" style="stroke:#181818;stroke-width:0.6999999999999998;"/><polygon fill="#000000" points="641.5205,547.2874,634.9759,546.0674,635.5087,550.1472,641.5205,547.2874" style="stroke:#000000;stroke-width:0.6999999999999998;"/><text fill="#000000" font-family="sans-serif" font-size="9.1" lengthAdjust="spacing" textLength="35" x="644.35" y="551.5086">registers</text><text fill="#000000" font-family="sans-serif" font-size="9.1" lengthAdjust="spacing" textLength="4.9" x="532.9947" y="573.103">1</text><text fill="#000000" font-family="sans-serif" font-size="9.1" lengthAdjust="spacing" textLength="4.9" x="769.9518" y="542.0024">1</text></g><!--link Manager to Store--><g id="link_Manager_Store"><path codeLine="115" d="M690.942,515.7888 C717.136,515.7888 753.676,515.7888 780.346,515.7888 " fill="none" id="Manager-Store" style="stroke:#181818;stroke-width:0.6999999999999998;"/><polygon fill="#000000" points="718.9,509.2406,712.5684,507.1834,712.5684,511.2979,718.9,509.2406" style="stroke:#000000;stroke-width:0.6999999999999998;"/><text fill="#000000" font-family="sans-serif" font-size="9.1" lengthAdjust="spacing" textLength="37.1" x="721.7" y="513.0086">manages</text><text fill="#000000" font-family="sans-serif" font-size="9.1" lengthAdjust="spacing" textLength="4.9" x="696.4686" y="526.5556">1</text><text fill="#000000" font-family="sans-serif" font-size="9.1" lengthAdjust="spacing" textLength="4.9" x="770.1087" y="526.4544">1</text></g><!--link NetworkManager to Store--><g id="link_NetworkManager_Store"><path codeLine="117" d="M531.531,618.5208 C589.428,611.0868 685.713,593.6708 759.5,554.9888 C766.514,551.3138 773.668,546.8758 780.409,542.3258 " fill="none" id="NetworkManager-Store" style="stroke:#181818;stroke-width:0.6999999999999998;"/><polygon fill="#000000" points="636.4967,576.816,629.8402,576.7024,631.0447,580.6367,636.4967,576.816" style="stroke:#000000;stroke-width:0.6999999999999998;"/><text fill="#000000" font-family="sans-serif" font-size="9.1" lengthAdjust="spacing" textLength="44.8" x="639.45" y="581.6086">manages a</text><text fill="#000000" font-family="sans-serif" font-size="9.1" lengthAdjust="spacing" textLength="4.9" x="536.9629" y="628.4505">1</text><text fill="#000000" font-family="sans-serif" font-size="9.1" lengthAdjust="spacing" textLength="14" x="760.9712" y="556.3163">1..*</text></g><!--link Property to Agent--><g id="link_Property_Agent"><path codeLine="119" d="M783.454,185.4728 C733.292,189.6238 633.038,200.7398 552.3,227.3888 C531.559,234.2348 509.404,246.3728 495.369,254.7378 " fill="none" id="Property-Agent" style="stroke:#181818;stroke-width:0.6999999999999998;"/><polygon fill="#000000" points="638.497,190.1588,645.134,190.6789,644.1722,186.6784,638.497,190.1588" style="stroke:#000000;stroke-width:0.6999999999999998;"/><text fill="#000000" font-family="sans-serif" font-size="9.1" lengthAdjust="spacing" textLength="27.3" x="648.2" y="193.1086">has an</text><text fill="#000000" font-family="sans-serif" font-size="9.1" lengthAdjust="spacing" textLength="4.9" x="767.66" y="196.4642">1</text><text fill="#000000" font-family="sans-serif" font-size="9.1" lengthAdjust="spacing" textLength="4.9" x="498.8953" y="242.8748">1</text></g><!--link Property to Address--><g id="link_Property_Address"><path codeLine="120" d="M815.85,229.0058 C815.85,254.7378 815.85,286.5178 815.85,311.0388 " fill="none" id="Property-Address" style="stroke:#181818;stroke-width:0.6999999999999998;"/><polygon fill="#000000" points="785.4,273.5156,787.4572,267.1841,783.3428,267.1841,785.4,273.5156" style="stroke:#000000;stroke-width:0.6999999999999998;"/><text fill="#000000" font-family="sans-serif" font-size="9.1" lengthAdjust="spacing" textLength="39.9" x="791.7" y="273.7836">located at</text><text fill="#000000" font-family="sans-serif" font-size="9.1" lengthAdjust="spacing" textLength="4.9" x="810.6973" y="244.1741">1</text><text fill="#000000" font-family="sans-serif" font-size="9.1" lengthAdjust="spacing" textLength="4.9" x="810.6361" y="303.2269">1</text></g><!--reverse link Property to CommonCharacteristicsApartmentHouse--><g id="link_Property_CommonCharacteristicsApartmentHouse"><path codeLine="121" d="M861.805,171.3818 C875.462,167.7908 890.96,163.7168 906.479,159.6358 " fill="none" id="Property-backto-CommonCharacteristicsApartmentHouse" style="stroke:#181818;stroke-width:0.6999999999999998;"/><polygon fill="none" points="862.855,176.1768,848.071,175.0008,860.363,166.6988,862.855,176.1768" style="stroke:#181818;stroke-width:0.6999999999999998;"/></g><!--link Address to Store--><g id="link_Address_Store"><path codeLine="123" d="M815.85,388.8298 C815.85,415.3668 815.85,450.3668 815.85,476.8898 " fill="none" id="Address-Store" style="stroke:#181818;stroke-width:0.6999999999999998;"/><polygon fill="#000000" points="785.4,429.4406,783.3428,435.7722,787.4572,435.7722,785.4,429.4406" style="stroke:#000000;stroke-width:0.6999999999999998;"/><text fill="#000000" font-family="sans-serif" font-size="9.1" lengthAdjust="spacing" textLength="39.9" x="791.7" y="436.7086">located at</text><text fill="#000000" font-family="sans-serif" font-size="9.1" lengthAdjust="spacing" textLength="4.9" x="810.6514" y="404.1286">1</text><text fill="#000000" font-family="sans-serif" font-size="9.1" lengthAdjust="spacing" textLength="4.9" x="810.6361" y="469.0716">1</text></g><!--link Employee to Address--><g id="link_Employee_Address"><path codeLine="125" d="M327.124,475.1188 C401.373,478.7798 564.179,480.2428 690.9,434.5888 C727.006,421.5828 762.615,395.5848 786.394,375.8028 " fill="none" id="Employee-Address" style="stroke:#181818;stroke-width:0.6999999999999998;"/><polygon fill="#000000" points="559.2209,451.1009,552.5976,450.4283,553.4672,454.4499,559.2209,451.1009" style="stroke:#000000;stroke-width:0.6999999999999998;"/><text fill="#000000" font-family="sans-serif" font-size="9.1" lengthAdjust="spacing" textLength="39.9" x="562.1" y="455.6086">located at</text><text fill="#000000" font-family="sans-serif" font-size="9.1" lengthAdjust="spacing" textLength="4.9" x="332.398" y="486.0147">1</text><text fill="#000000" font-family="sans-serif" font-size="9.1" lengthAdjust="spacing" textLength="4.9" x="776.0102" y="391.1104">1</text></g><!--link Organization to Employee--><g id="link_Organization_Employee"><path codeLine="126" d="M111.16,451.7318 C127.652,458.3328 147.77,465.2908 166.6,468.8888 C192.584,473.8518 222.334,474.7268 245.588,474.3628 " fill="none" id="Organization-Employee" style="stroke:#181818;stroke-width:0.6999999999999998;"/><polygon fill="#000000" points="166.6486,461.7596,172.5507,464.8394,173.2338,460.782,166.6486,461.7596" style="stroke:#000000;stroke-width:0.6999999999999998;"/><text fill="#000000" font-family="sans-serif" font-size="9.1" lengthAdjust="spacing" textLength="36.4" x="176.4" y="466.1086">works for</text><text fill="#000000" font-family="sans-serif" font-size="9.1" lengthAdjust="spacing" textLength="4.9" x="116.5544" y="464.6232">1</text><text fill="#000000" font-family="sans-serif" font-size="9.1" lengthAdjust="spacing" textLength="3.5" x="236.6476" y="485.217">*</text></g><!--reverse link Employee to Manager--><g id="link_Employee_Manager"><path codeLine="127" d="M340.718,486.9628 C346.885,488.3348 353.108,489.5878 359.1,490.5888 C454.314,506.5278 568.456,512.6108 623.588,514.7458 " fill="none" id="Employee-backto-Manager" style="stroke:#181818;stroke-width:0.6999999999999998;"/><polygon fill="none" points="339.479,491.7088,326.984,483.7148,341.74,482.1748,339.479,491.7088" style="stroke:#181818;stroke-width:0.6999999999999998;"/></g><!--reverse link Employee to NetworkManager--><g id="link_Employee_NetworkManager"><path codeLine="128" d="M316.855,509.0758 C329.147,522.9988 344.022,538.4548 359.1,550.7888 C389.067,575.3028 428.085,597.3668 453.453,610.6178 " fill="none" id="Employee-backto-NetworkManager" style="stroke:#181818;stroke-width:0.6999999999999998;"/><polygon fill="none" points="313.026,512.1348,307.601,498.3308,320.446,505.7368,313.026,512.1348" style="stroke:#181818;stroke-width:0.6999999999999998;"/></g><!--reverse link Employee to Administrator--><g id="link_Employee_Administrator"><path codeLine="129" d="M326.683,507.2208 C336.756,514.7948 347.914,522.1728 359.1,527.6888 C382.2,539.0708 409.836,546.8268 432.803,551.8738 " fill="none" id="Employee-backto-Administrator" style="stroke:#181818;stroke-width:0.6999999999999998;"/><polygon fill="none" points="323.379,510.8608,315.413,498.3518,329.448,503.1608,323.379,510.8608" style="stroke:#181818;stroke-width:0.6999999999999998;"/></g><!--reverse link Employee to Agent--><g id="link_Employee_Agent"><path codeLine="130" d="M340.718,458.4448 C368.62,450.1428 398.797,439.1388 408.1,428.2888 C439.278,391.9308 408.163,365.6668 429.1,322.5888 C437.857,304.5708 453.495,287.6098 465.038,276.5778 " fill="none" id="Employee-backto-Agent" style="stroke:#181818;stroke-width:0.6999999999999998;"/><polygon fill="none" points="341.901,463.2048,327.096,462.3508,339.206,453.7828,341.901,463.2048" style="stroke:#181818;stroke-width:0.6999999999999998;"/></g><!--link Owner to Address--><g id="link_Owner_Address"><path codeLine="132" d="M496.727,169.3028 C532.854,162.1418 623.49,148.6808 690.9,176.9888 C748.069,200.9988 783.671,267.7788 801.416,310.9758 " fill="none" id="Owner-Address" style="stroke:#181818;stroke-width:0.6999999999999998;"/><polygon fill="#000000" points="638.7737,155.8163,633.8998,151.2813,632.165,155.0122,638.7737,155.8163" style="stroke:#000000;stroke-width:0.6999999999999998;"/><text fill="#000000" font-family="sans-serif" font-size="9.1" lengthAdjust="spacing" textLength="39.9" x="641.9" y="158.1086">located at</text><text fill="#000000" font-family="sans-serif" font-size="9.1" lengthAdjust="spacing" textLength="4.9" x="502.3015" y="179.9153">1</text><text fill="#000000" font-family="sans-serif" font-size="9.1" lengthAdjust="spacing" textLength="4.9" x="794.3527" y="303.1558">1</text></g><!--link Owner to Property--><g id="link_Owner_Property"><path codeLine="133" d="M489.391,159.6918 C501.172,142.8568 524.23,114.4158 552.3,102.7888 C609.21,79.2198 631.862,84.5048 690.9,102.0888 C725.725,112.4558 759.878,136.0388 783.538,155.1278 " fill="none" id="Owner-Property" style="stroke:#181818;stroke-width:0.6999999999999998;"/><polygon fill="#000000" points="638.4004,80.8949,644.7631,82.8537,644.6993,78.7397,638.4004,80.8949" style="stroke:#000000;stroke-width:0.6999999999999998;"/><text fill="#000000" font-family="sans-serif" font-size="9.1" lengthAdjust="spacing" textLength="27.3" x="648.2" y="84.6086">has an</text><text fill="#000000" font-family="sans-serif" font-size="9.1" lengthAdjust="spacing" textLength="14" x="476.062" y="151.8503">1..*</text><text fill="#000000" font-family="sans-serif" font-size="9.1" lengthAdjust="spacing" textLength="4.9" x="773.0978" y="161.4392">1</text></g><!--link Client to Agent--><g id="link_Client_Agent"><path codeLine="135" d="M301,296.1708 C323.764,299.4258 370.069,304.1648 408.1,295.9888 C428.974,291.5018 451.101,280.4068 465.087,272.4968 " fill="none" id="Client-Agent" style="stroke:#181818;stroke-width:0.6999999999999998;"/><polygon fill="#000000" points="367.8141,288.9408,361.2537,287.8088,361.8412,291.8811,367.8141,288.9408" style="stroke:#000000;stroke-width:0.6999999999999998;"/><text fill="#000000" font-family="sans-serif" font-size="9.1" lengthAdjust="spacing" textLength="35" x="370.65" y="293.2086">contacts</text><text fill="#000000" font-family="sans-serif" font-size="9.1" lengthAdjust="spacing" textLength="4.9" x="306.6809" y="308.7951">1</text><text fill="#000000" font-family="sans-serif" font-size="9.1" lengthAdjust="spacing" textLength="4.9" x="454.5888" y="287.0636">1</text></g><!--link Agent to Store--><g id="link_Agent_Store"><path codeLine="136" d="M495.292,260.2748 C532.259,252.1548 631.785,236.1668 690.9,282.6888 C709.296,297.1648 701.512,310.0098 711.9,330.9888 C737.387,382.4458 770.224,439.9368 791.945,476.9178 " fill="none" id="Agent-Store" style="stroke:#181818;stroke-width:0.6999999999999998;"/><polygon fill="#000000" points="641.5765,250.2048,637.6766,244.8093,635.25,248.132,641.5765,250.2048" style="stroke:#000000;stroke-width:0.6999999999999998;"/><text fill="#000000" font-family="sans-serif" font-size="9.1" lengthAdjust="spacing" textLength="33.6" x="645.05" y="251.9086">works in</text><text fill="#000000" font-family="sans-serif" font-size="9.1" lengthAdjust="spacing" textLength="4.9" x="500.8835" y="255.2527">1</text><text fill="#000000" font-family="sans-serif" font-size="9.1" lengthAdjust="spacing" textLength="4.9" x="783.6683" y="469.1032">1</text></g><!--link Owner to Agent--><g id="link_Owner_Agent"><path codeLine="137" d="M480.2,185.8018 C480.2,203.0918 480.2,233.4508 480.2,250.7478 " fill="none" id="Owner-Agent" style="stroke:#181818;stroke-width:0.6999999999999998;"/><polygon fill="#000000" points="452.2,221.8906,454.2572,215.5591,450.1428,215.5591,452.2,221.8906" style="stroke:#000000;stroke-width:0.6999999999999998;"/><text fill="#000000" font-family="sans-serif" font-size="9.1" lengthAdjust="spacing" textLength="35" x="458.5" y="222.1586">contacts</text><text fill="#000000" font-family="sans-serif" font-size="9.1" lengthAdjust="spacing" textLength="14" x="464.3187" y="200.7809">1..*</text><text fill="#000000" font-family="sans-serif" font-size="9.1" lengthAdjust="spacing" textLength="4.9" x="474.5497" y="242.9234">1</text></g><!--link Agent to Commission--><g id="link_Agent_Commission"><path codeLine="138" d="M495.369,268.2618 C518.21,275.3458 564.018,289.6468 602.7,302.2888 C610.302,304.7738 618.492,307.5108 626.136,310.0868 " fill="none" id="Agent-Commission" style="stroke:#181818;stroke-width:0.6999999999999998;"/><polygon fill="#000000" points="564.7336,280.7069,559.3298,276.8186,558.0763,280.7375,564.7336,280.7069" style="stroke:#000000;stroke-width:0.6999999999999998;"/><text fill="#000000" font-family="sans-serif" font-size="9.1" lengthAdjust="spacing" textLength="28.7" x="567.7" y="283.4086">defines</text><text fill="#000000" font-family="sans-serif" font-size="9.1" lengthAdjust="spacing" textLength="4.9" x="500.7648" y="281.3454">1</text><text fill="#000000" font-family="sans-serif" font-size="9.1" lengthAdjust="spacing" textLength="4.9" x="615.6687" y="319.194">1</text></g><!--link Agent to Advertisement--><g id="link_Agent_Advertisement"><path codeLine="140" d="M494.844,276.8298 C508.676,289.3038 530.845,308.1058 552.3,321.1888 C573.23,333.9498 582.841,329.2178 602.7,343.5888 C618.17,354.7818 632.52,371.0358 642.516,383.7268 " fill="none" id="Agent-Advertisement" style="stroke:#181818;stroke-width:0.6999999999999998;"/><polygon fill="#000000" points="563.5351,316.6929,559.6126,311.3138,557.2,314.6467,563.5351,316.6929" style="stroke:#000000;stroke-width:0.6999999999999998;"/><text fill="#000000" font-family="sans-serif" font-size="9.1" lengthAdjust="spacing" textLength="30.1" x="567" y="318.4086">creates</text><text fill="#000000" font-family="sans-serif" font-size="9.1" lengthAdjust="spacing" textLength="4.9" x="493.2211" y="291.8164">1</text><text fill="#000000" font-family="sans-serif" font-size="9.1" lengthAdjust="spacing" textLength="3.5" x="635.1925" y="375.7971">*</text></g><!--link Organization to Advertisement--><g id="link_Organization_Advertisement"><path codeLine="141" d="M110.964,434.0078 C215.11,428.1068 521.976,410.7188 623.539,404.9648 " fill="none" id="Organization-Advertisement" style="stroke:#181818;stroke-width:0.6999999999999998;"/><polygon fill="#000000" points="366.0944,410.3426,359.6566,408.6468,359.8894,412.7548,366.0944,410.3426" style="stroke:#000000;stroke-width:0.6999999999999998;"/><text fill="#000000" font-family="sans-serif" font-size="9.1" lengthAdjust="spacing" textLength="38.5" x="368.9" y="414.3086">publishes</text><text fill="#000000" font-family="sans-serif" font-size="9.1" lengthAdjust="spacing" textLength="4.9" x="116.5693" y="444.4325">1</text><text fill="#000000" font-family="sans-serif" font-size="9.1" lengthAdjust="spacing" textLength="3.5" x="614.6014" y="415.9856">*</text></g><!--link Commission to Advertisement--><g id="link_Commission_Advertisement"><path codeLine="142" d="M657.3,346.6128 C657.3,358.6388 657.3,372.6598 657.3,383.7198 " fill="none" id="Commission-Advertisement" style="stroke:#181818;stroke-width:0.6999999999999998;"/><polygon fill="#000000" points="634.55,361.7156,632.4928,368.0472,636.6072,368.0472,634.55,361.7156" style="stroke:#000000;stroke-width:0.6999999999999998;"/><text fill="#000000" font-family="sans-serif" font-size="9.1" lengthAdjust="spacing" textLength="24.5" x="640.85" y="368.9836">needs</text><text fill="#000000" font-family="sans-serif" font-size="9.1" lengthAdjust="spacing" textLength="4.9" x="651.9942" y="361.7696">1</text><text fill="#000000" font-family="sans-serif" font-size="9.1" lengthAdjust="spacing" textLength="4.9" x="651.8641" y="376.1048">1</text></g><!--link Advertisement to Property--><g id="link_Advertisement_Property"><path codeLine="143" d="M672.686,383.6288 C678.412,375.9778 685.006,367.1018 690.9,358.9888 C722.848,315.0078 758.618,264.2648 783.545,228.6558 " fill="none" id="Advertisement-Property" style="stroke:#181818;stroke-width:0.6999999999999998;"/><polygon fill="#000000" points="724.7863,253.694,719.4294,257.6467,722.7758,260.0405,724.7863,253.694" style="stroke:#000000;stroke-width:0.6999999999999998;"/><text fill="#000000" font-family="sans-serif" font-size="9.1" lengthAdjust="spacing" textLength="22.4" x="729.05" y="260.3086">has a</text><text fill="#000000" font-family="sans-serif" font-size="9.1" lengthAdjust="spacing" textLength="4.9" x="670.6157" y="375.9939">1</text><text fill="#000000" font-family="sans-serif" font-size="9.1" lengthAdjust="spacing" textLength="4.9" x="774.8437" y="244.11">1</text></g><!--reverse link CommonCharacteristicsApartmentHouse to House--><g id="link_CommonCharacteristicsApartmentHouse_House"><path codeLine="145" d="M1104.145,135.6888 C1118.467,135.6888 1132.516,135.6888 1145.018,135.6888 " fill="none" id="CommonCharacteristicsApartmentHouse-backto-House" style="stroke:#181818;stroke-width:0.6999999999999998;"/><polygon fill="none" points="1104.075,140.5888,1090.075,135.6888,1104.075,130.7888,1104.075,140.5888" style="stroke:#181818;stroke-width:0.6999999999999998;"/></g><!--reverse link CommonCharacteristicsPerson to Client--><g id="link_CommonCharacteristicsPerson_Client"><path codeLine="146" d="M159.817,293.8888 C201.908,293.8888 248.71,293.8888 271.537,293.8888 " fill="none" id="CommonCharacteristicsPerson-backto-Client" style="stroke:#181818;stroke-width:0.6999999999999998;"/><polygon fill="none" points="159.761,298.7888,145.761,293.8888,159.761,288.9888,159.761,298.7888" style="stroke:#181818;stroke-width:0.6999999999999998;"/></g><!--reverse link CommonCharacteristicsPerson to Owner--><g id="link_CommonCharacteristicsPerson_Owner"><path codeLine="147" d="M159.243,268.8918 C257.495,239.4078 413.798,192.5078 463.666,177.5418 " fill="none" id="CommonCharacteristicsPerson-backto-Owner" style="stroke:#181818;stroke-width:0.6999999999999998;"/><polygon fill="none" points="160.601,273.6028,145.782,272.9308,157.78,264.2158,160.601,273.6028" style="stroke:#181818;stroke-width:0.6999999999999998;"/></g><!--reverse link CommonCharacteristicsPerson to Employee--><g id="link_CommonCharacteristicsPerson_Employee"><path codeLine="148" d="M140.168,348.5658 C178.332,381.0598 224.994,420.7848 254.996,446.3348 " fill="none" id="CommonCharacteristicsPerson-backto-Employee" style="stroke:#181818;stroke-width:0.6999999999999998;"/><polygon fill="none" points="136.878,352.1988,129.395,339.3958,143.234,344.7368,136.878,352.1988" style="stroke:#181818;stroke-width:0.6999999999999998;"/></g><!--link AdvertisementRequest to Owner--><g id="link_AdvertisementRequest_Owner"><path codeLine="150" d="M338.331,172.7888 C380.1,172.7888 436.415,172.7888 463.561,172.7888 " fill="none" id="AdvertisementRequest-Owner" style="stroke:#181818;stroke-width:0.6999999999999998;"/><polygon fill="#000000" points="362.25,166.2406,368.5816,168.2979,368.5816,164.1834,362.25,166.2406" style="stroke:#000000;stroke-width:0.6999999999999998;"/><text fill="#000000" font-family="sans-serif" font-size="9.1" lengthAdjust="spacing" textLength="32.2" x="372.05" y="170.0086">submits</text><text fill="#000000" font-family="sans-serif" font-size="9.1" lengthAdjust="spacing" textLength="4.9" x="343.694" y="183.2174">1</text><text fill="#000000" font-family="sans-serif" font-size="9.1" lengthAdjust="spacing" textLength="4.9" x="453.2922" y="184.348">1</text></g><!--link AdvertisementRequest to Property--><g id="link_AdvertisementRequest_Property"><path codeLine="151" d="M307.993,159.8388 C367.759,124.5868 544.019,31.9348 690.9,68.4888 C724.395,76.8258 733.565,82.1108 759.5,104.8888 C770.161,114.2478 779.877,126.0428 788.102,137.6138 " fill="none" id="AdvertisementRequest-Property" style="stroke:#181818;stroke-width:0.6999999999999998;"/><polygon fill="#000000" points="559.6463,54.0788,553.2263,52.3165,553.4166,56.4266,559.6463,54.0788" style="stroke:#000000;stroke-width:0.6999999999999998;"/><text fill="#000000" font-family="sans-serif" font-size="9.1" lengthAdjust="spacing" textLength="39.2" x="562.45" y="58.0086">describes</text><text fill="#000000" font-family="sans-serif" font-size="9.1" lengthAdjust="spacing" textLength="4.9" x="308.9862" y="152.0423">1</text><text fill="#000000" font-family="sans-serif" font-size="9.1" lengthAdjust="spacing" textLength="4.9" x="779.8991" y="129.9087">1</text></g><!--link AdvertisementRequest to Agent--><g id="link_AdvertisementRequest_Agent"><path codeLine="152" d="M314.58,185.8298 C356.062,205.4368 433.048,241.8298 465.01,256.9358 " fill="none" id="AdvertisementRequest-Agent" style="stroke:#181818;stroke-width:0.6999999999999998;"/><polygon fill="#000000" points="366.4357,199.0449,371.2808,203.6106,373.0391,199.8908,366.4357,199.0449" style="stroke:#000000;stroke-width:0.6999999999999998;"/><text fill="#000000" font-family="sans-serif" font-size="9.1" lengthAdjust="spacing" textLength="24.5" x="375.9" y="204.3086">opens</text><text fill="#000000" font-family="sans-serif" font-size="9.1" lengthAdjust="spacing" textLength="4.9" x="316.6218" y="200.8164">1</text><text fill="#000000" font-family="sans-serif" font-size="9.1" lengthAdjust="spacing" textLength="14" x="445.6012" y="266.5926">1..*</text></g><!--link AdvertisementRequest to Advertisement--><g id="link_AdvertisementRequest_Advertisement"><path codeLine="153" d="M293.881,185.7808 C311.395,218.8208 356.503,303.6258 359.1,305.7888 C446.6,378.5958 494.641,349.1048 602.7,384.8888 C609.448,387.1218 616.665,389.5438 623.553,391.8608 " fill="none" id="AdvertisementRequest-Advertisement" style="stroke:#181818;stroke-width:0.6999999999999998;"/><polygon fill="#000000" points="462.8679,343.0958,458.5894,337.9953,456.4085,341.4842,462.8679,343.0958" style="stroke:#000000;stroke-width:0.6999999999999998;"/><text fill="#000000" font-family="sans-serif" font-size="9.1" lengthAdjust="spacing" textLength="37.1" x="466.2" y="345.0086">becomes</text><text fill="#000000" font-family="sans-serif" font-size="9.1" lengthAdjust="spacing" textLength="4.9" x="290.4241" y="200.994">1</text><text fill="#000000" font-family="sans-serif" font-size="9.1" lengthAdjust="spacing" textLength="4.9" x="613.1103" y="400.875">1</text></g><!--link SaleAdvertisementRequest to AdvertisementRequest--><g id="link_SaleAdvertisementRequest_AdvertisementRequest"><path codeLine="154" d="M137.438,136.1788 C163.611,142.6468 194.166,150.1998 220.703,156.7518 " fill="none" id="SaleAdvertisementRequest-to-AdvertisementRequest" style="stroke:#181818;stroke-width:0.6999999999999998;"/><polygon fill="none" points="221.956,152.0198,234.374,160.1328,219.604,161.5328,221.956,152.0198" style="stroke:#181818;stroke-width:0.6999999999999998;"/></g><!--link RentAdvertisementRequest to AdvertisementRequest--><g id="link_RentAdvertisementRequest_AdvertisementRequest"><path codeLine="155" d="M137.998,180.6708 C163.877,179.2918 193.949,177.6818 220.178,176.2818 " fill="none" id="RentAdvertisementRequest-to-AdvertisementRequest" style="stroke:#181818;stroke-width:0.6999999999999998;"/><polygon fill="none" points="220.059,171.3818,234.297,175.5328,220.577,181.1678,220.059,171.3818" style="stroke:#181818;stroke-width:0.6999999999999998;"/></g><!--SRC=[bLRRRXiv37tNLmX-AL2iY_RLA0guRe0MQD8Wtlq0MaFF29cHfXAdYTFTVrzAchilSVCIcpg78W-F9B_nZzhKuA2IbJLM5SvMACarA8QL6jGZvBYbGudIeI8mUJa6-08o-wHDBlTG-l5AgGtIeSRuGPIu9qbMEfqN93CTScbhHdXLWlTh8gTt3U4tPSrMlw1yBmgTeLJQATuuVgwG2fjv8KWJb_N5Lg2DlBKPbaB4D7ATeo7vM_pN1x9Vw4XxhDA2vByC20V4uW6XlF74mN-swuK4Bt-u78n-WL1fowaBQ_2kgNReudValSjrbZdqViYriLMblHzeU_sCsRgoZQ6K1ftYGbZQG8AT9mUAaWRofgfBUq1ikHpIkM4wzwGECUHiEQfyK-fPjp-U3BeKcEM-TvRtfaEREmmeRU8GKcLEA-nQ9Pixg0kVvD8iZb6dAWxzMhCf8CJGCL0hl-QvKf3xgsryruo9qdt6p5bR-N48g9Z7xi6nFV8jkn1J77wntB0hyUPde-kG_4GrxJZQ7Na9aUwWIbqfJOV-oukkDsoRlZtkdGOLntNZCo-p_lWPaeUcqUzsdoA-CJVFjVMDkrgdUtI-DueqNMsXKZu0PWCk6nbE4ZoFlquCAESMxNlPadLTBz- -f8On-2gQ-m-ilOYPxf2Uh7ky1SCMTl6mJ4EyrPmp1fz67LZCQfrLseHP09CYU19fAKSZ7ntl1_pPeAT9yYsKU0OKHRK4vNsqVazvODG5YkD8PF3yRgsX8Z2D9MplEBll3rl4B_xcixQG2epSeGJv7Kps5_zFBkF6UA4_CW9D9aCo8QRTBpuiv99lN1C_pJHVSL5vSAJpyjEKkFWWM-AIcU_UlLt8ArYpxPA9fdZHfOdG2QoAAn4qAtIefYjcpe70wYyhnWT2If_kzfKis1gisQSnh2kXkm9MihIAR_HC0esH7__bP5VSMaAamcBc-8PTo2xwY_kLGXWxGBdvPLCdzEJ1MSaWcPTxdiE8mALtevi4bpCtJ1cJiKwMaYUYg4AaX-DL7JjO7Dqo-Jt0UttxwNna0yTvnPnTd-sBjPByoXEBxnatWarSb4JGOT0ZI9X5x-HOphbaxOx3YxpYcs_FlqcYCQU_2-8mXZ6tHbFyDXB6j1VGizdLpQxKlZX5IqeSbsKGitG4Z-3Ba_A61gvvUgCxafyllK3fKCJHl8QBHpVAVXMoyzjCx-v27RMOdBNYTtHNQJeIxmHZ90g_Q8f_FkAHY4UqQ9jklimtr-mqdSkAht75FvdFRiRD1x-VUtakaiwzFU9_]--></g></svg>