<?xml version="1.0" encoding="us-ascii" standalone="no"?><svg xmlns="http://www.w3.org/2000/svg" xmlns:xlink="http://www.w3.org/1999/xlink" contentStyleType="text/css" height="575.2px" preserveAspectRatio="none" style="width:1157px;height:575px;background:#FFFFFF;" version="1.1" viewBox="0 0 1157 575" width="1157.6px" zoomAndPan="magnify"><defs/><g><text fill="#000000" font-family="sans-serif" font-size="11.2" font-weight="bold" lengthAdjust="spacing" textLength="124.8" x="510.8" y="20.0859">Domain Model - US004</text><!--class Client--><g id="elem_Client"><rect codeLine="14" fill="#F1F1F1" height="29.2969" id="Client" rx="2" ry="2" style="stroke:#181818;stroke-width:0.4000000000000001;" width="33.6" x="452.8" y="190.3609"/><text fill="#000000" font-family="sans-serif" font-size="11.2" lengthAdjust="spacing" textLength="28.8" x="455.2" y="206.4468">Client</text><line style="stroke:#181818;stroke-width:0.4000000000000001;" x1="453.6" x2="485.6" y1="213.2578" y2="213.2578"/></g><!--class Store--><g id="elem_Store"><rect codeLine="18" fill="#F1F1F1" height="88.8844" id="Store" rx="2" ry="2" style="stroke:#181818;stroke-width:0.4000000000000001;" width="80.8" x="653.6" y="75.1609"/><text fill="#000000" font-family="sans-serif" font-size="11.2" lengthAdjust="spacing" textLength="27.2" x="680.4" y="91.2468">Store</text><line style="stroke:#181818;stroke-width:0.4000000000000001;" x1="654.4" x2="733.6" y1="98.0578" y2="98.0578"/><text fill="#000000" font-family="sans-serif" font-size="11.2" lengthAdjust="spacing" textLength="10.4" x="658.4" y="113.3437">ID</text><text fill="#000000" font-family="sans-serif" font-size="11.2" lengthAdjust="spacing" textLength="58.4" x="658.4" y="128.2406">designation</text><text fill="#000000" font-family="sans-serif" font-size="11.2" lengthAdjust="spacing" textLength="71.2" x="658.4" y="143.1374">phoneNumber</text><text fill="#000000" font-family="sans-serif" font-size="11.2" lengthAdjust="spacing" textLength="68" x="658.4" y="158.0343">emailAddress</text></g><!--class RequestType--><g id="elem_RequestType"><rect codeLine="25" fill="#F1F1F1" height="59.0906" id="RequestType" rx="2" ry="2" style="stroke:#181818;stroke-width:0.4000000000000001;" width="72.8" x="40.8" y="313.9609"/><text fill="#000000" font-family="sans-serif" font-size="11.2" lengthAdjust="spacing" textLength="68" x="43.2" y="330.0468">RequestType</text><line style="stroke:#181818;stroke-width:0.4000000000000001;" x1="41.6" x2="112.8" y1="336.8578" y2="336.8578"/><text fill="#000000" font-family="sans-serif" font-size="11.2" lengthAdjust="spacing" textLength="20.8" x="45.6" y="352.1437">sale</text><text fill="#000000" font-family="sans-serif" font-size="11.2" lengthAdjust="spacing" textLength="20" x="45.6" y="367.0406">rent</text></g><!--class Agent--><g id="elem_Agent"><rect codeLine="30" fill="#F1F1F1" height="29.2969" id="Agent" rx="2" ry="2" style="stroke:#181818;stroke-width:0.4000000000000001;" width="34.4" x="676.8" y="207.1609"/><text fill="#000000" font-family="sans-serif" font-size="11.2" lengthAdjust="spacing" textLength="29.6" x="679.2" y="223.2468">Agent</text><line style="stroke:#181818;stroke-width:0.4000000000000001;" x1="677.6" x2="710.4" y1="230.0578" y2="230.0578"/></g><!--class Property--><g id="elem_Property"><rect codeLine="34" fill="#F1F1F1" height="73.9875" id="Property" rx="2" ry="2" style="stroke:#181818;stroke-width:0.4000000000000001;" width="97.6" x="420.8" y="319.5609"/><text fill="#000000" font-family="sans-serif" font-size="11.2" font-style="italic" lengthAdjust="spacing" textLength="43.2" x="448" y="335.6468">Property</text><line style="stroke:#181818;stroke-width:0.4000000000000001;" x1="421.6" x2="517.6" y1="342.4578" y2="342.4578"/><text fill="#000000" font-family="sans-serif" font-size="11.2" lengthAdjust="spacing" textLength="23.2" x="425.6" y="357.7437">area</text><text fill="#000000" font-family="sans-serif" font-size="11.2" lengthAdjust="spacing" textLength="24.8" x="425.6" y="372.6406">price</text><text fill="#000000" font-family="sans-serif" font-size="11.2" lengthAdjust="spacing" textLength="88" x="425.6" y="387.5374">distanceFromCity</text></g><!--class PropertyType--><g id="elem_PropertyType"><rect codeLine="40" fill="#F1F1F1" height="73.9875" id="PropertyType" rx="2" ry="2" style="stroke:#181818;stroke-width:0.4000000000000001;" width="73.6" x="657.2" y="423.5609"/><text fill="#000000" font-family="sans-serif" font-size="11.2" lengthAdjust="spacing" textLength="68.8" x="659.6" y="439.6468">PropertyType</text><line style="stroke:#181818;stroke-width:0.4000000000000001;" x1="658" x2="730" y1="446.4578" y2="446.4578"/><text fill="#000000" font-family="sans-serif" font-size="11.2" lengthAdjust="spacing" textLength="21.6" x="662" y="461.7437">land</text><text fill="#000000" font-family="sans-serif" font-size="11.2" lengthAdjust="spacing" textLength="31.2" x="662" y="476.6406">house</text><text fill="#000000" font-family="sans-serif" font-size="11.2" lengthAdjust="spacing" textLength="51.2" x="662" y="491.5374">apartment</text></g><!--class Photograph--><g id="elem_Photograph"><rect codeLine="46" fill="#F1F1F1" height="44.1938" id="Photograph" rx="2" ry="2" style="stroke:#181818;stroke-width:0.4000000000000001;" width="64" x="662" y="525.5609"/><text fill="#000000" font-family="sans-serif" font-size="11.2" lengthAdjust="spacing" textLength="59.2" x="664.4" y="541.6468">Photograph</text><line style="stroke:#181818;stroke-width:0.4000000000000001;" x1="662.8" x2="725.2" y1="548.4578" y2="548.4578"/><text fill="#000000" font-family="sans-serif" font-size="11.2" lengthAdjust="spacing" textLength="17.6" x="666.8" y="563.7437">URI</text></g><!--class Residence--><g id="elem_Residence"><rect codeLine="50" fill="#F1F1F1" height="73.9875" id="Residence" rx="2" ry="2" style="stroke:#181818;stroke-width:0.4000000000000001;" width="124" x="632" y="265.1609"/><text fill="#000000" font-family="sans-serif" font-size="11.2" font-style="italic" lengthAdjust="spacing" textLength="53.6" x="667.2" y="281.2468">Residence</text><line style="stroke:#181818;stroke-width:0.4000000000000001;" x1="632.8" x2="755.2" y1="288.0578" y2="288.0578"/><text fill="#000000" font-family="sans-serif" font-size="11.2" lengthAdjust="spacing" textLength="89.6" x="636.8" y="303.3437">numberBedrooms</text><text fill="#000000" font-family="sans-serif" font-size="11.2" lengthAdjust="spacing" textLength="92.8" x="636.8" y="318.2406">numberBathrooms</text><text fill="#000000" font-family="sans-serif" font-size="11.2" lengthAdjust="spacing" textLength="114.4" x="636.8" y="333.1374">numberParkingSpaces</text></g><!--class House--><g id="elem_House"><rect codeLine="56" fill="#F1F1F1" height="73.9875" id="House" rx="2" ry="2" style="stroke:#181818;stroke-width:0.4000000000000001;" width="107.2" x="866.8" y="177.9609"/><text fill="#000000" font-family="sans-serif" font-size="11.2" lengthAdjust="spacing" textLength="32" x="904.4" y="194.0468">House</text><line style="stroke:#181818;stroke-width:0.4000000000000001;" x1="867.6" x2="973.2" y1="200.8578" y2="200.8578"/><text fill="#000000" font-family="sans-serif" font-size="11.2" lengthAdjust="spacing" textLength="97.6" x="871.6" y="216.1437">existenceBasement</text><text fill="#000000" font-family="sans-serif" font-size="11.2" lengthAdjust="spacing" textLength="66.4" x="871.6" y="231.0406">existenceLoft</text><text fill="#000000" font-family="sans-serif" font-size="11.2" lengthAdjust="spacing" textLength="65.6" x="871.6" y="245.9374">sunExposure</text></g><!--class AdvertisementRequest--><g id="elem_AdvertisementRequest"><rect codeLine="62" fill="#F1F1F1" height="29.2969" id="AdvertisementRequest" rx="2" ry="2" style="stroke:#181818;stroke-width:0.4000000000000001;" width="118.4" x="197.6" y="248.7609"/><text fill="#000000" font-family="sans-serif" font-size="11.2" font-style="italic" lengthAdjust="spacing" textLength="113.6" x="200" y="264.8468">AdvertisementRequest</text><line style="stroke:#181818;stroke-width:0.4000000000000001;" x1="198.4" x2="315.2" y1="271.6578" y2="271.6578"/></g><!--class SaleAdvertisementRequest--><g id="elem_SaleAdvertisementRequest"><rect codeLine="66" fill="#F1F1F1" height="44.1938" id="SaleAdvertisementRequest" rx="2" ry="2" style="stroke:#181818;stroke-width:0.4000000000000001;" width="141.6" x="6.4" y="241.5609"/><text fill="#000000" font-family="sans-serif" font-size="11.2" lengthAdjust="spacing" textLength="136.8" x="8.8" y="257.6468">SaleAdvertisementRequest</text><line style="stroke:#181818;stroke-width:0.4000000000000001;" x1="7.2" x2="147.2" y1="264.4578" y2="264.4578"/><text fill="#000000" font-family="sans-serif" font-size="11.2" lengthAdjust="spacing" textLength="47.2" x="11.2" y="279.7437">totalPrice</text></g><!--class RentAdvertisementRequest--><g id="elem_RentAdvertisementRequest"><rect codeLine="70" fill="#F1F1F1" height="44.1938" id="RentAdvertisementRequest" rx="2" ry="2" style="stroke:#181818;stroke-width:0.4000000000000001;" width="143.2" x="5.6" y="169.5609"/><text fill="#000000" font-family="sans-serif" font-size="11.2" lengthAdjust="spacing" textLength="138.4" x="8" y="185.6468">RentAdvertisementRequest</text><line style="stroke:#181818;stroke-width:0.4000000000000001;" x1="6.4" x2="148" y1="192.4578" y2="192.4578"/><text fill="#000000" font-family="sans-serif" font-size="11.2" lengthAdjust="spacing" textLength="94.4" x="10.4" y="207.7437">rentPricePerMonth</text></g><!--class Address--><g id="elem_Address"><rect codeLine="74" fill="#F1F1F1" height="88.8844" id="Address" rx="2" ry="2" style="stroke:#181818;stroke-width:0.4000000000000001;" width="67.2" x="1084.8" y="313.5609"/><text fill="#000000" font-family="sans-serif" font-size="11.2" font-style="italic" lengthAdjust="spacing" textLength="41.6" x="1097.6" y="329.6468">Address</text><line style="stroke:#181818;stroke-width:0.4000000000000001;" x1="1085.6" x2="1151.2" y1="336.4578" y2="336.4578"/><text fill="#000000" font-family="sans-serif" font-size="11.2" lengthAdjust="spacing" textLength="40.8" x="1089.6" y="351.7437">zipCode</text><text fill="#000000" font-family="sans-serif" font-size="11.2" lengthAdjust="spacing" textLength="57.6" x="1089.6" y="366.6406">streetName</text><text fill="#000000" font-family="sans-serif" font-size="11.2" lengthAdjust="spacing" textLength="45.6" x="1089.6" y="381.5374">cityName</text><text fill="#000000" font-family="sans-serif" font-size="11.2" lengthAdjust="spacing" textLength="32.8" x="1089.6" y="396.4343">district</text></g><!--class Person--><g id="elem_Person"><rect codeLine="81" fill="#F1F1F1" height="103.7813" id="Person" rx="2" ry="2" style="stroke:#181818;stroke-width:0.4000000000000001;" width="117.6" x="861.6" y="45.9609"/><text fill="#000000" font-family="sans-serif" font-size="11.2" font-style="italic" lengthAdjust="spacing" textLength="36" x="902.4" y="62.0468">Person</text><line style="stroke:#181818;stroke-width:0.4000000000000001;" x1="862.4" x2="978.4" y1="68.8578" y2="68.8578"/><text fill="#000000" font-family="sans-serif" font-size="11.2" lengthAdjust="spacing" textLength="28" x="866.4" y="84.1437">name</text><text fill="#000000" font-family="sans-serif" font-size="11.2" lengthAdjust="spacing" textLength="108" x="866.4" y="99.0406">passportCardNumber</text><text fill="#000000" font-family="sans-serif" font-size="11.2" lengthAdjust="spacing" textLength="53.6" x="866.4" y="113.9374">taxNumber</text><text fill="#000000" font-family="sans-serif" font-size="11.2" lengthAdjust="spacing" textLength="68" x="866.4" y="128.8343">emailAddress</text><text fill="#000000" font-family="sans-serif" font-size="11.2" lengthAdjust="spacing" textLength="71.2" x="866.4" y="143.7312">phoneNumber</text></g><!--class AvailableEquipment--><g id="elem_AvailableEquipment"><rect codeLine="89" fill="#F1F1F1" height="59.0906" id="AvailableEquipment" rx="2" ry="2" style="stroke:#181818;stroke-width:0.4000000000000001;" width="104" x="868.4" y="279.5609"/><text fill="#000000" font-family="sans-serif" font-size="11.2" lengthAdjust="spacing" textLength="99.2" x="870.8" y="295.6468">AvailableEquipment</text><line style="stroke:#181818;stroke-width:0.4000000000000001;" x1="869.2" x2="971.6" y1="302.4578" y2="302.4578"/><text fill="#000000" font-family="sans-serif" font-size="11.2" lengthAdjust="spacing" textLength="72.8" x="873.2" y="317.7437">centralHeating</text><text fill="#000000" font-family="sans-serif" font-size="11.2" lengthAdjust="spacing" textLength="76" x="873.2" y="332.6406">airConditioning</text></g><!--link Client to Agent--><g id="link_Client_Agent"><path codeLine="94" d="M486.424,206.3689 C527.328,209.4569 635.32,217.5929 676.72,220.7209 " fill="none" id="Client-Agent" style="stroke:#181818;stroke-width:0.8000000000000002;"/><polygon fill="#000000" points="550.3887,203.5781,543.3499,200.6894,542.9963,205.3784,550.3887,203.5781" style="stroke:#000000;stroke-width:0.8000000000000002;"/><text fill="#000000" font-family="sans-serif" font-size="10.4" lengthAdjust="spacing" textLength="53.6" x="553.6" y="207.5835">chooses an</text><text fill="#000000" font-family="sans-serif" font-size="10.4" lengthAdjust="spacing" textLength="16" x="492.7852" y="219.7122">1..*</text><text fill="#000000" font-family="sans-serif" font-size="10.4" lengthAdjust="spacing" textLength="5.6" x="664.7195" y="215.8662">1</text></g><!--link Client to Store--><g id="link_Client_Store"><path codeLine="95" d="M486.424,199.0009 C521.048,185.7049 603.72,153.9369 653.4,134.8489 " fill="none" id="Client-Store" style="stroke:#181818;stroke-width:0.8000000000000002;"/><polygon fill="#000000" points="552.9339,145.8427,545.336,146.2431,547.0224,150.6326,552.9339,145.8427" style="stroke:#000000;stroke-width:0.8000000000000002;"/><text fill="#000000" font-family="sans-serif" font-size="10.4" lengthAdjust="spacing" textLength="48" x="556.4" y="151.5835">chooses a</text><text fill="#000000" font-family="sans-serif" font-size="10.4" lengthAdjust="spacing" textLength="16" x="492.7852" y="210.4562">0..*</text><text fill="#000000" font-family="sans-serif" font-size="10.4" lengthAdjust="spacing" textLength="5.6" x="641.6969" y="149.1881">1</text></g><!--link Client to Property--><g id="link_Client_Property"><path codeLine="96" d="M452.656,211.4889 C416.272,226.0649 336.12,264.1049 363.6,307.1609 C376.264,327.0009 399.216,338.9609 420.528,346.1129 " fill="none" id="Client-Property" style="stroke:#181818;stroke-width:0.8000000000000002;"/><polygon fill="#000000" points="351.7285,295.7865,347.7619,302.2792,352.3357,303.3707,351.7285,295.7865" style="stroke:#000000;stroke-width:0.8000000000000002;"/><text fill="#000000" font-family="sans-serif" font-size="10.4" lengthAdjust="spacing" textLength="31.2" x="358" y="303.9835">has an</text><text fill="#000000" font-family="sans-serif" font-size="10.4" lengthAdjust="spacing" textLength="5.6" x="440.7626" y="226.9815">1</text><text fill="#000000" font-family="sans-serif" font-size="10.4" lengthAdjust="spacing" textLength="16" x="398.2858" y="356.9499">1..*</text></g><!--link Client to Person--><g id="link_Client_Person"><path codeLine="97" d="M480.72,190.1369 C503.528,158.4969 561.816,85.8649 632,61.1609 C702.064,36.4969 786.912,52.4969 846.224,70.4729 " fill="none" id="Client-to-Person" style="stroke:#181818;stroke-width:0.8000000000000002;"/><polygon fill="none" points="847.928,65.1369,861.48,75.3129,844.536,75.8089,847.928,65.1369" style="stroke:#181818;stroke-width:0.8000000000000002;"/></g><!--link Store to Agent--><g id="link_Store_Agent"><path codeLine="99" d="M694,164.1769 C694,179.5609 694,195.7529 694,207.0729 " fill="none" id="Store-Agent" style="stroke:#181818;stroke-width:0.8000000000000002;"/><polygon fill="#000000" points="662.8,181.6773,660.4489,188.9133,665.1511,188.9133,662.8,181.6773" style="stroke:#000000;stroke-width:0.8000000000000002;"/><text fill="#000000" font-family="sans-serif" font-size="10.4" lengthAdjust="spacing" textLength="38.4" x="670" y="189.9835">works in</text><text fill="#000000" font-family="sans-serif" font-size="10.4" lengthAdjust="spacing" textLength="5.6" x="688.0588" y="181.6749">1</text><text fill="#000000" font-family="sans-serif" font-size="10.4" lengthAdjust="spacing" textLength="16" x="675.55" y="198.1356">1..*</text></g><!--reverse link Property to Residence--><g id="link_Property_Residence"><path codeLine="101" d="M534.144,340.8009 C564.832,333.3049 601.472,324.3609 631.848,316.9449 " fill="none" id="Property-backto-Residence" style="stroke:#181818;stroke-width:0.8000000000000002;"/><polygon fill="none" points="535.344,346.2649,518.472,344.6249,532.688,335.3849,535.344,346.2649" style="stroke:#181818;stroke-width:0.8000000000000002;"/></g><!--reverse link Property to PropertyType--><g id="link_Property_PropertyType"><path codeLine="102" d="M532.656,396.8089 C535.92,398.6089 539.176,400.3369 542.4,401.9609 C580.256,421.0489 625.92,437.9369 657.008,448.5769 " fill="none" id="Property-backto-PropertyType" style="stroke:#181818;stroke-width:0.8000000000000002;"/><polygon fill="none" points="529.496,401.4489,518.448,388.5929,535.104,391.7529,529.496,401.4489" style="stroke:#181818;stroke-width:0.8000000000000002;"/></g><!--link Property to Photograph--><g id="link_Property_Photograph"><path codeLine="103" d="M493.976,393.2729 C506.944,411.9529 524.096,434.2729 542.4,451.5609 C577.248,484.4649 591.416,486.0649 632,511.5609 C641.6,517.5929 652.208,523.9369 661.856,529.5929 " fill="none" id="Property-Photograph" style="stroke:#181818;stroke-width:0.8000000000000002;"/><polygon fill="#000000" points="562.3052,446.5987,558.1699,440.2122,555.2058,443.8626,562.3052,446.5987" style="stroke:#000000;stroke-width:0.8000000000000002;"/><text fill="#000000" font-family="sans-serif" font-size="10.4" lengthAdjust="spacing" textLength="28" x="566.4" y="448.3835">needs</text><text fill="#000000" font-family="sans-serif" font-size="10.4" lengthAdjust="spacing" textLength="5.6" x="491.6798" y="411.1771">1</text><text fill="#000000" font-family="sans-serif" font-size="10.4" lengthAdjust="spacing" textLength="11.2" x="644.4047" y="538.9691">30</text></g><!--reverse link Residence to House--><g id="link_Residence_House"><path codeLine="105" d="M771.248,272.3049 C802.64,260.1289 838.208,246.3369 866.648,235.3049 " fill="none" id="Residence-backto-House" style="stroke:#181818;stroke-width:0.8000000000000002;"/><polygon fill="none" points="773.168,277.5689,756.224,278.1369,769.12,267.1289,773.168,277.5689" style="stroke:#181818;stroke-width:0.8000000000000002;"/></g><!--link Residence to AvailableEquipment--><g id="link_Residence_AvailableEquipment"><path codeLine="106" d="M756.224,303.9289 C791.328,305.0489 834.84,306.4489 868.136,307.5129 " fill="none" id="Residence-AvailableEquipment" style="stroke:#181818;stroke-width:0.8000000000000002;"/><polygon fill="#000000" points="802.398,297.8053,795.2408,295.2238,795.0903,299.9236,802.398,297.8053" style="stroke:#000000;stroke-width:0.8000000000000002;"/><text fill="#000000" font-family="sans-serif" font-size="10.4" lengthAdjust="spacing" textLength="16.8" x="805.6" y="301.9835">has</text><text fill="#000000" font-family="sans-serif" font-size="10.4" lengthAdjust="spacing" textLength="5.6" x="762.4216" y="315.9799">1</text><text fill="#000000" font-family="sans-serif" font-size="10.4" lengthAdjust="spacing" textLength="16" x="845.9213" y="319.2845">1..*</text></g><!--link AdvertisementRequest to Client--><g id="link_AdvertisementRequest_Client"><path codeLine="108" d="M311.168,248.7449 C357.976,235.8089 422.96,217.8329 452.736,209.6009 " fill="none" id="AdvertisementRequest-Client" style="stroke:#181818;stroke-width:0.8000000000000002;"/><polygon fill="#000000" points="344.1447,219.5433,351.7456,219.881,350.4924,215.3487,344.1447,219.5433" style="stroke:#000000;stroke-width:0.8000000000000002;"/><text fill="#000000" font-family="sans-serif" font-size="10.4" lengthAdjust="spacing" textLength="36.8" x="355.2" y="222.7835">submits</text><text fill="#000000" font-family="sans-serif" font-size="10.4" lengthAdjust="spacing" textLength="16" x="309.3682" y="239.8297">1..*</text><text fill="#000000" font-family="sans-serif" font-size="10.4" lengthAdjust="spacing" textLength="5.6" x="408.7834" y="206.8509">1</text></g><!--link AdvertisementRequest to Property--><g id="link_AdvertisementRequest_Property"><path codeLine="109" d="M271.928,278.4969 C287.32,293.6169 313.2,316.5369 340,329.1609 C365.224,341.0409 395.656,347.7769 420.608,351.5689 " fill="none" id="AdvertisementRequest-Property" style="stroke:#181818;stroke-width:0.8000000000000002;"/><polygon fill="#000000" points="347.5899,323.4416,342.1328,318.1398,340.0587,322.36,347.5899,323.4416" style="stroke:#000000;stroke-width:0.8000000000000002;"/><text fill="#000000" font-family="sans-serif" font-size="10.4" lengthAdjust="spacing" textLength="44.8" x="351.2" y="325.9835">describes</text><text fill="#000000" font-family="sans-serif" font-size="10.4" lengthAdjust="spacing" textLength="5.6" x="269.6412" y="295.6331">1</text><text fill="#000000" font-family="sans-serif" font-size="10.4" lengthAdjust="spacing" textLength="5.6" x="408.6959" y="347.7693">1</text></g><!--link AdvertisementRequest to Agent--><g id="link_AdvertisementRequest_Agent"><path codeLine="110" d="M316.256,261.9849 C369.2,260.1689 449.176,256.4409 518.4,249.1609 C576.888,243.0089 645.688,230.8409 676.64,225.0969 " fill="none" id="AdvertisementRequest-Agent" style="stroke:#181818;stroke-width:0.8000000000000002;"/><polygon fill="#000000" points="449.6208,242.0846,457.0587,243.6867,456.5798,239.0088,449.6208,242.0846" style="stroke:#000000;stroke-width:0.8000000000000002;"/><text fill="#000000" font-family="sans-serif" font-size="10.4" lengthAdjust="spacing" textLength="28" x="460.8" y="245.9835">opens</text><text fill="#000000" font-family="sans-serif" font-size="10.4" lengthAdjust="spacing" textLength="5.6" x="322.3843" y="273.7481">1</text><text fill="#000000" font-family="sans-serif" font-size="10.4" lengthAdjust="spacing" textLength="16" x="654.4585" y="238.8067">1..*</text></g><!--link Property to Address--><g id="link_Property_Address"><path codeLine="112" d="M518.52,356.4809 C643.896,356.7929 978.296,357.6169 1084.64,357.8809 " fill="none" id="Property-Address" style="stroke:#181818;stroke-width:0.8000000000000002;"/><polygon fill="#000000" points="788,348.8872,780.7698,346.5181,780.7581,351.2204,788,348.8872" style="stroke:#000000;stroke-width:0.8000000000000002;"/><text fill="#000000" font-family="sans-serif" font-size="10.4" lengthAdjust="spacing" textLength="45.6" x="791.2" y="353.1835">located at</text><text fill="#000000" font-family="sans-serif" font-size="10.4" lengthAdjust="spacing" textLength="5.6" x="524.6851" y="368.4947">1</text><text fill="#000000" font-family="sans-serif" font-size="10.4" lengthAdjust="spacing" textLength="16" x="1062.5065" y="370.1014">1..*</text></g><!--link RequestType to AdvertisementRequest--><g id="link_RequestType_AdvertisementRequest"><path codeLine="114" d="M113.808,327.4649 C140.952,315.2649 178.528,298.3769 208.232,285.0329 " fill="none" id="RequestType-to-AdvertisementRequest" style="stroke:#181818;stroke-width:0.8000000000000002;"/><polygon fill="none" points="206.064,279.8649,222.952,278.4169,210.656,290.0809,206.064,279.8649" style="stroke:#181818;stroke-width:0.8000000000000002;"/></g><!--link Agent to Person--><g id="link_Agent_Person"><path codeLine="116" d="M711.328,212.8409 C739.648,197.2249 799.04,164.4649 847.176,137.9129 " fill="none" id="Agent-to-Person" style="stroke:#181818;stroke-width:0.8000000000000002;"/><polygon fill="none" points="844.672,132.8969,861.384,130.0729,850.08,142.7049,844.672,132.8969" style="stroke:#181818;stroke-width:0.8000000000000002;"/></g><!--link Person to Address--><g id="link_Person_Address"><path codeLine="118" d="M968.232,150.1769 C972,154.6569 975.704,159.1529 979.2,163.5609 C1018.76,213.3529 1060.64,273.3289 1087.832,313.3689 " fill="none" id="Person-Address" style="stroke:#181818;stroke-width:0.8000000000000002;"/><polygon fill="#000000" points="1009.5645,196.1036,1007.1835,188.8773,1003.3907,191.657,1009.5645,196.1036" style="stroke:#000000;stroke-width:0.8000000000000002;"/><text fill="#000000" font-family="sans-serif" font-size="10.4" lengthAdjust="spacing" textLength="45.6" x="1014.4" y="197.1835">located at</text></g><!--link SaleAdvertisementRequest to AdvertisementRequest--><g id="link_SaleAdvertisementRequest_AdvertisementRequest"><path codeLine="120" d="M148.096,263.5609 C158.952,263.5609 170.192,263.5609 181.152,263.5609 " fill="none" id="SaleAdvertisementRequest-to-AdvertisementRequest" style="stroke:#181818;stroke-width:0.8000000000000002;"/><polygon fill="none" points="181.456,257.9609,197.456,263.5609,181.456,269.1609,181.456,257.9609" style="stroke:#181818;stroke-width:0.8000000000000002;"/></g><!--link RentAdvertisementRequest to AdvertisementRequest--><g id="link_RentAdvertisementRequest_AdvertisementRequest"><path codeLine="121" d="M132.616,213.6489 C155.448,222.8889 181.856,233.5689 204.36,242.6729 " fill="none" id="RentAdvertisementRequest-to-AdvertisementRequest" style="stroke:#181818;stroke-width:0.8000000000000002;"/><polygon fill="none" points="206.496,237.4969,219.232,248.6889,202.296,247.8809,206.496,237.4969" style="stroke:#181818;stroke-width:0.8000000000000002;"/></g><!--SRC=[VLLjJzim4FxkNs7ruwIWJjkd2Y6nmWJIG1KTF-0Q7ub5OWVx0fIn_xwpdQGkQycNskTxddjyBwv_rAO31wrihR5bxMoBaboFmayd7PIFKE6QjWrAXoM1gPhSmTUWx8isbNo0ngCG3JwG92kThcgIIWUGjaPacB81xy-9dDxqXDUbDMlzXd8kHAqLobAxacF4TOjKM-M584siuCAse8syiGeRMSZxzNp-NOZ89vUDHaFoZn1_HzEQh4EsIFwkB-AFGgyh0r5Is7UrDNZRjnjqSOySe3bNog7tEw8xVEhHq-zjXudD0oiC2ySnTtxdrKu2R3mvA2bTLwwSxT3HTf033Y49SBfCL4fxJc-9FxaGIqtR7Us83V47V0D6nKLjUv_mmDcbTa_FghPaAmTTFS3kxwuFQBlZf2Zaq8ENYVduWSfPs_hS15H_jAt0SMMhDRSAPYcx2he6FdpbgmN-7-0nAjop_h8FoU9xS_dQMTyxFA3oN3rp4dHY62goNsukoX6dm4wMe5d5T6U5DVG995Gt8bReRgoX-g2is2m3uartI-xET1roY7GBRTgMNDDf4uhDn7IeKz1vQyPIZ82EZphhQ0bEPVrAy7giUp-szwvBdzaBDWrUFlMwQrFBHeMyTD1S8S-7gL9JQRUqHkamCC769CEWpRwUd7oPoQBWrMpe_8KiQsizUWb6dasUyzmp3MNccJdoSJ4IJmEpa3L4mjFHhoZUpuOq2P7uzg2Zc1Vh7htK0IackjDt5Z9r_0TxFccxeqZExD_citoa5j8WAi_wnMw28ari_imu4Wpo_iz_kYCJ7Mp6FDLo-cRZaxVWmTcqcZpVymX-odwMLNuAItw2CSJz7BQNLCQR44cCZJ-g2oz_LBWNfR4b42e9533PGvggU2WmKyTO1V-pcBpKmsImfZ7s7l-nz759-guu-Zny2ZhsGFm3]--></g></svg>