<?xml version="1.0" encoding="us-ascii" standalone="no"?><svg xmlns="http://www.w3.org/2000/svg" xmlns:xlink="http://www.w3.org/1999/xlink" contentStyleType="text/css" height="626px" preserveAspectRatio="none" style="width:607px;height:626px;background:#FFFFFF;" version="1.1" viewBox="0 0 607 626" width="607px" zoomAndPan="magnify"><defs/><g><text fill="#000000" font-family="sans-serif" font-size="14" font-weight="bold" lengthAdjust="spacing" textLength="147" x="223.25" y="22.6738">Domain Model US008</text><!--class Agent--><g id="elem_Agent"><rect codeLine="14" fill="#F1F1F1" height="33.6406" id="Agent" rx="2.5" ry="2.5" style="stroke:#181818;stroke-width:0.5;" width="43" x="151.5" y="436.6406"/><text fill="#000000" font-family="sans-serif" font-size="14" lengthAdjust="spacing" textLength="37" x="154.5" y="454.3145">Agent</text><line style="stroke:#181818;stroke-width:0.5;" x1="152.5" x2="193.5" y1="462.2813" y2="462.2813"/></g><!--class Client--><g id="elem_Client"><rect codeLine="17" fill="#F1F1F1" height="33.6406" id="Client" rx="2.5" ry="2.5" style="stroke:#181818;stroke-width:0.5;" width="42" x="374" y="277.6406"/><text fill="#000000" font-family="sans-serif" font-size="14" lengthAdjust="spacing" textLength="36" x="377" y="295.3145">Client</text><line style="stroke:#181818;stroke-width:0.5;" x1="375" x2="415" y1="303.2813" y2="303.2813"/></g><!--class Advertisement--><g id="elem_Advertisement"><rect codeLine="20" fill="#F1F1F1" height="49.2813" id="Advertisement" rx="2.5" ry="2.5" style="stroke:#181818;stroke-width:0.5;" width="96" x="7" y="270.1406"/><text fill="#000000" font-family="sans-serif" font-size="14" lengthAdjust="spacing" textLength="90" x="10" y="287.8145">Advertisement</text><line style="stroke:#181818;stroke-width:0.5;" x1="8" x2="102" y1="295.7813" y2="295.7813"/><text fill="#000000" font-family="sans-serif" font-size="14" lengthAdjust="spacing" textLength="28" x="13" y="312.4551">date</text></g><!--class AdvertisementRequest--><g id="elem_AdvertisementRequest"><rect codeLine="24" fill="#F1F1F1" height="33.6406" id="AdvertisementRequest" rx="2.5" ry="2.5" style="stroke:#181818;stroke-width:0.5;" width="148" x="99" y="157.6406"/><text fill="#000000" font-family="sans-serif" font-size="14" font-style="italic" lengthAdjust="spacing" textLength="142" x="102" y="175.3145">AdvertisementRequest</text><line style="stroke:#181818;stroke-width:0.5;" x1="100" x2="246" y1="183.2813" y2="183.2813"/></g><!--class Commission--><g id="elem_Commission"><rect codeLine="27" fill="#F1F1F1" height="33.6406" id="Commission" rx="2.5" ry="2.5" style="stroke:#181818;stroke-width:0.5;" width="82" x="132" y="585.6406"/><text fill="#000000" font-family="sans-serif" font-size="14" lengthAdjust="spacing" textLength="76" x="135" y="603.3145">Commission</text><line style="stroke:#181818;stroke-width:0.5;" x1="133" x2="213" y1="611.2813" y2="611.2813"/></g><!--class CommissionType--><g id="elem_CommissionType"><rect codeLine="30" fill="#F1F1F1" height="49.2813" id="CommissionType" rx="2.5" ry="2.5" style="stroke:#181818;stroke-width:0.5;" width="114" x="455" y="429.1406"/><text fill="#000000" font-family="sans-serif" font-size="14" lengthAdjust="spacing" textLength="108" x="458" y="446.8145">CommissionType</text><line style="stroke:#181818;stroke-width:0.5;" x1="456" x2="568" y1="454.7813" y2="454.7813"/><text fill="#000000" font-family="sans-serif" font-size="14" lengthAdjust="spacing" textLength="73" x="461" y="471.4551">designation</text></g><g id="elem_GMN8"><path d="M451.5,267.6406 L451.5,321.2109 A0,0 0 0 0 451.5,321.2109 L519.66,321.2109 L514.1,429.1006 L527.66,321.2109 L600.5,321.2109 A0,0 0 0 0 600.5,321.2109 L600.5,277.6406 L590.5,267.6406 L451.5,267.6406 A0,0 0 0 0 451.5,267.6406 " fill="#FAFAFA" style="stroke:#181818;stroke-width:0.5;"/><path d="M590.5,267.6406 L590.5,277.6406 L600.5,277.6406 L590.5,267.6406 " fill="#FAFAFA" style="stroke:#181818;stroke-width:0.5;"/><text fill="#000000" font-family="sans-serif" font-size="13" lengthAdjust="spacing" textLength="99" x="457.5" y="284.4092">commission type</text><text fill="#000000" font-family="sans-serif" font-size="13" lengthAdjust="spacing" textLength="128" x="457.5" y="298.9326">can be fixed ammount</text><text fill="#000000" font-family="sans-serif" font-size="13" lengthAdjust="spacing" textLength="79" x="457.5" y="313.4561">or percentage</text></g><!--class AcceptenceType--><g id="elem_AcceptenceType"><rect codeLine="40" fill="#F1F1F1" height="49.2813" id="AcceptenceType" rx="2.5" ry="2.5" style="stroke:#181818;stroke-width:0.5;" width="112" x="117" y="45.1406"/><text fill="#000000" font-family="sans-serif" font-size="14" lengthAdjust="spacing" textLength="106" x="120" y="62.8145">AcceptenceType</text><line style="stroke:#181818;stroke-width:0.5;" x1="118" x2="228" y1="70.7813" y2="70.7813"/><text fill="#000000" font-family="sans-serif" font-size="14" lengthAdjust="spacing" textLength="73" x="123" y="87.4551">designation</text></g><g id="elem_GMN12"><path d="M264.5,42.6406 L264.5,65.6406 L229.25,69.6406 L264.5,73.6406 L264.5,96.2109 A0,0 0 0 0 264.5,96.2109 L381.5,96.2109 A0,0 0 0 0 381.5,96.2109 L381.5,52.6406 L371.5,42.6406 L264.5,42.6406 A0,0 0 0 0 264.5,42.6406 " fill="#FAFAFA" style="stroke:#181818;stroke-width:0.5;"/><path d="M371.5,42.6406 L371.5,52.6406 L381.5,52.6406 L371.5,42.6406 " fill="#FAFAFA" style="stroke:#181818;stroke-width:0.5;"/><text fill="#000000" font-family="sans-serif" font-size="13" lengthAdjust="spacing" textLength="96" x="270.5" y="59.4092">acceptance type</text><text fill="#000000" font-family="sans-serif" font-size="13" lengthAdjust="spacing" textLength="82" x="270.5" y="73.9326">can be accept</text><text fill="#000000" font-family="sans-serif" font-size="13" lengthAdjust="spacing" textLength="56" x="270.5" y="88.4561">or decline</text></g><!--class Person--><g id="elem_Person"><rect codeLine="50" fill="#F1F1F1" height="111.8438" id="Person" rx="2.5" ry="2.5" style="stroke:#181818;stroke-width:0.5;" width="147" x="245.5" y="397.6406"/><text fill="#000000" font-family="sans-serif" font-size="14" font-style="italic" lengthAdjust="spacing" textLength="45" x="296.5" y="415.3145">Person</text><line style="stroke:#181818;stroke-width:0.5;" x1="246.5" x2="391.5" y1="423.2813" y2="423.2813"/><text fill="#000000" font-family="sans-serif" font-size="14" lengthAdjust="spacing" textLength="35" x="251.5" y="439.9551">name</text><text fill="#000000" font-family="sans-serif" font-size="14" lengthAdjust="spacing" textLength="135" x="251.5" y="455.5957">passportCardNumber</text><text fill="#000000" font-family="sans-serif" font-size="14" lengthAdjust="spacing" textLength="67" x="251.5" y="471.2363">taxNumber</text><text fill="#000000" font-family="sans-serif" font-size="14" lengthAdjust="spacing" textLength="85" x="251.5" y="486.877">emailAddress</text><text fill="#000000" font-family="sans-serif" font-size="14" lengthAdjust="spacing" textLength="89" x="251.5" y="502.5176">phoneNumber</text></g><!--class Employee--><g id="elem_Employee"><rect codeLine="58" fill="#F1F1F1" height="33.6406" id="Employee" rx="2.5" ry="2.5" style="stroke:#181818;stroke-width:0.5;" width="68" x="271" y="277.6406"/><text fill="#000000" font-family="sans-serif" font-size="14" font-style="italic" lengthAdjust="spacing" textLength="62" x="274" y="295.3145">Employee</text><line style="stroke:#181818;stroke-width:0.5;" x1="272" x2="338" y1="303.2813" y2="303.2813"/></g><!--link Advertisement to Agent--><g id="link_Advertisement_Agent"><path codeLine="61" d="M58.85,319.4006 C62.03,334.1506 67.6,353.0206 77,367.6406 C96.38,397.7906 129.35,423.6406 151.16,438.6706 " fill="none" id="Advertisement-Agent" style="stroke:#181818;stroke-width:1.0;"/><polygon fill="#000000" points="78.9397,355.9483,82.1517,364.9,86.8,361.3025,78.9397,355.9483" style="stroke:#000000;stroke-width:1.0;"/><text fill="#000000" font-family="sans-serif" font-size="13" lengthAdjust="spacing" textLength="55" x="91" y="364.4092">publishes</text><text fill="#000000" font-family="sans-serif" font-size="13" lengthAdjust="spacing" textLength="5" x="54.1959" y="339.3387">*</text><text fill="#000000" font-family="sans-serif" font-size="13" lengthAdjust="spacing" textLength="7" x="136.3996" y="429.846">1</text></g><!--link Advertisement to Commission--><g id="link_Advertisement_Commission"><path codeLine="62" d="M53.42,319.2306 C51.69,360.2406 52.54,446.3506 84,509.6406 C99.63,541.0806 129.87,568.7606 150.73,585.3406 " fill="none" id="Advertisement-Commission" style="stroke:#181818;stroke-width:1.0;"/><polygon fill="#000000" points="90.7172,458.5982,90.371,449.094,84.8506,451.1126,90.7172,458.5982" style="stroke:#000000;stroke-width:1.0;"/><text fill="#000000" font-family="sans-serif" font-size="13" lengthAdjust="spacing" textLength="35" x="98" y="458.4092">needs</text><text fill="#000000" font-family="sans-serif" font-size="13" lengthAdjust="spacing" textLength="7" x="45.1183" y="339.1251">1</text><text fill="#000000" font-family="sans-serif" font-size="13" lengthAdjust="spacing" textLength="7" x="134.8716" y="574.9078">1</text></g><!--link AdvertisementRequest to Advertisement--><g id="link_AdvertisementRequest_Advertisement"><path codeLine="64" d="M122.2,191.7006 C106.57,198.7606 90.48,208.5106 79,221.6406 C67.2,235.1306 61.17,254.6006 58.1,269.9006 " fill="none" id="AdvertisementRequest-Advertisement" style="stroke:#181818;stroke-width:1.0;"/><polygon fill="#000000" points="80.8303,233.7693,88.8373,228.637,84.2914,224.9108,80.8303,233.7693" style="stroke:#000000;stroke-width:1.0;"/><text fill="#000000" font-family="sans-serif" font-size="13" lengthAdjust="spacing" textLength="53" x="93" y="234.4092">becomes</text><text fill="#000000" font-family="sans-serif" font-size="13" lengthAdjust="spacing" textLength="7" x="98.5706" y="210.9727">1</text><text fill="#000000" font-family="sans-serif" font-size="13" lengthAdjust="spacing" textLength="7" x="50.9975" y="259.5668">1</text></g><!--link AcceptenceType to AdvertisementRequest--><g id="link_AcceptenceType_AdvertisementRequest"><path codeLine="65" d="M173,94.2706 C173,107.0506 173,123.1106 173,137.4406 " fill="none" id="AcceptenceType-to-AdvertisementRequest" style="stroke:#181818;stroke-width:1.0;"/><polygon fill="none" points="180,137.4906,173,157.4906,166,137.4906,180,137.4906" style="stroke:#181818;stroke-width:1.0;"/></g><!--link Agent to Commission--><g id="link_Agent_Commission"><path codeLine="67" d="M173,470.6506 C173,498.7806 173,556.7706 173,585.2006 " fill="none" id="Agent-Commission" style="stroke:#181818;stroke-width:1.0;"/><polygon fill="#000000" points="178,552.9023,180.9389,543.8573,175.0611,543.8573,178,552.9023" style="stroke:#000000;stroke-width:1.0;"/><text fill="#000000" font-family="sans-serif" font-size="13" lengthAdjust="spacing" textLength="41" x="187" y="552.4092">defines</text><text fill="#000000" font-family="sans-serif" font-size="13" lengthAdjust="spacing" textLength="7" x="164.9281" y="489.9074">1</text><text fill="#000000" font-family="sans-serif" font-size="13" lengthAdjust="spacing" textLength="7" x="164.8406" y="575.0196">1</text></g><!--link CommissionType to Commission--><g id="link_CommissionType_Commission"><path codeLine="68" d="M470.91,478.3106 C452.54,488.4906 430.46,500.2006 410,509.6406 C351.13,536.8106 281.79,563.0906 233.38,580.5506 " fill="none" id="CommissionType-to-Commission" style="stroke:#181818;stroke-width:1.0;"/><polygon fill="none" points="235.51,587.2306,214.32,587.3606,230.8,574.0406,235.51,587.2306" style="stroke:#181818;stroke-width:1.0;"/></g><!--link AdvertisementRequest to Agent--><g id="link_AdvertisementRequest_Agent"><path codeLine="70" d="M173,191.7306 C173,240.6906 173,387.4906 173,436.5106 " fill="none" id="AdvertisementRequest-Agent" style="stroke:#181818;stroke-width:1.0;"/><polygon fill="#000000" points="178,289.9023,175.0611,298.9474,180.9389,298.9474,178,289.9023" style="stroke:#000000;stroke-width:1.0;"/><text fill="#000000" font-family="sans-serif" font-size="13" lengthAdjust="spacing" textLength="48" x="187" y="299.4092">analizes</text><text fill="#000000" font-family="sans-serif" font-size="13" lengthAdjust="spacing" textLength="5" x="167.2344" y="211.0119">*</text><text fill="#000000" font-family="sans-serif" font-size="13" lengthAdjust="spacing" textLength="7" x="164.7531" y="425.8401">1</text></g><!--link AdvertisementRequest to Client--><g id="link_AdvertisementRequest_Client"><path codeLine="71" d="M208.07,191.7006 C245.41,209.1606 305.9,238.4906 356,267.6406 C361.91,271.0806 368.14,275.0606 373.84,278.8606 " fill="none" id="AdvertisementRequest-Client" style="stroke:#181818;stroke-width:1.0;"/><polygon fill="#000000" points="297.5744,227.5754,304.2126,234.3861,306.9481,229.1836,297.5744,227.5754" style="stroke:#000000;stroke-width:1.0;"/><text fill="#000000" font-family="sans-serif" font-size="13" lengthAdjust="spacing" textLength="46" x="311" y="234.4092">submits</text><text fill="#000000" font-family="sans-serif" font-size="13" lengthAdjust="spacing" textLength="20" x="195.7477" y="210.9727">1..*</text><text fill="#000000" font-family="sans-serif" font-size="13" lengthAdjust="spacing" textLength="7" x="358.9796" y="269.5088">1</text></g><!--link Employee to Person--><g id="link_Employee_Person"><path codeLine="73" d="M306.45,311.8506 C307.85,327.6006 310.09,352.6806 312.29,377.3406 " fill="none" id="Employee-to-Person" style="stroke:#181818;stroke-width:1.0;"/><polygon fill="none" points="319.26,376.7406,314.06,397.2906,305.32,377.9906,319.26,376.7406" style="stroke:#181818;stroke-width:1.0;"/></g><!--link Client to Person--><g id="link_Client_Person"><path codeLine="74" d="M387.15,311.8506 C379.34,327.9906 366.78,353.9306 354.56,379.1806 " fill="none" id="Client-to-Person" style="stroke:#181818;stroke-width:1.0;"/><polygon fill="none" points="360.81,382.3406,345.79,397.2906,348.21,376.2406,360.81,382.3406" style="stroke:#181818;stroke-width:1.0;"/></g><!--reverse link Employee to Agent--><g id="link_Employee_Agent"><path codeLine="75" d="M278.4,327.2806 C250.69,360.2306 208.37,410.5706 186.75,436.2806 " fill="none" id="Employee-backto-Agent" style="stroke:#181818;stroke-width:1.0;"/><polygon fill="none" points="273.14,322.6506,291.37,311.8506,283.86,331.6606,273.14,322.6506" style="stroke:#181818;stroke-width:1.0;"/></g><!--SRC=[VLFBZXCn4BpxArgv827jAdj3ezLAqSA10mWH-80UkpDZhL_OFR21vT_nU99v9KjEa-hgwdArdPwq2nZHWlNEopPwIy2n8v76Ia3vX0tj-MW88ab6rvWv8RMe_2_j6ZYWIIJ46qC71lOGTTCoADrtQU_4h4aQJ6d777NTCNsKtktrRuAj4ArM1597cOUKRqlSUfM4OCtPmdjlKJluv1KP-BxVRjy9KTHWrv1Z-2F-de57erV8Jlsao3gH7GgGVmgPUWRMYIDAXYlKh_IZexGKzzRgbFAvhgFVZe7E4oZfnc7983ETvvoo3-0FAtvXoqcOHmmTr0G7_KmAq5hVEIu57o5GbDbYtf4Wfw1N7uyh9GKc9wbNVztCiAXiPzbG-5WWpD25dQ5qzg586ktc9bQ9Vg6OIbfzWqCxQ8LS2Zxo8qRrkRCrnG8pFi_-KTwvsIaLAQMXg_MEJeJBtNsmmVWZqR2PvT8tRpTmSmERkytfmbGGkjher5A2-pNvRYJFzbs18r897bRQvriowrhKgnnQtYxrdSkaC_tbuUgLooEQ_pbHTCYXzughgrSK9-mrgtqQKnWLe4EJN-955DFPRc-d18SNLa7gQgkvRn9ZziN0i7DnUebpQEJTlsInCbty0m00]--></g></svg>